<svg id="Layer_1" data-name="Layer 1" xmlns="http://www.w3.org/2000/svg" viewBox="0 0 719.75 334.01"><defs><style>.cls-1{opacity:0.5;}.cls-2{fill:#6831e4;}</style></defs><g class="cls-1"><rect class="cls-2" x="203.57" y="25.7"/><polygon class="cls-2" points="190.26 53.82 190.26 53.82 190.26 53.82 190.26 53.82 190.26 53.82"/><polygon class="cls-2" points="175.73 82.8 175.73 82.8 175.73 82.8 175.73 82.8 175.73 82.8"/><polygon class="cls-2" points="189.82 83.92 189.82 83.92 189.82 83.92 189.83 83.92 189.82 83.92"/><polygon class="cls-2" points="204.69 83.39 204.69 83.39 204.69 83.39 204.69 83.39 204.69 83.39"/><polygon class="cls-2" points="159.98 112.22 159.97 112.22 159.98 112.22 159.98 112.22 159.98 112.22"/><polygon class="cls-2" points="174.16 113.06 174.16 113.05 174.16 113.05 174.16 113.05 174.16 113.06"/><polygon class="cls-2" points="189.21 112.25 189.21 112.25 189.21 112.24 189.22 112.25 189.21 112.25"/><polygon class="cls-2" points="205.1 109.83 205.1 109.83 205.1 109.83 205.1 109.83 205.1 109.83"/><polygon class="cls-2" points="221.72 105.92 221.72 105.92 221.72 105.91 221.72 105.92 221.72 105.92"/><polygon class="cls-2" points="238.91 100.7 238.91 100.7 238.91 100.69 238.92 100.7 238.91 100.7"/><polygon class="cls-2" points="129.77 139.46 129.77 139.45 129.77 139.44 129.78 139.45 129.77 139.46"/><polygon class="cls-2" points="143.06 141.72 143.06 141.71 143.06 141.7 143.07 141.71 143.06 141.72"/><polygon class="cls-2" points="157.3 142.38 157.29 142.38 157.3 142.37 157.3 142.38 157.3 142.38"/><polygon class="cls-2" points="172.51 141.41 172.5 141.4 172.51 141.39 172.52 141.4 172.51 141.41"/><path class="cls-2" d="M188.67,138.81Z"/><path class="cls-2" d="M205.67,134.7h0Z"/><path class="cls-2" d="M223.34,129.22h0Z"/><path class="cls-2" d="M241.45,122.66h0a0,0,0,0,1,0,0Z"/><path class="cls-2" d="M259.75,115.35Z"/><path class="cls-2" d="M111.92,168.75h0s0,0,0,0a0,0,0,0,1,0,0Z"/><path class="cls-2" d="M125.08,171s0,0,0,0h0A0,0,0,0,1,125.08,171Z"/><path class="cls-2" d="M139.31,171.57h0l0,0s0,0,0,0Z"/><path class="cls-2" d="M154.64,170.54h0s0,0,0,0a0,0,0,0,1,0,0Z"/><path class="cls-2" d="M171.05,167.88l0,0s0,0,0,0,0,0,0,0Z"/><path class="cls-2" d="M188.42,163.66s0,0,0,0h0A0,0,0,0,1,188.42,163.66Z"/><path class="cls-2" d="M206.58,158h0a0,0,0,0,1,0,0s0,0,0,0Z"/><path class="cls-2" d="M225.27,151.23a0,0,0,0,1,0,0,0,0,0,0,1,0,0,0,0,0,0,1,0,0Z"/><path class="cls-2" d="M244.24,143.58s0,0,0,0,0,0,0,0,0,0,0,0S244.25,143.58,244.24,143.58Z"/><path class="cls-2" d="M263.17,135.52s0,0,0,0h0S263.18,135.52,263.17,135.52Z"/><path class="cls-2" d="M281.69,127.78l0,0s0,0,0,0,0,0,0,0Z"/><path class="cls-2" d="M93.19,197.45l0,0s0,0,0,0a0,0,0,0,1,0,0Z"/><path class="cls-2" d="M106.15,199.69a0,0,0,0,1,0,0l0,0s0,0,0,0S106.17,199.69,106.15,199.69Z"/><path class="cls-2" d="M120.3,200.35l0,0a0,0,0,0,1,0,0s0,0,0,0S120.32,200.35,120.3,200.35Z"/><path class="cls-2" d="M135.7,199.37s0,0,0,0a0,0,0,0,1,0,0s0,0,0,0A0,0,0,0,1,135.7,199.37Z"/><path class="cls-2" d="M152.3,196.74a0,0,0,0,1,0,0,0,0,0,0,1,0,0s0,0,0,0S152.32,196.74,152.3,196.74Z"/><path class="cls-2" d="M170,192.53a0,0,0,1,1,0-.06s0,0,0,0S170,192.53,170,192.53Z"/><path class="cls-2" d="M188.65,186.85a0,0,0,0,1,0,0s0,0,0,0l0,0S188.66,186.85,188.65,186.85Z"/><path class="cls-2" d="M207.94,179.91a0,0,0,0,1,0,0s0,0,0,0a0,0,0,0,1,0,0S208,179.91,207.94,179.91Z"/><path class="cls-2" d="M227.6,172s0,0,0,0a0,0,0,0,1,0,0,0,0,0,0,1,0,0S227.61,172,227.6,172Z"/><path class="cls-2" d="M247.3,163.56s0,0,0,0,0,0,0,0,0,0,0,0A0,0,0,0,1,247.3,163.56Z"/><path class="cls-2" d="M266.71,155.06s0,0,0,0a0,0,0,1,1,.06,0S266.73,155.06,266.71,155.06Z"/><path class="cls-2" d="M285.21,147.75a0,0,0,1,1,0-.07,0,0,0,0,1,0,.07A0,0,0,0,1,285.21,147.75Z"/><path class="cls-2" d="M302.58,142.32s0,0,0,0a0,0,0,0,1,0,0s0,0,0,0A0,0,0,0,1,302.58,142.32Z"/><path class="cls-2" d="M86.41,227.73a0,0,0,0,1,0,0s0,0,0,0a0,0,0,0,1,0,0A0,0,0,0,1,86.41,227.73Z"/><path class="cls-2" d="M100.4,228.52a0,0,0,0,1,0,0l0,0a0,0,0,0,1,0,0A0,0,0,0,1,100.4,228.52Z"/><path class="cls-2" d="M115.78,227.67a0,0,0,0,1,0,0s0,0,0,0,0,0,0,0A0,0,0,0,1,115.78,227.67Z"/><path class="cls-2" d="M132.53,225.17a0,0,0,0,1,0,0s0,0,0,0a0,0,0,0,1,0,0S132.55,225.17,132.53,225.17Z"/><path class="cls-2" d="M150.53,221.06s0,0,0,0,0,0,0,0a0,0,0,1,1,0,.08Z"/><path class="cls-2" d="M169.61,215.44a0,0,0,0,1,0,0s0-.05,0-.05a0,0,0,0,1,0,.05A0,0,0,0,1,169.61,215.44Z"/><path class="cls-2" d="M189.49,208.47a0,0,0,1,1,0-.08,0,0,0,0,1,0,0A0,0,0,0,1,189.49,208.47Z"/><path class="cls-2" d="M209.85,200.43a0,0,0,0,1,0,0,0,0,0,0,1,.05,0,0,0,0,0,1,0,0A0,0,0,0,1,209.85,200.43Z"/><path class="cls-2" d="M230.36,191.68a0,0,0,0,1,0,0,0,0,0,0,1,0,0,0,0,0,0,1,0,0A0,0,0,0,1,230.36,191.68Z"/><path class="cls-2" d="M250.65,182.7a0,0,0,0,1-.05,0,0,0,0,0,1,.05,0,0,0,0,0,1,0,0A0,0,0,0,1,250.65,182.7Z"/><path class="cls-2" d="M270.28,174.22a0,0,0,0,1,0,0,0,0,0,0,1,0-.05,0,0,0,0,1,0,.05A0,0,0,0,1,270.28,174.22Z"/><path class="cls-2" d="M288.62,167.57a.05.05,0,1,1,.05,0A0,0,0,0,1,288.62,167.57Z"/><path class="cls-2" d="M305.88,162.63a0,0,0,0,1-.05,0,.05.05,0,0,1,.05-.05.05.05,0,0,1,0,.1Z"/><path class="cls-2" d="M79.73,255.92s0,0,0,0,0,0,0,0a0,0,0,0,1,0,0A0,0,0,0,1,79.73,255.92Z"/><path class="cls-2" d="M95,255.28a0,0,0,1,1,0-.05A0,0,0,0,1,95,255.28Z"/><path class="cls-2" d="M111.82,253a0,0,0,0,1,0,0,.05.05,0,0,1,0-.05.06.06,0,0,1,.05.06A0,0,0,0,1,111.82,253Z"/><path class="cls-2" d="M130.06,249.06a.05.05,0,1,1,.05-.05A0,0,0,0,1,130.06,249.06Z"/><path class="cls-2" d="M149.53,243.59a0,0,0,0,1-.05-.05.05.05,0,0,1,.05,0s.06,0,.05,0A0,0,0,0,1,149.53,243.59Z"/><path class="cls-2" d="M170,236.71a.06.06,0,0,1-.05-.06,0,0,0,0,1,.05-.05s.06,0,.06.05A.06.06,0,0,1,170,236.71Z"/><path class="cls-2" d="M191.05,228.64a.06.06,0,0,1-.06-.06.06.06,0,0,1,.06-.05,0,0,0,0,1,0,.05A.06.06,0,0,1,191.05,228.64Z"/><path class="cls-2" d="M212.38,219.71a.06.06,0,0,1,0-.12.06.06,0,0,1,0,.12Z"/><path class="cls-2" d="M233.57,210.36a.06.06,0,0,1-.06-.06.06.06,0,1,1,.06.06Z"/><path class="cls-2" d="M254.25,201.15a.07.07,0,0,1-.07-.06.07.07,0,0,1,.07-.06.06.06,0,0,1,.06.06A.06.06,0,0,1,254.25,201.15Z"/><path class="cls-2" d="M273.77,193.22a.07.07,0,0,1-.07-.06.07.07,0,1,1,.14,0A.07.07,0,0,1,273.77,193.22Z"/><path class="cls-2" d="M292,187.15a.06.06,0,0,1-.06-.06A.07.07,0,0,1,292,187a.07.07,0,0,1,.07.07A.06.06,0,0,1,292,187.15Z"/><path class="cls-2" d="M309.1,182.68a.07.07,0,0,1,0-.14.07.07,0,0,1,0,.14Z"/><path class="cls-2" d="M322.34,159.08a0,0,0,0,1,0-.05,0,0,0,0,1,.1,0A0,0,0,0,1,322.34,159.08Z"/><path class="cls-2" d="M73.49,282.09a.08.08,0,0,1-.08-.07.09.09,0,0,1,.08-.08.08.08,0,0,1,.07.08A.07.07,0,0,1,73.49,282.09Z"/><path class="cls-2" d="M90.28,280.07a.08.08,0,1,1,.08-.08A.09.09,0,0,1,90.28,280.07Z"/><path class="cls-2" d="M108.68,276.41a.09.09,0,0,1-.08-.08.09.09,0,0,1,.08-.09.09.09,0,0,1,.09.09A.08.08,0,0,1,108.68,276.41Z"/><path class="cls-2" d="M128.5,271.17a.08.08,0,0,1,0-.16c.05,0,.09,0,.08.08A.07.07,0,0,1,128.5,271.17Z"/><path class="cls-2" d="M149.46,264.47a.09.09,0,0,1-.08-.09.09.09,0,0,1,.08-.08.09.09,0,0,1,.09.08A.09.09,0,0,1,149.46,264.47Z"/><path class="cls-2" d="M171.22,256.48a.09.09,0,1,1,.09-.09C171.31,256.44,171.27,256.49,171.22,256.48Z"/><path class="cls-2" d="M193.37,247.49a.08.08,0,0,1-.08-.09.08.08,0,0,1,.09-.08.08.08,0,0,1,.08.09A.09.09,0,0,1,193.37,247.49Z"/><path class="cls-2" d="M215.51,237.9a.09.09,0,1,1,.09-.09A.09.09,0,0,1,215.51,237.9Z"/><path class="cls-2" d="M237.19,228.23c-.05,0-.1,0-.09-.09a.09.09,0,0,1,.09-.1.09.09,0,0,1,.1.1A.09.09,0,0,1,237.19,228.23Z"/><path class="cls-2" d="M258,219.23a.09.09,0,0,1-.1-.09.1.1,0,0,1,.1-.1.09.09,0,0,1,.09.1A.09.09,0,0,1,258,219.23Z"/><path class="cls-2" d="M277.24,212a.11.11,0,0,1-.1-.1.1.1,0,0,1,.1-.1.09.09,0,0,1,.1.1A.1.1,0,0,1,277.24,212Z"/><path class="cls-2" d="M295.26,206.48a.11.11,0,0,1-.11-.1.12.12,0,0,1,.11-.11.1.1,0,0,1,.1.11A.09.09,0,0,1,295.26,206.48Z"/><path class="cls-2" d="M312.28,202.45a.11.11,0,0,1-.11-.11.11.11,0,0,1,.21,0A.11.11,0,0,1,312.28,202.45Z"/><path class="cls-2" d="M325.46,179.52a.08.08,0,0,1-.07-.08.07.07,0,0,1,.14,0A.07.07,0,0,1,325.46,179.52Z"/><path class="cls-2" d="M68,306.31a.1.1,0,0,1-.1-.1.09.09,0,0,1,.1-.09.09.09,0,0,1,.1.1A.09.09,0,0,1,68,306.31Z"/><path class="cls-2" d="M86.48,303a.1.1,0,0,1-.1-.1.11.11,0,0,1,.1-.1.1.1,0,0,1,.1.1A.09.09,0,0,1,86.48,303Z"/><path class="cls-2" d="M106.58,298.05a.11.11,0,1,1,.11-.11A.11.11,0,0,1,106.58,298.05Z"/><path class="cls-2" d="M128,291.61a.11.11,0,1,1,0-.22.1.1,0,0,1,.1.11A.11.11,0,0,1,128,291.61Z"/><path class="cls-2" d="M150.42,283.8a.11.11,0,0,1-.11-.11.13.13,0,0,1,.12-.11.11.11,0,0,1,.11.11A.12.12,0,0,1,150.42,283.8Z"/><path class="cls-2" d="M173.39,274.88a.12.12,0,0,1,0-.24.13.13,0,0,1,.12.12A.12.12,0,0,1,173.39,274.88Z"/><path class="cls-2" d="M196.47,265.17a.12.12,0,0,1-.12-.12.13.13,0,0,1,.12-.12.12.12,0,0,1,.12.12A.12.12,0,0,1,196.47,265.17Z"/><path class="cls-2" d="M219.2,255.17a.12.12,0,0,1-.12-.12.12.12,0,0,1,.12-.12.12.12,0,0,1,.12.12A.13.13,0,0,1,219.2,255.17Z"/><path class="cls-2" d="M241.13,245.49a.13.13,0,0,1-.13-.13.12.12,0,0,1,.13-.12.12.12,0,0,1,.12.12A.13.13,0,0,1,241.13,245.49Z"/><path class="cls-2" d="M261.67,237.11a.12.12,0,0,1-.13-.12.13.13,0,0,1,.26,0A.12.12,0,0,1,261.67,237.11Z"/><path class="cls-2" d="M280.71,230.51a.12.12,0,0,1-.12-.12.13.13,0,0,1,.13-.13.13.13,0,0,1,.12.13A.12.12,0,0,1,280.71,230.51Z"/><path class="cls-2" d="M298.55,225.52a.13.13,0,1,1,0-.26.13.13,0,0,1,0,.26Z"/><path class="cls-2" d="M315.4,221.94a.13.13,0,0,1-.13-.13.14.14,0,0,1,.14-.14.14.14,0,0,1,0,.27Z"/><path class="cls-2" d="M328.5,199.68a.11.11,0,0,1-.1-.11.11.11,0,0,1,.11-.11.1.1,0,0,1,.1.11A.11.11,0,0,1,328.5,199.68Z"/><path class="cls-2" d="M341.22,177.41s-.08,0-.08-.08a.08.08,0,0,1,.08-.07.07.07,0,0,1,.07.07A.08.08,0,0,1,341.22,177.41Z"/><path class="cls-2" d="M83.82,324.16a.13.13,0,0,1-.13-.14.13.13,0,0,1,.13-.14A.14.14,0,0,1,84,324,.14.14,0,0,1,83.82,324.16Z"/><path class="cls-2" d="M105.68,318.05a.14.14,0,0,1-.14-.14.14.14,0,1,1,.27,0A.13.13,0,0,1,105.68,318.05Z"/><path class="cls-2" d="M128.7,310.52a.14.14,0,1,1,.14-.14A.14.14,0,0,1,128.7,310.52Z"/><path class="cls-2" d="M152.46,301.75a.14.14,0,0,1-.14-.14.15.15,0,0,1,.14-.14.14.14,0,0,1,.14.14A.14.14,0,0,1,152.46,301.75Z"/><path class="cls-2" d="M176.48,292.06a.15.15,0,1,1,0-.29.14.14,0,0,1,.14.14A.15.15,0,0,1,176.48,292.06Z"/><path class="cls-2" d="M200.27,281.86a.15.15,0,1,1,0-.3.15.15,0,0,1,.15.15A.15.15,0,0,1,200.27,281.86Z"/><path class="cls-2" d="M223.34,271.73a.15.15,0,1,1,.15-.15A.15.15,0,0,1,223.34,271.73Z"/><path class="cls-2" d="M245.18,262.44a.16.16,0,1,1,.16-.16A.16.16,0,0,1,245.18,262.44Z"/><path class="cls-2" d="M265.39,254.8a.16.16,0,1,1,.16-.16A.16.16,0,0,1,265.39,254.8Z"/><path class="cls-2" d="M284.18,248.81a.16.16,0,1,1,0-.32.16.16,0,0,1,.16.16A.16.16,0,0,1,284.18,248.81Z"/><path class="cls-2" d="M301.8,244.35a.17.17,0,0,1-.17-.17.18.18,0,0,1,.17-.17.17.17,0,0,1,.17.17A.16.16,0,0,1,301.8,244.35Z"/><path class="cls-2" d="M318.45,241.25a.18.18,0,1,1,.18-.17A.18.18,0,0,1,318.45,241.25Z"/><path class="cls-2" d="M331.47,219.59a.15.15,0,0,1-.14-.14.14.14,0,0,1,.14-.14.13.13,0,0,1,.13.14A.14.14,0,0,1,331.47,219.59Z"/><path class="cls-2" d="M344.12,198a.12.12,0,0,1-.12-.12.12.12,0,0,1,.12-.11.11.11,0,0,1,.11.12A.11.11,0,0,1,344.12,198Z"/><path class="cls-2" d="M356.53,176.11a.08.08,0,0,1-.08-.07.09.09,0,0,1,.08-.08.08.08,0,0,1,.07.08A.07.07,0,0,1,356.53,176.11Z"/><path class="cls-2" d="M130.59,328.06a.18.18,0,0,1-.17-.17.17.17,0,0,1,.18-.17.17.17,0,0,1,.17.17A.17.17,0,0,1,130.59,328.06Z"/><path class="cls-2" d="M155.56,318.48a.18.18,0,0,1-.18-.17.17.17,0,0,1,.18-.17.18.18,0,0,1,.17.17A.17.17,0,0,1,155.56,318.48Z"/><path class="cls-2" d="M180.42,308.22a.18.18,0,1,1,.18-.18A.18.18,0,0,1,180.42,308.22Z"/><path class="cls-2" d="M204.65,297.79a.19.19,0,0,1-.18-.19.18.18,0,0,1,.18-.18.18.18,0,0,1,.19.18A.19.19,0,0,1,204.65,297.79Z"/><path class="cls-2" d="M227.75,287.86a.19.19,0,0,1-.18-.19.18.18,0,0,1,.18-.18.18.18,0,0,1,.19.19A.19.19,0,0,1,227.75,287.86Z"/><path class="cls-2" d="M249.22,279.29a.19.19,0,0,1-.19-.2.2.2,0,0,1,.2-.2.19.19,0,0,1,.19.2A.2.2,0,0,1,249.22,279.29Z"/><path class="cls-2" d="M269.08,272.36a.2.2,0,0,1,0-.4.19.19,0,0,1,.19.2A.2.2,0,0,1,269.08,272.36Z"/><path class="cls-2" d="M287.59,267a.2.2,0,1,1,.2-.19A.2.2,0,0,1,287.59,267Z"/><path class="cls-2" d="M305,263.09a.22.22,0,0,1-.21-.22.21.21,0,0,1,.21-.21.21.21,0,0,1,.21.21A.21.21,0,0,1,305,263.09Z"/><path class="cls-2" d="M321.34,260.5a.21.21,0,0,1-.21-.21.21.21,0,0,1,.22-.21.21.21,0,0,1,.21.21A.21.21,0,0,1,321.34,260.5Z"/><path class="cls-2" d="M334.3,239.35a.18.18,0,0,1-.17-.18.18.18,0,0,1,.17-.17.17.17,0,0,1,.17.18A.17.17,0,0,1,334.3,239.35Z"/><path class="cls-2" d="M346.89,218.27a.14.14,0,1,1,0-.28.14.14,0,0,1,0,.28Z"/><path class="cls-2" d="M359.25,197.05a.11.11,0,0,1-.12-.11.13.13,0,0,1,.12-.12.12.12,0,0,1,.11.12A.11.11,0,0,1,359.25,197.05Z"/><path class="cls-2" d="M159.62,334.22a.25.25,0,0,1-.25-.25.24.24,0,0,1,.25-.24.23.23,0,0,1,.24.24A.25.25,0,0,1,159.62,334.22Z"/><path class="cls-2" d="M185.05,323.61a.25.25,0,0,1-.24-.25.24.24,0,0,1,.24-.24.23.23,0,0,1,.24.24A.25.25,0,0,1,185.05,323.61Z"/><path class="cls-2" d="M209.41,313.24a.25.25,0,1,1,.25-.24A.25.25,0,0,1,209.41,313.24Z"/><path class="cls-2" d="M232.19,303.92a.27.27,0,0,1-.26-.27.26.26,0,0,1,.52,0A.26.26,0,0,1,232.19,303.92Z"/><path class="cls-2" d="M253.2,296.13a.26.26,0,0,1-.26-.26.26.26,0,1,1,.52,0A.26.26,0,0,1,253.2,296.13Z"/><path class="cls-2" d="M272.67,289.91a.25.25,0,0,1-.25-.26.24.24,0,0,1,.26-.25.25.25,0,0,1,.25.25A.26.26,0,0,1,272.67,289.91Z"/><path class="cls-2" d="M290.83,285.2a.26.26,0,0,1-.26-.26.25.25,0,0,1,.27-.26.26.26,0,0,1,.26.26A.26.26,0,0,1,290.83,285.2Z"/><path class="cls-2" d="M307.87,281.92a.28.28,0,0,1-.28-.28.29.29,0,0,1,.28-.28.28.28,0,0,1,.27.28A.27.27,0,0,1,307.87,281.92Z"/><path class="cls-2" d="M323.92,279.92a.27.27,0,1,1,.28-.27A.27.27,0,0,1,323.92,279.92Z"/><path class="cls-2" d="M336.91,259.11a.21.21,0,0,1-.21-.21.21.21,0,1,1,.42,0A.21.21,0,0,1,336.91,259.11Z"/><path class="cls-2" d="M349.47,238.5a.18.18,0,0,1-.17-.18.18.18,0,0,1,.36,0A.19.19,0,0,1,349.47,238.5Z"/><path class="cls-2" d="M361.79,217.82a.15.15,0,0,1-.14-.15.14.14,0,0,1,.14-.14.15.15,0,0,1,.14.15A.14.14,0,0,1,361.79,217.82Z"/><path class="cls-2" d="M374,196.81a.11.11,0,0,1-.11-.11.11.11,0,0,1,.11-.12.13.13,0,0,1,.11.12A.11.11,0,0,1,374,196.81Z"/><path class="cls-2" d="M214.28,328.52a.3.3,0,0,1-.3-.3.31.31,0,0,1,.3-.29.3.3,0,0,1,.29.3A.29.29,0,0,1,214.28,328.52Z"/><path class="cls-2" d="M236.49,320a.29.29,0,0,1-.3-.3.3.3,0,1,1,.3.3Z"/><path class="cls-2" d="M257,313.07a.31.31,0,0,1-.31-.31.33.33,0,0,1,.32-.31.31.31,0,0,1,.31.31A.3.3,0,0,1,257,313.07Z"/><path class="cls-2" d="M276,307.63a.32.32,0,0,1-.31-.32A.33.33,0,0,1,276,307a.32.32,0,1,1,0,.63Z"/><path class="cls-2" d="M293.74,303.65a.32.32,0,0,1-.32-.32.32.32,0,1,1,.64,0A.32.32,0,0,1,293.74,303.65Z"/><path class="cls-2" d="M310.35,301.05a.31.31,0,0,1-.31-.32.31.31,0,0,1,.32-.31.32.32,0,1,1,0,.63Z"/><path class="cls-2" d="M326,299.75a.34.34,0,0,1-.33-.34.33.33,0,0,1,.66,0A.33.33,0,0,1,326,299.75Z"/><path class="cls-2" d="M339.13,279.12a.28.28,0,1,1,0-.55.27.27,0,0,1,.27.28A.28.28,0,0,1,339.13,279.12Z"/><path class="cls-2" d="M351.77,258.79a.22.22,0,1,1,.22-.22A.22.22,0,0,1,351.77,258.79Z"/><path class="cls-2" d="M364.08,238.54a.18.18,0,0,1-.18-.18.19.19,0,0,1,.19-.18.18.18,0,0,1,.18.18A.18.18,0,0,1,364.08,238.54Z"/><path class="cls-2" d="M376.27,218.08a.16.16,0,0,1-.15-.15.15.15,0,1,1,.15.15Z"/><path class="cls-2" d="M388.49,197.08a.12.12,0,0,1-.12-.12.13.13,0,0,1,.12-.13.13.13,0,0,1,.13.13A.13.13,0,0,1,388.49,197.08Z"/><path class="cls-2" d="M260.39,330.34A.36.36,0,0,1,260,330a.36.36,0,0,1,.36-.36.37.37,0,0,1,.35.36A.36.36,0,0,1,260.39,330.34Z"/><path class="cls-2" d="M278.85,325.75a.35.35,0,0,1-.35-.35.36.36,0,0,1,.36-.36.35.35,0,0,1,.35.36A.34.34,0,0,1,278.85,325.75Z"/><path class="cls-2" d="M296.05,322.63a.38.38,0,1,1,.38-.38A.38.38,0,0,1,296.05,322.63Z"/><path class="cls-2" d="M312.12,320.83a.38.38,0,1,1,0-.75.38.38,0,0,1,0,.75Z"/><path class="cls-2" d="M327.2,320.29a.38.38,0,1,1,.38-.38A.38.38,0,0,1,327.2,320.29Z"/><path class="cls-2" d="M340.74,299.61a.35.35,0,0,1-.34-.34.34.34,0,0,1,.68,0A.35.35,0,0,1,340.74,299.61Z"/><path class="cls-2" d="M353.6,279.39a.3.3,0,0,1,0-.59.3.3,0,0,1,.3.3A.31.31,0,0,1,353.6,279.39Z"/><path class="cls-2" d="M366,259.38a.23.23,0,0,1-.23-.23.23.23,0,0,1,.23-.22.23.23,0,0,1,.23.23A.23.23,0,0,1,366,259.38Z"/><path class="cls-2" d="M378.22,239.34a.19.19,0,0,1-.18-.19.18.18,0,0,1,.18-.18.18.18,0,0,1,.19.18A.2.2,0,0,1,378.22,239.34Z"/><path class="cls-2" d="M390.41,218.9a.16.16,0,1,1,.16-.15A.16.16,0,0,1,390.41,218.9Z"/><path class="cls-2" d="M341.4,320.89a.39.39,0,0,1-.39-.4.4.4,0,0,1,.39-.39.39.39,0,0,1,.39.4A.39.39,0,0,1,341.4,320.89Z"/><path class="cls-2" d="M354.72,300.5a.32.32,0,0,1-.33-.34.33.33,0,0,1,.33-.33.34.34,0,1,1,0,.67Z"/><path class="cls-2" d="M367.41,280.57a.3.3,0,0,1,0-.59.3.3,0,0,1,0,.59Z"/><path class="cls-2" d="M379.74,260.75a.23.23,0,1,1,0-.45.22.22,0,0,1,.22.22A.23.23,0,0,1,379.74,260.75Z"/><path class="cls-2" d="M392,240.75a.2.2,0,0,1-.2-.19.19.19,0,0,1,.2-.19.19.19,0,1,1,0,.38Z"/><path class="cls-2" d="M404.29,220.16a.15.15,0,0,1-.15-.15.16.16,0,0,1,.15-.16.16.16,0,0,1,.16.16A.16.16,0,0,1,404.29,220.16Z"/><path class="cls-2" d="M354.79,322.49a.41.41,0,0,1-.4-.41.42.42,0,0,1,.41-.4.41.41,0,0,1,.4.41A.4.4,0,0,1,354.79,322.49Z"/><path class="cls-2" d="M368,302.33a.35.35,0,0,1-.35-.36.35.35,0,1,1,.35.36Z"/><path class="cls-2" d="M380.66,282.54a.3.3,0,0,1-.29-.3.29.29,0,0,1,.29-.29.31.31,0,0,1,.29.3A.29.29,0,0,1,380.66,282.54Z"/><path class="cls-2" d="M393,262.77a.22.22,0,0,1-.22-.23.22.22,0,0,1,.22-.22.22.22,0,0,1,.23.22A.23.23,0,0,1,393,262.77Z"/><path class="cls-2" d="M405.38,242.66a.19.19,0,0,1-.19-.19.19.19,0,1,1,.38,0A.19.19,0,0,1,405.38,242.66Z"/><path class="cls-2" d="M418,221.76a.16.16,0,0,1-.16-.15.16.16,0,0,1,.16-.16.16.16,0,0,1,.15.16A.15.15,0,0,1,418,221.76Z"/><path class="cls-2" d="M367.48,324.94a.4.4,0,1,1,.41-.4A.4.4,0,0,1,367.48,324.94Z"/><path class="cls-2" d="M380.7,304.91a.35.35,0,0,1-.35-.35.35.35,0,0,1,.36-.35.35.35,0,1,1,0,.7Z"/><path class="cls-2" d="M393.4,285.19a.3.3,0,0,1-.3-.31.31.31,0,0,1,.3-.31.32.32,0,0,1,.31.31A.31.31,0,0,1,393.4,285.19Z"/><path class="cls-2" d="M405.91,265.33a.23.23,0,0,1-.23-.24.23.23,0,0,1,.23-.23.24.24,0,0,1,.24.24A.23.23,0,0,1,405.91,265.33Z"/><path class="cls-2" d="M418.52,245a.19.19,0,0,1-.19-.19.18.18,0,0,1,.19-.19.18.18,0,0,1,.19.19A.18.18,0,0,1,418.52,245Z"/><path class="cls-2" d="M431.45,223.63a.16.16,0,1,1,.16-.16A.16.16,0,0,1,431.45,223.63Z"/><path class="cls-2" d="M379.54,328.12a.39.39,0,0,1-.39-.4.4.4,0,0,1,.4-.4.39.39,0,0,1,.39.4A.4.4,0,0,1,379.54,328.12Z"/><path class="cls-2" d="M392.85,308.14a.36.36,0,0,1-.35-.36.36.36,0,0,1,.36-.35.36.36,0,1,1,0,.71Z"/><path class="cls-2" d="M405.71,288.36a.31.31,0,1,1,.32-.31A.31.31,0,0,1,405.71,288.36Z"/><path class="cls-2" d="M418.48,268.3a.23.23,0,0,1-.24-.23.24.24,0,0,1,.24-.24.23.23,0,0,1,.23.24A.22.22,0,0,1,418.48,268.3Z"/><path class="cls-2" d="M431.44,247.58a.22.22,0,0,1-.2-.21.2.2,0,1,1,.4,0A.2.2,0,0,1,431.44,247.58Z"/><path class="cls-2" d="M391.05,331.9a.41.41,0,0,1-.41-.42.42.42,0,1,1,.41.42Z"/><path class="cls-2" d="M404.54,311.89a.38.38,0,0,1-.37-.37.38.38,0,0,1,.38-.38.37.37,0,0,1,.37.38A.37.37,0,0,1,404.54,311.89Z"/><path class="cls-2" d="M417.66,292a.32.32,0,0,1,0-.63.32.32,0,0,1,.31.32A.31.31,0,0,1,417.66,292Z"/><path class="cls-2" d="M430.77,271.6a.25.25,0,1,1,.25-.24A.26.26,0,0,1,430.77,271.6Z"/><path class="cls-2" d="M444.17,250.41a.21.21,0,1,1,0-.41.21.21,0,0,1,.21.21A.2.2,0,0,1,444.17,250.41Z"/><path class="cls-2" d="M415.85,316a.37.37,0,0,1-.37-.38.38.38,0,0,1,.37-.37.37.37,0,0,1,.37.38A.36.36,0,0,1,415.85,316Z"/><path class="cls-2" d="M429.3,295.85a.32.32,0,0,1-.32-.33.32.32,0,0,1,.33-.32.31.31,0,0,1,.32.33A.32.32,0,0,1,429.3,295.85Z"/><path class="cls-2" d="M442.85,275.13a.26.26,0,0,1-.25-.26.25.25,0,0,1,.5,0A.26.26,0,0,1,442.85,275.13Z"/><path class="cls-2" d="M456.75,253.41a.19.19,0,0,1-.2-.2.2.2,0,0,1,.2-.21.21.21,0,0,1,.21.21A.2.2,0,0,1,456.75,253.41Z"/><path class="cls-2" d="M426.85,320.36a.37.37,0,0,1-.37-.38.38.38,0,0,1,.37-.37.37.37,0,0,1,.37.38A.38.38,0,0,1,426.85,320.36Z"/><circle class="cls-2" cx="440.72" cy="299.6" r="0.33" transform="translate(-83.51 395.39) rotate(-44.56)"/><path class="cls-2" d="M454.75,278.79a.26.26,0,1,1,0-.51.26.26,0,0,1,0,.51Z"/><path class="cls-2" d="M469.37,256.32a.22.22,0,0,1-.22-.22.21.21,0,0,1,.22-.21.2.2,0,0,1,.21.21A.21.21,0,0,1,469.37,256.32Z"/><path class="cls-2" d="M437.62,324.84a.37.37,0,1,1,0-.74.38.38,0,0,1,.37.37A.37.37,0,0,1,437.62,324.84Z"/><path class="cls-2" d="M452.14,303.89a.34.34,0,0,1-.33-.33.33.33,0,0,1,.65,0A.33.33,0,0,1,452.14,303.89Z"/><path class="cls-2" d="M467.24,281.61a.26.26,0,0,1-.26-.26.27.27,0,0,1,.27-.27.26.26,0,0,1,.26.27A.25.25,0,0,1,467.24,281.61Z"/><path class="cls-2" d="M483.08,257.63a.22.22,0,1,1,0-.43.21.21,0,0,1,.21.22A.21.21,0,0,1,483.08,257.63Z"/><path class="cls-2" d="M449,328.53a.39.39,0,1,1,.39-.38A.39.39,0,0,1,449,328.53Z"/><path class="cls-2" d="M464.72,306.37a.34.34,0,0,1,0-.68.35.35,0,0,1,.34.35A.34.34,0,0,1,464.72,306.37Z"/><path class="cls-2" d="M480.94,282.85a.27.27,0,0,1-.27-.27.27.27,0,0,1,.27-.26.27.27,0,0,1,.27.26A.28.28,0,0,1,480.94,282.85Z"/><path class="cls-2" d="M461.7,330.7a.38.38,0,0,1-.39-.39.39.39,0,1,1,.78,0A.39.39,0,0,1,461.7,330.7Z"/><path class="cls-2" d="M478.38,307.57a.34.34,0,0,1-.34-.35.35.35,0,1,1,.69,0A.35.35,0,0,1,478.38,307.57Z"/><path class="cls-2" d="M495.46,283a.27.27,0,1,1,.27-.26A.27.27,0,0,1,495.46,283Z"/><path class="cls-2" d="M475.34,331.84a.4.4,0,0,1-.41-.41.41.41,0,0,1,.41-.42.43.43,0,0,1,.42.42A.41.41,0,0,1,475.34,331.84Z"/><path class="cls-2" d="M492.77,307.88a.33.33,0,0,1-.34-.35.34.34,0,0,1,.35-.34.35.35,0,0,1,.34.35A.34.34,0,0,1,492.77,307.88Z"/><path class="cls-2" d="M510.51,282.51a.28.28,0,1,1,0-.55.28.28,0,0,1,0,.55Z"/><path class="cls-2" d="M489.63,332.25a.41.41,0,0,1-.41-.42.41.41,0,0,1,.42-.41.41.41,0,0,1,.41.42A.42.42,0,0,1,489.63,332.25Z"/><path class="cls-2" d="M507.63,307.67a.37.37,0,0,1,0-.73.37.37,0,0,1,.36.37A.36.36,0,0,1,507.63,307.67Z"/><path class="cls-2" d="M525.84,281.63a.27.27,0,0,1-.27-.28.28.28,0,1,1,.55,0A.27.27,0,0,1,525.84,281.63Z"/><path class="cls-2" d="M504.36,332.19a.42.42,0,0,1-.42-.42.41.41,0,0,1,.42-.41.42.42,0,0,1,.42.42A.43.43,0,0,1,504.36,332.19Z"/><path class="cls-2" d="M522.75,307.12a.37.37,0,1,1,.37-.36A.37.37,0,0,1,522.75,307.12Z"/><path class="cls-2" d="M519.35,331.85a.44.44,0,0,1-.43-.44.44.44,0,0,1,.44-.43.44.44,0,0,1,0,.87Z"/><path class="cls-2" d="M538,306.4a.38.38,0,0,1-.38-.39.39.39,0,0,1,.39-.38.4.4,0,0,1,.38.39A.39.39,0,0,1,538,306.4Z"/><path class="cls-2" d="M534.55,331.28a.44.44,0,0,1-.43-.44.44.44,0,0,1,.44-.43.44.44,0,0,1,.43.44A.45.45,0,0,1,534.55,331.28Z"/><path class="cls-2" d="M553.42,305.53a.39.39,0,0,1-.38-.39.38.38,0,0,1,.39-.38.39.39,0,0,1,.38.39A.4.4,0,0,1,553.42,305.53Z"/><path class="cls-2" d="M549.94,330.48a.43.43,0,1,1,.44-.43A.44.44,0,0,1,549.94,330.48Z"/><path class="cls-2" d="M565.6,329.41a.46.46,0,0,1-.45-.46.46.46,0,1,1,.91,0A.46.46,0,0,1,565.6,329.41Z"/><path class="cls-2" d="M581.68,327.83a.46.46,0,0,1-.45-.46.45.45,0,0,1,.46-.45.44.44,0,0,1,.45.46A.45.45,0,0,1,581.68,327.83Z"/></g><path class="cls-2" d="M-38.26,331.31a.16.16,0,0,1-.07-.09.17.17,0,0,1,0-.2l65.39-62.64a.18.18,0,0,1,.27,0L98,345a.17.17,0,0,1,0,.21.19.19,0,0,1-.18.11l-136-14Zm65.5-62.53-65,62.23,135.09,13.9Z"/><path class="cls-2" d="M97.74,345.31h0a.19.19,0,0,1-.09-.15.2.2,0,0,1,.07-.16l32-24.64a.18.18,0,0,1,.25,0l53.35,56.54a.18.18,0,0,1,0,.23.17.17,0,0,1-.22.07L97.77,345.33Zm32.06-24.56L98.22,345.09l84.26,31.49Z"/><path class="cls-2" d="M27.14,268.67a.19.19,0,0,1-.07-.22.19.19,0,0,1,.22-.12l74.51,17.4a.26.26,0,0,1,.11.07L130,320.38a.19.19,0,0,1-.23.29l-102.57-52Zm74.52,17.41-72.94-17,100.4,50.89Z"/><path class="cls-2" d="M97.74,345.31l0,0L27.11,268.64a.18.18,0,0,1,0-.24.2.2,0,0,1,.24-.06l102.57,52a.15.15,0,0,1,.1.15.17.17,0,0,1-.07.16L98,345.3A.18.18,0,0,1,97.74,345.31ZM28.09,269.15,97.86,344.9l31.61-24.36Z"/><path class="cls-2" d="M183.07,377.2a.18.18,0,0,1-.08-.11.18.18,0,0,1,.07-.21l69.68-46.37a.18.18,0,0,1,.23,0L300,377a.19.19,0,0,1,0,.21.17.17,0,0,1-.17.11l-116.69-.09A.17.17,0,0,1,183.07,377.2Zm69.75-46.29-69,45.94,115.61.1Z"/><path class="cls-2" d="M129.72,320.66a.14.14,0,0,1-.07-.08.17.17,0,0,1,0-.18l60.24-88.35a.19.19,0,0,1,.16-.08.19.19,0,0,1,.15.09L253,330.57a.18.18,0,0,1,0,.2.19.19,0,0,1-.17.09l-123-10.17A.11.11,0,0,1,129.72,320.66Zm60.33-88.16-59.9,87.84,122.33,10.11Z"/><path class="cls-2" d="M183.07,377.2l0,0-53.35-56.54a.18.18,0,0,1,0-.21.17.17,0,0,1,.18-.1l123,10.16a.18.18,0,0,1,.16.14.19.19,0,0,1-.07.2l-69.68,46.37A.17.17,0,0,1,183.07,377.2Zm-52.78-56.47,52.91,56.06,69.09-46Z"/><path class="cls-2" d="M129.72,320.66a.1.1,0,0,1-.05,0L101.61,286a.19.19,0,0,1,0-.15.15.15,0,0,1,.08-.12L190,232a.18.18,0,0,1,.25.26L130,320.61a.18.18,0,0,1-.15.08A.19.19,0,0,1,129.72,320.66ZM102,286l27.76,34.23,59.61-87.42Z"/><path class="cls-2" d="M299.76,377.29a.17.17,0,0,1-.08-.12.19.19,0,0,1,.06-.18L385,303.52a.18.18,0,0,1,.16,0,.21.21,0,0,1,.13.1l61.19,120.05a.2.2,0,0,1,0,.21.19.19,0,0,1-.2.06L299.8,377.31ZM385,304l-84.8,73.1L445.92,423.4Z"/><path class="cls-2" d="M252.74,330.83a.24.24,0,0,1-.06-.08.18.18,0,0,1,0-.22l79.1-74.14a.2.2,0,0,1,.25,0l53.17,47.13a.19.19,0,0,1,0,.19.2.2,0,0,1-.14.14l-132.26,27A.22.22,0,0,1,252.74,330.83Zm79.2-74.05-78.48,73.57L384.7,303.56Z"/><path class="cls-2" d="M299.76,377.29l0,0-47-46.47a.18.18,0,0,1-.05-.18.21.21,0,0,1,.15-.14l132.25-27a.18.18,0,0,1,.21.1.19.19,0,0,1,0,.23L300,377.28A.18.18,0,0,1,299.76,377.29Zm-46.53-46.51,46.64,46.1L384.43,304Z"/><path class="cls-2" d="M252.74,330.83l-.06-.06-62.77-98.49a.19.19,0,0,1,0-.15.18.18,0,0,1,.2-.16h0L332,256.34a.22.22,0,0,1,.15.13.21.21,0,0,1-.05.2L253,330.81a.19.19,0,0,1-.15,0Zm-62.3-98.41,62.44,98,78.65-73.73Z"/><path class="cls-2" d="M385,303.82a.2.2,0,0,1-.09-.19.21.21,0,0,1,.15-.15l70.41-16.63a.2.2,0,0,1,.23.13L476,360.35a.2.2,0,0,1-.07.2.18.18,0,0,1-.21,0L385,303.82Zm70.38-16.56-69.8,16.48L475.51,360Z"/><path class="cls-2" d="M446.19,423.88a.27.27,0,0,1-.07-.08l-61.19-120a.19.19,0,0,1,0-.22.18.18,0,0,1,.23,0l90.72,56.73h0a.19.19,0,0,1,.07.24L446.46,423.8a.19.19,0,0,1-.17.1Zm-60.62-119.7,60.71,119.11,29.3-62.82Z"/><path class="cls-2" d="M475.72,360.56a.2.2,0,0,1-.08-.1.18.18,0,0,1,.07-.21l80.76-55.4a.18.18,0,0,1,.21,0h0L633,355.07a.19.19,0,0,1,.08.21.17.17,0,0,1-.17.13l-157.07,5.18A.2.2,0,0,1,475.72,360.56Zm80.86-55.33-80.12,55,155.83-5.13Z"/><path class="cls-2" d="M475.72,360.56a.18.18,0,0,1-.08-.11l-20.3-73.36a.13.13,0,0,1,0-.12.18.18,0,0,1,.21-.12l101.06,18a.19.19,0,0,1,.15.14.18.18,0,0,1-.08.2l-80.75,55.4a.21.21,0,0,1-.17,0Zm-19.94-73.29,20.15,72.83,80.16-55Z"/><path class="cls-2" d="M632.79,355.38a.11.11,0,0,1-.07-.08.19.19,0,0,1,.06-.23l86.35-60.49a.15.15,0,0,1,.17,0,.18.18,0,0,1,.12.12l10.93,41.43a.14.14,0,0,1,0,.14.18.18,0,0,1-.12.09l-97.28,19.07A.17.17,0,0,1,632.79,355.38ZM719.13,295l-85.41,59.83L729.94,336Z"/><path class="cls-2" d="M632.79,355.38h0l-76.32-50.22-.05-.06a.19.19,0,0,1,0-.19.23.23,0,0,1,.15-.1l162.67-10.27a.21.21,0,0,1,.19.13.2.2,0,0,1-.07.21L633,355.38A.18.18,0,0,1,632.79,355.38Zm-75.64-50.23L632.89,355l85.69-60Z"/></svg>