<svg id="Layer_1" data-name="Layer 1" xmlns="http://www.w3.org/2000/svg" viewBox="0 0 719.75 435.65"><defs><style>.cls-1{opacity:0.5;}.cls-2{fill:#6831e4;}</style></defs><g class="cls-1"><path class="cls-2" d="M33.82.64a0,0,0,0,1,0,0,0,0,0,0,1,0,0s0,0,0,0S33.83.64,33.82.64Z"/><path class="cls-2" d="M47,2.85s0,0,0,0a0,0,0,0,1,0,0,0,0,0,0,1,0,0S47,2.85,47,2.85Z"/><path class="cls-2" d="M61.22,3.46h0a0,0,0,0,1,0,0,0,0,0,0,1,0,0Z"/><path class="cls-2" d="M76.55,2.43a0,0,0,0,1,0,0s0,0,0,0a0,0,0,0,1,0,0S76.56,2.43,76.55,2.43Z"/><path class="cls-2" d="M15.1,29.34a0,0,0,0,1,0,0,0,0,0,0,1,0,0,0,0,0,0,1,0,0A0,0,0,0,1,15.1,29.3Z"/><path class="cls-2" d="M28.06,31.58a0,0,0,0,1,0,0l0,0s0,0,0,0S28.07,31.58,28.06,31.58Z"/><path class="cls-2" d="M42.21,32.24l0,0,0,0,0,0Z"/><path class="cls-2" d="M57.6,31.26a0,0,0,0,1,0,0s0,0,0,0a0,0,0,0,1,0,0S57.62,31.26,57.6,31.26Z"/><path class="cls-2" d="M74.21,28.63a0,0,0,0,1,0,0s0,0,0,0a0,0,0,0,1,0,0S74.23,28.63,74.21,28.63Z"/><path class="cls-2" d="M91.93,24.42a0,0,0,0,1,0,0s0,0,0,0a0,0,0,0,1,0,0S91.94,24.42,91.93,24.42Z"/><path class="cls-2" d="M110.55,18.74s0,0,0,0,0,0,0,0a0,0,0,0,1,0,0A0,0,0,0,1,110.55,18.74Z"/><path class="cls-2" d="M129.85,11.8s0,0,0,0a0,0,0,0,1,0,0,0,0,0,0,1,0,0Z"/><path class="cls-2" d="M149.5,3.91s0,0,0,0a0,0,0,0,1,0,0s0,0,0,0A0,0,0,0,1,149.5,3.91Z"/><path class="cls-2" d="M8.32,59.62a0,0,0,0,1,0,0s0,0,0,0,0,0,0,0A0,0,0,0,1,8.32,59.62Z"/><path class="cls-2" d="M22.31,60.41a0,0,0,0,1,0,0s0,0,0,0,0,0,0,0A0,0,0,0,1,22.31,60.41Z"/><path class="cls-2" d="M37.69,59.56a0,0,0,0,1,0,0s0,0,0,0,0,0,0,0A0,0,0,0,1,37.69,59.56Z"/><path class="cls-2" d="M54.43,57.06s0,0,0,0,0,0,0,0,0,0,0,0S54.46,57.06,54.43,57.06Z"/><path class="cls-2" d="M72.44,53a0,0,0,0,1,0-.08,0,0,0,0,1,0,.08A0,0,0,0,1,72.44,53Z"/><path class="cls-2" d="M91.52,47.33a0,0,0,0,1,0,0,0,0,0,0,1,0,0,0,0,0,0,1,0,0A0,0,0,0,1,91.52,47.33Z"/><path class="cls-2" d="M111.4,40.36s-.05,0-.05,0a0,0,0,0,1,.05,0,0,0,0,0,1,0,0A0,0,0,0,1,111.4,40.36Z"/><path class="cls-2" d="M131.76,32.32a0,0,0,0,1,0-.08,0,0,0,0,1,0,0A0,0,0,0,1,131.76,32.32Z"/><path class="cls-2" d="M152.27,23.57a0,0,0,0,1-.05,0,0,0,0,0,1,.05-.05,0,0,0,0,1,0,.05A0,0,0,0,1,152.27,23.57Z"/><path class="cls-2" d="M172.55,14.59a0,0,0,0,1,0-.05,0,0,0,0,1,0,0,0,0,0,0,1,0,0A0,0,0,0,1,172.55,14.59Z"/><path class="cls-2" d="M192.18,6.11a0,0,0,0,1,0,0,0,0,0,0,1,.05-.05,0,0,0,0,1,0,.09Z"/><path class="cls-2" d="M1.64,87.81a0,0,0,0,1,0,0,0,0,0,0,1,0,0,0,0,0,0,1,0,0A0,0,0,0,1,1.64,87.81Z"/><path class="cls-2" d="M16.92,87.17a0,0,0,0,1,0-.1,0,0,0,0,1,0,.1A0,0,0,0,1,16.92,87.17Z"/><path class="cls-2" d="M33.73,84.88a.06.06,0,0,1,0-.06,0,0,0,0,1,0,0,0,0,0,0,1,.05,0A.06.06,0,0,1,33.73,84.88Z"/><path class="cls-2" d="M52,81a.05.05,0,1,1,0-.1,0,0,0,0,1,.05.05A.05.05,0,0,1,52,81Z"/><path class="cls-2" d="M71.44,75.48a.05.05,0,0,1,0-.1,0,0,0,0,1,0,.1A0,0,0,0,1,71.44,75.48Z"/><path class="cls-2" d="M91.88,68.6a.06.06,0,0,1,0-.06,0,0,0,0,1,0-.05.06.06,0,0,1,.06.05A.06.06,0,0,1,91.88,68.6Z"/><path class="cls-2" d="M113,60.53a.06.06,0,0,1,0-.06,0,0,0,0,1,0,0s.06,0,.06,0A.06.06,0,0,1,113,60.53Z"/><path class="cls-2" d="M134.28,51.6a.06.06,0,0,1,0-.12.06.06,0,0,1,0,.12Z"/><path class="cls-2" d="M155.48,42.25a.06.06,0,0,1-.06-.06.06.06,0,0,1,.12,0A.06.06,0,0,1,155.48,42.25Z"/><path class="cls-2" d="M176.16,33s-.07,0-.07-.06,0-.06.07-.06a.06.06,0,0,1,.06.06A.06.06,0,0,1,176.16,33Z"/><path class="cls-2" d="M195.68,25.11a.07.07,0,0,1-.07-.06.07.07,0,1,1,.14,0A.07.07,0,0,1,195.68,25.11Z"/><path class="cls-2" d="M213.86,19.05a.07.07,0,0,1,0-.14.07.07,0,1,1,0,.14Z"/><path class="cls-2" d="M231,14.57a.07.07,0,0,1-.07-.07.08.08,0,0,1,.07-.07.07.07,0,0,1,0,.14Z"/><path class="cls-2" d="M12.19,112a.08.08,0,1,1,.08-.08A.09.09,0,0,1,12.19,112Z"/><path class="cls-2" d="M30.59,108.3a.08.08,0,0,1-.08-.08.08.08,0,0,1,.08-.09c.05,0,.09,0,.08.09A.07.07,0,0,1,30.59,108.3Z"/><path class="cls-2" d="M50.41,103.06a.08.08,0,0,1,0-.16.08.08,0,0,1,.08.08A.07.07,0,0,1,50.41,103.06Z"/><path class="cls-2" d="M71.37,96.36a.09.09,0,0,1-.08-.09.09.09,0,0,1,.08-.08.08.08,0,0,1,.08.08A.08.08,0,0,1,71.37,96.36Z"/><path class="cls-2" d="M93.13,88.38a.1.1,0,0,1-.09-.1.09.09,0,0,1,.09-.09.1.1,0,0,1,.09.1A.09.09,0,0,1,93.13,88.38Z"/><path class="cls-2" d="M115.28,79.38a.09.09,0,0,1-.09-.09.09.09,0,0,1,.09-.08.09.09,0,0,1,.09.09A.08.08,0,0,1,115.28,79.38Z"/><path class="cls-2" d="M137.41,69.79a.09.09,0,0,1-.09-.09.1.1,0,0,1,.1-.09.09.09,0,0,1,.09.09A.09.09,0,0,1,137.41,69.79Z"/><path class="cls-2" d="M159.1,60.13a.12.12,0,0,1-.1-.1.1.1,0,0,1,.1-.1.09.09,0,0,1,.1.1A.11.11,0,0,1,159.1,60.13Z"/><path class="cls-2" d="M179.87,51.12a.09.09,0,0,1-.1-.09.09.09,0,0,1,.1-.1.1.1,0,0,1,.09.1A.09.09,0,0,1,179.87,51.12Z"/><path class="cls-2" d="M199.15,43.89a.1.1,0,0,1,0-.2.09.09,0,0,1,.1.1A.11.11,0,0,1,199.15,43.89Z"/><path class="cls-2" d="M217.17,38.37a.11.11,0,0,1-.11-.1.11.11,0,0,1,.11-.11.1.1,0,0,1,.1.11A.1.1,0,0,1,217.17,38.37Z"/><path class="cls-2" d="M234.18,34.34a.11.11,0,1,1,.11-.1A.11.11,0,0,1,234.18,34.34Z"/><path class="cls-2" d="M247.37,11.41a.08.08,0,0,1-.07-.08.07.07,0,0,1,.07-.07.08.08,0,0,1,.07.08A.07.07,0,0,1,247.37,11.41Z"/><path class="cls-2" d="M8.39,134.86a.09.09,0,0,1-.1-.1.11.11,0,0,1,.1-.1.11.11,0,0,1,.1.11A.1.1,0,0,1,8.39,134.86Z"/><path class="cls-2" d="M28.49,129.94a.11.11,0,1,1,0-.22.12.12,0,0,1,.11.11A.11.11,0,0,1,28.49,129.94Z"/><path class="cls-2" d="M49.92,123.5a.1.1,0,0,1-.1-.11.11.11,0,0,1,.1-.11.11.11,0,0,1,0,.22Z"/><path class="cls-2" d="M72.33,115.69a.11.11,0,1,1,.11-.11A.11.11,0,0,1,72.33,115.69Z"/><path class="cls-2" d="M95.3,106.77a.12.12,0,0,1-.11-.12.1.1,0,0,1,.11-.11.11.11,0,0,1,.12.11A.12.12,0,0,1,95.3,106.77Z"/><path class="cls-2" d="M118.38,97.06a.12.12,0,0,1-.12-.12.12.12,0,1,1,.12.12Z"/><path class="cls-2" d="M141.11,87.06a.12.12,0,0,1-.12-.12.12.12,0,0,1,.12-.12.11.11,0,0,1,.11.12A.12.12,0,0,1,141.11,87.06Z"/><path class="cls-2" d="M163,77.38a.13.13,0,1,1,0-.25.12.12,0,0,1,.12.12A.13.13,0,0,1,163,77.38Z"/><path class="cls-2" d="M183.58,69a.12.12,0,0,1-.13-.12.13.13,0,1,1,.26,0A.12.12,0,0,1,183.58,69Z"/><path class="cls-2" d="M202.62,62.4a.12.12,0,0,1-.12-.12.12.12,0,0,1,.12-.13.13.13,0,0,1,.13.13A.12.12,0,0,1,202.62,62.4Z"/><path class="cls-2" d="M220.46,57.41a.13.13,0,0,1-.14-.13.13.13,0,0,1,.14-.13.13.13,0,1,1,0,.26Z"/><path class="cls-2" d="M237.31,53.83a.13.13,0,0,1-.13-.13.13.13,0,0,1,.13-.14.14.14,0,0,1,.14.14A.13.13,0,0,1,237.31,53.83Z"/><path class="cls-2" d="M250.41,31.57a.1.1,0,0,1-.1-.11.11.11,0,0,1,.1-.11.11.11,0,1,1,0,.22Z"/><path class="cls-2" d="M263.12,9.3a.08.08,0,0,1,0-.15.07.07,0,0,1,.07.07A.08.08,0,0,1,263.12,9.3Z"/><path class="cls-2" d="M5.73,156.05a.14.14,0,0,1-.14-.14.14.14,0,0,1,.28,0A.14.14,0,0,1,5.73,156.05Z"/><path class="cls-2" d="M27.58,149.94a.14.14,0,1,1,.14-.13A.13.13,0,0,1,27.58,149.94Z"/><path class="cls-2" d="M50.61,142.41a.14.14,0,1,1,0-.28.14.14,0,0,1,.14.14A.14.14,0,0,1,50.61,142.41Z"/><path class="cls-2" d="M74.37,133.64a.14.14,0,0,1-.14-.14.14.14,0,1,1,.28,0A.14.14,0,0,1,74.37,133.64Z"/><path class="cls-2" d="M98.39,124a.15.15,0,0,1-.14-.15.14.14,0,0,1,.14-.14.15.15,0,0,1,.15.14A.15.15,0,0,1,98.39,124Z"/><path class="cls-2" d="M122.18,113.75a.15.15,0,1,1,0-.3.15.15,0,1,1,0,.3Z"/><path class="cls-2" d="M145.25,103.62a.15.15,0,0,1-.15-.15.15.15,0,0,1,.15-.15.14.14,0,0,1,.14.15A.15.15,0,0,1,145.25,103.62Z"/><path class="cls-2" d="M167.09,94.33a.16.16,0,1,1,.16-.16A.16.16,0,0,1,167.09,94.33Z"/><path class="cls-2" d="M187.3,86.69a.16.16,0,1,1,.16-.16A.16.16,0,0,1,187.3,86.69Z"/><path class="cls-2" d="M206.09,80.7a.16.16,0,1,1,0-.32.16.16,0,1,1,0,.32Z"/><path class="cls-2" d="M223.71,76.24a.16.16,0,0,1-.17-.17.18.18,0,0,1,.17-.17.17.17,0,0,1,.17.17A.16.16,0,0,1,223.71,76.24Z"/><path class="cls-2" d="M240.36,73.14a.18.18,0,0,1-.17-.17.18.18,0,0,1,.17-.18.18.18,0,1,1,0,.35Z"/><path class="cls-2" d="M253.38,51.48a.14.14,0,0,1-.14-.14.14.14,0,0,1,.14-.14.14.14,0,0,1,0,.28Z"/><path class="cls-2" d="M266,29.84a.11.11,0,0,1-.11-.11.12.12,0,0,1,.12-.12.12.12,0,0,1,0,.23Z"/><path class="cls-2" d="M278.43,8a.07.07,0,0,1-.07-.07.09.09,0,0,1,.08-.08.1.1,0,0,1,.07.08A.08.08,0,0,1,278.43,8Z"/><path class="cls-2" d="M4.37,175.64a.16.16,0,0,1-.17-.17.18.18,0,0,1,.17-.17.17.17,0,0,1,0,.34Z"/><path class="cls-2" d="M28,168.46a.17.17,0,1,1,.17-.17A.18.18,0,0,1,28,168.46Z"/><path class="cls-2" d="M52.5,160a.18.18,0,0,1-.17-.18.16.16,0,0,1,.17-.17.18.18,0,0,1,.18.17A.18.18,0,0,1,52.5,160Z"/><path class="cls-2" d="M77.46,150.37a.17.17,0,0,1-.17-.17.17.17,0,0,1,.18-.17.18.18,0,0,1,.17.17A.17.17,0,0,1,77.46,150.37Z"/><path class="cls-2" d="M102.33,140.11a.19.19,0,0,1-.19-.18.19.19,0,0,1,.19-.18.18.18,0,0,1,0,.36Z"/><path class="cls-2" d="M126.56,129.68a.19.19,0,0,1-.18-.19.18.18,0,0,1,.18-.18.18.18,0,0,1,.19.18A.19.19,0,0,1,126.56,129.68Z"/><path class="cls-2" d="M149.66,119.75a.19.19,0,0,1-.19-.19.19.19,0,0,1,.19-.18.19.19,0,0,1,.19.19A.19.19,0,0,1,149.66,119.75Z"/><path class="cls-2" d="M171.13,111.18a.2.2,0,1,1,.2-.2A.2.2,0,0,1,171.13,111.18Z"/><path class="cls-2" d="M191,104.25a.2.2,0,1,1,.2-.2A.2.2,0,0,1,191,104.25Z"/><path class="cls-2" d="M209.5,98.87a.2.2,0,1,1,0-.39.19.19,0,0,1,.19.2A.19.19,0,0,1,209.5,98.87Z"/><path class="cls-2" d="M226.86,95a.21.21,0,0,1-.21-.22.21.21,0,0,1,.21-.21.21.21,0,0,1,.21.21A.22.22,0,0,1,226.86,95Z"/><path class="cls-2" d="M243.25,92.39a.21.21,0,0,1-.21-.21.21.21,0,0,1,.21-.21.21.21,0,0,1,.22.21A.22.22,0,0,1,243.25,92.39Z"/><path class="cls-2" d="M256.21,71.24a.17.17,0,0,1-.17-.18.18.18,0,0,1,.17-.17.17.17,0,0,1,.17.18A.18.18,0,0,1,256.21,71.24Z"/><path class="cls-2" d="M268.8,50.16a.14.14,0,1,1,0-.28.14.14,0,0,1,.14.14A.13.13,0,0,1,268.8,50.16Z"/><path class="cls-2" d="M281.16,28.94a.11.11,0,0,1-.12-.11.12.12,0,0,1,.12-.12.13.13,0,0,1,.11.12A.11.11,0,0,1,281.16,28.94Z"/><path class="cls-2" d="M4.4,193.82a.23.23,0,0,1-.23-.23.23.23,0,0,1,.23-.22.22.22,0,0,1,.22.23A.22.22,0,0,1,4.4,193.82Z"/><path class="cls-2" d="M29.68,185.67a.23.23,0,0,1-.23-.24.22.22,0,0,1,.23-.22.23.23,0,0,1,.23.23A.23.23,0,0,1,29.68,185.67Z"/><path class="cls-2" d="M55.57,176.31a.23.23,0,1,1,.23-.23A.22.22,0,0,1,55.57,176.31Z"/><path class="cls-2" d="M81.52,166.11a.25.25,0,0,1-.24-.25.24.24,0,0,1,.25-.24.24.24,0,0,1,.24.24A.25.25,0,0,1,81.52,166.11Z"/><path class="cls-2" d="M107,155.5a.23.23,0,0,1-.24-.25A.24.24,0,0,1,107,155a.24.24,0,0,1,.24.24A.25.25,0,0,1,107,155.5Z"/><path class="cls-2" d="M131.32,145.13a.25.25,0,1,1,.25-.24A.26.26,0,0,1,131.32,145.13Z"/><path class="cls-2" d="M154.1,135.81a.27.27,0,0,1-.26-.27.26.26,0,0,1,.52,0A.26.26,0,0,1,154.1,135.81Z"/><path class="cls-2" d="M175.11,128a.26.26,0,0,1-.26-.26.26.26,0,0,1,.52,0A.26.26,0,0,1,175.11,128Z"/><path class="cls-2" d="M194.58,121.8a.26.26,0,0,1-.26-.26.26.26,0,0,1,.26-.25.25.25,0,0,1,.26.26A.26.26,0,0,1,194.58,121.8Z"/><path class="cls-2" d="M212.74,117.09a.26.26,0,0,1-.26-.26.25.25,0,0,1,.26-.26.27.27,0,0,1,.27.26A.26.26,0,0,1,212.74,117.09Z"/><path class="cls-2" d="M229.77,113.81a.28.28,0,0,1-.27-.28.28.28,0,1,1,.55,0A.27.27,0,0,1,229.77,113.81Z"/><path class="cls-2" d="M245.83,111.81a.27.27,0,0,1-.27-.27.27.27,0,0,1,.28-.27.27.27,0,1,1,0,.54Z"/><path class="cls-2" d="M258.82,91a.21.21,0,1,1,0-.42.21.21,0,0,1,0,.42Z"/><path class="cls-2" d="M271.38,70.39a.18.18,0,0,1-.18-.18.19.19,0,0,1,.19-.18.18.18,0,0,1,.17.18A.18.18,0,0,1,271.38,70.39Z"/><path class="cls-2" d="M283.7,49.71a.15.15,0,0,1-.15-.14.16.16,0,0,1,.15-.15.15.15,0,0,1,.14.15A.14.14,0,0,1,283.7,49.71Z"/><path class="cls-2" d="M295.92,28.7a.11.11,0,0,1-.11-.11.1.1,0,0,1,.11-.11.11.11,0,1,1,0,.22Z"/><path class="cls-2" d="M5.84,210.7a.26.26,0,1,1,0-.51.26.26,0,1,1,0,.51Z"/><path class="cls-2" d="M32.67,201.69a.28.28,0,1,1,0-.55.27.27,0,0,1,.27.28A.27.27,0,0,1,32.67,201.69Z"/><path class="cls-2" d="M59.73,191.64a.29.29,0,0,1-.28-.28.27.27,0,0,1,.28-.27.28.28,0,0,1,.28.27A.29.29,0,0,1,59.73,191.64Z"/><path class="cls-2" d="M86.39,181a.29.29,0,0,1-.28-.28.29.29,0,0,1,.29-.29.3.3,0,0,1,.28.29A.28.28,0,0,1,86.39,181Z"/><path class="cls-2" d="M112.07,170.33a.28.28,0,0,1-.29-.29.29.29,0,1,1,.58,0A.28.28,0,0,1,112.07,170.33Z"/><path class="cls-2" d="M136.18,160.41a.29.29,0,0,1-.29-.3.3.3,0,0,1,.59,0A.29.29,0,0,1,136.18,160.41Z"/><path class="cls-2" d="M158.39,151.91a.3.3,0,1,1,0-.59.3.3,0,1,1,0,.59Z"/><path class="cls-2" d="M178.89,145a.31.31,0,0,1-.31-.31.32.32,0,0,1,.32-.31.31.31,0,0,1,.31.31A.3.3,0,0,1,178.89,145Z"/><path class="cls-2" d="M197.91,139.52a.32.32,0,1,1,.32-.31A.32.32,0,0,1,197.91,139.52Z"/><path class="cls-2" d="M215.65,135.54a.32.32,0,0,1-.32-.32.31.31,0,0,1,.32-.31.31.31,0,0,1,.32.31A.32.32,0,0,1,215.65,135.54Z"/><path class="cls-2" d="M232.26,132.94a.32.32,0,0,1,0-.63.32.32,0,1,1,0,.63Z"/><path class="cls-2" d="M247.89,131.64a.34.34,0,0,1-.33-.34.32.32,0,0,1,.33-.32.33.33,0,0,1,.33.33A.33.33,0,0,1,247.89,131.64Z"/><path class="cls-2" d="M261,111a.28.28,0,0,1-.27-.28.27.27,0,0,1,.28-.27.28.28,0,0,1,0,.55Z"/><path class="cls-2" d="M273.68,90.68a.22.22,0,0,1-.22-.22.22.22,0,1,1,.44,0A.22.22,0,0,1,273.68,90.68Z"/><path class="cls-2" d="M286,70.44a.19.19,0,0,1-.18-.19.18.18,0,0,1,.19-.18.18.18,0,0,1,.18.18A.2.2,0,0,1,286,70.44Z"/><path class="cls-2" d="M298.18,50a.15.15,0,1,1,.15-.15A.15.15,0,0,1,298.18,50Z"/><path class="cls-2" d="M310.4,29a.12.12,0,0,1-.12-.12.12.12,0,1,1,.24,0A.12.12,0,0,1,310.4,29Z"/><path class="cls-2" d="M8.66,226.5a.32.32,0,0,1-.32-.32.33.33,0,0,1,.33-.32.32.32,0,0,1,.31.32A.32.32,0,0,1,8.66,226.5Z"/><path class="cls-2" d="M36.84,216.72a.32.32,0,1,1,.33-.31A.32.32,0,0,1,36.84,216.72Z"/><path class="cls-2" d="M64.78,206.16a.33.33,0,1,1,.34-.33A.34.34,0,0,1,64.78,206.16Z"/><path class="cls-2" d="M91.82,195.34a.34.34,0,0,1-.33-.34.34.34,0,0,1,.68,0A.35.35,0,0,1,91.82,195.34Z"/><path class="cls-2" d="M117.35,185a.34.34,0,0,1-.33-.34.32.32,0,0,1,.34-.33.33.33,0,0,1,.33.33A.34.34,0,0,1,117.35,185Z"/><path class="cls-2" d="M140.84,175.87a.35.35,0,0,1-.35-.35.35.35,0,0,1,.35-.35.35.35,0,0,1,0,.7Z"/><path class="cls-2" d="M162.39,168.3a.35.35,0,0,1-.35-.36.36.36,0,0,1,.36-.36.36.36,0,0,1,.36.36A.37.37,0,0,1,162.39,168.3Z"/><path class="cls-2" d="M182.3,162.23a.35.35,0,0,1-.35-.36.36.36,0,0,1,.35-.36.37.37,0,0,1,.36.36A.36.36,0,0,1,182.3,162.23Z"/><path class="cls-2" d="M200.76,157.65a.36.36,0,0,1-.35-.36.36.36,0,0,1,.36-.36.36.36,0,0,1,.35.36A.36.36,0,0,1,200.76,157.65Z"/><path class="cls-2" d="M218,154.52a.38.38,0,1,1,.38-.38A.37.37,0,0,1,218,154.52Z"/><path class="cls-2" d="M234,152.72a.37.37,0,0,1-.37-.38A.38.38,0,0,1,234,152a.37.37,0,0,1,.37.38A.37.37,0,0,1,234,152.72Z"/><path class="cls-2" d="M249.11,152.18a.37.37,0,0,1-.37-.38.38.38,0,0,1,.38-.38.38.38,0,0,1,.37.38A.38.38,0,0,1,249.11,152.18Z"/><path class="cls-2" d="M262.64,131.5a.34.34,0,0,1-.33-.34.34.34,0,1,1,.33.34Z"/><path class="cls-2" d="M275.51,111.28a.29.29,0,0,1-.3-.3.31.31,0,0,1,.3-.29.3.3,0,0,1,.29.3A.29.29,0,0,1,275.51,111.28Z"/><path class="cls-2" d="M287.93,91.27a.23.23,0,1,1,.23-.22A.23.23,0,0,1,287.93,91.27Z"/><path class="cls-2" d="M300.13,71.23A.19.19,0,0,1,300,71a.18.18,0,0,1,.18-.18.19.19,0,0,1,.19.18A.2.2,0,0,1,300.13,71.23Z"/><path class="cls-2" d="M312.32,50.79a.15.15,0,0,1-.15-.15.16.16,0,0,1,.16-.16.16.16,0,1,1,0,.31Z"/><path class="cls-2" d="M12.73,241.36a.37.37,0,0,1-.37-.38.38.38,0,1,1,.76,0A.4.4,0,0,1,12.73,241.36Z"/><path class="cls-2" d="M42,231a.38.38,0,0,1,0-.76.39.39,0,0,1,.38.38A.38.38,0,0,1,42,231Z"/><path class="cls-2" d="M70.48,220.12a.38.38,0,0,1-.38-.38.38.38,0,0,1,.38-.37.38.38,0,1,1,0,.75Z"/><path class="cls-2" d="M97.49,209.45a.39.39,0,0,1-.39-.4.4.4,0,1,1,.39.4Z"/><path class="cls-2" d="M122.41,199.79a.39.39,0,0,1-.39-.4.4.4,0,1,1,.39.4Z"/><path class="cls-2" d="M145.06,191.72a.4.4,0,0,1-.4-.4.39.39,0,0,1,.4-.39.4.4,0,0,1,.4.4A.39.39,0,0,1,145.06,191.72Z"/><path class="cls-2" d="M165.86,185.16a.4.4,0,1,1,.4-.4A.39.39,0,0,1,165.86,185.16Z"/><path class="cls-2" d="M185,180.13a.41.41,0,0,1-.42-.43.42.42,0,0,1,.42-.42.43.43,0,0,1,.43.43A.43.43,0,0,1,185,180.13Z"/><path class="cls-2" d="M202.8,176.54a.42.42,0,1,1,.43-.41A.42.42,0,0,1,202.8,176.54Z"/><path class="cls-2" d="M219.31,174.36a.42.42,0,1,1,.42-.42A.42.42,0,0,1,219.31,174.36Z"/><path class="cls-2" d="M234.7,173.5a.44.44,0,0,1-.43-.44.43.43,0,0,1,.43-.43.44.44,0,0,1,.43.44A.43.43,0,0,1,234.7,173.5Z"/><path class="cls-2" d="M249.09,173.83a.45.45,0,1,1,0-.89.45.45,0,0,1,0,.89Z"/><path class="cls-2" d="M263.3,152.78a.4.4,0,0,1-.39-.4.41.41,0,0,1,.4-.39.4.4,0,0,1,.39.4A.39.39,0,0,1,263.3,152.78Z"/><path class="cls-2" d="M276.63,132.39a.34.34,0,0,1-.34-.34.35.35,0,0,1,.34-.33.34.34,0,0,1,.34.34A.34.34,0,0,1,276.63,132.39Z"/><path class="cls-2" d="M289.32,112.46a.3.3,0,0,1-.29-.3.3.3,0,1,1,.59,0A.3.3,0,0,1,289.32,112.46Z"/><path class="cls-2" d="M301.65,92.64a.23.23,0,0,1,0-.45.22.22,0,0,1,.22.22A.23.23,0,0,1,301.65,92.64Z"/><path class="cls-2" d="M313.87,72.64a.2.2,0,0,1-.19-.19.19.19,0,0,1,.2-.19.2.2,0,0,1,.19.19A.19.19,0,0,1,313.87,72.64Z"/><path class="cls-2" d="M326.2,52.05a.15.15,0,0,1-.15-.15.16.16,0,0,1,.15-.16.14.14,0,0,1,.15.16A.15.15,0,0,1,326.2,52.05Z"/><path class="cls-2" d="M19.47,254.4A.45.45,0,0,1,19,254a.46.46,0,0,1,.46-.45.46.46,0,0,1,.45.46A.44.44,0,0,1,19.47,254.4Z"/><path class="cls-2" d="M49.27,243.68a.46.46,0,0,1-.46-.47.47.47,0,0,1,.47-.47.48.48,0,0,1,.47.48A.46.46,0,0,1,49.27,243.68Z"/><path class="cls-2" d="M77.72,232.83a.45.45,0,0,1-.46-.47.46.46,0,0,1,.47-.46.47.47,0,0,1,.46.47A.45.45,0,0,1,77.72,232.83Z"/><path class="cls-2" d="M104.13,222.7a.48.48,0,0,1-.48-.48.48.48,0,1,1,1,0A.48.48,0,0,1,104.13,222.7Z"/><path class="cls-2" d="M128,214.13a.47.47,0,0,1-.47-.48.48.48,0,0,1,.48-.47.47.47,0,0,1,.47.48A.47.47,0,0,1,128,214.13Z"/><path class="cls-2" d="M149.61,207.21a.5.5,0,1,1,.5-.49A.5.5,0,0,1,149.61,207.21Z"/><path class="cls-2" d="M169.43,201.85a.51.51,0,0,1,0-1,.5.5,0,0,1,.5.51A.51.51,0,0,1,169.43,201.85Z"/><path class="cls-2" d="M187.63,198a.51.51,0,1,1,.51-.5A.5.5,0,0,1,187.63,198Z"/><path class="cls-2" d="M204.42,195.67a.51.51,0,1,1,.5-.5A.5.5,0,0,1,204.42,195.67Z"/><path class="cls-2" d="M219.94,194.73a.53.53,0,0,1-.52-.54.52.52,0,0,1,.53-.52.53.53,0,0,1,.53.53A.54.54,0,0,1,219.94,194.73Z"/><path class="cls-2" d="M234.35,195a.54.54,0,1,1,.54-.53A.55.55,0,0,1,234.35,195Z"/><path class="cls-2" d="M247.76,196.42a.53.53,0,1,1,0-1.06.53.53,0,0,1,0,1.06Z"/><path class="cls-2" d="M262.59,175.21a.43.43,0,0,1-.44-.45.45.45,0,1,1,.89,0A.44.44,0,0,1,262.59,175.21Z"/><path class="cls-2" d="M276.7,154.38a.4.4,0,0,1-.4-.41.41.41,0,1,1,.81,0A.4.4,0,0,1,276.7,154.38Z"/><path class="cls-2" d="M289.92,134.22a.36.36,0,1,1,0-.71.36.36,0,0,1,0,.71Z"/><path class="cls-2" d="M302.56,114.43a.29.29,0,0,1-.29-.3.3.3,0,1,1,.59,0A.29.29,0,0,1,302.56,114.43Z"/><path class="cls-2" d="M314.93,94.66a.23.23,0,0,1-.23-.23.24.24,0,0,1,.23-.22.23.23,0,0,1,.23.23A.24.24,0,0,1,314.93,94.66Z"/><path class="cls-2" d="M327.29,74.55a.19.19,0,0,1-.19-.19.18.18,0,0,1,.19-.19.18.18,0,0,1,.19.19A.19.19,0,0,1,327.29,74.55Z"/><path class="cls-2" d="M339.86,53.65a.15.15,0,0,1-.15-.15.16.16,0,0,1,.16-.16.16.16,0,0,1,.15.16A.16.16,0,0,1,339.86,53.65Z"/><path class="cls-2" d="M29.48,265.23a.53.53,0,1,1,.53-.52A.53.53,0,0,1,29.48,265.23Z"/><path class="cls-2" d="M59.07,254.44a.53.53,0,1,1,.53-.53A.53.53,0,0,1,59.07,254.44Z"/><path class="cls-2" d="M86.77,244a.52.52,0,0,1-.52-.53.53.53,0,0,1,.53-.52.53.53,0,1,1,0,1.05Z"/><path class="cls-2" d="M112,234.85a.54.54,0,1,1,.55-.54A.55.55,0,0,1,112,234.85Z"/><path class="cls-2" d="M134.47,227.54a.56.56,0,0,1,0-1.12.55.55,0,0,1,.55.56A.56.56,0,0,1,134.47,227.54Z"/><path class="cls-2" d="M154.85,221.91a.54.54,0,0,1-.54-.56.55.55,0,1,1,.54.56Z"/><path class="cls-2" d="M173.38,218a.54.54,0,0,1-.55-.56.55.55,0,1,1,1.1,0A.55.55,0,0,1,173.38,218Z"/><path class="cls-2" d="M190.26,215.66a.57.57,0,0,1-.56-.57.57.57,0,0,1,.57-.56.57.57,0,0,1,0,1.13Z"/><path class="cls-2" d="M205.71,214.86a.58.58,0,0,1-.58-.59.58.58,0,0,1,.59-.59.59.59,0,0,1,0,1.18Z"/><path class="cls-2" d="M219.88,215.39a.58.58,0,0,1-.59-.59.59.59,0,0,1,1.18,0A.59.59,0,0,1,219.88,215.39Z"/><path class="cls-2" d="M232.91,217.13a.59.59,0,0,1-.59-.6.59.59,0,0,1,.6-.59.6.6,0,1,1,0,1.19Z"/><path class="cls-2" d="M244.93,219.88a.6.6,0,0,1,0-1.19.59.59,0,0,1,.59.6A.59.59,0,0,1,244.93,219.88Z"/><path class="cls-2" d="M260.28,198.8a.53.53,0,0,1-.53-.54.53.53,0,0,1,1.06,0A.53.53,0,0,1,260.28,198.8Z"/><path class="cls-2" d="M275.29,177.52a.45.45,0,1,1,0-.89.45.45,0,0,1,.44.45A.45.45,0,0,1,275.29,177.52Z"/><path class="cls-2" d="M289.39,156.83a.4.4,0,1,1,.41-.4A.4.4,0,0,1,289.39,156.83Z"/><path class="cls-2" d="M302.61,136.8a.35.35,0,0,1-.35-.35.35.35,0,0,1,.36-.35.34.34,0,0,1,.34.35A.35.35,0,0,1,302.61,136.8Z"/><path class="cls-2" d="M315.31,117.08a.31.31,0,0,1-.31-.31.31.31,0,0,1,.62,0A.32.32,0,0,1,315.31,117.08Z"/><path class="cls-2" d="M327.82,97.22a.24.24,0,0,1-.24-.24.23.23,0,0,1,.24-.23.24.24,0,0,1,.24.24A.23.23,0,0,1,327.82,97.22Z"/><path class="cls-2" d="M340.43,76.85a.19.19,0,0,1,0-.38.19.19,0,0,1,0,.38Z"/><path class="cls-2" d="M353.36,55.52a.16.16,0,1,1,.16-.16A.16.16,0,0,1,353.36,55.52Z"/><path class="cls-2" d="M11,285.19A.59.59,0,0,1,11,284a.59.59,0,0,1,.58.59A.58.58,0,0,1,11,285.19Z"/><path class="cls-2" d="M41.36,274.67a.59.59,0,0,1,0-1.17.59.59,0,1,1,0,1.17Z"/><path class="cls-2" d="M70.07,264.2a.59.59,0,0,1,0-1.18.59.59,0,1,1,0,1.18Z"/><path class="cls-2" d="M96.49,254.59a.59.59,0,1,1,.59-.59A.58.58,0,0,1,96.49,254.59Z"/><path class="cls-2" d="M120.08,246.74a.62.62,0,0,1-.61-.62.61.61,0,0,1,.62-.61.62.62,0,0,1,0,1.23Z"/><path class="cls-2" d="M141.1,240.81a.64.64,0,0,1-.62-.63.63.63,0,0,1,.63-.62.61.61,0,0,1,.62.63A.63.63,0,0,1,141.1,240.81Z"/><path class="cls-2" d="M160,236.74a.62.62,0,1,1,.62-.62A.62.62,0,0,1,160,236.74Z"/><path class="cls-2" d="M176.88,234.48a.62.62,0,0,1-.61-.63.61.61,0,0,1,.62-.61.62.62,0,0,1,.62.62A.63.63,0,0,1,176.88,234.48Z"/><path class="cls-2" d="M192.14,233.92a.66.66,0,1,1,.67-.65A.67.67,0,0,1,192.14,233.92Z"/><path class="cls-2" d="M205.92,234.83a.66.66,0,1,1,.67-.66A.67.67,0,0,1,205.92,234.83Z"/><path class="cls-2" d="M218.4,237a.66.66,0,0,1-.66-.66.67.67,0,0,1,.67-.65.66.66,0,1,1,0,1.31Z"/><path class="cls-2" d="M229.71,240.32a.63.63,0,0,1-.64-.65.65.65,0,0,1,.65-.65.66.66,0,0,1,.65.66A.64.64,0,0,1,229.71,240.32Z"/><path class="cls-2" d="M240,244.53a.71.71,0,0,1-.69-.7.7.7,0,0,1,.7-.68.68.68,0,0,1,.68.69A.69.69,0,0,1,240,244.53Z"/><path class="cls-2" d="M256.08,223.48a.62.62,0,1,1,0-1.23.62.62,0,0,1,0,1.23Z"/><path class="cls-2" d="M272,202a.56.56,0,1,1,.57-.56A.56.56,0,0,1,272,202Z"/><path class="cls-2" d="M287.28,180.63a.48.48,0,1,1,0-.95.48.48,0,0,1,.47.48A.48.48,0,0,1,287.28,180.63Z"/><path class="cls-2" d="M301.45,160a.4.4,0,0,1-.4-.4.42.42,0,0,1,.41-.4.39.39,0,0,1,.39.4A.4.4,0,0,1,301.45,160Z"/><path class="cls-2" d="M314.76,140a.36.36,0,1,1,.36-.35A.36.36,0,0,1,314.76,140Z"/><path class="cls-2" d="M327.62,120.25a.31.31,0,0,1,0-.62.31.31,0,0,1,0,.62Z"/><path class="cls-2" d="M340.38,100.19a.23.23,0,0,1-.23-.23.24.24,0,1,1,.47,0A.23.23,0,0,1,340.38,100.19Z"/><path class="cls-2" d="M353.35,79.47a.21.21,0,1,1,.2-.21A.2.2,0,0,1,353.35,79.47Z"/><path class="cls-2" d="M24.53,293.8a.66.66,0,0,1-.65-.66.65.65,0,0,1,.66-.64.64.64,0,0,1,.64.65A.65.65,0,0,1,24.53,293.8Z"/><path class="cls-2" d="M53.87,283.55a.65.65,0,1,1,0-1.3.65.65,0,0,1,0,1.3Z"/><path class="cls-2" d="M81.2,273.79a.65.65,0,0,1-.64-.65.65.65,0,1,1,1.29,0A.65.65,0,0,1,81.2,273.79Z"/><path class="cls-2" d="M106,265.36a.66.66,0,0,1,0-1.31.66.66,0,0,1,0,1.31Z"/><path class="cls-2" d="M127.81,259a.69.69,0,1,1,.69-.68A.69.69,0,0,1,127.81,259Z"/><path class="cls-2" d="M147.1,254.67a.68.68,0,1,1,0-1.36.68.68,0,1,1,0,1.36Z"/><path class="cls-2" d="M164.15,252.41a.7.7,0,1,1,.7-.69A.71.71,0,0,1,164.15,252.41Z"/><path class="cls-2" d="M179.24,252a.68.68,0,0,1-.68-.69.69.69,0,0,1,.69-.69.7.7,0,0,1,.69.7A.69.69,0,0,1,179.24,252Z"/><path class="cls-2" d="M192.61,253.3a.72.72,0,1,1,0-1.43.72.72,0,0,1,.71.72A.71.71,0,0,1,192.61,253.3Z"/><path class="cls-2" d="M204.45,256a.72.72,0,0,1,0-1.44.72.72,0,0,1,0,1.44Z"/><path class="cls-2" d="M214.94,259.93a.73.73,0,1,1,.74-.73A.74.74,0,0,1,214.94,259.93Z"/><path class="cls-2" d="M224.27,264.75a.73.73,0,0,1-.72-.74.72.72,0,0,1,.73-.72.73.73,0,0,1,.73.73A.74.74,0,0,1,224.27,264.75Z"/><path class="cls-2" d="M232.62,270.24a.75.75,0,1,1,0-1.5.75.75,0,0,1,0,1.5Z"/><path class="cls-2" d="M249.49,249.33a.69.69,0,1,1,0-1.37.69.69,0,1,1,0,1.37Z"/><path class="cls-2" d="M266.48,227.71a.62.62,0,0,1-.62-.62.62.62,0,1,1,1.24,0A.61.61,0,0,1,266.48,227.71Z"/><path class="cls-2" d="M283.06,205.84a.57.57,0,0,1-.56-.57.56.56,0,1,1,.56.57Z"/><path class="cls-2" d="M298.65,184.35a.48.48,0,1,1,.47-.47A.47.47,0,0,1,298.65,184.35Z"/><path class="cls-2" d="M313,163.79a.42.42,0,1,1,.42-.41A.41.41,0,0,1,313,163.79Z"/><path class="cls-2" d="M326.45,143.78a.37.37,0,0,1-.37-.37.38.38,0,0,1,.38-.38.37.37,0,0,1,.37.38A.37.37,0,0,1,326.45,143.78Z"/><path class="cls-2" d="M339.57,123.84a.3.3,0,0,1-.31-.31.31.31,0,0,1,.31-.32.33.33,0,0,1,.31.32A.31.31,0,0,1,339.57,123.84Z"/><path class="cls-2" d="M352.68,103.49a.24.24,0,0,1-.24-.24.25.25,0,0,1,.24-.25.24.24,0,0,1,.24.25A.24.24,0,0,1,352.68,103.49Z"/><path class="cls-2" d="M366.08,82.3a.2.2,0,0,1-.21-.2.21.21,0,0,1,.21-.21.21.21,0,0,1,.21.21A.2.2,0,0,1,366.08,82.3Z"/><path class="cls-2" d="M8.58,312a.75.75,0,0,1,0-1.49.75.75,0,1,1,0,1.49Z"/><path class="cls-2" d="M38.12,302.21a.75.75,0,1,1,0-1.5.74.74,0,0,1,.74.75A.75.75,0,0,1,38.12,302.21Z"/><path class="cls-2" d="M66,292.62a.74.74,0,0,1-.74-.75.75.75,0,0,1,.75-.75.76.76,0,0,1,.75.76A.75.75,0,0,1,66,292.62Z"/><path class="cls-2" d="M91.61,283.92a.75.75,0,0,1-.75-.75.76.76,0,0,1,.76-.75.76.76,0,0,1,.74.76A.74.74,0,0,1,91.61,283.92Z"/><path class="cls-2" d="M114.52,277a.78.78,0,0,1-.78-.79.79.79,0,1,1,1.58,0A.78.78,0,0,1,114.52,277Z"/><path class="cls-2" d="M134.48,272.23a.79.79,0,1,1,0-1.58.79.79,0,0,1,0,1.58Z"/><path class="cls-2" d="M151.81,269.78A.79.79,0,0,1,151,269a.79.79,0,1,1,.78.79Z"/><path class="cls-2" d="M166.86,269.45a.8.8,0,0,1-.8-.8.81.81,0,0,1,.81-.8.8.8,0,0,1,.79.81A.79.79,0,0,1,166.86,269.45Z"/><path class="cls-2" d="M179.89,271a.81.81,0,1,1,0-1.61.81.81,0,0,1,0,1.61Z"/><path class="cls-2" d="M191.13,274.17a.82.82,0,0,1-.82-.83.83.83,0,0,1,.83-.83.84.84,0,0,1,.83.84A.82.82,0,0,1,191.13,274.17Z"/><path class="cls-2" d="M200.8,278.63a.83.83,0,1,1,.84-.82A.83.83,0,0,1,200.8,278.63Z"/><path class="cls-2" d="M209.11,284.09a.83.83,0,0,1-.84-.85.85.85,0,0,1,.85-.84.86.86,0,0,1,.84.86A.85.85,0,0,1,209.11,284.09Z"/><path class="cls-2" d="M216.25,290.23a.85.85,0,0,1-.83-.85.83.83,0,0,1,.85-.84.85.85,0,0,1,.84.85A.86.86,0,0,1,216.25,290.23Z"/><path class="cls-2" d="M222.47,296.73a.84.84,0,1,1,.85-.83A.83.83,0,0,1,222.47,296.73Z"/><path class="cls-2" d="M240.18,276.11a.75.75,0,0,1-.75-.76.75.75,0,1,1,.75.76Z"/><path class="cls-2" d="M258.27,254.57a.71.71,0,0,1-.69-.7.69.69,0,0,1,.7-.68.68.68,0,0,1,.68.69A.69.69,0,0,1,258.27,254.57Z"/><path class="cls-2" d="M276.25,232.39a.62.62,0,1,1,.62-.61A.62.62,0,0,1,276.25,232.39Z"/><path class="cls-2" d="M293.53,210.15a.57.57,0,0,1-.56-.57.57.57,0,0,1,.57-.55.55.55,0,0,1,.55.56A.56.56,0,0,1,293.53,210.15Z"/><path class="cls-2" d="M309.48,188.55a.48.48,0,0,1-.47-.48.48.48,0,0,1,.48-.47.48.48,0,0,1,.47.48A.47.47,0,0,1,309.48,188.55Z"/><path class="cls-2" d="M324,168a.42.42,0,0,1-.42-.42.41.41,0,0,1,.42-.41.42.42,0,1,1,0,.83Z"/><path class="cls-2" d="M337.76,147.89a.37.37,0,0,1-.37-.37.37.37,0,1,1,.74,0A.37.37,0,0,1,337.76,147.89Z"/><path class="cls-2" d="M351.21,127.74a.32.32,0,0,1-.32-.33.33.33,0,0,1,.65,0A.32.32,0,0,1,351.21,127.74Z"/><path class="cls-2" d="M364.75,107a.26.26,0,0,1-.25-.26.26.26,0,0,1,.26-.25.25.25,0,0,1,.25.25A.26.26,0,0,1,364.75,107Z"/><path class="cls-2" d="M378.66,85.31a.22.22,0,0,1-.21-.21.21.21,0,0,1,.21-.21.22.22,0,0,1,.21.21A.23.23,0,0,1,378.66,85.31Z"/><path class="cls-2" d="M22.9,320.14a.82.82,0,1,1,.82-.81A.81.81,0,0,1,22.9,320.14Z"/><path class="cls-2" d="M50.83,311a.82.82,0,1,1,0-1.64.82.82,0,0,1,.81.83A.82.82,0,0,1,50.83,311Z"/><path class="cls-2" d="M76.92,302.46a.84.84,0,0,1,0-1.67.84.84,0,1,1,0,1.67Z"/><path class="cls-2" d="M100.75,295a.82.82,0,0,1-.82-.84.83.83,0,0,1,1.66,0A.82.82,0,0,1,100.75,295Z"/><path class="cls-2" d="M121.66,289.7a.83.83,0,1,1,.84-.82A.84.84,0,0,1,121.66,289.7Z"/><path class="cls-2" d="M139.53,286.9a.86.86,0,1,1,.86-.85A.85.85,0,0,1,139.53,286.9Z"/><path class="cls-2" d="M154.74,286.45a.87.87,0,1,1,0-1.74.87.87,0,0,1,0,1.74Z"/><path class="cls-2" d="M167.6,288.09a.87.87,0,0,1-.86-.88.87.87,0,0,1,1.74,0A.88.88,0,0,1,167.6,288.09Z"/><path class="cls-2" d="M178.39,291.52a.86.86,0,0,1-.86-.87.87.87,0,1,1,.86.87Z"/><path class="cls-2" d="M187.35,296.43a.89.89,0,1,1,.89-.88A.88.88,0,0,1,187.35,296.43Z"/><path class="cls-2" d="M194.69,302.44a.92.92,0,1,1,.93-.91A.92.92,0,0,1,194.69,302.44Z"/><path class="cls-2" d="M200.67,309.16a.92.92,0,1,1,.93-.92A.92.92,0,0,1,200.67,309.16Z"/><path class="cls-2" d="M205.54,316.25a.92.92,0,1,1,.93-.91A.92.92,0,0,1,205.54,316.25Z"/><circle class="cls-2" cx="209.6" cy="322.5" r="0.93"/><path class="cls-2" d="M228,303.38a.86.86,0,0,1-.86-.87.87.87,0,1,1,.86.87Z"/><path class="cls-2" d="M247.16,282.15a.77.77,0,1,1,0-1.53.75.75,0,0,1,.75.77A.76.76,0,0,1,247.16,282.15Z"/><path class="cls-2" d="M266.53,260a.68.68,0,0,1-.68-.69.69.69,0,1,1,1.37,0A.68.68,0,0,1,266.53,260Z"/><path class="cls-2" d="M285.53,237.38a.65.65,0,1,1,.66-.64A.65.65,0,0,1,285.53,237.38Z"/><path class="cls-2" d="M303.53,214.8a.57.57,0,0,1-.57-.58.58.58,0,1,1,.57.58Z"/><path class="cls-2" d="M319.89,193.08a.48.48,0,0,1-.47-.48.47.47,0,0,1,.48-.47.48.48,0,0,1,0,1Z"/><path class="cls-2" d="M334.67,172.5a.43.43,0,0,1,0-.85.42.42,0,0,1,.42.43A.42.42,0,0,1,334.67,172.5Z"/><path class="cls-2" d="M348.75,152.25a.38.38,0,0,1-.37-.38.38.38,0,0,1,.38-.37.37.37,0,0,1,.37.38A.38.38,0,0,1,348.75,152.25Z"/><circle class="cls-2" cx="362.63" cy="131.49" r="0.33" transform="translate(11.99 292.26) rotate(-44.56)"/><path class="cls-2" d="M376.66,110.68a.26.26,0,0,1-.25-.26.25.25,0,1,1,.25.26Z"/><path class="cls-2" d="M391.27,88.21a.21.21,0,0,1-.21-.22.21.21,0,0,1,.22-.21.21.21,0,0,1,.21.21A.22.22,0,0,1,391.27,88.21Z"/><path class="cls-2" d="M8.35,337.34a.86.86,0,1,1,.87-.85A.86.86,0,0,1,8.35,337.34Z"/><path class="cls-2" d="M35.9,329a.88.88,0,1,1,.88-.87A.88.88,0,0,1,35.9,329Z"/><path class="cls-2" d="M62,320.86a.9.9,0,1,1,.91-.89A.9.9,0,0,1,62,320.86Z"/><path class="cls-2" d="M86.25,313.49a.9.9,0,1,1,.91-.89A.89.89,0,0,1,86.25,313.49Z"/><path class="cls-2" d="M108.23,307.55a.92.92,0,1,1,.92-.91A.91.91,0,0,1,108.23,307.55Z"/><path class="cls-2" d="M126.93,304.13a.91.91,0,1,1,0-1.82.91.91,0,1,1,0,1.82Z"/><path class="cls-2" d="M142.56,303.32a.92.92,0,0,1-.91-.93.92.92,0,1,1,.91.93Z"/><path class="cls-2" d="M155.5,304.88a1,1,0,1,1,1-.95A1,1,0,0,1,155.5,304.88Z"/><path class="cls-2" d="M166.06,308.4a1,1,0,1,1,1-.95A1,1,0,0,1,166.06,308.4Z"/><path class="cls-2" d="M174.49,313.55a1,1,0,1,1,1-1A1,1,0,0,1,174.49,313.55Z"/><path class="cls-2" d="M181.05,319.9a1,1,0,1,1,1-.95A1,1,0,0,1,181.05,319.9Z"/><path class="cls-2" d="M186,327.07a1,1,0,1,1,1-1A1,1,0,0,1,186,327.07Z"/><path class="cls-2" d="M189.62,334.64a1,1,0,1,1,1-1A1,1,0,0,1,189.62,334.64Z"/><path class="cls-2" d="M192.24,342.28a1,1,0,0,1-1-1,1,1,0,1,1,2,0A1,1,0,0,1,192.24,342.28Z"/><path class="cls-2" d="M194.22,349.63a1,1,0,1,1,1-1A1,1,0,0,1,194.22,349.63Z"/><path class="cls-2" d="M213.16,330.37a.93.93,0,1,1,.93-.92A.92.92,0,0,1,213.16,330.37Z"/><circle class="cls-2" cx="233.19" cy="308.98" r="0.87" transform="translate(-116.84 474.29) rotate(-78.24)"/><path class="cls-2" d="M253.81,288.11a.77.77,0,0,1,0-1.54.77.77,0,0,1,0,1.54Z"/><path class="cls-2" d="M274.47,265.5a.72.72,0,0,1,0-1.43.72.72,0,0,1,0,1.43Z"/><path class="cls-2" d="M294.49,242.44a.65.65,0,1,1,0-1.3.65.65,0,1,1,0,1.3Z"/><path class="cls-2" d="M313.2,219.6a.58.58,0,1,1,0-1.16.57.57,0,0,1,.57.59A.57.57,0,0,1,313.2,219.6Z"/><path class="cls-2" d="M330,197.83a.51.51,0,0,1-.49-.51.5.5,0,0,1,.5-.5.51.51,0,0,1,.5.51A.5.5,0,0,1,330,197.83Z"/><path class="cls-2" d="M345.06,177.19a.45.45,0,0,1,0-.89.45.45,0,0,1,.44.45A.46.46,0,0,1,345.06,177.19Z"/><path class="cls-2" d="M359.53,156.73a.37.37,0,0,1,0-.74.37.37,0,0,1,0,.74Z"/><path class="cls-2" d="M374,135.78a.33.33,0,0,1-.32-.33.32.32,0,0,1,.33-.32.32.32,0,0,1,.32.32A.33.33,0,0,1,374,135.78Z"/><path class="cls-2" d="M389.15,113.5a.26.26,0,0,1-.26-.26.27.27,0,1,1,.53,0A.25.25,0,0,1,389.15,113.5Z"/><path class="cls-2" d="M405,89.52a.21.21,0,0,1-.21-.21.22.22,0,0,1,.22-.22.22.22,0,0,1,0,.43Z"/><path class="cls-2" d="M21.4,346.35a.94.94,0,0,1,0-1.88.94.94,0,1,1,0,1.88Z"/><path class="cls-2" d="M47,339a.94.94,0,1,1,1-.93A.93.93,0,0,1,47,339Z"/><path class="cls-2" d="M71.21,332.06a1,1,0,1,1,1-.95A.95.95,0,0,1,71.21,332.06Z"/><path class="cls-2" d="M93.78,326a1,1,0,1,1,1-.95A1,1,0,0,1,93.78,326Z"/><path class="cls-2" d="M113.62,321.79a1,1,0,1,1,1-1A1,1,0,0,1,113.62,321.79Z"/><path class="cls-2" d="M130,320.4a1,1,0,0,1-1-1,1,1,0,1,1,1,1Z"/><path class="cls-2" d="M143.3,321.58a1,1,0,1,1,1-1A1,1,0,0,1,143.3,321.58Z"/><path class="cls-2" d="M153.89,325a1,1,0,1,1,1-1A1,1,0,0,1,153.89,325Z"/><path class="cls-2" d="M162.06,330.12a1,1,0,0,1,0-2,1,1,0,0,1,1,1A1,1,0,0,1,162.06,330.12Z"/><path class="cls-2" d="M168.08,336.69a1.05,1.05,0,0,1-1-1.05,1,1,0,0,1,1-1,1,1,0,0,1,1,1A1,1,0,0,1,168.08,336.69Z"/><path class="cls-2" d="M172.23,344.13a1.05,1.05,0,1,1,1.06-1A1,1,0,0,1,172.23,344.13Z"/><path class="cls-2" d="M174.81,352a1.06,1.06,0,1,1,1.06-1A1,1,0,0,1,174.81,352Z"/><path class="cls-2" d="M176.17,360a1.06,1.06,0,1,1,1.06-1A1.06,1.06,0,0,1,176.17,360Z"/><path class="cls-2" d="M176.7,367.6a1.05,1.05,0,1,1,0-2.1,1.05,1.05,0,1,1,0,2.1Z"/><path class="cls-2" d="M176.84,374.68a1.07,1.07,0,1,1,1.08-1.06A1.06,1.06,0,0,1,176.84,374.68Z"/><path class="cls-2" d="M196,356.46a1,1,0,0,1,0-2,1,1,0,0,1,0,2Z"/><path class="cls-2" d="M216.59,336.9a1,1,0,1,1,0-1.91,1,1,0,1,1,0,1.91Z"/><path class="cls-2" d="M238.25,316a.89.89,0,0,1-.87-.89.89.89,0,1,1,1.77,0A.9.9,0,0,1,238.25,316Z"/><path class="cls-2" d="M260.38,293.83a.8.8,0,1,1,.8-.79A.8.8,0,0,1,260.38,293.83Z"/><path class="cls-2" d="M282.29,270.82a.73.73,0,0,1,0-1.46.73.73,0,1,1,0,1.46Z"/><path class="cls-2" d="M303.27,247.44a.65.65,0,1,1,0-1.3.65.65,0,1,1,0,1.3Z"/><path class="cls-2" d="M322.65,224.44a.6.6,0,1,1,0-1.19.6.6,0,0,1,0,1.19Z"/><path class="cls-2" d="M339.82,202.6a.5.5,0,1,1,.51-.5A.5.5,0,0,1,339.82,202.6Z"/><path class="cls-2" d="M355.45,181.7a.44.44,0,0,1-.44-.45.45.45,0,0,1,.89,0A.46.46,0,0,1,355.45,181.7Z"/><path class="cls-2" d="M370.92,160.42a.38.38,0,0,1-.39-.39.39.39,0,1,1,.39.39Z"/><path class="cls-2" d="M386.63,138.26a.33.33,0,0,1-.33-.34.32.32,0,0,1,.34-.33.34.34,0,1,1,0,.67Z"/><path class="cls-2" d="M402.85,114.74a.27.27,0,0,1-.27-.27.26.26,0,0,1,.27-.26.25.25,0,0,1,.26.26A.27.27,0,0,1,402.85,114.74Z"/><path class="cls-2" d="M7.59,363.1a1,1,0,1,1,1-1A1,1,0,0,1,7.59,363.1Z"/><path class="cls-2" d="M32.26,356.69a1,1,0,0,1,0-2.08,1,1,0,1,1,0,2.08Z"/><path class="cls-2" d="M55.91,350.51a1,1,0,0,1-1-1,1.05,1.05,0,0,1,1-1,1,1,0,1,1,0,2.07Z"/><path class="cls-2" d="M78.39,344.85a1.07,1.07,0,1,1,0-2.14,1.07,1.07,0,1,1,0,2.14Z"/><path class="cls-2" d="M99.29,340.08a1.09,1.09,0,0,1,0-2.18,1.09,1.09,0,1,1,0,2.18Z"/><path class="cls-2" d="M116.7,337.93a1.09,1.09,0,0,1-1.08-1.1,1.09,1.09,0,0,1,2.18,0A1.1,1.1,0,0,1,116.7,337.93Z"/><path class="cls-2" d="M130.68,338.51a1.09,1.09,0,0,1-1.08-1.1,1.09,1.09,0,1,1,2.18,0A1.1,1.1,0,0,1,130.68,338.51Z"/><path class="cls-2" d="M141.62,341.51a1.11,1.11,0,1,1,1.11-1.1A1.1,1.1,0,0,1,141.62,341.51Z"/><path class="cls-2" d="M149.83,346.48a1.11,1.11,0,1,1,1.12-1.1A1.11,1.11,0,0,1,149.83,346.48Z"/><path class="cls-2" d="M155.62,353a1.15,1.15,0,1,1,1.15-1.13A1.13,1.13,0,0,1,155.62,353Z"/><path class="cls-2" d="M159.27,360.49a1.16,1.16,0,0,1-1.14-1.16,1.15,1.15,0,1,1,1.14,1.16Z"/><path class="cls-2" d="M161.09,368.54a1.17,1.17,0,1,1,1.18-1.16A1.18,1.18,0,0,1,161.09,368.54Z"/><path class="cls-2" d="M161.46,376.66a1.17,1.17,0,1,1,1.17-1.16A1.16,1.16,0,0,1,161.46,376.66Z"/><path class="cls-2" d="M160.78,384.48a1.17,1.17,0,1,1,0-2.33,1.17,1.17,0,0,1,0,2.33Z"/><path class="cls-2" d="M159.51,391.69a1.18,1.18,0,0,1-1.16-1.18,1.17,1.17,0,1,1,1.16,1.18Z"/><circle class="cls-2" cx="158.17" cy="396.89" r="1.2" transform="translate(-233.02 225.12) rotate(-44.57)"/><path class="cls-2" d="M177.07,381a1.11,1.11,0,1,1,1.11-1.1A1.1,1.1,0,0,1,177.07,381Z"/><path class="cls-2" d="M197.91,362.58a1,1,0,1,1,1-1A1,1,0,0,1,197.91,362.58Z"/><path class="cls-2" d="M220.27,342.77a1,1,0,0,1-1-1,1,1,0,1,1,1.92,0A1,1,0,0,1,220.27,342.77Z"/><path class="cls-2" d="M243.58,321.55a.89.89,0,1,1,0-1.77.89.89,0,1,1,0,1.77Z"/><path class="cls-2" d="M267.15,299.09a.8.8,0,1,1,.8-.79A.8.8,0,0,1,267.15,299.09Z"/><path class="cls-2" d="M290.22,275.8a.73.73,0,1,1,.74-.72A.73.73,0,0,1,290.22,275.8Z"/><path class="cls-2" d="M312.07,252.24a.66.66,0,1,1,.66-.65A.66.66,0,0,1,312.07,252.24Z"/><path class="cls-2" d="M332.23,229a.6.6,0,0,1-.59-.6.6.6,0,1,1,1.19,0A.6.6,0,0,1,332.23,229Z"/><path class="cls-2" d="M350.39,206.55a.51.51,0,0,1-.5-.51.5.5,0,1,1,.5.51Z"/><path class="cls-2" d="M367.1,184.8a.46.46,0,0,1-.44-.45.45.45,0,0,1,.45-.44.44.44,0,0,1,.44.44A.45.45,0,0,1,367.1,184.8Z"/><path class="cls-2" d="M383.61,162.59a.38.38,0,0,1-.39-.39.39.39,0,1,1,.78,0A.38.38,0,0,1,383.61,162.59Z"/><path class="cls-2" d="M400.29,139.46a.35.35,0,0,1-.35-.35.36.36,0,0,1,.35-.35.35.35,0,0,1,0,.7Z"/><path class="cls-2" d="M417.37,114.9a.27.27,0,1,1,.27-.26A.27.27,0,0,1,417.37,114.9Z"/><path class="cls-2" d="M40.73,368.58a1.13,1.13,0,1,1,1.13-1.12A1.12,1.12,0,0,1,40.73,368.58Z"/><path class="cls-2" d="M62.59,363.63a1.12,1.12,0,1,1,1.13-1.11A1.11,1.11,0,0,1,62.59,363.63Z"/><path class="cls-2" d="M83.67,359a1.14,1.14,0,1,1,1.15-1.13A1.14,1.14,0,0,1,83.67,359Z"/><path class="cls-2" d="M102.43,356a1.14,1.14,0,0,1-1.13-1.15,1.12,1.12,0,0,1,1.14-1.13,1.14,1.14,0,1,1,0,2.28Z"/><path class="cls-2" d="M117.38,355.76a1.14,1.14,0,1,1,1.15-1.12A1.14,1.14,0,0,1,117.38,355.76Z"/><path class="cls-2" d="M129,358.15a1.15,1.15,0,0,1,0-2.3,1.15,1.15,0,1,1,0,2.3Z"/><path class="cls-2" d="M137.56,362.71a1.19,1.19,0,1,1,1.2-1.18A1.18,1.18,0,0,1,137.56,362.71Z"/><path class="cls-2" d="M143.45,368.9a1.19,1.19,0,1,1,1.2-1.18A1.18,1.18,0,0,1,143.45,368.9Z"/><path class="cls-2" d="M146.94,376.25a1.19,1.19,0,1,1,0-2.38,1.19,1.19,0,0,1,0,2.38Z"/><path class="cls-2" d="M148.36,384.26a1.22,1.22,0,0,1-1.2-1.22,1.21,1.21,0,1,1,1.2,1.22Z"/><path class="cls-2" d="M148.08,392.4a1.21,1.21,0,1,1,1.22-1.2A1.21,1.21,0,0,1,148.08,392.4Z"/><path class="cls-2" d="M146.51,400.28a1.21,1.21,0,0,1-1.2-1.22,1.21,1.21,0,0,1,2.42,0A1.21,1.21,0,0,1,146.51,400.28Z"/><path class="cls-2" d="M144.13,407.58a1.25,1.25,0,1,1,0-2.49,1.25,1.25,0,0,1,0,2.49Z"/><path class="cls-2" d="M141.46,414a1.27,1.27,0,1,1,1.27-1.26A1.27,1.27,0,0,1,141.46,414Z"/><path class="cls-2" d="M139.07,419.35a1.27,1.27,0,0,1-1.27-1.28,1.28,1.28,0,1,1,2.55,0A1.27,1.27,0,0,1,139.07,419.35Z"/><path class="cls-2" d="M157.28,403.49a1.21,1.21,0,0,1-1.21-1.23,1.22,1.22,0,1,1,2.44,0A1.21,1.21,0,0,1,157.28,403.49Z"/><path class="cls-2" d="M177.89,386.35a1.11,1.11,0,0,1-1.09-1.12,1.09,1.09,0,0,1,1.11-1.09,1.11,1.11,0,1,1,0,2.21Z"/><path class="cls-2" d="M200.52,367.88a1.06,1.06,0,0,1,0-2.12,1.07,1.07,0,0,1,1.05,1.07A1.06,1.06,0,0,1,200.52,367.88Z"/><path class="cls-2" d="M224.63,347.89a1,1,0,0,1-1-1,1,1,0,1,1,1,1Z"/><path class="cls-2" d="M249.51,326.47a.92.92,0,1,1,0-1.83.92.92,0,0,1,0,1.83Z"/><path class="cls-2" d="M274.4,303.77a.79.79,0,0,1-.78-.8.79.79,0,0,1,.8-.79.78.78,0,0,1,.78.8A.79.79,0,0,1,274.4,303.77Z"/><path class="cls-2" d="M298.71,280.18a.73.73,0,1,1,0-1.45.73.73,0,1,1,0,1.45Z"/><path class="cls-2" d="M321.9,256.09a.7.7,0,0,1,0-1.39.7.7,0,0,1,0,1.39Z"/><path class="cls-2" d="M343.3,232.12a.61.61,0,0,1-.61-.62.62.62,0,1,1,.61.62Z"/><path class="cls-2" d="M362.4,209.07a.53.53,0,0,1-.52-.53.52.52,0,0,1,.52-.52.53.53,0,0,1,.52.53A.52.52,0,0,1,362.4,209.07Z"/><circle class="cls-2" cx="379.94" cy="186.2" r="0.46"/><path class="cls-2" d="M397.25,163.74a.42.42,0,0,1,0-.84.42.42,0,0,1,0,.84Z"/><path class="cls-2" d="M414.68,139.78a.36.36,0,0,1-.35-.36.35.35,0,0,1,.35-.34.35.35,0,0,1,.35.35A.35.35,0,0,1,414.68,139.78Z"/><path class="cls-2" d="M432.42,114.4a.28.28,0,1,1,0-.55.27.27,0,0,1,.28.28A.28.28,0,0,1,432.42,114.4Z"/><path class="cls-2" d="M46.85,382a1.19,1.19,0,1,1,0-2.37,1.19,1.19,0,0,1,0,2.37Z"/><path class="cls-2" d="M67.26,378.14a1.19,1.19,0,1,1,0-2.37,1.19,1.19,0,0,1,0,2.37Z"/><path class="cls-2" d="M87,374.56a1.19,1.19,0,0,1,0-2.37,1.2,1.2,0,0,1,1.18,1.2A1.18,1.18,0,0,1,87,374.56Z"/><path class="cls-2" d="M103.22,373.51a1.23,1.23,0,1,1,1.23-1.21A1.23,1.23,0,0,1,103.22,373.51Z"/><path class="cls-2" d="M115.76,375.11a1.25,1.25,0,1,1,1.26-1.23A1.25,1.25,0,0,1,115.76,375.11Z"/><path class="cls-2" d="M125,379a1.25,1.25,0,1,1,1.25-1.24A1.26,1.26,0,0,1,125,379Z"/><path class="cls-2" d="M131.36,384.66a1.24,1.24,0,1,1,1.26-1.23A1.24,1.24,0,0,1,131.36,384.66Z"/><path class="cls-2" d="M135.06,391.66a1.26,1.26,0,1,1,1.27-1.25A1.25,1.25,0,0,1,135.06,391.66Z"/><path class="cls-2" d="M136.46,399.41a1.26,1.26,0,1,1,1.27-1.25A1.26,1.26,0,0,1,136.46,399.41Z"/><path class="cls-2" d="M135.91,407.42a1.26,1.26,0,1,1,1.27-1.25A1.25,1.25,0,0,1,135.91,407.42Z"/><path class="cls-2" d="M133.84,415.27a1.3,1.3,0,1,1,1.31-1.29A1.29,1.29,0,0,1,133.84,415.27Z"/><path class="cls-2" d="M130.71,422.52a1.32,1.32,0,1,1,1.34-1.31A1.32,1.32,0,0,1,130.71,422.52Z"/><path class="cls-2" d="M127.07,428.88a1.32,1.32,0,1,1,1.33-1.31A1.32,1.32,0,0,1,127.07,428.88Z"/><path class="cls-2" d="M123.46,434.19a1.33,1.33,0,0,1-1.31-1.34,1.31,1.31,0,0,1,1.33-1.31,1.33,1.33,0,1,1,0,2.65Z"/><path class="cls-2" d="M137.54,423.62a1.27,1.27,0,1,1,0-2.53,1.26,1.26,0,0,1,1.26,1.27A1.27,1.27,0,0,1,137.54,423.62Z"/><path class="cls-2" d="M157.44,407.84a1.22,1.22,0,1,1,0-2.44,1.23,1.23,0,0,1,1.22,1.23A1.22,1.22,0,0,1,157.44,407.84Z"/><path class="cls-2" d="M179.86,390.73a1.11,1.11,0,1,1,1.11-1.1A1.1,1.1,0,0,1,179.86,390.73Z"/><path class="cls-2" d="M204.29,372.22a1.06,1.06,0,1,1,1.07-1.05A1.07,1.07,0,0,1,204.29,372.22Z"/><path class="cls-2" d="M230.08,352.13a1,1,0,1,1,1-1A1,1,0,0,1,230.08,352.13Z"/><path class="cls-2" d="M256.63,330.47a.93.93,0,0,1-.91-.92.92.92,0,0,1,.92-.91.9.9,0,0,1,.91.92A.92.92,0,0,1,256.63,330.47Z"/><path class="cls-2" d="M283.31,307.27a.81.81,0,1,1,.81-.8A.8.8,0,0,1,283.31,307.27Z"/><path class="cls-2" d="M309.2,283.08a.76.76,0,0,1-.75-.76.77.77,0,0,1,.77-.75.74.74,0,0,1,.74.76A.75.75,0,0,1,309.2,283.08Z"/><path class="cls-2" d="M333.54,258.42a.68.68,0,0,1-.68-.69.69.69,0,1,1,.68.69Z"/><path class="cls-2" d="M355.76,234a.62.62,0,1,1,0-1.23.62.62,0,1,1,0,1.23Z"/><path class="cls-2" d="M375.49,210.53A.52.52,0,0,1,375,210a.52.52,0,0,1,1,0A.52.52,0,0,1,375.49,210.53Z"/><path class="cls-2" d="M393.64,187.64a.46.46,0,0,1-.46-.46.46.46,0,1,1,.92,0A.46.46,0,0,1,393.64,187.64Z"/><path class="cls-2" d="M411.54,164.14a.41.41,0,0,1-.41-.42.41.41,0,0,1,.42-.41.42.42,0,0,1,0,.83Z"/><path class="cls-2" d="M429.54,139.56a.37.37,0,0,1-.37-.37.37.37,0,0,1,.37-.36.37.37,0,0,1,.36.37A.36.36,0,0,1,429.54,139.56Z"/><path class="cls-2" d="M447.75,113.52a.28.28,0,1,1,0-.55.28.28,0,0,1,0,.55Z"/><path class="cls-2" d="M70.38,393.67a1.25,1.25,0,1,1,1.26-1.24A1.24,1.24,0,0,1,70.38,393.67Z"/><path class="cls-2" d="M88.09,391.67a1.29,1.29,0,0,1-1.28-1.3,1.29,1.29,0,0,1,2.58,0A1.3,1.3,0,0,1,88.09,391.67Z"/><path class="cls-2" d="M101.85,392.33a1.29,1.29,0,1,1,1.3-1.28A1.29,1.29,0,0,1,101.85,392.33Z"/><path class="cls-2" d="M112.1,395.38a1.3,1.3,0,0,1-1.28-1.3,1.29,1.29,0,1,1,1.28,1.3Z"/><path class="cls-2" d="M119.2,400.38a1.31,1.31,0,1,1,0-2.62,1.31,1.31,0,0,1,0,2.62Z"/><path class="cls-2" d="M123.45,406.8a1.31,1.31,0,0,1-1.3-1.32,1.32,1.32,0,1,1,1.3,1.32Z"/><path class="cls-2" d="M125.2,414.13a1.31,1.31,0,1,1,0-2.62,1.31,1.31,0,0,1,0,2.62Z"/><path class="cls-2" d="M124.8,421.89a1.36,1.36,0,1,1,1.36-1.34A1.35,1.35,0,0,1,124.8,421.89Z"/><path class="cls-2" d="M122.64,429.53a1.38,1.38,0,1,1,1.39-1.36A1.39,1.39,0,0,1,122.64,429.53Z"/><path class="cls-2" d="M119.2,436.64a1.37,1.37,0,1,1,1.38-1.36A1.36,1.36,0,0,1,119.2,436.64Z"/><path class="cls-2" d="M137.49,426.85a1.27,1.27,0,1,1,1.28-1.25A1.26,1.26,0,0,1,137.49,426.85Z"/><path class="cls-2" d="M159.2,411.19A1.22,1.22,0,0,1,158,410a1.23,1.23,0,0,1,1.23-1.21,1.22,1.22,0,0,1,1.21,1.23A1.21,1.21,0,0,1,159.2,411.19Z"/><path class="cls-2" d="M183.49,394.16a1.14,1.14,0,0,1-1.12-1.14,1.13,1.13,0,0,1,1.14-1.11,1.11,1.11,0,0,1,1.11,1.13A1.13,1.13,0,0,1,183.49,394.16Z"/><path class="cls-2" d="M209.93,375.54a1.06,1.06,0,1,1,1.07-1.05A1.07,1.07,0,0,1,209.93,375.54Z"/><path class="cls-2" d="M237.94,355.12a1,1,0,0,1-1-1,1,1,0,1,1,2,0A1,1,0,0,1,237.94,355.12Z"/><path class="cls-2" d="M266.5,332.92a.93.93,0,0,1-.91-.92.92.92,0,0,1,.93-.91.92.92,0,0,1,0,1.83Z"/><path class="cls-2" d="M294.66,309.27a.84.84,0,1,1,.84-.83A.84.84,0,0,1,294.66,309.27Z"/><path class="cls-2" d="M321.57,284.64a.74.74,0,0,1-.74-.76.76.76,0,0,1,.76-.75.77.77,0,0,1,.75.76A.76.76,0,0,1,321.57,284.64Z"/><path class="cls-2" d="M346.59,259.67a.69.69,0,1,1,.7-.69A.69.69,0,0,1,346.59,259.67Z"/><path class="cls-2" d="M369.27,235a.62.62,0,0,1,0-1.23.62.62,0,1,1,0,1.23Z"/><path class="cls-2" d="M389.38,211.26a.52.52,0,0,1-.52-.52.52.52,0,0,1,.53-.52.52.52,0,0,1,.51.53A.51.51,0,0,1,389.38,211.26Z"/><path class="cls-2" d="M407.93,188a.47.47,0,0,1-.47-.47.48.48,0,0,1,.48-.47.47.47,0,1,1,0,.94Z"/><path class="cls-2" d="M426.26,164.08a.42.42,0,0,1-.41-.42.41.41,0,0,1,.42-.41.41.41,0,0,1,.41.42A.41.41,0,0,1,426.26,164.08Z"/><path class="cls-2" d="M444.66,139a.37.37,0,1,1,.37-.36A.37.37,0,0,1,444.66,139Z"/><path class="cls-2" d="M87.25,409.81a1.36,1.36,0,0,1-1.34-1.36,1.35,1.35,0,1,1,1.34,1.36Z"/><path class="cls-2" d="M98.73,412a1.41,1.41,0,1,1,1.42-1.4A1.41,1.41,0,0,1,98.73,412Z"/><path class="cls-2" d="M106.87,416.13a1.41,1.41,0,0,1,0-2.82,1.41,1.41,0,1,1,0,2.82Z"/><path class="cls-2" d="M112,421.82a1.41,1.41,0,1,1,1.42-1.4A1.41,1.41,0,0,1,112,421.82Z"/><path class="cls-2" d="M114.48,428.56a1.41,1.41,0,0,1,0-2.82,1.41,1.41,0,1,1,0,2.82Z"/><path class="cls-2" d="M139.52,429.16a1.28,1.28,0,1,1,0-2.55,1.28,1.28,0,0,1,0,2.55Z"/><circle class="cls-2" cx="163.41" cy="412.35" r="1.22" transform="translate(-272.51 330.47) rotate(-57.74)"/><path class="cls-2" d="M190.25,396.4a1.13,1.13,0,0,1-1.11-1.14,1.11,1.11,0,0,1,1.13-1.11,1.13,1.13,0,0,1,1.12,1.13A1.14,1.14,0,0,1,190.25,396.4Z"/><path class="cls-2" d="M219.12,377.45a1.06,1.06,0,1,1,1.07-1.05A1.06,1.06,0,0,1,219.12,377.45Z"/><path class="cls-2" d="M249,356.66a1,1,0,1,1,0-2,1,1,0,0,1,0,2Z"/><path class="cls-2" d="M278.93,334.08a.93.93,0,1,1,.93-.92A.93.93,0,0,1,278.93,334.08Z"/><path class="cls-2" d="M308,310.1a.83.83,0,0,1-.83-.84.84.84,0,1,1,.83.84Z"/><path class="cls-2" d="M335.4,285.25a.77.77,0,0,1,0-1.54.78.78,0,0,1,.77.78A.77.77,0,0,1,335.4,285.25Z"/><path class="cls-2" d="M360.69,260.15a.72.72,0,1,1,.73-.71A.71.71,0,0,1,360.69,260.15Z"/><path class="cls-2" d="M383.53,235.39a.65.65,0,0,1-.64-.65.64.64,0,1,1,.64.65Z"/><path class="cls-2" d="M403.81,211.51a.54.54,0,0,1-.54-.54.55.55,0,0,1,.55-.54.55.55,0,0,1,.54.55A.53.53,0,0,1,403.81,211.51Z"/><path class="cls-2" d="M422.63,188a.48.48,0,0,1-.49-.49.49.49,0,0,1,.49-.49.49.49,0,1,1,0,1Z"/><path class="cls-2" d="M441.26,163.74a.44.44,0,1,1,.44-.43A.44.44,0,0,1,441.26,163.74Z"/><path class="cls-2" d="M459.94,138.29a.38.38,0,0,1-.38-.38.38.38,0,0,1,.39-.39.39.39,0,1,1,0,.77Z"/><path class="cls-2" d="M145.21,430.61a1.34,1.34,0,1,1,0-2.67,1.34,1.34,0,0,1,0,2.67Z"/><path class="cls-2" d="M171.86,414.91a1.26,1.26,0,0,1-1.25-1.27,1.27,1.27,0,0,1,1.27-1.25,1.26,1.26,0,0,1,0,2.52Z"/><path class="cls-2" d="M201,397.52a1.16,1.16,0,1,1,1.17-1.15A1.16,1.16,0,0,1,201,397.52Z"/><path class="cls-2" d="M231.62,378.25a1.08,1.08,0,1,1,1.08-1.06A1.07,1.07,0,0,1,231.62,378.25Z"/><path class="cls-2" d="M262.73,357.11a1,1,0,1,1,1-1A1,1,0,0,1,262.73,357.11Z"/><path class="cls-2" d="M293.4,334.27a1,1,0,1,1,1-1A1,1,0,0,1,293.4,334.27Z"/><path class="cls-2" d="M322.81,310.05a.84.84,0,1,1,0-1.67.84.84,0,0,1,0,1.67Z"/><path class="cls-2" d="M350.33,285.15a.79.79,0,0,1-.79-.8.8.8,0,0,1,.81-.79.79.79,0,0,1,.79.8A.8.8,0,0,1,350.33,285.15Z"/><path class="cls-2" d="M375.57,260a.72.72,0,1,1,.72-.71A.7.7,0,0,1,375.57,260Z"/><path class="cls-2" d="M398.33,235.31a.65.65,0,0,1-.65-.65.66.66,0,0,1,1.31,0A.65.65,0,0,1,398.33,235.31Z"/><path class="cls-2" d="M418.64,211.4a.55.55,0,0,1-.55-.56.56.56,0,1,1,1.11,0A.56.56,0,0,1,418.64,211.4Z"/><path class="cls-2" d="M437.62,187.72a.48.48,0,0,1-.49-.49.49.49,0,0,1,.49-.49.48.48,0,0,1,.49.49A.48.48,0,0,1,437.62,187.72Z"/><path class="cls-2" d="M456.46,163.17a.44.44,0,0,1-.43-.44.43.43,0,1,1,.43.44Z"/><path class="cls-2" d="M475.33,137.42A.39.39,0,0,1,475,137a.38.38,0,0,1,.38-.38.38.38,0,0,1,.38.39A.38.38,0,0,1,475.33,137.42Z"/><path class="cls-2" d="M155.49,431.26a1.35,1.35,0,0,1-1.33-1.35,1.34,1.34,0,0,1,2.68,0A1.35,1.35,0,0,1,155.49,431.26Z"/><path class="cls-2" d="M184.3,415.43a1.28,1.28,0,0,1,0-2.56,1.29,1.29,0,0,1,1.27,1.29A1.28,1.28,0,0,1,184.3,415.43Z"/><path class="cls-2" d="M215.07,397.75a1.16,1.16,0,1,1,1.17-1.15A1.15,1.15,0,0,1,215.07,397.75Z"/><path class="cls-2" d="M246.83,378.2a1.12,1.12,0,1,1,1.12-1.11A1.12,1.12,0,0,1,246.83,378.2Z"/><path class="cls-2" d="M278.59,356.72a1,1,0,1,1,1-1A1,1,0,0,1,278.59,356.72Z"/><path class="cls-2" d="M309.49,333.64a1,1,0,1,1,1-.95A1,1,0,0,1,309.49,333.64Z"/><path class="cls-2" d="M338.83,309.33a.84.84,0,1,1,0-1.67.84.84,0,1,1,0,1.67Z"/><path class="cls-2" d="M366.1,284.47a.8.8,0,1,1,.8-.79A.79.79,0,0,1,366.1,284.47Z"/><path class="cls-2" d="M391,259.48a.72.72,0,1,1,0-1.44.72.72,0,0,1,0,1.44Z"/><path class="cls-2" d="M413.54,234.88a.63.63,0,0,1-.64-.65.65.65,0,0,1,.65-.65.66.66,0,0,1,.65.66A.64.64,0,0,1,413.54,234.88Z"/><path class="cls-2" d="M433.79,211a.56.56,0,0,1-.56-.56.56.56,0,1,1,1.12,0A.56.56,0,0,1,433.79,211Z"/><path class="cls-2" d="M452.86,187.18a.52.52,0,0,1-.51-.52.51.51,0,0,1,.52-.51.52.52,0,0,1,.51.52A.53.53,0,0,1,452.86,187.18Z"/><path class="cls-2" d="M471.85,162.37a.43.43,0,1,1,0-.86.43.43,0,0,1,0,.86Z"/><path class="cls-2" d="M169.68,431.41a1.33,1.33,0,0,1-1.33-1.34,1.34,1.34,0,1,1,2.67,0A1.32,1.32,0,0,1,169.68,431.41Z"/><path class="cls-2" d="M200.06,415.33a1.28,1.28,0,1,1,1.29-1.27A1.3,1.3,0,0,1,200.06,415.33Z"/><path class="cls-2" d="M231.9,397.29a1.15,1.15,0,0,1-1.15-1.17,1.16,1.16,0,1,1,1.15,1.17Z"/><path class="cls-2" d="M264.23,377.38a1.12,1.12,0,1,1,1.12-1.11A1.11,1.11,0,0,1,264.23,377.38Z"/><path class="cls-2" d="M296.13,355.62a1,1,0,1,1,1-1A1,1,0,0,1,296.13,355.62Z"/><path class="cls-2" d="M326.84,332.39a1,1,0,0,1-1-1,1,1,0,0,1,1-1,1,1,0,1,1,0,1.94Z"/><path class="cls-2" d="M355.76,308.13a.89.89,0,1,1,.89-.88A.89.89,0,0,1,355.76,308.13Z"/><path class="cls-2" d="M382.51,283.35a.79.79,0,0,1-.79-.8.8.8,0,0,1,.81-.79.79.79,0,0,1,.79.8A.81.81,0,0,1,382.51,283.35Z"/><path class="cls-2" d="M407,258.58a.74.74,0,0,1,0-1.47.74.74,0,0,1,.73.74A.73.73,0,0,1,407,258.58Z"/><path class="cls-2" d="M429.12,234.18a.69.69,0,1,1,.69-.68A.69.69,0,0,1,429.12,234.18Z"/><path class="cls-2" d="M449.25,210.29a.59.59,0,0,1-.57-.59.57.57,0,0,1,.58-.57.58.58,0,0,1,.58.58A.6.6,0,0,1,449.25,210.29Z"/><path class="cls-2" d="M468.4,186.31a.52.52,0,0,1,0-1,.52.52,0,1,1,0,1Z"/><path class="cls-2" d="M487.51,161.3a.46.46,0,0,1-.45-.46.46.46,0,0,1,.91,0A.46.46,0,0,1,487.51,161.3Z"/><path class="cls-2" d="M187.12,431.17a1.34,1.34,0,0,1,0-2.67,1.34,1.34,0,1,1,0,2.67Z"/><path class="cls-2" d="M218.55,414.7a1.28,1.28,0,1,1,1.29-1.27A1.28,1.28,0,0,1,218.55,414.7Z"/><path class="cls-2" d="M250.94,396.26a1.19,1.19,0,1,1,1.2-1.18A1.19,1.19,0,0,1,250.94,396.26Z"/><path class="cls-2" d="M283.37,375.94a1.12,1.12,0,1,1,1.12-1.11A1.11,1.11,0,0,1,283.37,375.94Z"/><path class="cls-2" d="M315,354a1.07,1.07,0,1,1,1.07-1.06A1.06,1.06,0,0,1,315,354Z"/><path class="cls-2" d="M345.16,330.61a1,1,0,0,1-1-1,1,1,0,1,1,1,1Z"/><path class="cls-2" d="M373.41,306.42a.89.89,0,0,1-.89-.89.89.89,0,1,1,1.78,0A.88.88,0,0,1,373.41,306.42Z"/><path class="cls-2" d="M399.47,281.85a.81.81,0,0,1-.79-.81.79.79,0,0,1,.8-.79.8.8,0,0,1,.79.81A.79.79,0,0,1,399.47,281.85Z"/><path class="cls-2" d="M423.32,257.34a.76.76,0,1,1,.76-.75A.74.74,0,0,1,423.32,257.34Z"/><path class="cls-2" d="M445.1,233.09a.68.68,0,0,1,0-1.36.68.68,0,1,1,0,1.36Z"/><path class="cls-2" d="M465.12,209.19a.58.58,0,0,1-.58-.58.6.6,0,0,1,.59-.58.58.58,0,0,1,.57.59A.57.57,0,0,1,465.12,209.19Z"/><path class="cls-2" d="M484.35,185a.51.51,0,1,1,.52-.51A.51.51,0,0,1,484.35,185Z"/><path class="cls-2" d="M503.59,159.72a.46.46,0,0,1,0-.91.45.45,0,0,1,.45.46A.46.46,0,0,1,503.59,159.72Z"/><path class="cls-2" d="M207.25,430.54a1.34,1.34,0,1,1,0-2.68,1.34,1.34,0,0,1,0,2.68Z"/><path class="cls-2" d="M239.25,413.56a1.28,1.28,0,1,1,1.29-1.27A1.29,1.29,0,0,1,239.25,413.56Z"/><circle class="cls-2" cx="271.76" cy="393.45" r="1.23"/><path class="cls-2" d="M303.87,373.93a1.12,1.12,0,0,1,0-2.23,1.12,1.12,0,1,1,0,2.23Z"/><path class="cls-2" d="M334.9,351.73a1.07,1.07,0,1,1,1.08-1.06A1.08,1.08,0,0,1,334.9,351.73Z"/><path class="cls-2" d="M364.28,328.4a1,1,0,0,1-1-1,1,1,0,1,1,1,1Z"/><path class="cls-2" d="M391.68,304.29a.89.89,0,1,1,.89-.88A.88.88,0,0,1,391.68,304.29Z"/><path class="cls-2" d="M417,280a.81.81,0,0,1-.82-.83.83.83,0,0,1,.83-.82.84.84,0,0,1,.82.84A.82.82,0,0,1,417,280Z"/><path class="cls-2" d="M440.19,255.68a.76.76,0,1,1,0-1.52.76.76,0,0,1,0,1.52Z"/><path class="cls-2" d="M461.6,231.55a.68.68,0,1,1,.68-.67A.67.67,0,0,1,461.6,231.55Z"/><path class="cls-2" d="M481.54,207.58a.6.6,0,1,1,.61-.6A.6.6,0,0,1,481.54,207.58Z"/><path class="cls-2" d="M500.91,183.11a.55.55,0,0,1-.54-.55.54.54,0,1,1,.54.55Z"/><path class="cls-2" d="M229.54,429.53a1.4,1.4,0,1,1,1.41-1.39A1.4,1.4,0,0,1,229.54,429.53Z"/><path class="cls-2" d="M261.7,412a1.33,1.33,0,1,1,1.34-1.32A1.33,1.33,0,0,1,261.7,412Z"/><path class="cls-2" d="M293.94,392.5a1.22,1.22,0,0,1-1.22-1.23,1.23,1.23,0,1,1,2.45,0A1.21,1.21,0,0,1,293.94,392.5Z"/><path class="cls-2" d="M325.46,371.45a1.18,1.18,0,0,1,0-2.35,1.18,1.18,0,0,1,0,2.35Z"/><path class="cls-2" d="M355.65,349a1.07,1.07,0,1,1,1.08-1.06A1.08,1.08,0,0,1,355.65,349Z"/><path class="cls-2" d="M384.09,325.68a1,1,0,1,1,0-2,1,1,0,0,1,1,1A1,1,0,0,1,384.09,325.68Z"/><path class="cls-2" d="M410.56,301.75a.92.92,0,1,1,.92-.91A.92.92,0,0,1,410.56,301.75Z"/><path class="cls-2" d="M435,277.61a.83.83,0,0,1-.83-.83.84.84,0,0,1,1.67,0A.83.83,0,0,1,435,277.61Z"/><path class="cls-2" d="M457.69,253.48a.77.77,0,0,1-.76-.76.77.77,0,0,1,.77-.76.77.77,0,0,1,.75.77A.75.75,0,0,1,457.69,253.48Z"/><path class="cls-2" d="M478.79,229.4a.71.71,0,1,1,.72-.7A.71.71,0,0,1,478.79,229.4Z"/><path class="cls-2" d="M498.75,205.17a.6.6,0,0,1-.59-.61.6.6,0,0,1,.6-.6.61.61,0,0,1,.6.61A.6.6,0,0,1,498.75,205.17Z"/><path class="cls-2" d="M518.32,180.24a.55.55,0,0,1-.54-.54.54.54,0,1,1,.54.54Z"/><path class="cls-2" d="M253.54,428a1.39,1.39,0,0,1-1.39-1.41,1.4,1.4,0,1,1,1.39,1.41Z"/><path class="cls-2" d="M285.53,409.77a1.35,1.35,0,1,1,1.36-1.34A1.35,1.35,0,0,1,285.53,409.77Z"/><path class="cls-2" d="M317.22,389.78a1.22,1.22,0,0,1-1.22-1.23,1.23,1.23,0,1,1,2.45,0A1.22,1.22,0,0,1,317.22,389.78Z"/><path class="cls-2" d="M347.91,368.38a1.17,1.17,0,0,1-1.16-1.18,1.16,1.16,0,0,1,1.18-1.16,1.17,1.17,0,1,1,0,2.34Z"/><path class="cls-2" d="M377.13,345.82a1.11,1.11,0,1,1,0-2.21,1.12,1.12,0,0,1,1.1,1.12A1.1,1.1,0,0,1,377.13,345.82Z"/><path class="cls-2" d="M404.56,322.47a1,1,0,0,1-1-1,1,1,0,0,1,1-1,1,1,0,0,1,1,1A1,1,0,0,1,404.56,322.47Z"/><path class="cls-2" d="M430.11,298.65a.92.92,0,1,1,0-1.84.92.92,0,0,1,0,1.84Z"/><path class="cls-2" d="M453.86,274.66a.85.85,0,1,1,.85-.84A.85.85,0,0,1,453.86,274.66Z"/><path class="cls-2" d="M476,250.58a.8.8,0,1,1,.8-.79A.79.79,0,0,1,476,250.58Z"/><path class="cls-2" d="M497,226.31a.71.71,0,0,1-.7-.72.7.7,0,0,1,.71-.7.71.71,0,1,1,0,1.42Z"/><path class="cls-2" d="M517.05,201.64a.61.61,0,0,1-.61-.61.61.61,0,0,1,1.22,0A.62.62,0,0,1,517.05,201.64Z"/><path class="cls-2" d="M536.89,176.05a.55.55,0,0,1-.55-.56.56.56,0,0,1,.56-.56.57.57,0,0,1,.56.57A.56.56,0,0,1,536.89,176.05Z"/><path class="cls-2" d="M278.88,425.86a1.41,1.41,0,1,1,1.42-1.4A1.41,1.41,0,0,1,278.88,425.86Z"/><path class="cls-2" d="M310.43,407a1.35,1.35,0,1,1,1.36-1.34A1.34,1.34,0,0,1,310.43,407Z"/><path class="cls-2" d="M341.36,386.5a1.23,1.23,0,0,1,0-2.45,1.23,1.23,0,1,1,0,2.45Z"/><path class="cls-2" d="M371.11,364.77a1.17,1.17,0,1,1,1.18-1.16A1.16,1.16,0,0,1,371.11,364.77Z"/><path class="cls-2" d="M399.3,342.05a1.1,1.1,0,1,1,1.11-1.09A1.09,1.09,0,0,1,399.3,342.05Z"/><path class="cls-2" d="M425.76,318.67a1,1,0,0,1,0-2,1,1,0,0,1,0,2Z"/><path class="cls-2" d="M450.49,294.88a.92.92,0,1,1,.92-.91A.92.92,0,0,1,450.49,294.88Z"/><path class="cls-2" d="M473.65,270.89a.88.88,0,0,1,0-1.75.88.88,0,1,1,0,1.75Z"/><path class="cls-2" d="M495.51,246.61a.79.79,0,0,1-.79-.8.79.79,0,0,1,1.58,0A.79.79,0,0,1,495.51,246.61Z"/><path class="cls-2" d="M516.42,222a.74.74,0,0,1-.73-.74.74.74,0,1,1,1.47,0A.74.74,0,0,1,516.42,222Z"/><path class="cls-2" d="M536.76,196.57a.63.63,0,1,1,.63-.62A.63.63,0,0,1,536.76,196.57Z"/><path class="cls-2" d="M305.24,423.14a1.41,1.41,0,1,1,1.42-1.4A1.41,1.41,0,0,1,305.24,423.14Z"/><path class="cls-2" d="M336.17,403.62a1.35,1.35,0,1,1,1.36-1.34A1.34,1.34,0,0,1,336.17,403.62Z"/><path class="cls-2" d="M366.24,382.62a1.21,1.21,0,0,1-1.22-1.23,1.23,1.23,0,1,1,1.22,1.23Z"/><path class="cls-2" d="M395,360.57a1.18,1.18,0,1,1,0-2.36,1.18,1.18,0,0,1,0,2.36Z"/><path class="cls-2" d="M422.22,337.67a1.13,1.13,0,0,1-1.12-1.14,1.13,1.13,0,1,1,1.12,1.14Z"/><path class="cls-2" d="M447.82,314.18a1.06,1.06,0,0,1-1.05-1.07,1.06,1.06,0,1,1,2.12,0A1.06,1.06,0,0,1,447.82,314.18Z"/><path class="cls-2" d="M471.9,290.23a.93.93,0,0,1-.94-1,1,1,0,0,1,1-.95,1,1,0,0,1,.95,1A.94.94,0,0,1,471.9,290.23Z"/><path class="cls-2" d="M494.67,266a.89.89,0,0,1-.87-.89.88.88,0,0,1,1.75,0A.88.88,0,0,1,494.67,266Z"/><path class="cls-2" d="M516.43,241.21a.79.79,0,0,1,0-1.58.79.79,0,1,1,0,1.58Z"/><path class="cls-2" d="M537.52,215.81a.72.72,0,0,1-.73-.74.74.74,0,1,1,1.47,0A.72.72,0,0,1,537.52,215.81Z"/><path class="cls-2" d="M558.24,189.34a.63.63,0,1,1,.64-.62A.63.63,0,0,1,558.24,189.34Z"/><path class="cls-2" d="M301.67,438.48a1.48,1.48,0,1,1,1.49-1.47A1.48,1.48,0,0,1,301.67,438.48Z"/><path class="cls-2" d="M332.38,419.78a1.41,1.41,0,1,1,1.42-1.4A1.41,1.41,0,0,1,332.38,419.78Z"/><path class="cls-2" d="M362.58,399.6a1.34,1.34,0,0,1-1.34-1.36,1.35,1.35,0,1,1,2.7,0A1.34,1.34,0,0,1,362.58,399.6Z"/><path class="cls-2" d="M391.76,378.16a1.29,1.29,0,1,1,1.31-1.28A1.29,1.29,0,0,1,391.76,378.16Z"/><path class="cls-2" d="M419.61,355.7a1.22,1.22,0,1,1,1.23-1.21A1.21,1.21,0,0,1,419.61,355.7Z"/><path class="cls-2" d="M446,332.47a1.13,1.13,0,1,1,1.14-1.12A1.14,1.14,0,0,1,446,332.47Z"/><path class="cls-2" d="M470.94,308.68a1.07,1.07,0,0,1-1.05-1.07,1.06,1.06,0,1,1,1.05,1.07Z"/><path class="cls-2" d="M494.61,284.35a1,1,0,1,1,1-1A1,1,0,0,1,494.61,284.35Z"/><path class="cls-2" d="M517.26,259.47a.86.86,0,0,1-.87-.88.88.88,0,1,1,1.75,0A.87.87,0,0,1,517.26,259.47Z"/><path class="cls-2" d="M539.17,233.89a.82.82,0,1,1,0-1.64.81.81,0,0,1,.81.82A.82.82,0,0,1,539.17,233.89Z"/><path class="cls-2" d="M560.62,207.27a.75.75,0,1,1,.76-.74A.74.74,0,0,1,560.62,207.27Z"/><path class="cls-2" d="M330,435.27a1.54,1.54,0,1,1,1.55-1.52A1.53,1.53,0,0,1,330,435.27Z"/><path class="cls-2" d="M360.13,415.77a1.45,1.45,0,1,1,1.46-1.44A1.45,1.45,0,0,1,360.13,415.77Z"/><path class="cls-2" d="M389.58,394.92a1.39,1.39,0,1,1,1.4-1.38A1.38,1.38,0,0,1,389.58,394.92Z"/><path class="cls-2" d="M418,372.88a1.29,1.29,0,1,1,1.3-1.28A1.28,1.28,0,0,1,418,372.88Z"/><path class="cls-2" d="M445,350a1.22,1.22,0,1,1,1.23-1.21A1.22,1.22,0,0,1,445,350Z"/><path class="cls-2" d="M470.81,326.28a1.17,1.17,0,0,1-1.16-1.18,1.17,1.17,0,0,1,2.33,0A1.17,1.17,0,0,1,470.81,326.28Z"/><circle class="cls-2" cx="495.38" cy="300.83" r="1.06" transform="translate(91.43 716.42) rotate(-77.08)"/><path class="cls-2" d="M518.93,276.81a1,1,0,1,1,1-1A1,1,0,0,1,518.93,276.81Z"/><path class="cls-2" d="M541.74,250.92a.92.92,0,1,1,.92-.91A.92.92,0,0,1,541.74,250.92Z"/><path class="cls-2" d="M564.05,223.9a.83.83,0,0,1-.82-.83.82.82,0,0,1,.83-.81.81.81,0,0,1,.81.82A.82.82,0,0,1,564.05,223.9Z"/><path class="cls-2" d="M358.79,431.28a1.54,1.54,0,1,1,1.55-1.53A1.54,1.54,0,0,1,358.79,431.28Z"/><path class="cls-2" d="M388.38,411a1.47,1.47,0,0,1-1.47-1.48,1.48,1.48,0,1,1,2.95,0A1.47,1.47,0,0,1,388.38,411Z"/><circle class="cls-2" cx="417.16" cy="388.02" r="1.4" transform="translate(-90.79 130) rotate(-16)"/><path class="cls-2" d="M444.86,366.72a1.3,1.3,0,1,1,1.3-1.28A1.29,1.29,0,0,1,444.86,366.72Z"/><path class="cls-2" d="M471.41,343.12a1.22,1.22,0,1,1,1.23-1.2A1.22,1.22,0,0,1,471.41,343.12Z"/><path class="cls-2" d="M496.86,318.7a1.15,1.15,0,0,1-1.15-1.17,1.17,1.17,0,1,1,1.15,1.17Z"/><path class="cls-2" d="M521.37,293.42a1.12,1.12,0,0,1-1.1-1.13,1.12,1.12,0,0,1,2.23,0A1.12,1.12,0,0,1,521.37,293.42Z"/><path class="cls-2" d="M545.15,267a1,1,0,1,1,1-1A1,1,0,0,1,545.15,267Z"/><path class="cls-2" d="M568.46,239.46a.92.92,0,1,1,0-1.83.92.92,0,1,1,0,1.83Z"/><path class="cls-2" d="M591.43,210.3a.86.86,0,1,1,0-1.71.87.87,0,0,1,.85.87A.84.84,0,0,1,591.43,210.3Z"/><path class="cls-2" d="M388,426.51a1.54,1.54,0,1,1,1.55-1.53A1.53,1.53,0,0,1,388,426.51Z"/><path class="cls-2" d="M417.08,405.37a1.47,1.47,0,1,1,1.48-1.46A1.46,1.46,0,0,1,417.08,405.37Z"/><circle class="cls-2" cx="445.33" cy="381.59" r="1.4"/><path class="cls-2" d="M472.61,359.46a1.3,1.3,0,1,1,1.3-1.28A1.3,1.3,0,0,1,472.61,359.46Z"/><path class="cls-2" d="M498.93,335a1.24,1.24,0,1,1,1.25-1.23A1.25,1.25,0,0,1,498.93,335Z"/><path class="cls-2" d="M524.41,309.35a1.17,1.17,0,1,1,1.17-1.15A1.16,1.16,0,0,1,524.41,309.35Z"/><path class="cls-2" d="M549.25,282.55a1.12,1.12,0,1,1,1.12-1.11A1.12,1.12,0,0,1,549.25,282.55Z"/><path class="cls-2" d="M573.58,254.26a1,1,0,1,1,1-1A1,1,0,0,1,573.58,254.26Z"/><path class="cls-2" d="M597.4,224.39a.91.91,0,1,1,.92-.9A.9.9,0,0,1,597.4,224.39Z"/><path class="cls-2" d="M417.56,420.91a1.54,1.54,0,1,1,1.55-1.53A1.53,1.53,0,0,1,417.56,420.91Z"/><path class="cls-2" d="M446.25,398.83a1.48,1.48,0,1,1,1.49-1.47A1.47,1.47,0,0,1,446.25,398.83Z"/><path class="cls-2" d="M474.19,375.48a1.43,1.43,0,1,1,1.43-1.41A1.42,1.42,0,0,1,474.19,375.48Z"/><path class="cls-2" d="M501.35,350.86a1.34,1.34,0,1,1,1.34-1.32A1.33,1.33,0,0,1,501.35,350.86Z"/><path class="cls-2" d="M527.83,325a1.27,1.27,0,0,1-1.27-1.29,1.28,1.28,0,0,1,1.29-1.28,1.3,1.3,0,0,1,1.28,1.3A1.28,1.28,0,0,1,527.83,325Z"/><path class="cls-2" d="M553.72,297.6a1.16,1.16,0,0,1-1.16-1.18,1.17,1.17,0,1,1,1.16,1.18Z"/><path class="cls-2" d="M579,268.78a1.12,1.12,0,1,1,1.13-1.11A1.13,1.13,0,0,1,579,268.78Z"/><path class="cls-2" d="M603.59,238.28a1,1,0,0,1-1-1,1,1,0,1,1,1,1Z"/><path class="cls-2" d="M418.44,436.16a1.63,1.63,0,1,1,1.63-1.61A1.63,1.63,0,0,1,418.44,436.16Z"/><path class="cls-2" d="M447.44,414.38a1.54,1.54,0,1,1,1.54-1.52A1.54,1.54,0,0,1,447.44,414.38Z"/><path class="cls-2" d="M475.94,391.2a1.48,1.48,0,1,1,1.5-1.47A1.48,1.48,0,0,1,475.94,391.2Z"/><path class="cls-2" d="M503.94,366.6a1.48,1.48,0,0,1-1.46-1.48,1.46,1.46,0,0,1,1.48-1.45,1.45,1.45,0,0,1,1.45,1.47A1.46,1.46,0,0,1,503.94,366.6Z"/><path class="cls-2" d="M531.4,340.35a1.34,1.34,0,1,1,1.36-1.33A1.34,1.34,0,0,1,531.4,340.35Z"/><path class="cls-2" d="M558.22,312.64a1.29,1.29,0,0,1-1.27-1.3,1.29,1.29,0,0,1,2.57,0A1.3,1.3,0,0,1,558.22,312.64Z"/><path class="cls-2" d="M584.33,283.31a1.21,1.21,0,0,1,0-2.42,1.22,1.22,0,0,1,1.2,1.22A1.21,1.21,0,0,1,584.33,283.31Z"/><path class="cls-2" d="M609.64,252.34a1.16,1.16,0,1,1,1.17-1.15A1.16,1.16,0,0,1,609.64,252.34Z"/><path class="cls-2" d="M448.73,429.79a1.63,1.63,0,1,1,1.64-1.61A1.63,1.63,0,0,1,448.73,429.79Z"/><path class="cls-2" d="M477.78,406.84a1.6,1.6,0,0,1-1.6-1.62,1.62,1.62,0,1,1,1.6,1.62Z"/><path class="cls-2" d="M506.59,382.13a1.53,1.53,0,1,1,1.54-1.52A1.53,1.53,0,0,1,506.59,382.13Z"/><path class="cls-2" d="M534.9,355.78a1.46,1.46,0,1,1,0-2.92,1.46,1.46,0,1,1,0,2.92Z"/><path class="cls-2" d="M562.52,327.74a1.34,1.34,0,1,1,1.36-1.33A1.35,1.35,0,0,1,562.52,327.74Z"/><path class="cls-2" d="M589.36,298.09a1.27,1.27,0,0,1-1.27-1.29,1.28,1.28,0,0,1,1.29-1.28,1.3,1.3,0,0,1,1.28,1.3A1.28,1.28,0,0,1,589.36,298.09Z"/><path class="cls-2" d="M615.31,266.72a1.22,1.22,0,1,1,1.22-1.21A1.22,1.22,0,0,1,615.31,266.72Z"/><path class="cls-2" d="M479.78,422.16a1.62,1.62,0,1,1,1.64-1.61A1.62,1.62,0,0,1,479.78,422.16Z"/><path class="cls-2" d="M509.24,397.6a1.62,1.62,0,1,1,1.62-1.6A1.61,1.61,0,0,1,509.24,397.6Z"/><path class="cls-2" d="M538.22,371.2a1.53,1.53,0,1,1,1.54-1.51A1.52,1.52,0,0,1,538.22,371.2Z"/><path class="cls-2" d="M566.52,343.11a1.48,1.48,0,1,1,1.48-1.46A1.47,1.47,0,0,1,566.52,343.11Z"/><path class="cls-2" d="M594,313.21a1.34,1.34,0,1,1,1.35-1.33A1.33,1.33,0,0,1,594,313.21Z"/><path class="cls-2" d="M620.48,281.63a1.28,1.28,0,0,1-1.28-1.29,1.3,1.3,0,0,1,1.3-1.28,1.28,1.28,0,0,1,1.27,1.3A1.27,1.27,0,0,1,620.48,281.63Z"/><path class="cls-2" d="M645.9,248.26a1.24,1.24,0,1,1,1.25-1.22A1.24,1.24,0,0,1,645.9,248.26Z"/><path class="cls-2" d="M482.05,437.36a1.74,1.74,0,1,1,1.75-1.72A1.74,1.74,0,0,1,482.05,437.36Z"/><path class="cls-2" d="M512,412.93a1.68,1.68,0,1,1,1.69-1.67A1.68,1.68,0,0,1,512,412.93Z"/><path class="cls-2" d="M541.44,386.65a1.62,1.62,0,1,1,1.62-1.6A1.62,1.62,0,0,1,541.44,386.65Z"/><path class="cls-2" d="M570.25,358.56a1.54,1.54,0,1,1,1.54-1.52A1.52,1.52,0,0,1,570.25,358.56Z"/><path class="cls-2" d="M598.19,328.72a1.47,1.47,0,1,1,1.48-1.46A1.47,1.47,0,0,1,598.19,328.72Z"/><path class="cls-2" d="M625.13,297.11a1.42,1.42,0,1,1,1.42-1.4A1.41,1.41,0,0,1,625.13,297.11Z"/><path class="cls-2" d="M650.94,263.67a1.33,1.33,0,1,1,0-2.66,1.33,1.33,0,0,1,0,2.66Z"/><path class="cls-2" d="M514.92,428a1.75,1.75,0,1,1,1.77-1.74A1.75,1.75,0,0,1,514.92,428Z"/><path class="cls-2" d="M544.72,402a1.69,1.69,0,1,1,1.69-1.67A1.69,1.69,0,0,1,544.72,402Z"/><path class="cls-2" d="M573.86,374.05a1.62,1.62,0,1,1,1.63-1.6A1.61,1.61,0,0,1,573.86,374.05Z"/><path class="cls-2" d="M602.13,344.37a1.56,1.56,0,1,1,1.57-1.55A1.55,1.55,0,0,1,602.13,344.37Z"/><path class="cls-2" d="M629.37,312.88a1.48,1.48,0,1,1,1.49-1.46A1.48,1.48,0,0,1,629.37,312.88Z"/><path class="cls-2" d="M655.46,279.63a1.41,1.41,0,1,1,1.42-1.4A1.4,1.4,0,0,1,655.46,279.63Z"/><path class="cls-2" d="M548.33,417a1.75,1.75,0,1,1,1.76-1.73A1.74,1.74,0,0,1,548.33,417Z"/><path class="cls-2" d="M577.61,389.36a1.68,1.68,0,1,1,1.7-1.67A1.68,1.68,0,0,1,577.61,389.36Z"/><path class="cls-2" d="M606,360a1.63,1.63,0,1,1,1.63-1.61A1.64,1.64,0,0,1,606,360Z"/><path class="cls-2" d="M633.42,328.8a1.56,1.56,0,1,1,1.57-1.54A1.56,1.56,0,0,1,633.42,328.8Z"/><path class="cls-2" d="M659.64,295.94a1.53,1.53,0,1,1,1.54-1.51A1.51,1.51,0,0,1,659.64,295.94Z"/><path class="cls-2" d="M552.61,431.48a1.75,1.75,0,1,1,1.76-1.74A1.75,1.75,0,0,1,552.61,431.48Z"/><path class="cls-2" d="M581.82,404.28a1.75,1.75,0,1,1,1.76-1.74A1.76,1.76,0,0,1,581.82,404.28Z"/><path class="cls-2" d="M610.2,375.25a1.68,1.68,0,1,1,1.69-1.67A1.68,1.68,0,0,1,610.2,375.25Z"/><path class="cls-2" d="M637.55,344.55a1.63,1.63,0,1,1,1.64-1.61A1.63,1.63,0,0,1,637.55,344.55Z"/><path class="cls-2" d="M663.75,312.22a1.61,1.61,0,1,1,1.61-1.59A1.61,1.61,0,0,1,663.75,312.22Z"/><path class="cls-2" d="M688.67,278.17a1.53,1.53,0,1,1,1.54-1.52A1.53,1.53,0,0,1,688.67,278.17Z"/><path class="cls-2" d="M586.8,418.52a1.75,1.75,0,1,1,1.77-1.73A1.74,1.74,0,0,1,586.8,418.52Z"/><path class="cls-2" d="M615,390a1.75,1.75,0,1,1,1.76-1.73A1.75,1.75,0,0,1,615,390Z"/><path class="cls-2" d="M642.1,359.83a1.69,1.69,0,1,1,1.69-1.67A1.69,1.69,0,0,1,642.1,359.83Z"/><path class="cls-2" d="M668.08,328.14a1.67,1.67,0,1,1,1.69-1.66A1.66,1.66,0,0,1,668.08,328.14Z"/><path class="cls-2" d="M692.83,294.86a1.62,1.62,0,0,1,0-3.23,1.62,1.62,0,1,1,0,3.23Z"/><path class="cls-2" d="M592.86,432a1.75,1.75,0,1,1,1.77-1.73A1.74,1.74,0,0,1,592.86,432Z"/><path class="cls-2" d="M620.62,403.93a1.75,1.75,0,1,1,1.76-1.73A1.73,1.73,0,0,1,620.62,403.93Z"/><path class="cls-2" d="M647.38,374.37a1.75,1.75,0,1,1,1.76-1.73A1.75,1.75,0,0,1,647.38,374.37Z"/><path class="cls-2" d="M673,343.39a1.75,1.75,0,1,1,1.76-1.74A1.75,1.75,0,0,1,673,343.39Z"/></g><path class="cls-2" d="M81.15,499h0a.16.16,0,0,1-.09-.12.19.19,0,0,1,0-.15l54.71-69a.19.19,0,0,1,.31,0l34.79,59.46a.19.19,0,0,1,0,.18.17.17,0,0,1-.14.1l-89.5,9.54A.12.12,0,0,1,81.15,499Zm54.79-68.82L81.67,498.63l88.77-9.46Z"/><path class="cls-2" d="M-7.34,415.53a.15.15,0,0,1-.08-.11.18.18,0,0,1,.08-.2L97.73,345a.18.18,0,0,1,.16,0,.19.19,0,0,1,.12.1l38.12,84.72a.19.19,0,0,1,0,.19.18.18,0,0,1-.17.07L-7.26,415.56A.13.13,0,0,1-7.34,415.53Zm105.1-70.1L-6.7,415.24l142.36,14.41Z"/><path class="cls-2" d="M-38.26,331.31a.16.16,0,0,1-.07-.09.17.17,0,0,1,0-.2l65.39-62.64a.18.18,0,0,1,.27,0L98,345a.17.17,0,0,1,0,.21.19.19,0,0,1-.18.11l-136-14Zm65.5-62.53-65,62.23,135.09,13.9Z"/><path class="cls-2" d="M170.65,489.48a.09.09,0,0,1-.06-.06h0a.18.18,0,0,1,0-.21L224.26,421a.19.19,0,0,1,.15-.08.21.21,0,0,1,.15.09l64.26,96.64a.18.18,0,0,1-.2.28L170.7,489.51Zm53.74-68.07-53.32,67.8,117.17,28.23Z"/><path class="cls-2" d="M135.86,430a.16.16,0,0,1-.07-.07.2.2,0,0,1,0-.21L183,376.91a.17.17,0,0,1,.14-.06.16.16,0,0,1,.13.06l41.24,44a.19.19,0,0,1,0,.2.17.17,0,0,1-.15.12L136,430.05A.13.13,0,0,1,135.86,430Zm47.31-52.7-46.75,52.31L224,420.94Z"/><path class="cls-2" d="M170.65,489.48a.12.12,0,0,1-.06-.06L135.8,430a.19.19,0,0,1,0-.18.2.2,0,0,1,.15-.1l88.45-8.77a.18.18,0,0,1,.18.09.18.18,0,0,1,0,.21l-53.66,68.23a.18.18,0,0,1-.16.07A.11.11,0,0,1,170.65,489.48ZM136.27,430l34.5,59L224,421.32Z"/><path class="cls-2" d="M97.74,345.31h0a.19.19,0,0,1-.09-.15.2.2,0,0,1,.07-.16l32-24.64a.18.18,0,0,1,.25,0l53.35,56.54a.18.18,0,0,1,0,.23.17.17,0,0,1-.22.07L97.77,345.33Zm32.06-24.56L98.22,345.09l84.26,31.49Z"/><path class="cls-2" d="M135.86,430a.19.19,0,0,1-.07-.08L97.67,345.23a.18.18,0,0,1,0-.22.19.19,0,0,1,.2,0l85.32,31.88a.19.19,0,0,1,.12.13.2.2,0,0,1,0,.17L136.1,430a.18.18,0,0,1-.17.06A.11.11,0,0,1,135.86,430ZM98.19,345.48l37.82,84,46.84-52.41Z"/><path class="cls-2" d="M27.14,268.67a.19.19,0,0,1-.07-.22.19.19,0,0,1,.22-.12l74.51,17.4a.26.26,0,0,1,.11.07L130,320.38a.19.19,0,0,1-.23.29l-102.57-52Zm74.52,17.41-72.94-17,100.4,50.89Z"/><path class="cls-2" d="M97.74,345.31l0,0L27.11,268.64a.18.18,0,0,1,0-.24.2.2,0,0,1,.24-.06l102.57,52a.15.15,0,0,1,.1.15.17.17,0,0,1-.07.16L98,345.3A.18.18,0,0,1,97.74,345.31ZM28.09,269.15,97.86,344.9l31.61-24.36Z"/><path class="cls-2" d="M288.56,517.89a.14.14,0,0,1-.06-.07.18.18,0,0,1,0-.21L375,413.93a.21.21,0,0,1,.14-.07.25.25,0,0,1,.14.06L452,496.18a.18.18,0,0,1-.11.31L288.69,517.92A.28.28,0,0,1,288.56,517.89Zm86.63-103.55L289.11,517.49l162.38-21.32Z"/><path class="cls-2" d="M224.31,421.25a.15.15,0,0,1-.08-.11.18.18,0,0,1,.08-.21l75.46-44a.17.17,0,0,1,.17,0l75.33,36.91a.22.22,0,0,1,.1.21.19.19,0,0,1-.18.15l-150.77,7A.2.2,0,0,1,224.31,421.25Zm75.56-43.9-74.71,43.52,149.28-7Z"/><path class="cls-2" d="M288.56,517.89l-.05,0L224.25,421.2a.19.19,0,0,1,0-.19.21.21,0,0,1,.16-.11l150.77-7a.19.19,0,0,1,.18.11.18.18,0,0,1,0,.2L288.81,517.85a.2.2,0,0,1-.16.07Zm-63.81-96.63,63.93,96.16,86.09-103.16Z"/><path class="cls-2" d="M183.07,377.2a.18.18,0,0,1-.08-.11.18.18,0,0,1,.07-.21l69.68-46.37a.18.18,0,0,1,.23,0L300,377a.19.19,0,0,1,0,.21.17.17,0,0,1-.17.11l-116.69-.09A.17.17,0,0,1,183.07,377.2Zm69.75-46.29-69,45.94,115.61.1Z"/><path class="cls-2" d="M224.31,421.25l0,0L183,377.17a.2.2,0,0,1,0-.21.19.19,0,0,1,.17-.11l116.69.1a.18.18,0,0,1,.18.14.2.2,0,0,1-.08.21L224.5,421.25A.17.17,0,0,1,224.31,421.25Zm-40.71-44,40.84,43.63,74.73-43.54Z"/><path class="cls-2" d="M129.72,320.66a.14.14,0,0,1-.07-.08.17.17,0,0,1,0-.18l60.24-88.35a.19.19,0,0,1,.16-.08.19.19,0,0,1,.15.09L253,330.57a.18.18,0,0,1,0,.2.19.19,0,0,1-.17.09l-123-10.17A.11.11,0,0,1,129.72,320.66Zm60.33-88.16-59.9,87.84,122.33,10.11Z"/><path class="cls-2" d="M183.07,377.2l0,0-53.35-56.54a.18.18,0,0,1,0-.21.17.17,0,0,1,.18-.1l123,10.16a.18.18,0,0,1,.16.14.19.19,0,0,1-.07.2l-69.68,46.37A.17.17,0,0,1,183.07,377.2Zm-52.78-56.47,52.91,56.06,69.09-46Z"/><path class="cls-2" d="M129.72,320.66a.1.1,0,0,1-.05,0L101.61,286a.19.19,0,0,1,0-.15.15.15,0,0,1,.08-.12L190,232a.18.18,0,0,1,.25.26L130,320.61a.18.18,0,0,1-.15.08A.19.19,0,0,1,129.72,320.66ZM102,286l27.76,34.23,59.61-87.42Z"/><path class="cls-2" d="M451.77,496.46l0,0a.17.17,0,0,1,0-.14l14.05-73.67a.2.2,0,0,1,.12-.15.17.17,0,0,1,.18,0l110.62,92.07a.17.17,0,0,1,.05.22.18.18,0,0,1-.2.11l-124.66-18.4A.13.13,0,0,1,451.77,496.46ZM466.05,423l-14,73.17,123.82,18.27Z"/><path class="cls-2" d="M375.08,414.21l-.06-.06a.23.23,0,0,1,0-.2.21.21,0,0,1,.18-.09l90.74,8.58a.19.19,0,0,1,.17.2.19.19,0,0,1-.18.18L446.3,423.9l-71.14-9.66Zm88.34,8.37-79.14-7.48,62,8.43Z"/><path class="cls-2" d="M451.77,496.46l0,0-76.69-82.25a.2.2,0,0,1,0-.21.19.19,0,0,1,.16-.11l90.74,8.58a.22.22,0,0,1,.13.08.16.16,0,0,1,0,.15l-14.05,73.67a.2.2,0,0,1-.13.15A.22.22,0,0,1,451.77,496.46Zm-76.12-82.18,76.11,81.63L465.7,422.8Z"/><path class="cls-2" d="M299.76,377.29a.17.17,0,0,1-.08-.12.19.19,0,0,1,.06-.18L385,303.52a.18.18,0,0,1,.16,0,.21.21,0,0,1,.13.1l61.19,120.05a.2.2,0,0,1,0,.21.19.19,0,0,1-.2.06L299.8,377.31ZM385,304l-84.8,73.1L445.92,423.4Z"/><path class="cls-2" d="M299.76,377.29a.16.16,0,0,1-.07-.22.17.17,0,0,1,.23-.11l146.43,46.58a.19.19,0,0,1,.12.22.18.18,0,0,1-.21.14l-71.1-9.66-.06,0L299.78,377.3Zm144.41,45.95L302.22,378.08l73,35.79Z"/><path class="cls-2" d="M252.74,330.83a.24.24,0,0,1-.06-.08.18.18,0,0,1,0-.22l79.1-74.14a.2.2,0,0,1,.25,0l53.17,47.13a.19.19,0,0,1,0,.19.2.2,0,0,1-.14.14l-132.26,27A.22.22,0,0,1,252.74,330.83Zm79.2-74.05-78.48,73.57L384.7,303.56Z"/><path class="cls-2" d="M299.76,377.29l0,0-47-46.47a.18.18,0,0,1-.05-.18.21.21,0,0,1,.15-.14l132.25-27a.18.18,0,0,1,.21.1.19.19,0,0,1,0,.23L300,377.28A.18.18,0,0,1,299.76,377.29Zm-46.53-46.51,46.64,46.1L384.43,304Z"/><path class="cls-2" d="M252.74,330.83l-.06-.06-62.77-98.49a.19.19,0,0,1,0-.15.18.18,0,0,1,.2-.16h0L332,256.34a.22.22,0,0,1,.15.13.21.21,0,0,1-.05.2L253,330.81a.19.19,0,0,1-.15,0Zm-62.3-98.41,62.44,98,78.65-73.73Z"/><path class="cls-2" d="M465.82,422.79a.2.2,0,0,1-.08-.12.21.21,0,0,1,.05-.17.19.19,0,0,1,.16-.06l60.13.11h.07l107.46,39.71a.19.19,0,0,1,.12.23.2.2,0,0,1-.23.13L465.91,422.82Zm60.23.13-58.51-.1,163,38.73Z"/><path class="cls-2" d="M576.44,514.86h0L465.8,422.78a.24.24,0,0,1-.06-.11.21.21,0,0,1,.05-.17.17.17,0,0,1,.18-.05l167.62,39.81a.2.2,0,0,1,.14.14.16.16,0,0,1-.06.18l-57,52.26A.18.18,0,0,1,576.44,514.86ZM466.65,423l109.88,91.45,56.63-51.9Z"/><path class="cls-2" d="M446.19,423.87l-.06-.05a.19.19,0,0,1,0-.18l29.53-63.32a.19.19,0,0,1,.15-.11.19.19,0,0,1,.16.07l50.27,62.34a.2.2,0,0,1,0,.2.18.18,0,0,1-.17.1l-79.79,1A.19.19,0,0,1,446.19,423.87Zm29.67-63.12-29.27,62.78,79.1-1Z"/><path class="cls-2" d="M446.19,423.87a.17.17,0,0,1-.09-.15.19.19,0,0,1,.18-.19l19.63-1.09,60.17.11a.19.19,0,0,1,.19.19.18.18,0,0,1-.19.18l-79.78,1h0A.17.17,0,0,1,446.19,423.87Zm53.16-1-33.43-.06-10.9.6Z"/><path class="cls-2" d="M385,303.82a.2.2,0,0,1-.09-.19.21.21,0,0,1,.15-.15l70.41-16.63a.2.2,0,0,1,.23.13L476,360.35a.2.2,0,0,1-.07.2.18.18,0,0,1-.21,0L385,303.82Zm70.38-16.56-69.8,16.48L475.51,360Z"/><path class="cls-2" d="M446.19,423.88a.27.27,0,0,1-.07-.08l-61.19-120a.19.19,0,0,1,0-.22.18.18,0,0,1,.23,0l90.72,56.73h0a.19.19,0,0,1,.07.24L446.46,423.8a.19.19,0,0,1-.17.1Zm-60.62-119.7,60.71,119.11,29.3-62.82Z"/><path class="cls-2" d="M633.45,462.6a.16.16,0,0,1-.08-.1.19.19,0,0,1,0-.18l59.68-68.72a.2.2,0,0,1,.22-.05.2.2,0,0,1,.11.2l-11.18,83.31a.19.19,0,0,1-.09.14.2.2,0,0,1-.15,0l-48.5-14.6ZM693,394.32l-59.07,68,48,14.45Z"/><path class="cls-2" d="M526,422.89a.16.16,0,0,1-.07-.09.19.19,0,0,1,.07-.22l106.81-67.51a.18.18,0,0,1,.2,0h0l60.33,38.5a.17.17,0,0,1,.08.19.17.17,0,0,1-.15.15l-167.14,29A.16.16,0,0,1,526,422.89Zm106.91-67.44L527,422.39l165.73-28.77Z"/><path class="cls-2" d="M526,422.9a.19.19,0,0,1,.07-.35l167.14-29a.17.17,0,0,1,.19.09.2.2,0,0,1,0,.22l-59.67,68.72a.18.18,0,0,1-.21.05L526,422.91ZM692.73,394,526.8,422.8l106.69,39.42Z"/><path class="cls-2" d="M475.72,360.56a.2.2,0,0,1-.08-.1.18.18,0,0,1,.07-.21l80.76-55.4a.18.18,0,0,1,.21,0h0L633,355.07a.19.19,0,0,1,.08.21.17.17,0,0,1-.17.13l-157.07,5.18A.2.2,0,0,1,475.72,360.56Zm80.86-55.33-80.12,55,155.83-5.13Z"/><path class="cls-2" d="M526,422.9l0,0-50.27-62.33a.2.2,0,0,1,0-.2.21.21,0,0,1,.16-.11L632.88,355a.2.2,0,0,1,.19.13.21.21,0,0,1-.08.22L526.18,422.9A.23.23,0,0,1,526,422.9ZM476.2,360.57l49.92,61.92,106.09-67.05Z"/><path class="cls-2" d="M475.72,360.56a.18.18,0,0,1-.08-.11l-20.3-73.36a.13.13,0,0,1,0-.12.18.18,0,0,1,.21-.12l101.06,18a.19.19,0,0,1,.15.14.18.18,0,0,1-.08.2l-80.75,55.4a.21.21,0,0,1-.17,0Zm-19.94-73.29,20.15,72.83,80.16-55Z"/><path class="cls-2" d="M693.12,393.88a.12.12,0,0,1-.06-.06.2.2,0,0,1,0-.2l37-57.57a.16.16,0,0,1,.16-.08.2.2,0,0,1,.16.09l30.77,55.17a.19.19,0,0,1-.16.28l-67.72,2.4A.2.2,0,0,1,693.12,393.88Zm37-57.36-36.59,57,67.06-2.38Z"/><path class="cls-2" d="M632.79,355.38a.11.11,0,0,1-.07-.08.19.19,0,0,1,.06-.23l86.35-60.49a.15.15,0,0,1,.17,0,.18.18,0,0,1,.12.12l10.93,41.43a.14.14,0,0,1,0,.14.18.18,0,0,1-.12.09l-97.28,19.07A.17.17,0,0,1,632.79,355.38ZM719.13,295l-85.41,59.83L729.94,336Z"/><path class="cls-2" d="M693.12,393.88h0l-60.33-38.5a.16.16,0,0,1-.08-.19.19.19,0,0,1,.14-.15L730.14,336a.19.19,0,0,1,.19.29l-37,57.57A.19.19,0,0,1,693.12,393.88Zm-59.74-38.56,59.78,38.15,36.62-57.05Z"/><path class="cls-2" d="M632.79,355.38h0l-76.32-50.22-.05-.06a.19.19,0,0,1,0-.19.23.23,0,0,1,.15-.1l162.67-10.27a.21.21,0,0,1,.19.13.2.2,0,0,1-.07.21L633,355.38A.18.18,0,0,1,632.79,355.38Zm-75.64-50.23L632.89,355l85.69-60Z"/></svg>