<svg id="BACKGROUND" xmlns="http://www.w3.org/2000/svg" xmlns:xlink="http://www.w3.org/1999/xlink" viewBox="0 0 849.52 720.43"><defs><style>.cls-1{fill:none;}.cls-2{fill:#fffffa;}.cls-3{clip-path:url(#clip-path);}.cls-4{fill:#84848c;}</style><clipPath id="clip-path" transform="translate(32 89.5)"><rect class="cls-1" width="750" height="500"/></clipPath></defs><rect class="cls-2" x="32" y="89.5" width="750" height="500"/><g class="cls-3"><path class="cls-4" d="M1,465.64c8.54-5.21,19.27-1.47,26.86,3.74A50.45,50.45,0,0,1,44.74,489.7a59.29,59.29,0,0,1,4.48,14.86c.1.58,1,.34.88-.22a50,50,0,0,0-3.93-13.7,54,54,0,0,0-7.15-12c-5.62-7.11-13.42-13.16-22.32-15.44-5.37-1.37-11.21-1.15-15.9,2.06-.2.14,0,.48.2.35Z" transform="translate(32 89.5)"/><path class="cls-4" d="M-27.18,432.2a18.19,18.19,0,0,0,6.07,5.15,67.86,67.86,0,0,0,10,4.62c8.27,3.21,16.83,5.61,25.32,8.15,3.92,1.18,7.84,2.35,11.72,3.67a63.19,63.19,0,0,1,8.9,3.54A34.28,34.28,0,0,1,45,466a75.41,75.41,0,0,1,9.44,14.87c2.8,5.57,5.26,11.31,7.66,17.06,2.63,6.28,5,12.79,5.83,19.6.19,1.67.27,3.36.37,5a.44.44,0,0,0,.88,0,34.13,34.13,0,0,0-1-10.11,73.44,73.44,0,0,0-3-9.83c-2.27-6-4.88-11.89-7.59-17.69-4.76-10.21-10.68-21-20.34-27.36a37,37,0,0,0-7.64-3.52c-3.65-1.35-7.37-2.5-11.09-3.63-8.52-2.57-17.12-4.94-25.53-7.88a102.8,102.8,0,0,1-11.08-4.44,27.06,27.06,0,0,1-7.52-4.87A10.16,10.16,0,0,1-26.74,432c-.18-.26-.62,0-.44.24Z" transform="translate(32 89.5)"/><path class="cls-4" d="M.54,420.67c8.79.36,18.08,1.05,26.05,5.12a26.75,26.75,0,0,1,10.22,9c3,4.46,4.89,9.51,8.08,13.83a36.81,36.81,0,0,0,10.87,9.85c2.15,1.25,4.51,2.11,6.64,3.4a12.66,12.66,0,0,1,4.86,5.9c1.18,2.58,2.16,5.25,3.18,7.89s2,5.41,3,8.14c2,5.5,3.76,11.06,5.44,16.66a349.64,349.64,0,0,1,8.3,34c.26,1.39.53,2.79.8,4.19.15.76,1.29.46,1.17-.3a309.35,309.35,0,0,0-8-34.54,337.4,337.4,0,0,0-11.46-33.22A26.31,26.31,0,0,0,66,463.45a16.59,16.59,0,0,0-6.2-4.16,36.44,36.44,0,0,1-12.06-8.88A38.69,38.69,0,0,1,43.17,444c-1.39-2.4-2.59-4.9-4-7.3a28.94,28.94,0,0,0-9.6-10.31c-7.63-4.81-16.93-5.79-25.74-6.15l-3.31-.1a.25.25,0,0,0,0,.49Z" transform="translate(32 89.5)"/><path class="cls-4" d="M-3.08,397.36a56.14,56.14,0,0,1,16.35,3.4,77,77,0,0,1,15.12,7.86c10.34,6.79,19.22,15.45,28,24.1,9,8.92,18.37,17.65,26.63,27.32a123,123,0,0,1,10.93,14.84A166.43,166.43,0,0,1,102.7,491c5.42,11.34,9.94,23.09,14.63,34.75l1.86,4.63c.3.75,1.4.14,1.1-.6-4.81-11.92-9.44-24-14.8-35.65-5.17-11.24-11.2-22.07-19-31.72-8-9.89-17.3-18.62-26.37-27.5s-17.87-17.76-28.18-25C22.76,403.5,12.3,398.33,1,397.11a35,35,0,0,0-4.1-.21.23.23,0,0,0,0,.46Z" transform="translate(32 89.5)"/><path class="cls-4" d="M2.19,385.28a239.77,239.77,0,0,0,25.27,7.85,88.07,88.07,0,0,0,25.45,2.71A51.51,51.51,0,0,0,76.8,388.7c1.86-1.13,3.73-2.62,5.94-3s4.31.82,6,2.14a62.75,62.75,0,0,1,4.71,4.22,55.5,55.5,0,0,1,4.17,4.37,24,24,0,0,1,5.56,10.74c.8,4.1.06,8.26-1.15,12.2-2.44,7.95-6.66,15.61-5.68,24.18,1,8.72,6.28,16.08,11.34,22.94s10.17,13.48,15,20.43a137,137,0,0,1,12.52,21.59,69.69,69.69,0,0,1,6.22,23.77,57.93,57.93,0,0,1,.1,6.18.61.61,0,0,0,1.22,0,65.09,65.09,0,0,0-4-24.4,110.4,110.4,0,0,0-11.3-22.19c-4.57-7.13-9.64-13.91-14.7-20.68-5.19-6.94-11.16-13.94-13.95-22.28a25.31,25.31,0,0,1-.9-13.06,81,81,0,0,1,3.85-12,41.89,41.89,0,0,0,2.91-11.9,21,21,0,0,0-2.84-11.57,41.39,41.39,0,0,0-7.7-9.25c-1.51-1.43-3-2.88-4.68-4.16A10.09,10.09,0,0,0,84,384.55c-2.17-.13-4.14.95-5.92,2.07a60.4,60.4,0,0,1-5.68,3.26,49.09,49.09,0,0,1-12.15,4c-8.52,1.64-17.3,1.18-25.82-.24a175.73,175.73,0,0,1-26-6.77c-2-.67-4.06-1.36-6.09-2.05-.28-.1-.41.35-.12.45Z" transform="translate(32 89.5)"/><path class="cls-4" d="M-5,369.35A114.18,114.18,0,0,0,27,378a112.86,112.86,0,0,0,16.54.71A54.51,54.51,0,0,0,59,376.49a29.39,29.39,0,0,0,6.9-3.36,68.89,68.89,0,0,1,6.64-4.35c4.83-2.48,10.33-2.13,15.58-1.71a71.61,71.61,0,0,0,7.89.36,29.28,29.28,0,0,0,7.32-1.17c4.8-1.38,9.44-3.71,14.45-4.25a13.15,13.15,0,0,1,12.09,5.08,23.7,23.7,0,0,1,4.6,13.08c.37,5.91-.83,11.76-2.23,17.46s-3,11.65-4.42,17.47-2.93,11.58-4.4,17.37c-.73,2.9-1.47,5.79-2.2,8.69s-1.55,5.72-2.14,8.62a14.27,14.27,0,0,0,.23,7.75,19.55,19.55,0,0,0,3.65,5.83c3.37,3.94,7,7.66,10.45,11.55,6.93,7.86,13.48,16.24,17.89,25.81,4.31,9.37,6.65,19.95,5.37,30.25a40.56,40.56,0,0,1-1.63,7.4c-.24.75.94,1.08,1.17.33,3.12-9.83,2.33-20.52-.72-30.26-3.13-10-8.74-19-15.25-27.12-3.29-4.12-6.8-8.06-10.36-11.95-1.76-1.94-3.55-3.85-5.3-5.8a20.3,20.3,0,0,1-4.23-6.3c-1-2.85-.6-5.83.09-8.71s1.45-5.77,2.18-8.65l4.47-17.72q2.2-8.78,4.42-17.55c1.45-5.71,3.05-11.43,3.73-17.3a32.18,32.18,0,0,0-1.46-15.18c-1.48-3.92-4-7.71-7.82-9.71-4.24-2.24-9-1.64-13.43-.3-5,1.49-9.75,3.8-15,4.21s-10.57-.65-15.87-.57A23,23,0,0,0,74.11,367a28.2,28.2,0,0,0-6.56,3.77,36.48,36.48,0,0,1-6.9,4.05,34.71,34.71,0,0,1-7.9,2.14,88.58,88.58,0,0,1-16.52.82,116,116,0,0,1-33.32-5.95q-4-1.33-7.84-2.94c-.27-.12-.39.32-.12.43Z" transform="translate(32 89.5)"/><path class="cls-4" d="M2.82,357.19c11.6,4.23,23.61,8.66,36.15,8.22,11.51-.41,22.43-4.57,33.12-8.47,5.41-2,10.84-3.93,16.42-5.39A77.16,77.16,0,0,1,106.13,349,75.11,75.11,0,0,1,141,356.28c4.75,2.33,9,5.64,11.16,10.64,2.26,5.35,2.18,11.51,1.77,17.2-.87,12.08-4.61,23.73-9.1,34.9-2.24,5.58-4.69,11.08-7.13,16.57-2.23,5-4.45,10.48-1.89,15.83a33.86,33.86,0,0,0,4.5,6.38c1.75,2.18,3.43,4.42,5,6.7a140.44,140.44,0,0,1,8.54,13.78,153.93,153.93,0,0,1,18.19,64.07c.17,2.74.25,5.48.27,8.22a.6.6,0,0,0,1.2,0,155.85,155.85,0,0,0-14.92-65.38,141.48,141.48,0,0,0-17.15-27.61,36.58,36.58,0,0,1-4.76-6.66,12.52,12.52,0,0,1-.37-9.15,75.26,75.26,0,0,1,3.53-8.64c1.19-2.7,2.38-5.41,3.53-8.13,4.67-11,8.89-22.37,10.7-34.26a64,64,0,0,0,.63-17.31c-.66-5.38-2.75-10.32-6.93-13.89-3.94-3.36-8.91-5.4-13.74-7.1a78.13,78.13,0,0,0-17.47-3.95,76.88,76.88,0,0,0-17.81.15,92.22,92.22,0,0,0-17.25,4.06c-11,3.6-21.68,8.44-33.09,10.71a58.06,58.06,0,0,1-18,.82,99.31,99.31,0,0,1-18.8-4.39c-2.93-.93-5.83-2-8.74-3-.19-.07-.27.23-.08.3Z" transform="translate(32 89.5)"/><path class="cls-4" d="M187.45,549.43q-6.45-20.82-13-41.61c-4.26-13.6-8.68-27.15-12.8-40.79a146.37,146.37,0,0,1-4.79-19.93,83,83,0,0,1-.56-19.67c1-12.36,4-24.47,5.19-36.82,1-11.27.33-23.11-5.67-33-5.3-8.74-14.07-14.68-23.74-17.64-11.06-3.39-22.6-2.65-33.84-.57-13.56,2.51-26.76,6.61-40.54,7.95-27.36,2.67-55.21-2.8-80-14.44-3-1.39-5.89-2.87-8.79-4.41-.65-.35-1.26.63-.6,1a158,158,0,0,0,77.23,19.71,142,142,0,0,0,20.27-1.69c6.76-1.06,13.42-2.67,20.08-4.23,12.21-2.86,24.88-5.73,37.48-4,10,1.36,19.94,5.55,26.95,13,8,8.5,10.66,20.07,10.43,31.46C160.48,396,157.59,408,156,420.1a104.75,104.75,0,0,0-1.11,18.39,97.21,97.21,0,0,0,3.22,19.95c1.68,6.54,3.77,13,5.81,19.4q3.27,10.28,6.53,20.57,6.54,20.57,13.1,41.13,1.6,5,3.23,10.07c.15.44.86.27.72-.18Z" transform="translate(32 89.5)"/><path class="cls-4" d="M-13.13,308.18C4,325.84,28.48,336,53.18,334.86A80.62,80.62,0,0,0,71,332.07c6.79-1.86,13.14-4.92,19.79-7.16a42.58,42.58,0,0,1,11-2.37,45.58,45.58,0,0,1,11.93,1.07,173.2,173.2,0,0,1,19,5.08c11.66,3.81,23.12,9.46,31,19.17,8.44,10.42,11.23,23.91,12,37,.79,13.81-.43,27.63-.37,41.45a315.34,315.34,0,0,0,3.31,44.06,305.38,305.38,0,0,0,24.72,83.8q2.24,4.85,4.67,9.58c.39.77,1.56.13,1.18-.65a311.43,311.43,0,0,1-27.76-83.92,315.22,315.22,0,0,1-4.73-44.5c-.48-14.08.53-28.12.35-42.19-.16-12.79-1.46-26.12-7.5-37.62-5.77-11-15.61-18.56-26.8-23.47a123,123,0,0,0-17-5.86c-6.84-1.88-13.9-3.9-21-4.06s-14.07,2.28-20.72,4.92a106.76,106.76,0,0,1-19.16,6.1C40.06,337.28,13.85,330-5.58,314.2a94.55,94.55,0,0,1-7.14-6.41.28.28,0,0,0-.41.39Z" transform="translate(32 89.5)"/><path class="cls-4" d="M200.32,521.94c-8.93-8.3-14.42-19.79-16.61-31.69a60.69,60.69,0,0,1,4.57-36.74c2.94-6.28,6.54-12.21,9.65-18.4,2.84-5.65,5.36-11.63,6-18a27.82,27.82,0,0,0-.56-9.23,39.7,39.7,0,0,0-4-9.62,60.34,60.34,0,0,1-4.75-10.41,100.35,100.35,0,0,1-2.62-11c-1.4-7.06-3.07-13.92-6.08-20.49A92.06,92.06,0,0,0,175.27,339a182.48,182.48,0,0,0-13.48-15.4c-4.82-5-9.69-10-14.91-14.62-9.53-8.4-22.15-16.78-35.42-12.75-6.12,1.87-11.26,5.86-16.45,9.44a58.49,58.49,0,0,1-8.29,5,29.25,29.25,0,0,1-11.15,2.72c-7.81.36-15.47-1.75-22.93-3.77-6.46-1.75-12.91-3.52-19.27-5.59-12.88-4.18-25.55-9.64-36.22-18.13A75,75,0,0,1-10.36,279c-.61-.63-1.6.31-1,.94,9.36,9.74,21.13,16.54,33.6,21.5,6.24,2.48,12.64,4.53,19.09,6.4,6.81,2,13.67,4,20.62,5.44,7.34,1.56,15.15,2.27,22.36-.27,6.06-2.14,11.15-6.2,16.41-9.77,5.43-3.69,11.27-6.85,18-6.8s13.24,3.06,18.82,6.81a111.85,111.85,0,0,1,16.35,14.09c4.85,4.85,9.67,9.74,14.21,14.89,9.19,10.43,17.17,22.17,20.75,35.75,1.92,7.29,2.67,14.89,5.25,22,2.47,6.8,7.25,12.6,8.47,19.85,2.28,13.57-6.59,26.22-12.59,37.61a72.32,72.32,0,0,0-7,17.66,62,62,0,0,0-1.32,18.07,61.08,61.08,0,0,0,12.24,33.07,46.6,46.6,0,0,0,5.87,6.21c.36.32.9-.19.54-.52Z" transform="translate(32 89.5)"/><path class="cls-4" d="M-13.71,240.45.88,249.64,4.55,252c1.09.68,2.16,1.42,3.3,2,1.78.92,4.06,1.48,5.55-.26,1.28-1.49,1.18-3.73.85-5.55a33.74,33.74,0,0,0-1.91-6.36,38.7,38.7,0,0,0-6.67-11.09,33.38,33.38,0,0,0-11.11-8.58c-.65-.3-1.24.65-.58,1a35.21,35.21,0,0,1,16.33,16.77,37.72,37.72,0,0,1,2.23,5.89c.54,1.86,1.16,4,.71,5.92a2.71,2.71,0,0,1-1.68,2.07,4.35,4.35,0,0,1-3.07-.48,33.89,33.89,0,0,1-3.08-1.8L2,249.4-13.4,240a.29.29,0,0,0-.31.5Z" transform="translate(32 89.5)"/><path class="cls-4" d="M-10.12,259c6.87-.72,12.45,4.11,18.85,5.6a8.71,8.71,0,0,0,8.15-1.76c3-2.75,3.69-7.22,4.06-11.08a58.32,58.32,0,0,0-2.59-23.28,60.47,60.47,0,0,0-11-20.27A47.82,47.82,0,0,0-9.95,194.88c-.82-.36-1.65-.69-2.5-1s-1,.84-.31,1.11A47.29,47.29,0,0,1,4.65,207a58,58,0,0,1,11.62,19,59,59,0,0,1,3.79,22.43,47.77,47.77,0,0,1-.52,5.86,16.67,16.67,0,0,1-1.8,5.77,7.85,7.85,0,0,1-3.59,3.34,7.74,7.74,0,0,1-4,.46C7,263.47,4.08,262,1.21,260.76s-6-2.49-9.2-2.5a8.53,8.53,0,0,0-2.19.27c-.25.06-.22.5.06.47Z" transform="translate(32 89.5)"/><path class="cls-4" d="M-4.6,264.41A58.74,58.74,0,0,0,2,270.54a36.65,36.65,0,0,0,7.28,4.73c4.48,2.11,9.76,2.85,14.48,1.05,5-1.92,8.05-6.51,9.47-11.55a43.44,43.44,0,0,0,.91-16.92c-1.42-11.5-6.56-22.22-12.71-31.9-6-9.5-13.31-18.12-19.77-27.32s-12.09-18.89-14.75-29.78c-.33-1.36-.61-2.72-.86-4.09-.15-.87-1.46-.53-1.32.33,1.82,10.78,6.77,20.71,12.72,29.78s13.06,17.51,19.32,26.47c6.46,9.26,12.22,19.33,15,30.38a51,51,0,0,1,1.37,16.92c-.48,5.13-1.93,10.81-5.95,14.35-3.81,3.35-9.24,3.94-14,2.68C7.6,274.22,3,270.48-1.21,266.79c-1-.92-2.07-1.82-3.15-2.69-.18-.14-.39.15-.24.31Z" transform="translate(32 89.5)"/><path class="cls-4" d="M-6.68,276.92q11.48,2.67,23,5.16l11.25,2.45c3.71.81,7.42,1.7,11.16,2.4,2.91.54,6.19.79,8.76-1s3.63-4.65,4.41-7.42a48.58,48.58,0,0,0,1.16-19.79c-1.89-13.64-8.39-26.29-15.44-37.93-3.67-6.05-7.5-12-11.57-17.83a101.27,101.27,0,0,0-6.61-8.54c-2.25-2.58-4.69-5-7.17-7.35-5-4.75-10.21-9.43-14-15.19-3.57-5.36-6.11-11.7-6-18.21a29.89,29.89,0,0,1,.44-4.82c.11-.65-.83-1-1-.29-1.72,6.14-.22,12.83,2.41,18.49,2.8,6,7.17,11.07,11.88,15.7,4.89,4.82,10,9.34,14.4,14.67A196,196,0,0,1,32.52,215c7.39,11.44,14.49,23.49,18,36.76a53.85,53.85,0,0,1,1.69,19.77A34.13,34.13,0,0,1,49.92,281a9.76,9.76,0,0,1-2.55,3.69A7.14,7.14,0,0,1,43,286.29a19.29,19.29,0,0,1-4.67-.47c-1.81-.37-3.61-.77-5.42-1.15-3.75-.81-7.51-1.6-11.26-2.4-7.52-1.59-15-3.21-22.56-4.71l-5.66-1.12c-.3-.06-.44.4-.13.48Z" transform="translate(32 89.5)"/><path class="cls-4" d="M-2.08,141c6.2,16.31,19.82,28.12,29,42.63,9.37,14.82,15.5,31.37,22,47.56,3.29,8.2,6.68,16.37,10.63,24.27,1.92,3.84,4,7.6,6.21,11.26,2.33,3.85,4.82,7.68,6.31,11.95a19.71,19.71,0,0,1,.73,11.52c-.9,3.44-3,6.74-6.63,7.71a16.83,16.83,0,0,1-7-.06c-2.44-.4-4.87-.84-7.3-1.29q-7.2-1.32-14.34-2.91a432.27,432.27,0,0,1-57.49-17c-2.26-.84-4.52-1.7-6.77-2.56-.85-.32-1.22,1-.38,1.36,9.45,3.77,19.09,7.1,28.81,10.11s19.38,5.63,29.21,7.93q7.41,1.74,14.9,3.21c4.82.95,9.68,1.93,14.55,2.57,4,.53,8.15,0,10.9-3.24a15.93,15.93,0,0,0,3.33-9.87c.21-8.83-5.68-16.21-9.84-23.5a217.1,217.1,0,0,1-11.56-24.13c-3.46-8.27-6.66-16.64-10.09-24.92a224.19,224.19,0,0,0-11.41-24.13,150.87,150.87,0,0,0-15-21.45c-5.54-6.78-11.22-13.56-15.4-21.29-1-1.93-2-3.89-2.86-5.91-.11-.26-.56-.08-.46.18Z" transform="translate(32 89.5)"/><path class="cls-4" d="M-9.56,283.18c19.65,10,40.72,20.09,63.23,20.31,10.36.11,20.89-2,30-7,3.82-2.08,7.45-5.23,9.18-9.31a10.51,10.51,0,0,0-2.42-11.7,46.86,46.86,0,0,0-5-4.11,37.18,37.18,0,0,1-5.38-5.11,59.92,59.92,0,0,1-8-12.29c-2.32-4.56-4.28-9.29-6.23-14L59,223.28C54.3,212,49.72,200.7,45,189.48a92.85,92.85,0,0,0-7.5-14.74A91.73,91.73,0,0,0,26.89,162,285.52,285.52,0,0,1,5.65,137.54a244.58,244.58,0,0,1-18-27.51c-1.34-2.37-2.64-4.77-3.93-7.17a.67.67,0,0,0-1.18.65A236.18,236.18,0,0,0,19.1,155.85c3.63,3.93,7.45,7.68,11,11.68A67.61,67.61,0,0,1,39.49,181c2.6,5,4.7,10.17,6.85,15.34l6.79,16.35C57.61,223.44,62,234.27,66.59,245c3.75,8.78,8,17.82,15,24.54,3.11,3,7.44,5.1,9.78,8.83,2.74,4.35.89,9.34-2.35,12.81-3.44,3.68-8.17,5.91-12.82,7.62a60.52,60.52,0,0,1-15,3.38c-22.24,2.14-43.31-6.77-63-16.05-2.47-1.16-4.93-2.34-7.4-3.49-.35-.17-.67.34-.31.52Z" transform="translate(32 89.5)"/><path class="cls-4" d="M-10.51,100.8c6,6.19,12.93,12.79,21.78,14.33A19.8,19.8,0,0,0,22.43,114c3.95-1.68,6.67-4.87,8.92-8.42,2.35-3.7,4.47-7.46,7.41-10.74a55.2,55.2,0,0,1,9.4-8.2C55,81.91,62.52,78.37,69.9,74.6a295.07,295.07,0,0,0,40.8-25,209.42,209.42,0,0,0,35.72-32.95A161.23,161.23,0,0,0,172.26-25c.79-1.89,1.54-3.8,2.23-5.73.32-.88-1.06-1.25-1.4-.39a163,163,0,0,1-24,42.37,199.93,199.93,0,0,1-34.13,33.55,278.58,278.58,0,0,1-39.8,25.7C61.17,78,45.28,84,35.45,97.1c-2.58,3.44-4.41,7.39-7.05,10.8a16.33,16.33,0,0,1-10.28,6.28C9.23,115.7,1.28,110.55-5.16,105c-1.72-1.47-3.37-3-5-4.57-.23-.22-.57.11-.35.33Z" transform="translate(32 89.5)"/><path class="cls-4" d="M-9.59,86.32c4,6.38,8.62,13.86,16.28,16.2A12.88,12.88,0,0,0,17,101.63c3.46-2,5.45-5.82,7.82-8.91C34.6,79.88,48.26,70.85,62.06,62.79c16.19-9.45,32.55-18.62,48.81-27.94a184.41,184.41,0,0,0,20.38-13A73.83,73.83,0,0,0,147.94,4.53c8.73-12.93,13.39-28.16,22.45-40.89,1.14-1.6,2.33-3.16,3.61-4.65.41-.48-.26-1.21-.69-.73C163.11-30.2,158.21-15.18,150.7-2a73.53,73.53,0,0,1-14.65,18.5,122.39,122.39,0,0,1-19.66,13.89c-7.72,4.58-15.57,9-23.37,13.42L68.1,58.1C54.64,65.8,41,73.72,30.13,85a80.27,80.27,0,0,0-7.5,9c-2.36,3.3-4.65,6.88-8.82,7.95C5.49,104-1.4,97-5.8,91-7,89.35-8,87.71-9.14,86.07c-.18-.28-.63,0-.45.25Z" transform="translate(32 89.5)"/><path class="cls-4" d="M-5.41,85.79a19.77,19.77,0,0,1,6.69-.06,31.52,31.52,0,0,0,5.23.19,29.21,29.21,0,0,0,8.61-1.86c5.73-2.15,10.77-5.82,15.37-9.8,10.44-9,19.09-19.93,30.49-27.85,12.53-8.69,26.82-14.25,40.69-20.36a186.89,186.89,0,0,0,19.24-9.53A103,103,0,0,0,137.15,4.84c10-8.85,18-20.15,21.1-33.29a36.23,36.23,0,0,0,.81-4.86c.05-.45-.7-.56-.79-.11a62.66,62.66,0,0,1-6.73,19.11,69.7,69.7,0,0,1-12.2,15.62c-9.81,9.55-21.66,16.28-34,21.91-13.68,6.23-27.9,11.49-40.69,19.5A102.94,102.94,0,0,0,48,55.83C43.12,60.46,38.54,65.35,33.67,70c-4.56,4.3-9.41,8.42-15,11.37a33.88,33.88,0,0,1-8.34,3.15,37.22,37.22,0,0,1-10,.5,16.41,16.41,0,0,0-5.84.53.15.15,0,0,0,.07.29Z" transform="translate(32 89.5)"/><path class="cls-4" d="M-6.21,75.33c5.52,3,11.85,2.06,17.27-.71,6.06-3.11,10.6-8.13,14.78-13.38C30.17,55.79,34.19,50,39.46,45.37s11.65-7.6,18.2-9.93,13-4,19.37-6.33a139.87,139.87,0,0,0,17.72-7.94A151.63,151.63,0,0,0,127.09-2.1,157,157,0,0,0,141-16.92a88.9,88.9,0,0,0,6.07-7.86c1.41-2.17,2.64-5,2.23-7.63a4.3,4.3,0,0,0-1.75-2.84c-.56-.43-1.13.52-.57,1,2.22,1.72,1,5.34-.05,7.36a46.34,46.34,0,0,1-5.39,7.53A157.7,157.7,0,0,1,128.14-4.62a150,150,0,0,1-31,23.28A139.91,139.91,0,0,1,79.9,26.88c-6.1,2.42-12.41,4.21-18.64,6.24s-12.59,4.43-18.12,8.13-9.93,8.86-14,14.14S21,66.28,15.69,70.47c-4.81,3.8-11,6.71-17.24,5.83A14.67,14.67,0,0,1-6,74.92c-.27-.14-.52.26-.24.41Z" transform="translate(32 89.5)"/><path class="cls-4" d="M.64,54.21C5.56,56.5,11.1,55.7,15.9,53.52c5.25-2.39,9.55-6.47,13.75-10.33A87.91,87.91,0,0,1,42.63,33a101.41,101.41,0,0,1,13.65-7C65.79,22,75.72,19,85.45,15.57s19.31-7.48,27.78-13.42c8.17-5.73,15.81-13.65,18-23.69a29.27,29.27,0,0,0,.58-3.83c0-.65-.93-.65-1,0-1.12,10.31-8,18.82-16,24.92S97.53,9.93,88.06,13.45,68.85,19.86,59.44,23.59,41,32,33.27,38.57c-4.39,3.76-8.37,8-13.1,11.38-4.41,3.13-9.8,5.57-15.33,4.94a13.66,13.66,0,0,1-4-1.07c-.25-.11-.49.26-.23.39Z" transform="translate(32 89.5)"/><path class="cls-4" d="M2.74,43.71q13.52-6.42,27-12.92l26.92-13,6.62-3.2a29.25,29.25,0,0,0,4.6-2.66c2.71-2,4.91-4.91,4.44-8.44-.54-4-4.23-6.57-7.18-8.79A78.28,78.28,0,0,0,54.21-12.2a74,74,0,0,0-23.79-7.71c-1-.14-2.08-.26-3.12-.35-.78-.07-.78,1.13,0,1.22A74.87,74.87,0,0,1,50.8-12.5,77.24,77.24,0,0,1,61.59-6.34C63.33-5.15,65-3.89,66.68-2.56a14.26,14.26,0,0,1,3.7,4,6.2,6.2,0,0,1,.43,5.05,9.2,9.2,0,0,1-2.88,3.82,21.08,21.08,0,0,1-4.23,2.7c-2.08,1-4.19,2-6.28,3.05L31.53,28.66q-13,6.3-26,12.67l-3.24,1.6c-.51.25-.09,1,.42.78Z" transform="translate(32 89.5)"/><path class="cls-4" d="M-22.67,29.57a115.49,115.49,0,0,0,12.34-.46c4.11-.34,8.21-.81,12.29-1.44a172.55,172.55,0,0,0,24.19-5.53q6-1.84,11.93-4.09c3-1.14,6.28-2.21,8.34-4.78a5.84,5.84,0,0,0,1.35-4,7.55,7.55,0,0,0-2.11-4.47A36.83,36.83,0,0,0,41.55,1c-1.43-1.19-2.9-2.31-4.43-3.36a56.36,56.36,0,0,0-20-8.93c-.84-.17-1.69-.31-2.55-.41-.53-.06-.64.79-.13.92a90.25,90.25,0,0,1,10,3A58.86,58.86,0,0,1,34-3a61,61,0,0,1,8.68,6.5c2.25,2,5.21,4.91,3.49,8.19-1.44,2.73-4.77,3.89-7.46,4.94q-5.64,2.21-11.43,4A176.12,176.12,0,0,1,4,26.31a189.57,189.57,0,0,1-23.77,2.56l-2.91.13a.29.29,0,0,0,0,.57Z" transform="translate(32 89.5)"/><path class="cls-4" d="M-8.54,12.8A55.44,55.44,0,0,0,5.59,17.36a54.18,54.18,0,0,0,7.29.8,35.6,35.6,0,0,0,7-.24,5.14,5.14,0,0,0,4.42-3.24c.66-1.92.07-4.08-.7-5.88a39.72,39.72,0,0,0-3.49-6c-1.31-2-2.7-3.89-4.17-5.74A75.19,75.19,0,0,0,4.85-14.32c-.54-.45-1.35.3-.8.77A80.83,80.83,0,0,1,21.31,6.77a13.65,13.65,0,0,1,2.19,5.65,3.88,3.88,0,0,1-2.89,4.33,24.27,24.27,0,0,1-6.48.51,54.24,54.24,0,0,1-6.86-.44,54.23,54.23,0,0,1-15.52-4.5c-.32-.15-.62.32-.29.48Z" transform="translate(32 89.5)"/><path class="cls-4" d="M-8.42,6.45A91.37,91.37,0,0,0,.74,7.62,6.78,6.78,0,0,0,6,5.63a6.79,6.79,0,0,0,2-5.1C7.79-1.9,6.21-3.81,4.82-5.68a32.35,32.35,0,0,0-6.57-7.09c-.35-.26-.69.26-.45.56,1.65,2,3.53,3.8,5.16,5.83Q4.25-4.76,5.42-3A8.13,8.13,0,0,1,6.76-.39,6,6,0,0,1,1.08,6.84,41.86,41.86,0,0,1-3.53,6.5C-5.14,6.36-6.75,6.2-8.36,6c-.25,0-.31.4-.06.44Z" transform="translate(32 89.5)"/><path class="cls-4" d="M502.79-18.83c-12.25,27.9-32.73,52-59.05,67.5a128.66,128.66,0,0,1-40,15.46c-15.86,3.19-31.31,2.43-47.18-.27-15.54-2.65-32.17-5.49-46.59,2.69A35.9,35.9,0,0,0,296.29,80c-3.53,6.3-3.89,13-3.76,20,.08,4.8.11,9.8-2.27,14.12-2,3.66-5.39,6.11-9.05,8-6,3-11,6.08-13.54,12.69a21.11,21.11,0,0,0-1.42,8.72c.19,3.75,1.71,7.2,2.29,10.89,1.54,9.87-2.41,19.35-2.09,29.18.45,13.92,10.52,25.31,22.68,31.05,15.78,7.44,34,5.71,50.48,10.83,30.25,9.42,52.47,34.71,63,63.93,4.92,13.66,8.5,28.92,18.3,40.11,10.63,12.13,26.4,13.46,41.35,15.84a79.32,79.32,0,0,1,39.66,17.92,96.7,96.7,0,0,1,32.3,58.49c1.41,9.32,1.06,18.84,3.28,28,2,8.36,5.65,16.22,9.41,23.92,4,8.26,8,16.54,11.42,25.06,7.18,17.71,13.38,36.43,16.43,55.34a85.89,85.89,0,0,1-.13,30.67c-1.51,7.58-3.74,15.11-4.21,22.86-.38,6.24.68,12.33,4.73,17.27.43.53,1.2-.21.77-.74-5.64-6.87-4.93-16-3.44-24.2,1.38-7.61,3.63-15.06,4.37-22.78,1.8-18.64-3.5-37.56-9.05-55.17-5.49-17.42-12.78-33.93-20.71-50.35-4-8.35-7.79-16.93-9.39-26.12-1.54-8.9-1.3-18-2.93-26.91-5-27.57-22.53-53.68-47.7-66.66a73.67,73.67,0,0,0-18.48-6.58c-8-1.7-16.25-2.31-24.24-4.18S428.75,336,423,330c-5.13-5.34-8.57-12.05-11.36-18.84-5.88-14.32-9.43-29.33-17.43-42.73a103.66,103.66,0,0,0-29.33-31.77c-12.48-8.74-26.4-13.7-41.43-15.82-16.73-2.36-34.54-3.6-46.83-16.67a31.72,31.72,0,0,1-9-21.79c0-9.16,3.39-18,2.23-27.17-.5-4-2.2-7.71-2.41-11.71a20.05,20.05,0,0,1,2.84-11.38,20.48,20.48,0,0,1,9-7.85,32.88,32.88,0,0,0,8.56-5.21c5.44-5,6-12.06,5.87-19-.15-8.5.66-16.11,6-23.09,10.5-13.8,27.9-16,44-14,9.24,1.15,18.34,3.28,27.62,4.12a111.55,111.55,0,0,0,20.35,0,123.35,123.35,0,0,0,38.9-10.38A142.1,142.1,0,0,0,493.6.41a139.33,139.33,0,0,0,9.52-19.1c.08-.18-.24-.32-.33-.14Z" transform="translate(32 89.5)"/><path class="cls-4" d="M476.7-17C475.25.26,463,13.66,449.09,22.79c-7.37,4.85-15.21,8.9-22.65,13.62-7.05,4.47-13,9.79-19.1,15.47s-12.78,10-21.35,9.21c-7.06-.69-13.58-4.13-19.74-7.4-12.11-6.43-24.48-13.52-38.5-8.63-7.53,2.64-14.09,7.47-20.41,12.22S294.9,67,289.84,73.05a45.56,45.56,0,0,0-9.68,18.47c-1.94,8.15-2,16.37-10,21.17s-22,6.25-22.2,18.07c-.13,7.54,5.75,13.52,8.25,20.25,3.13,8.46,2.42,17.75,2,26.58-.39,7.91-.73,16,1.5,23.7a39.75,39.75,0,0,0,9.62,16.41c9,9.36,21.72,14.62,34.24,17.3,15.59,3.34,31.88,3.47,46.87,9.34,15.34,6,25.31,18.13,32.51,32.52,6.74,13.47,11.29,27.93,18.05,41.4s16,25.08,28.28,33.76,26,13,41,14.44c4.69.44,9.44,1.05,13.64,3.33a31.63,31.63,0,0,1,9.55,8.59c5.35,6.81,9.52,14.73,13.14,22.57,14.48,31.3,19.18,65.94,28.32,98.93,4.79,17.3,11.43,34,17.42,50.85,6.08,17.11,11.63,34.87,12.19,53.15a84.78,84.78,0,0,1-3.24,26.32.59.59,0,0,0,1.13.32c10.16-35.19-5.62-70.57-17.45-103.2a455.11,455.11,0,0,1-14.64-50c-4-16.65-7.59-33.41-12.63-49.78-4.78-15.57-10.88-30.95-19.8-44.66-3.91-6-8.69-12.07-15.49-14.93-7.56-3.17-16.18-2.39-24.11-4a79.54,79.54,0,0,1-40.45-22.75c-11-11.39-17.7-25.46-23.67-40-5.59-13.58-10.74-27.82-19.76-39.6-9.4-12.29-22.66-18.83-37.56-22s-30.26-3.45-44.63-8.68c-13.51-4.92-26.33-14-31.17-28.1-5.57-16.23,1.46-33.68-3.38-50-2.27-7.65-9.67-14.68-8.82-23,.67-6.59,6.41-9.67,11.91-11.94,5-2.07,10.5-3.86,14.22-8,4.95-5.48,4.52-13.41,6.48-20.11,4.73-16.13,19.47-27.31,32.7-36.45,7.58-5.25,16.25-9.93,25.76-9.17,7.27.58,14.06,3.89,20.42,7.22,10.5,5.5,22.78,13.58,35.12,9.34,7-2.41,12.07-8.2,17.35-13.12,6.72-6.27,14.5-11.08,22.42-15.69,13.36-7.77,27-15.72,35.35-29.21A42.73,42.73,0,0,0,477.05-17c0-.23-.33-.23-.35,0Z" transform="translate(32 89.5)"/><path class="cls-4" d="M444.86-12.09a125.5,125.5,0,0,1-34.65,41.77c-7.76,6-16.21,9.86-26.22,9.11-9.37-.7-17.12-6.22-26-8.83-15.86-4.69-33.07-3-46.62,6.88-11.62,8.48-19.67,20.88-28.07,32.31C274.7,80.87,265.21,92.73,251.18,98c-6,2.28-12.89,3.91-17.63,8.54a15.11,15.11,0,0,0-4.25,7.74c-.86,4.22.88,7.86,1.08,12a17.49,17.49,0,0,1-4.62,12.85c-2.19,2.29-4.52,3.63-5.85,6.64-1.86,4.23-2.15,10.65,1.71,13.93,2.35,2,5.31,1.72,8.19,1.54,5.33-.33,8.65,2.17,9.15,7.57.86,9.18-6,14.76-11.13,21.27-4.47,5.63-6.44,12.2-4.83,19.32s6.21,13.68,11.93,18.24c7,5.58,15.81,8.31,23.88,11.92a65.08,65.08,0,0,1,11.74,6.6c3.65,2.65,7.05,5.65,10.81,8.15a27.91,27.91,0,0,0,11.32,4.6c4.28.65,8.65.36,13,.37a129.56,129.56,0,0,1,24,1.94c16.25,3.09,30.41,11.35,37.75,26.68,7.55,15.76,8.49,33.94,18.08,48.85,8.39,13,21.25,22.13,34.66,29.44,26.91,14.67,61.46,26.06,72.34,58.06,2.57,7.56,3.75,16.13,1.13,23.85-1.37,4-3.83,7.59-7.73,9.51s-7.7,2.67-10.47,6.29c-4.44,5.79-4.94,14-3.85,20.94,1.28,8.21,5.17,15.8,10.05,22.45,10.22,13.89,25.39,23,35.84,36.71,11.74,15.38,14,34.73,13.13,53.54-.43,9-1.52,17.9-2.7,26.81-.11.86,1.24.87,1.35,0,2.31-17.6,4.5-35.76,1.25-53.38a64.69,64.69,0,0,0-9-23.53c-4.68-7.22-10.84-13.27-17.18-19-12.95-11.75-27.39-23.91-31.17-41.92-1.85-8.82-1.11-21.47,8.25-25.79,3.59-1.66,7.11-2.55,9.79-5.67a20.4,20.4,0,0,0,4-7.85c3.92-14-2.36-29.46-10.88-40.44-9.32-12-22.36-20.67-35.67-27.65C434.73,371.91,420.2,366,407.32,357a79.56,79.56,0,0,1-17.66-16.35c-5.55-7.14-9.06-15.31-11.68-23.91-4.76-15.62-7.65-32.84-20.51-44.2-10.89-9.61-25.6-12.95-39.72-14-3.88-.29-7.77-.4-11.65-.42-4.75,0-9.63.39-14.32-.53-9.22-1.8-15.61-9.31-23.2-14.19-15.26-9.82-36.57-11.8-43.53-31.17a21.84,21.84,0,0,1-.9-12.69c1.17-4.67,4.18-8.36,7.3-11.88,4.51-5.09,8.7-10.12,8.73-17.27,0-5.58-2.83-10.4-8.86-10.34-4.48.05-9.11.89-10.95-4.25a13.47,13.47,0,0,1,1-10.38c1.65-3.15,5-4.76,7-7.67a18.59,18.59,0,0,0,3.12-9.14c.33-4.46-1.76-8.61-1.2-13a14.48,14.48,0,0,1,6.65-10.3c5.9-3.94,13.14-5.12,19.43-8.28A57.31,57.31,0,0,0,271.93,85c10-10.57,17.45-23.26,26.82-34.38,4.66-5.54,9.84-10.78,16-14.69a48.48,48.48,0,0,1,26.64-7.42,65.5,65.5,0,0,1,27.73,7c7.28,3.53,14.91,5.31,23,4s14.79-5.85,21.1-11a121.64,121.64,0,0,0,17.84-18,125.91,125.91,0,0,0,14.19-22.24c.13-.25-.24-.48-.37-.23Z" transform="translate(32 89.5)"/><path class="cls-4" d="M181.33-25.74c-8.28,37.3-34.19,66.79-64.3,88.86C99.82,75.73,81.33,86.43,63.38,97.91c-4.5,2.88-9,5.81-13.38,8.84a137,137,0,0,0-11.67,8.51c-3.16,2.7-5.93,6-7.09,10a18,18,0,0,0,.8,11.55c3.18,8.06,9.92,14,15.37,20.49A119.54,119.54,0,0,1,61.93,180c8.2,16.06,14.17,33.15,22.5,49.14a119.77,119.77,0,0,0,14.51,22.2,104.1,104.1,0,0,0,20.31,18.27c14.93,10.34,32.06,17.08,49.43,22.09,10.44,3,21.2,5.63,32.13,5.6,10.39,0,20.37-3,30.08-6.4,5.09-1.8,10.13-3.72,15.23-5.47,2.49-.86,5-1.67,7.53-2.4a43.85,43.85,0,0,0,5.72-1.74A15.14,15.14,0,0,0,268.1,267a15,15,0,0,0-2.76-8.25c-2.33-3.26-5.91-5-9.32-6.94-8.3-4.65-16.93-8.7-24.88-14a75.09,75.09,0,0,1-18.67-16.78c-5.16-6.78-9.17-15.6-9-24.27a11.2,11.2,0,0,1,2.32-7.2,24.61,24.61,0,0,1,5-3.81c3.11-2.12,5.33-4.84,5.54-8.73.48-8.92-7.08-14.49-12.64-20.15-3.26-3.32-6.13-7.43-5.89-12.3a15.22,15.22,0,0,1,7-11.61,14.73,14.73,0,0,0,6.59-9.2c.88-4.21-.63-8.59-.71-12.83s.38-8.62,2.51-12.3c2.35-4.06,6.38-6,11-6.35,3.93-.32,7.84,0,11.7-1a27.63,27.63,0,0,0,7.3-3c10.18-6,16.33-17.18,21.67-27.27,6.09-11.5,11.44-23.82,19.94-33.81a40.05,40.05,0,0,1,14.28-11.12c9.1-4,19.23-3.1,28.75-1.45s18.73,4.06,28.31,4.31a44.93,44.93,0,0,0,24-6,40.58,40.58,0,0,0,19.72-41.36c-1.12-7.26-4.26-14.29-9.72-19.31-.67-.61-1.69.35-1,1,12.42,11.44,12.53,32.41,3.65,45.94a41,41,0,0,1-20.29,15.8C363.76,18.3,354.6,18,345.58,16.6,328.75,14,310,7.42,294.23,17.14c-10.34,6.36-16.91,17.36-22.52,27.78-5.93,11-10.95,22.86-18.76,32.74a36.25,36.25,0,0,1-12.5,10.59,25.41,25.41,0,0,1-7.91,2.29c-4.47.55-9.15-.21-13.47,1.41-7.38,2.78-9.74,10.73-9.79,18a48.13,48.13,0,0,0,.34,5.76c.31,2.61,1,5.16.44,7.79a12.6,12.6,0,0,1-2.8,5.68c-1.41,1.65-3.27,2.59-4.92,4a16.57,16.57,0,0,0-5.83,10.3,15.11,15.11,0,0,0,2.93,10.74c4.89,7,13.55,11,15.26,20.09a9.86,9.86,0,0,1-.8,6.57c-1.13,2.08-3.1,3.35-5,4.62-3.21,2.1-5.75,4.47-6.51,8.4-1.49,7.74,1.78,16.63,5.68,23.21,8.49,14.32,23.28,23.17,37.62,30.72,4.87,2.56,9.81,5.07,14.49,8a13.82,13.82,0,0,1,6.08,7.7A14.08,14.08,0,0,1,259.36,280a34,34,0,0,1-6,1.91c-2.54.73-5.05,1.54-7.54,2.4-5.1,1.75-10.14,3.68-15.22,5.47-10.08,3.57-20.39,6.56-31.18,6.37s-21.64-2.93-32.07-6a204.3,204.3,0,0,1-25.54-9.26c-16.64-7.43-32.09-17.82-43.6-32.1-22.3-27.69-27.33-65.36-50.42-92.54-5.63-6.63-12.93-12.95-15.45-21.59a16,16,0,0,1,1.79-13.24c2.55-4,6.53-6.8,10.32-9.52,17-12.2,35.14-22.68,52.73-34,31-20,60.9-44.13,76.58-78.43a112.45,112.45,0,0,0,8.1-25c.07-.36-.46-.51-.54-.16Z" transform="translate(32 89.5)"/><path class="cls-4" d="M189-19.2c4.48,17.84-2.27,35.81-12.11,50.6-10,15-23.22,27.76-36.84,39.38A273.14,273.14,0,0,1,96.29,101.3,261.72,261.72,0,0,1,72.59,113c-6.69,2.89-15,5.27-18.08,12.66-2.88,7,.27,15.13,4.89,20.6,5.75,6.81,14.44,10.22,20.74,16.44,11,10.85,14,27.13,17.7,41.48,1.94,7.48,4,15,7.34,22a70.27,70.27,0,0,0,13.43,19.15c10.69,10.88,24.62,18.31,39.34,22.08a112.59,112.59,0,0,0,27.67,3.26c4.95,0,9.91-.22,14.84-.64,3.94-.33,8.25-.37,12-1.83,10.26-4,13.29-18.06,5.48-25.9-2.75-2.75-6.53-4.31-9.9-6.14a77.85,77.85,0,0,1-11.14-6.92c-6.41-5-12.08-11.75-14.8-19.51a24.81,24.81,0,0,1-1.38-11.32c.55-4.27,2.61-7.8,4.88-11.37a23.2,23.2,0,0,0,3.94-9.73,24.11,24.11,0,0,0-.77-8.82c-1.61-6.27-4.77-12-7.37-17.9-2.31-5.26-4.79-11.47-3-17.24,2.33-7.29,10.88-9.29,14.46-15.73,3.18-5.75,3.08-12.74,3.1-19.12s-.38-13.48,3-19c4.55-7.37,13.29-6.19,20.69-5.58,6.14.5,12.1.15,17.43-3.19,4.35-2.72,7.69-6.76,10.42-11.05,6.51-10.22,10.22-21.93,15.86-32.61a56.13,56.13,0,0,1,9.88-14c5.54-5.44,12.65-8.19,20.23-9.35,15.27-2.33,31.84.3,45.13-9.26,11.2-8,18-21.49,19.7-35a49.19,49.19,0,0,0-1.59-20.3c-.31-1-1.95-.64-1.63.4,4.16,13.89,1.44,29.44-6.33,41.58A41.9,41.9,0,0,1,334.35-4.83C327.47-1,319.53.08,311.77.58c-8,.53-16.21.49-24,2.54a34.8,34.8,0,0,0-17.06,10.17c-8,8.73-12.26,20.17-17,30.79-4.25,9.49-9.17,21-18.94,26.06-6.14,3.17-12.8,2.16-19.42,1.69-6.84-.5-13.84.46-17.74,6.78-3.37,5.44-3.26,12.4-3.28,18.57,0,6.45.37,13.73-2.87,19.56-3.5,6.31-11.51,8.25-14.29,15.19-2.1,5.22-.66,10.95,1.28,16,2.36,6.09,5.65,11.8,7.76,18a28.81,28.81,0,0,1,1.76,8.8,18.84,18.84,0,0,1-3.1,10.32c-2.05,3.35-4.26,6.53-5.27,10.38A24.18,24.18,0,0,0,179.3,206c1.43,7.41,5.78,14.1,10.94,19.47,6.12,6.37,13.68,10.34,21.36,14.5,2.83,1.54,5.41,3.2,7.11,6a14.13,14.13,0,0,1,2,7.82,14.34,14.34,0,0,1-8.54,12.69c-4,1.68-8.76,1.62-13,1.95-4.94.39-9.89.59-14.84.53-17-.2-33.93-3.8-48.73-12.5-13.48-7.93-24.47-19.69-30.54-34.2-6-14.31-7.66-30-13.56-44.34-2.74-6.64-6.52-12.93-12-17.72-6.42-5.65-14.86-9.15-20.08-16.11-4.89-6.52-7.12-16.35-.52-22.56,2.88-2.71,6.64-4.22,10.24-5.71q6.09-2.52,12-5.33A266.75,266.75,0,0,0,125.56,84a267.58,267.58,0,0,0,39.75-35.74C176.52,35.81,186.61,21,190,4.34a51.1,51.1,0,0,0-.62-23.62c-.06-.22-.4-.14-.34.08Z" transform="translate(32 89.5)"/><path class="cls-4" d="M201.51-21.19C204.09-7.5,201,6.64,195.89,19.4c-5,12.38-12.06,23.9-19.81,34.72a214.52,214.52,0,0,1-53.49,52.46q-7.53,5.11-15.52,9.54a51.94,51.94,0,0,0-7.21,4.23,19.16,19.16,0,0,0-4.62,5.36A19.66,19.66,0,0,0,93,139c1,5.74,5,9.62,8,14.38,7.53,11.92,9.72,25.54,12,39.2,2.05,12.28,4.78,24.31,11.67,34.87,11.25,17.21,31.18,29.42,52.1,28.4,4.68-.23,10.05-.75,13.93-3.6a7.69,7.69,0,0,0,3.41-5.28c.23-2.57-1.28-4.66-3.26-6.12s-4.51-2.79-6.75-4.16-4.57-2.84-6.78-4.37a54.05,54.05,0,0,1-11.95-10.73A28.63,28.63,0,0,1,159.11,206c-.51-6.74,1.29-13.36,2.89-19.85,1.57-6.33,3-12.77,2.48-19.34-.46-5.83-2-11.5-3.66-17.1-2.92-10.08-7.61-22.76-.93-32.36,3.21-4.62,8.57-7.16,11.79-11.78,3.67-5.24,3.08-11.81,3.44-17.88a26.88,26.88,0,0,1,4.73-14.25,40.16,40.16,0,0,1,9.93-9.4c7.85-5.52,16.66-9.62,24.07-15.77C234,31.61,233.61,2.45,228.6-20.89c-1.5-7-3.39-13.88-5.29-20.77a.83.83,0,0,0-1.62.4c3.86,14,7.77,28.27,8.2,42.91.36,12.2-1.83,25-8.39,35.49-5.49,8.75-14.12,14.1-22.78,19.3-7.6,4.57-15.78,9.29-20.78,16.86a28,28,0,0,0-4.43,13.39C173,93,174,100,169.81,105.34c-3.37,4.34-8.51,6.89-11.59,11.52-2.83,4.25-3.65,9.37-3.28,14.39.82,11.45,6.13,22,7.64,33.36.87,6.49-.16,12.81-1.68,19.12s-3.39,12.7-3.51,19.26a29.93,29.93,0,0,0,3.94,15.56,42.16,42.16,0,0,0,10.3,11.53,114.82,114.82,0,0,0,12.83,8.71c2.28,1.37,5.15,2.6,6.89,4.66,2,2.4,1,5.31-1.18,7.14-3.87,3.21-9.95,3.58-14.77,3.69a51.47,51.47,0,0,1-15-1.93,60.66,60.66,0,0,1-26.54-15.83,64.76,64.76,0,0,1-16.47-29.17c-3.53-13.22-4.1-27.09-8.39-40.12a65.19,65.19,0,0,0-8.81-17.49c-1.6-2.24-3.43-4.27-4.58-6.79a18.1,18.1,0,0,1,4-20.61A31.37,31.37,0,0,1,106.5,118q3.89-2.13,7.68-4.41a212.3,212.3,0,0,0,54.79-48A211.13,211.13,0,0,0,190,34.45C196.29,23,201.38,10.59,202.7-2.48a62.84,62.84,0,0,0-1-18.76c0-.13-.23-.08-.21,0Z" transform="translate(32 89.5)"/><path class="cls-4" d="M146,204.59c-.73-8.18-2.69-16.17-4.65-24.13s-3.95-15.87-4.59-24a55.24,55.24,0,0,1,.26-11.78,43.09,43.09,0,0,1,1.22-5.85c.54-1.9,1.23-3.76,1.77-5.66,1-3.32,1.65-7.3-.47-10.34a6.23,6.23,0,0,0-7.78-2.07c-2.72,1.41-3.85,4.86-3.39,7.75a6.33,6.33,0,0,0,.28,1.14,3.21,3.21,0,0,1,.33,1,10.77,10.77,0,0,1-.38,2.45,8.73,8.73,0,0,1-1.34,3.17,8,8,0,0,1-3.76,2.57,4.66,4.66,0,0,0-2.91,2.3,5.09,5.09,0,0,0-.24,2.39,21.9,21.9,0,0,0,1.18,4.72,68.6,68.6,0,0,0,4.82,10.27,71.29,71.29,0,0,1,5,10.53,49.44,49.44,0,0,1,2.28,11.61c.72,7.79.44,15.75,2.34,23.38a33.61,33.61,0,0,0,1.79,5.35c.62,1.43,1.46,3,3,3.63,2.75,1,4.37-2,4.91-4.18a13.25,13.25,0,0,0,.34-4.26c-.05-.63-1.05-.65-1,0a12.37,12.37,0,0,1-.37,4.24,5.24,5.24,0,0,1-1.81,3.11c-1.26.81-2.58-.17-3.29-1.24a19,19,0,0,1-2.08-5c-2.21-7.23-2.11-14.89-2.62-22.36a67.07,67.07,0,0,0-1.53-11.1,46.6,46.6,0,0,0-4-10.25c-1.68-3.27-3.55-6.45-5.1-9.79a40,40,0,0,1-2-5.19,15.79,15.79,0,0,1-.87-4,2.7,2.7,0,0,1,1.61-2.83,22,22,0,0,0,3.67-1.82,8.41,8.41,0,0,0,3-5.06,15.93,15.93,0,0,0,.35-2.16,2,2,0,0,0,0-1.1,7.28,7.28,0,0,1-.42-1.13,7.19,7.19,0,0,1,.33-4.51,5.2,5.2,0,0,1,3.05-3,5.14,5.14,0,0,1,4.16.46c3.19,1.84,3.21,6,2.52,9.12-.79,3.68-2.3,7.15-3,10.84a50.07,50.07,0,0,0-.92,11.13c.18,7.7,1.79,15.3,3.58,22.77,1.83,7.67,3.91,15.29,5.12,23.09.3,1.93.55,3.86.72,5.8C145.06,205.22,146.06,205.24,146,204.59Z" transform="translate(32 89.5)"/><path class="cls-4" d="M212.75-15.37c.08,4.84,0,9.7-.38,14.52-.09,1.19-.19,2.38-.31,3.56a5.67,5.67,0,0,0,.08,2.21,3.85,3.85,0,0,0,2.21,2.42A4.06,4.06,0,0,0,219.82,5,16.25,16.25,0,0,0,220.33,2c.16-1.13.29-2.26.39-3.4a64.47,64.47,0,0,0,.22-6.95,63.46,63.46,0,0,0-.63-7.66c-.18-1.28-.4-2.55-.67-3.82a14.62,14.62,0,0,0-1.07-3.73.51.51,0,0,0-.95.24,18.41,18.41,0,0,0,.59,3c.23,1,.43,2.06.61,3.1a61.94,61.94,0,0,1,.72,6.38,65.35,65.35,0,0,1-.45,12.58c-.17,1.32-.15,3.09-1.25,4a2.86,2.86,0,0,1-2.5.57,2.71,2.71,0,0,1-2-1.65,4.22,4.22,0,0,1-.1-1.87c.09-1.06.18-2.13.24-3.19a107.71,107.71,0,0,0-.17-15c0-.34-.55-.36-.55,0Z" transform="translate(32 89.5)"/><path class="cls-4" d="M249.12-19.37c-.31,2.08-.44,4.18-.71,6.27s-.63,4.27-1,6.39a112.19,112.19,0,0,1-3,12.37,109.56,109.56,0,0,1-4.46,12q-1.26,2.85-2.67,5.61l-.72,1.38c-.24.44-.4.73-.15,1.19a3.14,3.14,0,0,0,1.49,1.41,4.46,4.46,0,0,0,3.86-.54,10.89,10.89,0,0,0,3.55-3.27,86.86,86.86,0,0,0,6.1-10.32A109.81,109.81,0,0,0,260-9.8a112.92,112.92,0,0,0,3.48-24.47c0-1,0-2.06,0-3.08a.72.72,0,0,0-1.44,0A111.46,111.46,0,0,1,258-7.86,107.2,107.2,0,0,1,246.42,19c-1.26,2.08-2.48,4.34-4.43,5.86-1.31,1-3.55,2.11-4.56.18,0,.22,0,.44,0,.66a105.7,105.7,0,0,0,11.2-34.66,63.47,63.47,0,0,0,.92-10.38c0-.22-.37-.3-.41-.06Z" transform="translate(32 89.5)"/><path class="cls-4" d="M223.82,526.88c-.32-17.12,5-33.52,10.57-49.51,2.78-8,5.66-16,8-24.2a140.39,140.39,0,0,0,4.85-24.69c1.69-16.76.65-33.62,1.23-50.42.56-16.07,2.57-33.09,11-47.15,3.74-6.24,9.18-12.35,16.35-14.56,7.79-2.39,15.42,1,21.44,5.93a69.8,69.8,0,0,1,8.55,8.47,66.78,66.78,0,0,1,7.53,10.1,30.73,30.73,0,0,1,3.07,23.82c-2.14,8-6.69,15.25-11.95,21.56-4.91,5.9-10.7,11-16.07,16.47-5.14,5.23-10.06,10.81-13.61,17.27a43.75,43.75,0,0,0-4.09,10.17,52,52,0,0,0-1.43,12.68c0,9,1.27,18.29-1.29,27.08-2.17,7.45-7.06,13.58-12,19.39-4.72,5.51-9.64,10.93-12.6,17.64-2.66,6.06-4.24,13.12-2.68,19.68a17.43,17.43,0,0,0,4.29,8,.84.84,0,0,0,1.21-1.15c-4.83-5.07-5.12-12.52-3.6-19,1.7-7.29,5.57-13.37,10.31-19.05,4.87-5.85,10.26-11.44,13.84-18.24a36.13,36.13,0,0,0,3.8-11.47,75.52,75.52,0,0,0,.53-13.36c-.26-8.85-.71-17.67,2.49-26.1,2.69-7.1,7.34-13.26,12.43-18.82s10.85-10.64,16-16.19A70.22,70.22,0,0,0,315.73,371c3.11-7.35,4.3-15.57,2-23.33s-7.81-14.52-13.31-20.4c-5.23-5.58-11.66-11.14-19.39-12.64-7.19-1.4-14,1.43-19.26,6.28-5.69,5.24-9.5,12.22-12.23,19.39a96.39,96.39,0,0,0-5.4,23.6c-1.92,17-.82,34.08-1.35,51.11a155.57,155.57,0,0,1-2.6,25.49,198.68,198.68,0,0,1-7,24.87c-5.43,16.09-11.71,32.11-13.63,49.1a88.8,88.8,0,0,0-.52,12.42c0,.46.74.48.73,0Z" transform="translate(32 89.5)"/><path class="cls-4" d="M263.1,449.45c-.76-2.34-2.07-6.07-5-6.4-2.29-.25-4.15,1.91-5.35,3.57a31.38,31.38,0,0,0-4.1,8.53c-1.06,3.27-1.53,6.67-2.93,9.83-.87,2-2,3.81-2.15,6a9.51,9.51,0,0,0,2.48,7.58,8.62,8.62,0,0,0,7,2.4,9,9,0,0,0,6.68-4.72,33.79,33.79,0,0,0,4.16-23.82,29.5,29.5,0,0,0-.8-3c-.2-.61-1.17-.37-1,.24a31.94,31.94,0,0,1-1.53,22.73c-1.24,2.74-2.7,5.76-5.62,7a7.48,7.48,0,0,1-10.4-6.9,9.15,9.15,0,0,1,.29-3.08,16.65,16.65,0,0,1,1-2.51,36.24,36.24,0,0,0,1.49-3.45,46.44,46.44,0,0,0,1.42-5.2,35.07,35.07,0,0,1,3.06-8.3c1.07-2.05,2.48-4.54,4.62-5.63s3.7.91,4.57,2.66a20.42,20.42,0,0,1,1.05,2.66C262.33,450.3,263.3,450.06,263.1,449.45Z" transform="translate(32 89.5)"/><path class="cls-4" d="M258.54,457.61c-.46-1.41-1.31-3.54-3.09-3.6-1.49-.05-2.58,1.4-3.21,2.57a17.08,17.08,0,0,0-1.53,6.21,37.85,37.85,0,0,1-1.81,6.59c-.47,1.5-1.05,3.35-.31,4.86a3.52,3.52,0,0,0,3.39,1.82,5,5,0,0,0,3-2,15.94,15.94,0,0,0,2.47-4.36c1.46-3.69,2.31-8.26,1.06-12.12-.19-.61-1.16-.38-1,.24,1,3,.53,6.49-.34,9.5a19.7,19.7,0,0,1-1.8,4.38A8.3,8.3,0,0,1,253,474.6a2.34,2.34,0,0,1-2.71,0c-1.26-.79-1.15-2.27-.85-3.55.43-1.81,1.15-3.54,1.65-5.33a20.12,20.12,0,0,0,.62-3.07,23.61,23.61,0,0,1,.43-3c.37-1.53,1.06-3.58,2.5-4.44,1.61-1,2.55,1.48,2.92,2.61C257.77,458.46,258.75,458.22,258.54,457.61Z" transform="translate(32 89.5)"/><path class="cls-4" d="M286.72,351.82c-1.14-1.58-2.62-3.38-4.67-3.7-2.28-.34-3.88,1.49-5.24,3a45,45,0,0,0-7.51,12,59.18,59.18,0,0,0-4.07,13.66c-.9,5.41-.79,10.91-1.36,16.35a21.5,21.5,0,0,1-.54,3.29,20.44,20.44,0,0,0-.56,2.34,3.06,3.06,0,0,0,2.13,3.44,6.8,6.8,0,0,0,5.81-.75,10.94,10.94,0,0,0,4.13-4.45,31.09,31.09,0,0,1,3.66-6A26.31,26.31,0,0,1,283,387.2c3.2-2.26,6.71-4.29,9.19-7.39,6.19-7.79,1.25-17.9-3.46-25-.67-1-1.35-2-2-3-.37-.52-1.25-.05-.88.48a53.9,53.9,0,0,1,6.84,11.89c1.48,3.88,2.18,8.28.46,12.21-1.55,3.53-4.7,5.88-7.79,8s-6.26,4.12-8.5,7.13c-1.35,1.81-2.17,3.94-3.35,5.86a9.07,9.07,0,0,1-4.18,3.71,6,6,0,0,1-2.95.52,3.37,3.37,0,0,1-2.35-1.14c-.79-1.12.08-2.93.37-4.09a39.68,39.68,0,0,0,.78-6.78c.16-2.57.25-5.15.46-7.71a58.5,58.5,0,0,1,2.9-13.9,49.73,49.73,0,0,1,5.7-11.87,40.24,40.24,0,0,1,4.28-5.36,4.82,4.82,0,0,1,2.53-1.66,3.55,3.55,0,0,1,2.77.93,11.48,11.48,0,0,1,2,2.26C286.21,352.81,287.1,352.34,286.72,351.82Z" transform="translate(32 89.5)"/><path class="cls-4" d="M288.91,343.46c-1.55-2.14-3.58-4.6-6.39-4.91-3.12-.34-5.33,2.48-7.13,4.59a61.36,61.36,0,0,0-9.83,16.12,79.45,79.45,0,0,0-5.34,18.45c-1.11,7.12-1,14.36-1.74,21.52a28.09,28.09,0,0,1-.74,4.37,23.62,23.62,0,0,0-.74,3.18,4,4,0,0,0,.45,2.56,5,5,0,0,0,2.8,1.91c2.6.85,5.45-.07,7.68-1.47a12.3,12.3,0,0,0,2.87-2.41,21.89,21.89,0,0,0,2.52-3.93c1.44-2.7,2.75-5.43,4.85-7.7a39.21,39.21,0,0,1,6.15-5.13c4.27-3,8.93-5.73,12.18-9.91,8.11-10.43,1.32-24-4.94-33.4-.86-1.3-1.75-2.57-2.65-3.84-.37-.51-1.25,0-.88.48,3.56,5,7,10.21,9.18,15.95,2,5.27,3,11.24.66,16.58-2.08,4.78-6.33,8-10.5,10.84s-8.45,5.54-11.46,9.59c-1.86,2.51-3,5.46-4.63,8.09a12.15,12.15,0,0,1-5.8,4.93,8,8,0,0,1-3.86.62,4.83,4.83,0,0,1-3.23-1.58c-1.1-1.54,0-3.94.43-5.53a51.12,51.12,0,0,0,1.08-9.24c.22-3.45.34-6.91.62-10.36a79.68,79.68,0,0,1,3.89-18.7A67.15,67.15,0,0,1,272.18,349a52.64,52.64,0,0,1,5.77-7.22,6.25,6.25,0,0,1,3.67-2.25,5.18,5.18,0,0,1,3.73,1.39,17,17,0,0,1,2.68,3C288.4,344.46,289.28,344,288.91,343.46Z" transform="translate(32 89.5)"/><path class="cls-4" d="M291.62,333.09c-2-2.76-4.62-5.95-8.24-6.38-4.09-.49-7,3.27-9.36,6a80.3,80.3,0,0,0-12.85,21.08A106.14,106.14,0,0,0,257,365.48a104.9,104.9,0,0,0-2.91,12.5c-1.5,9.43-1.31,19-2.32,28.48a36.36,36.36,0,0,1-.93,5.68,35.77,35.77,0,0,0-1,4.18,5.18,5.18,0,0,0,.57,3.5,6.48,6.48,0,0,0,3.66,2.44c3.47,1.1,7.27-.22,10.2-2.13a15.86,15.86,0,0,0,3.65-3.19,30.86,30.86,0,0,0,3.25-5.18c1.88-3.55,3.62-7.1,6.4-10.05a52.09,52.09,0,0,1,8.05-6.69c5.65-4,11.84-7.58,16.1-13.15a23,23,0,0,0,4.4-10,29.06,29.06,0,0,0-.42-11.3c-1.82-8.13-6.07-15.6-10.63-22.47-1.13-1.7-2.3-3.38-3.49-5.05-.37-.51-1.25,0-.88.48,4.73,6.61,9.26,13.55,12.17,21.18,2.65,7,3.87,14.84.8,21.88-2.77,6.31-8.37,10.52-13.89,14.32s-11.29,7.39-15.23,12.85c-2.42,3.35-3.89,7.25-6.12,10.71a16,16,0,0,1-7.81,6.38,10.26,10.26,0,0,1-5.22.67,6.29,6.29,0,0,1-4.05-2.12,4.44,4.44,0,0,1-.47-3.37c.24-1.37.68-2.69,1-4a38.62,38.62,0,0,0,.86-5.45c.25-2.27.42-4.56.56-6.85.3-4.61.47-9.23.85-13.84a103.59,103.59,0,0,1,5.21-24.67,88,88,0,0,1,10.41-21.38,67.36,67.36,0,0,1,7.74-9.52c1.34-1.35,2.93-2.6,4.92-2.67a7.22,7.22,0,0,1,4.72,1.93,21.88,21.88,0,0,1,3.53,4C291.12,334.09,292,333.62,291.62,333.09Z" transform="translate(32 89.5)"/><path class="cls-4" d="M216.24,540.26c-3-22.47-6.07-46.51,2.17-68.27,4-10.68,10.46-20.33,13.73-31.34,3.21-10.79,3.78-22.16,3.54-33.36-.43-21.05-3.69-42.47,1.69-63.19,2.37-9.14,6.55-18,13.47-24.56a38.69,38.69,0,0,1,22.68-10.25c17.72-1.86,35.74,6.33,48.32,18.46,7.16,6.91,13.18,15.52,15.45,25.33A36.32,36.32,0,0,1,335.06,376c-5.66,12.72-17.09,21.85-27.2,30.93s-20.8,19.21-24.8,32.71a44.61,44.61,0,0,0-1.68,12.85c0,5.82.68,11.62.21,17.44-.73,9.26-3.67,18.2-7.39,26.66-7.45,16.93-18.11,32.64-22.64,50.76a68.85,68.85,0,0,0-2,13.16c-.06,1.17,1.76,1.19,1.83,0,1-19.28,11.2-36.21,19.64-53,4.17-8.31,8.08-16.85,10.39-25.89a67.52,67.52,0,0,0,2.1-13.78c.26-6-.56-12.07-.31-18.11a41.73,41.73,0,0,1,7-21.06c3.88-6,8.88-11.14,14-16,10.23-9.61,22-18.32,29.49-30.43a40.32,40.32,0,0,0,6.16-19.24c.47-10-3.4-19.63-9.25-27.64-10.7-14.63-27.72-25.23-45.8-27.47a45.54,45.54,0,0,0-24.74,3.49,41.89,41.89,0,0,0-18.88,18.37c-9.63,17.85-9,39.35-7.94,59,.64,11.72,1.43,23.51.38,35.23a83.44,83.44,0,0,1-3.23,17.15,109.29,109.29,0,0,1-6.86,16.16,147.27,147.27,0,0,0-7,15.61,79.35,79.35,0,0,0-3.79,16.24c-1.5,11.52-.85,23.2.46,34.69.64,5.58,1.43,11.14,2.24,16.7.07.53.86.32.79-.2Z" transform="translate(32 89.5)"/><path class="cls-4" d="M216.38,558.6c.15-19.05-10.21-35.64-16.34-53.1-3-8.56-5-17.6-3.91-26.71,1.26-10.42,6.71-19.54,11.93-28.41,5.42-9.18,10-18.57,12.91-28.87a110.57,110.57,0,0,0,4.08-32.26,128.61,128.61,0,0,0-1.61-16.62,174.6,174.6,0,0,1-2.35-18.08,45.44,45.44,0,0,1,7.53-28.26,51.83,51.83,0,0,1,20.27-17.42c9.92-4.83,21.18-6.23,32.11-6a162.43,162.43,0,0,1,31.21,3.93c8.39,1.86,16.77,4.62,23.94,9.47A37.16,37.16,0,0,1,351.6,338c2.45,9.85,1,20.33-2.3,29.79-7.18,20.28-24.05,34.33-38.09,49.81-6.78,7.47-13,15.58-17.43,24.68a60.67,60.67,0,0,0-6.18,30.51c.35,6,1.29,11.86,1.77,17.81a75.43,75.43,0,0,1-.55,17.25c-1.69,11.06-5.69,21.63-10.35,31.75-2.29,5-4.75,9.85-7.21,14.72-.55,1.08,1.06,2.06,1.61,1,5.12-10.1,10.19-20.31,13.79-31.08a84.32,84.32,0,0,0,4.53-33.59c-.49-6.11-1.48-12.17-1.82-18.3a57,57,0,0,1,1.39-16.67c2.5-10.2,7.79-19.48,14.1-27.79,12.93-17,30.8-30.07,41.26-49,9.25-16.74,12.7-39.34.21-55.4-11.21-14.42-30.74-18.34-47.81-20.72-11.37-1.58-23-2.36-34.37-.39A57.34,57.34,0,0,0,237.76,314a50.15,50.15,0,0,0-15.7,21.5c-3.92,10.69-2.69,21.88-.94,32.88a164.69,164.69,0,0,1,2.19,17.71,108.24,108.24,0,0,1-.42,16.79,106.27,106.27,0,0,1-8.53,32.32C210,445,203.65,453.59,199.2,463.27a51.85,51.85,0,0,0-4.45,14.38,48,48,0,0,0,.12,13.65c2.74,18.91,14.12,35.19,18.72,53.58a59.34,59.34,0,0,1,1.93,13.71.43.43,0,0,0,.86,0Z" transform="translate(32 89.5)"/><path class="cls-4" d="M200.41,530.34C189.18,512,185.35,489.2,188.62,468A86.79,86.79,0,0,1,199,438c5.57-9.71,12.63-18.81,15.49-29.81,3.07-11.77.72-24-3.42-35.16a182.36,182.36,0,0,0-7.34-16.71c-2.72-5.58-5.82-11.1-7.36-17.16-1.47-5.84-1.09-12,2.65-16.9,3-3.92,7.41-6.48,11.79-8.53,5.48-2.56,11.15-4.77,16.78-7,6.26-2.47,12.57-4.81,19-6.95,23.65-8,50.14-14.88,74.9-7.95,19.47,5.45,36.22,20.83,41.8,40.5,6.43,22.65-4.34,45-18,62.67-13.8,17.87-31.31,33.1-40.43,54.22-8.74,20.21-8.57,42.74-7.37,64.32,1.24,22.29,3.9,45-.05,67.13a94.81,94.81,0,0,1-4.06,15.46c-.35.95,1.18,1.38,1.52.42,7.78-21.52,6.77-44.63,5.35-67.1s-3.71-45.79,2.19-67.87a92.7,92.7,0,0,1,15.11-30.65c6.87-9.42,14.88-17.91,22.46-26.75,14.63-17.09,28.43-38,26.8-61.53-1.4-20.13-14.61-38.06-32.18-47.39-21.95-11.66-48.19-8.46-71.23-2.21a348.06,348.06,0,0,0-37.59,12.81c-5.59,2.22-11.25,4.38-16.66,7-4.23,2.07-8.34,4.66-11.25,8.44-7.72,10-2,22.44,2.86,32.26,5.62,11.31,11.29,23,13.14,35.63a46.46,46.46,0,0,1-.93,19.07,64.84,64.84,0,0,1-7.31,16c-3,5-6.22,9.81-9,14.91a83.67,83.67,0,0,0-6.23,14.62,94.46,94.46,0,0,0,2.21,63.07,80.56,80.56,0,0,0,7.15,13.8c.24.36.82.05.59-.33Z" transform="translate(32 89.5)"/><path class="cls-4" d="M314.54,570.64c.52-16.77,1.15-33.53,1.63-50.29s.84-33.53,1.23-50.3c.17-7.19.26-14.8,3.25-21.49,2.76-6.19,8-10.46,13.47-14.21a129.34,129.34,0,0,0,15.39-11.79,98,98,0,0,0,13.1-15.15,105.13,105.13,0,0,0,10.07-17.77c.7-1.56,1.36-3.15,2-4.74a8.73,8.73,0,0,1,1.75-3.31,5,5,0,0,1,5.16-.91,4.69,4.69,0,0,1,3.19,4.16,11,11,0,0,1-1.19,4.32A35.12,35.12,0,0,1,381,394c-3.65,5.88-8.67,10.69-13.45,15.62a121.9,121.9,0,0,0-21.5,30.23,152.57,152.57,0,0,0-12.43,35.58,198,198,0,0,0-4.5,38.67,229.46,229.46,0,0,0,2.58,39q.7,4.73,1.61,9.41c.2,1,1.73.62,1.54-.38a231.36,231.36,0,0,1-4.15-39.81,204.17,204.17,0,0,1,3.06-39.57A158.19,158.19,0,0,1,345,445.63a119.53,119.53,0,0,1,20.3-31.41c4.67-5.13,9.84-9.81,14.1-15.3a41.92,41.92,0,0,0,5.5-9.06c1-2.36,2-4.93.8-7.41a6.75,6.75,0,0,0-9.91-2.37,6.38,6.38,0,0,0-1.92,2.56c-.69,1.6-1.27,3.25-2,4.84a103.78,103.78,0,0,1-4.63,9.48,96.63,96.63,0,0,1-26.41,30.81c-5.22,3.9-11,7.09-15.69,11.7a27.39,27.39,0,0,0-5.83,8.16,36.12,36.12,0,0,0-2.77,10.16A100.31,100.31,0,0,0,315.9,469q-.16,6.32-.29,12.62-.3,12.71-.59,25.43c-.39,17.07-.64,34.15-.89,51.23-.06,4.11-.05,8.23-.12,12.34a.27.27,0,0,0,.53,0Z" transform="translate(32 89.5)"/><path class="cls-4" d="M352.56,566.64c1.12-14.9-.52-29.79-2-44.62s-2.65-29.85-.28-44.62a87,87,0,0,1,15.28-37.3c8.18-11.27,19.71-19.75,27.23-31.55a47.25,47.25,0,0,0,7.16-18.3,33.37,33.37,0,0,0,0-9.52c-.26-1.75-.76-3.44-1.07-5.17s-.39-3.57.83-4.89,2.44-1,3.11.49a24.86,24.86,0,0,1,1.23,4.61,60.92,60.92,0,0,1,1.24,9.41,64.31,64.31,0,0,1-1.81,18.95,59.16,59.16,0,0,1-7.33,17.33c-3.72,5.88-8.68,10.75-13.41,15.79A82.58,82.58,0,0,0,370.9,453a90,90,0,0,0-7.61,17.74c-4.09,13.06-5.57,26.82-5.42,40.47.18,15.46,2.38,30.81,5,46,.63,3.72,1.29,7.44,1.95,11.16.19,1.11,1.89.68,1.69-.42-2.76-15.64-5.53-31.32-6.51-47.18-.9-14.41-.28-29,3.15-43,3.14-12.91,8.64-25.35,17.39-35.46,4.72-5.43,10.06-10.31,14.44-16a58.32,58.32,0,0,0,8.75-16.65c4.06-12,4.76-25.69,1.16-37.91a4.91,4.91,0,0,0-2.19-3.26,3.25,3.25,0,0,0-3.27.38c-2.8,1.93-2.47,5.5-1.81,8.41a34.63,34.63,0,0,1,1,10.34,37.86,37.86,0,0,1-2.13,9.85c-4.8,13.62-15.83,23-25.3,33.36a86,86,0,0,0-20,35.48C347,480.47,346.89,495.36,348,510c1.14,15.21,3.44,30.31,3.89,45.57.11,3.68.09,7.36-.1,11,0,.51.75.51.78,0Z" transform="translate(32 89.5)"/><path class="cls-4" d="M392.46,518.24a28.35,28.35,0,0,1,.15-17,31.34,31.34,0,0,1,3.57-7.67,29.23,29.23,0,0,1,2.42-3.23,11.06,11.06,0,0,1,2.67-2.44,6.25,6.25,0,0,1,5.88-.11,6.33,6.33,0,0,1,2.31,2,9.55,9.55,0,0,1,1.32,3.64q2.43,10.53,4,21.24,1.77,12.2,2.39,24.52l1.57-.39c-.43-.93-.87-1.84-1.38-2.72-.38-.66-1.54-.27-1.28.5.35,1,.76,2,1.2,3a.84.84,0,0,0,1.57-.39,265.77,265.77,0,0,0-6.39-45.7,14.09,14.09,0,0,0-1.31-4.06,7.84,7.84,0,0,0-8.95-3.54c-2.56.77-4.32,2.92-5.86,5a31,31,0,0,0-4.21,7.88,29.86,29.86,0,0,0-.44,19.68c.17.48.94.3.78-.2Z" transform="translate(32 89.5)"/><path class="cls-4" d="M383.3,530.61a153.28,153.28,0,0,1,1.42-32A148.3,148.3,0,0,1,387.84,483c.66-2.55,1.37-5.07,2.16-7.58a54,54,0,0,1,2.45-6.87c1.28-2.77,4-7.55,7.78-6.42,2,.62,3.34,2.71,4.48,4.36,1.38,2,2.75,4,4.09,6,5.39,8,10.49,16.27,14.16,25.2a71.75,71.75,0,0,1,4.16,13.88,57.61,57.61,0,0,1,.88,7.16,11.45,11.45,0,0,1,0,3.15,2.76,2.76,0,0,1-.39.94c0-.05-.17.15-.17.14s.31.19.25.2,0-.47,0-.47.06-.16,0-.2,0,0,0,0-.53.27-.68,0c.48.76,1.7.09,1.22-.67s-1.1-.92-1.68-.31a2.34,2.34,0,0,0-.48,2,1.42,1.42,0,0,0,1.71,1.13,2.67,2.67,0,0,0,1.91-2.09,11.73,11.73,0,0,0,.15-3.55c-.08-1.36-.2-2.71-.37-4.06a62.73,62.73,0,0,0-1.44-7.69c-2.6-10.29-7.57-19.81-13.18-28.74C412,474,409,469.66,406,465.33c-1.37-2-2.9-4.14-5.32-4.86a6,6,0,0,0-5.53,1.35c-3.8,3-5.3,8.29-6.7,12.73A143.52,143.52,0,0,0,382,526.28c.07,1.44.17,2.88.28,4.32,0,.64,1,.66,1,0Z" transform="translate(32 89.5)"/><path class="cls-4" d="M376.72,520.29a105.45,105.45,0,0,1,.79-42.28,100.52,100.52,0,0,1,6.64-20,60.07,60.07,0,0,1,4.76-8.92c1.79-2.61,4.4-4.81,7.77-4.06s6.1,3.42,8.49,5.78,4.64,4.69,6.87,7.13a129.5,129.5,0,0,1,12.27,15.46c7.33,11,12.54,23.59,12.81,37,.12,5.82-.36,11.64,0,17.45.29,5.22,1.18,10.86,4.68,15a14.11,14.11,0,0,0,2.76,2.47c.85.6,1.69-.79.83-1.39-4.35-3-5.9-8.39-6.44-13.43-.64-5.94-.18-11.93-.18-17.89a62.89,62.89,0,0,0-3-19.54,79.52,79.52,0,0,0-8.67-18.1,125.61,125.61,0,0,0-12.23-16c-2.22-2.51-4.53-4.94-6.89-7.32s-4.91-5.1-8-6.76-6.29-1.88-9.09.16-4.24,5-5.73,7.89a99.69,99.69,0,0,0-7.7,19.8A104.43,104.43,0,0,0,374,493.79a103.31,103.31,0,0,0,1,21.52q.39,2.6.92,5.18c.11.53.91.32.81-.2Z" transform="translate(32 89.5)"/><path class="cls-4" d="M463.82,542.54a123.54,123.54,0,0,0-9.33-38.43,211.09,211.09,0,0,0-18.92-35c-3.57-5.48-7.45-10.74-11.06-16.2s-6.88-11.4-7.24-18c-.37-6.81,2.66-13,5.61-18.92a66.11,66.11,0,0,0,4.08-9.43c.47-1.48.7-3.06,1.27-4.5a8.48,8.48,0,0,1,2-3,9.12,9.12,0,0,1,6.71-2.53,11,11,0,0,1,4.26,1.26l8.56,4c5.2,2.44,10.55,4.94,14.77,8.93,4.42,4.17,7.45,10.18,7.07,16.36s-4.92,10.55-9.36,14.5a49.26,49.26,0,0,0-6,6.14,40.32,40.32,0,0,0-4.5,7.05c-5.18,10.35-6.25,22.93-.63,33.33,1.67,3.08,3.74,5.9,5.7,8.79a82.36,82.36,0,0,1,4.78,8,88.38,88.38,0,0,1,6.93,17.59,95.06,95.06,0,0,1,2.59,38.23c-.43,3.09-1,6.14-1.77,9.17l1.73,0c-.63-1.84-1.33-3.66-1.95-5.51-.33-1-1.88-.59-1.55.39.62,1.84,1.16,3.71,1.77,5.56a.9.9,0,0,0,1.73,0,94.18,94.18,0,0,0,1.31-38.84,90.52,90.52,0,0,0-14-35.46,99.77,99.77,0,0,1-5.77-8.92,29.11,29.11,0,0,1-3-8.59A35.71,35.71,0,0,1,451,461.17a39,39,0,0,1,8.72-14.79c4.07-4.26,9.37-7.58,12-13.05,2.71-5.63,1.79-12.2-1.13-17.56-3.11-5.69-8.45-9.55-14.09-12.5-3.42-1.79-7-3.37-10.47-5-3-1.41-6.19-3.39-9.6-3.35a10.75,10.75,0,0,0-6.71,2.48,10,10,0,0,0-2.42,2.92,16.35,16.35,0,0,0-1.33,4c-1.74,6.69-5.63,12.49-8.11,18.89a29.36,29.36,0,0,0-2.16,9.64,26.28,26.28,0,0,0,1.57,9.57c2.21,6.27,6.16,11.69,10,17.08A275,275,0,0,1,448.33,494a143.67,143.67,0,0,1,13.34,38.53c.61,3.33,1.05,6.68,1.35,10,0,.51.84.53.8,0Z" transform="translate(32 89.5)"/><path class="cls-4" d="M438.21,414.44c-2.2,1.73-2.87,4.62-3,7.28-.15,2.43.32,4.85,0,7.26-.32,2.16-.89,4.26-1.31,6.4-.35,1.72-.82,3.74-.32,5.48.44,1.56,1.8,2.07,3.31,1.83.57-.09.85-.46,1.25-.86s.83-.86,1.24-1.3c1-1,1.89-2.13,2.78-3.25A44.91,44.91,0,0,0,447,430a15,15,0,0,0,2.11-7.38,10.77,10.77,0,0,0-3.81-7.64c-2.09-1.71-4.79-2.23-7.06-.56-.51.39.18,1.11.69.73,1.85-1.36,4.12-.76,5.76.62a9.83,9.83,0,0,1,3.38,6.33,12.55,12.55,0,0,1-1.61,6.76,41.35,41.35,0,0,1-4.31,6.78,56.64,56.64,0,0,1-4.83,5.55c-.38.38-.48.51-1,.55a2.24,2.24,0,0,1-.93-.1,1.46,1.46,0,0,1-.86-1,10.73,10.73,0,0,1,.28-4.84c.39-2,.9-3.92,1.24-5.9a15.89,15.89,0,0,0,.3-2.92c0-1.32-.18-2.63-.17-3.95,0-2.79.42-6,2.76-7.84C439.41,414.77,438.72,414.05,438.21,414.44Z" transform="translate(32 89.5)"/><path class="cls-4" d="M435.86,405.69c-3.58,2.77-4.67,7.47-4.94,11.77a51.61,51.61,0,0,0,.11,7.25,16,16,0,0,1-.43,5.16c-.88,3.58-2.47,6.95-3.25,10.56-.7,3.21-.54,6.64,2,9a11.14,11.14,0,0,0,2.46,1.73,15.3,15.3,0,0,0,1.43.65,2,2,0,0,0,1.24.08,9.88,9.88,0,0,0,4.08-1.77,27.68,27.68,0,0,0,7.34-8.51,59.75,59.75,0,0,0,5.32-11.51c1.16-3.41,2.29-7.17,2.18-10.8a17.72,17.72,0,0,0-5.06-11.65c-2.56-2.6-6.37-4.55-10.05-3.3a8.28,8.28,0,0,0-2.41,1.3c-.52.38.18,1.1.69.72,3.07-2.29,6.85-1.46,9.7.77a16.66,16.66,0,0,1,5.94,10.25c.59,3.53-.32,7.17-1.34,10.53a58.92,58.92,0,0,1-4.57,11,34.14,34.14,0,0,1-6.58,9,12.92,12.92,0,0,1-3.73,2.52,7.45,7.45,0,0,1-1.86.52,2.45,2.45,0,0,1-1.34-.41,10.93,10.93,0,0,1-1.38-.76,7.14,7.14,0,0,1-3.05-3.65,9.44,9.44,0,0,1-.23-4.42c.54-3.44,2-6.67,3-10a21.24,21.24,0,0,0,1-4.78c.13-2-.2-3.94-.24-5.9-.09-4.22.17-9,2.67-12.55a9.68,9.68,0,0,1,2-2.11C437.06,406,436.36,405.3,435.86,405.69Z" transform="translate(32 89.5)"/><path class="cls-4" d="M439.55,421.35c-1.48,1.17-1.54,3.34-1.44,5.06,0,.12,0,.24,0,.36s0,.12,0,.17,0,.23,0,.08a4.17,4.17,0,0,0,.1.6,2.89,2.89,0,0,0,.48,1,3.29,3.29,0,0,0,1.65,1.19,3.13,3.13,0,0,0,3.62-1.32,5.4,5.4,0,0,0,.16-5.6A4.38,4.38,0,0,0,442.1,421a2.55,2.55,0,0,0-2.55.35.5.5,0,0,0,0,.71.52.52,0,0,0,.71,0c1.05-.78,2.32.18,2.92,1.06a4.08,4.08,0,0,1,.73,2,5.06,5.06,0,0,1-.56,2.5,2.11,2.11,0,0,1-2.44,1.26,2.28,2.28,0,0,1-1.24-.72,2.08,2.08,0,0,1-.36-.59,2,2,0,0,1-.11-.42l0-.18c0-.05,0-.1,0-.14,0,.11,0-.08,0-.09-.11-1.53-.23-3.61,1.11-4.66C440.75,421.68,440.05,421,439.55,421.35Z" transform="translate(32 89.5)"/><path class="cls-4" d="M278,360.93l-3.25,8c-.55,1.38-1.11,2.75-1.67,4.13a32.07,32.07,0,0,0-1.4,3.56,5,5,0,0,0,4.72,6.2,4.88,4.88,0,0,0,4-2,26,26,0,0,0,3.38-6.08c1.65-4,2.65-8.92,1.68-13.26a3.93,3.93,0,0,0-7.5-.58c-.25.59.71.85,1,.27a2.91,2.91,0,0,1,3.11-1.75,3,3,0,0,1,2.52,2.62,22.9,22.9,0,0,1-1.47,11.77,27.45,27.45,0,0,1-2.81,5.47c-.86,1.29-1.87,2.44-3.52,2.53a4,4,0,0,1-4.08-5.15c.4-1.25,1-2.47,1.48-3.69l1.57-3.9c1.07-2.63,2.13-5.27,3.2-7.9C279.16,360.6,278.2,360.34,278,360.93Z" transform="translate(32 89.5)"/><path class="cls-4" d="M510.78-24.09c-7.06,11.94-2.92,26.91-6.49,39.85-3.28,11.9-11,22-20.43,29.68-9.76,8-21.24,13.71-33.05,17.94a231.52,231.52,0,0,1-47.05,11.47c-13.24,1.77-26.91,1.18-40,4.12a41,41,0,0,0-15.5,6.67c-5.17,3.85-8.42,9.06-10.94,14.91-2.81,6.54-5.45,12.93-9.68,18.71A60,60,0,0,1,312.26,134c-4.86,3.19-9.69,5.47-13.44,10.09a30.64,30.64,0,0,0-6.55,15.12c-1.57,11.42,3.72,24.09,13.41,30.46,2.36,1.56,4.52,2.53,6.35,4.76,2,2.45,3.58,5.25,5.35,7.88,3.19,4.74,6.67,8.45,12.57,9.36,6.17,1,12.39.51,18.57,1.71A79.32,79.32,0,0,1,366,218.92a93,93,0,0,1,29.33,21.25,101.28,101.28,0,0,1,20.48,32.53,114.42,114.42,0,0,1,5.34,19.14c1.19,6,2.29,12.16,5,17.69a21.14,21.14,0,0,0,12.12,11c6.29,2.21,13.25,2.3,19.76,3.54,13.59,2.57,26.89,7.28,38.55,14.78a86.42,86.42,0,0,1,28.81,31.22c7.22,13,11.9,27.25,16.28,41.41,10.12,32.75,20,65.56,30,98.35q3.75,12.27,7.49,24.54c.24.78,1.47.48,1.23-.3q-15.14-49.64-30.26-99.27c-4.54-14.9-8.75-30-14.23-44.58C531.05,377.34,525,364.68,516,354.1a88.51,88.51,0,0,0-31.85-23.36c-11.89-5.27-24.33-7.87-37.14-9.64-7.52-1.05-14.52-3.3-18.64-10.15-3.37-5.61-4.57-12.28-5.83-18.61-2.45-12.34-6.32-24-12.72-34.94-11.83-20.13-30.77-36.63-53.29-43.47a75.81,75.81,0,0,0-16.41-3.09c-3.3-.24-6.64-.08-9.92-.57a14.22,14.22,0,0,1-9.28-5.43c-3.52-4.3-5.72-10.09-10.08-13.68-2.16-1.77-4.82-2.82-7-4.65a25.79,25.79,0,0,1-6.57-8.58c-3-6.11-4.58-12.47-3.45-19.28A29.11,29.11,0,0,1,302,142.77c4.44-4.4,10.44-6.76,15.33-10.62a62.42,62.42,0,0,0,13.16-14.31c4-6,6.23-12.66,9.3-19.12a30.77,30.77,0,0,1,13.16-14.29c11-6,24.2-5.82,36.38-6.66A228.65,228.65,0,0,0,436,69.61c12.6-3.59,25.08-8,36.41-14.72,9.81-5.77,18.9-13.25,25.36-22.71a53.35,53.35,0,0,0,7.28-15.38c1.79-6.22,2.05-12.59,2.2-19,.17-7.34.36-15,4-21.53a.32.32,0,0,0-.54-.33Z" transform="translate(32 89.5)"/><path class="cls-4" d="M525-28.63c-.6-1.33-1.18-2.67-1.81-4,0-.1-.19,0-.15.08.56,1.35,1.16,2.68,1.75,4,.07.14.27,0,.21-.11Z" transform="translate(32 89.5)"/><path class="cls-4" d="M520.65-24.71a67.63,67.63,0,0,0-7.52,42.52c1.2,8.07,3.9,16,3.51,24.25a31.77,31.77,0,0,1-6.3,17.3c-7.54,10.21-19.6,15.74-31.86,17.73-15.81,2.58-32,1.29-47.35,6.72-14.8,5.24-28.95,14.89-45.3,13.7-3.17-.23-6.2-1.29-9.35-.3a10.55,10.55,0,0,0-6,4.87,10.37,10.37,0,0,0-.91,7.66c1,4,2.36,7.9,3,12,1,6.58-.44,12.88-5.75,17.15-4,3.22-9,5-13.56,7.17s-9.19,5-11.93,9.52a21.79,21.79,0,0,0-2,17.34c2.06,6.81,7.66,10.79,13.4,14.44,6.41,4.07,13.1,7.76,19,12.57,10.43,8.47,17.05,20.57,25.94,30.5a89.28,89.28,0,0,0,7.76,7.68c.7.61,1.76-.39,1.06-1a109.41,109.41,0,0,1-14.6-16c-4-5.17-7.7-10.54-12-15.43a74.79,74.79,0,0,0-15.81-13c-3.22-2.06-6.52-4-9.76-6.06a52.31,52.31,0,0,1-8.77-6.36A19.42,19.42,0,0,1,340.38,162c1.26-5.71,5-9.83,9.94-12.71,8.44-4.92,20.22-7.22,23.37-17.85,2.21-7.44-.86-14.95-2.66-22.11a8.91,8.91,0,0,1,10.37-10.9,47.08,47.08,0,0,0,22.16-1.79c7.39-2.34,14.34-5.8,21.46-8.82a86.53,86.53,0,0,1,23-6.41c7.9-1,15.88-1.22,23.79-2.06,6.78-.73,13.52-1.9,19.85-4.5a48.64,48.64,0,0,0,14.81-9.37,36.32,36.32,0,0,0,9.44-13.92c2.42-6.63,2.17-13.58.92-20.43-1.43-7.85-3.43-15.46-3.46-23.5a69.27,69.27,0,0,1,3.43-21.85,68,68,0,0,1,4.3-10.24c.17-.31-.3-.6-.47-.29Z" transform="translate(32 89.5)"/><path class="cls-4" d="M587.06,505.89c-8.58-15.12-17.32-30.61-21.53-47.61a93.69,93.69,0,0,1-2.28-27c.38-8.43.61-16.72-.88-25.06-5.55-31-27.88-55.64-53.68-72.16-14.56-9.33-30.27-16.65-45.75-24.28-7.34-3.62-16.13-6.75-20.28-14.3-4-7.2-5-15.91-7.32-23.71a191.09,191.09,0,0,0-21.11-46.72c-9.14-14.57-21-27.36-29.19-42.51-1.91-3.52-4-7.18-4-11.29a14.3,14.3,0,0,1,4.08-9.72c2.43-2.48,5.69-3.38,8.44-5.38a19.13,19.13,0,0,0,6.31-7.85c3.23-7.46-.39-14.52-1.86-21.91-.72-3.64-.64-7.8,1.33-11.08,2.54-4.23,6.68-3,10.81-2.46,11.49,1.48,23.95-1.11,34.45-5.76A44.46,44.46,0,0,0,459,97.45c2.11-2.23,4.82-5.24,5.08-8.46C465,78.2,448,90.72,445.3,92.16a92,92,0,0,1-43.47,10.24A14.89,14.89,0,0,0,388,110.51,14.69,14.69,0,0,0,386,119c.33,3.3,2.08,6.39,3.08,9.52,1.59,5,4,12.61-.28,16.86-2.93,2.94-6.74,5-10.14,7.39-6.13,4.24-15.24,10.76-12.77,19.46,1.3,4.56,5.27,8,8.15,11.63,3.76,4.72,7.33,9.59,10.84,14.5,6.71,9.39,13.16,19,19.5,28.6q2.67,4.08,5.32,8.2c.14.21.82,1.5.67.87a3.14,3.14,0,0,1-.13,1.61c-1.31,3.54-8.73-4.78-9.56-5.66-.5-.54-1.32.25-.82.78,2.1,2.24,4.38,4.76,7.14,6.21.93.49,2.16,1,3.19.47a3.28,3.28,0,0,0,1.32-3.4c-.34-1.42-1.79-3-2.57-4.16q-3.48-5.36-7-10.68c-6.56-9.88-13.25-19.69-20.28-29.25-3.26-4.42-6.59-8.81-10.15-13-3.2-3.76-6.15-7.92-4.22-13,1.59-4.21,5.43-7.36,8.92-10s7.4-4.95,10.95-7.64c3.34-2.54,5.13-5.12,5.09-9.5a35.54,35.54,0,0,0-1.85-10c-1-3.24-2.9-6.55-3.22-9.93-.63-6.61,4.68-13.71,11.15-15,3.32-.65,6.92-.2,10.3-.43a99.92,99.92,0,0,0,10.34-1.26,95.84,95.84,0,0,0,21.55-6.37,70.22,70.22,0,0,0,10.22-5.4c2.74-1.77,5.7-4,9-4.58,2.73-.51,3.79,1.53,3.16,4A14.92,14.92,0,0,1,460,94.58a33.2,33.2,0,0,1-6.48,6.16c-10.08,7.39-23.43,11-35.81,11.31a46,46,0,0,1-8.21-.44c-3.14-.48-6.39-1.36-9.12.8-5,4-4.21,11.75-2.77,17.16,1.15,4.3,2.83,8.65,2.51,13.17a16.86,16.86,0,0,1-4.88,10.49c-2.6,2.65-5.91,3.63-8.83,5.74a15.78,15.78,0,0,0-5.37,6.82c-2.79,6.83.52,13,3.87,18.92a200.43,200.43,0,0,0,14.1,20.8c5.2,7,10.42,13.94,15,21.34a188.14,188.14,0,0,1,12,22.88,193.87,193.87,0,0,1,9.09,25.18c2.1,7.38,3.14,15.59,7.27,22.21s12,9.6,18.71,12.93c7.63,3.77,15.31,7.44,22.9,11.3,15.26,7.76,30.34,16.38,43.21,27.8A111.17,111.17,0,0,1,554.89,386a86.15,86.15,0,0,1,6.78,22.51c1.37,9,.6,17.86.36,26.87-.46,17.38,4.78,33.74,12.4,49.18,3.67,7.42,7.84,14.56,12,21.69.23.38.82.06.6-.32Z" transform="translate(32 89.5)"/><path class="cls-4" d="M537.92-21.49c-9.66-4.38-18.69,4.29-22.23,12.69-5.25,12.45-.12,26.46,4.75,38.16,5.63,13.54,13,29,8,43.88-3.9,11.73-14.85,18.15-26.2,21.21-11.12,3-22.79,2.8-33.93,5.72a44.17,44.17,0,0,0-14.65,6.51c-5,3.57-8.5,8.4-11.25,13.83-2.95,5.86-5.15,12.09-8.71,17.63a95.39,95.39,0,0,1-10.83,13.24c-6.94,7.44-14.87,15-18.24,24.87a28.68,28.68,0,0,0,4.26,26.24c5.78,7.94,14.18,13.5,21.51,19.88A61.25,61.25,0,0,1,441,233.65,45.5,45.5,0,0,1,447.69,251c2.4,12.38,2.07,25.57,7.77,37.12,9,18.13,29,24.32,46.8,30.3,10,3.37,20.21,6.89,29.08,12.8,9.4,6.27,16.5,15.23,21.59,25.24,10.93,21.47,13.85,46.21,17.86,69.66,5.05,29.51,13.57,58,23.52,86.17,2.55,7.25,5.17,14.47,7.79,21.7.26.72,1.43.43,1.16-.29-10.37-28.6-20.77-57.32-27.36-87.08-5.3-23.94-7.33-48.63-14.58-72.12-3.22-10.41-7.53-20.62-14-29.44a63.45,63.45,0,0,0-22.52-19c-17.54-8.95-38.27-11.34-54.57-22.75-9.27-6.49-15.08-15.81-17.53-26.81-2.73-12.19-2.2-25.19-7.14-36.84-3.9-9.22-11.51-15.87-19.09-22.07s-15.79-12.2-19.9-21.17c-10.33-22.56,13.76-38.58,25.49-54.15,7.58-10.06,9.8-23.72,19.22-32.39,9.18-8.45,22.21-10.23,34.1-11.65C495.81,97,506.43,95.52,515.62,90a30.65,30.65,0,0,0,15.32-26c.36-14.14-6.64-26.86-11.6-39.66-5.11-13.18-8.51-29.35,2.11-40.84,4.22-4.56,10.26-7.3,16.3-4.68.2.08.38-.21.17-.3Z" transform="translate(32 89.5)"/><path class="cls-4" d="M604.26,514.27c-12.72-54.12-26.36-108-39.57-162-3.12-12.75-5.78-25.72-9.49-38.32-1.36-4.63-3.17-9.37-6.45-13s-8.17-5.63-13-6.84c-5.12-1.28-10.24-2.2-15.13-4.28a58.67,58.67,0,0,1-12.88-7.62c-8.68-6.67-15.71-15.33-21.58-24.5a161,161,0,0,1-14.88-29.4c-3.45-9.11-5.87-19.11-5.14-28.91a28.29,28.29,0,0,1,3.95-13.06c2.56-4,6.39-6.47,10.45-8.8,5.92-3.41,13.76-7.88,11.7-16-1.93-7.65-16-14.82-7.62-23.29,6.43-6.51,16.48-3.88,24.33-6.93,3.22-1.25,6.16-3.37,7.44-6.69,2-5.08-1.28-10.07-.57-15.21,1.14-8.27,10.92-11.4,17.25-14.85,7.26-4,12.74-9.45,13.77-18,1.27-10.55-3-21.24-5.86-31.18-3.51-12-4.75-23.73-2.29-36.08,2.49-12.51,7.69-24.31,13.64-35.53,2.87-5.42,5.94-10.72,9-16a.78.78,0,0,0-1.34-.8C547.7-22.47,534.84.64,535.68,25.45c.38,11.22,4.43,21.63,7.32,32.35,2.7,10,5,22.44-3.51,30.45-5.85,5.54-14.14,7.37-20.26,12.51a13.35,13.35,0,0,0-4.9,8.28c-.76,5.28,2.86,10.77.29,15.8-4.29,8.41-16.53,5.77-24,8.22-7,2.3-12.69,8.6-8.68,16.13,2.06,3.86,5.85,6.47,7.9,10.33,2.44,4.6.74,9.07-3.06,12.2-6.58,5.39-14.84,7.48-19,15.53-4,7.77-3.8,17.13-2.36,25.53C467.15,222.7,471,232,475.29,241c8.8,18.26,20.89,37,39,47.14a54.62,54.62,0,0,0,13.42,5.35c5.5,1.37,11.41,2,16.34,5,5.34,3.28,8,9,9.8,14.8,1.83,5.94,3.12,12.06,4.6,18.09,13.38,54.35,26.64,108.73,40.16,163.05,1.66,6.66,3.31,13.31,5,20a.32.32,0,0,0,.61-.16Z" transform="translate(32 89.5)"/><path class="cls-4" d="M617.76,514.82C594.14,474,599.44,424.05,593.21,379c-3.05-22.15-9.2-43.24-21.07-62.33-11.31-18.17-25.71-34.16-37.31-52.12-11-17.09-20.87-38.89-16.39-59.72,1.08-5,3.11-10.3,7-13.78,4.3-3.78,9.75-3.69,15-2.3,7.52,2,17.08,7.56,24.39,2.1,6.43-4.81,5.67-13,3.9-19.93-2.31-9-6.82-18.23-5.88-27.73,1.07-10.87,12.1-16.24,15.15-26.22,3.52-11.49-4.63-22.41-10.78-31.3-6.89-10-12.74-22-12.42-34.45A27.4,27.4,0,0,1,560.45,35c3.63-4.68,8.58-8.09,12.91-12.06A36.43,36.43,0,0,0,585.45-3.91c.25-11.3-3.26-22.46-7.6-32.77-2.17-5.17-4.66-10.21-7.29-15.16A.91.91,0,0,0,569-51c5.62,10.53,10.67,21.58,13.22,33.3,2.42,11.13,2.34,23.47-4.48,33.11C571.23,24.6,560,29.3,555.42,40c-4.28,10-2.17,21.37,1.82,31.11a81.15,81.15,0,0,0,8.49,15.38c3.73,5.38,7.74,10.8,9.94,17S577.6,116,574,121.63c-2.81,4.33-6.74,7.8-9.5,12.17-5.05,8-3.28,17.22-.76,25.79,2.24,7.61,7.45,18.23,3.51,26-5.25,10.4-17.53,4-25.59,1.72-4.18-1.17-8.69-1.85-12.84-.22a17.5,17.5,0,0,0-8.66,8.25c-4.77,8.74-4.81,19.32-3.46,28.93A89.6,89.6,0,0,0,526,252.37c9.66,18.93,23.9,35,36.25,52.14a177,177,0,0,1,16.5,26.95,143.21,143.21,0,0,1,10.6,32.64c4.85,23.32,5.55,47.25,7.44,70.92,1.77,22.28,4.39,45,13.14,65.75a108.2,108.2,0,0,0,7.36,14.33c.2.33.71,0,.52-.28Z" transform="translate(32 89.5)"/><path class="cls-4" d="M628.37,514.13c-25.69-47.49-21.41-103.07-19.6-155.07.45-13,.24-26.31-3.84-38.75-4-12.1-12-21.88-19.3-32.06-6.94-9.66-12.7-20-13.52-32.07-.77-11.35,3.42-22.48,14.72-26.68,9.2-3.42,19.57-2.46,28.48-6.83,8.51-4.19,12.68-13,12-22.31-.75-9.68-5.65-19.11-12.39-26-8-8.17-23-14-21-27.91,1.86-12.51,17.36-8.11,25.81-11.49,9-3.59,10.82-14.65,8.37-23.06-3.38-11.58-13.92-19.5-21.4-28.4-8.44-10.07-16.1-21.62-19.23-34.54a42.71,42.71,0,0,1-.35-19.57c1.49-6.49,4.81-12.18,8.39-17.72C601.64,2.21,606.73-7.09,609-18.22c4.15-20,.85-42.05-10-59.4a64.84,64.84,0,0,0-9.27-11.61c-.84-.83-2.17.43-1.34,1.28,15.48,15.56,22,38.65,20.09,60.21a72.33,72.33,0,0,1-10,31.27c-6.3,10.36-13.47,19.73-14.17,32.31-.68,12,3.92,23.77,10.08,33.9,6.59,10.85,15.36,19.5,23.65,29,4.23,4.83,8,10.4,9,16.9.78,5.41-.18,12-4.61,15.65-7.42,6.19-18.89,1-26.26,7.35-8.52,7.31-2.85,20,3.95,26.14,4.3,3.87,9.43,6.74,13.49,10.9a44.12,44.12,0,0,1,9,13.45c4.15,9.67,4.78,22.15-4.11,29.42-8,6.56-19.52,5.64-29,8.25-9.32,2.56-16.13,8.92-18.32,18.48-2.23,9.8-.06,20.52,4.14,29.5,5.24,11.18,13.94,20.33,20.56,30.66,7.52,11.75,10.74,24.66,11.33,38.51.58,13.47-.65,27-1.16,40.42-.49,13.25-.69,26.52-.19,39.77.95,24.92,4.34,50.05,13.63,73.34a142.31,142.31,0,0,0,8.27,17.09.43.43,0,0,0,.75-.41Z" transform="translate(32 89.5)"/><path class="cls-4" d="M633.79-42.34c-14.48,20-29,41.27-30.51,66.67-.66,10.87,1,22.21,6.39,31.81,5.27,9.44,13.91,16,22.7,21.91s18.59,11.73,24.26,21c4.84,7.91,7.74,18.23,5.66,27.46a17.49,17.49,0,0,1-6.64,10.62c-4.09,2.9-9.5,3.18-13.19,6.76-6.47,6.25-5.43,17-2.89,24.77,3.48,10.67,11.85,18.88,15.57,29.45a27,27,0,0,1-2.84,24.34c-8.26,12.41-23,19-34.2,28.31-5.31,4.38-10.25,9.52-13,15.92-3.9,9.07-2,18.46,1.41,27.38,4.91,12.72,9.43,25.26,12,38.69a242.57,242.57,0,0,1,4,37.93c.88,24.86-.74,49.72-.51,74.59.21,23.46,2.08,47.43,10.28,69.61a124.76,124.76,0,0,0,6.82,15.21.78.78,0,0,0,1.36-.75c-23.17-43.7-16-95.65-15.94-143.16,0-24.92-1.75-49.89-9.3-73.78-1.9-6-4.24-11.83-6.56-17.69-2.45-6.16-4.6-12.61-4-19.33.66-7.32,4.52-13.63,9.59-18.77,10.37-10.52,24.31-16.69,34.6-27.29,4.63-4.76,8.27-10.5,9.3-17.15,1.57-10.09-3-19.12-8.23-27.41-5.78-9.17-11.86-18.51-10.82-29.88.49-5.41,3-10.18,8.05-12.55,4.27-2,8.64-2.93,11.9-6.59,5-5.69,5.65-14,4.5-21.18a42.11,42.11,0,0,0-11.25-22.89C644.76,84.1,635.18,79,626.61,72.62c-9.8-7.25-17.27-16.31-20.41-28.27-6.59-25.08,4.11-49.78,17.45-70.57,3.43-5.35,7-10.59,10.65-15.81.22-.32-.29-.61-.51-.31Z" transform="translate(32 89.5)"/><path class="cls-4" d="M645.46,507.15a209.9,209.9,0,0,0,.82-46.87,230.48,230.48,0,0,0-3.21-23c-1.42-7.39-3.33-14.69-4.45-22.14a70.8,70.8,0,0,1-.89-11c0-2.5-.17-5.47,2-7.19a5.36,5.36,0,0,1,5.22-.75c2.59,1,3,3.76,3.65,6.17,1.85,7.54,2.66,15.27,3.55,23q1.4,12,2.78,24.07,2.79,24.06,5.56,48.13c.23,1.95.45,3.9.69,5.84.06.58,1.08.47,1-.12-1.86-16.42-3.85-32.83-5.78-49.25l-2.88-24.56c-.93-8-1.69-16-3.29-23.85-.39-1.92-.83-3.82-1.35-5.71a7.4,7.4,0,0,0-1.47-3.05,6.1,6.1,0,0,0-9.88,1.4,10.35,10.35,0,0,0-.69,3.9c-.08,1.78-.07,3.56,0,5.34.39,7.66,2.08,15.18,3.7,22.64,1.69,7.7,3.07,15.45,4,23.28a232.58,232.58,0,0,1,1.6,23.88c.14,8-.24,16-.76,24.06-.13,1.92-.28,3.83-.46,5.75,0,.33.47.32.51,0Z" transform="translate(32 89.5)"/><path class="cls-4" d="M680.13,512.21c-5.55-9.72-7.7-20.89-9-31.88-1.37-11.31-1.87-22.74-4.08-33.94-1.22-6.21-3.22-12.19-4.86-18.29a88.88,88.88,0,0,1-2.82-17.38c-.72-11.06-.08-22.24-1.85-33.21a48.8,48.8,0,0,0-4.63-14.82c-1.19-2.29-2.58-4.71-4.73-6.24a4.51,4.51,0,0,0-6.26.63c-3.63,3.79-6.14,8.85-7.91,13.74a66.94,66.94,0,0,0-3.47,16.06c-1.27,12.66.5,25.33,1.81,37.91a188.34,188.34,0,0,1,1.23,20c0,6.63-.42,13.26-.26,19.89a73,73,0,0,0,2.57,18.12,126.24,126.24,0,0,0,5.69,15.39c4.36,10.11,9.36,20.15,11.27,31.09a52.26,52.26,0,0,1,.77,8.09.61.61,0,0,0,1.21,0c-.15-10.82-4-21-8.24-30.77-4.35-10-9.21-20-11.09-30.82-2.24-12.91-.22-26.13-1-39.14s-3.09-26.07-3.26-39.2c-.13-10.88,1.27-22.29,6.38-32a37.88,37.88,0,0,1,4.38-6.68c.87-1.05,1.93-2.24,3.42-2.13a5.54,5.54,0,0,1,3.49,2.13,25.74,25.74,0,0,1,4.06,6.9,45.68,45.68,0,0,1,2.46,7.47c2.55,10.58,2.09,21.61,2.49,32.41a109.32,109.32,0,0,0,1.58,16.25c1.17,6.23,3.27,12.23,4.9,18.35,3,11,3.75,22.43,4.92,33.74,1.11,10.75,2.48,21.71,6.71,31.74a55.72,55.72,0,0,0,3.51,6.94.34.34,0,0,0,.59-.32Z" transform="translate(32 89.5)"/><path class="cls-4" d="M707,533.56c-6.59-31.86-13.7-63.6-20.73-95.37q-5.25-23.73-10.5-47.46l-5.37-24.25c-1.56-7.06-2.72-14.37-5-21.25-1.71-5.21-4.56-10.27-10.15-11.92-3.07-.91-6.35-.8-9.41-1.77a15,15,0,0,1-5.72-3.43c-6.67-6.29-8.89-17.32-6-25.89a17.79,17.79,0,0,1,3.48-6.15c1.8-2,4.09-3.58,6.09-5.41,4-3.68,5.45-8.39,3.72-13.6-1.79-5.42-5.85-10.18-6.33-16s3.11-10.38,7.16-14.1,8.74-6.86,12.32-11.13a39.15,39.15,0,0,0,7.76-15.53A63.9,63.9,0,0,0,670,201.53c-.2-4.69-2.14-10.62,2-14.17a8.57,8.57,0,0,1,10.26-.6,8.33,8.33,0,0,1,3.11,5.33,83.14,83.14,0,0,1,1.51,11.76c1,14.7-.35,29.41,1.87,44,3.81,25.12,15.09,49.5,32.78,67.87,15.74,16.33,37.5,25.85,52,43.49a52.93,52.93,0,0,1,12,35.29c-.13,7.93-1.42,15.77-2.61,23.58-1.1,7.2-2,14.41-2.53,21.67a245.88,245.88,0,0,0,9.52,87.52q3,10.08,6.9,19.86c.45,1.14,2.13.21,1.68-.92a242.64,242.64,0,0,1-16.86-88.95q0-11.34,1-22.65c.71-7.74,2-15.4,3.06-23.08,2-13.95,2.89-28.25-3.17-41.37-9.57-20.71-31.23-31.8-48.36-45.34-20.57-16.26-34.71-39.37-41.21-64.69a127,127,0,0,1-3.5-20.21c-.67-7.51-.56-15.06-.57-22.6a138.54,138.54,0,0,0-1.41-23c-.72-4.31-2-8.43-6.45-10.07a10.39,10.39,0,0,0-9.78,1.62,9,9,0,0,0-3,4.29c-.8,2.39-.33,4.81-.11,7.26,1.13,12.81-.1,26.94-8.64,37.22-6.37,7.68-18.85,12.93-19.86,24-.52,5.72,2.71,10.66,5.06,15.61,1.23,2.59,2.33,5.44,2,8.36-.35,3.2-2.41,5.58-4.75,7.61a44.3,44.3,0,0,0-6,5.49,19.52,19.52,0,0,0-3.07,5.54,26.59,26.59,0,0,0-1,13.39c1.44,8.78,7,17.33,16.26,18.89,3.37.57,7,.6,9.89,2.6,2.72,1.86,4.37,4.92,5.51,7.93,2.53,6.69,3.58,14.05,5.13,21l10.77,48.49C686.6,445.8,693.64,478,701,510.2q2.7,11.76,5.49,23.49a.27.27,0,0,0,.52-.13Z" transform="translate(32 89.5)"/><path class="cls-4" d="M720,531.09q-5.79-36.38-11.87-72.7-3-18-6-36c-1.71-10.18-3.36-20.37-5.56-30.46-4-18.29-9.72-37-21.54-51.86a108,108,0,0,0-9.51-10c-3.4-3.32-6.7-7-7.83-11.76-1.32-5.57.09-11.77.74-17.36.69-5.87,1.42-11.74,2.33-17.59.88-5.68,1.92-11.35,3.24-16.95q1-4.1,2.14-8.15a60.23,60.23,0,0,1,2.65-8.09,2,2,0,0,1,3.83.2,17.42,17.42,0,0,1,.06,3.54c0,1.37.09,2.73.18,4.09a100.72,100.72,0,0,0,1.94,14.36c3.92,18.83,13.22,36.85,27.72,49.68,13.44,11.89,30.41,19.63,42.1,33.5a56.51,56.51,0,0,1,12.12,26.18c1.94,10.2,1.67,20.71.82,31-.88,10.55-2.44,21-3.49,31.56a288.19,288.19,0,0,0-1.35,34.26,293.57,293.57,0,0,0,9.21,67.63c1.4,5.44,3,10.82,4.72,16.17.38,1.16,2.22.7,1.85-.46a289.83,289.83,0,0,1-13.23-69,296.9,296.9,0,0,1-.32-35.17c.57-11.13,2-22.16,3.25-33.22,2.28-20,4.12-42.09-5.81-60.52-8.89-16.49-25.66-25.59-40.25-36.28a89.81,89.81,0,0,1-20.58-20.23,93,93,0,0,1-13.13-27.15,101.39,101.39,0,0,1-3.26-14.91q-.55-4-.79-7.94c-.14-2.36.13-4.86-.2-7.19a3.59,3.59,0,0,0-6.15-1.87,5.58,5.58,0,0,0-1,1.95c-.52,1.45-1,2.92-1.48,4.39-.89,2.77-1.68,5.56-2.39,8.38a269.86,269.86,0,0,0-5.91,34.26q-.53,4.38-1,8.76a53.34,53.34,0,0,0-.59,8.83A20.7,20.7,0,0,0,661,327.6c3,3.57,6.71,6.53,9.87,10a73,73,0,0,1,8.52,11.49A115.84,115.84,0,0,1,690.86,376c6.21,20.71,9,42.4,12.55,63.68q6.2,36.92,12.61,73.79,1.53,8.92,3.09,17.83c.1.57,1,.35.88-.22Z" transform="translate(32 89.5)"/><path class="cls-4" d="M735.12,530.1a274,274,0,0,0-10.91-78.78c-3.78-12.95-8.56-25.58-12.18-38.58a311.81,311.81,0,0,1-8.23-39.19c-.24-1.69-.47-3.39-.69-5.09a37.33,37.33,0,0,1-.45-4.34,9.09,9.09,0,0,1,1.66-5.29,9.53,9.53,0,0,1,9.13-3.77c4.84.8,7.35,5.5,9.64,9.34a84.18,84.18,0,0,1,7.47,16.6c4.12,12.44,5.47,25.57,5.94,38.61.48,13.55,0,27.11.39,40.66a320,320,0,0,0,3.83,40.05c2.07,13.28,4.84,26.44,8,39.49q1.17,4.82,2.43,9.61a.88.88,0,0,0,1.7-.43c-3.46-13.29-6.56-26.67-9-40.19A341.45,341.45,0,0,1,739,467.87c-.78-13.79-.37-27.59-.6-41.39-.22-13.36-1-26.92-4.43-39.9a93.73,93.73,0,0,0-6.44-17.48,75,75,0,0,0-4.5-8,21.9,21.9,0,0,0-4.69-5.74c-6.23-4.72-15.88-.85-17.12,6.86-.43,2.65.19,5.42.54,8.05.45,3.4.95,6.78,1.51,10.16q1.66,10,4,19.93t5.3,19.73c2,6.63,4.3,13.18,6.47,19.75a304.74,304.74,0,0,1,10.32,39.43A292.76,292.76,0,0,1,734,520q.24,5,.28,10.08a.41.41,0,0,0,.82,0Z" transform="translate(32 89.5)"/><path class="cls-4" d="M652.54-20.74c-16.86,11.82-23.39,34.13-21.76,53.91.83,10.06,3.74,20.14,9.29,28.63a47.45,47.45,0,0,0,9.93,11c4.54,3.64,9.51,6.7,14.16,10.19s9.17,7.59,11.72,13c3.06,6.45,2.39,13.51.69,20.23s-4.23,13.23-4.77,20.15a30.79,30.79,0,0,0,4.58,18.22c3.29,5.55,7.62,10.37,11.49,15.5a79.62,79.62,0,0,1,10.44,19c5.35,13.74,7.66,28.49,9.46,43.05,3.51,28.36,5.23,61,26,82.84,8.27,8.71,19.67,15.5,32,14.93,6-.27,12.52-2.15,15.61-7.76a27.3,27.3,0,0,0,2.65-9.77,75.79,75.79,0,0,0,.55-11.17c-.76-30.47-18.23-56.83-32.94-82.34-7.82-13.56-15.06-27.69-19.28-42.83-4.26-15.29-4.81-31.08.16-46.27,2.42-7.37,5.69-14.42,8.37-21.7a141.58,141.58,0,0,0,5.54-19.15,156,156,0,0,0,3.3-39.09c-1-26.06-8.25-52.16-21.9-74.48a131.51,131.51,0,0,0-10.59-14.8c-.74-.9-2,.35-1.31,1.25,16.24,19.78,26.15,44.46,30.1,69.62,4,25.71,1.88,52.6-7.3,77-2.69,7.17-5.9,14.15-8.23,21.45a73,73,0,0,0-3.53,22c-.06,14.67,4.16,29,9.93,42.36,11.92,27.62,31.43,51.45,40.87,80.22a97.3,97.3,0,0,1,4.63,21.4c.67,7.21.74,15.18-1.33,22.18-4.23,14.3-23.92,10.87-33.79,5.34-25.87-14.48-32.21-46.64-35.67-73.55-3.54-27.55-5.11-57.6-22.41-80.68-3.93-5.24-8.39-10.13-11.68-15.83a29.35,29.35,0,0,1-3.79-19.64c2-12.56,9.39-25.11,3.81-37.8C673.1,85.52,662.36,80,653.73,73.66a50.41,50.41,0,0,1-18-24.29c-6.76-19.16-4.58-42.46,7.25-59.21A44.33,44.33,0,0,1,653-20.09c.36-.27-.1-.91-.47-.65Z" transform="translate(32 89.5)"/><path class="cls-4" d="M661.58-17.43C653.55-1.36,653,18,658.46,35a63.7,63.7,0,0,0,12.77,22.77,69.32,69.32,0,0,0,10.19,9c4.25,3.23,8.46,6.6,11.06,11.37,5.08,9.33,3.38,20.68,1.94,30.72-.76,5.32-1.61,10.64-1.91,16a67.77,67.77,0,0,0,1.38,17.28c2.47,12.21,7.1,24,11.06,35.78l12.45,37,12.37,36.79q3.09,9.21,6.19,18.4c1,3.11,3.32,5.44,6.81,5.27a6.78,6.78,0,0,0,6.3-4.88c.54-2.07,0-4.39-.33-6.46a83.87,83.87,0,0,0-1.83-8.69c-3-11.29-8-21.78-13.58-32-5.31-9.79-11-19.44-15.3-29.72a88.42,88.42,0,0,1-7.31-34c-.14-24.38,8.78-47.6,14-71.11a182.89,182.89,0,0,0,2.34-66,203.87,203.87,0,0,0-20.2-63.09c-2.47-4.85-5.2-9.5-8.05-14.14-.56-.91-2-.11-1.45.8A205.15,205.15,0,0,1,722.1,6.35a184.71,184.71,0,0,1,3.81,64.71c-2.87,23.26-11.46,45.3-15.27,68.37-1.85,11.23-2.49,22.71-.6,34,1.79,10.68,5.88,20.8,10.71,30.44s10.49,19.05,15.37,28.77c5.27,10.46,9.46,21.68,11,33.34.26,2,.63,4-.7,5.72a5.16,5.16,0,0,1-3.78,1.84,4.66,4.66,0,0,1-4-1.91,11.85,11.85,0,0,1-1.28-3.17q-.78-2.29-1.55-4.6-6-17.92-12.08-35.87c-8-23.84-16.31-47.61-24-71.55-3.65-11.26-6.21-22.57-5.16-34.47.91-10.28,3.55-20.51,3-30.89a32.21,32.21,0,0,0-3.31-13.38C692,73.3,688.42,70,684.57,67s-7.51-5.58-10.78-9a56.77,56.77,0,0,1-7.86-10.39A71.65,71.65,0,0,1,658-4.6,61.2,61.2,0,0,1,662.34-17c.24-.5-.5-1-.76-.45Z" transform="translate(32 89.5)"/><path class="cls-4" d="M674.44-26.54Q675.69-11,677,4.44c.44,5.13.77,10.27,1.29,15.4a13.71,13.71,0,0,0,1.87,6.31,19.32,19.32,0,0,0,4.22,4.2,19.6,19.6,0,0,1,4.57,5.12,42.94,42.94,0,0,1,3.27,6.8A162.67,162.67,0,0,1,697.11,58c.65,2.35,1.3,4.7,2,7a34.28,34.28,0,0,0,2.08,5.37,5.47,5.47,0,0,0,2.57,2.83,2.61,2.61,0,0,0,3.29-1.6,119.47,119.47,0,0,0,3.13-27.82,156.64,156.64,0,0,0-2.73-28,224.86,224.86,0,0,0-7.07-27.64c-2.89-9-6.25-17.94-9.87-26.72q-1.32-3.18-2.68-6.35c-.44-1-2-.18-1.53.84,3.66,8.52,7.09,17.14,10.14,25.89a249.09,249.09,0,0,1,7.81,26.9,170.28,170.28,0,0,1,4,27.41,126.14,126.14,0,0,1-1.25,27.39c-.37,2.24-.79,4.46-1.29,6.67a5.48,5.48,0,0,0-.21.89s-.12.46.08.11a.2.2,0,0,1-.07.06s-.1.09-.15.14-.23.17-.12.1-.18.1-.25.15l-.15.07c.05,0,.13,0,0,0s-.34,0-.11,0h-.31c.24,0,0,0-.1,0s-.12-.06,0,0l-.15-.08-.27-.18c.18.13-.07-.07-.16-.15l-.26-.3-.13-.15c-.09-.11-.06-.09,0-.07a17.57,17.57,0,0,1-2-4.23c-.76-2.11-1.39-4.27-2-6.42-1.48-5.15-2.85-10.34-4.62-15.4-1.59-4.53-3.45-9.28-6.64-12.95-2.08-2.4-5.12-3.84-6.83-6.58a14.58,14.58,0,0,1-1.67-6.49c-.24-2.52-.46-5-.7-7.56C677.89,1.09,677-9,676-19.06l-.72-7.47c0-.53-.89-.55-.84,0Z" transform="translate(32 89.5)"/><path class="cls-4" d="M675.24-19.35a33.6,33.6,0,0,0,1.42,9.65,72.93,72.93,0,0,0,3.17,9.2c1.27,3.09,2.69,6.12,4.16,9.11q1.14,2.31,2.3,4.61a4.43,4.43,0,0,0,2,2.11,4.39,4.39,0,0,0,4.89-.91,4,4,0,0,0,1.13-2.35,11,11,0,0,0-.79-4Q690.6-2.3,687.7-12.7q-1.63-5.82-3.26-11.64c-1.1-3.93-2.16-7.87-3.42-11.74a.58.58,0,0,0-1.13.28c1.57,6.63,3.56,13.16,5.4,19.72S689-2.95,690.83,3.61l1.35,4.8c.22.78.46,1.55.66,2.33a3.27,3.27,0,0,1,.1,1.32,3,3,0,0,1-3.26,2.37,2.76,2.76,0,0,1-2-1.21,38.17,38.17,0,0,1-2-3.91c-1.45-2.84-2.86-5.7-4.16-8.61a78.56,78.56,0,0,1-3.72-10c-.48-1.66-.9-3.35-1.23-5s-.51-3.4-.79-5.09c0-.29-.48-.22-.5,0Z" transform="translate(32 89.5)"/><path class="cls-4" d="M742.09-35.73Q748.24-.78,754.8,34.09c4.31,23.14,9.56,46.44,10.05,70.06.46,22-5.83,42.78-8.89,64.38-1.36,9.63-1.94,19.53,0,29.13a54.26,54.26,0,0,0,11.65,24c6,7.32,13.2,13.57,18.88,21.16a66.89,66.89,0,0,1,11.8,26.93,71.53,71.53,0,0,1-.29,30c-2.32,10.16-7.47,19.34-10.3,29.34-2.93,10.38-2.48,21.21-2.19,31.89l1,35.83c.64,23.48,1.22,46.95,1.92,70.42,1.16,39,3.1,80,20.45,115.7a135.17,135.17,0,0,0,7,12.52c.63,1,2.26.13,1.63-.89-21.54-34.44-25.26-76.41-26.8-116-.88-22.81-1.31-45.65-1.93-68.47l-1-35.21c-.31-11.49-1.28-23.22-.19-34.69,1-11,5.77-20.59,9.49-30.81a73,73,0,0,0,4.48-27.78,74.29,74.29,0,0,0-5.77-26.2c-3.56-8.38-8.9-15.45-15.08-22.07-6.61-7.07-13.8-13.84-18.35-22.52-4.81-9.17-6.2-19.55-5.8-29.79.83-21.18,8.1-41.5,9.63-62.61,1.65-22.87-2.57-45.65-6.79-68-4.34-23-8.6-46.08-13.2-69q-1.7-8.55-3.41-17.08c-.08-.4-.68-.25-.61.15Z" transform="translate(32 89.5)"/><path class="cls-4" d="M555.6,110.86a5.23,5.23,0,0,0,.25-5A7.14,7.14,0,0,0,552,103a15.62,15.62,0,0,0-5.24-1,12.64,12.64,0,0,0-2.3.14,7.51,7.51,0,0,0-.82.19l-.44.16c-.07,0-.41.18-.16.08a55.8,55.8,0,0,0-8.84,4.09,14.11,14.11,0,0,0-4.54,4c-1.41,2.17-1,4.69.07,6.91,1.25,2.65,3.26,5,3.8,8a10.08,10.08,0,0,1-2.36,8,21.1,21.1,0,0,1-7.21,5.7,85,85,0,0,1-8.54,3.36,34.43,34.43,0,0,0-8,3.93c-2.27,1.61-4.8,4-5.27,6.85s1.28,5.22,2.88,7.35a23.9,23.9,0,0,1,2.47,3.68,10.9,10.9,0,0,1,1.09,4.65c.11,6.94-4.66,12.44-8.85,17.44A42.22,42.22,0,0,0,494,194.6a17.63,17.63,0,0,0-1.88,8.15,12.75,12.75,0,0,0,2.63,7.61c1.76,2.23,4.53,4.17,7.47,4.21a7.75,7.75,0,0,0,5.68-2.59,8.06,8.06,0,0,0,1.48-2.13,10.23,10.23,0,0,0,.63-3c.86-6.48.87-13.06,1.93-19.5.75-4.51,2.37-9.23,6-12.22s8.65-3.32,13.16-2.51c2.28.41,4.53,1,6.82,1.41a18.15,18.15,0,0,0,7.19.23,4.65,4.65,0,0,0,2.46-1.39,19.17,19.17,0,0,0,3-4.22,15.29,15.29,0,0,0,1.63-7.77,27.66,27.66,0,0,0-1.43-6.79,63.41,63.41,0,0,1-2.33-9.7,47.43,47.43,0,0,1,.68-17.61,55,55,0,0,1,4.48-12.08c.64-1.29,1.33-2.56,2-3.84.3-.56-.56-1.08-.85-.51a97.81,97.81,0,0,0-4.4,9.18,49.18,49.18,0,0,0-3.28,14.09,52.06,52.06,0,0,0,2.22,19,48.8,48.8,0,0,1,1.74,6.48,15,15,0,0,1-.74,7.72,16.21,16.21,0,0,1-2.4,4.12,5.39,5.39,0,0,1-2.75,2.24c-2.21.62-4.71.22-6.93-.16-4.67-.81-9.21-2.34-14-1.65a14.08,14.08,0,0,0-9.94,6.44c-2.79,4.36-3.44,9.61-3.91,14.65-.31,3.3-.53,6.6-.83,9.9-.14,1.54-.3,3.08-.51,4.61a6.76,6.76,0,0,1-4.91,6.28c-2.85.88-5.62-.59-7.63-2.55-4.2-4.09-4-10.67-1.59-15.63,2.93-6,8.3-10.23,11.67-15.9a21,21,0,0,0,3-8.61,12.58,12.58,0,0,0-2.17-8.42c-1.51-2.22-3.81-4.37-4.24-7.14-.47-3,2.15-5.68,4.37-7.37,4.73-3.61,10.77-4.74,16.09-7.18,4.87-2.24,10.16-6.47,11-12.12.41-2.88-.69-5.45-2.09-7.9-1.29-2.27-3.26-5-2.64-7.72.42-1.9,2-3.29,3.55-4.38a33.27,33.27,0,0,1,5.69-3.16c1.28-.58,2.6-1.12,3.93-1.59a9.11,9.11,0,0,1,2.63-.63,15.54,15.54,0,0,1,5,.56,7.56,7.56,0,0,1,4.08,2.41,4.1,4.1,0,0,1,0,4.38C554.46,110.92,555.31,111.44,555.6,110.86Z" transform="translate(32 89.5)"/><path class="cls-4" d="M473.18,129.2a39.38,39.38,0,0,1,8.14-4.18c2.57-1,5.22-1.71,7.85-2.5a30,30,0,0,0,6.79-2.66,21.09,21.09,0,0,0,5.38-4.53,21.37,21.37,0,0,0,3.59-6c.79-2.06,1.43-4.3.15-6.3a5,5,0,0,0-2.34-2,6.46,6.46,0,0,0-3.46-.17A40.51,40.51,0,0,0,491,103a68.38,68.38,0,0,0-15.07,8.2,123.39,123.39,0,0,0-13.71,11,59.76,59.76,0,0,0-6.18,6.35,11.13,11.13,0,0,0-2.3,6.27c-.27,4.26,1.51,8.57.62,12.8a10.65,10.65,0,0,1-4.05,5.91c-2.06,1.7-4.32,3.13-6.37,4.84a38.38,38.38,0,0,0-8.63,10.15,64.72,64.72,0,0,0-5.3,12.62c-.89,2.75-1.8,5.61-1.63,8.54a11.34,11.34,0,0,0,3.25,7.08,89.43,89.43,0,0,0,7,6.32,11.25,11.25,0,0,0,2.62,2,4.2,4.2,0,0,0,4.91-1.18,4,4,0,0,0,.94-2.57,17.86,17.86,0,0,0-.92-3.92,17.11,17.11,0,0,1-.13-9c1.24-4.08,4.61-6.81,8-9.09s6.91-4.15,9.63-7.08a13.48,13.48,0,0,0,3-5,14.62,14.62,0,0,0,.42-6.67c-.67-4.71-2.78-9.05-3.74-13.69a15.5,15.5,0,0,1-.06-6.91,13.62,13.62,0,0,1,3.89-6.33,42.56,42.56,0,0,1,6-4.62c.53-.36.05-1.24-.48-.88-4,2.69-8.26,5.69-10,10.37-1.59,4.3-.4,8.92.92,13.12s3.18,8.76,2.57,13.3c-.54,4-3.27,7-6.44,9.36s-6.71,4.17-9.73,6.72a17,17,0,0,0-3.74,4.29,13.78,13.78,0,0,0-1.81,7.26A22.35,22.35,0,0,0,445,197c.15.72.33,1.43.53,2.14a12.94,12.94,0,0,1,.53,2,3.21,3.21,0,0,1-3.26,3.44c-1.27,0-2.11-.91-3-1.69L436.47,200c-2.94-2.58-6.41-5.21-7-9.33-.44-2.92.44-5.84,1.32-8.59.72-2.25,1.49-4.49,2.37-6.68a41.45,41.45,0,0,1,6.3-11,38.18,38.18,0,0,1,4.68-4.75c1.95-1.68,4.1-3.1,6.13-4.68a13.69,13.69,0,0,0,4.61-5.46,12.84,12.84,0,0,0,.61-5.93c-.36-4.15-1.72-8.66.27-12.61a13.47,13.47,0,0,1,2.35-3.11q1.5-1.6,3.06-3.13,3.17-3.11,6.58-5.94a110.38,110.38,0,0,1,13.71-9.92,51.88,51.88,0,0,1,15.46-6.51c2.27-.5,5.1-1.32,6.91.64s.89,4.27.06,6.33a20,20,0,0,1-9.09,10.1,36,36,0,0,1-7,2.53c-2.53.74-5.05,1.5-7.49,2.47a39.77,39.77,0,0,0-7.57,3.95C472.17,128.68,472.64,129.56,473.18,129.2Z" transform="translate(32 89.5)"/><path class="cls-4" d="M498.71,239.05c-1.51-.8-3.63-1.41-5.25-.56-2.27,1.19-1.25,4-.55,5.8a37.32,37.32,0,0,0,13.93,17.45.5.5,0,0,0,.7-.67l-.05-.07-.8.58a4.25,4.25,0,0,0,4.1,1.45.51.51,0,0,0,.38-.48,24.89,24.89,0,0,0-7.49-19.82,23.53,23.53,0,0,0-5-3.68c-.56-.31-1.08.55-.51.86a23.91,23.91,0,0,1,11.72,16.62,22.42,22.42,0,0,1,.25,6l.38-.48a3.24,3.24,0,0,1-3.13-1.17c-.37-.43-1.11.11-.8.59l0,.07.7-.67a36,36,0,0,1-9.22-9,36.55,36.55,0,0,1-3.21-5.43q-.69-1.46-1.26-3c-.37-1-1-2.37-.43-3.43.9-1.72,3.67-.84,5-.15C498.76,240.21,499.28,239.35,498.71,239.05Z" transform="translate(32 89.5)"/><path class="cls-4" d="M520.3,144.8c-3.7,2-8,4.3-8.73,8.9a6.53,6.53,0,0,0,2.59,6.31,19.85,19.85,0,0,0,8.25,3.45,56.78,56.78,0,0,0,10.07,1.22c1.55.06,3.1.07,4.66,0a25,25,0,0,0,4.05-.33c2-.41,4-1.53,4.63-3.66s-.22-4.37-1.23-6.2a21.77,21.77,0,0,0-5.39-6.31c-4.56-3.72-10.9-6.32-16.76-4.34a13.62,13.62,0,0,0-2.14.94.5.5,0,0,0,.48.88c5.2-2.84,11.3-1.21,16,1.94a23,23,0,0,1,5.88,5.63,11.09,11.09,0,0,1,2.39,5.84c.13,5.06-6.65,4.65-10.1,4.64a63.55,63.55,0,0,1-9.45-.71,28.72,28.72,0,0,1-8.62-2.48c-2-1-4-2.55-4.32-4.89-.58-3.73,2.49-6.6,5.38-8.35.94-.57,1.91-1.09,2.88-1.62A.5.5,0,0,0,520.3,144.8Z" transform="translate(32 89.5)"/><path class="cls-4" d="M531,154.06a6.19,6.19,0,0,0-4.52-5.18c-2.68-.75-6.08-.12-7.83,2.16-1.23,1.6-1.59,4.06.3,5.28,1.7,1.09,4.1,1.05,6,1,1.2,0,2.41-.14,3.61-.28a2.65,2.65,0,0,0,2.4-3c-.07-.64-1-.39-1,.24a1.55,1.55,0,0,1-.6,1.36,2.7,2.7,0,0,1-1.49.43c-.89.09-1.78.16-2.67.2a12.73,12.73,0,0,1-5.21-.52,2.24,2.24,0,0,1-1.34-1.18,3,3,0,0,1,.36-2.38c1.24-2.27,4.22-3,6.61-2.49A5.27,5.27,0,0,1,530,154.3C530.13,154.93,531.1,154.69,531,154.06Z" transform="translate(32 89.5)"/><path class="cls-4" d="M519.93,300.56c-5.49-4.77-12.22-7.62-18.8-10.53s-13.3-5.95-18.38-11.16S474.7,267,472.12,260.32s-4.89-13.62-8.66-19.79a12.7,12.7,0,0,0-3.26-4.07,4,4,0,0,0-4.58.14c-3.58,2.52-2.42,7.11-1.15,10.57q4.63,12.59,10.46,24.68,2.94,6.09,6.15,12c2,3.77,4,7.75,6.79,11,4.95,5.89,12.49,8.3,19.63,10.34,4.08,1.17,8.35,2,12.22,3.82,2.2,1,4.2,2.4,6.42,3.39,1.71.76,4,1.54,5.66.3a5,5,0,0,0,1.7-2.88,7.85,7.85,0,0,0-.16-5,12.42,12.42,0,0,0-3.41-4.34c-.47-.42-1.2.27-.72.69a10.76,10.76,0,0,1,3.37,4.47,7.28,7.28,0,0,1-.32,4.78,2.83,2.83,0,0,1-1.8,1.84,4.75,4.75,0,0,1-2.66-.27,40.58,40.58,0,0,1-6.2-3.15,46.68,46.68,0,0,0-10.18-3.6c-7-1.89-14.61-3.7-20.25-8.49-3.1-2.64-5.14-6.1-7.11-9.61q-3.17-5.64-6.07-11.42-5.81-11.55-10.55-23.61c-.79-2-1.59-4.07-2.32-6.13s-1.34-4.18-.69-6.23a4.18,4.18,0,0,1,3.66-3.05c1.85,0,3,1.9,3.89,3.28,3.8,5.86,6.12,12.5,8.59,19,2.42,6.34,5,12.74,9.3,18.08s10.28,8.94,16.48,11.84,12.91,5.37,18.76,9.2a38.49,38.49,0,0,1,4.1,3.08C519.69,301.67,520.42,301,519.93,300.56Z" transform="translate(32 89.5)"/></g></svg>