<svg xmlns="http://www.w3.org/2000/svg" xmlns:xlink="http://www.w3.org/1999/xlink" viewBox="0 0 1664.07 832.98"><defs><style>.cls-1{isolation:isolate;}.cls-2{fill:#fff;}.cls-3{opacity:0.94;}.cls-4{fill:url(#linear-gradient);}.cls-5{fill:url(#linear-gradient-2);}.cls-6{fill:url(#linear-gradient-3);}.cls-7{fill:url(#linear-gradient-4);}.cls-8{fill:url(#linear-gradient-5);}.cls-9{fill:url(#linear-gradient-6);}.cls-10{fill:url(#linear-gradient-7);}.cls-11{fill:url(#linear-gradient-8);}.cls-12{fill:url(#linear-gradient-9);}.cls-13{fill:url(#linear-gradient-10);}.cls-14{fill:#cec4d6;}.cls-15{fill:#e5dfe9;}.cls-16{fill:url(#linear-gradient-11);}.cls-17{fill:url(#linear-gradient-12);}.cls-18{fill:#5c479e;}.cls-19{fill:#aca5b5;}.cls-20{fill:#c0b8cc;}.cls-21{fill:#34254c;}.cls-22{fill:#51347f;}.cls-23{fill:url(#linear-gradient-13);}.cls-24{fill:url(#linear-gradient-14);}.cls-25{fill:url(#linear-gradient-15);}.cls-26{fill:url(#linear-gradient-16);}.cls-27{fill:url(#linear-gradient-17);}.cls-28{fill:url(#linear-gradient-18);}.cls-29{fill:url(#linear-gradient-19);}.cls-30{fill:url(#linear-gradient-20);}.cls-31{fill:url(#linear-gradient-21);}.cls-32{fill:url(#linear-gradient-22);}.cls-33{fill:url(#linear-gradient-23);}.cls-34{fill:url(#linear-gradient-24);}.cls-35{fill:url(#linear-gradient-25);}.cls-36{fill:url(#linear-gradient-26);}.cls-37{fill:#c8b8d3;}.cls-38{fill:url(#linear-gradient-27);}.cls-39{fill:url(#linear-gradient-28);}.cls-40{fill:url(#linear-gradient-29);}.cls-41{fill:url(#linear-gradient-30);}.cls-42{fill:url(#linear-gradient-31);}.cls-43{fill:url(#linear-gradient-32);}.cls-44{fill:url(#linear-gradient-33);}.cls-45{fill:url(#linear-gradient-34);}.cls-46{fill:url(#linear-gradient-35);}.cls-47{fill:#2d2244;}.cls-48{fill:url(#linear-gradient-36);}.cls-49{fill:url(#linear-gradient-37);}.cls-50{fill:url(#linear-gradient-38);}.cls-51{fill:url(#linear-gradient-39);}.cls-52{fill:url(#linear-gradient-40);}.cls-53{fill:url(#linear-gradient-41);}.cls-54{fill:url(#linear-gradient-42);}.cls-55{fill:url(#linear-gradient-43);}.cls-56{fill:url(#linear-gradient-44);}.cls-57{fill:url(#linear-gradient-45);}.cls-58{fill:url(#linear-gradient-46);}.cls-59{fill:url(#linear-gradient-47);}.cls-60{fill:url(#linear-gradient-48);}.cls-61{fill:url(#linear-gradient-49);}.cls-62{fill:url(#linear-gradient-50);}.cls-63{fill:url(#linear-gradient-51);}.cls-64{fill:url(#linear-gradient-52);}.cls-65{fill:url(#linear-gradient-53);}.cls-66{fill:url(#linear-gradient-54);}.cls-67{fill:url(#linear-gradient-55);}.cls-68{fill:url(#linear-gradient-56);}.cls-69{fill:url(#linear-gradient-57);}.cls-70{fill:url(#linear-gradient-58);}.cls-71{fill:url(#linear-gradient-59);}.cls-72{fill:url(#linear-gradient-60);}.cls-73{fill:url(#linear-gradient-61);}.cls-74{fill:url(#linear-gradient-62);}.cls-75{fill:url(#linear-gradient-63);}.cls-76{fill:url(#linear-gradient-64);}.cls-77{fill:url(#linear-gradient-65);}.cls-78{fill:url(#linear-gradient-66);}.cls-79{fill:#988ca5;}.cls-80{fill:url(#linear-gradient-67);}.cls-81{fill:url(#linear-gradient-68);}.cls-82,.cls-83{mix-blend-mode:overlay;}.cls-82{fill:url(#linear-gradient-69);}.cls-83{opacity:0.57;fill:url(#linear-gradient-70);}</style><linearGradient id="linear-gradient" x1="901.69" y1="807.34" x2="1091.35" y2="807.34" gradientTransform="matrix(1, -0.07, 0.07, 1, -67.26, 114.99)" gradientUnits="userSpaceOnUse"><stop offset="0" stop-color="#34254c"/><stop offset="1" stop-color="#51397f"/></linearGradient><linearGradient id="linear-gradient-2" x1="870.18" y1="1025.48" x2="1090.65" y2="1025.48" gradientTransform="matrix(1, -0.07, 0.07, 1, -67.26, 114.99)" gradientUnits="userSpaceOnUse"><stop offset="0" stop-color="#e1dae5"/><stop offset="1" stop-color="#f7f4f9"/></linearGradient><linearGradient id="linear-gradient-3" x1="803.59" y1="923.63" x2="865.63" y2="923.63" gradientTransform="matrix(1, -0.07, 0.07, 1, -67.26, 114.99)" gradientUnits="userSpaceOnUse"><stop offset="0" stop-color="#c8b8d3"/><stop offset="1" stop-color="#c8b8d3" stop-opacity="0.3"/></linearGradient><linearGradient id="linear-gradient-4" x1="795.01" y1="983.08" x2="1055.94" y2="983.08" xlink:href="#linear-gradient-3"/><linearGradient id="linear-gradient-5" x1="887.45" y1="1179.81" x2="941.03" y2="1179.81" gradientTransform="matrix(1, -0.07, 0.07, 1, -67.26, 114.99)" gradientUnits="userSpaceOnUse"><stop offset="0" stop-color="#c8b8d3" stop-opacity="0.9"/><stop offset="1" stop-color="#c8b8d3" stop-opacity="0.3"/></linearGradient><linearGradient id="linear-gradient-6" x1="932.57" y1="1067.98" x2="1095.11" y2="1067.98" xlink:href="#linear-gradient-5"/><linearGradient id="linear-gradient-7" x1="1073.57" y1="1150.92" x2="1144.01" y2="1150.92" xlink:href="#linear-gradient-5"/><linearGradient id="linear-gradient-8" x1="1186.51" y1="1022.05" x2="1124.07" y2="1054.84" gradientTransform="matrix(1, -0.07, 0.07, 1, -67.26, 114.99)" gradientUnits="userSpaceOnUse"><stop offset="0" stop-color="#fff"/><stop offset="1" stop-color="#fff" stop-opacity="0"/></linearGradient><linearGradient id="linear-gradient-9" x1="893.77" y1="811.09" x2="935.4" y2="880.16" xlink:href="#linear-gradient-3"/><linearGradient id="linear-gradient-10" x1="1101.85" y1="775.71" x2="1065.27" y2="840.68" xlink:href="#linear-gradient-8"/><linearGradient id="linear-gradient-11" x1="899.23" y1="976.75" x2="1059.3" y2="976.75" xlink:href="#linear-gradient"/><linearGradient id="linear-gradient-12" x1="926.93" y1="981.76" x2="1115.41" y2="973.84" gradientTransform="matrix(1, -0.07, 0.07, 1, -67.26, 114.99)" gradientUnits="userSpaceOnUse"><stop offset="0" stop-color="#2d2244"/><stop offset="1" stop-color="#3e2c5e" stop-opacity="0"/></linearGradient><linearGradient id="linear-gradient-13" x1="915.14" y1="807.22" x2="946.68" y2="911.09" gradientTransform="matrix(1, -0.07, 0.07, 1, -67.26, 114.99)" gradientUnits="userSpaceOnUse"><stop offset="0" stop-color="#ce1d3b"/><stop offset="1" stop-color="#ed202e"/></linearGradient><linearGradient id="linear-gradient-14" x1="1052.22" y1="760.4" x2="1071.57" y2="849.13" xlink:href="#linear-gradient-13"/><linearGradient id="linear-gradient-15" x1="942" y1="915.17" x2="1034.93" y2="909.28" gradientTransform="matrix(1, -0.07, 0.07, 1, -67.26, 114.99)" gradientUnits="userSpaceOnUse"><stop offset="0" stop-color="#a193ad"/><stop offset="1" stop-color="#cec4d6"/></linearGradient><linearGradient id="linear-gradient-16" x1="1009.01" y1="949.38" x2="996.33" y2="851.15" xlink:href="#linear-gradient-2"/><linearGradient id="linear-gradient-17" x1="946.45" y1="959.56" x2="997.34" y2="913.3" gradientTransform="matrix(1, -0.07, 0.07, 1, -67.26, 114.99)" gradientUnits="userSpaceOnUse"><stop offset="0" stop-color="#cec4d6"/><stop offset="1" stop-color="#cec4d6" stop-opacity="0"/></linearGradient><linearGradient id="linear-gradient-18" x1="970.63" y1="939.54" x2="963.9" y2="894.12" gradientTransform="matrix(1, -0.07, 0.07, 1, -67.26, 114.99)" gradientUnits="userSpaceOnUse"><stop offset="0" stop-color="#34254c"/><stop offset="1" stop-color="#432a68"/></linearGradient><linearGradient id="linear-gradient-19" x1="1000.86" y1="935.06" x2="994.13" y2="889.64" xlink:href="#linear-gradient-18"/><linearGradient id="linear-gradient-20" x1="981.24" y1="921.4" x2="977.94" y2="886.73" xlink:href="#linear-gradient-15"/><linearGradient id="linear-gradient-21" x1="1023.36" y1="896.03" x2="1035.14" y2="883.41" gradientTransform="matrix(1, -0.07, 0.07, 1, -67.26, 114.99)" gradientUnits="userSpaceOnUse"><stop offset="0" stop-color="#3492b7"/><stop offset="1" stop-color="#4cc8e5"/></linearGradient><linearGradient id="linear-gradient-22" x1="1027.25" y1="915.86" x2="1040.49" y2="915.86" gradientTransform="matrix(1, -0.07, 0.07, 1, -67.26, 114.99)" gradientUnits="userSpaceOnUse"><stop offset="0" stop-color="#d733db"/><stop offset="1" stop-color="#f43ef9"/></linearGradient><linearGradient id="linear-gradient-23" x1="1029.55" y1="839.34" x2="1054.09" y2="832.98" gradientTransform="matrix(1, -0.07, 0.07, 1, -67.26, 114.99)" gradientUnits="userSpaceOnUse"><stop offset="0" stop-color="#1e45a5"/><stop offset="1" stop-color="#2265c6"/></linearGradient><linearGradient id="linear-gradient-24" x1="926.38" y1="856.16" x2="972.64" y2="844.81" xlink:href="#linear-gradient"/><linearGradient id="linear-gradient-25" x1="936.66" y1="797.08" x2="1058.78" y2="797.08" xlink:href="#linear-gradient"/><linearGradient id="linear-gradient-26" x1="922.03" y1="762.66" x2="908.57" y2="766.03" xlink:href="#linear-gradient-2"/><linearGradient id="linear-gradient-27" x1="1058.84" y1="729.22" x2="1070.64" y2="726.79" xlink:href="#linear-gradient-2"/><linearGradient id="linear-gradient-28" x1="952.17" y1="671.49" x2="991.28" y2="671.49" xlink:href="#linear-gradient-2"/><linearGradient id="linear-gradient-29" x1="928.18" y1="747.08" x2="1060.64" y2="702.51" xlink:href="#linear-gradient-2"/><linearGradient id="linear-gradient-30" x1="962.34" y1="787.29" x2="995.16" y2="671.02" gradientTransform="matrix(1, -0.07, 0.07, 1, -67.26, 114.99)" gradientUnits="userSpaceOnUse"><stop offset="0" stop-color="#c8b8d3"/><stop offset="1" stop-color="#c8b8d3" stop-opacity="0"/></linearGradient><linearGradient id="linear-gradient-31" x1="960.06" y1="805.6" x2="1029.45" y2="788.36" xlink:href="#linear-gradient-2"/><linearGradient id="linear-gradient-32" x1="918.92" y1="762.02" x2="1079.14" y2="733.43" gradientTransform="matrix(1, -0.07, 0.07, 1, -67.26, 114.99)" gradientUnits="userSpaceOnUse"><stop offset="0" stop-color="#201d21"/><stop offset="1" stop-color="#524b56"/></linearGradient><linearGradient id="linear-gradient-33" x1="897.54" y1="757.94" x2="972.41" y2="753.8" gradientTransform="matrix(1, -0.07, 0.07, 1, -67.26, 114.99)" gradientUnits="userSpaceOnUse"><stop offset="0" stop-color="#111011"/><stop offset="1" stop-color="#111011" stop-opacity="0"/></linearGradient><linearGradient id="linear-gradient-34" x1="1007.64" y1="693.58" x2="1028.66" y2="755.4" gradientTransform="matrix(1, -0.07, 0.07, 1, -67.26, 114.99)" gradientUnits="userSpaceOnUse"><stop offset="0" stop-color="#ede7f2"/><stop offset="1" stop-color="#ede7f2" stop-opacity="0"/></linearGradient><linearGradient id="linear-gradient-35" x1="1037.1" y1="741.46" x2="1058.12" y2="770.47" xlink:href="#linear-gradient-34"/><linearGradient id="linear-gradient-36" x1="1080.52" y1="1039.28" x2="1163.91" y2="1039.28" xlink:href="#linear-gradient"/><linearGradient id="linear-gradient-37" x1="921.55" y1="1096.3" x2="835.45" y2="1042.37" xlink:href="#linear-gradient"/><linearGradient id="linear-gradient-38" x1="1127.01" y1="904.25" x2="1118.18" y2="826.66" xlink:href="#linear-gradient"/><linearGradient id="linear-gradient-39" x1="869.46" y1="896.3" x2="884.16" y2="896.3" xlink:href="#linear-gradient"/><linearGradient id="linear-gradient-40" x1="927.25" y1="854.6" x2="973.51" y2="843.25" xlink:href="#linear-gradient-15"/><linearGradient id="linear-gradient-41" x1="861" y1="898.8" x2="786.57" y2="825" xlink:href="#linear-gradient-2"/><linearGradient id="linear-gradient-42" x1="786.46" y1="808.89" x2="807.25" y2="808.89" xlink:href="#linear-gradient-2"/><linearGradient id="linear-gradient-43" x1="770.55" y1="836.38" x2="792.83" y2="836.38" xlink:href="#linear-gradient-2"/><linearGradient id="linear-gradient-44" x1="757.17" y1="873.08" x2="789.64" y2="873.08" xlink:href="#linear-gradient-2"/><linearGradient id="linear-gradient-45" x1="759.11" y1="905.98" x2="799" y2="905.98" xlink:href="#linear-gradient-2"/><linearGradient id="linear-gradient-46" x1="835.92" y1="824.2" x2="818.89" y2="887.27" xlink:href="#linear-gradient-3"/><linearGradient id="linear-gradient-47" x1="884.76" y1="888.02" x2="834.3" y2="851.86" xlink:href="#linear-gradient-3"/><linearGradient id="linear-gradient-48" x1="852.63" y1="816.37" x2="856.83" y2="793.25" xlink:href="#linear-gradient"/><linearGradient id="linear-gradient-49" x1="791.73" y1="814" x2="807.25" y2="814" xlink:href="#linear-gradient"/><linearGradient id="linear-gradient-50" x1="773.4" y1="838.83" x2="792.64" y2="838.83" xlink:href="#linear-gradient"/><linearGradient id="linear-gradient-51" x1="774.04" y1="878.25" x2="789.64" y2="878.25" xlink:href="#linear-gradient"/><linearGradient id="linear-gradient-52" x1="779.96" y1="909.1" x2="799" y2="909.1" xlink:href="#linear-gradient"/><linearGradient id="linear-gradient-53" x1="1481.84" y1="869.91" x2="1407.4" y2="796.1" gradientTransform="matrix(-0.99, 0.12, 0.12, 0.99, 2489.97, -125.65)" xlink:href="#linear-gradient-2"/><linearGradient id="linear-gradient-54" x1="1407.29" y1="779.99" x2="1428.09" y2="779.99" gradientTransform="matrix(-0.99, 0.12, 0.12, 0.99, 2489.97, -125.65)" xlink:href="#linear-gradient-2"/><linearGradient id="linear-gradient-55" x1="1391.38" y1="807.49" x2="1413.66" y2="807.49" gradientTransform="matrix(-0.99, 0.12, 0.12, 0.99, 2489.97, -125.65)" xlink:href="#linear-gradient-2"/><linearGradient id="linear-gradient-56" x1="1378" y1="844.18" x2="1410.47" y2="844.18" gradientTransform="matrix(-0.99, 0.12, 0.12, 0.99, 2489.97, -125.65)" xlink:href="#linear-gradient-2"/><linearGradient id="linear-gradient-57" x1="1379.94" y1="877.09" x2="1419.83" y2="877.09" gradientTransform="matrix(-0.99, 0.12, 0.12, 0.99, 2489.97, -125.65)" xlink:href="#linear-gradient-2"/><linearGradient id="linear-gradient-58" x1="1456.75" y1="795.3" x2="1439.72" y2="858.38" gradientTransform="matrix(-0.99, 0.12, 0.12, 0.99, 2489.97, -125.65)" xlink:href="#linear-gradient-3"/><linearGradient id="linear-gradient-59" x1="1505.6" y1="859.13" x2="1455.13" y2="822.96" gradientTransform="matrix(-0.99, 0.12, 0.12, 0.99, 2489.97, -125.65)" xlink:href="#linear-gradient-3"/><linearGradient id="linear-gradient-60" x1="1473.46" y1="787.48" x2="1477.67" y2="764.35" gradientTransform="matrix(-0.99, 0.12, 0.12, 0.99, 2489.97, -125.65)" xlink:href="#linear-gradient"/><linearGradient id="linear-gradient-61" x1="1412.56" y1="785.1" x2="1428.09" y2="785.1" gradientTransform="matrix(-0.99, 0.12, 0.12, 0.99, 2489.97, -125.65)" xlink:href="#linear-gradient"/><linearGradient id="linear-gradient-62" x1="1394.23" y1="809.93" x2="1413.47" y2="809.93" gradientTransform="matrix(-0.99, 0.12, 0.12, 0.99, 2489.97, -125.65)" xlink:href="#linear-gradient"/><linearGradient id="linear-gradient-63" x1="1394.87" y1="849.36" x2="1410.47" y2="849.36" gradientTransform="matrix(-0.99, 0.12, 0.12, 0.99, 2489.97, -125.65)" xlink:href="#linear-gradient"/><linearGradient id="linear-gradient-64" x1="1400.79" y1="880.21" x2="1419.83" y2="880.21" gradientTransform="matrix(-0.99, 0.12, 0.12, 0.99, 2489.97, -125.65)" xlink:href="#linear-gradient"/><linearGradient id="linear-gradient-65" x1="1099.9" y1="1185.4" x2="1246.45" y2="1185.4" xlink:href="#linear-gradient-2"/><linearGradient id="linear-gradient-66" x1="1095.93" y1="1283.35" x2="1266.24" y2="1141.43" gradientTransform="matrix(1, -0.07, 0.07, 1, -67.26, 114.99)" gradientUnits="userSpaceOnUse"><stop offset="0" stop-color="#bbaec4"/><stop offset="1" stop-color="#ded1e8"/></linearGradient><linearGradient id="linear-gradient-67" x1="570.64" y1="1397.21" x2="717.2" y2="1397.21" gradientTransform="matrix(-0.82, 0.57, 0.57, 0.82, 573.93, -203.43)" xlink:href="#linear-gradient-2"/><linearGradient id="linear-gradient-68" x1="742.12" y1="1288.65" x2="942.48" y2="1260.27" xlink:href="#linear-gradient-66"/><linearGradient id="linear-gradient-69" x1="1215.89" y1="888.21" x2="799.14" y2="1176.14" gradientTransform="matrix(1, -0.07, 0.07, 1, -67.26, 114.99)" gradientUnits="userSpaceOnUse"><stop offset="0" stop-color="#04074a"/><stop offset="0.89" stop-opacity="0"/></linearGradient><linearGradient id="linear-gradient-70" x1="1178.37" y1="873.78" x2="764.65" y2="1261.74" gradientTransform="matrix(1, -0.07, 0.07, 1, -67.26, 114.99)" gradientUnits="userSpaceOnUse"><stop offset="0" stop-color="#04074a"/><stop offset="1" stop-color="#04074a"/></linearGradient></defs><g class="cls-1"><g id="Layer_4" data-name="Layer 4"><path class="cls-2" d="M482,1287.57v-139H168V1051.3L471.76,599.64h125V1051.3h78.15v97.26H596.79v139Zm3.91-236.27,6.84-335.9-214.9,335.9Z" transform="translate(-167.97 -583.51)"/><g class="cls-3"><path class="cls-2" d="M1639.11,1287.57v-139h-314V1051.3l303.8-451.66h125V1051.3H1832v97.26h-78.14v139ZM1643,1051.3l6.84-335.9L1435,1051.3Z" transform="translate(-167.97 -583.51)"/></g><g class="cls-3"><path class="cls-2" d="M1258.47,950.72q0,165.58-68.62,259.28t-188.77,93.7q-121.61,0-189.25-94.65T744.18,943.13q0-169.85,68.38-264.73t190-94.89q123.08,0,189.5,95.12T1258.47,950.72ZM999.13,1206.44q71.31,0,107.21-66.18t35.9-198.08q0-128.1-35.41-195.23t-103.3-67.13q-70.83,0-107,66.89T860.42,944.08q0,126.67,35.9,194.52T999.13,1206.44Z" transform="translate(-167.97 -583.51)"/></g><path class="cls-4" d="M895.38,895.13s-10.72-32.61-7.24-37.27S939,832.62,999.38,819.78s63.28-8,67.95-4.49,10.34,40.39,10.23,48S895.38,895.13,895.38,895.13Z" transform="translate(-167.97 -583.51)"/><path class="cls-5" d="M1181.62,1142.28l-4.19,9.25-29.3,64.59L1120.06,1278c-13.94-9.8-18.28-45.54-17.6-72.77s-3.09-45.32-3.09-45.32c-8.36-4-15.33-11.21-20.57-18.16a105.88,105.88,0,0,1-8.28-12.87h0c-1.78-3.26-2.72-5.38-2.72-5.38-32.77,1.6-55.08-19.64-60.38-23.07s-15.19-.23-25,21.94c-8.89,20-31.39,28-35.79,29.45l-.76.23c-1,5.35-2,10.18-3,14.55-8.37,35.33-18.57,40-18.57,40-1.11,11.46,5.71,28.06,7.8,49.42s-.09,54.38-.09,54.38l-29.47-18.31-57.68-35.81s-21.85-51.62-20.49-68.79a49.29,49.29,0,0,1,2.91-13,61.48,61.48,0,0,1,5.58-11.32l0,0a46.87,46.87,0,0,1,4-5.57s-.08-2.75,0-7c.06-1.92.16-4.15.33-6.59a129.5,129.5,0,0,1,2.51-18.17,40.25,40.25,0,0,1,1.31-4.65,49.79,49.79,0,0,1,3.34-7.6,60.13,60.13,0,0,1,3.91-6.23h0l.15-.2.1-.14,0,0,0-.06.14-.2c.11-.15.21-.29.33-.43s.2-.29.31-.42c.39-.5.76-1,1.13-1.43a48.73,48.73,0,0,1,4.45-4.9h0s1.3-4.5,3.06-11c1.35-5,3-11.18,4.49-17.35,3.46-14.15,3.12-19.18,12.13-26.12s11.07-12.57,16.28-16.72h0l.25-.2c3-2.34,8.57-5.84,12.85-8.46l.05,0c3.33-2.05,5.88-3.55,5.88-3.55a57,57,0,0,1,3.16-18.55,24.58,24.58,0,0,1-2.53-6c-.84-2.7-1.39-5.14-1.39-5.14q-2.19,1.5-4.29,2.68l0,0c-15.28,8.67-26.09,5.7-26.09,5.7a59.3,59.3,0,0,1-12.07,3.66,55.08,55.08,0,0,1-15.45.74c-25.48-2.31-43.16-21.08-43.16-21.08l13.3-18.84,29.36-41.6a34.51,34.51,0,0,1,11.71,4.2h0a22.65,22.65,0,0,1,2.41,1.7h0c.39.32.73.63,1,.92a11.88,11.88,0,0,1,2.47,3.13h0l.09.19a.07.07,0,0,1,0-.06h0A25.77,25.77,0,0,1,869,925a18.06,18.06,0,0,1,1.71-5c.15-.28.31-.55.47-.81a11.16,11.16,0,0,1,2.71-3,8,8,0,0,1,3.3-1.59c.08-.86.19-1.69.3-2.5,4.19-30.66,23.94-31.4,23.94-31.4,4.12-23,27.49-23.38,27.49-23.38s5,1.17,12.74,2.26h.06c12.46,1.75,32.17,3.32,50.56-.26a70,70,0,0,0,38.83-21.58,43.66,43.66,0,0,0,4.23-5.39c19.29-4.47,34.22,19.8,34.22,19.8,11.06,0,19.91,7.38,25,12.89a46.83,46.83,0,0,1,4.75,6c.12-.16.25-.33.38-.48a29.22,29.22,0,0,1,4.14-4.24v0l0,0,.08-.07h0c.26-.21.51-.43.77-.63h0a38.82,38.82,0,0,1,7.15-4.46,43.11,43.11,0,0,1,11.14-3.7l26,53.85,5.63,11.65s-3.12,16.74-21.3,26.06a48.07,48.07,0,0,1-5.21,2.3,31.14,31.14,0,0,1-4,1.21c-14.63,3.38-30.69-3.13-39.83-7.89h0a3.06,3.06,0,0,1-.36-.18l-.21-.11-.59-.32c-3.93-2.11-6.31-3.74-6.31-3.74A47.83,47.83,0,0,1,1079,948h0c.1.52.19,1,.28,1.57a92.43,92.43,0,0,1,.46,23.92,77.1,77.1,0,0,1,4.49,18.28c.72,7.62-1,10.8-1.61,11.64l-.18.24a12,12,0,0,1,1.46-.78.09.09,0,0,0,.06,0,27.5,27.5,0,0,1,5.13-1.74l1-.23.13,0a38.14,38.14,0,0,1,4.25-.6h0c5.63-.48,13.17.06,22.54,3.31h0l.71.25,1.36.5c24,9.12,34.23,47.62,34.23,47.62,2.69,1.62,6.7,5.58,10.65,11.23a71.45,71.45,0,0,1,12.62,33.34C1178.78,1119.08,1181.62,1142.28,1181.62,1142.28Z" transform="translate(-167.97 -583.51)"/><path class="cls-6" d="M851.3,999.15c-25.48-2.31-43.16-21.08-43.16-21.08l13.3-18.84C826,965,835.81,975.5,849.93,979a41.42,41.42,0,0,0,13.26,1.16A64.9,64.9,0,0,1,851.3,999.15Z" transform="translate(-167.97 -583.51)"/><path class="cls-7" d="M1067.65,1000.84l-20.06,30.36s-17.65,28.48-50.72,25.68-63-33-86.68-19.38-37.44,44.28-37.44,44.28l13.63-4.09s-24,15.83-28.26,25.85c-1,2.32-1,4.32.69,5.75l-14.45,4.23a60.13,60.13,0,0,1,3.91-6.23h0l.15-.2.1-.14,0,0,0-.06.14-.2c.11-.15.21-.29.33-.43s.2-.29.31-.42c.39-.5.76-1,1.13-1.43a48.73,48.73,0,0,1,4.45-4.9h0s1.3-4.5,3.06-11c1.35-5,3-11.18,4.49-17.35,3.46-14.15,3.12-19.18,12.13-26.12s11.07-12.57,16.28-16.72h0l.25-.2c3-2.34,8.57-5.84,12.85-8.46l.05,0c3.33-2.05,5.88-3.55,5.88-3.55a57,57,0,0,1,3.16-18.55,24.58,24.58,0,0,1-2.53-6c-.84-2.7-1.39-5.14-1.39-5.14q-2.19,1.5-4.29,2.68l0,0c-15.28,8.67-26.09,5.7-26.09,5.7a59.3,59.3,0,0,1-12.07,3.66,70.15,70.15,0,0,0,7.36-20.72A30.44,30.44,0,0,0,882.4,973s4.16,5.4,14.23,4.72,29.69-9.61,29.59-20.36c0,0,7.88,36,48.2,48.56C1014.47,1018.37,1051,1007,1067.65,1000.84Z" transform="translate(-167.97 -583.51)"/><path class="cls-8" d="M924.25,1206.62c-1.11,11.46,5.71,28.06,7.8,49.42s-.09,54.38-.09,54.38l-29.47-18.31c6.85-18.74-2-47-3-68-1.13-25.84,14.61-26.92,14.61-26.92-7.35-22.22,2.82-39.74,13.46-48.41a91.38,91.38,0,0,1,15.23,17.81C934.45,1201.92,924.25,1206.62,924.25,1206.62Z" transform="translate(-167.97 -583.51)"/><path class="cls-9" d="M1082.91,1099.9a104.21,104.21,0,0,0-12.39,29c-1.78-3.26-2.72-5.38-2.72-5.38-32.77,1.6-55.08-19.64-60.38-23.07s-15.19-.23-25,21.94c-8.89,20-31.39,28-35.79,29.45-1.87-2.41-5-6.33-9.17-10.91,7.74-7.66,14.2-18.58,24.83-35.5,13.69-21.8,31.08-26.21,39.82-28,13.72-2.83,20,5.59,51.26,19.27A48.76,48.76,0,0,0,1082.91,1099.9Z" transform="translate(-167.97 -583.51)"/><path class="cls-10" d="M1148.13,1216.12,1120.06,1278c-13.94-9.8-18.28-45.54-17.6-72.77s-3.09-45.32-3.09-45.32c-8.36-4-15.33-11.21-20.57-18.16,4.34-8.9,14.13-27.64,26.76-43.39-4.49,18.25,4.36,32.39,14.8,45,0,0-3.14,28,2.31,52.32C1126.21,1211.4,1139.36,1215.31,1148.13,1216.12Z" transform="translate(-167.97 -583.51)"/><path class="cls-11" d="M1181.62,1142.28l-4.19,9.25c-7.94-8.84-14.8-27.53-18.41-53.23-4.92-35.07-26.54-39.93-26.54-39.93,8.58-28.1-11-50.61-14.74-54.59l1.36.5c24,9.12,34.23,47.62,34.23,47.62,2.69,1.62,6.7,5.58,10.65,11.23a71.45,71.45,0,0,1,12.62,33.34C1178.78,1119.08,1181.62,1142.28,1181.62,1142.28Z" transform="translate(-167.97 -583.51)"/><path class="cls-12" d="M916.32,877.12c2.12,12.5,23,13,23,13-13,4-23.83,2.89-37.26.65s-22.54,21.77-18.9,23.32,7.11,7.83,7.11,7.83c-10.45-5-12,.18-8.71,11.34s1.93,28.32,1.93,28.32c-2-11.61-9.67-27.29-14.55-36.53a18.06,18.06,0,0,1,1.71-5c.15-.28.31-.55.47-.81a11.16,11.16,0,0,1,2.71-3,8,8,0,0,1,3.3-1.59c.08-.86.19-1.69.3-2.5,4.19-30.66,23.94-31.4,23.94-31.4,4.12-23,27.49-23.38,27.49-23.38s5,1.17,12.74,2.26C932,858.31,914.21,864.64,916.32,877.12Z" transform="translate(-167.97 -583.51)"/><path class="cls-13" d="M1099.64,870.49l-.48,2.38c-14.53-14.82-33.48-12.26-33.48-12.26-2.42,10.91-21.26,12.83-21.26,12.83s14.63-8,12.73-17.31-25.87-17.83-25.87-17.83c-.08-.19-.14-.39-.21-.58a43.66,43.66,0,0,0,4.23-5.39c19.29-4.47,34.22,19.8,34.22,19.8,11.06,0,19.91,7.38,25,12.89a46.83,46.83,0,0,1,4.75,6C1099.38,870.81,1099.51,870.64,1099.64,870.49Z" transform="translate(-167.97 -583.51)"/><path class="cls-14" d="M852.41,1126.82c-.44,1.08-14.76,35.55-25.16,47.65l0,0a61.48,61.48,0,0,1,5.58-11.32l0,0a46.87,46.87,0,0,1,4-5.57s-.08-2.75,0-7c.06-1.92.16-4.15.33-6.59C841.57,1140.74,848.73,1134.65,852.41,1126.82Z" transform="translate(-167.97 -583.51)"/><path class="cls-15" d="M1113.4,934.51a105.74,105.74,0,0,0,10.69,17.89c-14.63,3.38-30.69-3.13-39.83-7.89h0a3.06,3.06,0,0,1-.36-.18l-.21-.11-.59-.32c-3.93-2.11-6.31-3.74-6.31-3.74A47.83,47.83,0,0,1,1079,948h0c.1.52.19,1,.28,1.57-18.78-26.11-27.13-60.34-27.52-62,.58,1.65,12.6,35.39,41.59,44.52A51.14,51.14,0,0,0,1113.4,934.51Z" transform="translate(-167.97 -583.51)"/><path class="cls-15" d="M1154.64,922.83s-3.12,16.74-21.3,26.06a99.52,99.52,0,0,1-10.06-16.46c14.18-4.83,22.55-16.12,25.73-21.25Z" transform="translate(-167.97 -583.51)"/><path class="cls-16" d="M1089.05,1001.07v0s-26.86,15.07-31.18,19.9-8.13,12.21-28.68,18.5a139.87,139.87,0,0,1-17.43,4.12c-18,3.05-40.32,3.19-58.65-7.15a52.12,52.12,0,0,0-23.42-19.42c.9.19,14.17,3.14,24.25,3.76.79.05,1.55.08,2.29.1,1.22,0,2.36,0,3.41-.06a12,12,0,0,1,4.19-3.45c2.2-.9,7.81-.83,15.2-.89l2.92,0c4.29-.07,9-.22,14-.64,4.38-.37,8.67-.87,12.55-1.4l2.93-.41c6.92-1,12.07-2,13.34-2a10.61,10.61,0,0,1,7.25,2.75c.36.31.56.51.56.51l1.93-.69c2.31-.84,6.52-2.38,11.63-4.39l2.18-.87q2.22-.87,4.59-1.85l1.61-.67h0c3.88-1.62,8-3.39,11.89-5.23l1.25-.59a113.72,113.72,0,0,0,16.5-9.21c.09.93.14,1.8.16,2.6.15,5.76-1.25,8.3-1.77,9l-.18.24a12,12,0,0,1,1.46-.78.09.09,0,0,0,.06,0A27.5,27.5,0,0,1,1089.05,1001.07Z" transform="translate(-167.97 -583.51)"/><path class="cls-17" d="M1084.35,994.34c-6.58,4-30.46,18.15-49.63,23l-.33,8.43c0-.89-.22-10.52-19.92-7.37a304.12,304.12,0,0,1-40.86,3.42s5.55,24.46,38.15,21.83c-18,3.05-40.32,3.19-58.65-7.15a52.12,52.12,0,0,0-23.42-19.42c.9.19,14.17,3.14,24.25,3.76.79.05,1.55.08,2.29.1,1.22,0,2.36,0,3.41-.06a12,12,0,0,1,4.19-3.45c2.2-.9,7.81-.83,15.2-.89l2.92,0c4.29-.07,9-.22,14-.64,4.38-.37,8.67-.87,12.55-1.4l2.93-.41c6.92-1,12.07-2,13.34-2a10.61,10.61,0,0,1,7.25,2.75c.36.31.56.51.56.51l1.93-.69c2.31-.84,6.52-2.38,11.63-4.39l2.18-.87q2.22-.87,4.59-1.85l1.61-.67h0c3.88-1.62,8-3.39,11.89-5.23l1.25-.59a113.72,113.72,0,0,0,16.5-9.21C1084.28,992.67,1084.33,993.54,1084.35,994.34Z" transform="translate(-167.97 -583.51)"/><path class="cls-18" d="M982,1016.48l0,26.24-3-26.21Z" transform="translate(-167.97 -583.51)"/><path class="cls-18" d="M1011.45,1014l-1.14,26.76-1.79-26.35Z" transform="translate(-167.97 -583.51)"/><path class="cls-18" d="M956.23,1020.91l-1.53,11-.76-11.13C954.73,1020.86,955.49,1020.89,956.23,1020.91Z" transform="translate(-167.97 -583.51)"/><path class="cls-18" d="M1033.25,1034.17c-.07-7.61-.79-15.49-1.21-19.44.36.31.56.51.56.51l1.93-.69A78.79,78.79,0,0,1,1033.25,1034.17Z" transform="translate(-167.97 -583.51)"/><path class="cls-18" d="M1048.34,1009.29l-1.13,16.34-1-15.47Z" transform="translate(-167.97 -583.51)"/><path class="cls-18" d="M1054.54,1006.77l-.83,12.09-.78-11.42Z" transform="translate(-167.97 -583.51)"/><path class="cls-18" d="M1067.69,1001l-.65,9.41-.6-8.82Z" transform="translate(-167.97 -583.51)"/><path class="cls-19" d="M972.72,1045.88c-13.63,4.09-29.7-27.69-56.09-25.26-9.1.84-19.13,4.7-25.67,7.63l.25-.2c3-2.34,8.57-5.84,12.85-8.46l.05,0c.69-.32,8.16-3.61,23-2.82C946.14,1017.75,959.34,1044.26,972.72,1045.88Z" transform="translate(-167.97 -583.51)"/><path class="cls-19" d="M1117,1003.52c-37.12-4.66-72.26,32.39-72.26,32.39,15.3-19.77,28.78-28.59,37.83-32.53l1.28-.54a.09.09,0,0,0,.06,0,41.78,41.78,0,0,1,6.17-2l.13,0a20.08,20.08,0,0,1,4.25-.6h0C1100.1,999.73,1107.64,1000.27,1117,1003.52Z" transform="translate(-167.97 -583.51)"/><path class="cls-19" d="M848.27,1107.29h0Z" transform="translate(-167.97 -583.51)"/><path class="cls-19" d="M886.36,1077.7a98.33,98.33,0,0,0-37.93,29.38,54.73,54.73,0,0,1,6.55-7.65s1.3-4.5,3.06-11C870.43,1081.83,885.77,1077.85,886.36,1077.7Z" transform="translate(-167.97 -583.51)"/><path class="cls-19" d="M844.63,1142.51c-5.21,13.21-11.42,20.21-11.8,20.64a46.87,46.87,0,0,1,4-5.57s-.08-2.75,0-7A26.17,26.17,0,0,0,844.63,1142.51Z" transform="translate(-167.97 -583.51)"/><path class="cls-20" d="M1103.78,866.25c-1.44,1.31-13.34,13.31-9.7,49.33,0,0-7.6-27,.43-50.56a46.83,46.83,0,0,1,4.75,6A30.34,30.34,0,0,1,1103.78,866.25Z" transform="translate(-167.97 -583.51)"/><path class="cls-19" d="M1103.84,866.2l0,0,0,0Z" transform="translate(-167.97 -583.51)"/><path class="cls-19" d="M868.47,927.6a28,28,0,0,0-3.51-4.05A13.45,13.45,0,0,1,868.47,927.6Z" transform="translate(-167.97 -583.51)"/><path class="cls-19" d="M883.51,961.55c-5.76-18.55-11.08-28.5-14.93-33.81h0a20.22,20.22,0,0,1,2.1-7.73C880.39,938,883.51,961.55,883.51,961.55Z" transform="translate(-167.97 -583.51)"/><path class="cls-19" d="M890.16,920c-8.06-7-16.31-3.84-16.31-3.84a8,8,0,0,1,3.3-1.59c.08-.86.19-1.69.3-2.5A20.18,20.18,0,0,1,890.16,920Z" transform="translate(-167.97 -583.51)"/><path class="cls-19" d="M926.7,973.79a158.59,158.59,0,0,1-16.08,17.7c-.84-2.7-1.39-5.14-1.39-5.14C907.77,987.35,926.7,973.79,926.7,973.79Z" transform="translate(-167.97 -583.51)"/><path class="cls-19" d="M1076.79,940.15A47.83,47.83,0,0,1,1079,948c-7.94-8.9-11.28-20.32-11.4-20.77a41.1,41.1,0,0,0,15.54,16.69C1079.17,941.78,1076.79,940.15,1076.79,940.15Z" transform="translate(-167.97 -583.51)"/><path class="cls-21" d="M945.06,987.86l6,8.92c-9.6,7.61-26.62,17.62-36,18.89s-15.19-.23-16.2-5.85c-.77-4.27,6.8-11.59,10.47-14.86,1.16-1,1.93-1.66,1.93-1.66l1.93,4.17s-11.09,11.44-3.64,12.79c.24,0,.5.08.77.11,9,.72,34.43-23.28,34.43-23.28" transform="translate(-167.97 -583.51)"/><path class="cls-22" d="M909.51,1010.26h0s-6.82.55-6.53-4.52c.15-2.78,3.41-7.28,6.32-10.79,1.16-1,1.93-1.66,1.93-1.66l1.93,4.17S902.06,1008.91,909.51,1010.26Z" transform="translate(-167.97 -583.51)"/><path class="cls-21" d="M1099.72,978.78c-1.69,2.5-4.74,5.13-9.64,7.88-12.07,6.8-36.59,1.23-36.59,1.23l-2.79-13.08s15.75,8.41,31.48,7.33a29.74,29.74,0,0,0,8.4-1.61c5.41-2,6.41-5.34,4.89-7.51-2.1-3-15.65-.64-15.65-.64l.32-11a60.26,60.26,0,0,1,11.85,1.93c3.25.94,6.24,2.32,7.54,4.33C1101.72,971,1102.48,974.75,1099.72,978.78Z" transform="translate(-167.97 -583.51)"/><path class="cls-22" d="M1099.72,978.78c-3.68,2.73-9.14,1.75-9.14,1.75,10.3-3.08,4.1-13.41,1.41-17.18,3.25.94,6.24,2.32,7.54,4.33C1101.72,971,1102.48,974.75,1099.72,978.78Z" transform="translate(-167.97 -583.51)"/><path class="cls-23" d="M921.47,846.92s-18.65,8.36-16.45,49.94,36.56,63.26,36.56,63.26l.6,8.81s-26.48-8.31-41.43-42.06-3.26-75.65,20.18-84.21Z" transform="translate(-167.97 -583.51)"/><path class="cls-24" d="M1034.41,818.48s24,9.12,34.41,41.92S1060.6,916,1042,930.51l6,14.13s32.79-19.94,36.09-54.94-21-67.48-45.36-81Z" transform="translate(-167.97 -583.51)"/><path class="cls-25" d="M1054.51,993.52c-.13,1.88-16.63,4.75-23,5.93a710.15,710.15,0,0,1-79.19,9.89,2.11,2.11,0,0,1-2.15-1.47,367.81,367.81,0,0,1-14-64.51q-1.25-9.75-2-19.63a4.35,4.35,0,0,1,3.15-4.52c34.9-9.84,69.57-15.48,103.92-15.45a4.35,4.35,0,0,1,4.24,3.4C1051.05,932.35,1055.45,979.54,1054.51,993.52Z" transform="translate(-167.97 -583.51)"/><path class="cls-26" d="M1053.49,987.89c-.13,1.89-16.62,4.76-23,5.94a713.1,713.1,0,0,1-79.19,9.89,2.12,2.12,0,0,1-2.16-1.47,369.63,369.63,0,0,1-14-64.51q-1.25-9.75-2-19.63a4.35,4.35,0,0,1,3.15-4.52c34.91-9.84,69.57-15.48,103.92-15.46a4.38,4.38,0,0,1,4.25,3.41C1050,926.73,1054.44,973.92,1053.49,987.89Z" transform="translate(-167.97 -583.51)"/><path class="cls-27" d="M1030.47,993.83a710.92,710.92,0,0,1-78.11,9.81,3.49,3.49,0,0,1-3.57-2.43,369.37,369.37,0,0,1-13.71-63.47C948.79,961.47,979,999.24,1030.47,993.83Z" transform="translate(-167.97 -583.51)"/><path class="cls-28" d="M947.83,931.24s5.68,36.92,11.55,58l7.51-1.14s-6.31-36.87-7.86-59.53Z" transform="translate(-167.97 -583.51)"/><path class="cls-29" d="M978.37,924.73s5.27,40.11,10.37,59.36l8.77-1.23s-6.35-37.5-7.9-60.16Z" transform="translate(-167.97 -583.51)"/><path class="cls-30" d="M965,932.6s1.57,13.8,3.47,23.16l7.51-1.15-3.47-23.15A47.52,47.52,0,0,0,965,932.6Z" transform="translate(-167.97 -583.51)"/><path class="cls-31" d="M1028.67,929.84a6.63,6.63,0,1,1-7.06-6.16A6.63,6.63,0,0,1,1028.67,929.84Z" transform="translate(-167.97 -583.51)"/><path class="cls-32" d="M1033.12,958a6.63,6.63,0,1,1-7.06-6.16A6.63,6.63,0,0,1,1033.12,958Z" transform="translate(-167.97 -583.51)"/><path class="cls-33" d="M1046.5,876.14a13.56,13.56,0,1,1-14.45-12.6A13.56,13.56,0,0,1,1046.5,876.14Z" transform="translate(-167.97 -583.51)"/><path class="cls-34" d="M930.83,909.82c6.19-1.44,21.24-4.47,37.68-8.05,3.53-.77,3.55-3.6,3.19-5.35l-3.13-10.34a3.2,3.2,0,0,0-3.66-2.51c-7.42,1.22-26.67,2.49-38.54,6.46-1.5.5-3.1.84-2.22,5.7a88.91,88.91,0,0,0,2.91,12A3.22,3.22,0,0,0,930.83,909.82Z" transform="translate(-167.97 -583.51)"/><path class="cls-35" d="M921.47,846.92s3,10.05,6.45,14.87c0,0,64.62,29.73,115-29.34,0,0-3.46-13.68-7.67-19.71C1035.22,812.74,1005,862.6,921.47,846.92Z" transform="translate(-167.97 -583.51)"/><path class="cls-36" d="M896.93,787.4s-12.77,7.22-14.59,8.58c-4,3,11.41,46,17.06,46.25,3.4.12,14.89-4,14.89-4Z" transform="translate(-167.97 -583.51)"/><path class="cls-37" d="M892.75,800.33a2.52,2.52,0,1,1-2.69-2.35A2.51,2.51,0,0,1,892.75,800.33Z" transform="translate(-167.97 -583.51)"/><path class="cls-38" d="M1026.74,746s14.55-1.85,16.83-1.84c4.94,0,18.38,43.74,14,47.28-2.65,2.12-14.34,5.68-14.34,5.68Z" transform="translate(-167.97 -583.51)"/><path class="cls-37" d="M1037.82,753.89a2.52,2.52,0,1,0,.75-3.49A2.52,2.52,0,0,0,1037.82,753.89Z" transform="translate(-167.97 -583.51)"/><path class="cls-39" d="M930.06,727.19,928.51,722c9.52-7.42,21.6-11,35.9-11.3l3,6.75Z" transform="translate(-167.97 -583.51)"/><path class="cls-40" d="M1044.82,805.13l-31.62,10.2L918,846c-36.86-39.84-28.06-104.9,20.58-124.69,2.25-.92,4.49-1.72,6.74-2.43h0C998.88,702.05,1049.15,744.16,1044.82,805.13Z" transform="translate(-167.97 -583.51)"/><path class="cls-41" d="M1013.2,815.33,918,846c-36.86-39.84-28.06-104.9,20.58-124.69,2.25-.92,4.49-1.72,6.74-2.43-32.58,13.53-35.47,35.37-6.37,26.43s50-3.3,50-3.3Z" transform="translate(-167.97 -583.51)"/><path class="cls-42" d="M1044.82,805.13s-11.18,40-57.24,50.69S918,846,918,846Z" transform="translate(-167.97 -583.51)"/><path class="cls-43" d="M1044.82,805.13s-8.61,15-27.48,28c-20.42,14-52.83,25.51-99.34,12.91-20.24-38-8.53-76.48,20.06-94.78a68.69,68.69,0,0,1,6.72-3.78C980.08,730.23,1033.06,744,1044.82,805.13Z" transform="translate(-167.97 -583.51)"/><path class="cls-44" d="M1017.34,833.11c-20.42,14-52.83,25.51-99.34,12.91-20.24-38-8.53-76.48,20.06-94.78-3.65,9-8.46,27-4.47,54.52,6,41.32,34.57,53.67,83.71,27.36Z" transform="translate(-167.97 -583.51)"/><path class="cls-45" d="M964.38,747.39s39.41-6.73,61.41,29.52a6.44,6.44,0,0,1-1.76,8.61h0a6.42,6.42,0,0,1-9.31-2.07C1008.88,773.18,994.16,753.61,964.38,747.39Z" transform="translate(-167.97 -583.51)"/><path class="cls-46" d="M1032.31,793.77a5,5,0,1,1-6.89-1.86A5,5,0,0,1,1032.31,793.77Z" transform="translate(-167.97 -583.51)"/><path class="cls-47" d="M1113.77,1088.42c-2.17,4.15-5.27,6-8.21,9.92h0c-12.63,15.75-22.42,34.49-26.76,43.39a105.88,105.88,0,0,1-8.28-12.87h0a104.21,104.21,0,0,1,12.39-29A113.36,113.36,0,0,0,1113.77,1088.42Z" transform="translate(-167.97 -583.51)"/><path class="cls-48" d="M1164,1063.13c-8.48,1.27-22.27,5-38.51,16-7.09,4.77-13.83,11.66-19.91,19.25,2.35-3.19,4.87-4.42,7-8.57a120.21,120.21,0,0,1-29.69,10.13,118.73,118.73,0,0,1,11.89-16.19c21.7-24.87,58.53-31.81,58.53-31.81C1156,1053.52,1160,1057.48,1164,1063.13Z" transform="translate(-167.97 -583.51)"/><path class="cls-47" d="M946.58,1151.81l-.76.23c-1,5.35-2,10.18-3,14.55a91.38,91.38,0,0,0-15.23-17.81c.89-.73,1.8-1.4,2.7-2a48.56,48.56,0,0,0,7.12-5.88C941.55,1145.48,944.71,1149.4,946.58,1151.81Z" transform="translate(-167.97 -583.51)"/><path class="cls-49" d="M937.41,1140.9a48.56,48.56,0,0,1-7.12,5.88c-.9.6-1.81,1.27-2.7,2A132.47,132.47,0,0,0,902.65,1131c-26.33-14.8-49.69-12.61-61.63-9.84a49.79,49.79,0,0,1,3.34-7.6,60.13,60.13,0,0,1,3.91-6.23h0l.15-.2.1-.14,0,0,0-.06.14-.2c.11-.15.21-.29.33-.43s.2-.29.31-.42c.39-.5.76-1,1.13-1.43,2.19-.32,4.75-.62,7.6-.81,10.92-.72,26,.08,40.6,6.82C914.31,1117.57,928.27,1130.82,937.41,1140.9Z" transform="translate(-167.97 -583.51)"/><path class="cls-47" d="M1133.34,948.89a48.07,48.07,0,0,1-5.21,2.3,31.14,31.14,0,0,1-4,1.21,105.74,105.74,0,0,1-10.69-17.89,41.88,41.88,0,0,0,9.88-2.08A99.52,99.52,0,0,0,1133.34,948.89Z" transform="translate(-167.97 -583.51)"/><path class="cls-50" d="M1123.28,932.43a41.88,41.88,0,0,1-9.88,2.08c-13.26-28.17-11-55.7-8.71-69h0a38.82,38.82,0,0,1,7.15-4.46c-2.5,13.79-1.62,38.91,6.66,60.47C1120.06,925.53,1121.67,929.17,1123.28,932.43Z" transform="translate(-167.97 -583.51)"/><path class="cls-47" d="M874.11,977.69a70.15,70.15,0,0,1-7.36,20.72,55.08,55.08,0,0,1-15.45.74,64.9,64.9,0,0,0,11.89-19A37.69,37.69,0,0,0,874.11,977.69Z" transform="translate(-167.97 -583.51)"/><path class="cls-51" d="M874.11,977.69a37.69,37.69,0,0,1-10.92,2.49c9.26-22.54,5.06-46.43,2.81-55.71a11.88,11.88,0,0,1,2.47,3.13h0l.09.19a.07.07,0,0,1,0-.06h0a20.22,20.22,0,0,1,2.1-7.73c.15-.28.31-.55.47-.81C877.35,944.86,876.84,964,874.11,977.69Z" transform="translate(-167.97 -583.51)"/><path class="cls-52" d="M931.28,907.26c6.2-1.44,21.94-5,37.69-8a3.21,3.21,0,0,0,2.53-3.8L969,883.52a3.19,3.19,0,0,0-3.65-2.51c-7.42,1.22-26.76,4.61-38.63,8.58a3.19,3.19,0,0,0-2.13,3.58,84.23,84.23,0,0,0,2.91,12A3.21,3.21,0,0,0,931.28,907.26Z" transform="translate(-167.97 -583.51)"/><path class="cls-53" d="M830.62,974a49.83,49.83,0,0,1-18,3.47,48.05,48.05,0,0,1-21.3-4.59,5.9,5.9,0,0,1-2.46,2.22l0,0c-2.49,1.4-7.29,2.73-16.21,1.57-15.95-2.07-21.59-10.54-21.39-16.88a5.22,5.22,0,0,1,2.72-4.2h0c4-2.57,11.31-3.07,14.45-3.28,4.41-.3,5.58-1.65,3.48-4.67a3.59,3.59,0,0,0-.37-.42c-2.66-2.6-11.48-2.72-16.46-5.38-5.25-2.81-8.24-9.56-8.09-16.52.09-3.43,3.18-5.38,7.31-6a26.08,26.08,0,0,1,13.92,2c8.48,3.85,11.54,2.38,11.87-2.07.23-3.16-6.29-7.44-12.26-11.55a77.89,77.89,0,0,1-6.56-4.87c-6-5.28-2.38-16.28,8.24-18.27a8.19,8.19,0,0,1,3.12,0h0c8.29,1.6,11.83,15.86,16.78,13.83,5.53-2.28,1.41-7-6.07-14.76-1-1-2-2.12-3-3.28-6.52-7.73-12.19-18.25-4.87-23.69a7.49,7.49,0,0,1,6.06-1.17c9.28,1.67,22.49,15.65,30.24,32.84a79.07,79.07,0,0,0,6.67,12.51c2.92,4.13,4.28,3.6,4.81,3a1.55,1.55,0,0,0,.29-.49c2-3,3.24-22,4.31-34.12.18-2,.4-3.86.69-5.67,1.5-9.35,4.62-16.39,10.35-17.85a13.23,13.23,0,0,1,2.83-.41c5-.09,7.62,3.92,8.82,13.53a38.07,38.07,0,0,1,.2,6.87c-.49,8.19-3.24,15.49-3.09,24.94.18,12,7.38,24.79,9.71,40.44S852.18,965.58,830.62,974Z" transform="translate(-167.97 -583.51)"/><path class="cls-54" d="M793.42,873.49c-.81,6.78-8.18,7.3-13,6.89-.72-.85-1.42-1.72-2.09-2.62-5.52-7.34-9.3-16.22-2.78-21.07a7.49,7.49,0,0,1,6.06-1.17c2,2.45,6.08,5.54,8.89,9.26C792.44,867.38,793.79,870.28,793.42,873.49Z" transform="translate(-167.97 -583.51)"/><path class="cls-55" d="M780.62,899c-1.26,4.19-5.3,10.24-12.78,8.72-2.05-1.41-4-2.81-5.67-4.12-.31-.25-.61-.51-.89-.75-6-5.28-2.38-16.28,8.24-18.27a8.19,8.19,0,0,1,3.12,0h0a50.32,50.32,0,0,1,6.15,7.9h0C780.24,894.88,781.14,897.26,780.62,899Z" transform="translate(-167.97 -583.51)"/><path class="cls-56" d="M775.07,947.45a11.41,11.41,0,0,1-3.52-.21c-2.13-.52-4.07-1-5.87-1.45a47.33,47.33,0,0,1-10.59-3.93c-5.25-2.81-8.24-9.56-8.09-16.52.09-3.43,3.18-5.38,7.31-6,2.81,2.42,7.82,6.42,11.79,7.87,1.15.42,2.37.91,3.57,1.46,4.88,2.22,9.66,5.34,10.37,8.33C780.93,940.73,780.69,946.43,775.07,947.45Z" transform="translate(-167.97 -583.51)"/><path class="cls-57" d="M788.88,975.11l0,0c-2.27,1.28-6.46,2.5-14,1.82-.72-.06-1.47-.15-2.25-.25-15.95-2.07-21.59-10.54-21.39-16.88a5.22,5.22,0,0,1,2.72-4.2h0c.38-.15,6.76-2.52,21.89,3.8l1.34.56C791.72,966.19,795.25,970.53,788.88,975.11Z" transform="translate(-167.97 -583.51)"/><path class="cls-58" d="M813.16,945.15c-.41-.78-12.45-24.07,5.33-44.28,2.92,4.13,4.28,3.6,4.81,3l.38.77S807,928.5,813.16,945.15Z" transform="translate(-167.97 -583.51)"/><path class="cls-59" d="M830.62,974a49.83,49.83,0,0,1-18,3.47c38.75-8.84,33.86-45.13,29.23-56.4-5.31-12.91-6.55-31.17.38-50,5.1-13.83,1.69-22.29-.48-25.8,5-.09,7.62,3.92,8.82,13.53a38.07,38.07,0,0,1,.2,6.87c-.49,8.19-3.24,15.49-3.09,24.94.18,12,7.38,24.79,9.71,40.44S852.18,965.58,830.62,974Z" transform="translate(-167.97 -583.51)"/><path class="cls-60" d="M850.79,865.71c-9.44,4.49-17.85.69-22.2-2.14,1.5-9.35,4.62-16.39,10.35-17.85,6.84-1.73,10.24,1.84,11.65,13.12A38.07,38.07,0,0,1,850.79,865.71Z" transform="translate(-167.97 -583.51)"/><path class="cls-61" d="M793.42,873.49c-.81,6.78-13.54,10.09-15.12,4.27,1.28-12.53,8.38-13.43,12.17-13C792.44,867.38,793.79,870.28,793.42,873.49Z" transform="translate(-167.97 -583.51)"/><path class="cls-62" d="M780.62,899c-.28,10.08-14.72,11.43-18.45,4.6a10.34,10.34,0,0,1,1.61-10.41c6.27-7.85,14.68-1,15-.72h0A12.12,12.12,0,0,1,780.62,899Z" transform="translate(-167.97 -583.51)"/><path class="cls-63" d="M775.07,947.45a11.41,11.41,0,0,1-3.52-.21c-2.13-.52-4.07-1-5.87-1.45a17,17,0,0,1,4-17.13c4.88,2.22,9.66,5.34,10.37,8.33C780.93,940.73,780.69,946.43,775.07,947.45Z" transform="translate(-167.97 -583.51)"/><path class="cls-64" d="M788.88,975.11l0,0c-2.27,1.28-6.46,2.5-14,1.82a13.35,13.35,0,0,1-1.68-10.41,11.67,11.67,0,0,1,4-6.57C791.72,966.19,795.25,970.53,788.88,975.11Z" transform="translate(-167.97 -583.51)"/><path class="cls-65" d="M1147.65,930.31a50.08,50.08,0,0,0,18.32.07,48.12,48.12,0,0,0,20.07-8.47,5.89,5.89,0,0,0,2.83,1.72l0,0c2.7.91,7.66,1.32,16.22-1.48,15.28-5,19.24-14.37,17.87-20.56a5.23,5.23,0,0,0-3.45-3.62h0c-4.41-1.79-11.69-.92-14.82-.54-4.38.52-5.78-.58-4.28-3.94a2.67,2.67,0,0,1,.29-.48c2.13-3,10.77-4.81,15.17-8.35,4.64-3.74,6.32-10.92,4.87-17.74-.72-3.36-4.12-4.7-8.29-4.55a26.08,26.08,0,0,0-13.3,4.59c-7.62,5.36-10.9,4.48-12.05.17-.82-3,4.79-8.48,9.89-13.62a79.39,79.39,0,0,0,5.55-6c5-6.31-.7-16.44-11.49-16.42a8.36,8.36,0,0,0-3.08.57h0c-7.85,3.12-8.67,17.79-13.91,16.71-5.86-1.21-2.7-6.67,3.22-15.63.77-1.18,1.56-2.45,2.31-3.78,5-8.8,8.58-20.19.38-24.18a7.51,7.51,0,0,0-6.18,0c-8.81,3.37-19.18,19.56-23.6,37.89A79.91,79.91,0,0,1,1146,856.2c-2.1,4.59-3.53,4.33-4.17,3.81a1.55,1.55,0,0,1-.38-.42c-2.53-2.56-7.28-21.05-10.58-32.73-.54-1.89-1.11-3.71-1.73-5.44-3.21-8.91-7.59-15.25-13.49-15.61a12.55,12.55,0,0,0-2.86.12c-4.9.84-6.76,5.27-6.14,14.93a36.91,36.91,0,0,0,1.08,6.79c2,8,6.06,14.61,7.67,23.93,2.05,11.83-2.64,25.73-2,41.54S1124.91,926,1147.65,930.31Z" transform="translate(-167.97 -583.51)"/><path class="cls-66" d="M1165.52,824.63c2,6.51,9.39,5.65,14.08,4.34.54-1,1.07-2,1.56-3,4.06-8.24,6.13-17.66-1.18-21.22a7.51,7.51,0,0,0-6.18,0c-1.51,2.78-4.94,6.57-7,10.75C1165.34,818.44,1164.55,821.54,1165.52,824.63Z" transform="translate(-167.97 -583.51)"/><path class="cls-67" d="M1182.84,847.33c2,3.88,7.11,9.07,14.17,6.2,1.76-1.77,3.46-3.52,4.81-5.11.26-.31.51-.61.74-.9,5-6.31-.7-16.44-11.49-16.42a8.36,8.36,0,0,0-3.08.57h0a50.48,50.48,0,0,0-4.57,8.9l0,0C1182.44,843.19,1182,845.7,1182.84,847.33Z" transform="translate(-167.97 -583.51)"/><path class="cls-68" d="M1197.3,893.89a11.36,11.36,0,0,0,3.42-.86c2-.91,3.81-1.72,5.49-2.52a47.33,47.33,0,0,0,9.68-5.83c4.64-3.74,6.32-10.92,4.87-17.74-.72-3.36-4.12-4.7-8.29-4.55-2.31,2.9-6.5,7.77-10.13,9.93-1,.63-2.15,1.34-3.23,2.1-4.39,3.08-8.51,7-8.65,10.12C1190.29,888.37,1191.59,893.93,1197.3,893.89Z" transform="translate(-167.97 -583.51)"/><path class="cls-69" d="M1188.87,923.63l0,0c2.46.83,6.81,1.25,14-.81.69-.2,1.41-.42,2.17-.67,15.28-5,19.24-14.37,17.87-20.56a5.23,5.23,0,0,0-3.45-3.62h0c-.41-.08-7.12-1.22-20.81,7.8l-1.21.8C1184.42,915.39,1181.76,920.31,1188.87,923.63Z" transform="translate(-167.97 -583.51)"/><path class="cls-70" d="M1159.45,898.71c.25-.84,7.75-26-13.48-42.51-2.1,4.59-3.53,4.33-4.17,3.81l-.23.83S1162.42,881.2,1159.45,898.71Z" transform="translate(-167.97 -583.51)"/><path class="cls-71" d="M1147.65,930.31a50.08,50.08,0,0,0,18.32.07c-39.72-1.48-41.67-38-39.21-50,2.81-13.68.64-31.84-9.67-49-7.58-12.64-5.8-21.58-4.33-25.44-4.9.84-6.76,5.27-6.14,14.93a36.91,36.91,0,0,0,1.08,6.79c2,8,6.06,14.61,7.67,23.93,2.05,11.83-2.64,25.73-2,41.54S1124.91,926,1147.65,930.31Z" transform="translate(-167.97 -583.51)"/><path class="cls-72" d="M1107.7,827.65c10.1,2.66,17.66-2.64,21.41-6.23-3.21-8.91-7.59-15.25-13.49-15.61-7-.43-9.72,3.7-9,15.05A36.91,36.91,0,0,0,1107.7,827.65Z" transform="translate(-167.97 -583.51)"/><path class="cls-73" d="M1165.52,824.63c2,6.51,15.17,7.39,15.64,1.38-3.58-12.08-10.73-11.64-14.37-10.49C1165.34,818.44,1164.55,821.54,1165.52,824.63Z" transform="translate(-167.97 -583.51)"/><path class="cls-74" d="M1182.84,847.33c2.15,9.86,16.58,8.5,19,1.09a10.31,10.31,0,0,0-3.52-9.92c-7.62-6.56-14.61,1.72-14.89,2.07l0,0A12.12,12.12,0,0,0,1182.84,847.33Z" transform="translate(-167.97 -583.51)"/><path class="cls-75" d="M1197.3,893.89a11.36,11.36,0,0,0,3.42-.86c2-.91,3.81-1.72,5.49-2.52a17,17,0,0,0-7.1-16.09c-4.39,3.08-8.51,7-8.65,10.12C1190.29,888.37,1191.59,893.93,1197.3,893.89Z" transform="translate(-167.97 -583.51)"/><path class="cls-76" d="M1188.87,923.63l0,0c2.46.83,6.81,1.25,14-.81a13.37,13.37,0,0,0-.28-10.54,11.75,11.75,0,0,0-5.17-5.71C1184.42,915.39,1181.76,920.31,1188.87,923.63Z" transform="translate(-167.97 -583.51)"/><path class="cls-19" d="M1114.66,1280.17s-5.49-18.19-4.24-27.76,56-142.92,127.46-142.74Z" transform="translate(-167.97 -583.51)"/><path class="cls-77" d="M1131.57,1326.22s-16-12.75-17.45-54.74,84-188.18,136.06-157.59Z" transform="translate(-167.97 -583.51)"/><path class="cls-78" d="M1263.6,1166.23c0,1.71-.06,3.46-.13,5.24a261.68,261.68,0,0,1-2.63,28.22q-.36,2.49-.78,5c-1.42,8.72-3.32,17.84-5.73,27.27-.43,1.61-.85,3.24-1.3,4.88a338.92,338.92,0,0,1-10.66,32.36q-.9,2.34-1.86,4.71c-3.77,9.34-8.06,18.82-13,28.36-.77,1.52-1.56,3-2.37,4.55q-6.51,12.29-14.36,24.62c-.43.69-.87,1.37-1.31,2h0q-1.6,1-3.24,1.83c-37.87,20-83.51-5.95-83.68-25,0-.19,0-.4,0-.63a42.52,42.52,0,0,1,.67-5.08c1.08-6.05,3.4-15.54,6.66-27,.45-1.58.92-3.21,1.41-4.86,2.66-9,5.84-19.09,9.39-29.45q.81-2.37,1.65-4.77c3.74-10.64,7.85-21.51,12.18-31.89q1-2.36,2-4.68c3.9-9.07,8-17.67,12.09-25.32.83-1.55,1.67-3,2.51-4.52,1-1.75,2-3.45,3-5.08a213.83,213.83,0,0,1,13.18-19c1.13-1.45,2.27-2.87,3.41-4.23,8.73-10.53,17.59-18.71,26-24.35q2.94-2,5.8-3.51c10.38-5.61,19.9-7.1,27.48-4,3.7,1.48,7,6.86,9.45,15.36.52,1.77,1,3.68,1.4,5.72A154.87,154.87,0,0,1,1263.6,1166.23Z" transform="translate(-167.97 -583.51)"/><path class="cls-79" d="M1260.91,1133.09l-44.13-13.52q2.94-2,5.8-3.51l36.93,11.31C1260,1129.14,1260.49,1131.05,1260.91,1133.09Z" transform="translate(-167.97 -583.51)"/><path class="cls-79" d="M1263.6,1166.23c0,1.71-.06,3.46-.13,5.24l-76.14-23.32c1.13-1.45,2.27-2.87,3.41-4.23Z" transform="translate(-167.97 -583.51)"/><path class="cls-79" d="M1260.84,1199.69q-.36,2.49-.78,5l-91.44-28c.83-1.55,1.67-3,2.51-4.52Z" transform="translate(-167.97 -583.51)"/><path class="cls-79" d="M1254.33,1232c-.43,1.61-.85,3.24-1.3,4.88l-98.47-30.15q1-2.36,2-4.68Z" transform="translate(-167.97 -583.51)"/><path class="cls-79" d="M1242.37,1269.24q-.9,2.34-1.86,4.71l-99.78-30.56q.81-2.37,1.65-4.77Z" transform="translate(-167.97 -583.51)"/><path class="cls-79" d="M1227.56,1302.31c-.77,1.52-1.56,3-2.37,4.55l-95.26-29.16c.45-1.58.92-3.21,1.41-4.86Z" transform="translate(-167.97 -583.51)"/><path class="cls-79" d="M1210.83,1331.48c-.43.69-.87,1.37-1.31,2h0q-1.6,1-3.24,1.83l-83.67-25.62a42.52,42.52,0,0,1,.67-5.08Z" transform="translate(-167.97 -583.51)"/><path class="cls-19" d="M941.22,1315.38s-7.16-17.6-14.14-24.27-133.36-76-188.84-31Z" transform="translate(-167.97 -583.51)"/><path class="cls-80" d="M957,1361.83s4.42-19.95-20.81-53.55-183.59-93.63-204.86-37.14Z" transform="translate(-167.97 -583.51)"/><path class="cls-81" d="M753.76,1320.29q1.63,2,3.39,4a263.37,263.37,0,0,0,19.77,20.31q1.85,1.71,3.78,3.43c6.58,5.89,13.79,11.8,21.59,17.61q2,1.5,4.08,3A337.12,337.12,0,0,0,835,1387.1q2.18,1.26,4.4,2.49c8.8,4.91,18.1,9.58,27.89,13.94,1.56.7,3.12,1.38,4.71,2.06,8.52,3.64,17.4,7,26.64,10.13l2.3.77h0c1.24-.17,2.46-.37,3.67-.61,42-8.23,61.23-57.09,49.41-72l-.41-.47a40.86,40.86,0,0,0-3.71-3.54c-4.64-4-12.41-9.95-22.13-16.8-1.34-1-2.73-1.92-4.14-2.9-7.76-5.37-16.54-11.18-25.8-17l-4.29-2.68c-9.59-5.93-19.61-11.8-29.51-17.16l-4.47-2.4c-8.73-4.6-17.3-8.74-25.32-12.11-1.61-.68-3.21-1.32-4.78-1.94-1.89-.73-3.74-1.42-5.55-2a212.67,212.67,0,0,0-22.17-6.49c-1.8-.42-3.57-.81-5.32-1.15-13.41-2.71-25.44-3.51-35.55-2.59q-3.52.32-6.72.92c-11.6,2.15-19.94,7-23.92,14.1-2,3.49-1.16,9.76,2.29,17.9.71,1.7,1.55,3.48,2.5,5.32A155.33,155.33,0,0,0,753.76,1320.29Z" transform="translate(-167.97 -583.51)"/><path class="cls-79" d="M735,1292.81l25.85-38.24q-3.52.32-6.72.92l-21.63,32C733.24,1289.19,734.08,1291,735,1292.81Z" transform="translate(-167.97 -583.51)"/><path class="cls-79" d="M753.76,1320.29q1.63,2,3.39,4l44.6-66c-1.8-.42-3.57-.81-5.32-1.15Z" transform="translate(-167.97 -583.51)"/><path class="cls-79" d="M776.92,1344.59q1.85,1.71,3.78,3.43l53.55-79.23c-1.61-.68-3.21-1.32-4.78-1.94Z" transform="translate(-167.97 -583.51)"/><path class="cls-79" d="M802.29,1365.63q2,1.5,4.08,3L864,1283.3l-4.47-2.4Z" transform="translate(-167.97 -583.51)"/><path class="cls-79" d="M835,1387.1q2.18,1.26,4.4,2.49l58.45-86.45-4.29-2.68Z" transform="translate(-167.97 -583.51)"/><path class="cls-79" d="M867.28,1403.53c1.56.7,3.12,1.38,4.71,2.06l55.79-82.54c-1.34-1-2.73-1.92-4.14-2.9Z" transform="translate(-167.97 -583.51)"/><path class="cls-79" d="M898.63,1415.72l2.3.77h0c1.24-.17,2.46-.37,3.67-.61l49-72.49a40.86,40.86,0,0,0-3.71-3.54Z" transform="translate(-167.97 -583.51)"/><path class="cls-82" d="M1260.91,1133.09c-.42-2-.88-3.95-1.4-5.72-2.42-8.5-5.75-13.88-9.45-15.36a22.33,22.33,0,0,0-8.47-1.54,29.5,29.5,0,0,0-3.84-.61l.13-.19c-.85,0-1.69,0-2.54.06a37.2,37.2,0,0,0-10.12,1.3c-15.89,3.42-30.79,13-44.25,25.77-1-8.2-2.84-24.41-4.37-40.33a71.45,71.45,0,0,0-12.62-33.34c-4-5.65-8-9.61-10.65-11.23,0,0-10.21-38.5-34.23-47.62l-1.36-.5-.71-.25h0c-9.37-3.25-16.91-3.79-22.54-3.31h0a20.08,20.08,0,0,0-4.25.6l-.13,0-1,.23a27.5,27.5,0,0,0-5.13,1.74.09.09,0,0,1-.06,0l-1.28.54.11-.16.1-.17,0,0,.12-.21,0-.06.12-.24,0-.07c0-.09.09-.19.13-.29l0-.07c0-.11.09-.22.13-.35l0-.05a13.25,13.25,0,0,0,.55-2l0-.12c0-.17.06-.34.09-.53l0-.21c0-.18.05-.36.07-.55l0-.27c0-.19,0-.38.06-.59s0-.19,0-.29,0-.42,0-.64v-.29c0-.24,0-.48,0-.74v-.14c0-.66,0-1.35-.06-2.11,0-.45-.06-.92-.11-1.41-.08-.87-.2-1.79-.35-2.78a23,23,0,0,0,6.24-2.3c4.9-2.75,8-5.38,9.64-7.88,2.76-4,2-7.74-.19-11.1-1.3-2-4.29-3.39-7.54-4.33a59.7,59.7,0,0,0-11.73-1.92,81.05,81.05,0,0,0-1-11.89c-.09-.52-.18-1-.28-1.57h0a47.83,47.83,0,0,0-2.17-7.82s2.38,1.63,6.31,3.74l.59.32.21.11a3.06,3.06,0,0,0,.36.18h0c9.14,4.76,25.2,11.27,39.83,7.89a31.14,31.14,0,0,0,4-1.21,48.07,48.07,0,0,0,5.21-2.3,41.61,41.61,0,0,0,18.27-18,49.88,49.88,0,0,0,14.36-.5,48.12,48.12,0,0,0,20.07-8.47,5.89,5.89,0,0,0,2.83,1.72l0,0,.51.16.15,0,.41.1.21,0,.41.08.25,0,.42.07.27,0,.46,0,.3,0,.5,0H1194l.64,0h.29l.77-.06h.22c.69-.07,1.44-.16,2.23-.29h0l1.17-.22.28-.06,1-.21.38-.09,1-.24.45-.12.59-.16.49-.15.2-.06c.48-.14,1-.29,1.48-.46,15.28-5,19.24-14.37,17.87-20.56a5.23,5.23,0,0,0-3.45-3.62h0c-4.41-1.79-11.69-.92-14.82-.54-4.38.52-5.78-.58-4.28-3.94a3.33,3.33,0,0,1,.28-.48c2-.91,3.82-1.72,5.5-2.52a47.33,47.33,0,0,0,9.68-5.83c4.64-3.74,6.32-10.92,4.87-17.74-.72-3.36-4.12-4.7-8.29-4.55a26.08,26.08,0,0,0-13.3,4.59c-7.62,5.36-10.9,4.48-12.05.17-.82-3,4.79-8.48,9.89-13.62l.35-.35a8.3,8.3,0,0,0,4.46-4.76.27.27,0,0,1,.07-.08l.67-.82c5-6.31-.7-16.44-11.49-16.42a8.36,8.36,0,0,0-3.08.57h0c-7.85,3.12-8.67,17.79-13.91,16.71-5.86-1.21-2.7-6.67,3.22-15.63.77-1.18,1.56-2.45,2.31-3.78l.21-.38a3.62,3.62,0,0,0,1.35-2.58l0-.07.32-.64a1.42,1.42,0,0,1,.08-.18l.29-.62c0-.07,0-.13.08-.19s.19-.42.28-.62a1.22,1.22,0,0,1,.07-.17c.27-.65.53-1.3.77-1.95l.12-.31c0-.16.11-.31.16-.46s.09-.26.13-.39.1-.29.14-.43.09-.27.13-.41l.12-.42.12-.41c0-.14.08-.28.11-.42s.07-.28.11-.42l.09-.41.09-.41c0-.14.06-.27.08-.4s.06-.29.08-.44l.06-.37c0-.24.07-.48.1-.72s0-.25,0-.38,0-.3,0-.44,0-.25,0-.37,0-.27,0-.4v-.75c0-.13,0-.25,0-.38s0-.24,0-.36,0-.24,0-.36,0-.24,0-.36l-.06-.35c0-.12-.05-.23-.07-.35s0-.23-.08-.34l-.09-.34a3,3,0,0,0-.1-.32,4.11,4.11,0,0,0-.15-.42c-.06-.16-.13-.31-.19-.46s-.11-.23-.17-.35-.1-.19-.16-.28l-.17-.31-.19-.27c-.06-.1-.13-.19-.2-.29l-.21-.25a3.22,3.22,0,0,0-.24-.28l-.22-.24-.28-.26-.24-.22-.33-.25-.25-.19-.4-.27-.24-.15c-.22-.13-.45-.25-.69-.37a7.51,7.51,0,0,0-6.18,0c-8.81,3.37-19.18,19.56-23.6,37.89A79.91,79.91,0,0,1,1146,856.2c-2.1,4.59-3.53,4.33-4.17,3.81a1.55,1.55,0,0,1-.38-.42c-2.53-2.56-7.28-21.05-10.58-32.73-.54-1.89-1.11-3.71-1.73-5.44-3.21-8.91-7.59-15.25-13.49-15.61l-.7,0h-.67l-.32,0-.32,0-.32,0-.31,0-.22,0h-.06l-.73.17-.18,0a6.8,6.8,0,0,0-.68.24l-.13.06a5.07,5.07,0,0,0-.57.29l-.12.06c-.19.12-.38.25-.56.39l-.15.12a5.25,5.25,0,0,0-.49.46l-.12.13a5.17,5.17,0,0,0-.42.51l-.08.1c-.13.19-.26.4-.38.61l-.1.18c-.12.22-.22.45-.33.69a1.43,1.43,0,0,0-.08.22,8.11,8.11,0,0,0-.29.79l0,.16c-.08.26-.15.52-.21.8a1.74,1.74,0,0,0,0,.22q-.1.46-.18,1a2.89,2.89,0,0,0,0,.29c0,.34-.1.69-.13,1.06,0,.08,0,.16,0,.24,0,.35-.06.72-.07,1.09a1.28,1.28,0,0,0,0,.19c0,.42,0,.85,0,1.3v.3c0,.45,0,.91,0,1.39,0,.09,0,.19,0,.28,0,.51,0,1,.08,1.57a36.91,36.91,0,0,0,1.08,6.79c2,8,6.06,14.61,7.67,23.93a40.9,40.9,0,0,1,.51,7.73c-1.26.47-2.62,1-4,1.72a38.82,38.82,0,0,0-7.15,4.46h0c-.26.2-.51.42-.77.63h0l-.08.07h0l0,0v0c-.39.33-.77.67-1.15,1l-.36.35c-.24.23-.49.46-.72.71s-.37.4-.56.6l-.47.51c-.22.25-.44.52-.65.78l-.23.27c-.13.15-.26.32-.38.48a46.83,46.83,0,0,0-4.75-6c-3.66-4-9.29-8.91-16.3-11.36-.65-1.57-1.36-3.12-2.1-4.64-2-13.56-5.61-31.37-8.78-33.73s-5.32-5.11-23.21-3.28c-.51-.35-1-.68-1.53-1a49.8,49.8,0,0,0,2.23-5.88q.32-4.36.25-8.58c3.41-1.1,10.48-3.5,12.47-5.09,4.41-3.54-9-47.28-14-47.28-1.75,0-10.75,1.08-14.82,1.59-14.5-19.76-37.24-31.46-62.35-30.56l-2-4.49c-14.3.29-26.38,3.88-35.9,11.3l1.12,3.71c-22.58,13.18-34.29,37.33-34.34,62.59-3.5,2-11.54,6.6-12.95,7.66-4,3,11.41,46,17.06,46.25,2.48.09,9.24-2.08,12.74-3.27q2,2.67,4.2,5.22c-16.33,6.33-26.65,11.6-28.2,13.68-2.14,2.87,1.1,16.35,3.91,26.28-5.72,3.76-12.37,11.6-14.6,27.93-.11.81-.22,1.64-.3,2.5a8,8,0,0,0-3.3,1.59,11.16,11.16,0,0,0-2.71,3c-.16.26-.32.53-.47.81a10.26,10.26,0,0,0-.45.94l-.12.26c-.12.29-.24.59-.35.9,0,.06,0,.12-.07.19-.13.37-.25.77-.36,1.19l-.06.23c-.1.38-.19.77-.27,1.18l0,.12s0,.07,0,.1c-.06.31-.11.64-.16,1,0,.11,0,.21,0,.32-.06.43-.11.87-.16,1.33h0a.07.07,0,0,0,0,.06l-.09-.19h0c0-.06-.07-.14-.12-.22s-.05-.08-.07-.13l-.11-.18c0-.05-.07-.1-.1-.16l-.17-.24a.91.91,0,0,0-.11-.16c-.07-.11-.16-.22-.24-.33l-.11-.15-.42-.5-.15-.16q-.17-.2-.36-.39l-.36-.36-.15-.15-.08-.07-.3-.28-.66-.57h0a22.65,22.65,0,0,0-2.41-1.7h0a31.55,31.55,0,0,0-8-3.34c-3-10.19-6.72-19.22-6.85-27.84-.15-9.45,2.6-16.75,3.09-24.94a38.07,38.07,0,0,0-.2-6.87c-.07-.54-.14-1.05-.22-1.56,0-.09,0-.19,0-.28-.08-.47-.15-.92-.24-1.36l-.06-.31c-.08-.43-.17-.86-.26-1.26,0-.06,0-.12,0-.19-.09-.36-.18-.72-.27-1.06,0-.07,0-.15-.07-.23-.1-.36-.21-.69-.32-1l-.09-.27c-.12-.32-.23-.62-.36-.91l-.09-.21c-.11-.26-.23-.51-.35-.75l-.08-.15c-.13-.25-.28-.49-.42-.72l-.13-.2c-.14-.22-.3-.42-.45-.62a1,1,0,0,1-.13-.16c-.16-.18-.32-.36-.49-.52l-.1-.09c-.16-.15-.33-.29-.5-.42l-.14-.11c-.19-.13-.38-.25-.58-.36L845,846a4.91,4.91,0,0,0-.62-.28l-.13,0a6.13,6.13,0,0,0-.61-.18l-.14,0a5.52,5.52,0,0,0-.71-.11l-.2,0q-.36,0-.75,0h-.27l-.32,0-.32,0-.32,0-.32.05-.36.06-.3.06-.68.15c-5.73,1.46-8.85,8.5-10.35,17.85-.29,1.81-.51,3.71-.69,5.67-1.07,12.09-2.3,31.14-4.31,34.12a1.55,1.55,0,0,1-.29.49c-.53.62-1.89,1.15-4.81-3a79.07,79.07,0,0,1-6.67-12.51c-7.75-17.19-21-31.17-30.24-32.84a7.49,7.49,0,0,0-6.06,1.17c-.22.16-.42.33-.62.5l-.2.19a3.55,3.55,0,0,0-.34.33,2.39,2.39,0,0,0-.22.23l-.27.31c-.07.09-.13.18-.2.26s-.15.21-.22.31l-.18.28-.18.31-.16.29c0,.11-.1.22-.14.33a2.71,2.71,0,0,0-.13.3c0,.11-.08.22-.12.33a2.81,2.81,0,0,0-.1.31c0,.12-.07.25-.1.37s-.08.33-.11.49-.05.29-.07.43l0,.34c0,.12,0,.23,0,.35s0,.24,0,.36,0,.23,0,.34,0,.24,0,.37,0,.23,0,.35,0,.24,0,.37,0,.24,0,.36,0,.24,0,.37,0,.24.07.37,0,.24.07.37l.09.38.09.36c0,.14.08.29.12.43s.07.25.11.37.14.46.22.69.09.24.14.35l.15.42c.05.12.1.25.16.37s.1.26.16.39.12.26.17.39l.18.39.19.39c.06.13.12.25.19.38s.13.26.2.4l.2.37.22.4c.07.12.13.24.2.35s.16.29.25.43l.17.29c.36.59.74,1.19,1.13,1.77l.09.14.39.56.12.18c.13.18.26.37.4.55a.91.91,0,0,0,.11.16c.14.19.28.39.43.58l0,.06a3.66,3.66,0,0,0,1.81,2.29l.28.33c1,1.16,2,2.26,3,3.28,7.48,7.71,11.6,12.48,6.07,14.76-4.95,2-8.49-12.23-16.78-13.83h0a8.19,8.19,0,0,0-3.12,0c-10.62,2-14.29,13-8.24,18.27l.81.68.08.07a8.23,8.23,0,0,0,5.27,3.84l.4.28c6,4.11,12.49,8.39,12.26,11.55-.33,4.45-3.39,5.92-11.87,2.07a26.08,26.08,0,0,0-13.92-2c-4.13.63-7.22,2.58-7.31,6-.15,7,2.84,13.71,8.09,16.52a47.33,47.33,0,0,0,10.59,3.93c1.8.48,3.74.93,5.87,1.45a3.59,3.59,0,0,1,.37.42c2.1,3,.93,4.37-3.48,4.67-3.14.21-10.46.71-14.45,3.28h0a5.22,5.22,0,0,0-2.72,4.2c-.2,6.34,5.44,14.81,21.39,16.88l1.53.18.21,0,.51.05.6,0,.47,0,1,.06.4,0,1,0h1.5c.8,0,1.55-.06,2.24-.13l.22,0c.27,0,.52-.05.77-.09l.29,0,.63-.1.3,0,.55-.12.29-.06.5-.12.28-.08.44-.13.26-.08L787,976l.23-.08.39-.16.2-.08.37-.18.15-.07a5.39,5.39,0,0,0,.48-.25l0,0a5.9,5.9,0,0,0,2.46-2.22,46.79,46.79,0,0,0,17.31,4.46l-.51.72s17.68,18.77,43.16,21.08a55.08,55.08,0,0,0,15.45-.74,59.3,59.3,0,0,0,12.07-3.66s10.81,3,26.09-5.7l0,0q2.1-1.18,4.29-2.68s.55,2.44,1.39,5.14c.19.61.4,1.24.62,1.85l0,0-.3.26-.51.42-1.12,1c-3.67,3.27-11.24,10.59-10.47,14.86.81,4.51,4.7,6.36,11,6.27-.54.32-2.86,1.69-5.76,3.48l-.05,0c-4.28,2.62-9.82,6.12-12.85,8.46l-.25.2h0c-5.21,4.15-7.42,9.9-16.28,16.72s-8.67,12-12.13,26.12c-1.5,6.17-3.14,12.35-4.49,17.35-1.76,6.48-3.06,11-3.06,11a53.52,53.52,0,0,0-6.05,7l-.18.24-.06.09-.26.36-.15.2h0a60.13,60.13,0,0,0-3.91,6.23,49.79,49.79,0,0,0-3.34,7.6,40.25,40.25,0,0,0-1.31,4.65,129.5,129.5,0,0,0-2.51,18.17c-.17,2.44-.27,4.67-.33,6.59-.13,4.3,0,7,0,7a46.87,46.87,0,0,0-4,5.57l0,0a61.48,61.48,0,0,0-5.58,11.32,49.29,49.29,0,0,0-2.91,13c-1.19,15.06,15.47,56.62,19.59,66.61-32.9-9.63-68.95-14-95-.89a36.78,36.78,0,0,0-8.69,5.35c-.68.5-1.36,1-2,1.55l.22.06a29.63,29.63,0,0,0-2.6,2.89,22.31,22.31,0,0,0-5.62,6.51c-2,3.49-1.16,9.76,2.29,17.9.71,1.7,1.55,3.48,2.5,5.32a155.33,155.33,0,0,0,18.73,27.48q1.63,2,3.39,4a263.37,263.37,0,0,0,19.77,20.31q1.85,1.71,3.78,3.43c6.58,5.89,13.79,11.8,21.59,17.61q2,1.5,4.08,3A337.12,337.12,0,0,0,835,1387.1q2.18,1.26,4.4,2.49c8.8,4.91,18.1,9.58,27.89,13.94,1.56.7,3.12,1.38,4.71,2.06,8.52,3.64,17.4,7,26.64,10.13l2.3.77h0c1.24-.17,2.46-.37,3.67-.61,30.71-6,49.24-33.74,52.37-54.05,0,0,.09-.44.18-1.3.63-5.15.24-9.77-1.24-13.36-1.8-7.81-5.88-18.56-14.71-31.79a129.94,129.94,0,0,0-8.66-17.14c.45-11.56.77-29.08-.51-42.2-2.09-21.36-8.91-38-7.8-49.42,0,0,10.2-4.7,18.57-40,1-4.37,2-9.2,3-14.55l.76-.23c4.4-1.42,26.9-9.5,35.79-29.45,9.86-22.17,19.76-25.37,25-21.94s27.61,24.67,60.38,23.07c0,0,.94,2.12,2.72,5.38h0a105.88,105.88,0,0,0,8.28,12.87c5.24,7,12.21,14.15,20.57,18.16,0,0,3.76,18.08,3.09,45.32-.51,20.48,1.82,45.77,8.94,61.22a139.71,139.71,0,0,0,3.26,13.73c1.44,15.84,5,26.77,8.52,34,1.11,3.72,3.7,7.56,7.44,11.17a11.54,11.54,0,0,0,1,.9c15.2,13.83,47,23.76,74.7,9.15q1.63-.86,3.24-1.83h0c.44-.68.88-1.36,1.31-2q7.88-12.32,14.36-24.62c.81-1.52,1.6-3,2.37-4.55,4.89-9.54,9.18-19,13-28.36q1-2.37,1.86-4.71a338.92,338.92,0,0,0,10.66-32.36c.45-1.64.87-3.27,1.3-4.88,2.41-9.43,4.31-18.55,5.73-27.27q.42-2.55.78-5a261.68,261.68,0,0,0,2.63-28.22c.07-1.79.11-3.53.13-5.24A155.52,155.52,0,0,0,1260.91,1133.09Zm-412.3-26.26,0,0,0,0Zm61.67-96.46c-.27,0-.53-.06-.77-.11a3.78,3.78,0,0,1-1.63-.63,2.15,2.15,0,0,1-.62-.66,2.32,2.32,0,0,1-.18-.39,2.81,2.81,0,0,1-.15-.89,7.4,7.4,0,0,1,1-3.19c.2-.38.41-.77.64-1.14.47-.76,1-1.51,1.5-2.2l.39-.51c.26-.34.51-.65.76-.95,1.09-1.33,2-2.23,2-2.23A56.6,56.6,0,0,0,910.28,1010.37Zm169.54-38v0s13.55-2.38,15.65.64c1.52,2.17.52,5.5-4.89,7.51a29.64,29.64,0,0,1-8.18,1.6c-.68-2.59-1.56-5.47-2.7-8.67C1079.7,973.46,1079.75,973.06,1079.82,972.35Z" transform="translate(-167.97 -583.51)"/><path class="cls-83" d="M1260.91,1133.09c-.42-2-.88-3.95-1.4-5.72-2.42-8.5-5.75-13.88-9.45-15.36a22.33,22.33,0,0,0-8.47-1.54,29.5,29.5,0,0,0-3.84-.61l.13-.19c-.85,0-1.69,0-2.54.06a37.2,37.2,0,0,0-10.12,1.3c-15.89,3.42-30.79,13-44.25,25.77-1-8.2-2.84-24.41-4.37-40.33a71.45,71.45,0,0,0-12.62-33.34c-4-5.65-8-9.61-10.65-11.23,0,0-10.21-38.5-34.23-47.62l-1.36-.5-.71-.25h0c-9.37-3.25-16.91-3.79-22.54-3.31h0a20.08,20.08,0,0,0-4.25.6l-.13,0-1,.23a27.5,27.5,0,0,0-5.13,1.74.09.09,0,0,1-.06,0l-1.28.54.11-.16.1-.17,0,0,.12-.21,0-.06.12-.24,0-.07c0-.09.09-.19.13-.29l0-.07c0-.11.09-.22.13-.35l0-.05a13.25,13.25,0,0,0,.55-2l0-.12c0-.17.06-.34.09-.53l0-.21c0-.18.05-.36.07-.55l0-.27c0-.19,0-.38.06-.59s0-.19,0-.29,0-.42,0-.64v-.29c0-.24,0-.48,0-.74v-.14c0-.66,0-1.35-.06-2.11,0-.45-.06-.92-.11-1.41-.08-.87-.2-1.79-.35-2.78a23,23,0,0,0,6.24-2.3c4.9-2.75,8-5.38,9.64-7.88,2.76-4,2-7.74-.19-11.1-1.3-2-4.29-3.39-7.54-4.33a59.7,59.7,0,0,0-11.73-1.92,81.05,81.05,0,0,0-1-11.89c-.09-.52-.18-1-.28-1.57h0a47.83,47.83,0,0,0-2.17-7.82s2.38,1.63,6.31,3.74l.59.32.21.11a3.06,3.06,0,0,0,.36.18h0c9.14,4.76,25.2,11.27,39.83,7.89a31.14,31.14,0,0,0,4-1.21,48.07,48.07,0,0,0,5.21-2.3,41.61,41.61,0,0,0,18.27-18,49.88,49.88,0,0,0,14.36-.5,48.12,48.12,0,0,0,20.07-8.47,5.89,5.89,0,0,0,2.83,1.72l0,0,.51.16.15,0,.41.1.21,0,.41.08.25,0,.42.07.27,0,.46,0,.3,0,.5,0H1194l.64,0h.29l.77-.06h.22c.69-.07,1.44-.16,2.23-.29h0l1.17-.22.28-.06,1-.21.38-.09,1-.24.45-.12.59-.16.49-.15.2-.06c.48-.14,1-.29,1.48-.46,15.28-5,19.24-14.37,17.87-20.56a5.23,5.23,0,0,0-3.45-3.62h0c-4.41-1.79-11.69-.92-14.82-.54-4.38.52-5.78-.58-4.28-3.94a3.33,3.33,0,0,1,.28-.48c2-.91,3.82-1.72,5.5-2.52a47.33,47.33,0,0,0,9.68-5.83c4.64-3.74,6.32-10.92,4.87-17.74-.72-3.36-4.12-4.7-8.29-4.55a26.08,26.08,0,0,0-13.3,4.59c-7.62,5.36-10.9,4.48-12.05.17-.82-3,4.79-8.48,9.89-13.62l.35-.35a8.3,8.3,0,0,0,4.46-4.76.27.27,0,0,1,.07-.08l.67-.82c5-6.31-.7-16.44-11.49-16.42a8.36,8.36,0,0,0-3.08.57h0c-7.85,3.12-8.67,17.79-13.91,16.71-5.86-1.21-2.7-6.67,3.22-15.63.77-1.18,1.56-2.45,2.31-3.78l.21-.38a3.62,3.62,0,0,0,1.35-2.58l0-.07.32-.64a1.42,1.42,0,0,1,.08-.18l.29-.62c0-.07,0-.13.08-.19s.19-.42.28-.62a1.22,1.22,0,0,1,.07-.17c.27-.65.53-1.3.77-1.95l.12-.31c0-.16.11-.31.16-.46s.09-.26.13-.39.1-.29.14-.43.09-.27.13-.41l.12-.42.12-.41c0-.14.08-.28.11-.42s.07-.28.11-.42l.09-.41.09-.41c0-.14.06-.27.08-.4s.06-.29.08-.44l.06-.37c0-.24.07-.48.1-.72s0-.25,0-.38,0-.3,0-.44,0-.25,0-.37,0-.27,0-.4v-.75c0-.13,0-.25,0-.38s0-.24,0-.36,0-.24,0-.36,0-.24,0-.36l-.06-.35c0-.12-.05-.23-.07-.35s0-.23-.08-.34l-.09-.34a3,3,0,0,0-.1-.32,4.11,4.11,0,0,0-.15-.42c-.06-.16-.13-.31-.19-.46s-.11-.23-.17-.35-.1-.19-.16-.28l-.17-.31-.19-.27c-.06-.1-.13-.19-.2-.29l-.21-.25a3.22,3.22,0,0,0-.24-.28l-.22-.24-.28-.26-.24-.22-.33-.25-.25-.19-.4-.27-.24-.15c-.22-.13-.45-.25-.69-.37a7.51,7.51,0,0,0-6.18,0c-8.81,3.37-19.18,19.56-23.6,37.89A79.91,79.91,0,0,1,1146,856.2c-2.1,4.59-3.53,4.33-4.17,3.81a1.55,1.55,0,0,1-.38-.42c-2.53-2.56-7.28-21.05-10.58-32.73-.54-1.89-1.11-3.71-1.73-5.44-3.21-8.91-7.59-15.25-13.49-15.61l-.7,0h-.67l-.32,0-.32,0-.32,0-.31,0-.22,0h-.06l-.73.17-.18,0a6.8,6.8,0,0,0-.68.24l-.13.06a5.07,5.07,0,0,0-.57.29l-.12.06c-.19.12-.38.25-.56.39l-.15.12a5.25,5.25,0,0,0-.49.46l-.12.13a5.17,5.17,0,0,0-.42.51l-.08.1c-.13.19-.26.4-.38.61l-.1.18c-.12.22-.22.45-.33.69a1.43,1.43,0,0,0-.08.22,8.11,8.11,0,0,0-.29.79l0,.16c-.08.26-.15.52-.21.8a1.74,1.74,0,0,0,0,.22q-.1.46-.18,1a2.89,2.89,0,0,0,0,.29c0,.34-.1.69-.13,1.06,0,.08,0,.16,0,.24,0,.35-.06.72-.07,1.09a1.28,1.28,0,0,0,0,.19c0,.42,0,.85,0,1.3v.3c0,.45,0,.91,0,1.39,0,.09,0,.19,0,.28,0,.51,0,1,.08,1.57a36.91,36.91,0,0,0,1.08,6.79c2,8,6.06,14.61,7.67,23.93a40.9,40.9,0,0,1,.51,7.73c-1.26.47-2.62,1-4,1.72a38.82,38.82,0,0,0-7.15,4.46h0c-.26.2-.51.42-.77.63h0l-.08.07h0l0,0v0c-.39.33-.77.67-1.15,1l-.36.35c-.24.23-.49.46-.72.71s-.37.4-.56.6l-.47.51c-.22.25-.44.52-.65.78l-.23.27c-.13.15-.26.32-.38.48a46.83,46.83,0,0,0-4.75-6c-3.66-4-9.29-8.91-16.3-11.36-.65-1.57-1.36-3.12-2.1-4.64-2-13.56-5.61-31.37-8.78-33.73s-5.32-5.11-23.21-3.28c-.51-.35-1-.68-1.53-1a49.8,49.8,0,0,0,2.23-5.88q.32-4.36.25-8.58c3.41-1.1,10.48-3.5,12.47-5.09,4.41-3.54-9-47.28-14-47.28-1.75,0-10.75,1.08-14.82,1.59-14.5-19.76-37.24-31.46-62.35-30.56l-2-4.49c-14.3.29-26.38,3.88-35.9,11.3l1.12,3.71c-22.58,13.18-34.29,37.33-34.34,62.59-3.5,2-11.54,6.6-12.95,7.66-4,3,11.41,46,17.06,46.25,2.48.09,9.24-2.08,12.74-3.27q2,2.67,4.2,5.22c-16.33,6.33-26.65,11.6-28.2,13.68-2.14,2.87,1.1,16.35,3.91,26.28-5.72,3.76-12.37,11.6-14.6,27.93-.11.81-.22,1.64-.3,2.5a8,8,0,0,0-3.3,1.59,11.16,11.16,0,0,0-2.71,3c-.16.26-.32.53-.47.81a10.26,10.26,0,0,0-.45.94l-.12.26c-.12.29-.24.59-.35.9,0,.06,0,.12-.07.19-.13.37-.25.77-.36,1.19l-.06.23c-.1.38-.19.77-.27,1.18l0,.12s0,.07,0,.1c-.06.31-.11.64-.16,1,0,.11,0,.21,0,.32-.06.43-.11.87-.16,1.33h0a.07.07,0,0,0,0,.06l-.09-.19h0c0-.06-.07-.14-.12-.22s-.05-.08-.07-.13l-.11-.18c0-.05-.07-.1-.1-.16l-.17-.24a.91.91,0,0,0-.11-.16c-.07-.11-.16-.22-.24-.33l-.11-.15-.42-.5-.15-.16q-.17-.2-.36-.39l-.36-.36-.15-.15-.08-.07-.3-.28-.66-.57h0a22.65,22.65,0,0,0-2.41-1.7h0a31.55,31.55,0,0,0-8-3.34c-3-10.19-6.72-19.22-6.85-27.84-.15-9.45,2.6-16.75,3.09-24.94a38.07,38.07,0,0,0-.2-6.87c-.07-.54-.14-1.05-.22-1.56,0-.09,0-.19,0-.28-.08-.47-.15-.92-.24-1.36l-.06-.31c-.08-.43-.17-.86-.26-1.26,0-.06,0-.12,0-.19-.09-.36-.18-.72-.27-1.06,0-.07,0-.15-.07-.23-.1-.36-.21-.69-.32-1l-.09-.27c-.12-.32-.23-.62-.36-.91l-.09-.21c-.11-.26-.23-.51-.35-.75l-.08-.15c-.13-.25-.28-.49-.42-.72l-.13-.2c-.14-.22-.3-.42-.45-.62a1,1,0,0,1-.13-.16c-.16-.18-.32-.36-.49-.52l-.1-.09c-.16-.15-.33-.29-.5-.42l-.14-.11c-.19-.13-.38-.25-.58-.36L845,846a4.91,4.91,0,0,0-.62-.28l-.13,0a6.13,6.13,0,0,0-.61-.18l-.14,0a5.52,5.52,0,0,0-.71-.11l-.2,0q-.36,0-.75,0h-.27l-.32,0-.32,0-.32,0-.32.05-.36.06-.3.06-.68.15c-5.73,1.46-8.85,8.5-10.35,17.85-.29,1.81-.51,3.71-.69,5.67-1.07,12.09-2.3,31.14-4.31,34.12a1.55,1.55,0,0,1-.29.49c-.53.62-1.89,1.15-4.81-3a79.07,79.07,0,0,1-6.67-12.51c-7.75-17.19-21-31.17-30.24-32.84a7.49,7.49,0,0,0-6.06,1.17c-.22.16-.42.33-.62.5l-.2.19a3.55,3.55,0,0,0-.34.33,2.39,2.39,0,0,0-.22.23l-.27.31c-.07.09-.13.18-.2.26s-.15.21-.22.31l-.18.28-.18.31-.16.29c0,.11-.1.22-.14.33a2.71,2.71,0,0,0-.13.3c0,.11-.08.22-.12.33a2.81,2.81,0,0,0-.1.31c0,.12-.07.25-.1.37s-.08.33-.11.49-.05.29-.07.43l0,.34c0,.12,0,.23,0,.35s0,.24,0,.36,0,.23,0,.34,0,.24,0,.37,0,.23,0,.35,0,.24,0,.37,0,.24,0,.36,0,.24,0,.37,0,.24.07.37,0,.24.07.37l.09.38.09.36c0,.14.08.29.12.43s.07.25.11.37.14.46.22.69.09.24.14.35l.15.42c.05.12.1.25.16.37s.1.26.16.39.12.26.17.39l.18.39.19.39c.06.13.12.25.19.38s.13.26.2.4l.2.37.22.4c.07.12.13.24.2.35s.16.29.25.43l.17.29c.36.59.74,1.19,1.13,1.77l.09.14.39.56.12.18c.13.18.26.37.4.55a.91.91,0,0,0,.11.16c.14.19.28.39.43.58l0,.06a3.66,3.66,0,0,0,1.81,2.29l.28.33c1,1.16,2,2.26,3,3.28,7.48,7.71,11.6,12.48,6.07,14.76-4.95,2-8.49-12.23-16.78-13.83h0a8.19,8.19,0,0,0-3.12,0c-10.62,2-14.29,13-8.24,18.27l.81.68.08.07a8.23,8.23,0,0,0,5.27,3.84l.4.28c6,4.11,12.49,8.39,12.26,11.55-.33,4.45-3.39,5.92-11.87,2.07a26.08,26.08,0,0,0-13.92-2c-4.13.63-7.22,2.58-7.31,6-.15,7,2.84,13.71,8.09,16.52a47.33,47.33,0,0,0,10.59,3.93c1.8.48,3.74.93,5.87,1.45a3.59,3.59,0,0,1,.37.42c2.1,3,.93,4.37-3.48,4.67-3.14.21-10.46.71-14.45,3.28h0a5.22,5.22,0,0,0-2.72,4.2c-.2,6.34,5.44,14.81,21.39,16.88l1.53.18.21,0,.51.05.6,0,.47,0,1,.06.4,0,1,0h1.5c.8,0,1.55-.06,2.24-.13l.22,0c.27,0,.52-.05.77-.09l.29,0,.63-.1.3,0,.55-.12.29-.06.5-.12.28-.08.44-.13.26-.08L787,976l.23-.08.39-.16.2-.08.37-.18.15-.07a5.39,5.39,0,0,0,.48-.25l0,0a5.9,5.9,0,0,0,2.46-2.22,46.79,46.79,0,0,0,17.31,4.46l-.51.72s17.68,18.77,43.16,21.08a55.08,55.08,0,0,0,15.45-.74,59.3,59.3,0,0,0,12.07-3.66s10.81,3,26.09-5.7l0,0q2.1-1.18,4.29-2.68s.55,2.44,1.39,5.14c.19.61.4,1.24.62,1.85l0,0-.3.26-.51.42-1.12,1c-3.67,3.27-11.24,10.59-10.47,14.86.81,4.51,4.7,6.36,11,6.27-.54.32-2.86,1.69-5.76,3.48l-.05,0c-4.28,2.62-9.82,6.12-12.85,8.46l-.25.2h0c-5.21,4.15-7.42,9.9-16.28,16.72s-8.67,12-12.13,26.12c-1.5,6.17-3.14,12.35-4.49,17.35-1.76,6.48-3.06,11-3.06,11a53.52,53.52,0,0,0-6.05,7l-.18.24-.06.09-.26.36-.15.2h0a60.13,60.13,0,0,0-3.91,6.23,49.79,49.79,0,0,0-3.34,7.6,40.25,40.25,0,0,0-1.31,4.65,129.5,129.5,0,0,0-2.51,18.17c-.17,2.44-.27,4.67-.33,6.59-.13,4.3,0,7,0,7a46.87,46.87,0,0,0-4,5.57l0,0a61.48,61.48,0,0,0-5.58,11.32,49.29,49.29,0,0,0-2.91,13c-1.19,15.06,15.47,56.62,19.59,66.61-32.9-9.63-68.95-14-95-.89a36.78,36.78,0,0,0-8.69,5.35c-.68.5-1.36,1-2,1.55l.22.06a29.63,29.63,0,0,0-2.6,2.89,22.31,22.31,0,0,0-5.62,6.51c-2,3.49-1.16,9.76,2.29,17.9.71,1.7,1.55,3.48,2.5,5.32a155.33,155.33,0,0,0,18.73,27.48q1.63,2,3.39,4a263.37,263.37,0,0,0,19.77,20.31q1.85,1.71,3.78,3.43c6.58,5.89,13.79,11.8,21.59,17.61q2,1.5,4.08,3A337.12,337.12,0,0,0,835,1387.1q2.18,1.26,4.4,2.49c8.8,4.91,18.1,9.58,27.89,13.94,1.56.7,3.12,1.38,4.71,2.06,8.52,3.64,17.4,7,26.64,10.13l2.3.77h0c1.24-.17,2.46-.37,3.67-.61,30.71-6,49.24-33.74,52.37-54.05,0,0,.09-.44.18-1.3.63-5.15.24-9.77-1.24-13.36-1.8-7.81-5.88-18.56-14.71-31.79a129.94,129.94,0,0,0-8.66-17.14c.45-11.56.77-29.08-.51-42.2-2.09-21.36-8.91-38-7.8-49.42,0,0,10.2-4.7,18.57-40,1-4.37,2-9.2,3-14.55l.76-.23c4.4-1.42,26.9-9.5,35.79-29.45,9.86-22.17,19.76-25.37,25-21.94s27.61,24.67,60.38,23.07c0,0,.94,2.12,2.72,5.38h0a105.88,105.88,0,0,0,8.28,12.87c5.24,7,12.21,14.15,20.57,18.16,0,0,3.76,18.08,3.09,45.32-.51,20.48,1.82,45.77,8.94,61.22a139.71,139.71,0,0,0,3.26,13.73c1.44,15.84,5,26.77,8.52,34,1.11,3.72,3.7,7.56,7.44,11.17a11.54,11.54,0,0,0,1,.9c15.2,13.83,47,23.76,74.7,9.15q1.63-.86,3.24-1.83h0c.44-.68.88-1.36,1.31-2q7.88-12.32,14.36-24.62c.81-1.52,1.6-3,2.37-4.55,4.89-9.54,9.18-19,13-28.36q1-2.37,1.86-4.71a338.92,338.92,0,0,0,10.66-32.36c.45-1.64.87-3.27,1.3-4.88,2.41-9.43,4.31-18.55,5.73-27.27q.42-2.55.78-5a261.68,261.68,0,0,0,2.63-28.22c.07-1.79.11-3.53.13-5.24A155.52,155.52,0,0,0,1260.91,1133.09Zm-412.3-26.26,0,0,0,0Zm61.67-96.46c-.27,0-.53-.06-.77-.11a3.78,3.78,0,0,1-1.63-.63,2.15,2.15,0,0,1-.62-.66,2.32,2.32,0,0,1-.18-.39,2.81,2.81,0,0,1-.15-.89,7.4,7.4,0,0,1,1-3.19c.2-.38.41-.77.64-1.14.47-.76,1-1.51,1.5-2.2l.39-.51c.26-.34.51-.65.76-.95,1.09-1.33,2-2.23,2-2.23A56.6,56.6,0,0,0,910.28,1010.37Zm169.54-38v0s13.55-2.38,15.65.64c1.52,2.17.52,5.5-4.89,7.51a29.64,29.64,0,0,1-8.18,1.6c-.68-2.59-1.56-5.47-2.7-8.67C1079.7,973.46,1079.75,973.06,1079.82,972.35Z" transform="translate(-167.97 -583.51)"/></g></g></svg>