<svg id="Layer_1" data-name="Layer 1" xmlns="http://www.w3.org/2000/svg" viewBox="0 0 56 56"><defs><style>.cls-1{fill:none;}.cls-2,.cls-4{fill:#0c1142;}.cls-2,.cls-3{fill-rule:evenodd;}.cls-3{fill:#13dcaa;}.cls-5{fill:#c5dfff;}</style></defs><g id="contact"><g id="desktop-contact"><g id="icons_office" data-name="icons/office"><rect id="Rectangle" class="cls-1" width="56" height="56"/><path id="Rectangle-Copy" class="cls-2" d="M.6,14.81l6.23-3a.72.72,0,0,1,1,.34.7.7,0,0,1,.07.31V40.63a.72.72,0,0,1-.73.72H.91a.73.73,0,0,1-.73-.72V15.47A.73.73,0,0,1,.6,14.81Z" transform="translate(10 7)"/><path id="Combined-Shape" class="cls-3" d="M12.75.64h24.5A1.74,1.74,0,0,1,39,2.38V40.25A1.75,1.75,0,0,1,37.25,42H12.75A1.75,1.75,0,0,1,11,40.25V2.38A1.74,1.74,0,0,1,12.75.64Z" transform="translate(10 7)"/><rect id="Rectangle-Copy-5" class="cls-4" x="36.27" y="21.64" width="6.36" height="5.09" rx="0.73"/><rect id="Rectangle-Copy-8" class="cls-4" x="27.36" y="21.64" width="6.36" height="5.09" rx="0.73"/><rect id="Rectangle-Copy-7" class="cls-5" x="36.27" y="30.55" width="6.36" height="5.09" rx="0.73"/><rect id="Rectangle-Copy-9" class="cls-4" x="27.36" y="30.55" width="6.36" height="5.09" rx="0.73"/><rect id="Rectangle-Copy-6" class="cls-5" x="36.27" y="12.73" width="6.36" height="5.09" rx="0.73"/><rect id="Rectangle-Copy-10" class="cls-5" x="27.36" y="12.73" width="6.36" height="5.09" rx="0.73"/></g></g></g></svg>