<?xml version="1.0"?>
<svg xmlns="http://www.w3.org/2000/svg" xmlns:xlink="http://www.w3.org/1999/xlink" version="1.1" id="Capa_1" x="0px" y="0px" viewBox="0 0 511.921 511.921" style="enable-background:new 0 0 511.921 511.921;" xml:space="preserve" width="512px" height="512px"><g><g>
	<g>
		<g>
			<path d="M467.745,112.433c-6.375-9.421-13.377-18.401-20.96-26.88l-23.872,21.312c6.634,7.432,12.77,15.295,18.368,23.536     L467.745,112.433z" data-original="#000000" class="active-path" data-old_color="#000000" fill="#6831E4"/>
			<path d="M422.417,61.697c-8.646-7.414-17.775-14.245-27.328-20.448l-17.376,26.864c8.357,5.413,16.342,11.379,23.904,17.856     L422.417,61.697z" data-original="#000000" class="active-path" data-old_color="#000000" fill="#6831E4"/>
			<path d="M347.985,228.465l3.392,11.44h160.544l-2.416-18.112c-3.689-27.837-11.966-54.87-24.496-80l-28.64,14.288     c8.208,16.451,14.335,33.859,18.24,51.824h-99.952c-12.939-32.188-38.453-57.701-70.64-70.64V37.313     c16.452,3.597,32.443,9.05,47.664,16.256l13.696-28.928c-23.766-11.254-49.135-18.751-75.2-22.224l-18.16-2.416v160.544     l11.44,3.392C314.507,173.13,338.792,197.415,347.985,228.465z" data-original="#000000" class="active-path" data-old_color="#000000" fill="#6831E4"/>
			<path d="M347.985,283.345c-15.134,50.814-68.594,79.738-119.408,64.604c-50.814-15.134-79.738-68.594-64.604-119.408     c9.25-31.059,33.546-55.354,64.604-64.604l11.44-3.392V0.001l-18.128,2.416C81.829,21.202-16.484,149.971,2.301,290.031     s147.554,238.373,287.614,219.588c114.33-15.334,204.263-105.272,219.59-219.603l2.416-18.112H351.377L347.985,283.345z      M474.593,303.905c-26.446,120.78-145.796,197.252-266.576,170.806C87.237,448.264,10.765,328.914,37.211,208.135     c18.7-85.402,85.403-152.106,170.806-170.806v99.952c-65.547,26.477-97.219,101.077-70.742,166.624     c26.477,65.547,101.077,97.219,166.624,70.742c32.201-13.007,57.735-38.541,70.742-70.742H474.593z" data-original="#000000" class="active-path" data-old_color="#000000" fill="#6831E4"/>
		</g>
	</g>
</g></g> </svg>
