<svg id="Layer_4" data-name="Layer 4" xmlns="http://www.w3.org/2000/svg" viewBox="0 0 1150.52 1613.86"><defs><style>.cls-1{fill:#b6b2cc;}.cls-2{fill:#9694af;}.cls-3{fill:#78778c;}.cls-4{fill:#d9d8ef;}.cls-5{fill:#2e2e56;}.cls-6{fill:#595966;}.cls-7{fill:#9d9ab7;}.cls-8{fill:#fefefe;}.cls-9{fill:#eacdc7;}.cls-10{fill:#e2894d;}.cls-11{fill:#f49453;}.cls-12{fill:#ec7920;}.cls-13{fill:#c15b16;}.cls-14{fill:#47477f;}.cls-15{fill:#383866;}.cls-16{fill:#e08141;}.cls-17{fill:#a04e17;}</style></defs><circle class="cls-1" cx="560.23" cy="1190.55" r="396.69"/><path class="cls-2" d="M1276.86,1112.73a396.29,396.29,0,0,0-79.47-66.51c-15.37,3.83-33.58,7.18-42.24,4.29-5-1.66-98.78-57.27-98.78-57.27-27.95,21.21-46.53,64-56.57,93.29-10-29.25-28.63-72.08-56.57-93.29,0,0-93.8,55.61-98.78,57.27-12.45,4.15-44.68-4.58-59.77-9.13l-2.79-.85a399,399,0,0,0-57.67,41.89q-7.46,6.49-14.5,13.28c11.6,18.4,29.62,35.61,50.06,42.8,33.68,11.85,83,26.57,120.36,15.78,26.87-7.76,95.07-27.59,119.66-34.74,24.59,7.15,92.79,27,119.65,34.74,37.36,10.79,86.69-3.93,120.37-15.78C1253.71,1133.62,1266.47,1124.1,1276.86,1112.73Z" transform="translate(-424.74 -190.82)"/><path class="cls-2" d="M1283.92,1120.61a398.6,398.6,0,0,0-53.87-51.26c71,156.71,34.69,347.63-101.62,466.53q-12.08,10.53-24.73,19.89c5.43,12.16-9.59,28.21-22.85,18.35a18.89,18.89,0,0,1-1.69-1.46,397.76,397.76,0,0,1-157,57.8A80.59,80.59,0,0,1,888,1644.64c-17.49,2.58-36.79-1.7-51.84-11.25a399.38,399.38,0,0,1-206.63-75.77A397.29,397.29,0,0,0,686,1642.13c144,165.1,394.6,182.2,559.7,38.19S1427.94,1285.72,1283.92,1120.61Z" transform="translate(-424.74 -190.82)"/><path class="cls-3" d="M1245.73,1680.32A395.06,395.06,0,0,0,1376.53,1445h0S1215,1748.92,941.14,1733.44c-102.65-5.81-173.68-29.56-223.79-59.21C864.26,1808.82,1092,1814.38,1245.73,1680.32Z" transform="translate(-424.74 -190.82)"/><path class="cls-2" d="M1270.18,1448.83c10.72-15.84,8.61-37.54-7.25-49.33-14.8-11-38.66-8.53-49.33,7.25s-8.61,37.54,7.25,49.33C1235.65,1467.09,1259.51,1464.62,1270.18,1448.83Z" transform="translate(-424.74 -190.82)"/><path class="cls-4" d="M1270,1180.2s4.44,4.46,8.73,6.49,11.28,16.91,12.43,21.77,1.33,11.59-1,15.32,0,9,0,9a22.85,22.85,0,0,0,6.14-18c-1.1-11.25-6.21-27.58-11.27-30.82S1270,1180.2,1270,1180.2Z" transform="translate(-424.74 -190.82)"/><path class="cls-2" d="M1178.3,1266.54c.24,4.12-.47,8.26,10.59,12.2a17.67,17.67,0,0,0,5.79-11.64,17.48,17.48,0,0,0-3.86-13.11C1182.73,1255.19,1177.94,1260.68,1178.3,1266.54Z" transform="translate(-424.74 -190.82)"/><path class="cls-5" d="M747,1702a399.52,399.52,0,1,1,500.31-19.8l-1.61-1.85,1.61,1.85A399.15,399.15,0,0,1,747,1702Zm473.15-637C1074.62,956.69,868,960.28,725.83,1084.27,562,1227.16,545,1476.69,687.87,1640.51c69.23,79.36,165.21,127,270.27,134.19a391.7,391.7,0,0,0,286-96.23c163.82-142.89,180.85-392.42,38-556.25A395,395,0,0,0,1220.18,1064.92Z" transform="translate(-424.74 -190.82)"/><path class="cls-2" d="M1373.46,1310.55c1.21,6.41,9.67,10.27,19.56,13.15,9.5,2.77,10.71,10.31,10.71,10.31a396,396,0,0,1,3.6,42.54,379.84,379.84,0,0,1-1.06,42.16s-.75,7.6-10.07,10.93c-9.7,3.47-17.91,7.83-18.73,14.3Z" transform="translate(-424.74 -190.82)"/><path class="cls-3" d="M1390.21,1322.84a8.31,8.31,0,0,1-5.4,5.1c-7.2,2.12-9.65,14.3-10.29,26.76,0,0,1.55-25.87.76-41.09A24,24,0,0,0,1390.21,1322.84Z" transform="translate(-424.74 -190.82)"/><path class="cls-3" d="M1393.44,1430.11a16.07,16.07,0,0,0-5.7-4.77c-4.71-2.45-10.54-10.13-11.92-22.53,0,0-3.34,28.57,1.11,39.15C1376.93,1442,1383.7,1432.37,1393.44,1430.11Z" transform="translate(-424.74 -190.82)"/><path class="cls-5" d="M1399.42,1420.92c-1.82,0-3.89-19.63-4.62-44s.15-44.11,2-44.17,3.9,19.63,4.63,44S1401.25,1420.86,1399.42,1420.92Z" transform="translate(-424.74 -190.82)"/><path class="cls-5" d="M1404.81,1420.67a2.46,2.46,0,0,1-.94-2.47c1.16-5.54,1.57-22.64,1-41.58-.56-18.49-2-35.43-3.43-41.18a2.45,2.45,0,1,1,4.75-1.2c1.57,6.15,3,23.12,3.58,42.24.59,19.58.14,36.76-1.11,42.73a2.46,2.46,0,0,1-2.9,1.9A2.48,2.48,0,0,1,1404.81,1420.67Z" transform="translate(-424.74 -190.82)"/><path class="cls-5" d="M1375.05,1447a2.45,2.45,0,0,1-1-2.27,12,12,0,0,1,.3-1.47,70,70,0,0,0,1-19.65,2.45,2.45,0,0,1,4.87-.55,65.38,65.38,0,0,1,.15,12.06c4.57-3.65,10.65-6.25,15-7.8,7.63-2.73,8.42-8.64,8.45-8.89a2.48,2.48,0,0,1,2.71-2.16,2.44,2.44,0,0,1,2.17,2.67c0,.37-1,9.19-11.68,13-9.86,3.53-16.55,8.23-17.88,12.48-.13.68-.23,1.09-.25,1.17a2.44,2.44,0,0,1-2.82,1.86A2.52,2.52,0,0,1,1375.05,1447Z" transform="translate(-424.74 -190.82)"/><path class="cls-5" d="M1374.25,1332.42a2.43,2.43,0,0,1-1-1.89c-.18-6-.53-20.73-.53-20.88a2.45,2.45,0,0,1,4.86-.51c1,5.13,6.69,9.46,16.11,12.21,10.87,3.16,12.39,11.9,12.45,12.27a2.45,2.45,0,0,1-4.84.8c-.06-.3-1.23-6.11-9-8.37-6.27-1.82-11.13-4.31-14.47-7.36.1,4.23.22,8.92.3,11.69a2.45,2.45,0,0,1-2.37,2.53A2.49,2.49,0,0,1,1374.25,1332.42Z" transform="translate(-424.74 -190.82)"/><path class="cls-4" d="M1388.52,1385.41a6.88,6.88,0,0,1,2.4,3.09,8.22,8.22,0,0,1,.6,3.19,8.49,8.49,0,0,1-.6,3,11,11,0,0,1-2,3.19,6.66,6.66,0,0,1-2.51-3,8,8,0,0,1-.63-3.25,8.35,8.35,0,0,1,.65-3A10.29,10.29,0,0,1,1388.52,1385.41Z" transform="translate(-424.74 -190.82)"/><path class="cls-4" d="M1389.83,1333.32c.28,3.91.39,7.64.41,11.37s0,7.41-.19,11.11-.36,7.4-.72,11.13c-.2,1.86-.37,3.73-.68,5.62a49.13,49.13,0,0,1-1.1,5.69c-.37-.92-.66-1.84-1-2.77s-.53-1.87-.76-2.8c-.41-1.88-.77-3.77-1-5.66a69.3,69.3,0,0,1-.5-11.43,65.26,65.26,0,0,1,1.45-11.38A37.2,37.2,0,0,1,1389.83,1333.32Z" transform="translate(-424.74 -190.82)"/><path class="cls-1" d="M972.42,986.3c6.52-.25,11.59-8,15.91-17.39,4.15-9,11.79-9.06,11.79-9.06a395.71,395.71,0,0,1,42.6,2.76,377.83,377.83,0,0,1,41.54,7.31s7.4,1.87,9.31,11.58c2,10.11,7,17.26,10.37,24.35Z" transform="translate(-424.74 -190.82)"/><path class="cls-3" d="M987.06,971.56a8.3,8.3,0,0,1,4.25,6.09c1,7.44,12.7,11.67,24.93,14.15,0,0-25.35-5.38-40.52-6.85A24,24,0,0,0,987.06,971.56Z" transform="translate(-424.74 -190.82)"/><path class="cls-3" d="M1093.62,984.31a16,16,0,0,0-5.56,4.92c-3.12,4.29-11.58,8.91-24,8.44a221.65,221.65,0,0,1,36.72,3.87A33,33,0,0,1,1093.62,984.31Z" transform="translate(-424.74 -190.82)"/><path class="cls-5" d="M1085.42,977c-.22,1.81-20,.93-44.17-2s-43.6-6.71-43.38-8.52,20-.93,44.17,2S1085.64,975.21,1085.42,977Z" transform="translate(-424.74 -190.82)"/><path class="cls-5" d="M999.49,961.85a2.5,2.5,0,0,1-1-1.73,2.45,2.45,0,0,1,2.2-2.68c6.32-.64,23.32.46,42.3,2.73,19.46,2.33,36.37,5.32,42.1,7.45a2.45,2.45,0,0,1-1.71,4.6c-5.31-2-22.16-4.92-41-7.18-18.37-2.19-35.33-3.32-41.23-2.72A2.46,2.46,0,0,1,999.49,961.85Z" transform="translate(-424.74 -190.82)"/><path class="cls-5" d="M1083.15,1000.72a2.45,2.45,0,0,1,1.55-4.42,63,63,0,0,1,12.53,1.88,50.24,50.24,0,0,1-6.07-16.21c-1.59-8.09-7.45-9.66-7.51-9.68a2.45,2.45,0,0,1,1.21-4.75c.36.09,8.93,2.38,11.12,13.48,1.88,9.59,6.31,17.84,10.6,20,.76.28,1.21.47,1.3.5a2.45,2.45,0,0,1-1.6,4.63,10,10,0,0,1-1.58-.59c-3.23-1.19-11.91-4.1-20.18-4.4A2.49,2.49,0,0,1,1083.15,1000.72Z" transform="translate(-424.74 -190.82)"/><path class="cls-5" d="M969.12,986.9a2.47,2.47,0,0,1-1-2,2.44,2.44,0,0,1,2.36-2.39c5.4-.21,11.68-6.07,15.62-14.6,4.74-10.27,13.61-10.48,14-10.48a2.45,2.45,0,0,1,.07,4.9c-.29,0-6.21.3-9.6,7.63a36.47,36.47,0,0,1-10,13.43c4.47.41,9.38.89,12.2,1.23a2.45,2.45,0,1,1-.58,4.87c-5.88-.7-21.62-2.08-21.78-2.09A2.44,2.44,0,0,1,969.12,986.9Z" transform="translate(-424.74 -190.82)"/><path class="cls-4" d="M1048.69,982.52a6.92,6.92,0,0,1,3.41-1.91,8,8,0,0,1,3.25-.11,8.26,8.26,0,0,1,2.87,1,11.1,11.1,0,0,1,2.86,2.44,6.67,6.67,0,0,1-3.37,2,7.75,7.75,0,0,1-3.3.14,8.21,8.21,0,0,1-2.92-1.09A10.09,10.09,0,0,1,1048.69,982.52Z" transform="translate(-424.74 -190.82)"/><path class="cls-4" d="M997.37,973.49c3.91.31,7.61.75,11.3,1.29s7.33,1.13,11,1.83,7.26,1.45,10.89,2.37c1.82.47,3.64.92,5.46,1.5a49.53,49.53,0,0,1,5.46,1.94c-1,.23-1.92.38-2.88.52s-1.92.26-2.88.34c-1.92.13-3.84.2-5.75.16a68.87,68.87,0,0,1-11.37-1.21,64,64,0,0,1-11.05-3.12A37.47,37.47,0,0,1,997.37,973.49Z" transform="translate(-424.74 -190.82)"/><path class="cls-3" d="M1123.23,1751.87c-6.12,2.26-8.52,11.24-9.72,21.47-1.14,9.83-8.38,12.27-8.38,12.27a393.18,393.18,0,0,1-41.35,10.63,379.65,379.65,0,0,1-41.75,6s-7.61.52-12.45-8.11c-5-9-10.7-16.36-17.22-16.09Z" transform="translate(-424.74 -190.82)"/><path class="cls-6" d="M1113.9,1770.43A8.3,8.3,0,0,1,1108,1766c-3.29-6.74-15.71-7.14-28.1-5.69,0,0,25.77-2.77,40.64-6.09A24,24,0,0,0,1113.9,1770.43Z" transform="translate(-424.74 -190.82)"/><path class="cls-6" d="M1008.66,1791.45a16.05,16.05,0,0,0,3.75-6.41c1.64-5,8.24-12.07,20.24-15.5a156.59,156.59,0,0,1-38.42,7.6S1004.81,1782.23,1008.66,1791.45Z" transform="translate(-424.74 -190.82)"/><path class="cls-5" d="M1020.58,1804.18a2.41,2.41,0,0,1-1-2.06,2.45,2.45,0,0,1,2.54-2.36c5.66.22,22.59-2.21,41.17-5.92,18.15-3.63,34.61-7.84,40-10.23a2.45,2.45,0,1,1,2,4.48c-5.81,2.57-22.31,6.81-41.06,10.56-19.21,3.83-36.22,6.25-42.32,6A2.38,2.38,0,0,1,1020.58,1804.18Z" transform="translate(-424.74 -190.82)"/><path class="cls-5" d="M1012.76,1801.5a19.33,19.33,0,0,1-5.32-6.2c-4.67-8.33-12.25-14.73-17.46-14.81h-.43a2.46,2.46,0,0,1-.12-4.91h.48c2.2,0,13.09-.41,22.14-3a2.46,2.46,0,1,1,1.36,4.72,83.47,83.47,0,0,1-13,2.48,43.26,43.26,0,0,1,11.31,13.14c4,7.08,9.92,6.88,10.17,6.86a2.48,2.48,0,0,1,2.58,2.31,2.44,2.44,0,0,1-2.27,2.59A15.22,15.22,0,0,1,1012.76,1801.5Z" transform="translate(-424.74 -190.82)"/><path class="cls-5" d="M1103.67,1787.58a2.4,2.4,0,0,1-.86-1.18,2.45,2.45,0,0,1,1.52-3.1c.27-.1,5.81-2.22,6.75-10.24.65-5.59,1.75-11.17,4.65-15.67-4,.89-8.54,1.87-11.27,2.41a2.45,2.45,0,1,1-1-4.81c5.81-1.16,19.77-4.32,19.91-4.35a2.46,2.46,0,0,1,1.7,4.56c-5.45,2.92-7.93,7.92-9.16,18.43-1.31,11.24-9.68,14.19-10,14.31A2.48,2.48,0,0,1,1103.67,1787.58Z" transform="translate(-424.74 -190.82)"/><path class="cls-2" d="M641,1579.05c2.65,4.61-1.44,12.72-6,19.76-4.41,6.76-1.15,12.07-1.15,12.07a310.24,310.24,0,0,0,20.1,27.93,322.34,322.34,0,0,0,23.32,25.88s4.5,4.31,12,1.42c7.86-3,15.26-4.67,19.2-1.1C684.31,1632.31,660.73,1600.93,641,1579.05Z" transform="translate(-424.74 -190.82)"/><path class="cls-3" d="M636.49,1597.14a13,13,0,0,0,6.06.29c4.27-.73,11.84,1.39,18.86,8.77-4.86-7.42-9.83-12.58-20-24.9C641.38,1581.3,641.7,1590.87,636.49,1597.14Z" transform="translate(-424.74 -190.82)"/><path class="cls-3" d="M691.48,1665.28a6.77,6.77,0,0,1,1-6c3.63-4.92-.78-14-6.51-22.46,6.76,7.17,22.4,28.88,19.77,27.08A19.65,19.65,0,0,0,691.48,1665.28Z" transform="translate(-424.74 -190.82)"/><path class="cls-5" d="M675.26,1666.17l-.07-.06c-4.08-3.24-13.41-13.6-23.23-25.76-10.06-12.47-18.26-23.89-20.41-28.41a2.46,2.46,0,0,1,4.44-2.11c2,4.15,10.1,15.43,19.79,27.44,9.46,11.73,18.7,22,22.47,25a2.45,2.45,0,0,1-3,3.89Z" transform="translate(-424.74 -190.82)"/><path class="cls-5" d="M632.3,1612.85a2.29,2.29,0,0,1-.62-.69c-.17-.27-4-6.72,1.19-14.69,4.48-6.87,6.77-13.29,6-16.69-.37-.88-.57-1.43-.6-1.52a2.46,2.46,0,0,1,4.44-2,8.73,8.73,0,0,1,.81,2,45.69,45.69,0,0,0,8.21,13,2.45,2.45,0,0,1-3.55,3.39,42.24,42.24,0,0,1-5.39-7.12,52.08,52.08,0,0,1-5.84,11.74c-3.45,5.29-1.2,9.31-1.11,9.48a2.45,2.45,0,0,1-3.57,3.22Z" transform="translate(-424.74 -190.82)"/><path class="cls-5" d="M676.15,1667a6.5,6.5,0,0,1-.65-.54,2.45,2.45,0,0,1,3.37-3.56c.18.17,3.63,3.16,9.49.92a34.08,34.08,0,0,1,11.33-2.42,44.56,44.56,0,0,1-6.06-8.05,2.45,2.45,0,0,1,4.29-2.38c3.17,5.7,10,11.77,11.81,13.3l.53.44a2.45,2.45,0,0,1-3.2,3.72l-.45-.38-.08,0c-3.19-2.37-9.53-2.24-16.42.4C682.87,1671.17,677.88,1668.29,676.15,1667Z" transform="translate(-424.74 -190.82)"/><path class="cls-1" d="M615,1247.3c-2.72-2-4-11.87-9.33-17.06-5.13-5-3.35-10.2-3.35-10.2a286.32,286.32,0,0,1,12.1-28.37,273.22,273.22,0,0,1,14.94-26.54s3-4.6,10.12-3.57c7.37,1.06,16.21-3.78,24,2.3Z" transform="translate(-424.74 -190.82)"/><path class="cls-3" d="M607.19,1231.74a6,6,0,0,1,5.17-1.43c5.31,1.09,11-5.86,15.62-13.59,0,0-9.32,17.64-13.35,27.31C614.63,1244,612.91,1236.15,607.19,1231.74Z" transform="translate(-424.74 -190.82)"/><path class="cls-3" d="M641.43,1162.2a11.57,11.57,0,0,0,2,5c2.17,3.15,2.42,11.2-.9,19.59,0,0,7.76-17.2,13.42-26.54C656,1160.22,648.4,1164,641.43,1162.2Z" transform="translate(-424.74 -190.82)"/><path class="cls-5" d="M601.1,1221.45a2.45,2.45,0,0,1-.92-2.55c1.11-4.57,5.84-15.68,12.06-28.31s12.4-23.6,15.25-27a2.45,2.45,0,1,1,3.77,3.14c-2.11,2.54-7.59,11.78-14.62,26.06-5.89,12-10.7,23.18-11.7,27.3a2.45,2.45,0,0,1-3,1.8A2.38,2.38,0,0,1,601.1,1221.45Z" transform="translate(-424.74 -190.82)"/><path class="cls-5" d="M627.91,1167.09a2.45,2.45,0,0,1-.58-3.32c.16-.24,4-5.87,12.52-4.64,9.84,1.43,13.45,0,14.72-1.57.1-.15.17-.23.19-.26a2.45,2.45,0,0,1,3.4-.48h0a2.45,2.45,0,0,1,.54,3.38l-.24.32a60.19,60.19,0,0,0-7,12.57,2.46,2.46,0,0,1-4.57-1.8,58.39,58.39,0,0,1,3.27-6.85,44.09,44.09,0,0,1-11-.47c-5.39-.78-7.71,2.47-7.73,2.5a2.45,2.45,0,0,1-3.4.69Z" transform="translate(-424.74 -190.82)"/><path class="cls-5" d="M610.83,1247.25a2.46,2.46,0,0,1-.87-2.7c1-3.34-1.09-7.8-6-12.55-6.17-6-4.05-12.48-4-12.75a2.45,2.45,0,0,1,4.65,1.56c-.06.21-1.12,3.94,2.73,7.67a29.55,29.55,0,0,1,6.33,8.44l3.09-6.21a2.45,2.45,0,0,1,4.4,2.16c-1.93,3.91-6.73,13.51-6.73,13.51a2.45,2.45,0,0,1-3.11,1.17A2.65,2.65,0,0,1,610.83,1247.25Z" transform="translate(-424.74 -190.82)"/><path class="cls-3" d="M1335.25,1553c5.92,7.06,6.33,13.46,11.14,19.14,4.62,5.45,2.34,10.47,2.34,10.47a285,285,0,0,1-14.79,27.06,272,272,0,0,1-17.45,25s-3.48,4.27-10.42,2.57c-7.23-1.78-21.49,2.48-23.92-1.85Z" transform="translate(-424.74 -190.82)"/><path class="cls-3" d="M1345,1570.53a6,6,0,0,1-5.28.92c-5.18-1.59-11.52,4.76-16.87,12,0,0,11.25-15,16.84-24.45A17.38,17.38,0,0,0,1345,1570.53Z" transform="translate(-424.74 -190.82)"/><path class="cls-3" d="M1304.22,1636.42a11.55,11.55,0,0,0-1.53-5.14c-1.86-3.35-1.28-11.68,2.83-19.71,0,0-10.4,14.72-16.88,24.73C1288.64,1636.3,1297.45,1633.91,1304.22,1636.42Z" transform="translate(-424.74 -190.82)"/><path class="cls-5" d="M1315,1636.65a3.47,3.47,0,0,1-.29-.25,2.46,2.46,0,0,1,0-3.47c2.35-2.32,8.7-11,17.08-24.52,7-11.32,12.9-22,14.29-26a2.46,2.46,0,0,1,4.64,1.61c-1.55,4.44-7.34,15-14.76,27s-14.63,22.29-17.8,25.42A2.45,2.45,0,0,1,1315,1636.65Z" transform="translate(-424.74 -190.82)"/><path class="cls-5" d="M1285.31,1640.81l-.25-.22c-1.64-1.6-.37-3.13,1-4.76a142.61,142.61,0,0,0,10.26-13.8,2.45,2.45,0,1,1,4.14,2.62c-2.06,3.26-4.31,6.35-6.3,8.92a45,45,0,0,1,12.53,1.3c5.28,1.3,7.91-1.71,7.93-1.74a2.46,2.46,0,0,1,3.81,3.1c-.19.22-4.56,5.45-12.91,3.4-7.58-1.86-14.77-1.55-16.73.73a3.07,3.07,0,0,1-.26.25A2.48,2.48,0,0,1,1285.31,1640.81Z" transform="translate(-424.74 -190.82)"/><path class="cls-5" d="M1347.27,1584.61a2.45,2.45,0,0,1-.78-2.95c.08-.21,1.49-3.82-2-7.91a28.08,28.08,0,0,1-5.25-9c-1.45,2.62-2.94,5.25-3.87,6.75a2.45,2.45,0,1,1-4.17-2.58c2.23-3.59,8-14.32,8-14.43a2.45,2.45,0,0,1,4.42,2.11c-1.43,3.42.4,9,4.58,13.95,5.55,6.57,2.82,12.82,2.7,13.08a2.46,2.46,0,0,1-3.25,1.22A3.35,3.35,0,0,1,1347.27,1584.61Z" transform="translate(-424.74 -190.82)"/><ellipse class="cls-3" cx="917.78" cy="1167.87" rx="28" ry="20.09" transform="translate(-801.89 249.46) rotate(-22.51)"/><path class="cls-7" d="M961,1168.89c-2.29.15-5.27.9-6.48-.85h0c-3.63,12-13.44,23-27.33,28.73a49.18,49.18,0,0,1-28,3.09,2.48,2.48,0,0,1-1.24,2.89c-5.89,3.43-2.59,2.67,2.12,8.09a48.51,48.51,0,0,0,32.08-2.12C950.19,1201.2,961.39,1184.87,961,1168.89Z" transform="translate(-424.74 -190.82)"/><path class="cls-5" d="M899.78,1212.83a2.45,2.45,0,0,1,2.07-4.34A47.79,47.79,0,0,0,954,1186a2.45,2.45,0,1,1,4.3,2.35,52.69,52.69,0,0,1-57.62,24.86A2.68,2.68,0,0,1,899.78,1212.83Z" transform="translate(-424.74 -190.82)"/><path class="cls-5" d="M875.5,1192.8a2.32,2.32,0,0,1-.8-1c-4.09-9.87-3.4-21,1.94-31.32a50.62,50.62,0,0,1,25.86-23.15c23.71-9.82,49.81-1.37,58.18,18.84a2.45,2.45,0,0,1-4.53,1.88c-7.34-17.71-30.56-25-51.77-16.18A45.69,45.69,0,0,0,881,1162.71c-4.67,9-5.3,18.68-1.77,27.19a2.45,2.45,0,0,1-3.73,2.9Z" transform="translate(-424.74 -190.82)"/><path class="cls-5" d="M895.56,1187a17.82,17.82,0,0,1-5.91-7.49c-2.36-5.7-1.54-12.27,2.32-18.49a36.6,36.6,0,0,1,17.19-14c15.51-6.43,32-2.32,36.75,9.16s-4,26-19.5,32.48a36.62,36.62,0,0,1-22,2.27A23.78,23.78,0,0,1,895.56,1187ZM937,1152.63c-6-4.45-16.17-5.13-26-1.05a31.67,31.67,0,0,0-14.89,12c-3,4.84-3.7,9.82-2,14s5.76,7.23,11.31,8.53a31.6,31.6,0,0,0,19-2h0c13-5.39,20.57-17.09,16.85-26.07A13,13,0,0,0,937,1152.63Z" transform="translate(-424.74 -190.82)"/><path class="cls-5" d="M912.83,1176a35.6,35.6,0,0,0-14,10.22c6.78,3.92,16.9,4.29,26.68.24a35.6,35.6,0,0,0,14-10.22C932.73,1172.29,922.61,1171.92,912.83,1176Z" transform="translate(-424.74 -190.82)"/><ellipse class="cls-3" cx="765.06" cy="1335.92" rx="23.08" ry="16.56" transform="translate(-1140.43 1566.27) rotate(-76.08)"/><path class="cls-5" d="M749.39,1371.74a32.9,32.9,0,0,1-9.78-12,43.7,43.7,0,0,1,13.13-53c7.87-5.7,17-7.65,25.65-5.51a2.46,2.46,0,0,1-1.18,4.77c-7.25-1.8-14.91-.12-21.6,4.71a38.81,38.81,0,0,0-11.6,46.83c3.65,7.4,9.64,12.46,16.89,14.25a2.45,2.45,0,1,1-1.18,4.76A28.83,28.83,0,0,1,749.39,1371.74Z" transform="translate(-424.74 -190.82)"/><path class="cls-5" d="M753.71,1358.23c-6.73-5-9.86-15.78-7.11-26.89a30.68,30.68,0,0,1,9.43-15.95c4.7-4,10.09-5.52,15.17-4.26s9.14,5.12,11.43,10.85a30.62,30.62,0,0,1,.88,18.51h0a30.59,30.59,0,0,1-9.42,16c-4.71,4-10.1,5.51-15.18,4.25A14.6,14.6,0,0,1,753.71,1358.23Zm19.84-40.65a9.93,9.93,0,0,0-3.53-1.69c-3.5-.87-7.35.28-10.81,3.24a25.6,25.6,0,0,0-7.85,13.39c-2.73,11,1.18,21.55,8.73,23.42,3.51.87,7.35-.28,10.82-3.23a25.72,25.72,0,0,0,7.84-13.4h0a25.67,25.67,0,0,0-.68-15.51A14,14,0,0,0,773.55,1317.58Z" transform="translate(-424.74 -190.82)"/><path class="cls-5" d="M768,1343.17a29.26,29.26,0,0,0-.1,14.31c5.92-2.57,11.12-9.11,13.22-17.58a29.26,29.26,0,0,0,.1-14.31C775.31,1328.17,770.11,1334.7,768,1343.17Z" transform="translate(-424.74 -190.82)"/><ellipse class="cls-3" cx="862.63" cy="1586.29" rx="23.25" ry="32.4" transform="matrix(0.56, -0.83, 0.83, 0.56, -1359.11, 1218.72)"/><path class="cls-5" d="M838.43,1617.12a52.47,52.47,0,0,1-20-30.43c-2.72-12.19-.57-24.66,5.9-34.2a2.45,2.45,0,1,1,4.06,2.75c-5.8,8.55-7.64,19.34-5.17,30.37A47.83,47.83,0,0,0,845.65,1616c23.63,14,46.51,10.61,59.69-8.82a2.45,2.45,0,1,1,4.06,2.76c-14.56,21.45-40.56,25.49-66.25,10.28A56,56,0,0,1,838.43,1617.12Z" transform="translate(-424.74 -190.82)"/><path class="cls-5" d="M846.52,1606.36c-14.67-10.91-20.4-28.33-12.73-39.64,3.94-5.81,10.71-9.13,19.05-9.35,8-.21,16.64,2.51,24.22,7.65,15.9,10.77,22.37,29.11,14.41,40.84s-27.36,12.49-43.27,1.7Q847.35,1607,846.52,1606.36Zm29.16-39.31-1.37,2c-6.74-4.57-14.32-7-21.34-6.8-6.72.17-12.09,2.73-15.12,7.2-6.44,9.49-.54,24.75,13.11,34s30,9.09,36.46-.4.54-24.75-13.11-34Z" transform="translate(-424.74 -190.82)"/><path class="cls-5" d="M873.62,1585.92a41.15,41.15,0,0,0,18.8,7.08c-.52-9-6.6-19.07-16.74-26a41.24,41.24,0,0,0-18.8-7.07C857.4,1569,863.48,1579.05,873.62,1585.92Z" transform="translate(-424.74 -190.82)"/><path class="cls-5" d="M1228.12,1463.75a2.46,2.46,0,0,1,2.32-4.27c14.6,5.41,31.76-4.44,38.26-22a37.3,37.3,0,0,0,.5-25.53c-2.8-7.76-8.2-13.47-15.19-16.06a2.45,2.45,0,0,1,1.7-4.6c8.38,3.11,14.8,9.85,18.1,19a42.26,42.26,0,0,1-.51,28.91c-7.44,20.06-27.43,31.21-44.56,24.86A2.3,2.3,0,0,1,1228.12,1463.75Z" transform="translate(-424.74 -190.82)"/><ellipse class="cls-3" cx="1245.85" cy="1431.17" rx="23.08" ry="16.56" transform="translate(-953.88 1911.05) rotate(-69.66)"/><path class="cls-5" d="M1233.38,1453.16c-7.14-5.31-9.6-17.14-5.36-28.6,4.9-13.2,16.88-21,26.71-17.33s13.85,17.35,9,30.55-16.87,21-26.7,17.34A14.11,14.11,0,0,1,1233.38,1453.16Zm22.1-40a9.78,9.78,0,0,0-2.46-1.34c-7.29-2.7-16.44,3.77-20.4,14.44s-1.23,21.54,6.06,24.25,16.45-3.78,20.4-14.44C1262.55,1426.71,1260.88,1417.18,1255.48,1413.17Z" transform="translate(-424.74 -190.82)"/><path class="cls-5" d="M1243.73,1423.64a29.37,29.37,0,0,0,1.7-14.22c-6.17,1.9-12.07,7.81-15.11,16a29.32,29.32,0,0,0-1.69,14.21C1234.8,1437.73,1240.7,1431.82,1243.73,1423.64Z" transform="translate(-424.74 -190.82)"/><path class="cls-7" d="M1107.13,1074.63l-.37.41-.32.36-.65.67q-.66.65-1.32,1.26c-.88.82-1.78,1.59-2.7,2.35a65.77,65.77,0,0,1-5.74,4.15,66.69,66.69,0,0,1-39.84,10.46l-3.43-.22-3.41-.43c-1.13-.11-2.25-.35-3.37-.55s-2.25-.38-3.35-.67c-2.21-.55-4.43-1.06-6.58-1.78-1.08-.35-2.17-.63-3.23-1l-3.18-1.18a125.27,125.27,0,0,1-23.88-12.42,124.42,124.42,0,0,0,24.48,10.68l3.19.94c1.06.32,2.15.53,3.22.79,2.14.56,4.33.9,6.49,1.29,1.08.21,2.19.27,3.28.42s2.17.28,3.27.31l3.28.19h3.28a63.36,63.36,0,0,0,25.12-5.59,61.51,61.51,0,0,0,11-6.49,59.84,59.84,0,0,0,4.87-4.06c.77-.73,1.51-1.46,2.22-2.22.35-.37.7-.75,1-1.14s.68-.8.88-1.07Z" transform="translate(-424.74 -190.82)"/><path class="cls-3" d="M1088.31,1058.75c.94.47-.14,2.1-.37,3.14-3,13.57-23,20.69-44.83,15.9s-37-19.67-34-33.24C1009.09,1044.55,1048.11,1038.83,1088.31,1058.75Z" transform="translate(-424.74 -190.82)"/><path class="cls-5" d="M982.32,1056.35a2.36,2.36,0,0,1-.9-1.31,2.45,2.45,0,0,1,1.71-3l2.5-.68a10,10,0,0,0,6-4.72,22.25,22.25,0,0,1,15.71-11c17.37-2.94,51-5.3,80.88,11.9a22.38,22.38,0,0,1,9.07,9.82l4,8.46a10,10,0,0,0,4.1,4.42l3,1.71a2.45,2.45,0,1,1-2.43,4.26l-3-1.71a14.82,14.82,0,0,1-6.11-6.57l-4-8.47a17.45,17.45,0,0,0-7.09-7.66c-28.58-16.45-60.89-14.16-77.61-11.33a17.42,17.42,0,0,0-12.27,8.61,14.85,14.85,0,0,1-9,7l-2.5.69A2.42,2.42,0,0,1,982.32,1056.35Z" transform="translate(-424.74 -190.82)"/><path class="cls-5" d="M1019.77,1070.09c-9.76-7.26-15.09-16.92-13.07-26.07a2.45,2.45,0,0,1,4.79,1c-2.69,12.23,11.73,25.83,32.15,30.32,10.09,2.22,20.07,1.87,28.11-1,7.64-2.71,12.54-7.34,13.8-13.05a13.89,13.89,0,0,0,.31-2.65,2.45,2.45,0,1,1,4.9.09,18.16,18.16,0,0,1-.42,3.61c-1.63,7.42-7.65,13.33-16.95,16.62-8.89,3.16-19.83,3.57-30.8,1.15A60.09,60.09,0,0,1,1019.77,1070.09Z" transform="translate(-424.74 -190.82)"/><path class="cls-5" d="M1018.87,1066.32a56.44,56.44,0,0,0,24.24,11.47c11.84,2.6,23.17,1.68,31.53-1.88a56.17,56.17,0,0,0-24.21-11.49C1038.57,1061.81,1027.23,1062.75,1018.87,1066.32Z" transform="translate(-424.74 -190.82)"/><path class="cls-7" d="M693.79,1197.51c.2.08.56.21.87.31l1,.3c.66.2,1.34.38,2,.55q2.07.49,4.2.84a66.55,66.55,0,0,0,8.61.8,74.44,74.44,0,0,0,8.7-.27,81.49,81.49,0,0,0,8.64-1.3A91,91,0,0,0,760,1184.68a81.53,81.53,0,0,0,13.61-11.38,86.89,86.89,0,0,0,5.77-6.79q2.67-3.59,5-7.41a91.77,91.77,0,0,0,7.66-16.22,85.18,85.18,0,0,0,4.39-17.47,85.46,85.46,0,0,1-3.61,17.73,93.79,93.79,0,0,1-7,16.77q-2.19,4-4.76,7.79a91.57,91.57,0,0,1-5.61,7.25,81.35,81.35,0,0,1-6.43,6.57c-1.12,1-2.32,2-3.49,3s-2.4,1.89-3.62,2.81a94.92,94.92,0,0,1-33,16.18,88.57,88.57,0,0,1-9.15,1.8,78.7,78.7,0,0,1-9.35.71,72.4,72.4,0,0,1-9.41-.45c-1.57-.18-3.14-.42-4.7-.72-.79-.16-1.57-.32-2.36-.52l-1.19-.31c-.41-.11-.77-.22-1.28-.39Z" transform="translate(-424.74 -190.82)"/><path class="cls-3" d="M765,1112.05c14.51-6.27,6.6,34.63-10.87,53s-40.93,24.48-52.39,13.6a18.35,18.35,0,0,1-2.35-2.72S714.71,1133.8,765,1112.05Z" transform="translate(-424.74 -190.82)"/><path class="cls-5" d="M689.78,1204.43a2.47,2.47,0,0,1-.73-3.06l1.75-3.53a11.68,11.68,0,0,0,1.08-7l-1.6-10.54a25,25,0,0,1,2.26-14.83c17.17-35.2,50.27-54.35,68.47-62.64a25,25,0,0,1,21.55.36,11.69,11.69,0,0,0,9,.6l2.79-.94a2.45,2.45,0,1,1,1.57,4.64l-2.79,1a16.58,16.58,0,0,1-12.72-.85,20.13,20.13,0,0,0-17.33-.3c-17.61,8-49.6,26.51-66.1,60.33a20.07,20.07,0,0,0-1.82,11.94l1.6,10.55a16.57,16.57,0,0,1-1.53,9.89l-1.75,3.53a2.46,2.46,0,0,1-3.29,1.11A3,3,0,0,1,689.78,1204.43Z" transform="translate(-424.74 -190.82)"/><path class="cls-5" d="M701.88,1182a19.69,19.69,0,0,1-1.86-1.56,20.71,20.71,0,0,1-2.67-3.09,2.45,2.45,0,0,1,4-2.82,15.78,15.78,0,0,0,2,2.35c10.45,9.93,32.41,3.88,48.92-13.51,8.14-8.57,13.7-18.56,15.66-28.13,1.88-9.16.21-16.77-4.7-21.43a2.45,2.45,0,1,1,3.38-3.55c6.18,5.87,8.36,15.09,6.13,26-2.15,10.46-8.15,21.3-16.91,30.53C738.38,1185.19,714.82,1191.64,701.88,1182Z" transform="translate(-424.74 -190.82)"/><path class="cls-5" d="M769.64,1138.81c-2.44,8.74-7.73,18-15.54,26.27-9.5,10-20.77,16.36-30.92,18.33,2.44-8.74,7.68-18,15.5-26.27C748.19,1147.13,759.48,1140.78,769.64,1138.81Z" transform="translate(-424.74 -190.82)"/><path class="cls-5" d="M1128.84,1648.13a2.39,2.39,0,0,1-.85-1.16,2.44,2.44,0,0,1,1.51-3.12l7.78-2.7a14.79,14.79,0,0,1,8.26-.42l9.71,2.28a26,26,0,0,0,19.64-3.35c23.22-14.66,34.37-31.29,39.63-42.65a25.42,25.42,0,0,0-.29-22,14.85,14.85,0,0,1-.35-12.37l2.07-4.88a2.45,2.45,0,1,1,4.51,1.92l-2.07,4.88a9.94,9.94,0,0,0,.24,8.28,30.32,30.32,0,0,1,.34,26.25c-5.54,12-17.23,29.44-41.46,44.73a30.84,30.84,0,0,1-23.38,4l-9.72-2.28a9.89,9.89,0,0,0-5.52.29l-7.78,2.69A2.44,2.44,0,0,1,1128.84,1648.13Z" transform="translate(-424.74 -190.82)"/><path class="cls-3" d="M1203.94,1582.68s10.65-2.62,5.52,8.22-44.47,49.67-53.08,46,11.59-33.39,17.76-38.77S1195.48,1582,1203.94,1582.68Z" transform="translate(-424.74 -190.82)"/><path class="cls-5" d="M1153.68,1635.16a2.44,2.44,0,0,1-1-2.11c.59-10.15,6.66-22.52,16.24-33.09,13.06-14.42,29.25-22.1,40.28-19.11a2.45,2.45,0,1,1-1.28,4.73c-9-2.44-23.88,5-35.37,17.68-8.85,9.76-14.45,21-15,30.07a2.45,2.45,0,0,1-3.91,1.83Z" transform="translate(-424.74 -190.82)"/><path class="cls-5" d="M1170.75,1601.61c-6.92,7.63-11.72,16-14,23.47,8.17-2.58,17.41-8.71,25.44-17.58,6.91-7.63,11.72-16,14-23.47C1188,1586.61,1178.78,1592.74,1170.75,1601.61Z" transform="translate(-424.74 -190.82)"/><path class="cls-3" d="M727.26,1545.94s12.32-5.52,4.09-32.58c-4.66-15.35-16.65-24.78-24.56-21.8C706.79,1491.56,702,1522.8,727.26,1545.94Z" transform="translate(-424.74 -190.82)"/><path class="cls-5" d="M722.59,1556a24.46,24.46,0,0,1-1.92-1.59c-24.68-22.53-24.58-53.83-22.46-64a13.34,13.34,0,0,1,3.6-6.7l2.35-2.39a7.59,7.59,0,0,0,2.17-4.75l.25-3.13a2.45,2.45,0,1,1,4.89.39l-.25,3.13a12.53,12.53,0,0,1-3.57,7.81l-2.35,2.38a8.6,8.6,0,0,0-2.29,4.26c-1.83,8.77-1.91,38.49,21,59.36,2.55,2.33,4.75,3.39,6.95,3.37h.78a12.49,12.49,0,0,1,10.58,5.58l.8,1.2a2.45,2.45,0,1,1-4.08,2.72l-.8-1.2a7.61,7.61,0,0,0-6.44-3.4H731A13.66,13.66,0,0,1,722.59,1556Z" transform="translate(-424.74 -190.82)"/><path class="cls-5" d="M725.8,1547.91a2.36,2.36,0,0,1-.83-1.1,2.45,2.45,0,0,1,1.43-3.16c2.89-1.09,4.92-4.66,5.56-9.79.73-5.77-.31-12.74-2.9-19.64s-6.42-12.82-10.77-16.67c-3.87-3.44-7.75-4.78-10.64-3.69a2.45,2.45,0,0,1-1.73-4.59c4.72-1.78,10.27-.14,15.63,4.61,4.93,4.37,9.23,11,12.1,18.62s4,15.43,3.18,22c-.89,7.1-4,12-8.7,13.77A2.44,2.44,0,0,1,725.8,1547.91Z" transform="translate(-424.74 -190.82)"/><path class="cls-5" d="M720.49,1494.85c-1.64,6.28-.93,15.06,2.43,24,2.93,7.78,7.3,14.15,11.93,18.07,1.42-6.43.61-15.13-2.72-24C729.24,1505.27,725,1498.94,720.49,1494.85Z" transform="translate(-424.74 -190.82)"/><path class="cls-5" d="M1184.78,1289.34a2.45,2.45,0,0,1,1.77-4.4,14.76,14.76,0,0,0,2.82.09,15.76,15.76,0,0,0,11.36-6,19.31,19.31,0,0,0,4.16-13.37c-.61-10.13-8.56-17.93-17.72-17.38a2.45,2.45,0,0,1-.29-4.89c11.86-.71,22.13,9.15,22.9,22a24.2,24.2,0,0,1-5.24,16.75,20.65,20.65,0,0,1-14.87,7.81,21.06,21.06,0,0,1-3.73-.12A2.44,2.44,0,0,1,1184.78,1289.34Z" transform="translate(-424.74 -190.82)"/><path class="cls-5" d="M1180.77,1278.42a14.76,14.76,0,0,1-5.8-11c-.47-7.88,5.11-14.66,12.44-15.09a12.38,12.38,0,0,1,5.32.84,2.45,2.45,0,1,1-1.78,4.57,7.64,7.64,0,0,0-3.24-.52c-4.64.28-8.15,4.72-7.84,9.91s4.33,9.18,9,8.9a2.45,2.45,0,0,1,.3,4.9A12.72,12.72,0,0,1,1180.77,1278.42Z" transform="translate(-424.74 -190.82)"/><path class="cls-5" d="M1177.42,1267.31a12.41,12.41,0,0,0,3.21,7.68,13.35,13.35,0,0,0,1.41-18.12A12.1,12.1,0,0,0,1177.42,1267.31Z" transform="translate(-424.74 -190.82)"/><circle class="cls-3" cx="985.06" cy="1422.31" r="48.32" transform="translate(-592.4 -58.68) rotate(-7.07)"/><polygon class="cls-7" points="547.18 1283.62 547.18 1283.62 547.19 1283.62 547.18 1283.62"/><path class="cls-7" d="M1038.1,1352.64a83.89,83.89,0,0,0-77.27-12.07c5.7,1.53,11.14,4.75,10.75,11.51-.64,11.12-3,8.39,2.16,13.09a56.7,56.7,0,1,1,3.73,110.6c4.47,1.29,6.48,2.83,4.31,6.12-2.94,4.46-5.65,3.18.72,9.38s19,4.08-2.86,12.36a84,84,0,0,0,58.46-151Z" transform="translate(-424.74 -190.82)"/><path class="cls-5" d="M964.44,1339.47a2.45,2.45,0,0,1,.85-4.34,86.87,86.87,0,0,1,35.3-1.76,2.45,2.45,0,1,1-.75,4.84,82,82,0,0,0-33.32,1.67A2.46,2.46,0,0,1,964.44,1339.47Z" transform="translate(-424.74 -190.82)"/><path class="cls-5" d="M950.71,1498.59a2.45,2.45,0,0,1,2.48-4.2,82.31,82.31,0,0,0,110.36-44.4,2.45,2.45,0,1,1,4.56,1.82,87.2,87.2,0,0,1-116.95,47A2.07,2.07,0,0,1,950.71,1498.59Z" transform="translate(-424.74 -190.82)"/><path class="cls-5" d="M954,1464.14a52.12,52.12,0,1,1,72.93-10.73,2.45,2.45,0,0,1-3.94-2.92,47.22,47.22,0,1,0-66.07,9.72,2.45,2.45,0,1,1-2.92,3.93Z" transform="translate(-424.74 -190.82)"/><path class="cls-5" d="M996,1455.06a2.45,2.45,0,0,1,.55-4.24,30.72,30.72,0,0,0,19.24-30.07,2.45,2.45,0,0,1,4.9-.26,35.65,35.65,0,0,1-22.31,34.88A2.46,2.46,0,0,1,996,1455.06Z" transform="translate(-424.74 -190.82)"/><path class="cls-5" d="M1013.36,1409.65a2.45,2.45,0,0,1-.73-.89,30.63,30.63,0,0,0-11.32-12.51,31.18,31.18,0,0,0-8-3.54,2.45,2.45,0,1,1,1.32-4.72A35.66,35.66,0,0,1,1017,1406.6a2.46,2.46,0,0,1-3.67,3.05Z" transform="translate(-424.74 -190.82)"/><path class="cls-5" d="M1072.64,1414.2a2.45,2.45,0,0,1-1-1.61,82.43,82.43,0,0,0-36.37-57,2.45,2.45,0,1,1,2.69-4.1,87.28,87.28,0,0,1,38.53,60.35,2.45,2.45,0,0,1-3.89,2.32Z" transform="translate(-424.74 -190.82)"/><path class="cls-5" d="M1291.87,1237.88a2.43,2.43,0,0,1-.94-1.49l-.64-3.21a12.46,12.46,0,0,1,1.47-8.75l1.57-2.69a9.83,9.83,0,0,0,1-7.37,136.15,136.15,0,0,0-10.09-26.58,9.82,9.82,0,0,0-6.43-5.19l-3.54-.88a12.51,12.51,0,0,1-4.34-2l-4.67-3.41h0a2.45,2.45,0,0,1,2.91-4l4.67,3.41a7.6,7.6,0,0,0,2.64,1.23l3.54.89a14.65,14.65,0,0,1,9.64,7.78,141.38,141.38,0,0,1,10.45,27.54,14.72,14.72,0,0,1-1.56,11l-1.58,2.7a7.55,7.55,0,0,0-.89,5.32l.64,3.21a2.45,2.45,0,0,1-3.87,2.44Z" transform="translate(-424.74 -190.82)"/><path class="cls-5" d="M1277.89,1190.75c-1.42,3.42-1.15,9,1.06,14.71s5.75,10,9.11,11.6c1.43-3.42-.48-8.28-2.68-14S1281.25,1192.32,1277.89,1190.75Z" transform="translate(-424.74 -190.82)"/><path class="cls-5" d="M967.93,1697.41a2.46,2.46,0,0,1,1.62-4.42l3.26.21a12.44,12.44,0,0,1,8.08,3.66l2.21,2.22A9.79,9.79,0,0,0,990,1702a136.51,136.51,0,0,0,28.27-2.93,9.82,9.82,0,0,0,6.67-4.88l1.77-3.2a12.33,12.33,0,0,1,3.07-3.67l4.49-3.64a2.45,2.45,0,1,1,3.09,3.81l-4.49,3.64a7.57,7.57,0,0,0-1.87,2.23l-1.77,3.2a14.67,14.67,0,0,1-10,7.32,141.28,141.28,0,0,1-29.3,3,14.68,14.68,0,0,1-10.27-4.34l-2.21-2.22a7.59,7.59,0,0,0-4.91-2.23l-3.26-.2A2.48,2.48,0,0,1,967.93,1697.41Z" transform="translate(-424.74 -190.82)"/><path class="cls-5" d="M1016.88,1693.85c-2.94-2.26-8.41-3.43-14.49-2.76s-11.17,3-13.55,5.82c2.94,2.26,8.13,1.67,14.21,1S1014.5,1696.69,1016.88,1693.85Z" transform="translate(-424.74 -190.82)"/><path class="cls-5" d="M647.82,1390.35a2.55,2.55,0,0,1-.73-.89l-2.28-4.64a6.4,6.4,0,0,0-1.51-2l-2.44-2.17a13.41,13.41,0,0,1-4.48-10.37,126.3,126.3,0,0,1,3.19-26.18,13.41,13.41,0,0,1,5.94-8.25l2.37-1.48a6.5,6.5,0,0,0,2.8-3.68l.83-2.81a2.45,2.45,0,0,1,4.7,1.39l-.82,2.81a11.51,11.51,0,0,1-4.91,6.46l-2.37,1.47a8.51,8.51,0,0,0-3.77,5.24,121,121,0,0,0-3.06,25.16,8.5,8.5,0,0,0,2.85,6.58l2.43,2.17a11.3,11.3,0,0,1,2.65,3.49l2.28,4.64a2.46,2.46,0,0,1-3.67,3Z" transform="translate(-424.74 -190.82)"/><path class="cls-5" d="M645.82,1370.28c2.56-2.11,4.66-6.65,5.28-12.08s-.38-10.32-2.38-13c-2.55,2.11-3.07,6.75-3.69,12.18S643.82,1367.64,645.82,1370.28Z" transform="translate(-424.74 -190.82)"/><path class="cls-5" d="M1147.24,1412.64a8.15,8.15,0,1,1,11.39-1.68A8.15,8.15,0,0,1,1147.24,1412.64Zm6.79-9.14a3.24,3.24,0,1,0,.67,4.53A3.23,3.23,0,0,0,1154,1403.5Z" transform="translate(-424.74 -190.82)"/><path class="cls-5" d="M1147.27,1163.11a8.15,8.15,0,1,1,11.39-1.68A8.15,8.15,0,0,1,1147.27,1163.11Zm6.79-9.14a3.24,3.24,0,1,0,.67,4.53A3.23,3.23,0,0,0,1154.06,1154Z" transform="translate(-424.74 -190.82)"/><path class="cls-5" d="M1305.9,1386.5a8.14,8.14,0,1,1,11.4-1.68A8.16,8.16,0,0,1,1305.9,1386.5Zm6.8-9.14a3.24,3.24,0,1,0,.66,4.53A3.25,3.25,0,0,0,1312.7,1377.36Z" transform="translate(-424.74 -190.82)"/><path class="cls-5" d="M1102.34,1727.66a8.14,8.14,0,1,1,11.4-1.67A8.15,8.15,0,0,1,1102.34,1727.66Zm6.79-9.13a3.24,3.24,0,1,0,.67,4.53A3.24,3.24,0,0,0,1109.13,1718.53Z" transform="translate(-424.74 -190.82)"/><path class="cls-5" d="M811.13,1464.49a8.14,8.14,0,1,1,11.4-1.67A8.15,8.15,0,0,1,811.13,1464.49Zm6.79-9.13a3.24,3.24,0,1,0,.67,4.53A3.24,3.24,0,0,0,817.92,1455.36Z" transform="translate(-424.74 -190.82)"/><path class="cls-5" d="M1002.55,1587.83a8.14,8.14,0,1,1,11.4-1.67A8.15,8.15,0,0,1,1002.55,1587.83Zm6.79-9.13a3.24,3.24,0,1,0,.67,4.53A3.23,3.23,0,0,0,1009.34,1578.7Z" transform="translate(-424.74 -190.82)"/><path class="cls-5" d="M775.59,1243.09a8.15,8.15,0,1,1,11.4-1.68A8.16,8.16,0,0,1,775.59,1243.09Zm6.8-9.14a3.24,3.24,0,1,0,.66,4.53A3.24,3.24,0,0,0,782.39,1234Z" transform="translate(-424.74 -190.82)"/><path class="cls-5" d="M1071.76,1235.69a8.15,8.15,0,1,1,11.4-1.68A8.16,8.16,0,0,1,1071.76,1235.69Zm6.8-9.14a3.24,3.24,0,1,0,.66,4.53A3.25,3.25,0,0,0,1078.56,1226.55Z" transform="translate(-424.74 -190.82)"/><path class="cls-5" d="M1297.18,1565.43a8.15,8.15,0,1,1,11.39-1.68A8.15,8.15,0,0,1,1297.18,1565.43Zm6.79-9.14a3.24,3.24,0,1,0,.67,4.53A3.23,3.23,0,0,0,1304,1556.29Z" transform="translate(-424.74 -190.82)"/><path class="cls-5" d="M798.43,1673.31a8.14,8.14,0,1,1,11.39-1.67A8.14,8.14,0,0,1,798.43,1673.31Zm6.79-9.13a3.24,3.24,0,1,0,.67,4.53A3.24,3.24,0,0,0,805.22,1664.18Z" transform="translate(-424.74 -190.82)"/><path class="cls-5" d="M645.61,1248.24a8.14,8.14,0,1,1,11.4-1.67A8.15,8.15,0,0,1,645.61,1248.24Zm6.79-9.13a3.24,3.24,0,1,0,.67,4.53A3.24,3.24,0,0,0,652.4,1239.11Z" transform="translate(-424.74 -190.82)"/><path class="cls-2" d="M1278.85,1628.88c-4.75,6.16-9.95,12-15.23,17.66s-10.82,11.2-16.49,16.52-11.48,10.53-17.43,15.56c-3,2.52-6,5-9,7.4s-6.15,4.8-9.27,7.13c-1.55,1.18-3.13,2.33-4.71,3.46s-3.15,2.3-4.75,3.41c-3.21,2.21-6.42,4.43-9.69,6.55-6.53,4.26-13.17,8.36-20,12.11a249.84,249.84,0,0,1-42.55,19.16c13.8-7.16,27.25-14.73,40.26-23,3.28-2,6.47-4.2,9.71-6.28s6.42-4.26,9.56-6.49c6.35-4.36,12.58-8.89,18.76-13.5,12.36-9.2,24.36-18.89,36.19-28.82,5.88-5,11.74-10,17.51-15.21S1273.17,1634.19,1278.85,1628.88Z" transform="translate(-424.74 -190.82)"/><path class="cls-4" d="M778,1121c2.52,12.6-1,25.51-7.46,36.4a88.41,88.41,0,0,1-6.64,9.66c-1,1.24,1,2.7,2,1.46,8.36-10.68,14.82-23.39,15.37-37.17a45.25,45.25,0,0,0-.81-10.71c-.31-1.55-2.74-1.2-2.43.36Z" transform="translate(-424.74 -190.82)"/><path class="cls-4" d="M883.21,1182.32a22.24,22.24,0,0,0,4.4,6.94,1.23,1.23,0,0,0,1.93-1.51,21,21,0,0,1-2.39-3.08,14.38,14.38,0,0,1-.88-1.53c-.29-.58-.56-1.17-.8-1.78a1.23,1.23,0,0,0-1.61-.64,1.25,1.25,0,0,0-.65,1.6Z" transform="translate(-424.74 -190.82)"/><path class="cls-4" d="M756.22,1174.88a34.35,34.35,0,0,1-3.2,2.28,1.22,1.22,0,0,0-.47.83,1.29,1.29,0,0,0,.25.89,1.27,1.27,0,0,0,.84.46,1.38,1.38,0,0,0,.89-.25,31,31,0,0,0,3.2-2.28,1.23,1.23,0,1,0-1.51-1.93Z" transform="translate(-424.74 -190.82)"/><path class="cls-4" d="M954.19,1364a20.31,20.31,0,0,0-7.24,3.88,1.23,1.23,0,0,0,1.51,1.94,18.39,18.39,0,0,1,1.59-1.2,12.61,12.61,0,0,1,1.48-.89,18.69,18.69,0,0,1,3.62-1.47,1.23,1.23,0,0,0,.65-1.61,1.27,1.27,0,0,0-1.61-.65Z" transform="translate(-424.74 -190.82)"/><path class="cls-4" d="M938.4,1378.67a1.23,1.23,0,0,0,1.46-2,1.23,1.23,0,0,0-1.46,2Z" transform="translate(-424.74 -190.82)"/><path class="cls-4" d="M827.94,1561.31a14.83,14.83,0,0,0-2.14,4.7,1.41,1.41,0,0,0,0,.93,1.24,1.24,0,0,0,.69.66,1.22,1.22,0,0,0,.92,0,1.15,1.15,0,0,0,.66-.69,15.09,15.09,0,0,1,.78-2.26l.24-.51c0-.1.11-.2.16-.31s.12-.32,0,0a2.82,2.82,0,0,1,.31-.53l.33-.51a1.23,1.23,0,0,0-2-1.46Z" transform="translate(-424.74 -190.82)"/><path class="cls-4" d="M895.5,1609.78a1.23,1.23,0,0,0,1.46-2,1.23,1.23,0,0,0-1.46,2Z" transform="translate(-424.74 -190.82)"/><path class="cls-4" d="M715.14,1485.5a11.42,11.42,0,0,1,5.07,1.93,27.36,27.36,0,0,1,4.36,3.21,57.53,57.53,0,0,1,7.48,8.41,1.23,1.23,0,0,0,1.94-1.51,60.43,60.43,0,0,0-8.24-9.12,28,28,0,0,0-4.87-3.41,12.74,12.74,0,0,0-5.46-2c-1.57,0-1.86,2.41-.28,2.44Z" transform="translate(-424.74 -190.82)"/><path class="cls-4" d="M737.37,1507.7a1.23,1.23,0,0,0,1.47-2,1.23,1.23,0,0,0-1.47,2Z" transform="translate(-424.74 -190.82)"/><path class="cls-4" d="M1202.43,1606.56a54.6,54.6,0,0,1-13.23,15.74c-1.23,1,.28,2.93,1.51,1.93a56.4,56.4,0,0,0,13.69-16.2c.76-1.36-1.2-2.84-2-1.47Z" transform="translate(-424.74 -190.82)"/><path class="cls-4" d="M1183.16,1628.89a1.23,1.23,0,0,0,1.47-2,1.23,1.23,0,0,0-1.47,2Z" transform="translate(-424.74 -190.82)"/><path class="cls-4" d="M1336.77,1582.22l-3.91,7.58a1.23,1.23,0,0,0,.7,1.59,1.25,1.25,0,0,0,1.58-.7q2-3.8,3.91-7.59a1.23,1.23,0,0,0-.7-1.58,1.25,1.25,0,0,0-1.58.7Z" transform="translate(-424.74 -190.82)"/><path class="cls-4" d="M1254.5,1421.23c2.14,4.84.5,10.22-2,14.59a1.26,1.26,0,0,0,.26,1.71,1.22,1.22,0,0,0,1.71-.25c2.94-5.12,4.82-11.33,2.29-17a1.22,1.22,0,0,0-2.25,1Z" transform="translate(-424.74 -190.82)"/><path class="cls-4" d="M1250,1442.88a1.23,1.23,0,0,0,1.47-2,1.23,1.23,0,0,0-1.47,2Z" transform="translate(-424.74 -190.82)"/><path class="cls-4" d="M950.26,1157.84c.11.16,0,0,.06.09a2.29,2.29,0,0,1,.1.23s.09.28,0,.12l.06.24c.07.38.12.76.16,1.15s.07.78.09,1.17c0,.08,0,.17,0,.26v.14c0,.2,0,.39,0,.59a17,17,0,0,1-.24,2.26,12.38,12.38,0,0,1-.53,2.16,1.23,1.23,0,1,0,2.29.89,18.72,18.72,0,0,0,.92-5.3,19,19,0,0,0-.12-2.72,5.83,5.83,0,0,0-.9-2.79,1.24,1.24,0,0,0-1.72-.22,1.27,1.27,0,0,0-.21,1.73Z" transform="translate(-424.74 -190.82)"/><path class="cls-4" d="M948.34,1172.6a1.22,1.22,0,0,0,1.46-2,1.22,1.22,0,0,0-1.46,2Z" transform="translate(-424.74 -190.82)"/><path class="cls-4" d="M999.44,1053.63c-1,1.91-.58,4.1.07,6a18,18,0,0,0,2.64,5.52,1.23,1.23,0,1,0,1.94-1.51,16.16,16.16,0,0,1-2.23-4.7,8.68,8.68,0,0,1-.54-2.34,2.8,2.8,0,0,1,0-.5q0-.3.06-.6a3.81,3.81,0,0,1,.36-1,1.23,1.23,0,0,0-.7-1.59,1.26,1.26,0,0,0-1.59.7Z" transform="translate(-424.74 -190.82)"/><path class="cls-4" d="M1007.62,1070.72a1.23,1.23,0,0,0,1.46-2,1.23,1.23,0,0,0-1.46,2Z" transform="translate(-424.74 -190.82)"/><path class="cls-4" d="M787.86,1322.83c1.19,8.25,2.16,17.36-2.17,24.92-.77,1.36,1.18,2.84,2,1.47,4.7-8.21,3.92-17.74,2.63-26.75a1.23,1.23,0,0,0-2.43.36Z" transform="translate(-424.74 -190.82)"/><path class="cls-4" d="M782.61,1357.57a5.58,5.58,0,0,0,.74-.87,5.48,5.48,0,0,0,.53-1,1.27,1.27,0,0,0,0-.92.93.93,0,0,0-.28-.39.87.87,0,0,0-.41-.27,1.22,1.22,0,0,0-.92,0,1.24,1.24,0,0,0-.66.69,4.44,4.44,0,0,1-.24.49l.16-.29a3.78,3.78,0,0,1-.61.83l.23-.24,0,.05a.89.89,0,0,0-.31.38,1,1,0,0,0-.16.45,1,1,0,0,0,0,.46.91.91,0,0,0,.21.43,1.22,1.22,0,0,0,.83.46H782a1.26,1.26,0,0,0,.58-.25Z" transform="translate(-424.74 -190.82)"/><path class="cls-4" d="M656.14,1346.43a27.37,27.37,0,0,1-2,21.07,1.25,1.25,0,0,0,.7,1.59,1.26,1.26,0,0,0,1.59-.7,29.78,29.78,0,0,0,2-22.92c-.48-1.5-2.73-.53-2.26,1Z" transform="translate(-424.74 -190.82)"/><path class="cls-4" d="M650.84,1375.5a1.23,1.23,0,0,0,1.46-2,1.23,1.23,0,0,0-1.46,2Z" transform="translate(-424.74 -190.82)"/><path class="cls-4" d="M989.62,1690.51c5.84-5.64,14.38-8.67,22.15-5.22,1.44.64,2.33-1.65.88-2.29-8.48-3.77-18.12-.63-24.54,5.57-1.13,1.09.37,3,1.51,1.94Z" transform="translate(-424.74 -190.82)"/><path class="cls-4" d="M1017.86,1688.55a1.23,1.23,0,0,0,1.46-2,1.23,1.23,0,0,0-1.46,2Z" transform="translate(-424.74 -190.82)"/><path class="cls-4" d="M1200.08,1573.41a8.74,8.74,0,0,0-6.2.68,66.4,66.4,0,0,0-6.83,3.48,90.25,90.25,0,0,0-12.9,8.87c-1.22,1,.29,2.93,1.51,1.93a86.91,86.91,0,0,1,11.7-8.17c2-1.16,4.05-2.24,6.13-3.24,1.71-.81,3.76-1.88,5.7-1.26,1.5.47,2.4-1.81.89-2.29Z" transform="translate(-424.74 -190.82)"/><path class="cls-4" d="M1168.38,1592.63a1.23,1.23,0,0,0,1.47-2,1.23,1.23,0,0,0-1.47,2Z" transform="translate(-424.74 -190.82)"/><path class="cls-4" d="M1326.67,1600.85a1.22,1.22,0,0,0,1.46-2,1.22,1.22,0,0,0-1.46,2Z" transform="translate(-424.74 -190.82)"/><path class="cls-4" d="M858.64,1551.92c3.23-.73,6.48,0,9.56,1a48.26,48.26,0,0,1,9.64,4.48A93,93,0,0,1,894.68,1571a1.27,1.27,0,0,0,1.72.21,1.24,1.24,0,0,0,.21-1.72c-5.49-5.37-11.29-10.51-18-14.39a50.37,50.37,0,0,0-10.29-4.64c-3.25-1-6.7-1.69-10.08-.92-1.53.34-1.19,2.77.35,2.42Z" transform="translate(-424.74 -190.82)"/><path class="cls-4" d="M917.47,1426.54c-1.19,2.29-.61,4.88.09,7.21a54.91,54.91,0,0,0,3,7.74,58.3,58.3,0,0,0,9.07,13.8c1,1.18,3-.32,1.93-1.51a55.48,55.48,0,0,1-11.23-19.48c-.72-2.15-1.67-4.7-.55-6.87.73-1.4-1.56-2.28-2.28-.89Z" transform="translate(-424.74 -190.82)"/><path class="cls-4" d="M1243.07,1396.82a18.65,18.65,0,0,0-13,10,1.25,1.25,0,0,0,.7,1.59,1.27,1.27,0,0,0,1.59-.7,16,16,0,0,1,11.07-8.47c1.54-.31,1.19-2.74-.36-2.43Z" transform="translate(-424.74 -190.82)"/><path class="cls-4" d="M1226.78,1413.81a1.23,1.23,0,0,0,1.46-2,1.23,1.23,0,0,0-1.46,2Z" transform="translate(-424.74 -190.82)"/><path class="cls-4" d="M1216.36,1445.3c.75,2.09,1.59,4.14,2.54,6.14a1.23,1.23,0,0,0,2.26-1,64.46,64.46,0,0,1-2.54-6.14,1.23,1.23,0,0,0-1.61-.64,1.25,1.25,0,0,0-.65,1.6Z" transform="translate(-424.74 -190.82)"/><path class="cls-4" d="M1017.9,1050c3.9-1,7.91-.25,11.79.46a1.25,1.25,0,0,0,1.36-1.08,1.26,1.26,0,0,0-1.09-1.36c-4.07-.74-8.32-1.47-12.42-.45a1.27,1.27,0,0,0-1,1.4,1.23,1.23,0,0,0,1.39,1Z" transform="translate(-424.74 -190.82)"/><path class="cls-4" d="M1034.24,1051.82a1.23,1.23,0,0,0,1.46-2,1.23,1.23,0,0,0-1.46,2Z" transform="translate(-424.74 -190.82)"/><path class="cls-4" d="M980.28,1001.66a280.79,280.79,0,0,0-91.93,12.1q-12.42,3.78-24.45,8.69a3.68,3.68,0,1,0,2.88,6.77q10.5-4.29,21.33-7.72c1.86-.59,3.72-1.15,5.59-1.7l2.64-.76.59-.17,1.49-.4q5.48-1.49,11-2.74a279.12,279.12,0,0,1,45-6.44c2.12-.12,4.23-.23,6.35-.31l3.09-.09,1.72,0h.09l.86,0q6.45-.08,12.89.14a3.76,3.76,0,0,0,4.07-3.25c.12-1.86-1.2-4-3.26-4.06Z" transform="translate(-424.74 -190.82)"/><path class="cls-4" d="M845,1034.51a3.68,3.68,0,1,0-.76-5.15,3.72,3.72,0,0,0,.76,5.15Z" transform="translate(-424.74 -190.82)"/><path class="cls-4" d="M615.84,1269.31a211,211,0,0,0-8.21,39,3.68,3.68,0,0,0,7.31.81c.72-6.39,1.73-12.75,3-19,.32-1.56.66-3.11,1-4.66s.55-2.32,1-4.08q1.23-4.72,2.68-9.37a3.75,3.75,0,0,0-2.1-4.76c-1.78-.6-4.15.13-4.76,2.1Z" transform="translate(-424.74 -190.82)"/><path class="cls-4" d="M609.74,1341.4a3.68,3.68,0,1,0-.76-5.14,3.72,3.72,0,0,0,.76,5.14Z" transform="translate(-424.74 -190.82)"/><path class="cls-4" d="M1240.51,1276.7c0,.35,0,.7,0,1,0-.62,0,.14,0,.29,0,.64,0,1.29,0,1.93,0,1.29,0,2.57,0,3.86q-.09,3.69-.35,7.36-.56,7.53-1.81,15c-.43,2.54-.92,5.06-1.47,7.58q-.37,1.71-.78,3.42c.17-.73-.1.39-.11.43l-.18.68c-.17.68-.35,1.36-.53,2q-2,7.29-4.62,14.36a160.73,160.73,0,0,1-6.91,15.74,3.69,3.69,0,0,0,2.1,4.76,3.78,3.78,0,0,0,4.76-2.1,162.14,162.14,0,0,0,16.74-59.5,168,168,0,0,0,.46-17.95c0-1.93-2.39-3.45-4.18-3.1a3.79,3.79,0,0,0-3.1,4.17Z" transform="translate(-424.74 -190.82)"/><path class="cls-4" d="M1210.91,1394a3.68,3.68,0,1,0-.76-5.15,3.71,3.71,0,0,0,.76,5.15Z" transform="translate(-424.74 -190.82)"/><path class="cls-4" d="M687.88,1584.4,729,1605.69l11.76,6.09c1.71.89,4.17-.35,4.76-2.09a3.79,3.79,0,0,0-2.1-4.77l-41.07-21.29-11.76-6.09c-1.71-.89-4.17.35-4.76,2.09a3.79,3.79,0,0,0,2.1,4.77Z" transform="translate(-424.74 -190.82)"/><path class="cls-4" d="M770.86,1615.48a3.68,3.68,0,1,0-.75-5.15,3.73,3.73,0,0,0,.75,5.15Z" transform="translate(-424.74 -190.82)"/><path class="cls-4" d="M901,1259.22a3.68,3.68,0,1,0-.76-5.14,3.73,3.73,0,0,0,.76,5.14Z" transform="translate(-424.74 -190.82)"/><path class="cls-4" d="M737.5,1278.23a3.68,3.68,0,1,0-.76-5.14,3.73,3.73,0,0,0,.76,5.14Z" transform="translate(-424.74 -190.82)"/><path class="cls-4" d="M715.57,1398.63a59.47,59.47,0,0,0,11.84,30.82,3.68,3.68,0,0,0,5.81-4.52c-.81-1.06-1.57-2.15-2.3-3.26-.33-.51-.64-1-1-1.55-.14-.23-.12-.19.06.11-.08-.15-.17-.29-.25-.43l-.41-.73a55.93,55.93,0,0,1-3.28-7.07c-.46-1.19-.87-2.4-1.24-3.62-.1-.31-.19-.63-.28-1,.17.61,0-.2-.1-.38-.15-.59-.3-1.18-.43-1.77a55.76,55.76,0,0,1-1.17-7.72,3.7,3.7,0,0,0-4.17-3.1,3.76,3.76,0,0,0-3.11,4.17Z" transform="translate(-424.74 -190.82)"/><path class="cls-4" d="M750,1458.39a3.68,3.68,0,1,0-.76-5.15,3.72,3.72,0,0,0,.76,5.15Z" transform="translate(-424.74 -190.82)"/><path class="cls-4" d="M1150.7,1197.86a3.68,3.68,0,1,0-.75-5.15,3.72,3.72,0,0,0,.75,5.15Z" transform="translate(-424.74 -190.82)"/><path class="cls-4" d="M1225.28,1194.73a3.68,3.68,0,1,0-.76-5.15,3.76,3.76,0,0,0,.76,5.15Z" transform="translate(-424.74 -190.82)"/><path class="cls-2" d="M1029.24,1118.29a3.68,3.68,0,1,0-.75-5.15,3.72,3.72,0,0,0,.75,5.15Z" transform="translate(-424.74 -190.82)"/><path class="cls-2" d="M1154.85,1328.85a3.68,3.68,0,1,0-.76-5.15,3.73,3.73,0,0,0,.76,5.15Z" transform="translate(-424.74 -190.82)"/><path class="cls-2" d="M1098.83,1538.12a3.68,3.68,0,1,0-.75-5.15,3.72,3.72,0,0,0,.75,5.15Z" transform="translate(-424.74 -190.82)"/><path class="cls-2" d="M1149.27,1473.63c-.27.6-.57,1.19-.87,1.78-.39.77.34-.54-.07.13-.2.32-.39.65-.6,1a30.23,30.23,0,0,1-2.17,3c-.4.47-.82.92-1.23,1.38-.19.2-.13.14.2-.2l-.41.4c-.2.2-.41.39-.62.58a29.56,29.56,0,0,1-3.11,2.47,3.7,3.7,0,0,0-.64,5.16,3.77,3.77,0,0,0,5.17.64,33,33,0,0,0,11.21-13.63,3.69,3.69,0,0,0-2.1-4.76,3.76,3.76,0,0,0-4.76,2.1Z" transform="translate(-424.74 -190.82)"/><path class="cls-2" d="M908.48,1068.93a83.12,83.12,0,0,0-57.65,14.46,3.71,3.71,0,0,0-.63,5.17,3.76,3.76,0,0,0,5.16.64q2.34-1.64,4.78-3.1c-.67.4.38-.22.55-.32l1.1-.61c.84-.46,1.68-.9,2.53-1.32a78.68,78.68,0,0,1,10.22-4.26c.85-.29,1.7-.56,2.56-.82l.76-.22c.13,0,.67-.18,0,0l1.53-.41c1.74-.45,3.49-.83,5.26-1.16a81.24,81.24,0,0,1,11-1.26l1.58,0c-.69,0-.13,0,0,0h1c1,0,2.11,0,3.16.07,2.11.08,4.21.26,6.31.52a3.68,3.68,0,0,0,.81-7.32Z" transform="translate(-424.74 -190.82)"/><path class="cls-2" d="M827.53,1109.88a3.68,3.68,0,1,0-.75-5.15,3.72,3.72,0,0,0,.75,5.15Z" transform="translate(-424.74 -190.82)"/><path class="cls-2" d="M1191.34,1097.25a3.68,3.68,0,1,0-.75-5.15,3.73,3.73,0,0,0,.75,5.15Z" transform="translate(-424.74 -190.82)"/><path class="cls-2" d="M848.93,1334.38a87.66,87.66,0,0,0-9.84,47.17,81.73,81.73,0,0,0,2,13.2,3.74,3.74,0,0,0,4.17,3.1c1.82-.35,3.58-2.17,3.1-4.17a84,84,0,0,1-1.87-11.57c-.08-.92-.15-1.84-.2-2.77,0-.43,0-.86-.06-1.3l0-.81c0-.09,0-1,0-.51s0-.54,0-.51v-.65c0-.43,0-.87,0-1.3,0-1,0-2.07.1-3.1a84.93,84.93,0,0,1,1.4-11.47c.17-.91.36-1.82.56-2.72.06-.26.13-.53.19-.79s.17-.69,0,0c.13-.53.27-1.06.41-1.58.49-1.84,1-3.66,1.66-5.45a82.66,82.66,0,0,1,5.27-12.09c.91-1.7-.37-4.18-2.1-4.76a3.79,3.79,0,0,0-4.76,2.1Z" transform="translate(-424.74 -190.82)"/><path class="cls-2" d="M857.48,1416.26a3.68,3.68,0,1,0-.76-5.14,3.72,3.72,0,0,0,.76,5.14Z" transform="translate(-424.74 -190.82)"/><path class="cls-2" d="M618.91,1423.12a119.84,119.84,0,0,0,1.22,37.56c.71,3.65,1.61,7.24,2.63,10.81.53,1.86,3.18,2.73,4.83,2a3.8,3.8,0,0,0,1.94-4.83c-.18-.64.06.22-.12-.42-.11-.39-.21-.78-.31-1.17-.19-.72-.38-1.45-.55-2.18-.35-1.45-.68-2.91-1-4.38q-.89-4.41-1.43-8.87c-.37-3-.61-5.95-.75-8.95,0-.74,0-1.49-.07-2.24,0-.17,0-.35,0-.52v.08c0-.46,0-.92,0-1.38,0-1.5,0-3,.08-4.49.13-3.4.41-6.78.83-10.16a3.68,3.68,0,1,0-7.31-.81Z" transform="translate(-424.74 -190.82)"/><path class="cls-2" d="M629.7,1508.56a3.68,3.68,0,1,0-.76-5.14,3.73,3.73,0,0,0,.76,5.14Z" transform="translate(-424.74 -190.82)"/><path class="cls-2" d="M928.12,1561.55a3.68,3.68,0,1,0-.75-5.15,3.73,3.73,0,0,0,.75,5.15Z" transform="translate(-424.74 -190.82)"/><path class="cls-2" d="M1047.58,1269.59a3.71,3.71,0,0,0,5.14-.76,3.68,3.68,0,1,0-5.14.76Z" transform="translate(-424.74 -190.82)"/><path class="cls-2" d="M998.49,1145.21a3.68,3.68,0,1,0-.76-5.15,3.71,3.71,0,0,0,.76,5.15Z" transform="translate(-424.74 -190.82)"/><path class="cls-2" d="M672.47,1277.72a3.68,3.68,0,1,0-.76-5.15,3.71,3.71,0,0,0,.76,5.15Z" transform="translate(-424.74 -190.82)"/><rect class="cls-8" x="366.81" y="257.21" width="410.99" height="465.74" rx="53.93"/><rect class="cls-9" x="384.14" y="276.85" width="376.32" height="426.46" rx="49.38"/><path class="cls-5" d="M1148.61,918.27H845.48a58.49,58.49,0,0,1-58.43-58.43V502a58.49,58.49,0,0,1,58.43-58.43h303.13A58.49,58.49,0,0,1,1207,502V859.84A58.49,58.49,0,0,1,1148.61,918.27ZM845.48,452.53A49.49,49.49,0,0,0,796.05,502V859.84a49.48,49.48,0,0,0,49.43,49.43h303.13A49.49,49.49,0,0,0,1198,859.84V502a49.49,49.49,0,0,0-49.43-49.43Z" transform="translate(-424.74 -190.82)"/><path class="cls-8" d="M1182.92,875.9c-.39-9.2-.6-15.39-.42-18.12l1.53-52.47c-.3-93.33-15.11-178.69-15.11-178.69s-27.34-85.41-21.56-121.26l-293.74,6.93s-1,72.13-23.23,114.33c0,0-14.72,84.87-15.11,177.89l1.53,53.27c.18,2.69,0,8.73-.38,17.69C869,885.55,1023.68,909.19,1182.92,875.9Z" transform="translate(-424.74 -190.82)"/><path class="cls-8" d="M852.64,505c-106.56,27.39-126,175.43-126,175.43-20.67,8.86-90.86-7.29-90.86-7.29L571,750.27s144.57,122.91,247-6.2l20-10.38Z" transform="translate(-424.74 -190.82)"/><path class="cls-9" d="M830.39,626.62s-14.72,84.87-15.11,177.89l.64,22.37,13.61,6.87,54.92-37.89,37.33-88.19-21.44-8.79c-2.18,15-32.81,70-42.13,67.26S845.53,715.86,855,647.68s36.28-86.82,36.28-86.82l27.83-41.05-22.57-8.54-42.9,1S855,566,830.39,626.62Z" transform="translate(-424.74 -190.82)"/><path class="cls-8" d="M1147.36,505.36c106.56,27.39,126,175.43,126,175.43,20.67,8.86,90.86-7.29,90.86-7.29L1429,750.66s-144.57,122.91-247-6.2l-20-10.39Z" transform="translate(-424.74 -190.82)"/><path class="cls-9" d="M1167.61,620s14.73,84.86,15.11,177.88l-.64,22.37-13.6,6.87-54.93-37.88-37.32-88.19,21.43-8.8c2.18,15,32.81,70,42.13,67.27s12.68-50.28,3.24-118.46-36.28-86.82-36.28-86.82l-27.84-41.06,22.57-8.53,42.91,1S1143,559.41,1167.61,620Z" transform="translate(-424.74 -190.82)"/><path class="cls-9" d="M1029.12,697.51s-2.89,105.94,82,138.79,23.71-22.6,23.71-22.6l-80.92-122.92Z" transform="translate(-424.74 -190.82)"/><path class="cls-9" d="M970.77,694.92s2.89,105.94-82,138.78-23.7-22.6-23.7-22.6L946,688.19Z" transform="translate(-424.74 -190.82)"/><polygon class="cls-10" points="519.6 642.18 544.04 603.58 606.58 603.58 629.49 642.18 519.6 642.18"/><polygon class="cls-11" points="534.46 644.67 552.13 616.78 597.32 616.78 613.87 644.67 534.46 644.67"/><path class="cls-11" d="M944.34,853.19s3,63.32,28.23,121.17c0,0,10.95,3.91,27.19,3.61s27-3.61,27-3.61c25.23-57.85,27.5-119.17,27.5-119.17s-33.79.35-55.77,0S944.34,853.19,944.34,853.19Z" transform="translate(-424.74 -190.82)"/><path class="cls-10" d="M1041.51,855.29c-3.21,19.12-9.06,44.07-19.63,68.32a91,91,0,0,1-23,3.08c-13.87.26-23.21-3.08-23.21-3.08C965,899.06,959,873.37,955.6,853.73c-6.77-.31-11.26-.54-11.26-.54s3,63.32,28.23,121.17c0,0,10.95,3.91,27.19,3.61s27-3.61,27-3.61c25.23-57.85,27.5-119.17,27.5-119.17Z" transform="translate(-424.74 -190.82)"/><path class="cls-12" d="M813.79,815.3s184.67,44.31,370.24,0v20.2c-185.57,44.31-370.24,0-370.24,0Z" transform="translate(-424.74 -190.82)"/><rect class="cls-12" x="553.88" y="537.59" width="42.44" height="64.73"/><path class="cls-13" d="M1018.46,773.2A21.41,21.41,0,0,1,997,751.79V728.41H978.62v64.73h42.44V773.2Z" transform="translate(-424.74 -190.82)"/><path class="cls-8" d="M999.94,519.81c93.4,0,141.66-49.83,151.37-62.79a189.89,189.89,0,0,0,17.92-81c0-99.81-75.8-180.72-169.29-180.72S830.65,276.23,830.65,376a190,190,0,0,0,17.91,81C858.28,470,906.53,519.81,999.94,519.81Z" transform="translate(-424.74 -190.82)"/><path class="cls-9" d="M888.93,458.05a189.89,189.89,0,0,1-17.92-81c0-94,67.23-171.23,153.16-179.9a160.14,160.14,0,0,0-24.23-1.85c-93.5,0-169.29,80.91-169.29,180.72a190,190,0,0,0,17.91,81c9.72,13,58,62.79,151.38,62.79q7.06,0,13.79-.38C937.67,511.27,897.67,469.72,888.93,458.05Z" transform="translate(-424.74 -190.82)"/><path class="cls-5" d="M999.94,524.31c-105.39,0-153-62-155-64.6a4.37,4.37,0,0,1-.47-.78A193.28,193.28,0,0,1,826.15,376c0-102.13,78-185.22,173.79-185.22S1173.72,273.91,1173.72,376a193.28,193.28,0,0,1-18.34,82.89,3.85,3.85,0,0,1-.47.78C1152.94,462.35,1105.33,524.31,999.94,524.31ZM852.43,454.67c4.23,5.45,49.48,60.64,147.51,60.64s143.27-55.19,147.5-60.64A184.32,184.32,0,0,0,1164.72,376c0-97.17-73.92-176.22-164.78-176.22S835.15,278.87,835.15,376A184.32,184.32,0,0,0,852.43,454.67Z" transform="translate(-424.74 -190.82)"/><rect class="cls-12" x="797.2" y="353.21" width="27.17" height="54.92" rx="10.41" transform="translate(-451.07 -128.79) rotate(-4.31)"/><path class="cls-5" d="M808.88,412.82A14.93,14.93,0,0,1,794,399l-2.57-34a14.93,14.93,0,0,1,13.75-16l6.34-.48a14.93,14.93,0,0,1,16,13.74l2.57,34a14.93,14.93,0,0,1-13.75,16l-6.34.48C809.64,412.81,809.26,412.82,808.88,412.82Zm3.8-55.3a3.39,3.39,0,0,0-.45,0l-6.34.47a5.94,5.94,0,0,0-5.44,6.34l2.56,34a5.87,5.87,0,0,0,2,4,5.81,5.81,0,0,0,4.28,1.42l6.35-.47h0a5.94,5.94,0,0,0,5.44-6.34l-2.56-34a6,6,0,0,0-5.89-5.46Z" transform="translate(-424.74 -190.82)"/><path class="cls-8" d="M869.84,303l-46.29,28.12a25,25,0,0,0-9.41,20.9l3,55.91a25,25,0,0,0,12.34,20.27l35,15.32Z" transform="translate(-424.74 -190.82)"/><rect class="cls-12" x="1174.93" y="353.21" width="27.17" height="54.92" rx="10.41" transform="translate(1920.31 658.8) rotate(-175.69)"/><path class="cls-5" d="M1190.42,412.82c-.38,0-.75,0-1.13,0l-6.34-.48a14.93,14.93,0,0,1-13.75-16l2.57-34a14.92,14.92,0,0,1,16-13.74l6.34.48a14.93,14.93,0,0,1,13.75,16l-2.57,34A14.93,14.93,0,0,1,1190.42,412.82Zm-3.79-55.3a5.91,5.91,0,0,0-5.89,5.46l-2.56,34a5.94,5.94,0,0,0,5.44,6.34l6.34.47a5.92,5.92,0,0,0,6.34-5.44l2.56-34a5.94,5.94,0,0,0-5.44-6.34l-6.35-.47A3.31,3.31,0,0,0,1186.63,357.52Z" transform="translate(-424.74 -190.82)"/><path class="cls-8" d="M1129.47,303l46.28,28.12a25,25,0,0,1,9.42,20.9l-3,55.91a25,25,0,0,1-12.34,20.27l-35,15.32Z" transform="translate(-424.74 -190.82)"/><path class="cls-5" d="M1134.86,448a4.5,4.5,0,0,1-1.8-8.63l34.76-15.2a20.46,20.46,0,0,0,9.91-16.5l3-55.91a20.55,20.55,0,0,0-7.52-17l-46-28a4.5,4.5,0,1,1,4.67-7.69l46.28,28.12a3.83,3.83,0,0,1,.46.33,29.52,29.52,0,0,1,11.11,24.65l-2.94,55.91a29.44,29.44,0,0,1-14.57,23.92,4.16,4.16,0,0,1-.47.24l-35,15.32A4.63,4.63,0,0,1,1134.86,448Z" transform="translate(-424.74 -190.82)"/><path class="cls-12" d="M999.94,491c-90.86,0-162-46.94-162-106.87,0-24.63,4.6-44.35,14.06-60.31C861,308.54,874.61,297,892.31,289.6c29.42-12.34,67.41-12.34,107.63-12.34s78.2,0,107.62,12.34c17.71,7.42,31.28,18.94,40.35,34.23,9.46,16,14.06,35.68,14.06,60.31C1162,444.07,1090.8,491,999.94,491Z" transform="translate(-424.74 -190.82)"/><path class="cls-5" d="M999.94,495.51c-93.38,0-166.53-48.92-166.53-111.37,0-25.46,4.8-45.93,14.69-62.61,9.56-16.13,23.86-28.28,42.47-36.08,30.26-12.69,68.68-12.69,109.37-12.69s79.11,0,109.36,12.69c18.62,7.8,32.91,19.95,42.48,36.08,9.88,16.68,14.69,37.15,14.69,62.61C1166.47,446.59,1093.32,495.51,999.94,495.51Zm0-213.75c-39.75,0-77.3,0-105.89,12-16.79,7-29.65,17.93-38.21,32.37-9,15.25-13.43,34.22-13.43,58,0,57.4,69.19,102.37,157.53,102.37s157.53-45,157.53-102.37c0-23.8-4.4-42.77-13.43-58-8.56-14.44-21.42-25.33-38.22-32.37C1077.24,281.76,1039.69,281.76,999.94,281.76Z" transform="translate(-424.74 -190.82)"/><ellipse class="cls-14" cx="575.2" cy="193.32" rx="140.35" ry="85.19"/><path class="cls-15" d="M1051.75,449.67c-77.51,0-140.35-38.15-140.35-85.2,0-30.8,8.22-50.46,22.37-63-44.15,5.61-74.18,23.79-74.18,82.69,0,47.05,62.83,85.19,140.35,85.19,38.36,0,73.13-9.35,98.46-24.49A223.64,223.64,0,0,1,1051.75,449.67Z" transform="translate(-424.74 -190.82)"/><path class="cls-8" d="M1119.69,393.28h-.26a6.5,6.5,0,0,1-6.24-6.75c1.28-32.44-17.9-50.56-18.72-51.32a6.5,6.5,0,0,1,8.77-9.6c1,.91,24.47,22.73,22.94,61.43A6.49,6.49,0,0,1,1119.69,393.28Z" transform="translate(-424.74 -190.82)"/><path class="cls-8" d="M1101.82,429a6.51,6.51,0,0,1-3.84-11.76,31,31,0,0,0,8.85-10.22,6.5,6.5,0,0,1,11.75,5.57,43.11,43.11,0,0,1-12.94,15.16A6.48,6.48,0,0,1,1101.82,429Z" transform="translate(-424.74 -190.82)"/><path class="cls-8" d="M901.32,421.25a6.51,6.51,0,0,1-3.74-1.19c-14.53-10.26-19.31-33.67-19.51-34.66a6.5,6.5,0,0,1,12.75-2.54c1.08,5.36,5.74,20.57,14.26,26.58a6.5,6.5,0,0,1-3.76,11.81Z" transform="translate(-424.74 -190.82)"/><path class="cls-5" d="M999.94,473.83c-38.3,0-74.38-9.09-101.58-25.6-27.9-16.94-43.27-39.7-43.27-64.09C855.09,343,869,318,899,305.44c26.23-11,62.54-11,101-11s74.75,0,101,11c29.93,12.55,43.87,37.56,43.87,78.7,0,24.39-15.37,47.15-43.28,64.09C1074.31,464.74,1038.24,473.83,999.94,473.83Zm0-170.39c-37.51,0-72.94,0-97.5,10.3-26.17,11-38.35,33.34-38.35,70.4,0,44.49,60.94,80.69,135.85,80.69s135.85-36.2,135.85-80.69c0-37.06-12.19-59.43-38.35-70.4C1072.88,303.44,1037.45,303.44,999.94,303.44Z" transform="translate(-424.74 -190.82)"/><path class="cls-9" d="M999.94,581.16c-91.46,0-145-38.92-145-79.45V464.53s45.34,55.28,145,55.28,145-55.28,145-55.28v37.18C1144.9,542.24,1096.66,581.16,999.94,581.16Z" transform="translate(-424.74 -190.82)"/><path class="cls-5" d="M999.94,585.66c-43.76,0-81.48-8.7-109.08-25.16-25.67-15.31-40.38-36.73-40.38-58.79V464.53a4.5,4.5,0,0,1,8-2.86c.1.13,11.34,13.58,34.3,26.84,21.17,12.22,57,26.8,107.18,26.8,96.37,0,141-53.1,141.48-53.64a4.5,4.5,0,0,1,8,2.86v37.18c0,22.74-13.62,43.6-38.36,58.76C1084.14,577,1045.72,585.66,999.94,585.66ZM859.48,475.5v26.21c0,36.33,49.22,74.95,140.46,74.95,96.5,0,140.46-38.85,140.46-74.95V475.5A165.49,165.49,0,0,1,1112,496.06c-22.19,12.89-59.64,28.25-112.1,28.25S910,509,887.84,496.06A165.49,165.49,0,0,1,859.48,475.5Z" transform="translate(-424.74 -190.82)"/><path class="cls-12" d="M999.94,519.81c-80.26,0-127.18-36.79-145-55.37v2.39c0,40.53,53.5,79.45,145,79.45,96.72,0,145-38.92,145-79.45v-2.39C1127.12,483,1080.19,519.81,999.94,519.81Z" transform="translate(-424.74 -190.82)"/><path class="cls-5" d="M999.94,550.78c-43.76,0-81.48-8.7-109.08-25.16-25.67-15.31-40.38-36.74-40.38-58.79v-2.39a4.5,4.5,0,0,1,7.75-3.11c15.53,16.23,60.42,54,141.71,54s126.18-37.75,141.71-54a4.5,4.5,0,0,1,7.75,3.11v2.39c0,22.74-13.62,43.6-38.36,58.76C1084.14,542.07,1045.72,550.78,999.94,550.78ZM860.5,476c7.49,33.39,55.82,65.82,139.44,65.82,88.49,0,132.79-32.66,139.54-65.92-21.56,19.07-66.63,48.45-139.54,48.45S882.11,495,860.5,476Z" transform="translate(-424.74 -190.82)"/><path class="cls-5" d="M864.44,448a4.62,4.62,0,0,1-1.8-.38l-35-15.32a4.16,4.16,0,0,1-.47-.24,29.44,29.44,0,0,1-14.57-23.92l-3-55.91a29.57,29.57,0,0,1,11.11-24.65,5,5,0,0,1,.47-.33l46.28-28.12a4.5,4.5,0,0,1,4.67,7.69l-46,28a20.57,20.57,0,0,0-7.51,17l3,55.91a20.46,20.46,0,0,0,9.91,16.5l34.76,15.2a4.5,4.5,0,0,1-1.81,8.63Z" transform="translate(-424.74 -190.82)"/><path class="cls-5" d="M820.93,875.65l-9-.36c.29-7.24.55-14.53.38-17.21-1.1-16.79-1.61-34.82-1.54-53.59l9,0c-.07,18.56.44,36.38,1.52,53C821.49,860.33,821.31,866.07,820.93,875.65Z" transform="translate(-424.74 -190.82)"/><path class="cls-5" d="M998.75,982.51c-27.76,0-47.38-6.4-48.6-6.81a4.5,4.5,0,1,1,2.85-8.53h0c.42.14,43.3,14.05,91.07,0a4.5,4.5,0,0,1,2.55,8.63A169.22,169.22,0,0,1,998.75,982.51Z" transform="translate(-424.74 -190.82)"/><path class="cls-5" d="M1178.43,876.09c-.42-9.85-.61-15.73-.42-18.6,1.07-16.35,1.58-33.9,1.52-52.17l9,0c.06,18.47-.46,36.23-1.54,52.79-.18,2.7.1,9.88.43,17.63Z" transform="translate(-424.74 -190.82)"/><path class="cls-5" d="M1005,839.45c-28.31,0-54.08-1.29-76-3-68.91-5.51-115.76-16.62-116.22-16.73l2.1-8.75c.46.11,46.76,11.08,115,16.52,62.92,5,157.9,6.21,253.12-16.52l2.09,8.75C1121.87,834.77,1058.82,839.45,1005,839.45Z" transform="translate(-424.74 -190.82)"/><path class="cls-5" d="M1005,859.64c-28.31,0-54.08-1.29-76-3C860.05,851.09,813.2,840,812.74,839.87l2.1-8.75c.46.11,46.76,11.08,115,16.52,62.92,5,157.9,6.21,253.12-16.52l2.09,8.75C1121.87,855,1058.82,859.64,1005,859.64Z" transform="translate(-424.74 -190.82)"/><path class="cls-5" d="M972.58,978.86a4.5,4.5,0,0,1-4.13-2.71C943.18,918.21,940,856,939.85,853.41a4.5,4.5,0,1,1,9-.43c0,.62,3.27,63.2,27.86,119.58a4.5,4.5,0,0,1-2.33,5.92A4.37,4.37,0,0,1,972.58,978.86Z" transform="translate(-424.74 -190.82)"/><path class="cls-5" d="M1026.73,978.86a4.45,4.45,0,0,1-1.8-.38,4.5,4.5,0,0,1-2.32-5.92c24.57-56.35,27.1-116.93,27.12-117.54a4.5,4.5,0,0,1,9,.34c-.1,2.53-2.6,62.83-27.87,120.79A4.5,4.5,0,0,1,1026.73,978.86Z" transform="translate(-424.74 -190.82)"/><path class="cls-5" d="M1054.23,837.5a4.49,4.49,0,0,1-3.87-2.2l-21.6-36.4h-57.5l-23.12,36.51a4.5,4.5,0,0,1-7.6-4.81L965,792a4.51,4.51,0,0,1,3.8-2.09h62.54a4.51,4.51,0,0,1,3.87,2.2l22.91,38.61a4.49,4.49,0,0,1-3.87,6.79Z" transform="translate(-424.74 -190.82)"/><path class="cls-5" d="M978.62,798.9a4.51,4.51,0,0,1-4.5-4.5V727.45a4.5,4.5,0,0,1,9,0V794.4A4.5,4.5,0,0,1,978.62,798.9Z" transform="translate(-424.74 -190.82)"/><path class="cls-5" d="M1021.25,798.9a4.51,4.51,0,0,1-4.5-4.5V727.45a4.5,4.5,0,0,1,9,0V794.4A4.5,4.5,0,0,1,1021.25,798.9Z" transform="translate(-424.74 -190.82)"/><path class="cls-11" d="M816.12,765.1s-26.54,5.26-42.94,24.19c-21.4,24.69.39,59.37,42.94,56.05,126.16-9.84,135.45-137.67,135.45-137.67L912,706.07s-17.69,94.65-96.73,98.44Z" transform="translate(-424.74 -190.82)"/><path class="cls-13" d="M931.46,706.86c-5.46,39-28,110.88-119.48,118-21.06,1.64-37.79-7.18-46.72-19.5-3.63,21.26,17.07,42.59,50.86,40,126.16-9.84,135.45-137.67,135.45-137.67Z" transform="translate(-424.74 -190.82)"/><path class="cls-5" d="M815.5,809l-.43-9c31.09-1.49,56.06-17.71,74.22-48.22a161,161,0,0,0,18.3-46.55l8.85,1.66a167.42,167.42,0,0,1-19.28,49.26C877.64,789.1,849.4,807.38,815.5,809Z" transform="translate(-424.74 -190.82)"/><path class="cls-5" d="M810.51,850.06c-21.19,0-38.68-9.09-46.45-24.49-6.52-12.91-4.38-27.58,5.72-39.23,17.21-19.86,44.32-25.42,45.46-25.65l1.75,8.83c-.24.05-25.26,5.23-40.41,22.72-7.74,8.92-9.37,19.59-4.49,29.27,6.71,13.3,23.85,20.9,43.68,19.35,50.59-4,88-27.48,111.28-69.92,17.52-32,20-63.28,20-63.6l9,.66c-.1,1.34-2.6,33.31-20.95,67-17,31.26-51.46,69.62-118.64,74.86C814.45,850,812.46,850.06,810.51,850.06Z" transform="translate(-424.74 -190.82)"/><path class="cls-5" d="M937.67,730.92a62.39,62.39,0,0,1-30.91-8.12l2.65-4.23A58.85,58.85,0,0,0,947.77,725l.92,4.91A60.55,60.55,0,0,1,937.67,730.92Z" transform="translate(-424.74 -190.82)"/><path class="cls-5" d="M932,758.45c-19.25,0-34.11-12.18-34.82-12.77l3.21-3.84-1.61,1.92,1.6-1.92c.18.15,18,14.72,38.63,11l.9,4.92A44.18,44.18,0,0,1,932,758.45Z" transform="translate(-424.74 -190.82)"/><path class="cls-5" d="M918.63,785.5c-20,0-35.32-16-36-16.76l3.63-3.43L884.41,767l1.81-1.71c.18.19,18.1,18.81,38.83,14.53l1,4.9A36.9,36.9,0,0,1,918.63,785.5Z" transform="translate(-424.74 -190.82)"/><path class="cls-5" d="M898.4,814.41c-24.39,0-36.49-24.66-37-25.73l4.51-2.16-2.25,1.08,2.25-1.09c.12.24,11.89,24.11,34.3,22.85l.29,5C899.78,814.39,899.08,814.41,898.4,814.41Z" transform="translate(-424.74 -190.82)"/><path class="cls-5" d="M866.76,835.39c-28.17-6-29.82-34.85-29.84-35.14l5-.24c.05,1,1.54,25.27,25.89,30.49Z" transform="translate(-424.74 -190.82)"/><path class="cls-5" d="M829.46,846c-28.39-11.48-18.14-42-18-42.3l4.72,1.65c-.37,1.07-8.77,26.33,15.18,36Z" transform="translate(-424.74 -190.82)"/><path class="cls-5" d="M780.59,835.5h-5c0-37.62,39.2-41.24,39.59-41.27l.41,5C814.16,799.33,780.59,802.53,780.59,835.5Z" transform="translate(-424.74 -190.82)"/><path class="cls-5" d="M777.55,788.13l-2.5-4.33c16.87-9.77,40.25-3.49,41.23-3.22L815,785.4C814.73,785.34,792.59,779.42,777.55,788.13Z" transform="translate(-424.74 -190.82)"/><path class="cls-11" d="M1182.38,765.91s26.53,5.25,42.94,24.18c21.4,24.69-.39,59.38-42.94,56-126.17-9.84-135.46-137.66-135.46-137.66l39.56-1.61s17.69,94.65,96.73,98.44Z" transform="translate(-424.74 -190.82)"/><path class="cls-13" d="M1067,705.38c5.46,39,28,110.89,119.48,118,21.06,1.64,37.78-7.18,46.72-19.49,3.62,21.25-17.07,42.58-50.86,39.94C1056.22,834,1046.93,706.2,1046.93,706.2Z" transform="translate(-424.74 -190.82)"/><path class="cls-5" d="M1183,809.8c-33.89-1.62-62.13-19.89-81.65-52.84a166.55,166.55,0,0,1-19.28-49.26l8.84-1.66a161,161,0,0,0,18.31,46.56c18.15,30.5,43.12,46.72,74.22,48.21Zm-96.51-102.93,4.42-.83h0Z" transform="translate(-424.74 -190.82)"/><path class="cls-5" d="M1188,850.87q-2.94,0-6-.24c-67.19-5.24-101.6-43.6-118.64-74.86-18.35-33.65-20.86-65.62-21-67l9-.65-4.49.33,4.49-.33c0,.31,2.52,31.63,20,63.59,23.25,42.45,60.7,66,111.29,69.92,19.81,1.54,37-6,43.67-19.34,4.89-9.68,3.25-20.35-4.48-29.28-15.16-17.49-40.17-22.67-40.42-22.72l1.75-8.83c1.15.23,28.25,5.79,45.47,25.66,10.1,11.65,12.23,26.31,5.72,39.22C1226.67,841.77,1209.18,850.87,1188,850.87Z" transform="translate(-424.74 -190.82)"/><path class="cls-5" d="M1060.82,731.73a59.68,59.68,0,0,1-11-1l.91-4.91a58.76,58.76,0,0,0,38.36-6.43l2.66,4.24A62.57,62.57,0,0,1,1060.82,731.73Z" transform="translate(-424.74 -190.82)"/><path class="cls-5" d="M1066.52,759.25a44.15,44.15,0,0,1-7.9-.7l.89-4.92c20.61,3.73,38.45-10.84,38.63-11l3.2,3.84C1100.64,747.07,1085.78,759.25,1066.52,759.25Z" transform="translate(-424.74 -190.82)"/><path class="cls-5" d="M1079.86,786.3a36.09,36.09,0,0,1-7.42-.76l1-4.89c20.72,4.27,38.64-14.35,38.82-14.54l3.64,3.43C1115.19,770.3,1099.84,786.3,1079.86,786.3Z" transform="translate(-424.74 -190.82)"/><path class="cls-5" d="M1100.1,815.21c-.69,0-1.38,0-2.09-.06l.28-5c22.45,1.29,34.19-22.6,34.3-22.84l4.51,2.16C1136.58,790.56,1124.49,815.21,1100.1,815.21Z" transform="translate(-424.74 -190.82)"/><path class="cls-5" d="M1131.74,836.19l-1-4.89c24.44-5.23,25.88-30.23,25.89-30.48l5,.23C1161.56,801.34,1159.9,830.16,1131.74,836.19Z" transform="translate(-424.74 -190.82)"/><path class="cls-5" d="M1169,846.78l-1.87-4.64c23.94-9.67,15.54-34.94,15.17-36l4.73-1.64C1187.17,804.79,1197.43,835.31,1169,846.78Z" transform="translate(-424.74 -190.82)"/><path class="cls-5" d="M1222.91,836.3h-5c0-33-33.57-36.16-35-36.28l.4-5C1183.71,795.07,1222.91,798.68,1222.91,836.3Z" transform="translate(-424.74 -190.82)"/><path class="cls-5" d="M1220.94,788.93c-15-8.71-37.18-2.79-37.4-2.73l-1.33-4.82c1-.27,24.36-6.55,41.24,3.22Z" transform="translate(-424.74 -190.82)"/><path class="cls-9" d="M1429,750.66l-24.64-29.35c-31.33,24.44-76.4,49.47-116.18,35.44-68.34-24.12-119.26-107.24-119.26-107.24l7.55,83.65-1.35,7.75,6.84,3.55C1284.43,873.57,1429,750.66,1429,750.66Z" transform="translate(-424.74 -190.82)"/><path class="cls-12" d="M1190.29,750.3c48-34.42,80.61-79.4,80.61-79.4l.77,8.05,8.71,1.68s-4.49,81.16-33.66,114.79c0,0-22.88-10.24-37.94-25.12S1190.29,750.3,1190.29,750.3Z" transform="translate(-424.74 -190.82)"/><path class="cls-9" d="M571.07,751.09l24.64-29.34c31.33,24.44,76.4,49.47,116.18,35.44C780.24,733.07,831.16,650,831.16,650L823.6,733.6l1.35,7.75-6.84,3.55C715.65,874,571.07,751.09,571.07,751.09Z" transform="translate(-424.74 -190.82)"/><path class="cls-12" d="M809.71,749.91c-48-34.42-80.61-79.4-80.61-79.4l-.77,8-8.71,1.69S724.11,761.4,753.28,795c0,0,22.88-10.24,37.94-25.12S809.71,749.91,809.71,749.91Z" transform="translate(-424.74 -190.82)"/><rect class="cls-8" x="466.52" y="354.75" width="217.36" height="162.11" rx="30.52"/><path class="cls-9" d="M1101.72,668.77h-85.31a66,66,0,0,1-66-66V572.68a65.8,65.8,0,0,1,5.83-27.11H921.78a30.51,30.51,0,0,0-30.52,30.52V677.15a30.51,30.51,0,0,0,30.52,30.52H1078.1a30.52,30.52,0,0,0,30.52-30.52v-8.74A68.39,68.39,0,0,1,1101.72,668.77Z" transform="translate(-424.74 -190.82)"/><polygon class="cls-11" points="540.49 516.85 551.01 536.63 600.23 536.63 609.9 516.85 540.49 516.85"/><polygon class="cls-16" points="540.49 516.85 551.01 536.63 573.18 536.63 562.66 516.85 540.49 516.85"/><rect class="cls-11" x="633.78" y="393.6" width="19.07" height="84.4" rx="5.61"/><circle class="cls-12" cx="497.84" cy="404.17" r="10.57"/><circle class="cls-12" cx="922.59" cy="626.62" r="10.57" transform="translate(-528.31 872.63) rotate(-57.24)"/><circle class="cls-12" cx="922.59" cy="658.25" r="10.57" transform="translate(-554.92 887.14) rotate(-57.24)"/><polygon class="cls-13" points="540.49 354.75 553.88 453.59 592.84 453.59 609.9 354.75 540.49 354.75"/><polygon class="cls-11" points="549.94 354.38 559.69 417.53 588.03 417.53 600.45 354.38 549.94 354.38"/><path class="cls-5" d="M1078.1,712.17H921.78a35.06,35.06,0,0,1-35-35V576.09a35.06,35.06,0,0,1,35-35H1078.1a35.06,35.06,0,0,1,35,35V677.15A35.06,35.06,0,0,1,1078.1,712.17ZM921.78,550.07a26,26,0,0,0-26,26V677.15a26,26,0,0,0,26,26H1078.1a26,26,0,0,0,26-26V576.09a26,26,0,0,0-26-26Z" transform="translate(-424.74 -190.82)"/><path class="cls-5" d="M1024.31,732H975.1a4.49,4.49,0,0,1-4-2.38l-10.52-19.78a4.5,4.5,0,1,1,7.94-4.23L977.81,723h43.7L1030,705.7a4.5,4.5,0,1,1,8.08,3.95l-9.67,19.78A4.5,4.5,0,0,1,1024.31,732Z" transform="translate(-424.74 -190.82)"/><path class="cls-5" d="M1017.58,648.91h-39a4.5,4.5,0,0,1-4.46-3.9l-13.39-98.84a4.5,4.5,0,0,1,8.92-1.21l12.87,94.95h31.23l16.42-95.11a4.5,4.5,0,1,1,8.87,1.53L1022,645.18A4.5,4.5,0,0,1,1017.58,648.91Z" transform="translate(-424.74 -190.82)"/><path class="cls-5" d="M922.59,608.06A13.07,13.07,0,1,1,935.66,595,13.09,13.09,0,0,1,922.59,608.06Zm0-21.14a8.07,8.07,0,1,0,8.07,8.07A8.08,8.08,0,0,0,922.59,586.92Z" transform="translate(-424.74 -190.82)"/><path class="cls-5" d="M922.59,639.69a13.07,13.07,0,1,1,13.07-13.07A13.09,13.09,0,0,1,922.59,639.69Zm0-21.14a8.07,8.07,0,1,0,8.07,8.07A8.08,8.08,0,0,0,922.59,618.55Z" transform="translate(-424.74 -190.82)"/><path class="cls-5" d="M922.59,671.32a13.07,13.07,0,1,1,13.07-13.07A13.09,13.09,0,0,1,922.59,671.32Zm0-21.14a8.07,8.07,0,1,0,8.07,8.07A8.08,8.08,0,0,0,922.59,650.18Z" transform="translate(-424.74 -190.82)"/><path class="cls-5" d="M1072,671.32h-7.84a8.12,8.12,0,0,1-8.12-8.11V590a8.12,8.12,0,0,1,8.12-8.11H1072a8.12,8.12,0,0,1,8.11,8.11v73.18A8.12,8.12,0,0,1,1072,671.32Zm-7.84-84.4A3.12,3.12,0,0,0,1061,590v73.18a3.12,3.12,0,0,0,3.12,3.11H1072a3.11,3.11,0,0,0,3.11-3.11V590a3.11,3.11,0,0,0-3.11-3.11Z" transform="translate(-424.74 -190.82)"/><path class="cls-5" d="M815.28,809h0a4.51,4.51,0,0,1-4.48-4.52c.38-92.33,15-177.79,15.18-178.64a4.5,4.5,0,0,1,8.87,1.54c-.15.85-14.67,85.59-15.05,177.14A4.5,4.5,0,0,1,815.28,809Z" transform="translate(-424.74 -190.82)"/><path class="cls-5" d="M1184,809.81a4.5,4.5,0,0,1-4.5-4.49c-.3-91.85-14.9-177.08-15-177.93a4.5,4.5,0,0,1,8.87-1.54c.15.86,14.88,86.8,15.18,179.44a4.5,4.5,0,0,1-4.49,4.52Z" transform="translate(-424.74 -190.82)"/><circle class="cls-17" cx="603.16" cy="682.64" r="8.33"/><path class="cls-5" d="M1027.9,883.3a9.84,9.84,0,1,1,9.84-9.84A9.84,9.84,0,0,1,1027.9,883.3Zm0-16.67a6.84,6.84,0,1,0,6.84,6.83A6.85,6.85,0,0,0,1027.9,866.63Z" transform="translate(-424.74 -190.82)"/><circle class="cls-17" cx="546.86" cy="682.64" r="8.33"/><path class="cls-5" d="M971.6,883.3a9.84,9.84,0,1,1,9.83-9.84A9.84,9.84,0,0,1,971.6,883.3Zm0-16.67a6.84,6.84,0,1,0,6.83,6.83A6.84,6.84,0,0,0,971.6,866.63Z" transform="translate(-424.74 -190.82)"/><circle class="cls-17" cx="597.36" cy="621.09" r="8.33"/><path class="cls-5" d="M1022.11,821.74a9.83,9.83,0,1,1,9.83-9.83A9.84,9.84,0,0,1,1022.11,821.74Zm0-16.66a6.83,6.83,0,1,0,6.83,6.83A6.84,6.84,0,0,0,1022.11,805.08Z" transform="translate(-424.74 -190.82)"/><circle class="cls-17" cx="553.68" cy="621.09" r="8.33"/><path class="cls-5" d="M978.42,821.74a9.83,9.83,0,1,1,9.83-9.83A9.84,9.84,0,0,1,978.42,821.74Zm0-16.66a6.83,6.83,0,1,0,6.83,6.83A6.83,6.83,0,0,0,978.42,805.08Z" transform="translate(-424.74 -190.82)"/><path class="cls-5" d="M1168.92,631.12a4.51,4.51,0,0,1-4.22-2.91c-24.06-63.91-21.94-120.66-21.83-123a4.5,4.5,0,0,1,9,.38c0,.57-2.12,57.37,21.27,119.49a4.5,4.5,0,0,1-2.63,5.79A4.41,4.41,0,0,1,1168.92,631.12Z" transform="translate(-424.74 -190.82)"/><path class="cls-5" d="M831.16,631.12a4.42,4.42,0,0,1-1.59-.29A4.49,4.49,0,0,1,827,625c23.42-62.21,21.29-118.92,21.26-119.49a4.5,4.5,0,0,1,9-.38c.1,2.38,2.22,59.13-21.84,123A4.5,4.5,0,0,1,831.16,631.12Z" transform="translate(-424.74 -190.82)"/><path class="cls-13" d="M1269.09,748.34c-15-7.92-28.94-18.28-41.32-29.32a352,352,0,0,1-37.48,31.28s3.43,5.12,18.49,20,37.94,25.12,37.94,25.12C1256.9,783.69,1264.07,766.17,1269.09,748.34Z" transform="translate(-424.74 -190.82)"/><path class="cls-8" d="M1215.17,1018.74c20.44-6.15,61.43-20.75,82.18-1.66s-12.45,83-57.28,98.78c-33.68,11.86-83,26.57-120.36,15.78-33-9.55-128.66-37.36-128.66-37.36s20.75-89.65,65.57-123.68c0,0,93.8,55.61,98.78,57.27C1167.86,1032,1200.09,1023.29,1215.17,1018.74Z" transform="translate(-424.74 -190.82)"/><path class="cls-9" d="M1120.53,1133.64c-33-9.55-128.66-37.36-128.66-37.36s3.1-13.4,9.49-31.8c89.76,39.88,178.81,32.81,198.87-21.63,3.19-8.66,8.9-16,15.65-22.07l.11,0c20.44-6.15,61.43-20.75,82.18-1.66s-12.45,83-57.28,98.78C1207.21,1129.72,1157.88,1144.43,1120.53,1133.64Z" transform="translate(-424.74 -190.82)"/><polygon class="cls-12" points="690.96 891.87 623.8 871.16 643.91 814.88 707.8 840.41 690.96 891.87"/><path class="cls-13" d="M1136.74,1134.83l82.74-30.4s-25-36.62,21.53-93.19a251,251,0,0,1,32.8-5.53l-3.31,1.92c10.24.32,19.73,2.91,26.85,9.45,20.75,19.1-12.45,83-57.28,98.78-28.18,9.92-67.33,21.84-101.25,19.13h0A12.76,12.76,0,0,1,1136.74,1134.83Z" transform="translate(-424.74 -190.82)"/><path class="cls-12" d="M1279.53,1011.14s-22,45.29-33.33,50.84-4.44-37.52-4.44-37.52l25.62-14.85Z" transform="translate(-424.74 -190.82)"/><path class="cls-5" d="M1148.8,1139.87a109.61,109.61,0,0,1-30.34-3.91c-32.67-9.44-127.71-37.08-128.67-37.36a4.5,4.5,0,0,1-3.13-5.33c.86-3.73,21.64-91.64,67.24-126.26a4.51,4.51,0,0,1,5-.28c36.9,21.88,93.45,55.09,98,56.91,7.81,2.6,29.14-.83,56.95-9.2l4.64-1.42c22.7-7,60.71-18.73,81.89.75,7.14,6.57,9.44,17.25,6.64,30.88-5.59,27.18-32.21,63.76-65.47,75.46C1215.67,1129.22,1180.83,1139.87,1148.8,1139.87Zm-152.33-48.7c18.79,5.47,95.76,27.84,124.49,36.14,35.94,10.39,84.34-4,117.62-15.69,30.3-10.66,54.55-44,59.64-68.79,2.1-10.21.71-18.18-3.92-22.43-17.37-16-52.28-5.22-73.14,1.22l-4.69,1.43h0c-21.52,6.48-49.82,13.31-62.49,9.09-4.86-1.62-72.27-41.44-97-56.1C1020.87,1005.7,1001.07,1073.74,996.47,1091.17Zm218.7-72.43h0Z" transform="translate(-424.74 -190.82)"/><path class="cls-5" d="M1138.8,1139.5a4.5,4.5,0,0,1-4.47-4c-.35-3.36-3-33.24,9.84-46.16,12.39-12.44,62.83-21.26,68.54-22.22a4.5,4.5,0,1,1,1.5,8.87c-14.73,2.49-54.88,10.88-63.66,19.7-6.91,6.94-7.93,23.44-7.61,33.49,13.63-4,50.81-15.39,80.22-29.77,50-24.47,69.72-83.09,69.91-83.68a4.5,4.5,0,0,1,8.56,2.79c-.83,2.55-21,62.8-74.52,89-37.31,18.24-86.63,31.75-87.13,31.88A4.3,4.3,0,0,1,1138.8,1139.5Z" transform="translate(-424.74 -190.82)"/><path class="cls-5" d="M1218.08,1111.25a4.5,4.5,0,0,1-4.28-3.11c-10.21-31.25-2.91-56.86,5-72.84,8.56-17.26,19.49-27.1,20-27.52a4.5,4.5,0,0,1,6,6.72h0a90.17,90.17,0,0,0-18,25.12c-10.3,21-11.77,43.08-4.38,65.73a4.52,4.52,0,0,1-4.27,5.9Z" transform="translate(-424.74 -190.82)"/><path class="cls-5" d="M1147.36,1097a4.71,4.71,0,0,1-1.33-.2c-1.19-.37-119-36.83-141.74-43.61a4.5,4.5,0,0,1,2.56-8.62c22.82,6.79,140.65,43.26,141.84,43.63a4.5,4.5,0,0,1-1.33,8.8Z" transform="translate(-424.74 -190.82)"/><path class="cls-5" d="M1159.36,1045.71c-4.3,0-7.15-1.45-8.47-4.32-2.5-5.43,3.07-12.19,6.62-15.73a4.5,4.5,0,0,1,6.36,6.36,30.33,30.33,0,0,0-3.75,4.67l.22,0c36.88-2.86,61.93-16.21,66.46-19.34a4.5,4.5,0,0,1,4.54-2.21,4.62,4.62,0,0,1,4,4.71c-.09,2.55-1.75,4.2-7.42,7.34a123.18,123.18,0,0,1-14.86,6.81,184.72,184.72,0,0,1-52,11.66C1160.46,1045.69,1159.9,1045.71,1159.36,1045.71Zm70.7-21.69Zm0,0Z" transform="translate(-424.74 -190.82)"/><path class="cls-5" d="M1156.4,1045.26a4.46,4.46,0,0,1-1.67-.32l-120.87-48.29a4.5,4.5,0,0,1,3.34-8.36l120.87,48.29a4.5,4.5,0,0,1-1.67,8.68Z" transform="translate(-424.74 -190.82)"/><path class="cls-5" d="M1115.71,1087.19a4.74,4.74,0,0,1-1.23-.17,4.51,4.51,0,0,1-3.11-5.55l14.75-52.3a4.5,4.5,0,1,1,8.66,2.44l-14.74,52.3A4.51,4.51,0,0,1,1115.71,1087.19Z" transform="translate(-424.74 -190.82)"/><path class="cls-5" d="M1092.86,1080.14a4.63,4.63,0,0,1-1.31-.2,4.49,4.49,0,0,1-3-5.61l16.32-53.74a4.5,4.5,0,1,1,8.61,2.61l-16.32,53.74A4.52,4.52,0,0,1,1092.86,1080.14Z" transform="translate(-424.74 -190.82)"/><path class="cls-5" d="M1068.86,1072.73a4.57,4.57,0,0,1-1.49-.25,4.5,4.5,0,0,1-2.75-5.74l19.23-54.76a4.5,4.5,0,0,1,8.49,3l-19.23,54.76A4.49,4.49,0,0,1,1068.86,1072.73Z" transform="translate(-424.74 -190.82)"/><path class="cls-5" d="M1048.54,1066.48a4.52,4.52,0,0,1-4.24-6l20.12-56.27a4.5,4.5,0,1,1,8.47,3l-20.11,56.27A4.51,4.51,0,0,1,1048.54,1066.48Z" transform="translate(-424.74 -190.82)"/><path class="cls-8" d="M1570.25,585.33c-1.66-7.53-4.62-12.3-7.86-14.8a30.58,30.58,0,0,0-2.25-11.09c-5.13-12.56-12.57-16.59-18.1-15.23l-.36-1.52c-14.9-25.44-35-9.12-21.45,10.09,8,11.38-8.31,30-16.08,37.28l-.31-.36c2.67-3.66,4.45-27.44-16.94-28.36S1445,580,1449.46,588.78s30.31-11,30.31-3.12,1.15,31.54-19.36,35-18.08-12.91-12.73-20.23-10-23.9-25.54-.86c-10.57,15.7-7.14,29.66-3.25,37.74l-.06,0s-43.8,22.17-55,30.15-6.23,17.35-1.54,28.79c11.1,27,65.44,73.13,78.93,61,8.42-7.55,39-68.41,39-68.41l-1.36-1.14c36.53-7.9,67-54.25,67-54.25C1559.08,619.38,1573.7,600.9,1570.25,585.33Z" transform="translate(-424.74 -190.82)"/><path class="cls-9" d="M1562.39,570.53a30.58,30.58,0,0,0-2.25-11.09c-5.13-12.56-12.57-16.59-18.1-15.23l-.36-1.52c-14.9-25.44-35-9.12-21.45,10.09,6.42,9.08-2.7,22.78-10.59,31.64,0,0,19.89,41.44-4.24,57.67s-55.87,20.77-65.87,14.84,7,21.93,4,27.32c-1.51,2.7-23.46,27.07-53.6,47.6,19.56,18.44,43.06,32.78,51.31,25.38,8.42-7.55,39-68.41,39-68.41l-1.36-1.14c36.53-7.9,67-54.25,67-54.25,13.23-14,27.85-32.53,24.4-48.1C1568.59,577.8,1565.63,573,1562.39,570.53Z" transform="translate(-424.74 -190.82)"/><path class="cls-8" d="M999.26,938.23c-47.55-33.42-116.43-79.68-156-96.45-76-32.16-170.57-33.4-183,70.71-4.6,38.68,25.57,70.14,69.36,95.14L839.42,1059l159.84-58.54Z" transform="translate(-424.74 -190.82)"/><path class="cls-9" d="M778.73,982.26c89.66,51,225.16,81.72,225.16,81.72l-.3,3-11.72,21.88s-346-49.71-331.21-174.32c2.26-19,7.26-34.43,14.37-46.86l8.8-4.11S689.07,931.3,778.73,982.26Z" transform="translate(-424.74 -190.82)"/><path class="cls-9" d="M778.73,982.26c89.66,51,225.16,81.72,225.16,81.72l-.3,3-11.72,21.88s-346-49.71-331.21-174.32c2.26-19,7.26-34.43,14.37-46.86l8.8-4.11S689.07,931.3,778.73,982.26Z" transform="translate(-424.74 -190.82)"/><path class="cls-12" d="M920.24,885.27s-61.68,65.46-80.78,166.83l-43.28-14.4c20-113.24,83.67-177.08,83.67-177.08Z" transform="translate(-424.74 -190.82)"/><path class="cls-13" d="M805.85,996.46a378.91,378.91,0,0,0-9.67,41.24l43.28,14.4a338.27,338.27,0,0,1,9.13-36.83C834.12,1009.45,819.69,1003.17,805.85,996.46Z" transform="translate(-424.74 -190.82)"/><path class="cls-5" d="M839.47,1056.6a4.78,4.78,0,0,1-.84-.08,4.5,4.5,0,0,1-3.59-5.26c10-53,31.69-96.13,48.14-122.94,17.84-29.1,33.14-45.45,33.78-46.13a4.5,4.5,0,1,1,6.55,6.17c-.6.64-61,65.77-79.63,164.57A4.49,4.49,0,0,1,839.47,1056.6Z" transform="translate(-424.74 -190.82)"/><path class="cls-5" d="M796.18,1042.2a5.26,5.26,0,0,1-.78-.07,4.5,4.5,0,0,1-3.65-5.22,384.06,384.06,0,0,1,49.92-132.56c18.48-30.22,34.33-46.24,35-46.91A4.5,4.5,0,0,1,883,863.8h0c-.63.63-62.94,64.28-82.43,174.68A4.5,4.5,0,0,1,796.18,1042.2Z" transform="translate(-424.74 -190.82)"/><path class="cls-8" d="M949.42,975.55s143.09-106.34,207.88-133.77c76-32.16,170.58-33.4,183,70.71,14.83,124.61-331.21,174.32-331.21,174.32Z" transform="translate(-424.74 -190.82)"/><path class="cls-9" d="M1222.22,980.45c-89.66,51-225.15,81.72-225.15,81.72l.29,2.95,11.73,21.88s346-49.71,331.21-174.32c-2.26-19-7.26-34.43-14.37-46.86l-8.8-4.11S1311.88,929.48,1222.22,980.45Z" transform="translate(-424.74 -190.82)"/><path class="cls-12" d="M1078.48,886.17s61.67,65.46,80.77,166.83l43.29-14.4c-20-113.24-83.67-177.08-83.67-177.08Z" transform="translate(-424.74 -190.82)"/><path class="cls-13" d="M1159.25,1053l43.29-14.4a381.69,381.69,0,0,0-10.09-42.67c-13.91,6.65-28.36,12.87-42.83,18.63A335.72,335.72,0,0,1,1159.25,1053Z" transform="translate(-424.74 -190.82)"/><path class="cls-5" d="M1009.06,1091.31a4.5,4.5,0,0,1-.64-9c.87-.13,87.18-12.71,170.49-40.29,48.69-16.11,86.79-34.08,113.25-53.43,32.14-23.5,46.82-48.94,43.64-75.62-4.19-35.2-18.25-60-41.81-73.66-32-18.58-81.19-16.19-134.93,6.56-63.56,26.91-205.53,132.18-207,133.24a4.5,4.5,0,0,1-5.37-7.23c5.87-4.35,144.28-107,208.82-134.3,56.37-23.86,108.48-26.07,143-6,26.13,15.17,41.69,42.21,46.23,80.38,3.59,30.16-12.33,58.41-47.31,84-27.23,19.9-66.19,38.32-115.79,54.72-84.06,27.81-171.07,40.49-171.94,40.62A4.58,4.58,0,0,1,1009.06,1091.31Z" transform="translate(-424.74 -190.82)"/><path class="cls-5" d="M729.61,1012.13a4.51,4.51,0,0,1-2.23-.59c-51.85-29.6-75.94-63.1-71.6-99.58,4.55-38.17,20.1-65.21,46.23-80.38,34.49-20,86.6-17.81,143,6,39.46,16.71,107.09,61.93,156.87,96.92a4.5,4.5,0,0,1-5.18,7.37c-49.42-34.75-116.47-79.6-155.2-96-53.74-22.75-102.92-25.14-134.94-6.56C683,853,668.91,877.82,664.72,913c-3.87,32.55,18.71,63.07,67.12,90.7a4.5,4.5,0,0,1-2.23,8.41Z" transform="translate(-424.74 -190.82)"/><path class="cls-5" d="M1517.29,604.08a4.15,4.15,0,0,1-3.32-1.67,4.67,4.67,0,0,1,.5-6.37,4.47,4.47,0,0,1,2.67-1.32c3.65-2.32,13.7-10.1,16.6-18.44a9.75,9.75,0,0,0-.26-8c-4.31-8.45-4.46-17-.39-22.93a13.31,13.31,0,0,1,12.54-5.83c7.47.81,14.28,7.45,18.67,18.21a34.75,34.75,0,0,1,2.59,12.74,4.51,4.51,0,0,1-4.44,4.56h-.07a4.5,4.5,0,0,1-4.49-4.44,25.93,25.93,0,0,0-1.92-9.46c-3.6-8.82-8.2-12.32-11.31-12.66a4.31,4.31,0,0,0-4.16,2c-1.67,2.42-2.28,7.3,1,13.73,7.65,15-8.41,30.82-19.11,37.83C1521.23,602.79,1519.27,604.08,1517.29,604.08Z" transform="translate(-424.74 -190.82)"/><path class="cls-5" d="M1505,593.25A4.26,4.26,0,0,1,1502,592a4.67,4.67,0,0,1-.42-6.38,4.51,4.51,0,0,1,2.44-1.69c3.3-2.83,12.19-12.05,13.87-20.77a9.7,9.7,0,0,0-1.38-7.82c-5.46-7.73-6.81-16.19-3.61-22.63a13.39,13.39,0,0,1,11.64-7.6c7.49-.25,15.15,5.31,21,15.28a4.5,4.5,0,1,1-7.76,4.55c-4.77-8.15-9.78-10.92-12.91-10.83a4.36,4.36,0,0,0-3.89,2.6c-1.32,2.65-1.24,7.57,2.9,13.44,9.71,13.74-4,31.8-13.64,40.31C1509.12,591.49,1507.13,593.25,1505,593.25Z" transform="translate(-424.74 -190.82)"/><path class="cls-5" d="M1423.47,649.11a4.49,4.49,0,0,1-3.38-1.53c-7-8-16.34-28.75-1.68-50.52,8.59-12.77,17.15-14.07,21.47-13.72a15.08,15.08,0,0,1,4.58,1.12,19,19,0,0,1,3-7.69c6.56-10.2,22.64-20.64,39.59-19.92,11.93.51,17.52,7,20.11,12.41,4.16,8.63,2.94,19.45.27,23.09a4.5,4.5,0,0,1-7.34-5.21c.87-1.72,1.67-9.33-1.52-14.89-2.33-4.07-6.22-6.17-11.9-6.41-12.91-.56-26.48,7.77-31.64,15.8-1.49,2.31-1.9,4.1-1.67,4.92,2.19.54,9.27-2.38,12.74-3.8,6.85-2.81,11.79-4.85,15.45-2.39a6.09,6.09,0,0,1,2.68,5.29v1.16c.06,8.49.22,34.34-23.11,38.28-12,2-17.31-2.1-19.67-5.92-3.94-6.37-1.7-15.59,2.55-21.4a2.4,2.4,0,0,0-.13-2.21,5.81,5.81,0,0,0-4.77-3.26c-4-.32-8.86,3.23-13.27,9.78-14.49,21.52.82,39.37,1,39.55a4.5,4.5,0,0,1-3.38,7.47Zm29.71-53.52a10.47,10.47,0,0,1-1.87,7.5c-2.36,3.22-3.82,8.68-2.17,11.36s7.33,2.31,10.52,1.78c13.21-2.24,15.48-14.8,15.61-27.36-1.76.59-4,1.51-5.71,2.21C1464.24,593.27,1458.13,595.78,1453.18,595.59Zm47-8.55,0,.05Zm-24.93-1.38h0Z" transform="translate(-424.74 -190.82)"/><path class="cls-5" d="M1468.57,693.33a48.57,48.57,0,0,1-11.56-1.39,4.5,4.5,0,0,1,2.13-8.74c41.34,10.09,82.54-51.62,82.95-52.24a4.85,4.85,0,0,1,.49-.61c6.61-7,26.74-28.41,23.28-44.05-1.9-8.59-5.49-12.48-8.23-13.26a3.65,3.65,0,0,0-3.75,1.06c-1.83,1.87-3.09,6.12-1.13,12.4,4.7,15.08-12.54,27.11-23.47,31.84-2,.87-6.18,2.67-8.31-1.09a4.66,4.66,0,0,1,1.57-6.17,4.57,4.57,0,0,1,2.79-.84c3.7-1.54,14-7,17.84-14a8.77,8.77,0,0,0,1-7.11c-2.66-8.54-1.43-16.53,3.28-21.36a12.6,12.6,0,0,1,12.66-3.42c6.87,2,12.18,9.24,14.55,20,4,18.06-12.42,38.2-25.26,51.88C1545.89,641.47,1510.12,693.33,1468.57,693.33Z" transform="translate(-424.74 -190.82)"/><path class="cls-5" d="M1452.13,659.43a2.5,2.5,0,0,1-1.73-4.31c.82-.78,20.37-19.22,44.08-14.88a2.5,2.5,0,1,1-.9,4.92c-21.22-3.88-39.53,13.4-39.72,13.57A2.45,2.45,0,0,1,1452.13,659.43Z" transform="translate(-424.74 -190.82)"/><path class="cls-5" d="M1435.3,763.72a23.72,23.72,0,0,1-5.33-.66c-21.86-5-62.14-41.54-71.82-65.15-.31-.76-.63-1.51-.93-2.25-4.38-10.5-9.34-22.4,4-31.92,11.33-8.07,53.76-29.59,55.56-30.5l4.07,8c-.44.22-43.63,22.12-54.41,29.8-6.9,4.92-5.81,9.44-.94,21.13.32.75.64,1.52,1,2.29,8.72,21.26,46.07,55.35,65.51,59.8,1.72.4,4.83.87,6.26-.41,5.67-5.08,26.27-43.84,37.93-67.08l8,4c-3.17,6.31-31.18,61.86-40,69.75A12.93,12.93,0,0,1,1435.3,763.72Z" transform="translate(-424.74 -190.82)"/><path class="cls-8" d="M636.15,667c-11.18-8-55-30.15-55-30.15l-.06,0c3.89-8.08,7.32-22-3.25-37.74-15.51-23-30.88-6.45-25.54.86s7.77,23.7-12.73,20.23-19.36-27.16-19.36-35,25.85,11.89,30.31,3.12S534.5,560,513.1,561s-19.61,24.7-16.94,28.36l-.31.36c-7.77-7.25-24.12-25.9-16.08-37.28,13.57-19.21-6.55-35.53-21.45-10.08l-.36,1.51c-5.52-1.35-13,2.67-18.1,15.23a30.59,30.59,0,0,0-2.25,11.1c-3.24,2.49-6.2,7.26-7.86,14.79-3.45,15.58,11.17,34,24.4,48.1,0,0,30.48,46.35,67,54.25l-1.35,1.14s30.53,60.86,39,68.41c13.49,12.1,67.83-34,78.93-61C642.38,684.37,647.33,675,636.15,667Z" transform="translate(-424.74 -190.82)"/><path class="cls-13" d="M731,748.78c15-7.92,28.94-18.28,41.32-29.32a352.12,352.12,0,0,0,37.49,31.28s-3.44,5.12-18.5,20-37.94,25.12-37.94,25.12C743.18,784.13,736,766.61,731,748.78Z" transform="translate(-424.74 -190.82)"/><path class="cls-9" d="M437.69,571a30.13,30.13,0,0,1,2.25-11.09c5.12-12.56,12.57-16.59,18.09-15.24l.36-1.51c14.9-25.44,35-9.12,21.45,10.09-6.41,9.08,2.7,22.78,10.59,31.64,0,0-19.89,41.44,4.24,57.67s55.87,20.77,65.87,14.84-7,21.93-4,27.32c1.51,2.7,23.46,27.07,53.6,47.6-19.56,18.44-43.06,32.78-51.31,25.38-8.42-7.55-39-68.42-39-68.42l1.35-1.13c-36.53-7.9-67-54.25-67-54.25-13.23-14-27.84-32.53-24.4-48.1C431.48,578.24,434.44,573.47,437.69,571Z" transform="translate(-424.74 -190.82)"/><path class="cls-5" d="M482.71,603.69c-2,0-3.93-1.29-5.1-2.05-10.69-7-26.76-22.86-19.11-37.83,3.28-6.43,2.67-11.31,1-13.73a4.31,4.31,0,0,0-4.16-2c-3.11.34-7.71,3.84-11.31,12.66a25.93,25.93,0,0,0-1.92,9.46,4.5,4.5,0,0,1-9-.12,34.91,34.91,0,0,1,2.59-12.74c4.39-10.76,11.2-17.39,18.68-18.2A13.29,13.29,0,0,1,466.91,545c4.07,5.9,3.92,14.47-.39,22.92a9.75,9.75,0,0,0-.26,8c2.9,8.34,12.95,16.12,16.6,18.44a4.47,4.47,0,0,1,2.67,1.32A4.67,4.67,0,0,1,486,602,4.15,4.15,0,0,1,482.71,603.69ZM479.1,602h0Z" transform="translate(-424.74 -190.82)"/><path class="cls-5" d="M495,592.86c-2.17,0-4.16-1.76-5.3-2.76-9.63-8.51-23.35-26.57-13.64-40.31,4.14-5.87,4.22-10.79,2.9-13.44a4.36,4.36,0,0,0-3.89-2.6c-3.07-.09-8.13,2.68-12.91,10.83a4.5,4.5,0,1,1-7.76-4.55c5.83-10,13.46-15.53,21-15.28a13.39,13.39,0,0,1,11.63,7.6c3.2,6.45,1.85,14.9-3.61,22.63a9.7,9.7,0,0,0-1.38,7.82c1.68,8.72,10.57,17.94,13.87,20.78a4.49,4.49,0,0,1,2.44,1.68,4.67,4.67,0,0,1-.42,6.38A4.26,4.26,0,0,1,495,592.86Zm-3.93-2.29h0Z" transform="translate(-424.74 -190.82)"/><path class="cls-5" d="M576.53,648.72a4.5,4.5,0,0,1-3.39-7.46c.67-.78,15.35-18.23,1-39.56-4.41-6.55-9.23-10.11-13.27-9.78a5.8,5.8,0,0,0-4.77,3.27,2.35,2.35,0,0,0-.13,2.2c4.25,5.81,6.49,15,2.55,21.4-2.36,3.82-7.69,8-19.67,5.92-23.33-3.94-23.17-29.79-23.11-38.28v-1.16a6.09,6.09,0,0,1,2.68-5.29c3.66-2.46,8.6-.42,15.45,2.39,3.47,1.42,10.56,4.34,12.74,3.8.23-.82-.18-2.61-1.67-4.92-5.16-8-18.73-16.35-31.64-15.8-5.68.24-9.57,2.34-11.9,6.41-3.19,5.56-2.39,13.17-1.52,14.89a4.5,4.5,0,0,1-7.34,5.21c-2.67-3.64-3.89-14.45.27-23.09,2.59-5.38,8.18-11.9,20.11-12.41,16.91-.72,33,9.73,39.59,19.93a18.81,18.81,0,0,1,3,7.68,15.08,15.08,0,0,1,4.58-1.12c4.33-.35,12.88,1,21.47,13.72,14.66,21.78,5.31,42.57-1.68,50.52A4.46,4.46,0,0,1,576.53,648.72Zm-51.8-60.24c.13,12.56,2.4,25.12,15.61,27.36,3.18.54,8.79,1,10.52-1.78s.19-8.14-2.17-11.36a10.47,10.47,0,0,1-1.87-7.5c-5,.2-11.05-2.32-16.38-4.51C528.73,590,526.49,589.07,524.73,588.48Zm-24.93-1.83,0,.05Zm24.93-1.38h0Z" transform="translate(-424.74 -190.82)"/><path class="cls-5" d="M531.43,692.94c-41.55,0-77.32-51.86-80.82-57.09C437.77,622.17,421.36,602,425.35,584c2.37-10.73,7.68-18,14.55-20a12.65,12.65,0,0,1,12.66,3.42c4.72,4.84,5.94,12.82,3.28,21.36a8.77,8.77,0,0,0,1,7.11c3.86,7,14.14,12.43,17.84,14a4.56,4.56,0,0,1,2.79.83,4.66,4.66,0,0,1,1.57,6.18c-2.13,3.75-6.3,2-8.31,1.08-10.93-4.73-28.17-16.76-23.47-31.84,2-6.28.7-10.52-1.13-12.4a3.65,3.65,0,0,0-3.75-1.06c-2.74.78-6.33,4.67-8.23,13.26-3.46,15.64,16.67,37,23.28,44.05a4.85,4.85,0,0,1,.49.61c.41.62,41.62,62.33,82.95,52.24a4.5,4.5,0,1,1,2.13,8.74A48.57,48.57,0,0,1,531.43,692.94ZM472.22,618h0Z" transform="translate(-424.74 -190.82)"/><path class="cls-5" d="M547.87,659a2.45,2.45,0,0,1-1.73-.7h0c-.18-.17-18.55-17.44-39.72-13.57a2.5,2.5,0,1,1-.9-4.92c23.71-4.34,43.26,14.1,44.08,14.88a2.5,2.5,0,0,1-1.73,4.31Z" transform="translate(-424.74 -190.82)"/><path class="cls-5" d="M564.7,763.33a12.93,12.93,0,0,1-9-3.14c-8.79-7.89-36.8-63.44-40-69.75l8.05-4c11.66,23.24,32.26,62,37.93,67.08,1.43,1.28,4.54.81,6.26.41,19.44-4.45,56.79-38.54,65.51-59.8.32-.77.63-1.54,1-2.29,4.87-11.68,6-16.21-.94-21.13-10.78-7.68-54-29.58-54.4-29.8l4.06-8c1.8.92,44.23,22.43,55.56,30.5,13.36,9.52,8.4,21.42,4,31.92l-.94,2.25c-9.68,23.61-50,60.15-71.82,65.16A24.27,24.27,0,0,1,564.7,763.33Z" transform="translate(-424.74 -190.82)"/><path class="cls-8" d="M784.94,1018.74c-20.44-6.15-61.43-20.75-82.18-1.66s12.45,83,57.28,98.78c33.68,11.86,83,26.57,120.36,15.78,33-9.55,128.66-37.36,128.66-37.36s-20.75-89.65-65.57-123.68c0,0-93.8,55.61-98.78,57.27C832.25,1032,800,1023.29,784.94,1018.74Z" transform="translate(-424.74 -190.82)"/><path class="cls-9" d="M880.4,1131.64c33-9.55,128.66-37.36,128.66-37.36s-3.1-13.4-9.49-31.8c-89.76,39.88-178.81,32.81-198.87-21.63-3.19-8.66-8.9-16-15.65-22.07l-.11,0c-20.44-6.15-61.43-20.75-82.18-1.66s12.45,83,57.28,98.78C793.72,1127.72,843.05,1142.43,880.4,1131.64Z" transform="translate(-424.74 -190.82)"/><polygon class="cls-12" points="459.66 891.87 526.83 871.16 506.71 814.88 442.83 840.41 459.66 891.87"/><path class="cls-13" d="M863.37,1134.83l-82.74-30.4s25-36.62-21.53-93.19a251,251,0,0,0-32.8-5.53l3.31,1.92c-10.24.32-19.73,2.91-26.85,9.45-20.75,19.1,12.45,83,57.28,98.78,28.18,9.92,67.33,21.84,101.25,19.13h0A12.76,12.76,0,0,0,863.37,1134.83Z" transform="translate(-424.74 -190.82)"/><path class="cls-12" d="M717.06,1011.14s22,45.29,33.33,50.84-2.36-52.37-2.36-52.37H729.2Z" transform="translate(-424.74 -190.82)"/><path class="cls-5" d="M851.31,1139.87c-32,0-66.86-10.65-92.77-19.76-33.26-11.7-59.88-48.28-65.47-75.46-2.8-13.63-.5-24.31,6.64-30.88,21.18-19.48,59.19-7.76,81.9-.75l4.63,1.42h0c27.82,8.37,49.14,11.8,57,9.17,4.46-1.79,61-35,97.91-56.88a4.51,4.51,0,0,1,5,.28c45.59,34.62,66.38,122.53,67.24,126.26a4.5,4.5,0,0,1-3.13,5.33c-1,.28-96,27.92-128.67,37.36A109.61,109.61,0,0,1,851.31,1139.87ZM731.85,1012.06c-10.08,0-19.36,2.19-26,8.34-4.63,4.25-6,12.22-3.92,22.43,5.09,24.79,29.34,58.13,59.64,68.79,33.28,11.71,81.68,26.07,117.62,15.69,28.73-8.3,105.71-30.67,124.49-36.14-4.6-17.43-24.4-85.47-60.52-115.13-24.72,14.66-92.13,54.48-97,56.1-12.67,4.23-41-2.61-62.49-9.09h0l-4.69-1.43C766.12,1017.66,748,1012.06,731.85,1012.06Z" transform="translate(-424.74 -190.82)"/><path class="cls-5" d="M861.31,1139.5a4.3,4.3,0,0,1-1.18-.16c-.5-.13-49.82-13.64-87.13-31.88-53.53-26.18-73.69-86.43-74.52-89a4.5,4.5,0,0,1,8.56-2.79c.19.59,19.86,59.21,69.91,83.68,29.41,14.38,66.58,25.79,80.22,29.77.3-10.05-.72-26.57-7.61-33.49-8.78-8.82-48.93-17.21-63.66-19.7a4.5,4.5,0,1,1,1.5-8.87c5.71,1,56.15,9.78,68.54,22.22,12.86,12.92,10.19,42.8,9.84,46.16a4.5,4.5,0,0,1-4.47,4Z" transform="translate(-424.74 -190.82)"/><path class="cls-5" d="M782,1111.25a4.22,4.22,0,0,1-1.39-.23,4.48,4.48,0,0,1-2.88-5.67c7.39-22.65,5.92-44.77-4.38-65.73a90.17,90.17,0,0,0-18-25.12,4.5,4.5,0,0,1,6-6.72c.46.42,11.39,10.26,19.95,27.52,7.93,16,15.23,41.59,5,72.84A4.5,4.5,0,0,1,782,1111.25Z" transform="translate(-424.74 -190.82)"/><path class="cls-5" d="M852.75,1097a4.5,4.5,0,0,1-1.33-8.8c1.19-.37,119-36.84,141.84-43.63a4.5,4.5,0,1,1,2.56,8.62c-22.77,6.78-140.55,43.24-141.74,43.61A4.71,4.71,0,0,1,852.75,1097Z" transform="translate(-424.74 -190.82)"/><path class="cls-5" d="M840.75,1045.71c-.54,0-1.1,0-1.68-.07a184.72,184.72,0,0,1-52-11.66,123.18,123.18,0,0,1-14.86-6.81c-5.67-3.14-7.33-4.79-7.42-7.34a4.62,4.62,0,0,1,4-4.71,4.5,4.5,0,0,1,4.54,2.21c4.53,3.13,29.58,16.48,66.46,19.34l.22,0a28.32,28.32,0,0,0-3.75-4.67,4.5,4.5,0,0,1,6.36-6.36c3.55,3.54,9.12,10.3,6.62,15.73C847.9,1044.26,845.05,1045.71,840.75,1045.71ZM770.05,1024Zm0,0Z" transform="translate(-424.74 -190.82)"/><path class="cls-5" d="M843.71,1045.26a4.5,4.5,0,0,1-1.67-8.68l120.87-48.29a4.5,4.5,0,0,1,3.34,8.36l-120.87,48.29A4.46,4.46,0,0,1,843.71,1045.26Z" transform="translate(-424.74 -190.82)"/><path class="cls-5" d="M884.4,1087.19a4.51,4.51,0,0,1-4.33-3.28l-14.74-52.3a4.5,4.5,0,0,1,8.66-2.44l14.75,52.3a4.51,4.51,0,0,1-3.11,5.55A4.74,4.74,0,0,1,884.4,1087.19Z" transform="translate(-424.74 -190.82)"/><path class="cls-5" d="M907.25,1080.14a4.52,4.52,0,0,1-4.31-3.2l-16.32-53.74a4.5,4.5,0,0,1,8.61-2.61l16.32,53.74a4.52,4.52,0,0,1-4.3,5.81Z" transform="translate(-424.74 -190.82)"/><path class="cls-5" d="M931.25,1072.73a4.49,4.49,0,0,1-4.25-3L907.77,1015a4.5,4.5,0,0,1,8.49-3l19.23,54.76a4.5,4.5,0,0,1-2.75,5.74A4.57,4.57,0,0,1,931.25,1072.73Z" transform="translate(-424.74 -190.82)"/><path class="cls-5" d="M951.57,1066.48a4.51,4.51,0,0,1-4.24-3l-20.11-56.27a4.5,4.5,0,0,1,8.47-3l20.12,56.27a4.52,4.52,0,0,1-4.24,6Z" transform="translate(-424.74 -190.82)"/><path class="cls-5" d="M1159.25,1057.5a4.51,4.51,0,0,1-4.42-3.67c-18.61-98.8-79-163.93-79.63-164.57a4.5,4.5,0,1,1,6.55-6.17c.65.68,16,17,33.79,46.13,16.44,26.81,38.14,69.91,48.14,122.94a4.5,4.5,0,0,1-3.59,5.26A4.78,4.78,0,0,1,1159.25,1057.5Z" transform="translate(-424.74 -190.82)"/><path class="cls-5" d="M1202.53,1043.1a4.5,4.5,0,0,1-4.42-3.72c-19.49-110.4-81.8-174.05-82.43-174.68a4.5,4.5,0,0,1,6.37-6.36c.67.67,16.51,16.69,35,46.91A384.46,384.46,0,0,1,1207,1037.81a4.5,4.5,0,0,1-3.65,5.22A4.29,4.29,0,0,1,1202.53,1043.1Z" transform="translate(-424.74 -190.82)"/><path class="cls-5" d="M1299.47,688.72c-11.14,0-21.35-1-27.88-3.79a4.5,4.5,0,0,1-2.69-3.55A307.73,307.73,0,0,0,1246.12,605c-16.18-35.91-46.64-81.59-99.88-95.27l2.24-8.72c25.14,6.46,47.61,20,66.79,40.23,15.22,16,28.39,36.33,39.15,60.27a317,317,0,0,1,23,76c17.83,5.47,62.46-.38,78.88-3.23l1.54,8.87C1356,683.44,1325.24,688.72,1299.47,688.72Z" transform="translate(-424.74 -190.82)"/><path class="cls-5" d="M1297.64,809.7a145,145,0,0,1-14.94-.76c-40-4.16-75.08-24.91-104.27-61.68l7-5.6c27.61,34.79,60.61,54.41,98.09,58.32,72.31,7.54,138-46.15,138.69-46.7l5.74,6.93c-.7.58-17.42,14.37-43.7,27.35C1363,798.08,1331.79,809.7,1297.64,809.7Z" transform="translate(-424.74 -190.82)"/><path class="cls-5" d="M1250.12,798.37l-6.8-5.9c27.84-32.1,32.52-111.29,32.56-112.08l9,.49C1284.68,684.26,1280,764,1250.12,798.37Z" transform="translate(-424.74 -190.82)"/><path class="cls-5" d="M1192.91,754l-5.25-7.32c46.89-33.61,79.28-77.94,79.6-78.38l7.29,5.28C1273.2,675.4,1241,719.5,1192.91,754Z" transform="translate(-424.74 -190.82)"/><path class="cls-5" d="M700.53,688.33c-25.77,0-56.53-5.28-58.37-5.6l1.54-8.87c16.42,2.86,61.06,8.7,78.88,3.23a317,317,0,0,1,23-76c10.76-23.94,23.93-44.21,39.15-60.27,19.18-20.23,41.65-33.77,66.79-40.23l2.24,8.72c-53.31,13.7-83.79,59.48-100,95.47A307.1,307.1,0,0,0,731.1,681a4.48,4.48,0,0,1-2.69,3.55C721.88,687.34,711.67,688.33,700.53,688.33Z" transform="translate(-424.74 -190.82)"/><path class="cls-5" d="M702.36,809.31c-34.15,0-65.39-11.62-86.66-22.14-26.28-13-43-26.77-43.7-27.35l5.74-6.92c.66.54,66.38,54.23,138.69,46.69,37.48-3.91,70.48-23.53,98.09-58.32l7.05,5.6c-29.19,36.77-64.27,57.52-104.27,61.68A145,145,0,0,1,702.36,809.31Z" transform="translate(-424.74 -190.82)"/><path class="cls-5" d="M749.88,798c-29.83-34.4-34.56-114.11-34.75-117.49l9-.49c0,.79,4.74,80,32.56,112.09Z" transform="translate(-424.74 -190.82)"/><path class="cls-5" d="M807.09,753.57C759,719.11,726.8,675,725.45,673.15l7.29-5.28c.32.44,32.76,44.81,79.6,78.38Z" transform="translate(-424.74 -190.82)"/></svg>