<svg id="Layer_1" data-name="Layer 1" xmlns="http://www.w3.org/2000/svg" xmlns:xlink="http://www.w3.org/1999/xlink" viewBox="0 0 1249.24 1249.24"><defs><style>.cls-1{fill:#dbdbdb;}.cls-2{fill:url(#linear-gradient);}.cls-3{fill:url(#linear-gradient-2);}.cls-4{fill:#a8a8a8;}.cls-5{fill:#f4f4f4;}.cls-6{fill:#fff;}</style><linearGradient id="linear-gradient" x1="466.98" y1="1545.44" x2="901.43" y2="1545.44" gradientTransform="matrix(1, 0, 0, -1, 0, 2632)" gradientUnits="userSpaceOnUse"><stop offset="0" stop-color="#a1a1a1"/><stop offset="0.06" stop-color="#b2b2b2"/><stop offset="0.19" stop-color="#d4d4d4"/><stop offset="0.31" stop-color="#ececec"/><stop offset="0.43" stop-color="#fafafa"/><stop offset="0.52" stop-color="#fff"/><stop offset="0.64" stop-color="#fcfcfb"/><stop offset="0.75" stop-color="#f1f1f1"/><stop offset="0.86" stop-color="#dfdfde"/><stop offset="0.96" stop-color="#c6c6c5"/><stop offset="1" stop-color="#babab9"/></linearGradient><linearGradient id="linear-gradient-2" x1="690.2" y1="1316.1" x2="690.2" y2="1767.29" gradientTransform="matrix(1, 0, 0, -1, 0, 2632)" gradientUnits="userSpaceOnUse"><stop offset="0" stop-color="#fff"/><stop offset="0.24" stop-color="#fbfbfb"/><stop offset="0.48" stop-color="#f0f0ef"/><stop offset="0.71" stop-color="#dcdcdc"/><stop offset="0.95" stop-color="#c1c1c0"/><stop offset="1" stop-color="#babab9"/></linearGradient></defs><rect class="cls-1" width="1249.24" height="1248.73"/><path class="cls-2" d="M901.43,1168.23c-143.89-51-289.4-49.27-434.45,0V1032c146-37.36,290.76-34.91,434.45,0Z" transform="translate(-54.04 -40.52)"/><path class="cls-3" d="M840.34,916.05c-10.87,0,8.71,138,18.75,171.12,22.91,75.5,303.3,139.43,305.37,189.52.54,13.06,0,13.07,0,13.07H215.71l88.35-85,67.22-17.43L407,1170.48a109.73,109.73,0,0,0,19.47-11.81L500,1102.91s23-28.81,21.13-72.38-1.92-114.48-1.92-114.48Z" transform="translate(-54.04 -40.52)"/><path class="cls-4" d="M458.64,703.35s-50.29-93.7-59.13-108.27,6.63-64.52,0-74.93S390.68,357.82,443.71,312s84-58.27,84-58.27c13.13-11.33,100.5-43.24,137.23-37.46C775.39,233.69,757,228,777.4,226.7c46.9,7.56,82.71,20.19,77.17,50.92,17.66-9.08,31.7-9.19,46.58,1.11-4.11,8.69-4.62,14.41,0,18.74,0,0,57.46,2.08,57.46,145.68,0,138.26-10.73,187.72-26.52,195.63s-44.9,36-44.9,36,7.33-250.31-63.38-248.31-122.55,37.61-293.91,0C492.33,418.25,438.75,653.4,458.64,703.35Z" transform="translate(-54.04 -40.52)"/><path class="cls-5" d="M452.85,791.36S483.3,940.65,559.86,987c119.54,72.37,201.63,11,201.63,11s95.37-85.47,111-135.86c14-45,18.89-70.76,18.89-70.76s12.59,0,21-10.41,10.49-77,16.79-95.73,10.49-50-10.5-47.87-31.47,37.46-31.47,37.46,19-62.94,6.46-100.41-4.36-116-54.72-147.25-114.48-20.81-145.37-10.41-95.93,4.16-135.8-10.4S473.34,458,467.05,489.23s-16.31,160.61-14.21,185.58l2.11,25s-14.69-66.6-27.28-70.76-35.67-4.17-31.48,45.78,9.29,11.28,27.28,104.06C434,833,452.85,791.36,452.85,791.36Z" transform="translate(-54.04 -40.52)"/><path class="cls-6" d="M466.73,1033s-18.29,107.61-30,110.65,130,72.8,182.09,79.52c0,0,31.3-54.17,66.36-70.56C685.17,1152.64,474,1081,466.73,1033Z" transform="translate(-54.04 -40.52)"/><path class="cls-6" d="M901.83,1032s19.23,107.4,30.84,110.31-127.76,74.21-179.2,81.48c0,0-31.52-53.83-66.37-69.84C687.1,1154,895.19,1080,901.83,1032Z" transform="translate(-54.04 -40.52)"/></svg>