<svg id="Capa_1" data-name="Capa 1" xmlns="http://www.w3.org/2000/svg" viewBox="0 0 439.63 303.19"><defs><style>.cls-1{fill:#e7e8e3;}.cls-2{fill:#202121;opacity:0.15;isolation:isolate;}.cls-3{fill:#006e90;}.cls-4{fill:#66cde7;}.cls-5{fill:#d92b2b;}</style></defs><path class="cls-1" d="M475.81,381.6a26,26,0,0,1-26,26H62.17a26,26,0,0,1-26-26V130.39a26,26,0,0,1,26-26H449.83a26,26,0,0,1,26,26V381.6Z" transform="translate(-36.19 -104.41)"/><path class="cls-2" d="M54.66,381.6V130.39a26,26,0,0,1,26-26H62.17a26,26,0,0,0-26,26V381.6a26,26,0,0,0,26,26H80.65A26,26,0,0,1,54.66,381.6Z" transform="translate(-36.19 -104.41)"/><path class="cls-3" d="M161.69,190.22h32.67c12-.2,25.23,2.93,25.23,17.51,0,6.25-3.72,11.34-9.2,14.08,7.43,2.15,12,8.6,12,16.53,0,16.62-12.22,21.71-27.19,21.71H161.69V190.22Zm18.19,27.48H194c3.13,0,7.44-1.66,7.44-6.65s-3.62-6.75-7.44-6.75H179.88v13.4Zm0,27.77h14.57c5.77,0,9.78-2.05,9.78-7.82,0-6.16-4.3-8.21-9.78-8.21H179.88Z" transform="translate(-36.19 -104.41)"/><path class="cls-3" d="M251.27,190.22h18.48l26.11,69.83h-19l-4.31-12.52H248.23l-4.4,12.52H225.15ZM252.44,234h15.84l-7.73-24.45h-.19Z" transform="translate(-36.19 -104.41)"/><path class="cls-3" d="M300.94,190.22h18.68l24.25,43h.2v-43h17.11v69.83H342.5l-24.25-43.52h-.19v43.52H300.94Z" transform="translate(-36.19 -104.41)"/><path class="cls-3" d="M373.6,190.22h18.19V217l23-26.8h22.59L411.54,217.7l29,42.35H418l-18.78-29.34-7.43,7.82v21.52H373.6V190.22Z" transform="translate(-36.19 -104.41)"/><path class="cls-4" d="M116,285.38H101.6v37.31H89.08V285.38H74.73V274.6H116Z" transform="translate(-36.19 -104.41)"/><path class="cls-4" d="M121.47,274.61H146c8.48,0,16.83,3.84,16.83,13.53,0,5.19-2.49,10.1-7.54,12.06v.13c5.12,1.22,6.6,6.94,7,11.52.14,2,.34,9.09,2,10.84H151.91c-1.08-1.61-1.28-6.33-1.41-7.68-.34-4.84-1.15-9.83-7-9.83H134v17.51H121.47ZM134,295.48h10.5c3.78,0,5.8-2,5.8-5.65s-2.83-5.19-6.33-5.19H134Z" transform="translate(-36.19 -104.41)"/><path class="cls-4" d="M183.16,274.61h12.73l18,48.08H200.8l-3-8.62H181.07l-3,8.62H165.18Zm.81,30.17h10.91l-5.32-16.84h-.14Z" transform="translate(-36.19 -104.41)"/><path class="cls-4" d="M217.37,274.61h12.87l16.7,29.63h.14V274.61h11.78v48.08H246l-16.71-30h-.13v30H217.37V274.61Z" transform="translate(-36.19 -104.41)"/><path class="cls-4" d="M277.18,306.53c.27,5.65,3.77,7.47,9.09,7.47,3.77,0,7.68-1.34,7.68-4.91,0-4.25-6.87-5-13.81-7s-14.07-5.05-14.07-13.87c0-10.51,10.57-14.62,19.6-14.62,9.56,0,19.19,4.65,19.26,15.49H292.4c.2-4.38-3.91-5.79-7.75-5.79-2.69,0-6.06.94-6.06,4.11,0,3.7,6.94,4.38,13.94,6.33s14,5.18,14,13.87c0,12.19-10.38,16.1-21,16.1-11,0-20.81-4.85-20.88-17.17Z" transform="translate(-36.19 -104.41)"/><path class="cls-4" d="M312.33,274.61h35.43v10h-22.9v9.83h19.8v9.7h-19.8v18.52H312.33Z" transform="translate(-36.19 -104.41)"/><path class="cls-4" d="M353.49,274.61h38.32v10H366v8.42h23.57v9.7H366v9.16h26.47v10.77h-39V274.61Z" transform="translate(-36.19 -104.41)"/><path class="cls-4" d="M399.62,274.61h24.51c8.49,0,16.84,3.84,16.84,13.53,0,5.19-2.49,10.1-7.54,12.06v.13c5.11,1.22,6.6,6.94,7,11.52.14,2,.34,9.09,2,10.84H430.06c-1.08-1.61-1.28-6.33-1.42-7.68-.33-4.84-1.14-9.83-7-9.83h-9.49v17.51H399.62V274.61Zm12.53,20.87h10.5c3.77,0,5.79-2,5.79-5.65s-2.82-5.19-6.33-5.19h-10Z" transform="translate(-36.19 -104.41)"/><rect class="cls-5" x="38.54" y="85.8" width="75.82" height="15.18"/><rect class="cls-5" x="38.54" y="140.46" width="75.82" height="15.18"/><rect class="cls-5" x="38.54" y="113.13" width="75.82" height="15.18"/></svg>