<svg id="Capa_1" data-name="Capa 1" xmlns="http://www.w3.org/2000/svg" viewBox="0 0 481.53 303.19"><defs><style>.cls-1{fill:#4398d1;}.cls-2{fill:#3e8cc7;}.cls-3{fill:#fdb62f;}.cls-4{fill:#fd7b2f;}.cls-5{fill:#de4c3c;}.cls-6{fill:#87ced9;}</style></defs><path class="cls-1" d="M35.67,159.77H445.86a35.67,35.67,0,0,1,35.67,35.67V427.29A35.67,35.67,0,0,1,445.86,463H35.67A35.67,35.67,0,0,1,0,427.29V195.44A35.67,35.67,0,0,1,35.67,159.77Z" transform="translate(0 -159.77)"/><path class="cls-2" d="M445.86,159.77h-7.13C354.55,309.21,197.26,411.73,101.24,463H445.86a35.68,35.68,0,0,0,35.67-35.67V195.44A35.67,35.67,0,0,0,445.86,159.77Z" transform="translate(0 -159.77)"/><rect class="cls-3" x="44.59" y="44.59" width="89.17" height="71.34"/><rect class="cls-4" x="44.59" y="71.34" width="26.75" height="17.83"/><rect class="cls-4" x="107.01" y="71.34" width="26.75" height="17.83"/><circle class="cls-3" cx="392.36" cy="214.01" r="44.59"/><circle class="cls-5" cx="338.85" cy="214.01" r="44.59"/><rect class="cls-6" x="35.67" y="178.34" width="53.5" height="17.83"/><rect class="cls-6" x="124.84" y="178.34" width="53.5" height="17.83"/><rect class="cls-6" x="214.01" y="178.34" width="53.5" height="17.83"/><rect class="cls-6" x="35.67" y="231.85" width="231.85" height="17.83"/><rect class="cls-6" x="312.1" y="44.59" width="17.83" height="35.67"/><rect class="cls-6" x="347.77" y="44.59" width="17.83" height="35.67"/><rect class="cls-6" x="383.44" y="44.59" width="17.83" height="35.67"/><rect class="cls-6" x="419.11" y="44.59" width="17.83" height="35.67"/></svg>