<svg id="Layer_1" data-name="Layer 1" xmlns="http://www.w3.org/2000/svg" viewBox="0 0 1440 512"><defs><style>.cls-1{fill:#0b0618;}.cls-2{fill:#fff;}</style></defs><rect class="cls-1" width="1440" height="512"/><circle class="cls-2" cx="589.5" cy="92.97" r="1"/><circle class="cls-2" cx="758.5" cy="82.31" r="1"/><circle class="cls-2" cx="1053.5" cy="195.97" r="1"/><circle class="cls-2" cx="521.83" cy="54.31" r="1"/><circle class="cls-2" cx="529.5" cy="267.31" r="1"/><circle class="cls-2" cx="471.5" cy="254.97" r="1"/><circle class="cls-2" cx="384.5" cy="226.97" r="1"/><circle class="cls-2" cx="472.5" cy="69.97" r="1"/><circle class="cls-2" cx="380.5" cy="124.97" r="1"/><circle class="cls-2" cx="544.5" cy="224.31" r="1"/><circle class="cls-2" cx="532.83" cy="102.64" r="1"/><circle class="cls-2" cx="907.83" cy="38.31" r="1"/><circle class="cls-2" cx="500.17" cy="337.64" r="1"/><circle class="cls-2" cx="479.5" cy="204.97" r="1"/><circle class="cls-2" cx="474.5" cy="131.97" r="1"/><circle class="cls-2" cx="424.5" cy="138.97" r="1"/><circle class="cls-2" cx="433.5" cy="315.97" r="1"/><circle class="cls-2" cx="412.5" cy="242.97" r="1"/><circle class="cls-2" cx="382.5" cy="339.97" r="1"/><circle class="cls-2" cx="542.17" cy="320.64" r="1"/><circle class="cls-2" cx="681.17" cy="447.64" r="1"/><circle class="cls-2" cx="814.5" cy="475.97" r="1"/><circle class="cls-2" cx="725.17" cy="475.64" r="1"/><circle class="cls-2" cx="881.5" cy="415.97" r="1"/><circle class="cls-2" cx="741.17" cy="440.97" r="1"/><circle class="cls-2" cx="902.5" cy="381.97" r="1"/><circle class="cls-2" cx="914.17" cy="296.64" r="1"/><circle class="cls-2" cx="915.5" cy="136.64" r="2"/><circle class="cls-2" cx="544.17" cy="375.64" r="2"/><circle class="cls-2" cx="487.5" cy="408.97" r="2"/><circle class="cls-2" cx="414.5" cy="70.97" r="2"/><circle class="cls-2" cx="417.5" cy="186.97" r="2"/><circle class="cls-2" cx="1042.5" cy="228.97" r="2"/><circle class="cls-2" cx="440.5" cy="375.97" r="2"/><circle class="cls-2" cx="886.5" cy="344.97" r="2"/><circle class="cls-2" cx="371.5" cy="270.97" r="2"/><circle class="cls-2" cx="627.5" cy="483.64" r="2"/><circle class="cls-2" cx="733.5" cy="52.31" r="2"/><circle class="cls-2" cx="797.5" cy="398.97" r="2"/><ellipse class="cls-2" cx="516.5" cy="155.64" rx="1" ry="2"/><ellipse class="cls-2" cx="384.5" cy="28.97" rx="1" ry="2"/><circle class="cls-2" cx="831.5" cy="102.97" r="2"/><circle class="cls-2" cx="946.5" cy="42.97" r="2"/><circle class="cls-2" cx="572.17" cy="147.64" r="2"/><circle class="cls-2" cx="929.5" cy="212.31" r="2"/><circle class="cls-2" cx="1068.5" cy="439.97" r="2"/><circle class="cls-2" cx="1020.5" cy="154.97" r="2"/><circle class="cls-2" cx="639.5" cy="59.64" r="2"/><circle class="cls-2" cx="590.83" cy="437.31" r="1"/><circle class="cls-2" cx="636.5" cy="416.31" r="1"/><circle class="cls-2" cx="539.5" cy="464.64" r="1"/><circle class="cls-2" cx="504.17" cy="457.31" r="1"/><circle class="cls-2" cx="445.5" cy="440.97" r="1"/><circle class="cls-2" cx="400.5" cy="399.97" r="1"/><circle class="cls-2" cx="449.5" cy="471.97" r="1"/><circle class="cls-2" cx="389.5" cy="463.97" r="1"/><circle class="cls-2" cx="591.5" cy="374.64" r="1"/><circle class="cls-2" cx="955.5" cy="308.64" r="1"/><circle class="cls-2" cx="874.5" cy="156.31" r="1"/><circle class="cls-2" cx="1046.5" cy="27.97" r="1"/><circle class="cls-2" cx="1064.5" cy="129.97" r="1"/><circle class="cls-2" cx="1024.5" cy="82.97" r="1"/><circle class="cls-2" cx="894.17" cy="212.64" r="1"/><circle class="cls-2" cx="1010.5" cy="430.97" r="1"/><circle class="cls-2" cx="1024.5" cy="328.97" r="1"/><circle class="cls-2" cx="970.17" cy="170.64" r="1"/><circle class="cls-2" cx="989.5" cy="260.97" r="1"/><circle class="cls-2" cx="992.5" cy="330.97" r="1"/><circle class="cls-2" cx="1032.5" cy="286.97" r="1"/><circle class="cls-2" cx="857.5" cy="35.31" r="1"/><circle class="cls-2" cx="819.5" cy="59.31" r="1"/><circle class="cls-2" cx="1047.5" cy="373.97" r="1"/><circle class="cls-2" cx="998.5" cy="121.97" r="1"/><circle class="cls-2" cx="930.17" cy="99.97" r="1"/><circle class="cls-2" cx="692" cy="51.97" r="2"/><polygon class="cls-2" points="691.83 53.02 624.83 109.64 691.17 52.26 691.83 53.02"/><circle class="cls-2" cx="690" cy="404.97" r="2"/><polygon class="cls-2" points="690.15 406.4 589.5 491.98 688.85 404.88 690.15 406.4"/><circle class="cls-2" cx="125.5" cy="485.97" r="1"/><circle class="cls-2" cx="294.5" cy="475.31" r="1"/><circle class="cls-2" cx="196.5" cy="209.97" r="1"/><circle class="cls-2" cx="1236.83" cy="44.31" r="1"/><circle class="cls-2" cx="1244.5" cy="257.31" r="1"/><circle class="cls-2" cx="1186.5" cy="244.97" r="1"/><circle class="cls-2" cx="1099.5" cy="216.97" r="1"/><circle class="cls-2" cx="1187.5" cy="59.97" r="1"/><circle class="cls-2" cx="1095.5" cy="114.97" r="1"/><circle class="cls-2" cx="1259.5" cy="214.31" r="1"/><circle class="cls-2" cx="1247.83" cy="92.64" r="1"/><circle class="cls-2" cx="50.83" cy="52.31" r="1"/><circle class="cls-2" cx="1215.17" cy="327.64" r="1"/><circle class="cls-2" cx="1194.5" cy="194.97" r="1"/><circle class="cls-2" cx="1189.5" cy="121.97" r="1"/><circle class="cls-2" cx="1139.5" cy="128.97" r="1"/><circle class="cls-2" cx="1148.5" cy="305.97" r="1"/><circle class="cls-2" cx="1127.5" cy="232.97" r="1"/><circle class="cls-2" cx="1097.5" cy="329.97" r="1"/><circle class="cls-2" cx="1257.17" cy="310.64" r="1"/><circle class="cls-2" cx="335.17" cy="109.64" r="1"/><circle class="cls-2" cx="312.5" cy="326.97" r="1"/><circle class="cls-2" cx="223.17" cy="326.64" r="1"/><circle class="cls-2" cx="24.5" cy="429.97" r="1"/><circle class="cls-2" cx="239.17" cy="291.97" r="1"/><circle class="cls-2" cx="45.5" cy="395.97" r="1"/><circle class="cls-2" cx="57.17" cy="310.64" r="1"/><circle class="cls-2" cx="58.5" cy="150.64" r="2"/><circle class="cls-2" cx="1259.17" cy="365.64" r="2"/><circle class="cls-2" cx="1202.5" cy="398.97" r="2"/><circle class="cls-2" cx="1129.5" cy="60.97" r="2"/><circle class="cls-2" cx="1132.5" cy="176.97" r="2"/><circle class="cls-2" cx="185.5" cy="242.97" r="2"/><circle class="cls-2" cx="1155.5" cy="365.97" r="2"/><circle class="cls-2" cx="29.5" cy="358.97" r="2"/><circle class="cls-2" cx="1086.5" cy="260.97" r="2"/><circle class="cls-2" cx="281.5" cy="145.64" r="2"/><circle class="cls-2" cx="269.5" cy="445.31" r="2"/><circle class="cls-2" cx="295.5" cy="249.97" r="2"/><ellipse class="cls-2" cx="1231.5" cy="145.64" rx="1" ry="2"/><ellipse class="cls-2" cx="1099.5" cy="18.97" rx="1" ry="2"/><circle class="cls-2" cx="367.5" cy="495.97" r="2"/><circle class="cls-2" cx="89.5" cy="56.97" r="2"/><circle class="cls-2" cx="1287.17" cy="137.64" r="2"/><circle class="cls-2" cx="72.5" cy="226.31" r="2"/><circle class="cls-2" cx="211.5" cy="453.97" r="2"/><circle class="cls-2" cx="163.5" cy="168.97" r="2"/><circle class="cls-2" cx="175.5" cy="452.64" r="2"/><circle class="cls-2" cx="244.83" cy="99.31" r="1"/><circle class="cls-2" cx="290.5" cy="78.31" r="1"/><circle class="cls-2" cx="1254.5" cy="454.64" r="1"/><circle class="cls-2" cx="1219.17" cy="447.31" r="1"/><circle class="cls-2" cx="1160.5" cy="430.97" r="1"/><circle class="cls-2" cx="1115.5" cy="389.97" r="1"/><circle class="cls-2" cx="1164.5" cy="461.97" r="1"/><circle class="cls-2" cx="1104.5" cy="453.97" r="1"/><circle class="cls-2" cx="245.5" cy="36.64" r="1"/><circle class="cls-2" cx="98.5" cy="322.64" r="1"/><circle class="cls-2" cx="17.5" cy="170.31" r="1"/><circle class="cls-2" cx="189.5" cy="41.97" r="1"/><circle class="cls-2" cx="207.5" cy="143.97" r="1"/><circle class="cls-2" cx="167.5" cy="96.97" r="1"/><circle class="cls-2" cx="37.17" cy="226.64" r="1"/><circle class="cls-2" cx="153.5" cy="444.97" r="1"/><circle class="cls-2" cx="167.5" cy="342.97" r="1"/><circle class="cls-2" cx="113.17" cy="184.64" r="1"/><circle class="cls-2" cx="132.5" cy="274.97" r="1"/><circle class="cls-2" cx="135.5" cy="344.97" r="1"/><circle class="cls-2" cx="175.5" cy="300.97" r="1"/><circle class="cls-2" cx="0.5" cy="49.31" r="1"/><circle class="cls-2" cx="355.5" cy="452.31" r="1"/><circle class="cls-2" cx="190.5" cy="387.97" r="1"/><circle class="cls-2" cx="141.5" cy="135.97" r="1"/><circle class="cls-2" cx="73.17" cy="113.97" r="1"/><circle class="cls-2" cx="311" cy="184" r="2"/><polygon class="cls-2" points="310.82 185.05 243.83 241.67 310.18 184.29 310.82 185.05"/><circle class="cls-2" cx="288" cy="352" r="2"/><polygon class="cls-2" points="288.15 353.42 187.5 439 286.85 351.91 288.15 353.42"/><circle class="cls-2" cx="1334" cy="218" r="2"/><polygon class="cls-2" points="1334.15 219.42 1233.5 305 1332.85 217.91 1334.15 219.42"/><circle class="cls-2" cx="1372.83" cy="41.31" r="1"/><circle class="cls-2" cx="1380.5" cy="254.31" r="1"/><circle class="cls-2" cx="1321" cy="285" r="1"/><circle class="cls-2" cx="1323.5" cy="56.97" r="1"/><circle class="cls-2" cx="1395.5" cy="211.31" r="1"/><circle class="cls-2" cx="1383.83" cy="89.64" r="1"/><circle class="cls-2" cx="1351.17" cy="324.64" r="1"/><circle class="cls-2" cx="1330.5" cy="191.97" r="1"/><circle class="cls-2" cx="1325.5" cy="118.97" r="1"/><circle class="cls-2" cx="1393.17" cy="307.64" r="1"/><circle class="cls-2" cx="1395.17" cy="362.64" r="2"/><circle class="cls-2" cx="1338.5" cy="395.97" r="2"/><circle class="cls-2" cx="1291.5" cy="362.97" r="2"/><ellipse class="cls-2" cx="1367.5" cy="142.64" rx="1" ry="2"/><circle class="cls-2" cx="1423.17" cy="134.64" r="2"/><circle class="cls-2" cx="1390.5" cy="451.64" r="1"/><circle class="cls-2" cx="1355.17" cy="444.31" r="1"/><circle class="cls-2" cx="1296.5" cy="427.97" r="1"/><circle class="cls-2" cx="1300.5" cy="458.97" r="1"/></svg>