<svg id="Layer_1" data-name="Layer 1" xmlns="http://www.w3.org/2000/svg" viewBox="0 0 1920 550"><defs><style>.cls-1{fill:#f5f6f9;}.cls-2{fill:#6831e4;}</style></defs><rect class="cls-1" width="1920" height="550"/><path class="cls-1" d="M1890.5,785a234.49,234.49,0,1,1,165.82-68.68A233,233,0,0,1,1890.5,785Z"/><path class="cls-2" d="M1890.5,356A194.51,194.51,0,1,1,1753,413a193.2,193.2,0,0,1,137.53-57m0-80C1738.9,276,1616,398.9,1616,550.5S1738.9,825,1890.5,825,2165,702.1,2165,550.5,2042.1,276,1890.5,276Z"/><path class="cls-1" d="M1603.5,879a234.49,234.49,0,1,1,165.82-68.68A233,233,0,0,1,1603.5,879Z"/><path class="cls-2" d="M1603.5,450A194.51,194.51,0,1,1,1466,507a193.2,193.2,0,0,1,137.53-57m0-80C1451.9,370,1329,492.9,1329,644.5S1451.9,919,1603.5,919,1878,796.1,1878,644.5,1755.1,370,1603.5,370Z"/><path class="cls-1" d="M-105.5,847a233,233,0,0,1-165.82-68.68A233,233,0,0,1-340,612.5a233,233,0,0,1,68.68-165.82A233,233,0,0,1-105.5,378,233,233,0,0,1,60.32,446.68,233,233,0,0,1,129,612.5,233,233,0,0,1,60.32,778.32,233,233,0,0,1-105.5,847Z"/><path class="cls-2" d="M-105.5,418A193.2,193.2,0,0,1,32,475,193.2,193.2,0,0,1,89,612.5,193.2,193.2,0,0,1,32,750,193.2,193.2,0,0,1-105.5,807,193.2,193.2,0,0,1-243,750,193.2,193.2,0,0,1-300,612.5,193.2,193.2,0,0,1-243,475,193.2,193.2,0,0,1-105.5,418m0-80C-257.1,338-380,460.9-380,612.5S-257.1,887-105.5,887,169,764.1,169,612.5,46.1,338-105.5,338Z"/></svg>