<svg xmlns="http://www.w3.org/2000/svg" viewBox="0 0 446.55 443.32"><defs><style>.cls-1{fill:#f5f5f5;}.cls-2{fill:#e0e0e0;}.cls-3{fill:#ebebeb;}.cls-4{fill:#263238;}.cls-5{fill:#6831e4;}.cls-6{fill:#160647;}.cls-7{opacity:0.6;}.cls-8{fill:#ff725e;}.cls-9{opacity:0.2;}.cls-10{fill:#455a64;}.cls-11{fill:#fff;}.cls-12{fill:#ffbe9d;}.cls-13{fill:#eb996e;}.cls-14{fill:#fafafa;}</style></defs><g id="Background_Complete" data-name="Background Complete"><circle class="cls-1" cx="48.49" cy="217.44" r="21.91" transform="translate(-104.76 -0.64) rotate(-22.08)"/><path class="cls-2" d="M35.91,220.45a1.81,1.81,0,0,1,3.62,0,1.81,1.81,0,1,1-3.62,0Z" transform="translate(-26.59 -34.82)"/><path class="cls-2" d="M51.16,217.93h-7.6a2.68,2.68,0,0,0,2.88,2A3.4,3.4,0,0,0,49,219l1.55,1.68a5.26,5.26,0,0,1-4.14,1.62c-3.47,0-5.73-2.18-5.73-5.17A5.12,5.12,0,0,1,46,211.94a5,5,0,0,1,5.22,5.21C51.21,217.37,51.18,217.69,51.16,217.93Zm-7.64-1.7h4.95a2.51,2.51,0,0,0-4.95,0Z" transform="translate(-26.59 -34.82)"/><path class="cls-2" d="M52.19,221.2l1-2.09a6.82,6.82,0,0,0,3.49,1c1.34,0,1.84-.36,1.84-.92,0-1.64-6.06,0-6.06-4,0-1.9,1.72-3.25,4.65-3.25a8.24,8.24,0,0,1,3.86.88l-1,2.07a5.77,5.77,0,0,0-2.89-.75c-1.31,0-1.87.41-1.87.94,0,1.71,6.06,0,6.06,4,0,1.87-1.73,3.19-4.74,3.19A8.66,8.66,0,0,1,52.19,221.2Z" transform="translate(-26.59 -34.82)"/><circle class="cls-1" cx="52.47" cy="293.37" r="38.18"/><path class="cls-2" d="M57.13,333.44a3.16,3.16,0,0,1,6.31,0,3.16,3.16,0,1,1-6.31,0Z" transform="translate(-26.59 -34.82)"/><path class="cls-2" d="M77.76,318.6v4.69c-.43,0-.75-.07-1.14-.07-2.8,0-4.66,1.53-4.66,4.88v8.26H66.89v-17.5h4.85v2.31C73,319.48,75.05,318.6,77.76,318.6Z" transform="translate(-26.59 -34.82)"/><path class="cls-2" d="M98.54,318.86v17.5H93.73v-2.08a7.1,7.1,0,0,1-5.44,2.34c-4.39,0-7.48-2.47-7.48-7.87v-9.89h5.08V328c0,2.93,1.3,4.23,3.54,4.23s4-1.49,4-4.72v-8.65Z" transform="translate(-26.59 -34.82)"/><circle class="cls-1" cx="387.92" cy="322.17" r="30.74"/><path class="cls-2" d="M396.85,361.22a2.54,2.54,0,0,1,5.08,0,2.54,2.54,0,1,1-5.08,0Z" transform="translate(-26.59 -34.82)"/><path class="cls-2" d="M417.43,355.53v8h-3.82v-1.75c-.76,1.28-2.23,2-4.3,2-3.3,0-5.26-1.83-5.26-4.27s1.75-4.21,6.05-4.21h3.25c0-1.76-1.05-2.78-3.25-2.78a6.79,6.79,0,0,0-4.06,1.31L404.57,351a10.86,10.86,0,0,1,6.08-1.7C414.94,349.28,417.43,351.27,417.43,355.53Zm-4.08,3.59v-1.44h-2.81c-1.91,0-2.51.71-2.51,1.65s.86,1.7,2.3,1.7A3,3,0,0,0,413.35,359.12Z" transform="translate(-26.59 -34.82)"/><path class="cls-2" d="M435.32,349.49v14.08h-3.88V361.9a5.68,5.68,0,0,1-4.37,1.88c-3.54,0-6-2-6-6.33v-8h4.08v7.35c0,2.36,1.05,3.41,2.85,3.41s3.25-1.21,3.25-3.8v-7Z" transform="translate(-26.59 -34.82)"/><circle class="cls-1" cx="413.89" cy="224.9" r="24.51"/><path class="cls-2" d="M426.4,263.08a2,2,0,0,1,4.05,0,2,2,0,1,1-4.05,0Z" transform="translate(-26.59 -34.82)"/><path class="cls-2" d="M432.27,250.34a1.87,1.87,0,0,1,2-1.82,1.82,1.82,0,0,1,2,1.76,2,2,0,0,1-4.05.06Zm.4,3.38h3.25V265h-3.25Z" transform="translate(-26.59 -34.82)"/><path class="cls-2" d="M450.44,258.53V265h-3.26V259c0-1.82-.83-2.65-2.28-2.65s-2.69,1-2.69,3V265H439V253.72h3.11V255a4.94,4.94,0,0,1,3.72-1.48C448.44,253.56,450.44,255.1,450.44,258.53Z" transform="translate(-26.59 -34.82)"/><circle class="cls-1" cx="39.84" cy="40.64" r="31.22"/><path class="cls-2" d="M48.49,79.75a2.58,2.58,0,0,1,5.16,0,2.58,2.58,0,1,1-5.16,0Z" transform="translate(-26.59 -34.82)"/><path class="cls-2" d="M71.05,67.83V79.75c0,5.32-2.87,7.76-8,7.76a11.71,11.71,0,0,1-7-2l1.64-3a8.6,8.6,0,0,0,5.06,1.62c2.92,0,4.2-1.33,4.2-3.91v-.61a5.91,5.91,0,0,1-4.52,1.78,6.92,6.92,0,1,1,0-13.83,5.72,5.72,0,0,1,4.73,2V67.83ZM67,74.53A3.77,3.77,0,1,0,63.2,78,3.47,3.47,0,0,0,67,74.53Z" transform="translate(-26.59 -34.82)"/><path class="cls-2" d="M74.91,62.41h4.15V82.14H74.91Z" transform="translate(-26.59 -34.82)"/><circle class="cls-1" cx="435.32" cy="72.63" r="37.82" transform="translate(-20.26 141.48) rotate(-23.06)"/><path class="cls-2" d="M411.48,78.38a2.88,2.88,0,0,1,5.75,0,2.88,2.88,0,1,1-5.75,0Z" transform="translate(-26.59 -34.82)"/><path class="cls-2" d="M436.23,65.1v16h-4.39v-1.9a6.42,6.42,0,0,1-4.95,2.14c-4,0-6.82-2.25-6.82-7.18v-9h4.63v8.33c0,2.67,1.19,3.86,3.23,3.86s3.68-1.37,3.68-4.3V65.1Z" transform="translate(-26.59 -34.82)"/><path class="cls-2" d="M447.38,74.8,445.16,77v4.06h-4.63v-22h4.63V71.51l6.76-6.41h5.51l-6.64,6.76L458,81.05h-5.6Z" transform="translate(-26.59 -34.82)"/><path class="cls-3" d="M95.75,370.67s-6.23,2.52,1,15.75,12.1,19.75,12.1,19.75,1.29,3.08-1.31,3.64-8.41-.22-9.49,3,1.37,6.44,6.34,9.06S120,430.66,121,431.22s1.92,2,.2,2.63-14.66,2.36-13.49,8.45,16.22,11.13,17.85,11.72,2,1.25,1.93,2.15-4.51,1.05-8.17,1.68-7.8,2-6.83,5.46,10,10.55,31.48,12.1l10,.06,5.22-8.59c10.06-19.06,8.81-30.46,6.39-33.11s-5.78.13-8.25,2.9-4.94,6.43-5.75,6.05-1.18-1.08-.81-2.77,4-17.13-.5-21.35-12.84,5.87-14.3,7-2.17-.47-2.13-1.56.46-13.43.86-19-.89-9.35-4.34-10.17-5.73,4.53-7.58,6.46-3.77-.81-3.77-.81-2.94-7.62-10.37-20.72-13-9-13-9" transform="translate(-26.59 -34.82)"/><path class="cls-2" d="M154.52,477.81c-5.42-9.64-14.76-26.94-22.86-41.75s-15.44-28.21-20.81-37.88c-2.68-4.82-4.85-8.73-6.37-11.44l-1.72-3.12-.45-.81a2.77,2.77,0,0,1-.14-.28l.17.26.47.8,1.78,3.09c1.54,2.68,3.75,6.57,6.46,11.39,5.41,9.65,12.79,23,20.88,37.84S149.34,468,154.71,477.7" transform="translate(-26.59 -34.82)"/><path class="cls-2" d="M106.07,414.23a2.84,2.84,0,0,1,.7.18c.45.13,1.09.33,1.88.6,1.57.53,3.73,1.32,6.1,2.24l6,2.36,1.84.71a3.08,3.08,0,0,1,.66.28,3,3,0,0,1-.7-.17c-.45-.13-1.09-.34-1.88-.61-1.57-.55-3.71-1.37-6.08-2.28s-4.44-1.71-6.06-2.32l-1.84-.7A3.36,3.36,0,0,1,106.07,414.23Z" transform="translate(-26.59 -34.82)"/><path class="cls-2" d="M124,419.94c-.08,0,1.35-4.54,3.2-10.09s3.41-10,3.5-10-1.36,4.54-3.21,10.09S124,420,124,419.94Z" transform="translate(-26.59 -34.82)"/><path class="cls-2" d="M135.36,443.25a4.14,4.14,0,0,1,.39-.63c.31-.44.69-1,1.15-1.65,1-1.4,2.28-3.33,3.66-5.52s2.57-4.2,3.42-5.67c.39-.69.73-1.27,1-1.74a3.27,3.27,0,0,1,.4-.62,3.74,3.74,0,0,1-.29.68c-.21.43-.52,1-.92,1.79-.8,1.5-2,3.54-3.35,5.73s-2.73,4.11-3.74,5.48c-.51.68-.93,1.22-1.23,1.59A3.63,3.63,0,0,1,135.36,443.25Z" transform="translate(-26.59 -34.82)"/><path class="cls-2" d="M118.05,441.64a3.25,3.25,0,0,1,.68,0l1.86.1c1.56.1,3.72.25,6.1.44s4.55.38,6.11.54l1.84.19a3.32,3.32,0,0,1,.68.12,3.44,3.44,0,0,1-.69,0l-1.85-.1c-1.57-.1-3.73-.26-6.11-.45s-4.54-.38-6.1-.53l-1.85-.2A3,3,0,0,1,118.05,441.64Z" transform="translate(-26.59 -34.82)"/><path class="cls-2" d="M125.51,463.49a4.85,4.85,0,0,1,.87,0l2.38.12c2,.11,4.77.29,7.83.5s5.83.43,7.83.6l2.37.22a4.06,4.06,0,0,1,.86.12,4.85,4.85,0,0,1-.87,0l-2.38-.12c-2-.11-4.77-.29-7.83-.51s-5.83-.42-7.83-.59l-2.37-.22A4.87,4.87,0,0,1,125.51,463.49Z" transform="translate(-26.59 -34.82)"/><path class="cls-2" d="M147.13,464.86a7.88,7.88,0,0,1,.48-.81l1.37-2.14c1.16-1.82,2.75-4.33,4.42-7.15s3.14-5.41,4.18-7.29l1.23-2.23a5.46,5.46,0,0,1,.48-.8,5.11,5.11,0,0,1-.37.86c-.26.54-.65,1.32-1.15,2.27-1,1.92-2.42,4.53-4.1,7.35s-3.3,5.32-4.51,7.11c-.6.89-1.1,1.6-1.45,2.09A4.69,4.69,0,0,1,147.13,464.86Z" transform="translate(-26.59 -34.82)"/><path class="cls-3" d="M393.51,411.13a13,13,0,0,1,5.84,8.32,23,23,0,0,1-.26,10.37c-1.51,6.57-6,12.87-10.72,17.74-5.06-5.53-5.39-14.21-5.28-18.63.17-7,4.72-19.49,10.42-17.8" transform="translate(-26.59 -34.82)"/><path class="cls-3" d="M393.66,459.28a11.07,11.07,0,0,1,4.73-10.07,14.71,14.71,0,0,1,11.16-2.16c1.77.34,3.64,1.08,4.5,2.66a4.74,4.74,0,0,1-.46,4.78,9.55,9.55,0,0,1-3.93,3.08c-5.2,2.51-10.69,4-16,1.71" transform="translate(-26.59 -34.82)"/><path class="cls-2" d="M385.29,473.94a22.05,22.05,0,0,1,1.25-4.28,20.92,20.92,0,0,1,2.2-4.35,44.22,44.22,0,0,1,3.47-4.83,22.13,22.13,0,0,1,8.68-6.39,17,17,0,0,1,3.17-.85,3.51,3.51,0,0,1,1.21-.05c0,.13-1.69.32-4.18,1.4a23.86,23.86,0,0,0-8.31,6.38,56.3,56.3,0,0,0-3.46,4.72,22,22,0,0,0-2.28,4.17A33.61,33.61,0,0,1,385.29,473.94Z" transform="translate(-26.59 -34.82)"/><path class="cls-2" d="M390.89,421a12.91,12.91,0,0,1,0,2.25c-.07,1.45-.19,3.55-.37,6.14-.35,5.17-.92,12.31-1.74,20.18s-1.78,15-2.57,20.11c-.4,2.57-.74,4.64-1,6.06a11.58,11.58,0,0,1-.49,2.21,14.19,14.19,0,0,1,.2-2.25c.2-1.57.46-3.62.77-6.09.66-5.14,1.52-12.25,2.34-20.11s1.45-14.87,2-20.16c.25-2.47.45-4.53.61-6.11A12.16,12.16,0,0,1,390.89,421Z" transform="translate(-26.59 -34.82)"/><path class="cls-3" d="M384.91,460.89a25.92,25.92,0,0,0-14.65-18.61c-1.91-.86-4.39-1.38-5.9.06s-1.1,4-.29,5.89a22.13,22.13,0,0,0,20.72,13.21" transform="translate(-26.59 -34.82)"/><path class="cls-2" d="M371.75,448.22c0-.05.41.14,1.07.51s1.6,1,2.73,1.73a29.2,29.2,0,0,1,7.64,7.43,18.2,18.2,0,0,1,2.45,5.39,17.63,17.63,0,0,1,.55,4.8,17.25,17.25,0,0,1-.36,3.22,3.63,3.63,0,0,1-.32,1.14c-.15,0,.19-1.68.15-4.36a18,18,0,0,0-3.1-9.78,32.74,32.74,0,0,0-7.33-7.41A36.8,36.8,0,0,1,371.75,448.22Z" transform="translate(-26.59 -34.82)"/></g><g id="World"><path class="cls-4" d="M405.91,184.83c-.17-1.81-.37-3.58-.62-5.36s-.53-3.75-.84-5.6q.46,2.77.84,5.6C405.54,181.25,405.74,183,405.91,184.83Z" transform="translate(-26.59 -34.82)"/><path class="cls-5" d="M391.54,207c-1.55-3.51-1.9-7.39-2.92-11.07-.56-2-1.48-4.08-3.33-5-1.23-.58-2.68-.5-4-.9-4.68-1.4-6-7.94-10.39-10a15.08,15.08,0,0,0-4.46-.92c-5.93-.7-12.06-2.75-15.79-7.41-1.23-1.5-2.16-3.28-3.66-4.51s-3.88-1.75-5.35-.5c1.25,2.51,2.47,5,3.7,7.49,1.13,2.25,2.28,4.58,4.16,6.23s4.7,2.55,7,1.5a4.6,4.6,0,0,1,2.35-.82,2.54,2.54,0,0,1,1.53,1c3.23,3.58,2.18,9.51-1,13.17s-7.78,5.53-12.26,7.31a9.58,9.58,0,0,1-5,1c-3.1-.57-4.75-4-5.66-7-2-6.71-3-14-7.15-19.65-1.33-1.78-3-3.4-3.78-5.48-.86-2.25-.66-4.88-2-6.86s-4.38-3.28-4.58-5.78c-.12-1.75,1.33-3.31,2.93-4.06s3.41-1,5.06-1.67c.65-.28,1.37-.76,1.4-1.46,0-1.05-1.45-1.47-1.83-2.45s.73-2.13,1.2-3.2c1-2.46-1.52-4.93-4-5.94s-5.43-1.72-6.59-4.13a14.67,14.67,0,0,1-.8-3.58c-.57-3-2.8-5.95-5.85-6.45s-6.49,2.22-6,5.28c.3,1.68,1.56,3,2.23,4.53s.5,3.85-1.1,4.35c-2.63.81-5.16-4-7.36-2.35.9,3.08,1.78,6.16,2.68,9.26-3.45,1.76-7.58-1.42-9.06-5s-1.53-7.68-3.28-11.14-6.48-6.05-9.49-3.6c-.15,4.45,5.73,6.26,8.34,9.86,1.88,2.6,1.6,6.83-1.18,8.49s-7.13-1.23-6.08-4.26c.37-1,1.25-1.93,1.35-3,.1-1.4-1.08-2.53-2.15-3.43-1.68-1.43-3.36-2.83-5-4.23a10.8,10.8,0,0,0-3.58-2.26c-3.46-1-6.91,1.81-8.74,4.89s-2.85,6.73-5.38,9.31c-3.63,3.75-10.51,4-13.92,0s-1.68-11.29,3.36-12.72c1.9-.52,4.3-.47,5.3-2.15,1.75-3-3.25-6.78-1.52-9.79,1.32-2.3,4.83-1.25,7.38-2s3.95-3.33,5.46-5.53,3.8-4.38,6.4-3.8a8,8,0,0,1,.28-4.56c.68-1.4,2.58-2.3,3.83-1.4-1.28,2.1.25,5,2.48,6.08s4.83.8,7.28.53,5.53-1.2,5.73-3.66c.08-.8-.22-1.65.08-2.4,1.08-2.93,6.48,1.1,8.56-1.25,1.2-1.23-.12-3.41-1.8-3.81s-3.38.2-5.08.25-3.78-.82-3.86-2.52,1.8-2.88,2-4.53c.33-2.81-4.43-3.53-6.1-1.26s-1.08,5.41-.58,8.19.78,6.06-1.28,8c-.87,1.33-3.15.62-3.9-.78s-.6-3.1-.73-4.68-.82-3.4-2.37-3.83c-1.08-.3-2.23.23-3.33.38-4.36.52-7.39-5.11-6-9.26s5.3-6.86,9.14-9c2.8-1.55,6.28-3,9.06-1.43,1.3.73,2.2,2,3.48,2.73,2.2,1.3,4.93.83,7.46.88a17.3,17.3,0,0,1,10.88,4.23c1.13,1,2.18,2.73,1.31,4S302,89,302.43,90.56a5.43,5.43,0,0,0,6.81-4.38,4.56,4.56,0,0,1,2.63,3.7,8.1,8.1,0,0,1,11.89,1,10.4,10.4,0,0,0,2.2,2.83c1,.65,2.75.32,2.88-.86a2.34,2.34,0,0,0-.2-1.1c-.6-1.7-1.23-3.38-1.83-5,2.33-1.25,5.08.7,6.66,2.8,5.86,7.84,10,3.13,18.3,4.41,5.58.85,8,4.43,11.19,8.76,9.66,13.31,22.43,24.23,31.21,38.15.93,1.45,1.78,2.92,2.58,4.43-.15-.38-.27-.76-.43-1.13a154,154,0,0,0-12.76-26q-1.62-2.62-3.31-5.18c-.7-1-1.42-2.13-2.15-3.15-.92-1.36-1.9-2.66-2.88-4-.77-1-1.55-2.08-2.35-3.08-.55-.7-1.13-1.4-1.7-2.1s-1.25-1.58-1.95-2.35l-2.11-2.43a9,9,0,0,0-.67-.75c-.73-.85-1.5-1.68-2.28-2.51a.77.77,0,0,0-.23-.25c-.2-.22-.42-.45-.65-.67-.62-.7-1.3-1.38-1.95-2-1.08-1.11-2.18-2.21-3.3-3.26-.93-.92-1.88-1.8-2.86-2.68s-1.7-1.55-2.58-2.3-1.7-1.48-2.57-2.2c-1-.9-2.13-1.78-3.23-2.66h0c-3-2.42-6.16-4.73-9.36-6.88-.8-.55-1.58-1.08-2.38-1.6s-1.62-1-2.43-1.55-1.62-1-2.45-1.51-1.65-1-2.48-1.47c-.67-.4-1.32-.78-2-1.13a9.51,9.51,0,0,0-1-.57c-1.42-.81-2.87-1.58-4.33-2.31-.72-.37-1.45-.75-2.2-1.1-.92-.47-1.88-.92-2.83-1.35a1.81,1.81,0,0,0-.42-.2c-.85-.4-1.71-.8-2.58-1.18-1.23-.52-2.45-1.05-3.68-1.55-1.4-.57-2.8-1.15-4.23-1.68-1.58-.6-3.16-1.17-4.76-1.7s-3.23-1.07-4.85-1.58-3.26-1-4.91-1.4c-3.25-.87-6.56-1.65-9.89-2.33a1.09,1.09,0,0,1-.17,0c-1.28-.25-2.56-.5-3.83-.7a1.57,1.57,0,0,0-.25,0c-.55-.1-1.13-.2-1.7-.27-2.38-.4-4.79-.73-7.21-1a8.16,8.16,0,0,0-.88-.1c-.7-.1-1.4-.15-2.13-.23-1.6-.15-3.2-.27-4.83-.37s-3.38-.2-5.08-.25-3.55-.1-5.33-.1q-7.06,0-14,.62c-1.1.08-2.18.18-3.25.3s-2.26.25-3.38.4-2.26.3-3.36.48-2.22.35-3.35.55c-.95.15-1.93.32-2.88.52q-3.53.69-7,1.51c-1.08.25-2.16.52-3.23.82s-2.15.58-3.21.88c-1.77.5-3.5,1-5.23,1.6h0c-1.4.48-2.83.95-4.21,1.43a.19.19,0,0,0-.1,0c-1.43.5-2.8,1-4.2,1.57l-.23.08c-1.28.5-2.55,1-3.8,1.55-1.58.65-3.13,1.35-4.66,2-1.3.6-2.58,1.21-3.83,1.83s-2.7,1.35-4,2l-.15.08c-1.28.67-2.55,1.38-3.8,2.1s-2.58,1.48-3.86,2.28h0c-1.21.73-2.38,1.45-3.56,2.2-.45.28-.88.58-1.33.88-1.25.8-2.45,1.63-3.68,2.48-1.5,1-2.95,2.1-4.4,3.18q-1.92,1.43-3.76,2.9a157.78,157.78,0,0,0-19.67,18.65c-2.13,2.35-4.13,4.75-6.08,7.21-1.66,2.1-3.26,4.23-4.78,6.43q-2.07,2.88-4,5.85,1.92-3,4-5.85c.4,0,.8-.1,1.2-.13,2.25-.17,4.63-.1,6.66-1.07,1.87-.93,3.2-2.6,4.9-3.81,4.36-3.1,11.49-3.68,12.67-8.88.4-1.75-.08-3.66.57-5.33,1.23-3.13,5.41-3.58,8.76-3.53,1.43,0,3.11.2,3.76,1.45a3.59,3.59,0,0,1-.15,2.9,27.18,27.18,0,0,1-11.49,14.12c-4.36,2.65-10,4.71-11.24,9.66.6,1.68,3.66,1.55,3.91,3.31.17,1.4-1.63,2.12-2.28,3.38-1,1.82,1.22,4.05,3.3,4s3.81-1.6,5.33-3c4.56-4.23,9.34-8.79,11-14.8.7-2.48,1-5.38,3-7a4.89,4.89,0,0,1,7.43,2.38c2-1.1,5.06-1.93,6.08.12a10.92,10.92,0,0,1,.43,2.36c.65,3.2,5,4.65,5.48,7.88.53,3.73-4.25,5.66-8,6.23-3.38.53-6.76,1-10.14,1.61a9.26,9.26,0,0,0-4.21,1.35,3.28,3.28,0,0,0-1.25,3.93,10.26,10.26,0,0,0,1.75,1.8c2.81,2.8.5,8.58-3.45,8.71-1.35,0-2.68-.45-4-.5-4-.18-7.19,3.35-9.09,6.88s-3.33,7.56-6.53,10c-5.16,3.88-14,3-16.55,8.93-1,2.4-.47,5.11-.07,7.69s.57,5.4-.93,7.53-5.33,2.55-6.43.2a5.71,5.71,0,0,1-.15-3.33c.6-3.7,1.17-7.41,1.75-11.11.43-2.76.8-5.83-.83-8.09-2.27-3.15-7.38-2.85-10.33-.32s-4.16,6.48-5,10.26c-.61,2.8-1.31,6.76-2.86,10h0q-.78,4.67-1.28,9.44c-.32,3.25-.55,6.48-.67,9.79a15.07,15.07,0,0,0,1.28-1.2c1.57-1.63,4.75-8.52,7.61-5.14a2.57,2.57,0,0,1,0,3.13c-.88,1.13-2.63,1.38-3.31,2.61-.82,1.45.33,3.25,1.68,4.2s3,1.58,4,3c1.83,2.62.08,6.6,1.86,9.28,1.52,2.3,4.78,2.46,7.56,2.76l1,.15c.77-5.51,3.35-10,10.86-11.69,10.36-2.36,24,6.23,29.81,14,6.51,8.74,9.59,21.1,19.55,25.48,7.14,3.13,17.27,2,20.75,9,3.11,6.26-2.3,13.29-3.13,20.22-.52,4.58,1,9.14,1.33,13.72s-1,10-5.21,11.89c-2.32,1-5.25.93-7.13,2.68-3.33,3.15-.6,9.66-3.93,12.81-1.18,1.11-2.8,1.51-4.23,2.23-7.48,3.78-7.28,14.8-3.8,22.43.12.28.25.53.37.8a158.1,158.1,0,0,0,81.13,22.41,157.43,157.43,0,0,0,74.22-18.48h0a158.18,158.18,0,0,0,14-8.43,157.51,157.51,0,0,0,31.67-28.16c2.65-3.06,5.16-6.24,7.56-9.49,1.23-1.68,2.43-3.36,3.55-5.08a155.47,155.47,0,0,0,19.68-40.48,153.83,153.83,0,0,0,6-26.81c.48-3.55.85-7.16,1.1-10.79a9.08,9.08,0,0,1-6.36,2.83C396.2,213.71,393.07,210.53,391.54,207Z" transform="translate(-26.59 -34.82)"/><path class="cls-6" d="M111,242.07c-.5-4.53,1-9.06,1.08-13.64,0-3.15-.18-6.48-.23-9.66a43.39,43.39,0,0,1-8-1.13,2.38,2.38,0,0,1-1.48-.75,3,3,0,0,1-.33-1.68c-.2-3.55-3.63-5.9-6.7-7.68a26.07,26.07,0,0,0-4.89-2.4c0,.37,0,.72,0,1.1a157.55,157.55,0,0,0,10.06,50.19,151.91,151.91,0,0,0,9.66,20.72c1.56,2.88,3.26,5.71,5,8.49,2.2,3.43,4.5,6.78,7,10,2.3,3.1,4.76,6.13,7.33,9a155.81,155.81,0,0,0,11.19,11.51c3.48,3.26,7.11,6.33,10.89,9.26-8.63-23.18-16.77-46.83-31.54-66.56C116.22,253.74,111.77,248.48,111,242.07Z" transform="translate(-26.59 -34.82)"/><path class="cls-4" d="M90.44,197.64c0,1,0,1.9,0,2.86,0,.77,0,1.54,0,2.31,0-.77,0-1.54,0-2.31C90.39,199.54,90.42,198.6,90.44,197.64Z" transform="translate(-26.59 -34.82)"/><g class="cls-7"><path class="cls-4" d="M160.49,331.86q2,1.35,4,2.63c.95.6,1.91,1.18,2.88,1.75-1-.57-1.93-1.15-2.88-1.75Q162.49,333.22,160.49,331.86Z" transform="translate(-26.59 -34.82)"/></g><path class="cls-8" d="M294.46,321.94a13.87,13.87,0,0,1-2.95-.31,9.65,9.65,0,0,1-7-5.29,18,18,0,0,1-1.21-6.88,27.26,27.26,0,0,0-.5-4.71,25,25,0,0,0-3.72-7.56,35.25,35.25,0,0,1-3.22-5.84c-1.5-3.81-1.62-8-1.73-12l0-1c-.83-27.82-8.59-50.4-22.43-65.3-1.92-2.07-4.07-4.09-6.79-4.81a8.45,8.45,0,0,0-8.71,3,18.67,18.67,0,0,0-1.31,2.15,12,12,0,0,1-2.29,3.26,6.57,6.57,0,0,1-5.57,1.51,10.07,10.07,0,0,1-6.94-4.79c-2.46-4.33-2-9.66-1.66-14l1.43-17.26c.22-2.67.52-6.31,2.68-8.81,1.67-1.94,4.08-2.82,6.42-3.68a19.6,19.6,0,0,0,4.94-2.37c2.78-2.08,4-5.35,5.31-8.82a36.77,36.77,0,0,1,2.51-5.71,10.67,10.67,0,0,1,9.91-4.88,4.63,4.63,0,0,1,3.64,2.43c1.71-3.21,3.83-5.15,6.45-5.9,5.72-1.64,12.69,2.89,19.43,7.26,6.15,4,12,7.77,16.52,6.94,1.15-.21,2.32-.54,3.45-.86,2.4-.67,4.88-1.38,7.42-1,6.65.93,10,8.14,12.25,14.32l10.81,30.21c1.35,3.76,3.08,7.89,6.66,9.27a13.59,13.59,0,0,0,4.52.66,15.11,15.11,0,0,1,4.7.68,7.58,7.58,0,0,1,5,6.09c.92,5-1.59,11.52-5.82,15.19h0a69.44,69.44,0,0,1-6.34,4.67c-4.89,3.33-9.5,6.47-11.5,11.64a28.1,28.1,0,0,0-1.32,8.84c-.14,3.2-.28,6.5-1.54,9.51a27.48,27.48,0,0,1-4.7,6.86,43.25,43.25,0,0,0-3.15,4c-3.46,5.22-4.42,11.68-5.35,17.94q-.17,1.2-.36,2.4c-1.08,7-2.95,14.74-8.6,19.59A14.53,14.53,0,0,1,294.46,321.94ZM242.89,207a9.24,9.24,0,0,1,2.27.29c3,.79,5.34,3,7.26,5.09,14,15.09,21.86,37.9,22.7,66l0,1c.11,3.94.22,8,1.66,11.65a34.84,34.84,0,0,0,3.13,5.67,26,26,0,0,1,3.85,7.87,26.89,26.89,0,0,1,.52,4.89,17.27,17.27,0,0,0,1.13,6.52,8.63,8.63,0,0,0,6.28,4.72,13.56,13.56,0,0,0,11.39-2.77c5.4-4.64,7.21-12.2,8.26-19,.13-.79.25-1.59.36-2.39.95-6.36,1.92-12.94,5.51-18.34a44.62,44.62,0,0,1,3.21-4.1,26.1,26.1,0,0,0,4.55-6.59c1.19-2.85,1.33-6.06,1.46-9.17a28.76,28.76,0,0,1,1.39-9.16c2.1-5.46,7.07-8.84,11.87-12.11a65.18,65.18,0,0,0,6.24-4.6c3.93-3.4,6.34-9.65,5.49-14.25a6.63,6.63,0,0,0-4.32-5.33,14.41,14.41,0,0,0-4.4-.62,14.76,14.76,0,0,1-4.84-.72c-4-1.54-5.82-5.9-7.24-9.87l-10.81-30.21c-2.12-5.92-5.33-12.81-11.45-13.67-2.32-.32-4.6.32-7,1-1.15.33-2.34.66-3.54.88-4.95.9-10.92-3-17.25-7.08-6.55-4.25-13.32-8.65-18.61-7.14-2.59.75-4.67,2.84-6.33,6.41l-.61,1.3-.33-1.39a3.61,3.61,0,0,0-3.23-2.82,9.73,9.73,0,0,0-8.91,4.39,37.44,37.44,0,0,0-2.44,5.56c-1.29,3.45-2.63,7-5.64,9.27a20,20,0,0,1-5.2,2.5c-2.31.86-4.5,1.66-6,3.4-1.8,2.08-2.17,5-2.44,8.24l-1.43,17.26c-.35,4.15-.77,9.31,1.53,13.37a9,9,0,0,0,6.23,4.3,5.56,5.56,0,0,0,4.74-1.26,11.29,11.29,0,0,0,2.08-3,19.19,19.19,0,0,1,1.39-2.27A9.51,9.51,0,0,1,242.89,207Z" transform="translate(-26.59 -34.82)"/><g class="cls-7"><path class="cls-4" d="M90.54,193.91v0h0v0a8.65,8.65,0,0,0-.05.88c0,.94,0,1.9,0,2.85,0-.95,0-1.91,0-2.85A8.65,8.65,0,0,1,90.54,193.91Z" transform="translate(-26.59 -34.82)"/></g><g class="cls-7"><path class="cls-4" d="M90.43,202.81c0,.77,0,1.55,0,2.32h0C90.44,204.36,90.44,203.58,90.43,202.81Z" transform="translate(-26.59 -34.82)"/></g><path class="cls-6" d="M112.17,212.64l-1-.15c-2.78-.3-6-.46-7.56-2.76-1.78-2.68,0-6.66-1.86-9.28-1-1.38-2.6-2-4-3s-2.5-2.75-1.68-4.2c.68-1.23,2.43-1.48,3.31-2.61a2.57,2.57,0,0,0,0-3.13c-2.86-3.38-6,3.51-7.61,5.14a15.07,15.07,0,0,1-1.28,1.2v0a8.65,8.65,0,0,0-.05.88c0,.94,0,1.9,0,2.85s0,1.9,0,2.86c0,.77,0,1.54,0,2.31s0,1.55,0,2.32a26.07,26.07,0,0,1,4.89,2.4c3.07,1.78,6.5,4.13,6.7,7.68a3,3,0,0,0,.33,1.68,2.38,2.38,0,0,0,1.48.75,43.39,43.39,0,0,0,8,1.13" transform="translate(-26.59 -34.82)"/><path class="cls-6" d="M111.89,218.77c0,3.18.28,6.51.23,9.66-.08,4.58-1.58,9.11-1.08,13.64.73,6.41,5.18,11.67,9.06,16.82,14.77,19.73,22.91,43.38,31.54,66.56h0c1.6,1.28,3.23,2.48,4.88,3.66q1.95,1.41,3.94,2.75t4,2.63c.95.6,1.91,1.18,2.88,1.75-.12-.27-.25-.52-.37-.8-3.48-7.63-3.68-18.65,3.8-22.43,1.43-.72,3-1.12,4.23-2.23,3.33-3.15.6-9.66,3.93-12.81,1.88-1.75,4.81-1.63,7.13-2.68,4.19-1.93,5.54-7.28,5.21-11.89s-1.85-9.14-1.33-13.72c.83-6.93,6.24-14,3.13-20.22-3.48-7-13.61-5.86-20.75-9-10-4.38-13-16.74-19.55-25.48-5.83-7.81-19.45-16.4-29.81-14-7.51,1.7-10.09,6.18-10.86,11.69" transform="translate(-26.59 -34.82)"/><path class="cls-6" d="M100.33,154.44c3-2.53,8.06-2.83,10.33.32,1.63,2.26,1.26,5.33.83,8.09-.58,3.7-1.15,7.41-1.75,11.11a5.71,5.71,0,0,0,.15,3.33c1.1,2.35,5,1.9,6.43-.2s1.33-5,.93-7.53-.93-5.29.07-7.69c2.51-6,11.39-5.05,16.55-8.93,3.2-2.41,4.63-6.44,6.53-10s5.08-7.06,9.09-6.88c1.35,0,2.68.55,4,.5,3.95-.13,6.26-5.91,3.45-8.71a10.26,10.26,0,0,1-1.75-1.8,3.28,3.28,0,0,1,1.25-3.93,9.26,9.26,0,0,1,4.21-1.35c3.38-.56,6.76-1.08,10.14-1.61,3.73-.57,8.51-2.5,8-6.23-.45-3.23-4.83-4.68-5.48-7.88a10.92,10.92,0,0,0-.43-2.36c-1-2-4.1-1.22-6.08-.12a4.89,4.89,0,0,0-7.43-2.38c-2,1.65-2.26,4.55-3,7-1.65,6-6.43,10.57-11,14.8-1.52,1.4-3.25,2.9-5.33,3s-4.25-2.13-3.3-4c.65-1.26,2.45-2,2.28-3.38-.25-1.76-3.31-1.63-3.91-3.31,1.2-5,6.88-7,11.24-9.66A27.18,27.18,0,0,0,157.9,90.63a3.59,3.59,0,0,0,.15-2.9c-.65-1.25-2.33-1.45-3.76-1.45-3.35,0-7.53.4-8.76,3.53-.65,1.67-.17,3.58-.57,5.33-1.18,5.2-8.31,5.78-12.67,8.88-1.7,1.21-3,2.88-4.9,3.81-2,1-4.41.9-6.66,1.07-.4,0-.8.08-1.2.13q-2.07,2.88-4,5.85c-1.28,2-2.51,4-3.7,6a156.62,156.62,0,0,0-13.72,30.59c-1.22,3.74-2.31,7.55-3.24,11.41s-1.74,7.78-2.39,11.74c1.55-3.2,2.25-7.16,2.86-10C96.17,160.92,97.4,157,100.33,154.44Z" transform="translate(-26.59 -34.82)"/><path class="cls-6" d="M233,81.07c1.49-2,1.06-4.78,2-7,1.61-3.76,6.61-5.11,8.35-8.82.67-1.43.83-3.18,2-4.24,1-.88,2.41-1.06,3.45-1.86,2.33-1.78,1.37-5.85-1.11-7.43-6.2-4-17.62.62-23,4.5-6.9,5-13.64,11-22.81,10.4-2.53-.16-5.15-.85-7.52,0s-3.83,4.45-1.79,6c1.13.84,2.74.61,4,1.2,2.36,1.09,2.6,4.51,1.45,6.85s-3.24,4.08-4.6,6.3a11.91,11.91,0,0,0-1.7,7.25,6.61,6.61,0,0,0,2.14,4.66c2.86,2.27,7.19.32,9.61-2.41s4.09-6.28,7.22-8.15a18,18,0,0,1,5.14-1.79l12-2.84C229.77,83.18,231.82,82.63,233,81.07Z" transform="translate(-26.59 -34.82)"/><g class="cls-7"><path class="cls-4" d="M406.64,198.32q0-3.42-.21-6.79.19,3.38.21,6.79c.05.72.05,1.45.05,2.18,0,3.5-.13,6.95-.33,10.41.2-3.46.33-6.91.33-10.41C406.69,199.77,406.69,199,406.64,198.32Z" transform="translate(-26.59 -34.82)"/></g><g class="cls-7"><path class="cls-4" d="M396.75,145.25q1.13,3,2.12,6.05-1-3-2.12-6.05s0,0,0,0h0Z" transform="translate(-26.59 -34.82)"/></g><path class="cls-6" d="M406.64,198.32q0-3.42-.21-6.79c-.12-2.24-.29-4.48-.52-6.7-.17-1.81-.37-3.58-.62-5.36s-.53-3.75-.84-5.6a152.16,152.16,0,0,0-3.69-16.43q-.88-3.09-1.89-6.14t-2.12-6.05v0h0c-.8-1.51-1.65-3-2.58-4.43C385.39,126.88,372.62,116,363,102.65c-3.16-4.33-5.61-7.91-11.19-8.76-8.26-1.28-12.44,3.43-18.3-4.41-1.58-2.1-4.33-4-6.66-2.8.6,1.67,1.23,3.35,1.83,5a2.34,2.34,0,0,1,.2,1.1c-.13,1.18-1.88,1.51-2.88.86a10.4,10.4,0,0,1-2.2-2.83,8.1,8.1,0,0,0-11.89-1,4.56,4.56,0,0,0-2.63-3.7,5.43,5.43,0,0,1-6.81,4.38c-.47-1.53,2.25-1.81,3.21-3.11s-.18-2.93-1.31-4a17.3,17.3,0,0,0-10.88-4.23c-2.53,0-5.26.42-7.46-.88-1.28-.75-2.18-2-3.48-2.73-2.78-1.57-6.26-.12-9.06,1.43-3.84,2.13-7.79,4.81-9.14,9s1.65,9.78,6,9.26c1.1-.15,2.25-.68,3.33-.38,1.55.43,2.25,2.23,2.37,3.83s0,3.28.73,4.68,3,2.11,3.9.78c2.06-2,1.81-5.23,1.28-8s-1.08-5.91.58-8.19,6.43-1.55,6.1,1.26c-.2,1.65-2.07,2.85-2,4.53s2.15,2.6,3.86,2.52,3.43-.67,5.08-.25,3,2.58,1.8,3.81c-2.08,2.35-7.48-1.68-8.56,1.25-.3.75,0,1.6-.08,2.4-.2,2.46-3.27,3.36-5.73,3.66s-5.05.52-7.28-.53-3.76-4-2.48-6.08c-1.25-.9-3.15,0-3.83,1.4a8,8,0,0,0-.28,4.56c-2.6-.58-4.93,1.62-6.4,3.8s-2.93,4.76-5.46,5.53-6.06-.27-7.38,2c-1.73,3,3.27,6.81,1.52,9.79-1,1.68-3.4,1.63-5.3,2.15-5,1.43-6.79,8.79-3.36,12.72s10.29,3.7,13.92,0c2.53-2.58,3.55-6.21,5.38-9.31s5.28-5.89,8.74-4.89a10.8,10.8,0,0,1,3.58,2.26c1.67,1.4,3.35,2.8,5,4.23,1.07.9,2.25,2,2.15,3.43-.1,1.12-1,2-1.35,3-1.05,3,3.33,5.91,6.08,4.26s3.06-5.89,1.18-8.49c-2.61-3.6-8.49-5.41-8.34-9.86,3-2.45,7.74.12,9.49,3.6s1.8,7.56,3.28,11.14,5.61,6.79,9.06,5c-.9-3.1-1.78-6.18-2.68-9.26,2.2-1.65,4.73,3.16,7.36,2.35,1.6-.5,1.8-2.8,1.1-4.35s-1.93-2.85-2.23-4.53c-.5-3.06,2.91-5.78,6-5.28s5.28,3.43,5.85,6.45a14.67,14.67,0,0,0,.8,3.58c1.16,2.41,4.14,3.13,6.59,4.13s5,3.48,4,5.94c-.47,1.07-1.6,2.1-1.2,3.2s1.83,1.4,1.83,2.45c0,.7-.75,1.18-1.4,1.46-1.65.67-3.46.9-5.06,1.67s-3.05,2.31-2.93,4.06c.2,2.5,3.18,3.7,4.58,5.78s1.15,4.61,2,6.86c.8,2.08,2.45,3.7,3.78,5.48,4.15,5.66,5.13,12.94,7.15,19.65.91,3,2.56,6.41,5.66,7a9.58,9.58,0,0,0,5-1c4.48-1.78,9.13-3.68,12.26-7.31s4.21-9.59,1-13.17a2.54,2.54,0,0,0-1.53-1,4.6,4.6,0,0,0-2.35.82c-2.28,1-5.08.18-7-1.5s-3-4-4.16-6.23c-1.23-2.48-2.45-5-3.7-7.49,1.47-1.25,3.83-.72,5.35.5s2.43,3,3.66,4.51c3.73,4.66,9.86,6.71,15.79,7.41a15.08,15.08,0,0,1,4.46.92c4.43,2,5.71,8.57,10.39,10,1.3.4,2.75.32,4,.9,1.85.87,2.77,3,3.33,5,1,3.68,1.37,7.56,2.92,11.07s4.66,6.68,8.46,6.73a9.08,9.08,0,0,0,6.36-2.83v0c.2-3.46.33-6.91.33-10.41C406.69,199.77,406.69,199,406.64,198.32Z" transform="translate(-26.59 -34.82)"/><g class="cls-9"><path d="M346.29,232.81c6.24-5.4,8.76-17.61,1-20.43-2.94-1.07-6.32-.21-9.23-1.34-3.8-1.47-5.57-5.74-6.95-9.57q-5.4-15.1-10.81-30.21c-2.17-6.07-5.47-13.1-11.85-14-3.61-.51-7.12,1.22-10.71,1.87-12.36,2.25-33.15-27.67-42.56-7.53-1.31-5.47-10.21-3.42-13.05,1.44s-3.44,11.3-7.95,14.68c-3.43,2.57-8.47,2.73-11.28,6-2,2.29-2.31,5.52-2.56,8.53q-.72,8.63-1.43,17.26c-.39,4.64-.7,9.61,1.59,13.66s8.3,6.3,11.74,3.16c1.58-1.44,2.25-3.63,3.54-5.34a9,9,0,0,1,9.24-3.18c2.81.74,5.05,2.82,7,5,16.09,17.32,21.85,42,22.56,65.63.13,4.32.14,8.77,1.73,12.79,1.86,4.72,5.8,8.53,6.95,13.47.89,3.79.05,8,1.68,11.5,3,6.52,13,6.8,18.45,2.13s7.34-12.2,8.44-19.29,1.82-14.56,5.79-20.54c2.46-3.7,6.08-6.67,7.8-10.77,2.4-5.74.62-12.54,2.86-18.34C331.29,241.62,340.05,238.21,346.29,232.81Z" transform="translate(-26.59 -34.82)"/></g><g class="cls-9"><path d="M342.62,264c-2.36.47-2.83,1.85-4.11,3.6-1.67,2.27-4.05,4.55-5.57,6.79-2.58,3.8-.26,9.73-3.64,12.93a27.25,27.25,0,0,0-2.2,1.79,4,4,0,0,0,.81,5.53,5.4,5.4,0,0,0,5.89.1,8.63,8.63,0,0,0,3.62-4.93c.44-1.43.69-3.06,1.82-4,1.94-1.7,4.95-.44,7.5-.8C357.59,283.42,352.93,261.94,342.62,264Z" transform="translate(-26.59 -34.82)"/></g><path class="cls-4" d="M103.86,276.36a17.35,17.35,0,0,1,2.45-.34,21.07,21.07,0,0,1,2.42-.49,3.81,3.81,0,0,1-2.33,1A3.85,3.85,0,0,1,103.86,276.36Z" transform="translate(-26.59 -34.82)"/><path class="cls-4" d="M95.31,271.63c.11-.09.91.68,2,1.54s2,1.5,1.88,1.63a4.53,4.53,0,0,1-2.22-1.23C95.85,272.68,95.2,271.72,95.31,271.63Z" transform="translate(-26.59 -34.82)"/><path class="cls-4" d="M91.47,262.59c.07,0,.17.27.27.71s.18,1.05.35,1.7a11.16,11.16,0,0,1,.54,2.43,4.42,4.42,0,0,1-1-2.31,7.36,7.36,0,0,1-.2-1.78C91.37,262.88,91.4,262.6,91.47,262.59Z" transform="translate(-26.59 -34.82)"/><path class="cls-4" d="M92.91,252.76a7.41,7.41,0,0,1-.46,2.46,8.09,8.09,0,0,1-.76,2.39,5.1,5.1,0,0,1,.25-2.52A5.44,5.44,0,0,1,92.91,252.76Z" transform="translate(-26.59 -34.82)"/><path class="cls-4" d="M97.18,243.74a6.2,6.2,0,0,1-.94,2.32,6.31,6.31,0,0,1-1.41,2.09,6.06,6.06,0,0,1,1-2.33C96.43,244.6,97.06,243.66,97.18,243.74Z" transform="translate(-26.59 -34.82)"/><path class="cls-4" d="M102.49,235.26a6.16,6.16,0,0,1-1.14,2.24c-.75,1.16-1.45,2-1.58,2a6.32,6.32,0,0,1,1.14-2.24C101.66,236.06,102.37,235.18,102.49,235.26Z" transform="translate(-26.59 -34.82)"/><path class="cls-4" d="M108.23,227.08a6.14,6.14,0,0,1-1.25,2.18c-.81,1.12-1.56,2-1.67,1.87a6.23,6.23,0,0,1,1.25-2.18C107.37,227.83,108.12,227,108.23,227.08Z" transform="translate(-26.59 -34.82)"/><path class="cls-4" d="M114.38,219.2a6.36,6.36,0,0,1-1.36,2.11c-.86,1.08-1.65,1.88-1.76,1.79s.49-1,1.36-2.12S114.27,219.1,114.38,219.2Z" transform="translate(-26.59 -34.82)"/><path class="cls-4" d="M120.9,211.62c.11.09-.54,1-1.46,2s-1.73,1.8-1.84,1.71.54-1,1.45-2.05S120.79,211.52,120.9,211.62Z" transform="translate(-26.59 -34.82)"/><path class="cls-4" d="M127.76,204.34c.1.11-.59,1-1.55,2s-1.81,1.72-1.92,1.62.59-1,1.55-2S127.66,204.24,127.76,204.34Z" transform="translate(-26.59 -34.82)"/><path class="cls-4" d="M134.93,197.37c.1.11-.63,1-1.63,1.92s-1.89,1.63-2,1.53.63-1,1.63-1.91S134.83,197.27,134.93,197.37Z" transform="translate(-26.59 -34.82)"/><path class="cls-4" d="M142.37,190.7c.1.11-.67.93-1.7,1.84s-2,1.57-2,1.46.66-.93,1.7-1.85S142.28,190.59,142.37,190.7Z" transform="translate(-26.59 -34.82)"/><path class="cls-4" d="M150.06,184.31c.09.11-.7.91-1.77,1.78a6.34,6.34,0,0,1-2.1,1.38c-.09-.11.7-.91,1.77-1.78A6.15,6.15,0,0,1,150.06,184.31Z" transform="translate(-26.59 -34.82)"/><path class="cls-4" d="M158,178.2c.08.11-.74.88-1.84,1.71a6.26,6.26,0,0,1-2.15,1.31c-.08-.11.74-.88,1.84-1.72S157.89,178.08,158,178.2Z" transform="translate(-26.59 -34.82)"/><path class="cls-4" d="M166.08,172.34c.08.12-.76.86-1.88,1.66a6.49,6.49,0,0,1-2.19,1.24c-.09-.12.76-.86,1.88-1.66A6.29,6.29,0,0,1,166.08,172.34Z" transform="translate(-26.59 -34.82)"/><path class="cls-4" d="M174.36,166.74c.08.12-.78.84-1.93,1.6a6.15,6.15,0,0,1-2.23,1.17c-.08-.12.79-.84,1.94-1.6A6.15,6.15,0,0,1,174.36,166.74Z" transform="translate(-26.59 -34.82)"/><path class="cls-4" d="M182.8,161.37c.07.12-.81.81-2,1.54a6.14,6.14,0,0,1-2.26,1.11c-.07-.12.81-.81,2-1.55A6,6,0,0,1,182.8,161.37Z" transform="translate(-26.59 -34.82)"/><path class="cls-4" d="M191.37,156.21c.07.12-.83.79-2,1.5a6.42,6.42,0,0,1-2.28,1c-.08-.12.83-.79,2-1.5A6.14,6.14,0,0,1,191.37,156.21Z" transform="translate(-26.59 -34.82)"/><path class="cls-4" d="M200.06,151.26a6.4,6.4,0,0,1-2.06,1.45,6.26,6.26,0,0,1-2.3,1c-.07-.13.84-.78,2.05-1.45A6.07,6.07,0,0,1,200.06,151.26Z" transform="translate(-26.59 -34.82)"/><path class="cls-4" d="M208.85,146.49a6.33,6.33,0,0,1-2.08,1.41,6.2,6.2,0,0,1-2.33.95,6.23,6.23,0,0,1,2.08-1.41A6.41,6.41,0,0,1,208.85,146.49Z" transform="translate(-26.59 -34.82)"/><path class="cls-4" d="M217.73,141.9c.07.13-.88.74-2.11,1.37a6.45,6.45,0,0,1-2.34.91c-.07-.13.88-.74,2.11-1.37A6.24,6.24,0,0,1,217.73,141.9Z" transform="translate(-26.59 -34.82)"/><path class="cls-4" d="M226.69,137.47c.07.13-.89.72-2.13,1.33a6,6,0,0,1-2.36.86,6.5,6.5,0,0,1,2.13-1.33A6.1,6.1,0,0,1,226.69,137.47Z" transform="translate(-26.59 -34.82)"/><path class="cls-4" d="M235.73,133.17a6.09,6.09,0,0,1-2.15,1.3,6.22,6.22,0,0,1-2.38.83,12.3,12.3,0,0,1,4.53-2.13Z" transform="translate(-26.59 -34.82)"/><path class="cls-4" d="M244.82,129a12.26,12.26,0,0,1-4.55,2.07,6.21,6.21,0,0,1,2.17-1.27A6.11,6.11,0,0,1,244.82,129Z" transform="translate(-26.59 -34.82)"/><path class="cls-4" d="M254,125a6.17,6.17,0,0,1-2.18,1.24,6.32,6.32,0,0,1-2.4.76c-.06-.14.92-.69,2.19-1.24A6.34,6.34,0,0,1,254,125Z" transform="translate(-26.59 -34.82)"/><path class="cls-4" d="M263.2,121.12a12.36,12.36,0,0,1-4.62,1.91c-.06-.14.93-.67,2.21-1.2A6.43,6.43,0,0,1,263.2,121.12Z" transform="translate(-26.59 -34.82)"/><path class="cls-4" d="M272.51,117.47a6.4,6.4,0,0,1-2.24,1.14,6.15,6.15,0,0,1-2.43.65,6.4,6.4,0,0,1,2.24-1.14A6.19,6.19,0,0,1,272.51,117.47Z" transform="translate(-26.59 -34.82)"/><path class="cls-4" d="M281.91,114.06a12.17,12.17,0,0,1-4.71,1.67,6.2,6.2,0,0,1,2.27-1.08A6.35,6.35,0,0,1,281.91,114.06Z" transform="translate(-26.59 -34.82)"/><path class="cls-4" d="M291.41,111a6.13,6.13,0,0,1-2.3,1,6.57,6.57,0,0,1-2.46.51,6,6,0,0,1,2.3-1A6.15,6.15,0,0,1,291.41,111Z" transform="translate(-26.59 -34.82)"/><path class="cls-4" d="M301,108.17a12.18,12.18,0,0,1-4.82,1.34,6.4,6.4,0,0,1,2.34-.92A6.21,6.21,0,0,1,301,108.17Z" transform="translate(-26.59 -34.82)"/><path class="cls-4" d="M310.73,105.78a12.24,12.24,0,0,1-4.87,1.14,12.35,12.35,0,0,1,4.87-1.14Z" transform="translate(-26.59 -34.82)"/><path class="cls-4" d="M320.53,103.81a12.19,12.19,0,0,1-4.91.93,12.1,12.1,0,0,1,4.91-.93Z" transform="translate(-26.59 -34.82)"/><path class="cls-4" d="M330.41,102.33a6.17,6.17,0,0,1-2.44.59,6.33,6.33,0,0,1-2.51.09,6.08,6.08,0,0,1,2.44-.6A6,6,0,0,1,330.41,102.33Z" transform="translate(-26.59 -34.82)"/><path class="cls-4" d="M340.36,101.36a6,6,0,0,1-2.47.45,6.68,6.68,0,0,1-2.51,0,6.07,6.07,0,0,1,2.47-.48A6.27,6.27,0,0,1,340.36,101.36Z" transform="translate(-26.59 -34.82)"/><path class="cls-4" d="M350.36,101.05a6,6,0,0,1-2.5.29,6.32,6.32,0,0,1-2.5-.22,6,6,0,0,1,2.49-.3A6.46,6.46,0,0,1,350.36,101.05Z" transform="translate(-26.59 -34.82)"/><path class="cls-4" d="M360.34,101.59a6.3,6.3,0,0,1-2.51.06,6,6,0,0,1-2.47-.45,6.35,6.35,0,0,1,2.51-.07A6,6,0,0,1,360.34,101.59Z" transform="translate(-26.59 -34.82)"/><path class="cls-4" d="M370.21,103.17a6.22,6.22,0,0,1-2.51-.21,6.07,6.07,0,0,1-2.4-.73,12.43,12.43,0,0,1,4.91.94Z" transform="translate(-26.59 -34.82)"/><path class="cls-4" d="M379.78,106a6.44,6.44,0,0,1-2.45-.56,6.19,6.19,0,0,1-2.28-1,12.16,12.16,0,0,1,4.73,1.61Z" transform="translate(-26.59 -34.82)"/><path class="cls-4" d="M388.75,110.42a6,6,0,0,1-2.26-1.06c-1.23-.61-2.18-1.22-2.11-1.35a6.26,6.26,0,0,1,2.35.89C387.93,109.62,388.83,110.31,388.75,110.42Z" transform="translate(-26.59 -34.82)"/><path class="cls-4" d="M396,117.25c-.11.09-.89-.71-1.82-1.72s-1.65-1.86-1.55-2,1,.59,1.94,1.62A5.34,5.34,0,0,1,396,117.25Z" transform="translate(-26.59 -34.82)"/><path class="cls-4" d="M401.32,125.69a12.27,12.27,0,0,1-2.43-4.37,6.29,6.29,0,0,1,1.44,2.06A6.15,6.15,0,0,1,401.32,125.69Z" transform="translate(-26.59 -34.82)"/><path class="cls-4" d="M404.7,135.09a7.28,7.28,0,0,1-.89-2.34,7,7,0,0,1-.54-2.46,5.66,5.66,0,0,1,1,2.31A5.4,5.4,0,0,1,404.7,135.09Z" transform="translate(-26.59 -34.82)"/><path class="cls-4" d="M405.64,145a7.56,7.56,0,0,1-.21-2.49,7.35,7.35,0,0,1,.11-2.5,8.83,8.83,0,0,1,.1,5Z" transform="translate(-26.59 -34.82)"/><path class="cls-4" d="M402.9,154.54a8.86,8.86,0,0,1,.87-2.34,8.62,8.62,0,0,1,1.06-2.26,5,5,0,0,1-.58,2.46A4.84,4.84,0,0,1,402.9,154.54Z" transform="translate(-26.59 -34.82)"/><path class="cls-4" d="M136.82,84.87a7.55,7.55,0,0,1-.41,2.47,7.23,7.23,0,0,1-.74,2.39,5.27,5.27,0,0,1,.24-2.51A5.38,5.38,0,0,1,136.82,84.87Z" transform="translate(-26.59 -34.82)"/><path class="cls-4" d="M141.46,76.08a8.36,8.36,0,0,1-1.25,2.16c-.75,1.14-1.35,2.08-1.48,2a5.08,5.08,0,0,1,1-2.29C140.53,76.78,141.35,76,141.46,76.08Z" transform="translate(-26.59 -34.82)"/><path class="cls-4" d="M149.18,69.83a8.27,8.27,0,0,1-2,1.47A8.5,8.5,0,0,1,145,72.55c-.09-.11.71-.93,1.88-1.68A5.1,5.1,0,0,1,149.18,69.83Z" transform="translate(-26.59 -34.82)"/><path class="cls-4" d="M158.74,67.16a7.34,7.34,0,0,1-2.44.57,8.09,8.09,0,0,1-2.48.27,5,5,0,0,1,2.4-.78A5.32,5.32,0,0,1,158.74,67.16Z" transform="translate(-26.59 -34.82)"/><path class="cls-4" d="M168.73,67.29a12.12,12.12,0,0,1-5-.28,6.19,6.19,0,0,1,2.51-.12A5.93,5.93,0,0,1,168.73,67.29Z" transform="translate(-26.59 -34.82)"/><path class="cls-4" d="M178.65,68.55a6.22,6.22,0,0,1-2.51-.1,6.38,6.38,0,0,1-2.44-.61,6,6,0,0,1,2.51.1A6.18,6.18,0,0,1,178.65,68.55Z" transform="translate(-26.59 -34.82)"/><path class="cls-4" d="M188.53,70.1A6.26,6.26,0,0,1,186,70a6.38,6.38,0,0,1-2.43-.63,6,6,0,0,1,2.51.12A6.32,6.32,0,0,1,188.53,70.1Z" transform="translate(-26.59 -34.82)"/><path class="cls-4" d="M198.29,72.25a12.29,12.29,0,0,1-4.86-1.18,12.29,12.29,0,0,1,4.86,1.18Z" transform="translate(-26.59 -34.82)"/><path class="cls-4" d="M207.84,75.21a6.41,6.41,0,0,1-2.45-.54,6,6,0,0,1-2.29-1,6.47,6.47,0,0,1,2.45.54A6.16,6.16,0,0,1,207.84,75.21Z" transform="translate(-26.59 -34.82)"/><path class="cls-4" d="M217.13,78.9A12.44,12.44,0,0,1,212.52,77a6.09,6.09,0,0,1,2.41.72A6.18,6.18,0,0,1,217.13,78.9Z" transform="translate(-26.59 -34.82)"/><path class="cls-4" d="M226.14,83.24a6.14,6.14,0,0,1-2.35-.89c-1.23-.62-2.18-1.23-2.11-1.36a6.19,6.19,0,0,1,2.34.89C225.26,82.5,226.21,83.11,226.14,83.24Z" transform="translate(-26.59 -34.82)"/><path class="cls-4" d="M234.85,88.16a6,6,0,0,1-2.29-1c-1.19-.7-2.1-1.36-2-1.49a6.29,6.29,0,0,1,2.29,1C234,87.37,234.92,88,234.85,88.16Z" transform="translate(-26.59 -34.82)"/><path class="cls-4" d="M243.24,93.61A6.19,6.19,0,0,1,241,92.43c-1.15-.76-2-1.48-1.94-1.6A6.15,6.15,0,0,1,241.31,92C242.46,92.77,243.32,93.49,243.24,93.61Z" transform="translate(-26.59 -34.82)"/><path class="cls-4" d="M251.31,99.51a6.39,6.39,0,0,1-2.15-1.29c-1.11-.83-1.93-1.6-1.85-1.71s1.05.46,2.16,1.29S251.4,99.4,251.31,99.51Z" transform="translate(-26.59 -34.82)"/><path class="cls-4" d="M259.08,105.8c-.1.11-1-.51-2.09-1.39s-1.85-1.69-1.76-1.8a6.13,6.13,0,0,1,2.09,1.4C258.38,104.89,259.17,105.7,259.08,105.8Z" transform="translate(-26.59 -34.82)"/><path class="cls-4" d="M266.56,112.43c-.09.11-1-.55-2-1.48s-1.77-1.76-1.68-1.87,1,.56,2,1.48S266.66,112.33,266.56,112.43Z" transform="translate(-26.59 -34.82)"/><path class="cls-4" d="M273.79,119.34c-.1.1-1-.6-2-1.56s-1.71-1.82-1.61-1.93,1,.6,2,1.56S273.89,119.24,273.79,119.34Z" transform="translate(-26.59 -34.82)"/><path class="cls-4" d="M280.79,126.48c-.1.09-1-.63-1.92-1.62s-1.66-1.88-1.56-2,1,.62,1.93,1.62S280.89,126.38,280.79,126.48Z" transform="translate(-26.59 -34.82)"/><path class="cls-4" d="M287.6,133.8c-.1.1-1-.65-1.88-1.66s-1.61-1.92-1.5-2,.95.65,1.88,1.66S287.71,133.7,287.6,133.8Z" transform="translate(-26.59 -34.82)"/><path class="cls-4" d="M294.26,141.27c-.11.09-.94-.67-1.85-1.71s-1.57-1.95-1.46-2,.93.66,1.85,1.7S294.37,141.17,294.26,141.27Z" transform="translate(-26.59 -34.82)"/><path class="cls-4" d="M300.78,148.85c-.11.09-.92-.68-1.82-1.73s-1.53-2-1.42-2.07.92.68,1.82,1.73S300.89,148.76,300.78,148.85Z" transform="translate(-26.59 -34.82)"/><path class="cls-4" d="M307.18,156.54c-.12.09-.92-.7-1.79-1.76a6.28,6.28,0,0,1-1.39-2.1c.11-.09.91.7,1.79,1.76A6.28,6.28,0,0,1,307.18,156.54Z" transform="translate(-26.59 -34.82)"/><path class="cls-4" d="M313.42,164.35c-.11.09-.9-.72-1.75-1.8a6.22,6.22,0,0,1-1.35-2.12c.11-.09.9.71,1.76,1.8S313.54,164.26,313.42,164.35Z" transform="translate(-26.59 -34.82)"/><path class="cls-4" d="M319.52,172.27c-.11.09-.88-.73-1.72-1.83a6.26,6.26,0,0,1-1.31-2.15c.12-.08.89.74,1.72,1.84A6.08,6.08,0,0,1,319.52,172.27Z" transform="translate(-26.59 -34.82)"/><path class="cls-4" d="M325.46,180.32c-.12.08-.87-.75-1.69-1.87a6.28,6.28,0,0,1-1.26-2.17c.12-.09.87.75,1.68,1.87A6.31,6.31,0,0,1,325.46,180.32Z" transform="translate(-26.59 -34.82)"/><path class="cls-4" d="M331.22,188.49c-.12.08-.85-.77-1.64-1.9a6.43,6.43,0,0,1-1.22-2.2c.12-.08.86.77,1.65,1.9A6.1,6.1,0,0,1,331.22,188.49Z" transform="translate(-26.59 -34.82)"/><path class="cls-4" d="M336.81,196.79c-.12.08-.84-.79-1.61-1.94a6.21,6.21,0,0,1-1.16-2.23c.12-.08.83.79,1.6,1.94A6.34,6.34,0,0,1,336.81,196.79Z" transform="translate(-26.59 -34.82)"/><path class="cls-4" d="M342.19,205.21c-.12.08-.82-.81-1.55-2a6.27,6.27,0,0,1-1.12-2.26c.13-.07.82.81,1.56,2A6.22,6.22,0,0,1,342.19,205.21Z" transform="translate(-26.59 -34.82)"/><path class="cls-4" d="M347.37,213.76c-.12.08-.79-.82-1.5-2a6.19,6.19,0,0,1-1.06-2.28,6.39,6.39,0,0,1,1.51,2A6.21,6.21,0,0,1,347.37,213.76Z" transform="translate(-26.59 -34.82)"/><path class="cls-4" d="M352.33,222.45a6.43,6.43,0,0,1-1.45-2,6.34,6.34,0,0,1-1-2.31c.13-.07.78.85,1.46,2A6.15,6.15,0,0,1,352.33,222.45Z" transform="translate(-26.59 -34.82)"/><path class="cls-4" d="M357.06,231.26c-.13.07-.75-.87-1.4-2.09a6.21,6.21,0,0,1-.93-2.33,6.17,6.17,0,0,1,1.39,2.09A6.08,6.08,0,0,1,357.06,231.26Z" transform="translate(-26.59 -34.82)"/><path class="cls-4" d="M361.54,240.2c-.13.07-.73-.89-1.34-2.13a6.17,6.17,0,0,1-.87-2.36,12.1,12.1,0,0,1,2.21,4.49Z" transform="translate(-26.59 -34.82)"/><path class="cls-4" d="M365.76,249.27a6.21,6.21,0,0,1-1.27-2.17,6.06,6.06,0,0,1-.8-2.38,6.21,6.21,0,0,1,1.27,2.17A6.31,6.31,0,0,1,365.76,249.27Z" transform="translate(-26.59 -34.82)"/><path class="cls-4" d="M369.7,258.46a6.16,6.16,0,0,1-1.21-2.21,6,6,0,0,1-.72-2.4,12.26,12.26,0,0,1,1.93,4.61Z" transform="translate(-26.59 -34.82)"/><path class="cls-4" d="M373.35,267.77a6.13,6.13,0,0,1-1.14-2.25,6.34,6.34,0,0,1-.65-2.42,6.28,6.28,0,0,1,1.14,2.24A6.4,6.4,0,0,1,373.35,267.77Z" transform="translate(-26.59 -34.82)"/><path class="cls-4" d="M376.69,277.19a12.19,12.19,0,0,1-1.63-4.73,6.5,6.5,0,0,1,1.06,2.28A6.42,6.42,0,0,1,376.69,277.19Z" transform="translate(-26.59 -34.82)"/><path class="cls-4" d="M379.71,286.72a12.26,12.26,0,0,1-1.47-4.78,6.19,6.19,0,0,1,1,2.32A6.12,6.12,0,0,1,379.71,286.72Z" transform="translate(-26.59 -34.82)"/><path class="cls-4" d="M382.39,296.35a6.37,6.37,0,0,1-.9-2.35,6.18,6.18,0,0,1-.4-2.48,12.24,12.24,0,0,1,1.3,4.83Z" transform="translate(-26.59 -34.82)"/><path class="cls-4" d="M384.35,306.14a7.64,7.64,0,0,1-.53-2.45,7.56,7.56,0,0,1-.22-2.49,5.31,5.31,0,0,1,.73,2.42A5.14,5.14,0,0,1,384.35,306.14Z" transform="translate(-26.59 -34.82)"/><path class="cls-4" d="M382.86,315.94a8.9,8.9,0,0,1,.56-2.43,8.64,8.64,0,0,1,.75-2.38,7.63,7.63,0,0,1-1.31,4.81Z" transform="translate(-26.59 -34.82)"/><path class="cls-4" d="M376.69,323.51c-.07-.14.92-.67,1.93-1.53a12.43,12.43,0,0,0,1.21-1.22c.31-.33.53-.51.59-.47s-.06.3-.3.69a5.79,5.79,0,0,1-1.16,1.4A4,4,0,0,1,376.69,323.51Z" transform="translate(-26.59 -34.82)"/><path class="cls-4" d="M367,325.57a17.92,17.92,0,0,1,5-.59,5.24,5.24,0,0,1-2.44.63A5.45,5.45,0,0,1,367,325.57Z" transform="translate(-26.59 -34.82)"/><path class="cls-4" d="M357,325.16a12.14,12.14,0,0,1,5,.44,6.12,6.12,0,0,1-2.52,0A6.21,6.21,0,0,1,357,325.16Z" transform="translate(-26.59 -34.82)"/><path class="cls-4" d="M348.72,322.87c.07-.13.81.15,1.73.49s1.66.66,1.62.8-.85,0-1.8-.32S348.64,323,348.72,322.87Z" transform="translate(-26.59 -34.82)"/><path class="cls-4" d="M193.14,308.5a6.19,6.19,0,0,1,2.4.75,6.47,6.47,0,0,1,2.19,1.23,12.05,12.05,0,0,1-4.59-2Z" transform="translate(-26.59 -34.82)"/><path class="cls-4" d="M184.14,304.14a6.2,6.2,0,0,1,2.35.89,6.38,6.38,0,0,1,2.12,1.35,6.14,6.14,0,0,1-2.35-.89C185,304.87,184.07,304.27,184.14,304.14Z" transform="translate(-26.59 -34.82)"/><path class="cls-4" d="M175.4,299.27a6.45,6.45,0,0,1,2.3,1c1.19.69,2.11,1.35,2,1.48a6.32,6.32,0,0,1-2.3-1C176.24,300.06,175.33,299.4,175.4,299.27Z" transform="translate(-26.59 -34.82)"/><path class="cls-4" d="M167,293.92a6.29,6.29,0,0,1,2.23,1.15c1.16.75,2,1.46,1.95,1.59a6.29,6.29,0,0,1-2.23-1.15C167.75,294.75,166.88,294,167,293.92Z" transform="translate(-26.59 -34.82)"/><path class="cls-4" d="M158.82,288.1a6.34,6.34,0,0,1,2.17,1.28c1.11.81,1.94,1.57,1.86,1.69a6.12,6.12,0,0,1-2.17-1.27C159.57,289,158.74,288.22,158.82,288.1Z" transform="translate(-26.59 -34.82)"/><path class="cls-4" d="M151,281.84a6.19,6.19,0,0,1,2.09,1.39c1.06.88,1.85,1.68,1.76,1.8a6.31,6.31,0,0,1-2.09-1.4C151.72,282.75,150.93,282,151,281.84Z" transform="translate(-26.59 -34.82)"/><path class="cls-4" d="M143.59,275.15c.1-.1,1,.57,2,1.51s1.76,1.78,1.66,1.89a6.5,6.5,0,0,1-2-1.51C144.23,276.1,143.49,275.26,143.59,275.15Z" transform="translate(-26.59 -34.82)"/><path class="cls-4" d="M136.54,268.06c.11-.1,1,.62,1.93,1.61s1.65,1.88,1.55,2-1-.62-1.93-1.61S136.44,268.16,136.54,268.06Z" transform="translate(-26.59 -34.82)"/><path class="cls-4" d="M129.9,260.58c.11-.09.93.68,1.83,1.72s1.55,2,1.44,2.07-.93-.68-1.83-1.73S129.79,260.67,129.9,260.58Z" transform="translate(-26.59 -34.82)"/><path class="cls-4" d="M123.7,252.74c.12-.09.89.73,1.73,1.82a6.3,6.3,0,0,1,1.32,2.14c-.12.09-.89-.72-1.73-1.82A6.3,6.3,0,0,1,123.7,252.74Z" transform="translate(-26.59 -34.82)"/><path class="cls-4" d="M118,244.55c.12-.08.84.78,1.62,1.92a6.23,6.23,0,0,1,1.19,2.22c-.12.08-.84-.78-1.62-1.93A6.12,6.12,0,0,1,118,244.55Z" transform="translate(-26.59 -34.82)"/><path class="cls-4" d="M112.7,236.05c.12-.08.8.83,1.51,2a6.39,6.39,0,0,1,1.06,2.28c-.13.07-.8-.83-1.51-2A6.14,6.14,0,0,1,112.7,236.05Z" transform="translate(-26.59 -34.82)"/><path class="cls-4" d="M107.94,227.25a12.29,12.29,0,0,1,2.32,4.43c-.13.07-.75-.87-1.39-2.09A6.22,6.22,0,0,1,107.94,227.25Z" transform="translate(-26.59 -34.82)"/><path class="cls-4" d="M103.69,218.2a12.41,12.41,0,0,1,2.06,4.56,6.21,6.21,0,0,1-1.27-2.17A6,6,0,0,1,103.69,218.2Z" transform="translate(-26.59 -34.82)"/><path class="cls-4" d="M100,208.93a12.3,12.3,0,0,1,1.8,4.66,6.28,6.28,0,0,1-1.14-2.24A6.08,6.08,0,0,1,100,208.93Z" transform="translate(-26.59 -34.82)"/><path class="cls-4" d="M96.74,199.46a12.49,12.49,0,0,1,1.54,4.76,6.15,6.15,0,0,1-1-2.3A6.07,6.07,0,0,1,96.74,199.46Z" transform="translate(-26.59 -34.82)"/><path class="cls-4" d="M94.06,189.82a12,12,0,0,1,1.27,4.84,12,12,0,0,1-1.27-4.84Z" transform="translate(-26.59 -34.82)"/><path class="cls-4" d="M91.92,180.05a6.4,6.4,0,0,1,.76,2.4,6.31,6.31,0,0,1,.24,2.5,6.13,6.13,0,0,1-.75-2.4A6.22,6.22,0,0,1,91.92,180.05Z" transform="translate(-26.59 -34.82)"/><path class="cls-4" d="M90.34,170.18a12,12,0,0,1,.72,4.95,6.28,6.28,0,0,1-.62-2.44A6,6,0,0,1,90.34,170.18Z" transform="translate(-26.59 -34.82)"/><path class="cls-4" d="M89.31,160.23a6.32,6.32,0,0,1,.48,2.47,6.1,6.1,0,0,1,0,2.51,6.21,6.21,0,0,1-.48-2.47A6.31,6.31,0,0,1,89.31,160.23Z" transform="translate(-26.59 -34.82)"/><path class="cls-4" d="M88.85,150.24a6.08,6.08,0,0,1,.34,2.49,6.22,6.22,0,0,1-.18,2.51,6.19,6.19,0,0,1-.34-2.49A6.44,6.44,0,0,1,88.85,150.24Z" transform="translate(-26.59 -34.82)"/><path class="cls-4" d="M89.18,140.26a6,6,0,0,1,0,2.5,6.73,6.73,0,0,1-.33,2.48,5.68,5.68,0,0,1-.19-2.51A6.32,6.32,0,0,1,89.18,140.26Z" transform="translate(-26.59 -34.82)"/><path class="cls-4" d="M91.87,130.67a8.06,8.06,0,0,1-.69,2.4,7.6,7.6,0,0,1-1,2.3,5.21,5.21,0,0,1,.5-2.47A5.09,5.09,0,0,1,91.87,130.67Z" transform="translate(-26.59 -34.82)"/><path class="cls-4" d="M98.6,123.62c.05.14-1,.59-2,1.38s-1.89,1.57-2,1.47.54-1.06,1.7-1.89A3.87,3.87,0,0,1,98.6,123.62Z" transform="translate(-26.59 -34.82)"/><path class="cls-4" d="M108.28,124.68a9.23,9.23,0,0,1-2.4-.67,10.14,10.14,0,0,1-2.35-.83,4.52,4.52,0,0,1,2.51.33A4.84,4.84,0,0,1,108.28,124.68Z" transform="translate(-26.59 -34.82)"/></g><g id="Character"><path class="cls-10" d="M168.2,294.41s-8.33,1.85-13,17.27-23.44,82.05-20.36,97.17,35.61,34,43.63,36.13l13.13-36.44L175.3,397.31,181.77,361Z" transform="translate(-26.59 -34.82)"/><path class="cls-10" d="M327.51,477.88c-.48-1.73-9.15-74-9.15-74L324,287.62l-48.37-17L268,264.81l-48.62.57-5.51,8.2-46,20.95,16.08,100.69.31,66.63-.44,16Z" transform="translate(-26.59 -34.82)"/><path class="cls-10" d="M324,287.62s11.32,1.59,17.93,21.42,22.15,91.91,23.15,96.87,1.58,25.44-15.68,32.52c-16.58,6.8-34.58,0-34.58,0V401.94l7.28-7.93-2.85-12.87Z" transform="translate(-26.59 -34.82)"/><path class="cls-4" d="M175.43,397.29c0,.1-1.61-.7-4.3-1.54a35.26,35.26,0,0,0-4.8-1.13,38.77,38.77,0,0,0-6-.45,39.23,39.23,0,0,0-6,.59,35,35,0,0,0-4.77,1.25c-2.67.9-4.21,1.73-4.26,1.64a5.81,5.81,0,0,1,1.06-.63,12.31,12.31,0,0,1,1.3-.63c.52-.22,1.1-.51,1.78-.73a32.07,32.07,0,0,1,4.8-1.37,32.88,32.88,0,0,1,12.19-.14,31.56,31.56,0,0,1,4.84,1.25c.68.21,1.26.48,1.79.69a13.07,13.07,0,0,1,1.31.6A5.91,5.91,0,0,1,175.43,397.29Z" transform="translate(-26.59 -34.82)"/><path class="cls-4" d="M175.66,397.15c-.08.07-1-1.15-2.92-2.78a29.32,29.32,0,0,0-3.49-2.59,28.95,28.95,0,0,0-9.86-3.89,29.13,29.13,0,0,0-4.32-.5c-2.48-.08-4,.14-4,0a4.18,4.18,0,0,1,1.07-.21,9.8,9.8,0,0,1,1.28-.14c.49,0,1.06-.08,1.69-.05a24.45,24.45,0,0,1,4.4.39,28.41,28.41,0,0,1,5.21,1.47,28.86,28.86,0,0,1,4.81,2.49A25.31,25.31,0,0,1,173,394.1a15,15,0,0,1,1.2,1.2,10.19,10.19,0,0,1,.84,1A5,5,0,0,1,175.66,397.15Z" transform="translate(-26.59 -34.82)"/><path class="cls-4" d="M354.72,396a15.33,15.33,0,0,1-1.73-.73c-1.1-.48-2.7-1.19-4.71-1.93a45.94,45.94,0,0,0-7.24-2.06,33.38,33.38,0,0,0-4.41-.56,18.36,18.36,0,0,0-4.71.28,24.69,24.69,0,0,0-14.12,8.26,16.39,16.39,0,0,0-2.45,4.4,14.42,14.42,0,0,1-.56,1.78,2.54,2.54,0,0,1,.07-.48c.06-.31.14-.77.29-1.36a15.77,15.77,0,0,1,2.36-4.56,24.38,24.38,0,0,1,14.31-8.55,18.58,18.58,0,0,1,4.85-.28,32.43,32.43,0,0,1,4.46.6,42.63,42.63,0,0,1,7.28,2.19c2,.79,3.59,1.54,4.67,2.09.54.27.95.49,1.23.65S354.73,395.94,354.72,396Z" transform="translate(-26.59 -34.82)"/><path class="cls-4" d="M344.47,389.16c0,.09-1.37-.53-3.65-1a20.13,20.13,0,0,0-17,4.26c-1.79,1.49-2.68,2.66-2.75,2.6a3.34,3.34,0,0,1,.58-.85,16.62,16.62,0,0,1,1.93-2,19.26,19.26,0,0,1,17.33-4.34,16.71,16.71,0,0,1,2.66.88A3.2,3.2,0,0,1,344.47,389.16Z" transform="translate(-26.59 -34.82)"/><path class="cls-4" d="M261.09,315.33a2.5,2.5,0,0,1-.4-.26l-1.13-.78a51.59,51.59,0,0,0-4.46-2.66c-2-1.05-4.42-2.18-7.2-3.53a50.77,50.77,0,0,1-8.87-5.3l.35-.06c-2.6,4.37-5.48,9.2-8.51,14.31l-.31.51-.17-.58c-.2-.7-.42-1.46-.63-2.22A227.34,227.34,0,0,0,219,285.38c-1.63-3.66-3-6.58-4-8.6l-1.14-2.32c-.12-.24-.21-.44-.29-.61a.68.68,0,0,1-.08-.21s.05.06.13.19l.33.58c.29.52.71,1.28,1.23,2.28,1,2,2.51,4.89,4.19,8.54a211.17,211.17,0,0,1,11,29.39c.22.76.43,1.52.63,2.22l-.47-.06c3.05-5.09,5.94-9.92,8.56-14.28l.13-.23.21.16a50.93,50.93,0,0,0,8.76,5.32c2.75,1.37,5.2,2.54,7.15,3.63a42.67,42.67,0,0,1,4.41,2.79c.49.35.85.65,1.1.84A2,2,0,0,1,261.09,315.33Z" transform="translate(-26.59 -34.82)"/><path class="cls-4" d="M278.71,272.19a4.68,4.68,0,0,1,.23.81q.19.87.54,2.34c.46,2.08,1.11,5,1.9,8.61s1.75,8,2.73,12.79a52.31,52.31,0,0,1,1,7.69,21.3,21.3,0,0,1-1.11,8.26c-.16.5-.4,1-.59,1.43l-.19.47-.27-.45a111.78,111.78,0,0,1-8-16.94l.39.06-9.08,12.12-2.57,3.38-.7.88c-.16.2-.24.3-.25.29a1.14,1.14,0,0,1,.2-.33l.63-.92c.61-.84,1.44-2,2.48-3.46L275,297l.25-.34.14.39a115.8,115.8,0,0,0,8.07,16.83l-.46,0c.19-.45.41-.9.57-1.38a20.91,20.91,0,0,0,1.09-8.06,53.54,53.54,0,0,0-1-7.62c-1-4.81-1.87-9.14-2.62-12.8l-1.74-8.65c-.19-1-.33-1.77-.44-2.36A6.78,6.78,0,0,1,278.71,272.19Z" transform="translate(-26.59 -34.82)"/><path class="cls-11" d="M348.72,334.05s-.18,0-.52,0l-1.51,0-5.8-.11c-5-.1-12.33-.24-21.35-.34-18-.24-42.92-.32-70.42-.38s-52.42-.2-70.45-.54c-9-.14-16.3-.34-21.34-.5l-5.8-.21L150,331.9a4,4,0,0,1-.51,0H150l1.51,0,5.8.11c5,.1,12.33.23,21.35.34,18,.23,42.92.32,70.44.38s52.4.2,70.43.53c9,.15,16.31.34,21.34.51l5.81.21,1.5.06Z" transform="translate(-26.59 -34.82)"/><path class="cls-11" d="M178.61,400a9.57,9.57,0,0,1-1.34.86c-.44.26-1,.58-1.57,1s-1.31.83-2,1.38a53.71,53.71,0,0,0-5,4,54.2,54.2,0,0,0-10,12,52.9,52.9,0,0,0-3,5.63c-.41.81-.71,1.58-1,2.24s-.52,1.25-.69,1.73a9.53,9.53,0,0,1-.62,1.47,10,10,0,0,1,.42-1.54c.15-.49.34-1.09.61-1.76s.54-1.47.93-2.3a51.83,51.83,0,0,1,2.95-5.72,55.94,55.94,0,0,1,4.58-6.43,57.18,57.18,0,0,1,5.51-5.65,52.26,52.26,0,0,1,5.11-3.92c.75-.53,1.47-.94,2.09-1.32s1.17-.68,1.63-.91A9.9,9.9,0,0,1,178.61,400Z" transform="translate(-26.59 -34.82)"/><path class="cls-11" d="M321.89,440.77c0,.15-30.54-.08-68.19-.51s-68.2-.89-68.2-1,30.53.08,68.2.51S321.89,440.63,321.89,440.77Z" transform="translate(-26.59 -34.82)"/><path class="cls-11" d="M361.64,424c-.05,0-.11-.82-.32-2.28a31,31,0,0,0-1.53-6.05,31.54,31.54,0,0,0-4.38-8.12A29.25,29.25,0,0,0,336.59,396a31.21,31.21,0,0,0-9.22-.23,30.84,30.84,0,0,0-6.09,1.37c-1.4.48-2.16.8-2.18.75a2.69,2.69,0,0,1,.53-.27,16.25,16.25,0,0,1,1.58-.67,28.26,28.26,0,0,1,6.11-1.54,29.64,29.64,0,0,1,28.47,11.86,30.81,30.81,0,0,1,4.34,8.27,27.68,27.68,0,0,1,1.39,6.15c.11.74.09,1.32.12,1.71A2.3,2.3,0,0,1,361.64,424Z" transform="translate(-26.59 -34.82)"/><path class="cls-11" d="M231.23,285.35a35.42,35.42,0,0,1-3.58,5,36.09,36.09,0,0,1-4,4.65,35.42,35.42,0,0,1,3.58-5A37,37,0,0,1,231.23,285.35Z" transform="translate(-26.59 -34.82)"/><path class="cls-11" d="M271.46,284.71a13.82,13.82,0,0,1,2.24-1.7l.12-.09.13.11c.91.82,2.07,1.88,3.32,3.05,1.47,1.39,2.78,2.66,3.71,3.6a8.66,8.66,0,0,1,1.43,1.61,9.44,9.44,0,0,1-1.68-1.34c-1-.87-2.35-2.1-3.82-3.49-1.24-1.17-2.37-2.26-3.24-3.13l.25,0A12.58,12.58,0,0,1,271.46,284.71Z" transform="translate(-26.59 -34.82)"/><path class="cls-4" d="M174.91,328.19a3.66,3.66,0,0,1,.13.6c.07.46.17,1,.28,1.75.23,1.59.55,3.77,1,6.44l2.93,21.28c2.12,16,3.62,27.27,4,30a.07.07,0,0,1,0,.05s0,0,0,0a.14.14,0,0,1,0-.07,2.94,2.94,0,0,1-.11-.45c-.09-.39-.2-1-.33-1.74-.26-1.52-.6-3.72-1-6.43-.81-5.44-1.87-13-3-21.28s-2.11-15.84-2.79-21.3c-.32-2.68-.59-4.87-.78-6.46-.07-.72-.14-1.3-.18-1.76A2.42,2.42,0,0,1,174.91,328.19Z" transform="translate(-26.59 -34.82)"/><path class="cls-4" d="M275.1,477.6a2,2,0,0,1-.05-.42c0-.3-.06-.7-.1-1.22-.07-1.1-.17-2.68-.3-4.69-.25-4.11-.62-10-1.08-17.28-.94-14.58-2.38-34.72-4.31-56.94s-4-42.31-5.62-56.83c-.81-7.25-1.47-13.12-1.92-17.2-.23-2-.4-3.59-.52-4.68-.05-.52-.09-.92-.12-1.22a2.19,2.19,0,0,1,0-.42,2,2,0,0,1,.08.41c0,.3.1.7.17,1.22.15,1.09.35,2.66.62,4.66.52,4.05,1.24,9.93,2.09,17.18,1.69,14.52,3.82,34.61,5.77,56.84s3.31,42.36,4.16,57c.42,7.29.74,13.2.92,17.28.08,2,.15,3.6.2,4.71,0,.52,0,.92,0,1.22S275.1,477.6,275.1,477.6Z" transform="translate(-26.59 -34.82)"/><path class="cls-4" d="M320.25,317.35c.14,0,0,17.75-.22,39.64s-.6,39.65-.75,39.64,0-17.75.23-39.64S320.1,317.34,320.25,317.35Z" transform="translate(-26.59 -34.82)"/><path class="cls-12" d="M219.43,269.34l18.48,25.09,23.86,19.17,10.76-18.73-1.84-17.5-1.53-14.67s19.18-4.8,17.65-24.28c-.74-9.41-3.84-28.65-6.84-46a36.41,36.41,0,0,0-39.18-30.06l-1.87.17c-20.14,3-28.82,21.81-25.24,41.86l5.75,65" transform="translate(-26.59 -34.82)"/><path class="cls-13" d="M269.18,262.68s-12.21,2.12-26-4.9c0,0,7.27,13.46,26.52,9.94Z" transform="translate(-26.59 -34.82)"/><path class="cls-4" d="M274.8,208.3a2.79,2.79,0,0,1-2.42,3,2.66,2.66,0,0,1-3.09-2.25,2.78,2.78,0,0,1,2.42-3A2.66,2.66,0,0,1,274.8,208.3Z" transform="translate(-26.59 -34.82)"/><path class="cls-4" d="M276.85,201.23c-.31.39-2.56-1-5.55-.69s-5,2-5.4,1.64c-.17-.15.12-.84,1-1.62a7.64,7.64,0,0,1,4.28-1.76,7.36,7.36,0,0,1,4.46,1C276.63,200.43,277,201.05,276.85,201.23Z" transform="translate(-26.59 -34.82)"/><path class="cls-4" d="M246.19,211a2.81,2.81,0,0,1-2.43,3.05,2.67,2.67,0,0,1-3.09-2.25,2.79,2.79,0,0,1,2.42-3.05A2.69,2.69,0,0,1,246.19,211Z" transform="translate(-26.59 -34.82)"/><path class="cls-4" d="M247,203.1c-.27.42-2.65-.69-5.59-.09s-4.8,2.51-5.2,2.22c-.18-.13,0-.84.83-1.72a7.66,7.66,0,0,1,4.07-2.21,7.37,7.37,0,0,1,4.54.51C246.67,202.32,247.11,202.91,247,203.1Z" transform="translate(-26.59 -34.82)"/><path class="cls-4" d="M260.18,226.7c0-.17,1.8-.66,4.78-1.32.75-.15,1.46-.37,1.54-.9a3.91,3.91,0,0,0-.71-2.22l-2.79-5.6c-3.89-8-6.78-14.6-6.45-14.75s3.73,6.2,7.62,14.19l2.7,5.65a4.51,4.51,0,0,1,.67,3,1.92,1.92,0,0,1-1.16,1.23,4.59,4.59,0,0,1-1.28.3C262.09,226.68,260.21,226.87,260.18,226.7Z" transform="translate(-26.59 -34.82)"/><path class="cls-4" d="M246.21,190.16c-.22.84-3.24.73-6.71,1.47s-6.22,2-6.75,1.27c-.24-.33.19-1.14,1.26-2a11.94,11.94,0,0,1,10.26-2.09C245.6,189.19,246.31,189.77,246.21,190.16Z" transform="translate(-26.59 -34.82)"/><path class="cls-4" d="M275.66,195.41c-.46.73-2.59.21-5.07.4s-4.53.88-5.08.21c-.24-.33,0-1,.89-1.76a7.34,7.34,0,0,1,8.17-.49C275.51,194.39,275.86,195.06,275.66,195.41Z" transform="translate(-26.59 -34.82)"/><path class="cls-12" d="M216.58,218.62c-.34-.11-13.73-2.74-12.09,10.53s14.61,8.88,14.59,8.5S216.58,218.62,216.58,218.62Z" transform="translate(-26.59 -34.82)"/><path class="cls-13" d="M214.41,233.12c-.07,0-.21.19-.58.42a2.35,2.35,0,0,1-1.72.25c-1.47-.34-2.92-2.42-3.28-4.81a7.69,7.69,0,0,1,.24-3.38,2.68,2.68,0,0,1,1.52-2,1.19,1.19,0,0,1,1.44.46c.22.35.17.63.24.64s.26-.25.09-.79a1.54,1.54,0,0,0-.63-.77,1.77,1.77,0,0,0-1.32-.18,3.3,3.3,0,0,0-2.16,2.36,7.9,7.9,0,0,0-.34,3.79c.41,2.67,2.09,5,4.07,5.32a2.48,2.48,0,0,0,2.07-.62C214.42,233.45,214.46,233.14,214.41,233.12Z" transform="translate(-26.59 -34.82)"/><path class="cls-4" d="M280.06,169.49c-.82-2.53-2.95-4.82-5.6-5a6.08,6.08,0,0,0-10.1-6.19c-.21-4.07-5.49-6.88-9-4.78a5.26,5.26,0,0,0-10.07-2c-3.22-4.52-11.07-4.45-14.2.13a11.6,11.6,0,0,0-13.46,7.47,11.06,11.06,0,0,0-9,8.42,8.07,8.07,0,0,0-4.8,13.1c-3.21,1.93-3.43,7.32-.37,9.49a5.86,5.86,0,0,0,1.11,10.54c-1.93.42-2.48,3.08-1.73,4.91s2.31,3.22,3.25,5c.78,1.44,1.11,3.08,1.79,4.56a10.63,10.63,0,0,0,6.84,5.7l-.31.43c-.19,1.73,2.29,2.69,3.83,1.87s2.31-2.56,3.1-4.12a18.71,18.71,0,0,0,2.31-5.51c.31-2-.45-4.3-2.3-5.06,2.23-1,3.5-3.45,3.72-5.87a20.51,20.51,0,0,0-1.07-7.17q-1.42-5.19-2.84-10.37a13.37,13.37,0,0,0,10.8-8.58,7.64,7.64,0,0,0,10.79-3.71,10,10,0,0,0,12.62,5c-.28,2.8,4.89,4.91,7.67,5.39s6-1.74,6-1.74,4.91,2.33,7.37,1.09,5.49-4.74,3.61-7.23A12.38,12.38,0,0,0,280.06,169.49Z" transform="translate(-26.59 -34.82)"/><path class="cls-10" d="M202.81,190.21c.12-.05.29.9,1.47,1.6a2.6,2.6,0,0,0,2.22.2,2.7,2.7,0,0,0,1.67-2.14l.09-.81.67.49a3.47,3.47,0,0,0,5.45-3.47l-.16-.78.75.24a3.48,3.48,0,0,0,4.19-1.85,9,9,0,0,0,.5-2c.06,0,.48.81,0,2.22a4,4,0,0,1-1.64,2,4.26,4.26,0,0,1-3.34.48l.58-.54a4.36,4.36,0,0,1-6.92,4.41l.75-.32a3.49,3.49,0,0,1-2.35,2.78,3.14,3.14,0,0,1-2.79-.46C202.66,191.29,202.73,190.17,202.81,190.21Z" transform="translate(-26.59 -34.82)"/><path class="cls-10" d="M202,203.14a7.85,7.85,0,0,0,1.47.43,3.22,3.22,0,0,0,3.22-1.72l.22-.49.4.36a3.58,3.58,0,0,0,3.48.64A3.47,3.47,0,0,0,213,199l0-.88.79.42a2,2,0,0,0,.63.22,2.46,2.46,0,0,0,2.61-1.14,2.58,2.58,0,0,0-.13-2.66l-.57-.78.95.06a4.21,4.21,0,0,0,3-1,4.27,4.27,0,0,0,1.32-2.17,9.46,9.46,0,0,0,.09-2.35c.05,0,.64.8.43,2.46a4.61,4.61,0,0,1-1.33,2.61,5,5,0,0,1-3.55,1.37l.38-.72a3.47,3.47,0,0,1,.27,3.67,3.42,3.42,0,0,1-3.66,1.66,3.54,3.54,0,0,1-.93-.33L214,199a4.38,4.38,0,0,1-2.91,4.27,4.32,4.32,0,0,1-4.31-1l.62-.12a3.43,3.43,0,0,1-2,1.72,3.72,3.72,0,0,1-2,.12C202.27,203.74,201.91,203.16,202,203.14Z" transform="translate(-26.59 -34.82)"/><path class="cls-10" d="M253.6,153.32a5.17,5.17,0,0,0-1.58-.73,2.86,2.86,0,0,0-1.93.29,2.91,2.91,0,0,0-1.45,2.07l-.11.78-.46-.65a4.89,4.89,0,0,0-4.3-1.93,4.72,4.72,0,0,0-4.09,3.74l-.18.9-.62-.68a6,6,0,0,0-4.8-1.79,5.69,5.69,0,0,0-4.48,3.07,5.55,5.55,0,0,0-.64,2.22l-.05.55-.53-.08a5.7,5.7,0,0,0-6.08,3.54,5.83,5.83,0,0,0,1.5,6.13l.56.5-.72.2a6.18,6.18,0,0,0-4.55,6.53,9.46,9.46,0,0,0,1,3.16s-.26-.19-.58-.69a6.36,6.36,0,0,1-.87-2.42,6.52,6.52,0,0,1,.68-4,6.93,6.93,0,0,1,4.12-3.38l-.16.7a6.46,6.46,0,0,1,5.26-11.27l-.57.46a6.74,6.74,0,0,1,6-6.21,6.77,6.77,0,0,1,5.56,2.15l-.79.22a5.43,5.43,0,0,1,9.82-2l-.57.13a3.4,3.4,0,0,1,1.84-2.41,3.12,3.12,0,0,1,3.45.5C253.54,153.16,253.62,153.31,253.6,153.32Z" transform="translate(-26.59 -34.82)"/><path class="cls-4" d="M285.61,227.81a4.19,4.19,0,0,0-6,2.41,5.21,5.21,0,0,0-9.12,2.17c-1-2.78-5.56-3.26-7.17-.77a3.35,3.35,0,0,0-3.71-1.22,3.29,3.29,0,0,0-5.55-2.59,5.37,5.37,0,0,0-8-.83,3,3,0,0,0-5.72.57,4.85,4.85,0,0,0-5.66-1.11,3.22,3.22,0,0,0-4.19-2.7c.36-1.68-2.1-2.27-3.41-3.37-.58-.5-1-1.19-1.61-1.64s-1.66-.48-2,.2a2.76,2.76,0,0,0-5.29-1.47,8.47,8.47,0,0,0-.31,2.37c-.21,2.58-1.45,5.7.51,7.39.35.29.79.53.95.95.29.73-.39,1.48-.4,2.26s.87,1.54,1.29,2.35c.62,1.18.2,2.62.19,4s.85,3,2.18,2.78a4.69,4.69,0,0,0,1.83,5.72,4.57,4.57,0,0,0,3,5.84,2.37,2.37,0,0,0,0,3.11,6.88,6.88,0,0,0,2.86,1.8,2,2,0,0,0-.3,2.77,4.47,4.47,0,0,0,2.71,1.43,2,2,0,0,1,1.2.55c.52.66-.06,1.64.12,2.46.28,1.26,2.09,1.52,2.7,2.65s0,2.51.89,3.25c.58.47,1.43.33,2.14.53,1.28.36,1.92,1.73,2.78,2.74,1.63,1.91,4.22,2.62,6.68,3.08,1.25.24,2.51.43,3.78.59,2.52.31,5.06.45,7.59.6,1.26.07,2.8,0,3.39-1.11a4.36,4.36,0,0,0,6.87-1.25c2.29.46,4.57-.63,6.65-1.69l2.15-1.1c2.14-1.1,4.52-2.48,5-4.83a4.85,4.85,0,0,0,3.07-6.85c1,.23,1.93-.85,2-1.89a9.37,9.37,0,0,0-.58-3.06c-1-4.13.93-8.52.1-12.69-.59-2.92-2.52-5.72-1.86-8.62a5.17,5.17,0,0,0,.31-1.8c-.08-.61-.68-1.21-1.26-1a2.73,2.73,0,0,0-3-3.44" transform="translate(-26.59 -34.82)"/><path class="cls-11" d="M251.57,229.57c.48-.08.78,3.17,3.77,5.22s6.41,1.38,6.48,1.83c.06.2-.72.7-2.17.87a8.13,8.13,0,0,1-5.39-1.34,7.13,7.13,0,0,1-3-4.4C251.06,230.4,251.35,229.57,251.57,229.57Z" transform="translate(-26.59 -34.82)"/><path class="cls-10" d="M234,253.65a29.48,29.48,0,0,1-1.68-6.82,29,29,0,0,1,.53-7,6.28,6.28,0,0,0-.7,2,16.44,16.44,0,0,0-.35,5.06,16.65,16.65,0,0,0,1.18,4.93A6.2,6.2,0,0,0,234,253.65Z" transform="translate(-26.59 -34.82)"/><path class="cls-10" d="M230.62,249.13a14.94,14.94,0,0,1-.84-1.43,9.69,9.69,0,0,1-.56-3.91c0-3.17.76-5.66.61-5.71a13.15,13.15,0,0,0-1.14,5.7,8.38,8.38,0,0,0,.76,4.08C230,248.83,230.59,249.18,230.62,249.13Z" transform="translate(-26.59 -34.82)"/><path class="cls-10" d="M227.18,246.64A15.37,15.37,0,0,1,226,235a4.1,4.1,0,0,0-.72,1.66,11.74,11.74,0,0,0-.35,4.35,11.91,11.91,0,0,0,1.24,4.19A4.42,4.42,0,0,0,227.18,246.64Z" transform="translate(-26.59 -34.82)"/><path class="cls-10" d="M282.65,263.2c0,.06.87-.22,1.78-1.3a10.64,10.64,0,0,0,2-4.9,16.33,16.33,0,0,0,.12-5.31,6.28,6.28,0,0,0-.56-2.12,27,27,0,0,1-.08,7.33,11.86,11.86,0,0,1-1.8,4.78A12,12,0,0,1,282.65,263.2Z" transform="translate(-26.59 -34.82)"/><path class="cls-10" d="M279.76,262.67a4,4,0,0,0,1.44-1.15,10.45,10.45,0,0,0,2.67-8.25,4.26,4.26,0,0,0-.49-1.77,12.74,12.74,0,0,0,.12,1.8,12,12,0,0,1-2.58,8A14.11,14.11,0,0,0,279.76,262.67Z" transform="translate(-26.59 -34.82)"/><path class="cls-10" d="M266.09,237.09a3.18,3.18,0,0,0,.1-2.53c-.37-1.42-1.26-2.25-1.35-2.15s.51,1,.84,2.28S265.94,237.07,266.09,237.09Z" transform="translate(-26.59 -34.82)"/><path class="cls-10" d="M262.67,236.5c.09.1.88-.7,1-2a2.43,2.43,0,0,0-.6-2.17c-.14.07.2,1,.08,2.12S262.54,236.41,262.67,236.5Z" transform="translate(-26.59 -34.82)"/><path class="cls-10" d="M259.22,235.67c.1.09.82-.65,1.07-1.86s-.1-2.17-.23-2.12-.05.94-.29,2S259.09,235.58,259.22,235.67Z" transform="translate(-26.59 -34.82)"/><path class="cls-10" d="M256.62,233.06c.13.06.51-.43.71-1.15s.13-1.34,0-1.35-.31.54-.5,1.2S256.49,233,256.62,233.06Z" transform="translate(-26.59 -34.82)"/><path class="cls-10" d="M254.45,232.09c.14.06.55-.62,1.26-1.25s1.42-1,1.38-1.12-.93,0-1.73.73S254.31,232,254.45,232.09Z" transform="translate(-26.59 -34.82)"/><path class="cls-10" d="M251.17,229.87c.11.11,1-.67,2.26-1.09s2.44-.32,2.47-.47a3.2,3.2,0,0,0-2.63,0A3.25,3.25,0,0,0,251.17,229.87Z" transform="translate(-26.59 -34.82)"/><path class="cls-10" d="M265.82,267.07a6.42,6.42,0,0,0,1.3-1.87,14.5,14.5,0,0,0,1-10.76,6.22,6.22,0,0,0-.93-2.08c-.08,0,.25.84.57,2.18a16.49,16.49,0,0,1-1,10.49C266.22,266.29,265.75,267,265.82,267.07Z" transform="translate(-26.59 -34.82)"/><path class="cls-10" d="M262.38,267.07a9.69,9.69,0,0,0,2.55-5,9.5,9.5,0,0,0-.2-5.64,24,24,0,0,1-.32,5.53A25.08,25.08,0,0,1,262.38,267.07Z" transform="translate(-26.59 -34.82)"/><path class="cls-10" d="M256.29,266.26c0,.06.58-.17,1.34-.75a9.16,9.16,0,0,0,2.37-2.85,9,9,0,0,0,1.07-3.55,3.22,3.22,0,0,0-.11-1.54,15.77,15.77,0,0,1-1.42,4.84A16,16,0,0,1,256.29,266.26Z" transform="translate(-26.59 -34.82)"/><path class="cls-5" d="M260.91,398.46s-26.85-2-41.55,1.64l-.67,5.57s-11.36-2.57-11.52,7.45,0,21.88,13.19,24.39v6.19S227,448,241,447.14s21.29-2.84,21.29-2.84Zm-40.45,31.48a3.63,3.63,0,0,1-.66,2.24,2.42,2.42,0,0,1-2.46.56,5.7,5.7,0,0,1-2.21-1.43A18.56,18.56,0,0,1,209.42,417a10.06,10.06,0,0,1,1.7-5.46,5.28,5.28,0,0,1,5-2.2c1.89.38,3.82,1.21,3.88,4l.13,1A97.57,97.57,0,0,1,220.46,429.94Z" transform="translate(-26.59 -34.82)"/><path class="cls-12" d="M183.7,412a14.88,14.88,0,0,0-5.59,8c-1.17,5-3,17.37.83,20s23.89,14.19,28.06,14.69,16.7-.33,18.21-1.17,2.42-3.53,2.42-3.53c1.29-.46,4.18-3.14,3.76-3.48s-3.18-8.19-7-10-14.2-7.18-15-9,11.3-.69,11.3-.69a104.92,104.92,0,0,0-.3-10.5s-12.84-2.68-13.17-3.18,3.67-6.51,5.18-7.35,6.34-.1,6.34-.1l.67-5.57a41.26,41.26,0,0,0-4.83-2.34,5.29,5.29,0,0,0-4.64.18Z" transform="translate(-26.59 -34.82)"/><path class="cls-13" d="M230,443.64a5.68,5.68,0,0,1-1.19,0l-3.23-.27-4.77-.48-2.82-.3a14.75,14.75,0,0,1-3-.64c-.51-.15-1-.3-1.49-.49l-1.38-.57-2.63-1.09L205,437.89l-3-1.3a6.16,6.16,0,0,1-1.06-.54,4.66,4.66,0,0,1,1.14.35l3,1.15,4.46,1.77,2.63,1.05,1.39.57c.46.17,1,.33,1.45.47A14.43,14.43,0,0,0,218,442l2.82.33,4.77.59,3.21.44A5.13,5.13,0,0,1,230,443.64Z" transform="translate(-26.59 -34.82)"/><path class="cls-13" d="M227.63,450a6,6,0,0,1-1.17.23c-.75.12-1.85.27-3.22.4a36,36,0,0,1-10.71-.38,30.19,30.19,0,0,1-10-3.79,19.47,19.47,0,0,1-2.61-2,4.86,4.86,0,0,1-.82-.86c.06-.08,1.28,1.12,3.62,2.51a32.27,32.27,0,0,0,9.94,3.59,40,40,0,0,0,10.58.54l3.23-.24A5.15,5.15,0,0,1,227.63,450Z" transform="translate(-26.59 -34.82)"/><path class="cls-13" d="M194.91,436.27c0,.08-.29.17-.69.42a3.08,3.08,0,0,0-1.17,1.34,2.92,2.92,0,0,0-.13,1.77c.1.46.24.74.18.78s-.32-.17-.53-.67a2.72,2.72,0,0,1,0-2.09,2.75,2.75,0,0,1,1.49-1.46C194.57,436.17,194.91,436.21,194.91,436.27Z" transform="translate(-26.59 -34.82)"/><path class="cls-13" d="M197.62,427.47c0,.07-.33.23-.81.58a4.39,4.39,0,0,0-1.83,4c0,.59.16,1,.08,1s-.3-.3-.45-.94a4,4,0,0,1,.28-2.51,3.93,3.93,0,0,1,1.72-1.84C197.19,427.43,197.61,427.41,197.62,427.47Z" transform="translate(-26.59 -34.82)"/><path class="cls-13" d="M201.88,414.65c0,.07-.39.21-1,.56a5.32,5.32,0,0,0-1.84,1.81,5.48,5.48,0,0,0-.73,2.49c0,.68,0,1.11,0,1.13s-.27-.39-.33-1.12a4.65,4.65,0,0,1,2.77-4.64C201.41,414.59,201.87,414.58,201.88,414.65Z" transform="translate(-26.59 -34.82)"/><path class="cls-13" d="M206.89,415.53a19.68,19.68,0,0,0-1.4-3.76c-1.09-1.94-2.19-3.42-2.05-3.52a10.91,10.91,0,0,1,2.51,3.27,8.47,8.47,0,0,1,1,2.79C207,415.06,207,415.53,206.89,415.53Z" transform="translate(-26.59 -34.82)"/><path class="cls-11" d="M261,417s-.1-.19-.36-.51a2.77,2.77,0,0,0-1.5-.89,3.74,3.74,0,0,0-2.69.37,6.63,6.63,0,0,0-2.42,2.76c-.67,1.23-1.13,2.71-2,4.2a7.37,7.37,0,0,1-1.63,2.07,6.56,6.56,0,0,1-2.47,1.33,6.46,6.46,0,0,1-5.78-1,6.77,6.77,0,0,1-2.67-5.69c0-1.11.25-2.16.32-3.19a4.52,4.52,0,0,0-.5-2.84,3.6,3.6,0,0,0-2.25-1.54,9,9,0,0,0-2.78-.24c-.92,0-1.84.1-2.75,0a6.1,6.1,0,0,1-2.55-.7,6.71,6.71,0,0,1-3-3.59,8,8,0,0,1-.4-3.83,10.74,10.74,0,0,1,.78-2.8,11.42,11.42,0,0,1,.84-1.62,2.57,2.57,0,0,1,.37-.53s-.46.76-1,2.23a10.92,10.92,0,0,0-.68,2.75,7.9,7.9,0,0,0,.45,3.67,6.36,6.36,0,0,0,2.85,3.33c1.42.8,3.23.67,5.08.57a9.82,9.82,0,0,1,2.93.24,4.13,4.13,0,0,1,2.56,1.75,5.09,5.09,0,0,1,.58,3.15c-.07,1.07-.28,2.12-.32,3.17a6.22,6.22,0,0,0,2.46,5.26,6,6,0,0,0,5.34.95,6.26,6.26,0,0,0,3.85-3.16c.81-1.42,1.3-2.9,2-4.15a6.82,6.82,0,0,1,2.6-2.84,3.83,3.83,0,0,1,2.89-.31,2.77,2.77,0,0,1,1.53,1A1.83,1.83,0,0,1,261,417Z" transform="translate(-26.59 -34.82)"/><path class="cls-11" d="M249.38,446.26s.21-.52.37-1.51a6.38,6.38,0,0,0-.73-4.05,6.13,6.13,0,0,0-5-3.05,25.75,25.75,0,0,0-3.7.44,5,5,0,0,1-4-1,3.59,3.59,0,0,1-1-1.93c-.14-.68-.19-1.35-.28-2a3.51,3.51,0,0,0-1.75-2.9,5,5,0,0,0-3.15-.54,6.46,6.46,0,0,0-2.65,1,7.61,7.61,0,0,0-2.69,3.17c-.41.91-.48,1.48-.53,1.47a1.08,1.08,0,0,1,0-.41,5.7,5.7,0,0,1,.31-1.14,7.41,7.41,0,0,1,2.67-3.39,6.7,6.7,0,0,1,2.8-1.17,5.54,5.54,0,0,1,3.45.55,3.74,3.74,0,0,1,1.41,1.33,5,5,0,0,1,.61,1.91c.19,1.29.17,2.73,1.12,3.61a4.54,4.54,0,0,0,3.6.85,24.15,24.15,0,0,1,3.77-.41,6.47,6.47,0,0,1,5.34,3.35,6.35,6.35,0,0,1,.61,4.26,6.6,6.6,0,0,1-.36,1.13A1.23,1.23,0,0,1,249.38,446.26Z" transform="translate(-26.59 -34.82)"/><path class="cls-11" d="M259.13,444.64s-.25.21-.82.21a2.88,2.88,0,0,1-2.07-1,5.38,5.38,0,0,1-1.18-3.2,21.18,21.18,0,0,1,0-4.14,10.76,10.76,0,0,1,1.19-4,7.61,7.61,0,0,1,2.26-2.55,5.55,5.55,0,0,1,2.1-.92,2.09,2.09,0,0,1,.84-.05,8,8,0,0,0-2.72,1.27,7.54,7.54,0,0,0-2.06,2.48,10.66,10.66,0,0,0-1.09,3.82,22.9,22.9,0,0,0-.05,4,5.35,5.35,0,0,0,1,3,2.86,2.86,0,0,0,1.82,1A6.35,6.35,0,0,0,259.13,444.64Z" transform="translate(-26.59 -34.82)"/><path class="cls-11" d="M259.88,399.09a2.13,2.13,0,0,1,0,.87,6.57,6.57,0,0,1-.76,2.25,7,7,0,0,1-2.42,2.58,7.14,7.14,0,0,1-8.22-.57,7.14,7.14,0,0,1-2-2.89A6.58,6.58,0,0,1,246,399a2,2,0,0,1,.11-.86,10.43,10.43,0,0,0,.67,3.05,7.17,7.17,0,0,0,2,2.66,6.82,6.82,0,0,0,7.67.53,7.1,7.1,0,0,0,2.35-2.35A10.22,10.22,0,0,0,259.88,399.09Z" transform="translate(-26.59 -34.82)"/><path class="cls-4" d="M320.86,406.52l.51,3.91-3.73,4.6-11.45,16.32-28.31-3.64,5.76-12.18,3.79-6.64a5.41,5.41,0,0,1,4.76-2.74" transform="translate(-26.59 -34.82)"/><path class="cls-12" d="M313.59,406.38s7.1-6.31,11.86-4.78,18.36,0,18,5.77-2.55,8.84-6.8,8.16a17.87,17.87,0,0,1-6.15-1.87s1.49.34,0,5.44-6.94,14.69-9,16.95-2.89,2.5-3.91,2.38-5.09,3.78-6.62,3.95-.85,0-.85,0a9.84,9.84,0,0,1-11.56,1.26c-6.63-3.64-12.41-5.17-12.92-6s-8-8.07-9.34-10.15-5.1-11.09-4.93-11.94,4.08-4,7.14-.88c0,0,1.7-1.5,5.09.88s13.43,5.54,13.43,5.54-1.53-1.83-1.36-3.43,1.53-4.32,4.08-4S318,415.53,318,415.53l3.4-5.1-.51-3.91Z" transform="translate(-26.59 -34.82)"/><path class="cls-13" d="M323.76,426.62a5.34,5.34,0,0,1-1.07.26,27.07,27.07,0,0,1-3,.37,35.35,35.35,0,0,1-19.22-4.17,24.52,24.52,0,0,1-2.56-1.57,4.48,4.48,0,0,1-.87-.68c.05-.08,1.35.8,3.6,1.93a39.24,39.24,0,0,0,19,4.12C322.2,426.78,323.75,426.53,323.76,426.62Z" transform="translate(-26.59 -34.82)"/><path class="cls-13" d="M324.06,415a8.07,8.07,0,0,1-3.78.86,8,8,0,0,1-3.85-.52c0-.15,1.73.1,3.82,0S324,414.88,324.06,415Z" transform="translate(-26.59 -34.82)"/><path class="cls-13" d="M331.75,414.48c-.07.14-2.36-.83-5.31-1.64s-5.41-1.18-5.39-1.33a16.83,16.83,0,0,1,5.53.83A16.64,16.64,0,0,1,331.75,414.48Z" transform="translate(-26.59 -34.82)"/><path class="cls-13" d="M330.26,403.57c.15.05-.44,1.82-.46,4.07a9.28,9.28,0,0,0,.28,2.81c.23.67.69.84.66.91s-.14,0-.35-.06a1.65,1.65,0,0,1-.65-.7,7.18,7.18,0,0,1-.47-3A7.45,7.45,0,0,1,330.26,403.57Z" transform="translate(-26.59 -34.82)"/><path class="cls-13" d="M314.66,436.47a2,2,0,0,1-.51,0l-1.44-.05c-1.24-.07-3-.16-5.28-.42a39.66,39.66,0,0,1-7.71-1.62,26.33,26.33,0,0,1-4.29-1.85c-1.42-.78-2.82-1.69-4.26-2.6-6.46-4.13-12.21-7.84-15.92-10.28l-.09-.06v-.1a5.63,5.63,0,0,1,2.06-3.69,4.93,4.93,0,0,1,1-.6,1.59,1.59,0,0,1,.37-.13,10.87,10.87,0,0,0-1.22.87,5.6,5.6,0,0,0-1.84,3.59l-.07-.16c3.77,2.34,9.56,6,16,10.12,1.44.92,2.83,1.82,4.23,2.59a26.8,26.8,0,0,0,4.19,1.85,41.22,41.22,0,0,0,7.61,1.7c2.2.31,4,.46,5.25.58l1.43.15A1.71,1.71,0,0,1,314.66,436.47Z" transform="translate(-26.59 -34.82)"/><path class="cls-13" d="M309.18,442a8.36,8.36,0,0,1-1.52-.17c-1-.15-2.38-.39-4.1-.77A78.22,78.22,0,0,1,290.43,437a26.89,26.89,0,0,1-6.52-3.9,37.67,37.67,0,0,1-4.44-4.33c-1.16-1.32-2.05-2.43-2.66-3.2a10.91,10.91,0,0,1-.9-1.24,7.91,7.91,0,0,1,1.06,1.11c.65.73,1.58,1.8,2.77,3.08a41.46,41.46,0,0,0,4.47,4.2,27.43,27.43,0,0,0,6.43,3.8,89.62,89.62,0,0,0,13,4.17c1.7.42,3.09.72,4.05.93A8.83,8.83,0,0,1,309.18,442Z" transform="translate(-26.59 -34.82)"/><path class="cls-10" d="M321.14,410.81a7.67,7.67,0,0,1-1.47.05l-4-.07c-3.39-.08-8.07-.23-13.24-.42a59.46,59.46,0,0,0-7.25.1l-1.64.1a2.48,2.48,0,0,0-1.38.33,7.48,7.48,0,0,0-2,1.81A22,22,0,0,0,288,416a11.07,11.07,0,0,1-.7,1.3,6.86,6.86,0,0,1,.52-1.39,19,19,0,0,1,2.06-3.47,7.83,7.83,0,0,1,2-2,3,3,0,0,1,.76-.32,4.78,4.78,0,0,1,.81-.09l1.64-.11a52.68,52.68,0,0,1,7.3-.15c5.17.19,9.85.4,13.23.57l4,.23A7.5,7.5,0,0,1,321.14,410.81Z" transform="translate(-26.59 -34.82)"/><path class="cls-4" d="M173.14,317.84a76,76,0,0,1-2.87-8.25,77.22,77.22,0,0,1-2.37-8.4,73.49,73.49,0,0,1,2.87,8.25A70.91,70.91,0,0,1,173.14,317.84Z" transform="translate(-26.59 -34.82)"/><path class="cls-4" d="M323.55,293.17a13.62,13.62,0,0,1-.25,2.45c-.23,1.7-.5,3.68-.79,5.88s-.49,4.19-.68,5.89a13.22,13.22,0,0,1-.36,2.44,10.34,10.34,0,0,1,0-2.47c.07-1.52.24-3.62.53-5.93s.64-4.38.94-5.87A10.46,10.46,0,0,1,323.55,293.17Z" transform="translate(-26.59 -34.82)"/></g><g id="Desk"><path class="cls-4" d="M441.15,477.88c0,.14-85.59.26-191.14.26S58.85,478,58.85,477.88s85.57-.26,191.16-.26S441.15,477.74,441.15,477.88Z" transform="translate(-26.59 -34.82)"/></g><g id="Browser"><polygon class="cls-14" points="131.73 314.45 131.73 344.3 262.09 344.3 280.33 365.45 280.33 344.3 321.05 344.3 321.05 314.45 131.73 314.45"/><path class="cls-4" d="M177.27,361.44l-2.08,5.76h-1.61l-1.29-3.57L171,367.2h-1.6l-2.08-5.76h1.57l1.36,3.9,1.41-3.9H173l1.36,3.9,1.41-3.9Z" transform="translate(-26.59 -34.82)"/><path class="cls-4" d="M187.16,361.44l-2.09,5.76h-1.6l-1.3-3.57-1.33,3.57h-1.61l-2.07-5.76h1.57l1.36,3.9,1.41-3.9h1.41l1.37,3.9,1.4-3.9Z" transform="translate(-26.59 -34.82)"/><path class="cls-4" d="M197,361.44,195,367.2h-1.61l-1.29-3.57-1.34,3.57h-1.6L187,361.44h1.57l1.36,3.9,1.41-3.9h1.42l1.37,3.9,1.4-3.9Z" transform="translate(-26.59 -34.82)"/><path class="cls-4" d="M197.08,366.23a1,1,0,0,1,2.07,0,1,1,0,1,1-2.07,0Z" transform="translate(-26.59 -34.82)"/><path class="cls-4" d="M206.07,359.26v7.94h-1.59v-.67a2.2,2.2,0,0,1-1.8.75,3,3,0,0,1,0-5.92,2.19,2.19,0,0,1,1.72.69v-2.79Zm-1.63,5.06a1.48,1.48,0,1,0-1.47,1.59A1.46,1.46,0,0,0,204.44,364.32Z" transform="translate(-26.59 -34.82)"/><path class="cls-4" d="M207.19,364.32a3.17,3.17,0,1,1,3.16,3A3,3,0,0,1,207.19,364.32Zm4.63,0a1.47,1.47,0,1,0-1.47,1.59A1.45,1.45,0,0,0,211.82,364.32Z" transform="translate(-26.59 -34.82)"/><path class="cls-4" d="M224.34,363.9v3.3h-1.66v-3c0-.93-.42-1.36-1.09-1.36s-1.28.48-1.28,1.51v2.89h-1.67v-3c0-.93-.39-1.36-1.09-1.36s-1.26.48-1.26,1.51v2.89h-1.67v-5.76h1.6v.67a2.29,2.29,0,0,1,1.8-.75,2.16,2.16,0,0,1,1.9.94,2.58,2.58,0,0,1,2.07-.94A2.22,2.22,0,0,1,224.34,363.9Z" transform="translate(-26.59 -34.82)"/><path class="cls-4" d="M230.94,363.91v3.29h-1.57v-.72a1.87,1.87,0,0,1-1.75.8c-1.35,0-2.15-.75-2.15-1.74s.72-1.72,2.47-1.72h1.33c0-.72-.43-1.14-1.33-1.14a2.79,2.79,0,0,0-1.66.54l-.6-1.17a4.44,4.44,0,0,1,2.49-.69C229.92,361.36,230.94,362.17,230.94,363.91Zm-1.67,1.47v-.59h-1.15c-.78,0-1,.29-1,.68s.35.69.94.69A1.25,1.25,0,0,0,229.27,365.38Z" transform="translate(-26.59 -34.82)"/><path class="cls-4" d="M232.24,359.71a1,1,0,0,1,1-.93.94.94,0,0,1,1,.9,1,1,0,0,1-2.08,0Zm.2,1.73h1.67v5.76h-1.67Z" transform="translate(-26.59 -34.82)"/><path class="cls-4" d="M241.55,363.9v3.3h-1.67v-3c0-.93-.43-1.36-1.17-1.36s-1.38.49-1.38,1.55v2.85h-1.67v-5.76h1.6v.68a2.48,2.48,0,0,1,1.9-.76A2.26,2.26,0,0,1,241.55,363.9Z" transform="translate(-26.59 -34.82)"/><path class="cls-4" d="M248.94,363.9v3.3h-1.67v-3c0-.93-.43-1.36-1.16-1.36s-1.38.49-1.38,1.55v2.85h-1.67v-5.76h1.59v.68a2.49,2.49,0,0,1,1.91-.76A2.25,2.25,0,0,1,248.94,363.9Z" transform="translate(-26.59 -34.82)"/><path class="cls-4" d="M255.54,363.91v3.29H254v-.72a1.87,1.87,0,0,1-1.75.8c-1.35,0-2.15-.75-2.15-1.74s.71-1.72,2.47-1.72h1.32c0-.72-.43-1.14-1.32-1.14a2.79,2.79,0,0,0-1.66.54l-.6-1.17a4.41,4.41,0,0,1,2.48-.69C254.53,361.36,255.54,362.17,255.54,363.91Zm-1.67,1.47v-.59h-1.14c-.78,0-1,.29-1,.68s.35.69.94.69A1.23,1.23,0,0,0,253.87,365.38Z" transform="translate(-26.59 -34.82)"/><path class="cls-4" d="M266.77,363.9v3.3h-1.66v-3c0-.93-.42-1.36-1.1-1.36s-1.27.48-1.27,1.51v2.89h-1.67v-3c0-.93-.39-1.36-1.09-1.36s-1.26.48-1.26,1.51v2.89h-1.67v-5.76h1.6v.67a2.27,2.27,0,0,1,1.8-.75,2.17,2.17,0,0,1,1.9.94,2.57,2.57,0,0,1,2.07-.94A2.22,2.22,0,0,1,266.77,363.9Z" transform="translate(-26.59 -34.82)"/><path class="cls-4" d="M273.94,364.79h-4.35a1.54,1.54,0,0,0,1.65,1.16,2,2,0,0,0,1.44-.56l.89,1a3,3,0,0,1-2.38.93,3,3,0,0,1-3.28-3,2.93,2.93,0,0,1,3.07-3,2.85,2.85,0,0,1,3,3C274,364.47,274,364.65,273.94,364.79Zm-4.37-1h2.83a1.43,1.43,0,0,0-2.83,0Z" transform="translate(-26.59 -34.82)"/><path class="cls-4" d="M274.53,366.66l.56-1.19a3.93,3.93,0,0,0,2,.55c.77,0,1.06-.2,1.06-.52,0-.94-3.48,0-3.48-2.28,0-1.09,1-1.86,2.66-1.86a4.76,4.76,0,0,1,2.22.5l-.56,1.19a3.29,3.29,0,0,0-1.66-.43c-.74,0-1.07.23-1.07.53,0,1,3.48,0,3.48,2.3,0,1.07-1,1.83-2.72,1.83A4.88,4.88,0,0,1,274.53,366.66Z" transform="translate(-26.59 -34.82)"/><path class="cls-4" d="M280.36,366.23a1,1,0,0,1,2.08,0,1,1,0,1,1-2.08,0Z" transform="translate(-26.59 -34.82)"/><path class="cls-8" d="M284.63,369.43a80.76,80.76,0,0,1,0-12.95,80.76,80.76,0,0,1,0,12.95Z" transform="translate(-26.59 -34.82)"/><rect class="cls-5" x="285.02" y="314.45" width="36.03" height="29.85"/><path class="cls-4" d="M328.35,368.23a6.83,6.83,0,1,1,6.84-6.83A6.84,6.84,0,0,1,328.35,368.23Zm0-12.66a5.83,5.83,0,1,0,5.84,5.83A5.84,5.84,0,0,0,328.35,355.57Z" transform="translate(-26.59 -34.82)"/><path class="cls-4" d="M338.59,372.58a.51.51,0,0,1-.36-.15l-6-6a.5.5,0,0,1,0-.71.5.5,0,0,1,.7,0l6,6a.5.5,0,0,1-.35.85Z" transform="translate(-26.59 -34.82)"/><path class="cls-4" d="M158.32,349.26h.92l2.74,0,10.65,0,39.7-.08L347.64,349h.26v30.37h-41l.26-.26V401l-.45-.52-18.23-21.16.19.09-130.36-.13h-.13v-.12c0-9.69.06-17.17.07-22.23,0-2.51,0-4.41,0-5.71s0-1.92,0-1.92,0,.68,0,2,0,3.22,0,5.74c0,5,0,12.49.07,22.15l-.12-.13,130.36-.12h.11l.07.09,18.25,21.14-.45.17q0-10.39,0-21.15v-.26h41l-.26.26c0-10.25,0-20.33,0-29.86l.25.26-135.13-.12-39.76-.07-10.7,0-2.78,0C158.65,349.28,158.32,349.26,158.32,349.26Z" transform="translate(-26.59 -34.82)"/></g><g id="Bubbles"><circle class="cls-14" cx="172.31" cy="46.85" r="23.86"/><path class="cls-4" d="M222.76,81.66a2.28,2.28,0,0,1,0-.38c0-.28-.05-.66-.09-1.13,0-.26,0-.53,0-.84s-.1-.63-.16-1a17.61,17.61,0,0,0-.5-2.46,22.7,22.7,0,0,0-2.66-6.31,23.66,23.66,0,0,0-6-6.71,23.61,23.61,0,0,0-22.37-3.36,21.44,21.44,0,0,0-6,3.21A27.38,27.38,0,0,0,182.2,65a25.35,25.35,0,0,0-2.31,2.74,22.71,22.71,0,0,0-3.38,6.5,23.36,23.36,0,0,0,0,14.9,23,23,0,0,0,3.37,6.51,26.52,26.52,0,0,0,2.32,2.73,26.07,26.07,0,0,0,2.68,2.28,24.12,24.12,0,0,0,2.89,1.87,24.6,24.6,0,0,0,3.08,1.35,23.7,23.7,0,0,0,28.41-10.08,22.7,22.7,0,0,0,2.66-6.31,17.21,17.21,0,0,0,.5-2.45c.06-.36.12-.69.16-1s0-.58,0-.83c0-.48.07-.85.09-1.13a2.33,2.33,0,0,1,0-.39,2.29,2.29,0,0,1,0,.39q0,.42,0,1.14l0,.84c0,.3-.09.64-.13,1a17.13,17.13,0,0,1-.47,2.48,22.34,22.34,0,0,1-2.6,6.41,23.59,23.59,0,0,1-6.06,6.86,23.84,23.84,0,0,1-10.11,4.54,24.67,24.67,0,0,1-15.8-2.39,25.17,25.17,0,0,1-3-1.9,27.13,27.13,0,0,1-2.74-2.32,26.62,26.62,0,0,1-2.37-2.79A23.22,23.22,0,0,1,176,89.27a23.79,23.79,0,0,1,0-15.22,23.42,23.42,0,0,1,3.45-6.64,29.18,29.18,0,0,1,2.37-2.8,28.5,28.5,0,0,1,2.74-2.32,26.44,26.44,0,0,1,3-1.89A24.81,24.81,0,0,1,190.69,59,24,24,0,0,1,219.51,69.4a22.57,22.57,0,0,1,2.6,6.41,17.5,17.5,0,0,1,.47,2.49c0,.36.1.69.13,1l0,.84c0,.48,0,.85,0,1.14A2.21,2.21,0,0,1,222.76,81.66Z" transform="translate(-26.59 -34.82)"/><path class="cls-4" d="M183.57,83.54a1.8,1.8,0,0,1,3.59,0,1.8,1.8,0,1,1-3.59,0Z" transform="translate(-26.59 -34.82)"/><path class="cls-4" d="M199.11,71.49V85.2h-2.75V84.06a3.84,3.84,0,0,1-3.1,1.29,5.12,5.12,0,0,1,0-10.24,3.82,3.82,0,0,1,3,1.2V71.49Zm-2.82,8.74A2.55,2.55,0,1,0,193.75,83,2.52,2.52,0,0,0,196.29,80.23Z" transform="translate(-26.59 -34.82)"/><path class="cls-4" d="M211.45,81h-7.52a2.66,2.66,0,0,0,2.85,2,3.35,3.35,0,0,0,2.49-1l1.54,1.66a5.23,5.23,0,0,1-4.11,1.61c-3.43,0-5.67-2.16-5.67-5.12a5.06,5.06,0,0,1,5.3-5.12,4.93,4.93,0,0,1,5.18,5.16C211.51,80.49,211.47,80.8,211.45,81Zm-7.55-1.68h4.89a2.48,2.48,0,0,0-4.89,0Z" transform="translate(-26.59 -34.82)"/><circle class="cls-14" cx="121.92" cy="180.89" r="31.7"/><path class="cls-4" d="M180.21,215.71s0-.18-.05-.52-.06-.86-.11-1.5q0-.49-.06-1.11c-.05-.4-.13-.84-.21-1.32a22,22,0,0,0-.66-3.27,30.1,30.1,0,0,0-3.52-8.4,31.59,31.59,0,0,0-21.28-14.81,27.55,27.55,0,0,0-4-.46c-.68,0-1.37-.09-2.06-.08l-2.08.11c-.35,0-.7,0-1,.06l-1.05.17c-.7.11-1.41.2-2.12.34a33.36,33.36,0,0,0-4.19,1.23,33.79,33.79,0,0,0-4.11,1.81c-.66.36-1.3.78-2,1.17a15.28,15.28,0,0,0-1.9,1.31,33.87,33.87,0,0,0-3.57,3,34.94,34.94,0,0,0-3.08,3.65,30.48,30.48,0,0,0-4.5,8.66,31.21,31.21,0,0,0,0,19.85,30.36,30.36,0,0,0,4.5,8.66,28.5,28.5,0,0,0,6.65,6.68,15.17,15.17,0,0,0,1.89,1.31c.66.39,1.3.81,2,1.17a33.79,33.79,0,0,0,4.11,1.81,33.36,33.36,0,0,0,4.19,1.23c.71.15,1.42.23,2.12.34l1.05.17c.35,0,.7,0,1,.06l2.08.11c.69,0,1.38,0,2.06-.08a28.85,28.85,0,0,0,4-.45,31.64,31.64,0,0,0,21.28-14.82,30.1,30.1,0,0,0,3.52-8.4,22,22,0,0,0,.66-3.27c.08-.48.16-.91.21-1.32s0-.78.06-1.11c0-.64.08-1.14.11-1.5a5,5,0,0,1,.05-.51s0,.17,0,.51,0,.86-.05,1.51l0,1.11c0,.41-.12.85-.18,1.33a23.39,23.39,0,0,1-.62,3.3,30.33,30.33,0,0,1-3.47,8.5,31.88,31.88,0,0,1-21.45,15.09,29.72,29.72,0,0,1-4,.48c-.69,0-1.38.09-2.08.08l-2.11-.1c-.36,0-.71,0-1.07-.07l-1.06-.16c-.72-.11-1.44-.19-2.15-.34a34.57,34.57,0,0,1-4.27-1.24,33.21,33.21,0,0,1-4.17-1.83c-.67-.36-1.32-.79-2-1.18a16.56,16.56,0,0,1-1.93-1.33,36.18,36.18,0,0,1-3.63-3.07,34.88,34.88,0,0,1-3.13-3.71,30.84,30.84,0,0,1-4.58-8.8,31.65,31.65,0,0,1,0-20.17,30.89,30.89,0,0,1,4.58-8.81,38.46,38.46,0,0,1,3.13-3.7,36.18,36.18,0,0,1,3.63-3.07,16.56,16.56,0,0,1,1.93-1.33c.67-.39,1.32-.82,2-1.18a33.21,33.21,0,0,1,4.17-1.83,34.57,34.57,0,0,1,4.27-1.24c.71-.14,1.43-.23,2.14-.34l1.07-.16c.35-.05.71-.05,1.07-.07l2.11-.1c.7,0,1.39.06,2.08.08a29.72,29.72,0,0,1,4,.48,31.88,31.88,0,0,1,21.45,15.09,30.33,30.33,0,0,1,3.47,8.5,23.39,23.39,0,0,1,.62,3.3c.06.48.14.92.18,1.33l0,1.11c0,.65,0,1.15.05,1.51S180.21,215.71,180.21,215.71Z" transform="translate(-26.59 -34.82)"/><path class="cls-4" d="M124.1,219.8a2.25,2.25,0,0,1,4.49,0,2.25,2.25,0,1,1-4.49,0Z" transform="translate(-26.59 -34.82)"/><path class="cls-4" d="M130,215.65c0-3.75,2.89-6.41,6.85-6.41s6.83,2.66,6.83,6.41-2.87,6.42-6.83,6.42S130,219.4,130,215.65Zm10,0a3.19,3.19,0,1,0-3.17,3.45A3.14,3.14,0,0,0,140,215.65Z" transform="translate(-26.59 -34.82)"/><path class="cls-4" d="M153.77,209.24v3.34a7.81,7.81,0,0,0-.81-.05c-2,0-3.31,1.09-3.31,3.47v5.88H146V209.43h3.45v1.64A5,5,0,0,1,153.77,209.24Z" transform="translate(-26.59 -34.82)"/><path class="cls-4" d="M168.65,209.43V219.8c0,4.63-2.5,6.76-7,6.76a10.22,10.22,0,0,1-6.11-1.72l1.43-2.59a7.43,7.43,0,0,0,4.4,1.41c2.55,0,3.66-1.15,3.66-3.4v-.53a5.14,5.14,0,0,1-3.94,1.55,6,6,0,1,1,0-12,5,5,0,0,1,4.12,1.78v-1.59Zm-3.57,5.83a3.28,3.28,0,1,0-3.26,3.06A3,3,0,0,0,165.08,215.26Z" transform="translate(-26.59 -34.82)"/><circle class="cls-14" cx="326.36" cy="195.74" r="31.7"/><path class="cls-4" d="M384.65,230.56s0-.18,0-.52-.06-.86-.11-1.5q0-.49-.06-1.11c-.05-.4-.14-.84-.21-1.32a22,22,0,0,0-.66-3.27,30.1,30.1,0,0,0-3.52-8.4,31.59,31.59,0,0,0-21.28-14.81,27.52,27.52,0,0,0-4-.46c-.67,0-1.36-.09-2-.08l-2.08.11c-.35,0-.7,0-1.05.07l-1,.16c-.7.11-1.41.2-2.12.34a35.43,35.43,0,0,0-8.3,3c-.66.36-1.3.78-1.95,1.17a15.28,15.28,0,0,0-1.9,1.31,28.5,28.5,0,0,0-6.65,6.68,30.48,30.48,0,0,0-4.5,8.66,31.21,31.21,0,0,0,0,19.85,30.36,30.36,0,0,0,4.5,8.66,34.94,34.94,0,0,0,3.08,3.65,33.87,33.87,0,0,0,3.57,3,15.17,15.17,0,0,0,1.89,1.31c.66.39,1.3.81,2,1.17a31.7,31.7,0,0,0,4.11,1.81,33.36,33.36,0,0,0,4.19,1.23c.71.15,1.42.23,2.12.35l1,.16c.35,0,.7,0,1.05.07l2.08.1c.69,0,1.38,0,2.06-.07a30.47,30.47,0,0,0,4-.46A31.64,31.64,0,0,0,380,246.67a30.1,30.1,0,0,0,3.52-8.4,22,22,0,0,0,.66-3.27c.07-.47.16-.91.21-1.32s0-.77.06-1.11c.05-.64.08-1.14.11-1.5a5,5,0,0,1,0-.51s0,.17,0,.51,0,.86,0,1.51c0,.33,0,.71,0,1.11s-.12.85-.18,1.34a23.54,23.54,0,0,1-.62,3.29,30.33,30.33,0,0,1-3.47,8.5,31.88,31.88,0,0,1-21.45,15.09,29.72,29.72,0,0,1-4,.48c-.69,0-1.38.09-2.08.09l-2.11-.11c-.36,0-.71,0-1.07-.06l-1.06-.17c-.72-.11-1.44-.19-2.15-.34a34.4,34.4,0,0,1-8.44-3.07c-.67-.36-1.32-.78-2-1.18a16.56,16.56,0,0,1-1.93-1.33,36.18,36.18,0,0,1-3.63-3.07,37.17,37.17,0,0,1-3.14-3.7,31.12,31.12,0,0,1-4.57-8.81,31.65,31.65,0,0,1,0-20.17,30.89,30.89,0,0,1,4.58-8.81,38.46,38.46,0,0,1,3.13-3.7,36.18,36.18,0,0,1,3.63-3.07,16.56,16.56,0,0,1,1.93-1.33c.67-.39,1.32-.82,2-1.18a33.21,33.21,0,0,1,4.17-1.83,34.93,34.93,0,0,1,4.26-1.24c.72-.14,1.44-.23,2.15-.34l1.07-.16c.35-.05.71-.05,1.07-.07l2.11-.1c.7,0,1.39.06,2.08.08a31.78,31.78,0,0,1,25.49,15.57,30.33,30.33,0,0,1,3.47,8.5,23.39,23.39,0,0,1,.62,3.3c.06.48.14.92.18,1.33s0,.78,0,1.11c0,.65,0,1.15,0,1.51S384.65,230.56,384.65,230.56Z" transform="translate(-26.59 -34.82)"/><path class="cls-4" d="M334.58,234.22a1.95,1.95,0,0,1,3.89,0,1.95,1.95,0,1,1-3.89,0Z" transform="translate(-26.59 -34.82)"/><path class="cls-4" d="M351.65,229.84V236h-3.13v-5.7c0-1.74-.81-2.55-2.19-2.55s-2.59.93-2.59,2.91V236H340.6v-10.8h3v1.27a4.69,4.69,0,0,1,3.57-1.43C349.72,225.06,351.65,226.55,351.65,229.84Z" transform="translate(-26.59 -34.82)"/><path class="cls-4" d="M365.13,231.51H357a2.9,2.9,0,0,0,3.1,2.17,3.69,3.69,0,0,0,2.71-1.05l1.66,1.81a5.66,5.66,0,0,1-4.45,1.75c-3.74,0-6.17-2.35-6.17-5.57a5.5,5.5,0,0,1,5.76-5.56,5.35,5.35,0,0,1,5.63,5.6C365.19,230.9,365.15,231.25,365.13,231.51Zm-8.22-1.83h5.32a2.7,2.7,0,0,0-5.32,0Z" transform="translate(-26.59 -34.82)"/><path class="cls-4" d="M374.25,235.5a4.5,4.5,0,0,1-2.55.69c-2.55,0-4-1.31-4-3.88v-4.44H366v-2.41h1.66v-2.63h3.13v2.63h2.69v2.41h-2.69v4.4a1.27,1.27,0,0,0,1.35,1.43,2,2,0,0,0,1.26-.41Z" transform="translate(-26.59 -34.82)"/><circle class="cls-14" cx="326.32" cy="104.1" r="31.22" transform="translate(124.36 363.5) rotate(-76.9)"/><path class="cls-4" d="M357.54,104.1s0-.17-.06-.51-.05-.84-.1-1.48c0-.33,0-.69-.06-1.09s-.13-.83-.2-1.3a23.09,23.09,0,0,0-.66-3.22A29.74,29.74,0,0,0,353,88.23a31.24,31.24,0,0,0-21-14.59,29.56,29.56,0,0,0-3.92-.45c-.67,0-1.34-.09-2-.07l-2.05.1c-.35,0-.69,0-1,.07l-1,.16c-.69.11-1.39.19-2.09.34A33.38,33.38,0,0,0,315.76,75a32.66,32.66,0,0,0-4,1.78c-.65.35-1.28.77-1.92,1.15a15.93,15.93,0,0,0-1.87,1.29,34,34,0,0,0-3.52,3,35,35,0,0,0-3,3.59A30.07,30.07,0,0,0,297,94.33a30.81,30.81,0,0,0,0,19.54,30.34,30.34,0,0,0,4.43,8.53,35,35,0,0,0,3,3.59,36.63,36.63,0,0,0,3.52,3,16.69,16.69,0,0,0,1.86,1.29c.65.38,1.28.79,1.93,1.15a34.23,34.23,0,0,0,4,1.78,33.38,33.38,0,0,0,4.13,1.21c.7.14,1.4.22,2.09.34l1,.16c.35,0,.69,0,1,.07l2.05.1c.68,0,1.35-.05,2-.08a28,28,0,0,0,3.92-.45A31.13,31.13,0,0,0,353,120a29.86,29.86,0,0,0,3.46-8.27,23.09,23.09,0,0,0,.66-3.22c.07-.47.15-.91.2-1.3s0-.77.06-1.1c.05-.63.08-1.12.1-1.48s.06-.5.06-.5,0,.17,0,.5,0,.85-.05,1.49c0,.33,0,.7,0,1.1s-.12.84-.18,1.31a22.31,22.31,0,0,1-.61,3.24,29.61,29.61,0,0,1-3.41,8.37A31.39,31.39,0,0,1,332.12,135a28.7,28.7,0,0,1-4,.47c-.68,0-1.36.09-2,.08l-2.08-.1c-.35,0-.71,0-1.06-.06l-1-.16c-.71-.12-1.42-.2-2.12-.34a35.77,35.77,0,0,1-4.2-1.22,33.72,33.72,0,0,1-4.11-1.8c-.66-.36-1.3-.78-2-1.17a16,16,0,0,1-1.9-1.3,36.44,36.44,0,0,1-3.57-3A33.85,33.85,0,0,1,301,122.7a30.31,30.31,0,0,1-4.51-8.67,31.27,31.27,0,0,1,0-19.87A30.56,30.56,0,0,1,301,85.49a29,29,0,0,1,6.66-6.67,17.34,17.34,0,0,1,1.9-1.31c.66-.39,1.3-.8,2-1.16a34.08,34.08,0,0,1,8.31-3c.7-.15,1.41-.23,2.11-.34l1-.16c.35,0,.71,0,1.05-.06l2.09-.11c.68,0,1.37.06,2,.09a28.67,28.67,0,0,1,4,.47,31.42,31.42,0,0,1,21.13,14.86,29.85,29.85,0,0,1,3.41,8.37,22.68,22.68,0,0,1,.61,3.25c.06.47.14.91.18,1.31s0,.77,0,1.1c0,.63,0,1.13.05,1.48S357.54,104.1,357.54,104.1Z" transform="translate(-26.59 -34.82)"/><path class="cls-4" d="M298.52,108.7a2,2,0,0,1,4,0,2,2,0,1,1-4,0Z" transform="translate(-26.59 -34.82)"/><path class="cls-4" d="M303.77,105c0-3.36,2.59-5.75,6.22-5.75a5.14,5.14,0,0,1,5,2.85l-2.52,1.34a2.79,2.79,0,0,0-2.51-1.53,3.09,3.09,0,0,0,0,6.18,2.73,2.73,0,0,0,2.51-1.53l2.52,1.37a5.19,5.19,0,0,1-5,2.82C306.36,110.73,303.77,108.34,303.77,105Z" transform="translate(-26.59 -34.82)"/><path class="cls-4" d="M315.89,105c0-3.36,2.59-5.75,6.14-5.75s6.12,2.39,6.12,5.75-2.57,5.75-6.12,5.75S315.89,108.34,315.89,105Zm9,0a2.86,2.86,0,1,0-2.84,3.09A2.81,2.81,0,0,0,324.87,105Z" transform="translate(-26.59 -34.82)"/><path class="cls-4" d="M349.18,104.17v6.39h-3.24v-5.89c0-1.81-.81-2.64-2.12-2.64s-2.47.94-2.47,2.93v5.6h-3.23v-5.89c0-1.81-.77-2.64-2.12-2.64s-2.45.94-2.45,2.93v5.6h-3.24V99.4h3.09v1.28a4.54,4.54,0,0,1,3.51-1.45,4.17,4.17,0,0,1,3.68,1.83,5,5,0,0,1,4-1.83C347.27,99.23,349.18,100.77,349.18,104.17Z" transform="translate(-26.59 -34.82)"/></g></svg>