<svg id="Layer_1" data-name="Layer 1" xmlns="http://www.w3.org/2000/svg" viewBox="0 0 1263.98 272.96"><defs><style>.cls-1{fill:#fff;}.cls-2{isolation:isolate;}.cls-3{fill:#160647;}</style></defs><path class="cls-1" d="M83.34,64.63c5.16-1.95,9.72-5.46,14.7-7.85,10-4.79,21.15-8.46,32.2-9.53,31.88-3.09,64.46,15.51,81.41,41.88,5.81,9,8.47,18.64,11.69,28.7-7.91,1.88-17.09.7-25.2.7-2.91,0-7,.71-9.65-.83-2-1.16-2.81-3.56-3.87-5.47a61.05,61.05,0,0,0-5.69-8.4c-7.63-9.59-18.7-17.84-31.19-19.49C128.17,81.76,111.17,86.17,97.4,101a45.85,45.85,0,0,0-6.84,9.8c-1.25,2.38-2,5.47-4.49,6.87s-5.72.83-8.33.83H58.84c-2.45,0-6.76.79-8.68-1.12-1.58-1.58-1.12-4.56-1.12-6.58V95.43c0-12.38-.7-24.77-.7-37.1,0-7.9,1.14-16.79-.7-24.5-3.64,1.7-6.29,4.86-9.1,7.7a144.18,144.18,0,0,0-17,21c-26,38.85-27.59,89.36-9.17,131.6,5.92,13.57,15.08,26,25.5,36.4,3.49,3.49,7,8.43,11.9,9.8v-86.8h24.5c3.31,0,8.16-.88,11.17.72s4.4,5.55,6,8.38a54.28,54.28,0,0,0,8.71,11.19c14.82,14.81,40.48,19.8,59.49,10.32,7.87-3.93,15.28-9.43,20.45-16.61,2.62-3.64,4.21-10.08,7.74-12.78,2.23-1.7,5.59-1.22,8.21-1.22h18.2c2.29,0,6.19-.65,7.95,1.22,2.29,2.43-1.48,10.11-2.46,12.78a83.49,83.49,0,0,1-24.39,34.69c-20.93,17.67-50,27.17-77,20.08a113.22,113.22,0,0,1-21.7-8c-4.28-2.14-8.21-4.94-12.6-6.83v39.2c0,4-1.46,11.69.72,15.21,1.61,2.59,5.73,3.13,8.38,4.07a125.63,125.63,0,0,0,21.7,5.39c33.8,5.52,70.49-2.94,98.7-22.11,28-19,49.94-50.22,56.38-83.76,2.68-14,2.49-27.81,2.42-42,0-9.72-3.07-20.16-5.9-29.4C249.84,40,198.59,2.68,142.84.24c-15-.65-31.13.08-45.5,5C93.8,6.45,87,7.45,84.56,10.39c-2.71,3.24-1.22,11.12-1.22,15.1Z" transform="translate(-0.04 -0.04)"/><g class="cls-2"><g class="cls-2"><path class="cls-1" d="M399.42,191.6a29.34,29.34,0,0,1-14.55-3.6,26.05,26.05,0,0,1-10.2-10.35l-.3,11.55h-19.8V67.7h20.7v55.8q8.25-13.05,25.2-13a32.52,32.52,0,0,1,18.15,5.17,35.4,35.4,0,0,1,12.45,14.26,46.49,46.49,0,0,1,4.5,20.92,44.38,44.38,0,0,1-4.8,20.78,38.43,38.43,0,0,1-13,14.62A32.64,32.64,0,0,1,399.42,191.6ZM394.47,173A19,19,0,0,0,409,166.85q5.7-6.15,5.7-15.75,0-9.75-5.7-15.9a20.46,20.46,0,0,0-29.25,0q-5.7,6.15-5.7,15.9t5.7,15.75A19.14,19.14,0,0,0,394.47,173Z" transform="translate(-0.04 -0.04)"/></g><g class="cls-2"><path class="cls-1" d="M453.12,189.2V112.85h19.95l.15,15.15a25.22,25.22,0,0,1,8.18-12.22,20.15,20.15,0,0,1,12.82-4.28,27.35,27.35,0,0,1,4.88.45,15,15,0,0,1,4,1.2l-1.8,19.65a33.07,33.07,0,0,0-4.65-1.35,23,23,0,0,0-4.95-.6q-8.55,0-13.2,6.07t-4.65,17.48v34.8Z" transform="translate(-0.04 -0.04)"/></g><g class="cls-2"><path class="cls-1" d="M548.52,191.6a32.11,32.11,0,0,1-18.08-5.18,35.31,35.31,0,0,1-12.37-14.32,46.64,46.64,0,0,1-4.5-20.85,44.28,44.28,0,0,1,4.8-20.77,38.37,38.37,0,0,1,13-14.63,32.62,32.62,0,0,1,18.38-5.4,29.07,29.07,0,0,1,14.47,3.67,26.51,26.51,0,0,1,10.28,10.43l.3-11.7h19.8V189.2h-19.8l-.3-11.7Q566.52,191.6,548.52,191.6Zm6.15-18.6a19,19,0,0,0,14.55-6.15q5.7-6.15,5.7-15.75,0-9.75-5.7-15.9a20.29,20.29,0,0,0-29.1,0q-5.7,6.15-5.7,15.9t5.7,15.75A19,19,0,0,0,554.67,173Z" transform="translate(-0.04 -0.04)"/><path class="cls-1" d="M616.77,189.2V112.85h20.1l.3,11.1a21.72,21.72,0,0,1,9.22-10,28.59,28.59,0,0,1,14.33-3.53q13.2,0,20.17,8.4t7,24V189.2h-20.7V146.75q0-17.85-13.8-17.85-7.5,0-11.7,5t-4.2,14.18v41.1Z" transform="translate(-0.04 -0.04)"/><path class="cls-1" d="M740.07,191.6A32.11,32.11,0,0,1,722,186.42a35.31,35.31,0,0,1-12.37-14.32,46.64,46.64,0,0,1-4.5-20.85,44.28,44.28,0,0,1,4.8-20.77,38.37,38.37,0,0,1,13-14.63,32.62,32.62,0,0,1,18.38-5.4,29.29,29.29,0,0,1,13.8,3.3,26.09,26.09,0,0,1,10.2,9.6V67.7h20.85V189.2h-19.8l-.3-11.55A27.82,27.82,0,0,1,755.37,188,31.45,31.45,0,0,1,740.07,191.6Zm6.15-18.6a19,19,0,0,0,14.55-6.15q5.7-6.15,5.7-15.75,0-9.75-5.7-15.9a20.29,20.29,0,0,0-29.1,0q-5.7,6.15-5.7,15.9t5.7,15.75A19,19,0,0,0,746.22,173Z" transform="translate(-0.04 -0.04)"/><path class="cls-1" d="M808.32,226V112.85h19.5l.3,12a28.46,28.46,0,0,1,10.72-10.65,30.87,30.87,0,0,1,15.38-3.75,32.52,32.52,0,0,1,18.15,5.17,35.4,35.4,0,0,1,12.45,14.26,46.49,46.49,0,0,1,4.5,20.92,44.38,44.38,0,0,1-4.8,20.78,38.37,38.37,0,0,1-13,14.62,32.58,32.58,0,0,1-18.37,5.4q-15.9,0-24.15-12.75V226ZM848.22,173a19,19,0,0,0,14.55-6.15q5.7-6.15,5.7-15.75,0-9.75-5.7-15.9a20.46,20.46,0,0,0-29.25,0q-5.7,6.15-5.7,15.9t5.7,15.75A19.14,19.14,0,0,0,848.22,173Z" transform="translate(-0.04 -0.04)"/><path class="cls-1" d="M941.67,191.6q-16.95,0-26-8.85t-9.07-25.2v-44.7h20.85V157.1q0,16.05,14.4,16.05,14.25,0,14.25-16.05V112.85h20.85v44.7q0,16.35-9.15,25.2T941.67,191.6Z" transform="translate(-0.04 -0.04)"/><path class="cls-1" d="M998.37,189.2V67.7h20.7V189.2Z" transform="translate(-0.04 -0.04)"/><path class="cls-1" d="M1064.82,191.6a64.4,64.4,0,0,1-16-2,37.9,37.9,0,0,1-12.52-5.33l2.55-15.75a42.52,42.52,0,0,0,12,5.62,44.5,44.5,0,0,0,12.9,2q13.5,0,13.5-7.8a6.63,6.63,0,0,0-1.13-4,10.51,10.51,0,0,0-4.27-3,66.14,66.14,0,0,0-9.15-3.08q-13.65-3.9-19.35-9.45t-5.7-14.85q0-11.1,8.25-17.33t22.65-6.22a59.71,59.71,0,0,1,14.1,1.72,48.85,48.85,0,0,1,11.7,4.28l-2.55,15.45a44.76,44.76,0,0,0-11.1-4.5,45.26,45.26,0,0,0-11.25-1.5q-11.7,0-11.7,7.2a6.41,6.41,0,0,0,2.85,5.4c1.89,1.4,5.55,2.9,11,4.5q14.25,4,20.32,9.75t6.08,15.3a20,20,0,0,1-8.85,17.25Q1080.26,191.6,1064.82,191.6Z" transform="translate(-0.04 -0.04)"/><path class="cls-1" d="M1145.82,191.6a32.08,32.08,0,0,1-18.08-5.18,35.31,35.31,0,0,1-12.37-14.32,46.64,46.64,0,0,1-4.5-20.85,44.16,44.16,0,0,1,4.8-20.77,38.29,38.29,0,0,1,13-14.63,32.59,32.59,0,0,1,18.38-5.4,29.09,29.09,0,0,1,14.47,3.67,26.58,26.58,0,0,1,10.28,10.43l.3-11.7h19.8V189.2h-19.8l-.3-11.7Q1163.81,191.6,1145.82,191.6ZM1152,173a19,19,0,0,0,14.56-6.15q5.68-6.15,5.69-15.75,0-9.75-5.69-15.9a20.29,20.29,0,0,0-29.1,0q-5.72,6.15-5.71,15.9t5.71,15.75A18.93,18.93,0,0,0,1152,173Z" transform="translate(-0.04 -0.04)"/><path class="cls-1" d="M1214.06,189.2V112.85h20l.16,15.15a25.2,25.2,0,0,1,8.17-12.22,20.17,20.17,0,0,1,12.83-4.28,27.24,27.24,0,0,1,4.87.45,15,15,0,0,1,4,1.2l-1.8,19.65a32.68,32.68,0,0,0-4.65-1.35,22.88,22.88,0,0,0-4.94-.6q-8.55,0-13.2,6.07t-4.66,17.48v34.8Z" transform="translate(-0.04 -0.04)"/></g></g><circle class="cls-3" cx="136.14" cy="136.44" r="25"/></svg>