<svg id="Layer_1" data-name="Layer 1" xmlns="http://www.w3.org/2000/svg" viewBox="0 0 1065 1065"><defs><style>.cls-1{fill:#f5f6f9;}.cls-2{fill:#6831e4;}.cls-3{fill:#0b0618;}</style></defs><circle class="cls-1" cx="532.5" cy="532.5" r="532.5"/><path class="cls-2" d="M893.49,479.48h-.11a5.72,5.72,0,0,0-5.72,5.76,5.82,5.82,0,0,0,5.83,5.76,5.76,5.76,0,0,0,0-11.52Z" transform="translate(-7.5 -7.5)"/><path class="cls-2" d="M300.17,171.36h-.12a5.71,5.71,0,0,0-5.7,5.76,5.79,5.79,0,1,0,5.82-5.76Z" transform="translate(-7.5 -7.5)"/><path class="cls-2" d="M519.05,194.4h-.12a5.71,5.71,0,0,0-5.7,5.76,5.79,5.79,0,1,0,5.82-5.76Z" transform="translate(-7.5 -7.5)"/><path class="cls-2" d="M196.49,309.6h-.12a5.71,5.71,0,0,0-5.7,5.76,5.79,5.79,0,1,0,5.82-5.76Z" transform="translate(-7.5 -7.5)"/><path class="cls-2" d="M277.13,643.68H277a5.71,5.71,0,0,0-5.7,5.76,5.79,5.79,0,1,0,5.82-5.76Z" transform="translate(-7.5 -7.5)"/><path class="cls-2" d="M564.52,885.6h-.11a5.71,5.71,0,0,0-5.71,5.76,5.79,5.79,0,1,0,5.82-5.76Z" transform="translate(-7.5 -7.5)"/><path class="cls-2" d="M841.61,897.12h-.11a5.71,5.71,0,0,0-5.71,5.76,5.79,5.79,0,1,0,5.82-5.76Z" transform="translate(-7.5 -7.5)"/><path class="cls-2" d="M763.81,530h-.11a5.71,5.71,0,0,0-5.72,5.76,5.8,5.8,0,1,0,5.83-5.76Z" transform="translate(-7.5 -7.5)"/><path class="cls-2" d="M864.65,643.68h-.11a5.71,5.71,0,0,0-5.71,5.76,5.79,5.79,0,1,0,5.82-5.76Z" transform="translate(-7.5 -7.5)"/><path class="cls-2" d="M870.45,444.92h-.11a5.71,5.71,0,0,0-5.72,5.76,5.8,5.8,0,1,0,5.83-5.76Z" transform="translate(-7.5 -7.5)"/><path class="cls-2" d="M898.9,398.84a57.6,57.6,0,1,0,57.6,57.6A57.67,57.67,0,0,0,898.9,398.84Zm0,103.68A46.08,46.08,0,1,1,945,456.44,46.14,46.14,0,0,1,898.9,502.52Z" transform="translate(-7.5 -7.5)"/><path class="cls-2" d="M916.18,421.88a17.28,17.28,0,1,0,17.28,17.28A17.3,17.3,0,0,0,916.18,421.88Zm0,23a5.76,5.76,0,1,1,5.76-5.76A5.77,5.77,0,0,1,916.18,444.92Z" transform="translate(-7.5 -7.5)"/><path class="cls-2" d="M643.9,856.92a5.76,5.76,0,0,0-5.76,5.76v46.08a5.76,5.76,0,0,0,11.52,0V862.68A5.76,5.76,0,0,0,643.9,856.92Z" transform="translate(-7.5 -7.5)"/><path class="cls-2" d="M655.42,880h-23a5.76,5.76,0,1,0,0,11.52h23a5.76,5.76,0,0,0,0-11.52Z" transform="translate(-7.5 -7.5)"/><path class="cls-2" d="M438.06,828a5.76,5.76,0,0,0-5.76,5.76v46.08a5.76,5.76,0,0,0,11.52,0V833.76A5.76,5.76,0,0,0,438.06,828Z" transform="translate(-7.5 -7.5)"/><path class="cls-2" d="M449.58,851h-23a5.76,5.76,0,0,0,0,11.52h23a5.76,5.76,0,0,0,0-11.52Z" transform="translate(-7.5 -7.5)"/><path class="cls-2" d="M438.06,217.44a5.76,5.76,0,0,0-5.76,5.76v46.08a5.76,5.76,0,0,0,11.52,0V223.2A5.75,5.75,0,0,0,438.06,217.44Z" transform="translate(-7.5 -7.5)"/><path class="cls-2" d="M449.58,240.48h-23a5.76,5.76,0,0,0,0,11.52h23a5.76,5.76,0,0,0,0-11.52Z" transform="translate(-7.5 -7.5)"/><path class="cls-2" d="M230.7,482.4a5.76,5.76,0,0,0-5.76,5.76v46.08a5.76,5.76,0,0,0,11.52,0V488.16A5.76,5.76,0,0,0,230.7,482.4Z" transform="translate(-7.5 -7.5)"/><path class="cls-2" d="M242.22,505.44h-23a5.76,5.76,0,0,0,0,11.52h23a5.76,5.76,0,0,0,0-11.52Z" transform="translate(-7.5 -7.5)"/><path class="cls-2" d="M362.89,344.45c-15.22-15.23-41.79-15.23-57,0a40.32,40.32,0,1,0,57,0Zm-8.15,48.87c-10.87,10.88-29.84,10.88-40.72,0a28.8,28.8,0,1,1,40.72,0Z" transform="translate(-7.5 -7.5)"/><path class="cls-2" d="M371,336.3a5.76,5.76,0,0,0-8.82,7.34c-.21,3.69-7.16,16.79-23.76,33.39s-29.7,23.55-33.39,23.76a5.76,5.76,0,0,0-7.34,8.82,9.37,9.37,0,0,0,6.9,2.66c14.05,0,36.84-21.95,42-27.09C352.72,379.06,382.66,347.92,371,336.3Z" transform="translate(-7.5 -7.5)"/><path class="cls-3" d="M540,284.18c-88.16,0-159.89,71.73-159.89,159.89A160.47,160.47,0,0,0,445.7,573.32a4,4,0,1,0,4.72-6.45,152.48,152.48,0,0,1-62.31-122.8c0-83.75,68.14-151.89,151.89-151.89s151.89,68.13,151.89,151.89a152.46,152.46,0,0,1-62.31,122.79,4,4,0,1,0,4.71,6.44,160.43,160.43,0,0,0,65.6-129.23C699.89,355.91,628.16,284.18,540,284.18Z" transform="translate(-7.5 -7.5)"/><path class="cls-3" d="M713.28,676.15l-9.09-3.36c-4.48-1.65-9.5-3.51-14.87-5.52a4,4,0,1,0-2.81,7.48c5.38,2,10.43,3.88,14.92,5.54l9.05,3.36c30.74,11.47,45.37,22.22,45.37,52.21v52H324.15v-52c0-30,14.64-40.74,45.37-52.21l8.31-3.09c4.75-1.75,10.15-3.74,15.92-5.91a4,4,0,0,0-2.81-7.49c-5.76,2.17-11.14,4.15-15.87,5.9l-8.35,3.09c-32.79,12.26-50.56,25.4-50.56,59.71v56a4,4,0,0,0,4,4H759.85a4,4,0,0,0,4-4v-56C763.84,701.55,746.07,688.41,713.28,676.15Z" transform="translate(-7.5 -7.5)"/><path class="cls-3" d="M448.07,566.1a4,4,0,0,0-4,4v45.53a4,4,0,0,0,8,0V570.1A4,4,0,0,0,448.07,566.1Z" transform="translate(-7.5 -7.5)"/><path class="cls-3" d="M631.94,566.08a4,4,0,0,0-4,4v45.86a4,4,0,1,0,8,0V570.08A4,4,0,0,0,631.94,566.08Z" transform="translate(-7.5 -7.5)"/><path class="cls-3" d="M631.94,588H448.07a4,4,0,1,0,0,8H631.94a4,4,0,0,0,0-8Z" transform="translate(-7.5 -7.5)"/><path class="cls-3" d="M639.78,604l-199.87,8a4,4,0,0,0,.16,8h.16l199.86-8a4,4,0,0,0-.31-8Z" transform="translate(-7.5 -7.5)"/><path class="cls-3" d="M532,324.15A112,112,0,0,0,420.09,436.07a4,4,0,1,0,8,0A104,104,0,0,1,532,332.15a4,4,0,0,0,0-8Z" transform="translate(-7.5 -7.5)"/><path class="cls-3" d="M540.75,644l-83.94-16a4,4,0,1,0-1.5,7.85l83.94,16a3.88,3.88,0,0,0,.75.07,4,4,0,0,0,.75-7.92Z" transform="translate(-7.5 -7.5)"/><path class="cls-3" d="M627.87,631.19a4,4,0,0,0-4.68-3.18l-83.94,16a4,4,0,0,0,.75,7.92,3.88,3.88,0,0,0,.75-.07l83.94-16A4,4,0,0,0,627.87,631.19Z" transform="translate(-7.5 -7.5)"/><path class="cls-3" d="M569.77,676.32a4,4,0,0,0-5.36,1.79l-6.89,13.78h-35l-6.89-13.78a4,4,0,1,0-7.15,3.58l8,16a4,4,0,0,0,3.57,2.21h40a4,4,0,0,0,3.57-2.21l8-16A4,4,0,0,0,569.77,676.32Z" transform="translate(-7.5 -7.5)"/><path class="cls-3" d="M529.49,692.17a4,4,0,0,0-5.19,2.23l-16,40a4,4,0,0,0,2.23,5.2,4.22,4.22,0,0,0,1.48.28,4,4,0,0,0,3.71-2.52l16-40A4,4,0,0,0,529.49,692.17Z" transform="translate(-7.5 -7.5)"/><path class="cls-3" d="M571.7,734.38l-16-40a4,4,0,1,0-7.43,3l16,40a4,4,0,0,0,3.72,2.52,4.22,4.22,0,0,0,1.48-.28A4,4,0,0,0,571.7,734.38Z" transform="translate(-7.5 -7.5)"/><path class="cls-3" d="M499.17,772.74l-46.44-38.22,7.12-21.38a4,4,0,0,0-1.23-4.34l-45-37.46,29.53-36.91a4,4,0,1,0-6.24-5l-32,40a4,4,0,0,0,.56,5.57l45.88,38.22-7.13,21.4a4,4,0,0,0,1.25,4.35l48.56,40a4,4,0,0,0,5.08-6.18Z" transform="translate(-7.5 -7.5)"/><path class="cls-3" d="M523.51,773.9,443.57,630a4,4,0,1,0-7,3.87l79.94,143.9a4,4,0,0,0,3.5,2.06,4,4,0,0,0,3.49-5.93Z" transform="translate(-7.5 -7.5)"/><path class="cls-3" d="M675,669.41l-32-40a4,4,0,1,0-6.24,5l29.52,36.91-45,37.46a4,4,0,0,0-1.23,4.34l7.12,21.38-46.44,38.22a4,4,0,0,0,5.09,6.18l48.56-40a4,4,0,0,0,1.25-4.35l-7.13-21.4L674.47,675A4,4,0,0,0,675,669.41Z" transform="translate(-7.5 -7.5)"/><path class="cls-3" d="M641.87,628.44a4,4,0,0,0-5.44,1.56L556.49,773.9a4,4,0,0,0,7,3.87l79.94-143.9A4,4,0,0,0,641.87,628.44Z" transform="translate(-7.5 -7.5)"/><path class="cls-3" d="M543.41,645.83a4,4,0,0,0-5.5-1.31l-52,32a4,4,0,0,0,2.1,7.4,3.89,3.89,0,0,0,2.09-.6l52-32A4,4,0,0,0,543.41,645.83Z" transform="translate(-7.5 -7.5)"/><path class="cls-3" d="M594.06,676.5l-52-32a4,4,0,0,0-4.2,6.81l52,32a3.91,3.91,0,0,0,2.09.6,4,4,0,0,0,2.1-7.4Z" transform="translate(-7.5 -7.5)"/><path class="cls-3" d="M540,715.87a4,4,0,0,0-4,4v56a4,4,0,0,0,8,0v-56A4,4,0,0,0,540,715.87Z" transform="translate(-7.5 -7.5)"/><path class="cls-3" d="M520,540a4,4,0,0,0-4,4v32a4,4,0,1,0,8,0V544A4,4,0,0,0,520,540Z" transform="translate(-7.5 -7.5)"/><path class="cls-3" d="M560,540a4,4,0,0,0-4,4v32a4,4,0,1,0,8,0V544A4,4,0,0,0,560,540Z" transform="translate(-7.5 -7.5)"/><path class="cls-3" d="M543.12,525.51a4,4,0,0,0-5.62-.62l-20,16A4,4,0,0,0,520,548a4,4,0,0,0,2.49-.87l20-16A4,4,0,0,0,543.12,525.51Z" transform="translate(-7.5 -7.5)"/><path class="cls-3" d="M562.48,540.87l-20-16a4,4,0,0,0-5,6.25l20,16a4,4,0,0,0,5.62-.63A4,4,0,0,0,562.48,540.87Z" transform="translate(-7.5 -7.5)"/><path class="cls-3" d="M560,452.06a4,4,0,0,0-4,4V520a4,4,0,1,0,8,0V456.06A4,4,0,0,0,560,452.06Z" transform="translate(-7.5 -7.5)"/><path class="cls-3" d="M520,452.06a4,4,0,0,0-4,4V520a4,4,0,1,0,8,0V456.06A4,4,0,0,0,520,452.06Z" transform="translate(-7.5 -7.5)"/><path class="cls-3" d="M500,432.08a24,24,0,1,0,0,48,4,4,0,1,0,0-8,16,16,0,1,1,16-16,4,4,0,1,0,8,0A24,24,0,0,0,500,432.08Z" transform="translate(-7.5 -7.5)"/><path class="cls-3" d="M580,432.08a24,24,0,0,0-24,24,4,4,0,1,0,8,0,16,16,0,1,1,16,16,4,4,0,0,0,0,8,24,24,0,1,0,0-48Z" transform="translate(-7.5 -7.5)"/><path class="cls-3" d="M580,472.05h-4a4,4,0,1,0,0,8h4a4,4,0,1,0,0-8Z" transform="translate(-7.5 -7.5)"/><path class="cls-3" d="M504,472.05h-4a4,4,0,1,0,0,8h4a4,4,0,0,0,0-8Z" transform="translate(-7.5 -7.5)"/><path class="cls-3" d="M544,472.05h-8a4,4,0,0,0,0,8h8a4,4,0,1,0,0-8Z" transform="translate(-7.5 -7.5)"/></svg>