<?xml version="1.0" encoding="utf-8"?>
<!-- Generator: Adobe Illustrator 24.2.3, SVG Export Plug-In . SVG Version: 6.00 Build 0)  -->
<svg version="1.1" id="Layer_1" xmlns="http://www.w3.org/2000/svg" xmlns:xlink="http://www.w3.org/1999/xlink" x="0px" y="0px"
	 viewBox="0 0 40 40" style="enable-background:new 0 0 40 40;" xml:space="preserve">
<style type="text/css">
	.st0{fill:none;}
	.st1{fill:#13DCAA;}
	.st2{fill:#0C1142;}
</style>
<g id="contact">
	<g id="desktop-contact" transform="translate(-1224.000000, -267.000000)">
		<g id="icons_x2F_call" transform="translate(1216.000000, 259.000000)">
			<rect id="Rectangle" class="st0" width="56" height="56"/>
			<path id="Shape" class="st1" d="M24.8,31.4c-3.7-3.7-4.5-7.3-4.7-8.8c-0.1-0.4,0.1-0.8,0.4-1.1l3-3c0.4-0.4,0.5-1.1,0.2-1.6
				L19,9.6c-0.4-0.6-1.1-0.8-1.7-0.5l-7.6,3.6C9.2,12.9,8.9,13.5,9,14c0.4,3.8,2,13,11.2,22.2S38.6,47,42.4,47.4
				c0.5,0.1,1.1-0.2,1.3-0.7l3.6-7.6c0.3-0.6,0.1-1.3-0.5-1.7l-7.3-4.7c-0.5-0.3-1.2-0.3-1.6,0.2l-3,3c-0.3,0.3-0.7,0.4-1.1,0.4
				C32.1,35.9,28.5,35.1,24.8,31.4z"/>
			<path id="Shape_1_" class="st2" d="M39.4,29.4c-0.7,0-1.3-0.6-1.3-1.3c0-5.5-4.4-9.9-9.9-9.9c-0.7,0-1.3-0.6-1.3-1.3
				c0-0.7,0.6-1.3,1.3-1.3c6.9,0,12.6,5.6,12.6,12.6C40.7,28.8,40.1,29.4,39.4,29.4z"/>
			<path id="Shape_2_" class="st2" d="M46,29.4c-0.7,0-1.3-0.6-1.3-1.3c0-9.1-7.4-16.5-16.5-16.5c-0.7,0-1.3-0.6-1.3-1.3
				S27.5,9,28.2,9c10.6,0,19.2,8.6,19.2,19.2c0,0.4-0.1,0.7-0.4,0.9C46.7,29.3,46.3,29.4,46,29.4z"/>
		</g>
	</g>
</g>
</svg>
