<svg id="Capa_1" data-name="Capa 1" xmlns="http://www.w3.org/2000/svg" viewBox="0 0 439.63 303.19"><defs><style>.cls-1{fill:#00d54b;}.cls-2{fill:#fff;}</style></defs><path class="cls-1" d="M475.81,381.6a26,26,0,0,1-26,26H62.17a26,26,0,0,1-26-26V130.39a26,26,0,0,1,26-26H449.83a26,26,0,0,1,26,26V381.6Z" transform="translate(-36.19 -104.41)"/><path class="cls-2" d="M297.66,223.16a5.07,5.07,0,0,0,7.18,0l0,0,10-10.4a5.44,5.44,0,0,0-.17-7.69l-.07-.07a78.93,78.93,0,0,0-27-15.36l3.16-15.2a5.32,5.32,0,0,0-4.08-6.32,4.73,4.73,0,0,0-.92-.12H266.42a5.27,5.27,0,0,0-5.12,4.24l-2.8,13.52c-25.76,1.32-47.6,14.24-47.6,41.2,0,23.2,18,33.16,37.12,40,18,6.88,27.6,9.44,27.6,19.12s-9.52,15.8-23.6,15.8a51,51,0,0,1-36.64-14.72,5.21,5.21,0,0,0-7.36,0h0L197.22,298a5.43,5.43,0,0,0,0,7.68,70.49,70.49,0,0,0,31.16,17.6l-3,14.28a5.31,5.31,0,0,0,4,6.35,5.2,5.2,0,0,0,1.05.13h19.4a5.32,5.32,0,0,0,5.2-4l2.8-13.56c31-2.08,49.88-19.16,49.88-44,0-23-18.8-32.64-41.6-40.52-13-4.84-24.32-8-24.32-18.12s10.52-13.52,21.08-13.52a53.61,53.61,0,0,1,34.8,13.16Z" transform="translate(-36.19 -104.41)"/></svg>