<?xml version="1.0"?>
<svg xmlns="http://www.w3.org/2000/svg" xmlns:xlink="http://www.w3.org/1999/xlink" version="1.1" id="Capa_1" x="0px" y="0px" viewBox="0 0 512 512" style="enable-background:new 0 0 512 512;" xml:space="preserve" width="512px" height="512px"><g><g>
	<g>
		<path d="M464.867,96.4h-81.4V15c0-8.284-6.716-15-15-15H47.133c-8.284,0-15,6.716-15,15v385.601c0,8.284,6.716,15,15,15h81.4V497    c0,8.284,6.716,15,15,15h321.334c8.284,0,15-6.716,15-15V111.4C479.867,103.116,473.151,96.4,464.867,96.4z M62.133,385.601V30    h291.334v81.149c-0.002,0.084-0.013,0.166-0.013,0.251c0,0.085,0.011,0.167,0.013,0.252v273.949H62.133z M449.867,482H158.533    v-66.399h209.934c8.284,0,15-6.716,15-15V126.4h66.4V482z" data-original="#000000" class="active-path" data-old_color="#000000" fill="#504E4B"/>
	</g>
</g></g> </svg>
