<svg id="Layer_1" data-name="Layer 1" xmlns="http://www.w3.org/2000/svg" viewBox="0 0 1065 1065"><defs><style>.cls-1{fill:#f5f6f9;}.cls-2{fill:#6831e4;}.cls-3{fill:#0b0618;}</style></defs><circle class="cls-1" cx="532.5" cy="532.5" r="532.5"/><path class="cls-2" d="M734.49,730.48h-.11a5.72,5.72,0,0,0-5.72,5.76,5.82,5.82,0,0,0,5.83,5.76,5.76,5.76,0,0,0,0-11.52Z" transform="translate(-7.5 -7.5)"/><path class="cls-2" d="M300.17,171.36h-.12a5.71,5.71,0,0,0-5.7,5.76,5.79,5.79,0,1,0,5.82-5.76Z" transform="translate(-7.5 -7.5)"/><path class="cls-2" d="M519.05,194.4h-.12a5.71,5.71,0,0,0-5.7,5.76,5.79,5.79,0,1,0,5.82-5.76Z" transform="translate(-7.5 -7.5)"/><path class="cls-2" d="M196.49,309.6h-.12a5.71,5.71,0,0,0-5.7,5.76,5.79,5.79,0,1,0,5.82-5.76Z" transform="translate(-7.5 -7.5)"/><path class="cls-2" d="M213.13,716H213a5.71,5.71,0,0,0-5.7,5.76,5.79,5.79,0,1,0,5.82-5.76Z" transform="translate(-7.5 -7.5)"/><path class="cls-2" d="M564.52,885.6h-.11a5.71,5.71,0,0,0-5.71,5.76,5.79,5.79,0,1,0,5.82-5.76Z" transform="translate(-7.5 -7.5)"/><path class="cls-2" d="M841.61,897.12h-.11a5.71,5.71,0,0,0-5.71,5.76,5.79,5.79,0,1,0,5.82-5.76Z" transform="translate(-7.5 -7.5)"/><path class="cls-2" d="M763.81,530h-.11a5.71,5.71,0,0,0-5.72,5.76,5.8,5.8,0,1,0,5.83-5.76Z" transform="translate(-7.5 -7.5)"/><path class="cls-2" d="M864.65,643.68h-.11a5.71,5.71,0,0,0-5.71,5.76,5.79,5.79,0,1,0,5.82-5.76Z" transform="translate(-7.5 -7.5)"/><path class="cls-2" d="M711.45,695.92h-.11a5.71,5.71,0,0,0-5.72,5.76,5.8,5.8,0,1,0,5.83-5.76Z" transform="translate(-7.5 -7.5)"/><path class="cls-2" d="M739.9,649.84a57.6,57.6,0,1,0,57.6,57.6A57.67,57.67,0,0,0,739.9,649.84Zm0,103.68A46.08,46.08,0,1,1,786,707.44,46.14,46.14,0,0,1,739.9,753.52Z" transform="translate(-7.5 -7.5)"/><path class="cls-2" d="M757.18,672.88a17.28,17.28,0,1,0,17.28,17.28A17.3,17.3,0,0,0,757.18,672.88Zm0,23a5.76,5.76,0,1,1,5.76-5.76A5.77,5.77,0,0,1,757.18,695.92Z" transform="translate(-7.5 -7.5)"/><path class="cls-2" d="M643.9,856.92a5.76,5.76,0,0,0-5.76,5.76v46.08a5.76,5.76,0,0,0,11.52,0V862.68A5.76,5.76,0,0,0,643.9,856.92Z" transform="translate(-7.5 -7.5)"/><path class="cls-2" d="M655.42,880h-23a5.76,5.76,0,1,0,0,11.52h23a5.76,5.76,0,0,0,0-11.52Z" transform="translate(-7.5 -7.5)"/><path class="cls-2" d="M438.06,828a5.76,5.76,0,0,0-5.76,5.76v46.08a5.76,5.76,0,0,0,11.52,0V833.76A5.76,5.76,0,0,0,438.06,828Z" transform="translate(-7.5 -7.5)"/><path class="cls-2" d="M449.58,851h-23a5.76,5.76,0,0,0,0,11.52h23a5.76,5.76,0,0,0,0-11.52Z" transform="translate(-7.5 -7.5)"/><path class="cls-2" d="M438.06,217.44a5.76,5.76,0,0,0-5.76,5.76v46.08a5.76,5.76,0,0,0,11.52,0V223.2A5.75,5.75,0,0,0,438.06,217.44Z" transform="translate(-7.5 -7.5)"/><path class="cls-2" d="M449.58,240.48h-23a5.76,5.76,0,0,0,0,11.52h23a5.76,5.76,0,0,0,0-11.52Z" transform="translate(-7.5 -7.5)"/><path class="cls-2" d="M230.7,482.4a5.76,5.76,0,0,0-5.76,5.76v46.08a5.76,5.76,0,0,0,11.52,0V488.16A5.76,5.76,0,0,0,230.7,482.4Z" transform="translate(-7.5 -7.5)"/><path class="cls-2" d="M242.22,505.44h-23a5.76,5.76,0,0,0,0,11.52h23a5.76,5.76,0,0,0,0-11.52Z" transform="translate(-7.5 -7.5)"/><path class="cls-2" d="M362.89,344.45c-15.22-15.23-41.79-15.23-57,0a40.32,40.32,0,1,0,57,0Zm-8.15,48.87c-10.87,10.88-29.84,10.88-40.72,0a28.8,28.8,0,1,1,40.72,0Z" transform="translate(-7.5 -7.5)"/><path class="cls-2" d="M371,336.3a5.76,5.76,0,0,0-8.82,7.34c-.21,3.69-7.16,16.79-23.76,33.39s-29.7,23.55-33.39,23.76a5.76,5.76,0,0,0-7.34,8.82,9.37,9.37,0,0,0,6.9,2.66c14.05,0,36.84-21.95,42-27.09C352.72,379.06,382.66,347.92,371,336.3Z" transform="translate(-7.5 -7.5)"/><path class="cls-3" d="M611.64,609.76a4,4,0,0,0-8,.5,156,156,0,1,1-145.88-145.9,4,4,0,0,0,.5-8,163.79,163.79,0,0,0-126.23,47.7c-63.93,63.94-63.93,168,0,231.88A164,164,0,0,0,611.64,609.76Z" transform="translate(-7.5 -7.5)"/><path class="cls-3" d="M607.89,606A156,156,0,0,1,462,460.13a4,4,0,0,0-4.24-3.74,4,4,0,0,0-3.74,4.24A164,164,0,0,0,607.39,614h.25a4,4,0,0,0,.25-8Z" transform="translate(-7.5 -7.5)"/><path class="cls-3" d="M610.48,607.17,460.86,457.55a4,4,0,1,0-5.66,5.66L604.82,612.82a4,4,0,1,0,5.66-5.65Z" transform="translate(-7.5 -7.5)"/><path class="cls-3" d="M538.75,605a4,4,0,1,0-7.9,1.28A86.24,86.24,0,0,1,532,620a84,84,0,1,1-84-84,85,85,0,0,1,13.84,1.14,4,4,0,0,0,1.3-7.89A94.08,94.08,0,0,0,448,528a92,92,0,1,0,92,92A93.93,93.93,0,0,0,538.75,605Z" transform="translate(-7.5 -7.5)"/><path class="cls-3" d="M438.28,632.73a4,4,0,0,0-5.56,1l-28,40a4,4,0,0,0,1,5.56A3.88,3.88,0,0,0,408,680a4,4,0,0,0,3.28-1.71l28-40A4,4,0,0,0,438.28,632.73Z" transform="translate(-7.5 -7.5)"/><path class="cls-3" d="M444.86,641.71l-5.59-8a4,4,0,0,0-6.55,4.58l5.59,8a4,4,0,0,0,5.57,1A4,4,0,0,0,444.86,641.71Z" transform="translate(-7.5 -7.5)"/><path class="cls-3" d="M498.27,592.75a4,4,0,0,0-5.57,1l-56,80a4,4,0,0,0,6.55,4.59l56-80A4,4,0,0,0,498.27,592.75Z" transform="translate(-7.5 -7.5)"/><path class="cls-3" d="M527.25,633.71l-28-40a4,4,0,0,0-6.56,4.59l28,40A4,4,0,0,0,524,640a4,4,0,0,0,3.27-6.29Z" transform="translate(-7.5 -7.5)"/><path class="cls-3" d="M416,568a20,20,0,1,0,20,20A20,20,0,0,0,416,568Zm0,32h0a12,12,0,1,1,12-12A12,12,0,0,1,416,600Z" transform="translate(-7.5 -7.5)"/><path class="cls-3" d="M791.9,344.08a4,4,0,0,0-4,4v112a12,12,0,0,1-12,12H552a12,12,0,0,1-12-12v-144a12,12,0,0,1,12-12H743.91a4,4,0,0,0,0-8H552a20,20,0,0,0-20,20v144a20,20,0,0,0,20,20H775.91a20,20,0,0,0,20-20v-112A4,4,0,0,0,791.9,344.08Z" transform="translate(-7.5 -7.5)"/><path class="cls-3" d="M791.9,344.08a44,44,0,0,1-44-44,4,4,0,0,0-8,0,52.05,52.05,0,0,0,52,52,4,4,0,0,0,0-8Z" transform="translate(-7.5 -7.5)"/><path class="cls-3" d="M794.73,345.25l-48-48a4,4,0,1,0-5.65,5.66l48,48a4,4,0,0,0,5.65-5.66Z" transform="translate(-7.5 -7.5)"/><path class="cls-3" d="M588,336.08a16,16,0,1,0,16,16A16,16,0,0,0,588,336.08Zm0,24a8,8,0,1,1,8-8A8,8,0,0,1,588,360.08Z" transform="translate(-7.5 -7.5)"/><path class="cls-3" d="M618.44,392.94a4,4,0,0,0-5.62.63l-32,40a4,4,0,0,0,6.25,5l32-40A4,4,0,0,0,618.44,392.94Z" transform="translate(-7.5 -7.5)"/><path class="cls-3" d="M631.85,409.54l-12.78-16a4,4,0,1,0-6.25,5l12.78,16a4,4,0,1,0,6.25-5Z" transform="translate(-7.5 -7.5)"/><path class="cls-3" d="M690.43,353a4,4,0,0,0-5.63.63l-64,80a4,4,0,0,0,6.25,5l64-80A4,4,0,0,0,690.43,353Z" transform="translate(-7.5 -7.5)"/><path class="cls-3" d="M755,433.56l-64-80a4,4,0,1,0-6.25,5l64,80a4,4,0,0,0,3.13,1.5,4,4,0,0,0,2.49-.88A4,4,0,0,0,755,433.56Z" transform="translate(-7.5 -7.5)"/></svg>