<?xml version="1.0" encoding="utf-8"?>
<!-- Generator: Adobe Illustrator 24.2.3, SVG Export Plug-In . SVG Version: 6.00 Build 0)  -->
<svg version="1.1" id="Layer_1" xmlns="http://www.w3.org/2000/svg" xmlns:xlink="http://www.w3.org/1999/xlink" x="0px" y="0px"
	 viewBox="0 0 1152 866" style="enable-background:new 0 0 1152 866;" xml:space="preserve">
<style type="text/css">
	.st0{fill:url(#SVGID_1_);}
	.st1{fill:#F5F6F9;}
	.st2{fill:#F7F8FA;}
</style>
<linearGradient id="SVGID_1_" gradientUnits="userSpaceOnUse" x1="1257.5006" y1="550.8511" x2="1934.9708" y2="97.34" gradientTransform="matrix(0.232 0.9727 0.9727 -0.232 -157.436 -1036.7911)">
	<stop  offset="0" style="stop-color:#F5F6F9;stop-opacity:6.000000e-02"/>
	<stop  offset="1" style="stop-color:#F5F6F9"/>
</linearGradient>
<polygon class="st0" points="1149.3,-303.1 1432.4,883.8 -118.7,1253.8 -401.8,66.9 "/>
<path class="st1" d="M-288,260l24,21.3c24,21.7,72,63.7,120,64C-96,345-48,303,0,324s96,107,144,117.3c48,10.7,96-53.3,144-58.6
	c48-5.7,96,48.3,144,37.3s96-85,144-117.3c48-31.7,96-21.7,144,5.3s96,69,144,85.3c48,15.7,96,5.7,144-21.3s96-69,120-90.7l24-21.3
	v288h-24c-24,0-72,0-120,0s-96,0-144,0s-96,0-144,0s-96,0-144,0s-96,0-144,0s-96,0-144,0s-96,0-144,0s-96,0-144,0s-96,0-144,0
	s-96,0-120,0h-24V260z"/>
<rect x="0" y="548" class="st2" width="1152" height="318"/>
</svg>
