<svg id="Capa_1" data-name="Capa 1" xmlns="http://www.w3.org/2000/svg" viewBox="0 0 512 452.12"><defs><style>.cls-1{fill:#13dcaa;}.cls-2{fill:#07b27b;}.cls-3{fill:#0c1142;}.cls-4{fill:#0b0618;}.cls-5{fill:#c5dfff;}.cls-6{fill:#fff3ef;}</style></defs><path class="cls-1" d="M2.66,375.78l42-24.25v-50.6A22.23,22.23,0,0,1,66.88,278.7H444.39a22.23,22.23,0,0,1,22.23,22.23v158.9a22.23,22.23,0,0,1-22.23,22.23H66.88a22.23,22.23,0,0,1-22.23-22.23v-50.6L2.66,385a5.3,5.3,0,0,1,0-9.2Z" transform="translate(0 -29.94)"/><path class="cls-2" d="M193.79,278.7H66.88a22.23,22.23,0,0,0-22.23,22.23v50.6l-42,24.25a5.3,5.3,0,0,0,0,9.2l42,24.25v50.6a22.23,22.23,0,0,0,22.23,22.23H193.79V278.7Z" transform="translate(0 -29.94)"/><path class="cls-3" d="M509.34,127l-42-24.25V52.17a22.23,22.23,0,0,0-22.23-22.23H67.6A22.22,22.22,0,0,0,45.38,52.17v158.9A22.22,22.22,0,0,0,67.6,233.3H445.12a22.23,22.23,0,0,0,22.23-22.23v-50.6l42-24.25A5.3,5.3,0,0,0,509.34,127Z" transform="translate(0 -29.94)"/><path class="cls-4" d="M509.34,127l-42-24.25V52.17a22.23,22.23,0,0,0-22.23-22.23H319.19V233.3H445.12a22.23,22.23,0,0,0,22.23-22.23v-50.6l42-24.25a5.3,5.3,0,0,0,0-9.2Z" transform="translate(0 -29.94)"/><path class="cls-5" d="M155.68,85.14h-43.6a7.78,7.78,0,0,1,0-15.55h43.6a7.78,7.78,0,0,1,0,15.55Z" transform="translate(0 -29.94)"/><path class="cls-5" d="M240.77,195.71h-43.6a7.77,7.77,0,1,1,0-15.54h43.6a7.77,7.77,0,0,1,0,15.54Z" transform="translate(0 -29.94)"/><path class="cls-5" d="M242.33,122H112.08a7.77,7.77,0,1,1,0-15.54H242.33a7.77,7.77,0,0,1,0,15.54Z" transform="translate(0 -29.94)"/><path class="cls-5" d="M242.33,158.85H112.08a7.77,7.77,0,0,1,0-15.54H242.33a7.77,7.77,0,0,1,0,15.54Z" transform="translate(0 -29.94)"/><path class="cls-2" d="M315,333.9h-43.6a7.77,7.77,0,0,1,0-15.54H315a7.77,7.77,0,1,1,0,15.54Z" transform="translate(0 -29.94)"/><path class="cls-2" d="M398.75,444.47h-43.6a7.77,7.77,0,1,1,0-15.54h43.6a7.77,7.77,0,0,1,0,15.54Z" transform="translate(0 -29.94)"/><path class="cls-2" d="M399.92,370.76H269.67a7.78,7.78,0,0,1,0-15.55H399.92a7.78,7.78,0,0,1,0,15.55Z" transform="translate(0 -29.94)"/><path class="cls-2" d="M399.92,407.61H269.67a7.77,7.77,0,0,1,0-15.54H399.92a7.77,7.77,0,0,1,0,15.54Z" transform="translate(0 -29.94)"/><path class="cls-6" d="M389.27,182.5v-8c-13.64-1.48-23.59-9.34-23.59-27.78V112.46c0-20.64,12.53-28.14,28.75-28.14s28.88,7.5,28.88,28.14v34.28c0,18.31-10.07,26.3-23.84,27.78v8a4.83,4.83,0,0,1-5,5,4.93,4.93,0,0,1-5.16-5Zm18.07-70c0-9.58-4.92-14.13-12.91-14.13s-12.78,4.54-12.78,14.13v34.28c0,7.26,2.71,11.56,7.62,13.15v-6.51c0-3.44,2.58-4.91,5.16-4.91s5,1.47,5,4.91v6.51c4.92-1.59,7.87-5.89,7.87-13.15Z" transform="translate(0 -29.94)"/><path class="cls-6" d="M83.28,415a7.49,7.49,0,0,1,.25-1.22l23.72-77.3c1.1-3.68,5.65-5.4,10.2-5.4s9.21,1.72,10.32,5.4l23.71,77.3a5.08,5.08,0,0,1,.25,1.22c0,3.81-5.78,6.64-10.08,6.64-2.7,0-4.79-.86-5.4-3.19l-4.67-16.35H103.44L98.77,418.4c-.62,2.33-2.71,3.19-5.41,3.19C89.06,421.59,83.28,418.89,83.28,415Zm44.86-25.43-10.69-37.73-10.7,37.73Z" transform="translate(0 -29.94)"/></svg>