<svg id="Layer_1" data-name="Layer 1" xmlns="http://www.w3.org/2000/svg" xmlns:xlink="http://www.w3.org/1999/xlink" viewBox="0 0 676.73 441.3"><defs><style>.cls-1{fill:none;}.cls-2{fill:#ebebeb;}.cls-3{fill:#e0e0e0;}.cls-4{fill:#f5f5f5;}.cls-5{fill:#fafafa;}.cls-6{fill:#263238;}.cls-7{fill:#6831e4;}.cls-8{clip-path:url(#clip-path);}.cls-9{opacity:0.8;}.cls-10{opacity:0.7;}.cls-11{opacity:0.5;}.cls-12{opacity:0.3;}.cls-13{opacity:0.1;}.cls-14{fill:#455a64;}.cls-15{opacity:0.6;}.cls-16{fill:#fff;}.cls-17{fill:#ffbe9d;}</style><clipPath id="clip-path" transform="translate(88.37 -29.35)"><path class="cls-1" d="M294,214.26a73.5,73.5,0,1,1,105.42,1.59l37,36.12a124.25,124.25,0,1,0-176.2-1.15Z"/></clipPath></defs><g id="freepik--background-complete--inject-5"><path class="cls-2" d="M579.72,327.17s-6.78-2.94-11.61,12.93S562,364.81,562,364.81s-1.41,3.4-3.86,1.78-6.32-6.76-9.69-5.11-4,6-2.2,12,5.21,19.05,5.5,20.24-.06,3-1.91,2.2-13.18-9.69-17-4.06,3.79,21.32,4.6,23.05.59,2.57-.19,3.13-4.32-2.72-7.64-5.11-7.6-4.57-9.57-1.12-.55,16,14.85,34l7.68,7.89,10.77-2.55c22.72-6.84,30.7-16.63,30.91-20.57s-4.57-4.43-8.66-4.23-8.85,1-9.18.17-.07-1.75,1.55-2.78,16.57-10.06,16.35-16.89-14.52-5.52-16.53-5.81-1.3-2.09-.41-2.88,10.88-10,15.64-14,6.65-7.93,4.62-11.26-8-1-10.91-1-2.28-3.58-2.28-3.58,3.7-8.18,8.23-24.14-3.05-17.07-3.05-17.07" transform="translate(88.37 -29.35)"/><path class="cls-3" d="M575.38,341.37a1,1,0,0,1-.09.33l-.26,1.05c-.24.87-.58,2.14-1,3.77-.91,3.28-2.26,8-3.94,13.88-3.38,11.69-8.18,27.81-13.55,45.6s-10.19,33.9-13.63,45.59c-1.71,5.83-3.13,10.55-4.06,13.84l-1.11,3.75-.29,1-.12.32a1.24,1.24,0,0,1,.07-.33,10,10,0,0,0,.26-1c.25-.88.6-2.15,1-3.78.9-3.28,2.25-8,3.94-13.87,3.38-11.7,8.17-27.82,13.55-45.62s10.19-33.89,13.63-45.57l4.05-13.84c.48-1.62.86-2.88,1.11-3.76.13-.41.23-.74.3-1A2.93,2.93,0,0,1,575.38,341.37Z" transform="translate(88.37 -29.35)"/><path class="cls-3" d="M553.54,368.91a4,4,0,0,1,.41.69c.24.45.57,1.12,1,1.94.8,1.64,1.86,3.94,3,6.51s2.09,4.8,2.82,6.57c.33.78.62,1.43.85,2a2.42,2.42,0,0,1,.28.75,3.18,3.18,0,0,1-.4-.69c-.25-.45-.59-1.11-1-1.94-.78-1.65-1.81-4-2.91-6.53s-2.09-4.78-2.86-6.54l-.87-2A2.7,2.7,0,0,1,553.54,368.91Z" transform="translate(88.37 -29.35)"/><path class="cls-3" d="M562.87,387.36c0-.1,4.6-2.47,10.42-5.3s10.5-5.07,10.54-5-4.6,2.47-10.42,5.3S562.93,387.45,562.87,387.36Z" transform="translate(88.37 -29.35)"/><path class="cls-3" d="M553.42,414.31a3.64,3.64,0,0,1,.79-.19l2.18-.38c1.84-.33,4.37-.79,7.15-1.39s5.28-1.23,7.09-1.7l2.09-.55a4.38,4.38,0,0,1,.8-.17,3.34,3.34,0,0,1-.76.3c-.49.18-1.22.41-2.09.67-1.78.54-4.28,1.21-7.06,1.81s-5.35,1.05-7.2,1.3c-.93.12-1.68.22-2.2.26A3,3,0,0,1,553.42,414.31Z" transform="translate(88.37 -29.35)"/><path class="cls-3" d="M541.3,399.49a6.21,6.21,0,0,1,.54.52l1.36,1.53c1.14,1.3,2.68,3.12,4.38,5.13s3.2,3.85,4.29,5.21c.54.68,1,1.22,1.27,1.6a4.38,4.38,0,0,1,.43.63,2.76,2.76,0,0,1-.55-.53l-1.35-1.52c-1.14-1.31-2.69-3.13-4.38-5.13s-3.21-3.86-4.3-5.22c-.54-.66-1-1.22-1.26-1.6A3.81,3.81,0,0,1,541.3,399.49Z" transform="translate(88.37 -29.35)"/><path class="cls-3" d="M529.93,422.22a4.37,4.37,0,0,1,.68.68l1.75,2c1.46,1.66,3.46,4,5.66,6.54s4.17,4.9,5.58,6.6c.66.81,1.21,1.49,1.66,2a4.82,4.82,0,0,1,.56.78,4.37,4.37,0,0,1-.68-.68l-1.75-2c-1.46-1.66-3.46-4-5.66-6.52s-4.17-4.9-5.58-6.6l-1.6-2A4.65,4.65,0,0,1,529.93,422.22Z" transform="translate(88.37 -29.35)"/><path class="cls-3" d="M545.57,440.24a5.46,5.46,0,0,1,1-.26l2.74-.59c2.32-.5,5.52-1.19,9-2.08s6.66-1.72,9-2.36l2.7-.75a6.27,6.27,0,0,1,1-.24,6.73,6.73,0,0,1-1,.38c-.63.22-1.53.52-2.67.86-2.26.71-5.41,1.61-8.92,2.47s-6.73,1.53-9.06,1.95c-1.16.21-2.09.38-2.77.47A4.11,4.11,0,0,1,545.57,440.24Z" transform="translate(88.37 -29.35)"/><rect class="cls-4" x="215.86" y="339.4" width="135.64" height="62.56"/><path class="cls-3" d="M259.91,428.4H130.63V372.1H259.91Zm-128.47-.84H259.07V372.93H131.44Z" transform="translate(88.37 -29.35)"/><rect class="cls-3" x="351.5" y="339.4" width="33.13" height="62.56"/><path class="cls-3" d="M131,389.46H259.47a.17.17,0,0,0,.13-.21.17.17,0,0,0-.13-.13H131a.17.17,0,0,0-.13.21A.15.15,0,0,0,131,389.46Z" transform="translate(88.37 -29.35)"/><path class="cls-3" d="M195.67,389.3a143.91,143.91,0,0,0,.05-17,.17.17,0,0,0-.18-.17.18.18,0,0,0-.18.17,141.8,141.8,0,0,0,.06,17,.12.12,0,0,0,.12.12.12.12,0,0,0,.13-.12Z" transform="translate(88.37 -29.35)"/><path class="cls-3" d="M230.28,380.8a1.75,1.75,0,1,1-1.75-1.75h0A1.75,1.75,0,0,1,230.28,380.8Z" transform="translate(88.37 -29.35)"/><path class="cls-3" d="M162.82,380.8a1.75,1.75,0,1,1-1.75-1.75h0A1.74,1.74,0,0,1,162.82,380.8Z" transform="translate(88.37 -29.35)"/><path class="cls-3" d="M197,400.19a1.75,1.75,0,1,1-1.75-1.75h0A1.75,1.75,0,0,1,197,400.19Z" transform="translate(88.37 -29.35)"/><polygon class="cls-3" points="232.07 401.95 225.08 441.23 229.01 441.23 241.89 401.95 232.07 401.95"/><polygon class="cls-3" points="341.91 401.95 347.75 441.29 343.81 441.29 332.08 401.95 341.91 401.95"/><polygon class="cls-3" points="368.13 401.95 374.75 441.29 370.82 441.29 358.31 401.95 368.13 401.95"/><path class="cls-3" d="M196.92,417.9a1.76,1.76,0,1,1-1.75-1.76h0A1.76,1.76,0,0,1,196.92,417.9Z" transform="translate(88.37 -29.35)"/><path class="cls-3" d="M131,408.83H259.47a.16.16,0,0,0,.13-.21.17.17,0,0,0-.13-.13H131a.17.17,0,0,0-.13.22A.15.15,0,0,0,131,408.83Z" transform="translate(88.37 -29.35)"/><rect class="cls-2" x="551.55" y="34.99" width="85.76" height="115.02"/><rect class="cls-5" x="556.01" y="39.52" width="76.83" height="105.98"/><rect class="cls-2" x="580.91" y="76.18" width="29.33" height="33.52"/><rect class="cls-2" x="599.96" y="177.28" width="74.7" height="55.7"/><rect class="cls-5" x="602.9" y="180.18" width="68.82" height="49.9"/><rect class="cls-2" x="626.71" y="194.86" width="21.77" height="19.05"/><rect class="cls-2" x="2.12" y="79.42" width="54.41" height="72.98"/><rect class="cls-5" x="4.95" y="82.28" width="48.75" height="67.25"/><rect class="cls-2" x="20.75" y="105.55" width="18.61" height="21.27"/><polygon class="cls-2" points="304.99 303.85 301.28 338.26 348.8 338.26 352.74 303.85 304.99 303.85"/><polygon class="cls-5" points="306.94 306.32 303.33 336.44 346.21 336.44 349.68 306.32 306.94 306.32"/><polygon class="cls-3" points="314.15 311.38 311.93 331.37 339 331.37 340.38 311.38 314.15 311.38"/><polyline class="cls-4" points="351.04 318.67 360.85 338.4 348.8 338.26 351.19 317.38"/></g><g id="freepik--Floor--inject-5"><path class="cls-6" d="M567.69,470.38c0,.14-146.88.27-328,.27s-328-.13-328-.27,146.85-.27,328-.27S567.69,470.23,567.69,470.38Z" transform="translate(88.37 -29.35)"/></g><g id="freepik--Loading--inject-5"><rect class="cls-2" x="85.8" y="27.28" width="392.29" height="258.22"/><path class="cls-6" d="M389.73,314.86c0-1.78-.08-100.72-.22-258.23l.22.22H-2.53l.27-.27V314.8l-.25-.25,392.3.25L-2.51,315h-.25V56.3h.3l392.27.07h.2v.21C389.8,214.14,389.73,313.09,389.73,314.86Z" transform="translate(88.37 -29.35)"/><path class="cls-6" d="M389.73,79.61c0,.14-87.82.27-196.14.27S-2.56,79.75-2.56,79.61s87.81-.27,196.15-.27S389.73,79.46,389.73,79.61Z" transform="translate(88.37 -29.35)"/><rect class="cls-3" x="122.36" y="88.46" width="328.87" height="45.01"/><rect class="cls-3" x="116.73" y="212.18" width="73.01" height="73.01"/><rect class="cls-3" x="203.03" y="212.18" width="73.01" height="73.01"/><rect class="cls-3" x="286.76" y="212.18" width="73.01" height="73.01"/><path class="cls-7" d="M158.91,210.59H79.77a12.06,12.06,0,0,1-12.06-12.06h0a12.06,12.06,0,0,1,12.06-12h79.14A12.06,12.06,0,0,1,171,198.59h0A12.08,12.08,0,0,1,158.91,210.59Z" transform="translate(88.37 -29.35)"/><path class="cls-6" d="M251.43,210.59l1-.08a10.57,10.57,0,0,0,1.31-.2,12,12,0,0,0-.33-23.55,45.06,45.06,0,0,0-5.81-.17H227.84l-148.16.08a11.78,11.78,0,0,0-.78,23.54c1.67.08,3.42,0,5.12,0h39.33l66.61.06,44.91.09,12.21,0h0l-12.21.05-44.91.09H78.86a12.6,12.6,0,0,1-5-1.44,12.33,12.33,0,0,1,5.87-23.18l148.16.07h19.81a41,41,0,0,1,5.86.21,12.18,12.18,0,0,1,9.88,14.12c0,.13,0,.25-.07.37a12.39,12.39,0,0,1-3.37,6.14,12.18,12.18,0,0,1-4.37,2.75,15.5,15.5,0,0,1-1.77.5c-.53.07-1,.15-1.32.17Z" transform="translate(88.37 -29.35)"/><path class="cls-6" d="M145.83,219h.91l-1.11,5.52h3.42l-.15.78h-4.32Z" transform="translate(88.37 -29.35)"/><path class="cls-6" d="M149.74,223.32a2.72,2.72,0,0,1,2.62-2.82h.18a2,2,0,0,1,2.23,1.78c0,.1,0,.2,0,.31a2.73,2.73,0,0,1-2.62,2.82H152a2.07,2.07,0,0,1-2.23-1.92A1,1,0,0,1,149.74,223.32Zm4.17-.71a1.24,1.24,0,0,0-1.14-1.35h-.28a1.89,1.89,0,0,0-1.87,1.89.62.62,0,0,0,0,.13,1.26,1.26,0,0,0,1.16,1.35H152a1.87,1.87,0,0,0,1.87-1.87c0-.05,0-.1,0-.14Z" transform="translate(88.37 -29.35)"/><path class="cls-6" d="M160.9,220.55l-.94,4.77h-.84l.12-.59a2.34,2.34,0,0,1-1.68.65,2,2,0,0,1-2.09-1.85v-.23a2.68,2.68,0,0,1,2.52-2.82h.18a1.81,1.81,0,0,1,1.72.86l.16-.81Zm-1.29,2.09a1.25,1.25,0,0,0-1.16-1.35h-.27a1.89,1.89,0,0,0-1.86,1.9s0,.08,0,.12a1.26,1.26,0,0,0,1.16,1.35h.26a1.86,1.86,0,0,0,1.87-1.86,1.09,1.09,0,0,0,0-.18Z" transform="translate(88.37 -29.35)"/><path class="cls-6" d="M167.42,218.65l-1.33,6.67h-.83l.12-.59a2.36,2.36,0,0,1-1.69.65,2,2,0,0,1-2.09-1.85v-.23a2.7,2.7,0,0,1,2.54-2.82h.16a1.83,1.83,0,0,1,1.74.87l.54-2.72Zm-1.68,4a1.24,1.24,0,0,0-1.14-1.35h-.27a1.89,1.89,0,0,0-1.88,1.89s0,.08,0,.13a1.26,1.26,0,0,0,1.16,1.35h.27a1.87,1.87,0,0,0,1.86-1.87A.61.61,0,0,0,165.74,222.61Z" transform="translate(88.37 -29.35)"/><path class="cls-6" d="M168.67,220.55h.87l-.94,4.77h-.88Zm.15-1.43a.59.59,0,0,1,.58-.61h0a.53.53,0,0,1,.55.5h0a.62.62,0,0,1-.59.63h0a.54.54,0,0,1-.54-.52Z" transform="translate(88.37 -29.35)"/><path class="cls-6" d="M175.36,222.09a3.55,3.55,0,0,1-.06.56l-.53,2.67h-.86l.53-2.67a2.67,2.67,0,0,0,0-.4c0-.62-.36-1-1.11-1a1.69,1.69,0,0,0-1.76,1.53l-.51,2.51h-.86l.94-4.77H172l-.13.61a2.38,2.38,0,0,1,1.73-.66,1.53,1.53,0,0,1,1.76,1.25A1.88,1.88,0,0,1,175.36,222.09Z" transform="translate(88.37 -29.35)"/><path class="cls-6" d="M181.9,220.55l-.81,4.17a2.61,2.61,0,0,1-2.77,2.46h-.09a3.36,3.36,0,0,1-2.18-.67l.48-.66a2.69,2.69,0,0,0,1.77.57,1.7,1.7,0,0,0,1.89-1.48v-.07l.08-.34a2.41,2.41,0,0,1-1.73.65,1.91,1.91,0,0,1-2.08-1.72,1.55,1.55,0,0,1,0-.22,2.63,2.63,0,0,1,2.57-2.68h.15a1.86,1.86,0,0,1,1.78.93l.18-.87Zm-1.32,1.94c0-.76-.52-1.23-1.42-1.23a1.81,1.81,0,0,0-1.87,1.73.33.33,0,0,0,0,.14c0,.77.53,1.24,1.42,1.24a1.8,1.8,0,0,0,1.87-1.74v-.14Z" transform="translate(88.37 -29.35)"/><path class="cls-6" d="M184.73,224.8a.63.63,0,0,1,.59-.66h.05a.56.56,0,0,1,.56.56v0a.63.63,0,0,1-.6.66h0a.58.58,0,0,1-.57-.57Z" transform="translate(88.37 -29.35)"/><path class="cls-6" d="M186.77,224.8a.63.63,0,0,1,.6-.66h0a.56.56,0,0,1,.56.56v0a.63.63,0,0,1-.59.66h0a.58.58,0,0,1-.58-.57Z" transform="translate(88.37 -29.35)"/><path class="cls-6" d="M188.81,224.8a.63.63,0,0,1,.61-.66h0a.57.57,0,0,1,.57.56v0a.63.63,0,0,1-.6.66h0A.58.58,0,0,1,188.81,224.8Z" transform="translate(88.37 -29.35)"/><path class="cls-6" d="M12.38,69.23A2.88,2.88,0,1,1,9.5,66.36h0A2.87,2.87,0,0,1,12.38,69.23Z" transform="translate(88.37 -29.35)"/><path class="cls-6" d="M24.64,69.23a2.88,2.88,0,1,1-2.88-2.87h0A2.87,2.87,0,0,1,24.64,69.23Z" transform="translate(88.37 -29.35)"/><path class="cls-6" d="M36.86,69.23A2.88,2.88,0,1,1,34,66.36h0A2.87,2.87,0,0,1,36.86,69.23Z" transform="translate(88.37 -29.35)"/></g><g id="freepik--Character--inject-5"><circle class="cls-4" cx="437.21" cy="137.11" r="136.91"/><path class="cls-6" d="M485.71,166.46s0-.75-.08-2.22c0-.74-.05-1.64-.08-2.73a33.16,33.16,0,0,0-.19-3.77c-.19-1.42-.24-3-.39-4.79s-.46-3.68-.72-5.75A142,142,0,0,0,481.48,133a138,138,0,0,0-5.61-17.19,130.21,130.21,0,0,0-9.53-19.27A138.24,138.24,0,0,0,431.6,57.68,136.27,136.27,0,0,0,374,32.14a138.76,138.76,0,0,0-53.57.61,134.76,134.76,0,0,0-36,13.16,141.75,141.75,0,0,0-16.83,10.67,137.05,137.05,0,0,0-40.07,47c-.78,1.6-1.68,3.13-2.38,4.79L223,113.21c-1.32,3.33-2.68,6.66-3.77,10.1A133.49,133.49,0,0,0,214,144.45a148.56,148.56,0,0,0-1.79,22,148.68,148.68,0,0,0,1.78,22,135.1,135.1,0,0,0,5.22,21.16l.87,2.55.43,1.28.49,1.25q1,2.53,2,5l2.21,4.88c.7,1.64,1.6,3.19,2.38,4.78a135.29,135.29,0,0,0,11.14,17.95,148.66,148.66,0,0,0,13.47,15.75,149.83,149.83,0,0,0,15.42,13.29A146.92,146.92,0,0,0,284.49,287a135.15,135.15,0,0,0,36,13.15,138.76,138.76,0,0,0,53.57.61,136.37,136.37,0,0,0,57.56-25.55,138.12,138.12,0,0,0,34.75-38.88,130.65,130.65,0,0,0,9.52-19.27,134.31,134.31,0,0,0,5.65-17.18c1.3-5.29,2.2-10,2.79-14.18.25-2.08.53-4,.72-5.74s.26-3.36.37-4.79.17-2.69.19-3.77.06-2,.08-2.73a21.2,21.2,0,0,1,.09-2.23v2.23c0,.73,0,1.64-.07,2.73s0,2.35-.16,3.78-.22,3-.36,4.79-.44,3.68-.69,5.75A139.7,139.7,0,0,1,481.76,200a137.52,137.52,0,0,1-15.1,36.62,138.58,138.58,0,0,1-34.77,39,136.49,136.49,0,0,1-57.73,25.62,139.53,139.53,0,0,1-53.76-.57,135.07,135.07,0,0,1-36.2-13.19,145.93,145.93,0,0,1-16.91-10.7,149,149,0,0,1-15.49-13.34,147.9,147.9,0,0,1-13.55-15.81,135,135,0,0,1-11.2-18c-.78-1.59-1.68-3.12-2.39-4.79l-2.22-4.9c-.66-1.68-1.31-3.35-2-5l-.5-1.26-.43-1.28-.88-2.58a134.65,134.65,0,0,1-5.21-21.24,136.32,136.32,0,0,1,0-44.16,134.8,134.8,0,0,1,5.21-21.23c1.1-3.45,2.47-6.78,3.79-10.13l2.22-4.9c.71-1.65,1.61-3.2,2.39-4.8a134.81,134.81,0,0,1,11.2-18A145.75,145.75,0,0,1,251.8,69.46,150.61,150.61,0,0,1,267.3,56.2a143.25,143.25,0,0,1,16.91-10.74,134.85,134.85,0,0,1,36.2-13.19,138.89,138.89,0,0,1,53.75-.58,136.72,136.72,0,0,1,57.71,25.69,138.14,138.14,0,0,1,34.77,39,130.74,130.74,0,0,1,9.51,19.33A135.3,135.3,0,0,1,481.72,133a144.52,144.52,0,0,1,2.74,14.21c.25,2.08.52,4,.69,5.75s.25,3.37.36,4.8.2,2.73.2,3.77,0,2,.07,2.74C485.71,165.67,485.71,166.46,485.71,166.46Z" transform="translate(88.37 -29.35)"/><g class="cls-8"><path class="cls-7" d="M294,214.26a73.5,73.5,0,1,1,105.42,1.59l37,36.12a124.25,124.25,0,1,0-176.2-1.15Z" transform="translate(88.37 -29.35)"/><g class="cls-9"><path d="M413.86,163.19h66.82s-6.76,54.39-8.11,55.4-40.88,46.63-40.88,46.63l-44.94-53.38Z" transform="translate(88.37 -29.35)"/></g><g class="cls-10"><polygon points="484.2 88.85 531.48 42.44 564.77 92.11 569.21 133.84 503.03 133.84 490.98 107.31 484.2 88.85"/></g><g class="cls-11"><path d="M351.75,101.37c-.8-1.36,0-66.9,0-66.9l40.75,5.12L442.67,72l-48.2,47.3-30.35-4.39Z" transform="translate(88.37 -29.35)"/></g><g class="cls-12"><path d="M254.7,74.34c1,.34,44.93,47.29,44.93,47.29l39.19-15.53L351.4,90.46l.35-55.95L305,39.63Z" transform="translate(88.37 -29.35)"/></g><g class="cls-13"><path d="M220.2,163.19c1,.68,74.32,0,74.32,0l-1.29-48.25L257.85,77.41,233.71,106.1Z" transform="translate(88.37 -29.35)"/></g></g><circle class="cls-3" cx="438.6" cy="137.11" r="28.53"/><path class="cls-14" d="M341.84,168.37h0a8.09,8.09,0,0,0,10,5.52L451,145.74l-102.4,12.32a8.1,8.1,0,0,0-7.06,9A7,7,0,0,0,341.84,168.37Z" transform="translate(88.37 -29.35)"/><path class="cls-6" d="M335,228.16l-5.46,27.69h-7.23l2.85-14.6-9.22,11.86H312.5l-5.07-11.85-2.92,14.6h-7.2l5.53-27.68h6.37l6.56,16,12.51-16Z" transform="translate(88.37 -29.35)"/><path class="cls-6" d="M361.65,234.41l-4.28,21.44h-7.12l.44-2a8.82,8.82,0,0,1-6.21,2.37c-4.62,0-9.06-3.51-9.06-9.77,0-7.11,5.22-12.37,11.63-12.37,2.89,0,5.21.87,6.57,2.93l.51-2.58Zm-9.46,9.77a3.8,3.8,0,0,0-3.44-4.11,4.42,4.42,0,0,0-.63,0c-3,0-5.11,2.41-5.11,6a3.76,3.76,0,0,0,3.43,4.07,3.53,3.53,0,0,0,.65,0c3,0,5.11-2.41,5.11-6Z" transform="translate(88.37 -29.35)"/><path class="cls-6" d="M378.33,245.21l5.8,10.64h-8l-2.93-5.61L368,255.85h-8.45l10.72-10.94-5.66-10.43h7.87l2.85,5.47,5.1-5.47h8.31Z" transform="translate(88.37 -29.35)"/><path class="cls-6" d="M386.14,252.09a4.65,4.65,0,0,1,4.53-4.78H391a3.94,3.94,0,0,1,4.17,3.72,2.41,2.41,0,0,1,0,.38,4.66,4.66,0,0,1-4.55,4.79h-.23a4,4,0,0,1-4.21-3.87A1.92,1.92,0,0,1,386.14,252.09Z" transform="translate(88.37 -29.35)"/><path class="cls-6" d="M336.44,276.55h8.64l-.42,2.15H332.24l.35-1.68,8.41-6.73c2.33-1.88,3-3,3-4.43s-1-2.49-3.38-2.49a6.18,6.18,0,0,0-4.47,1.92l-1.63-1.43a8.68,8.68,0,0,1,6.46-2.65c3.51,0,5.51,1.79,5.51,4.33,0,2-.87,3.73-3.83,6.07Z" transform="translate(88.37 -29.35)"/><path class="cls-6" d="M353.31,263.56l-1.43,4.74h1.68c4.42,0,6.42,1.83,6.42,4.62,0,3.58-2.94,6-7.36,6a8.13,8.13,0,0,1-6.05-2.17l1.3-1.91a6.55,6.55,0,0,0,4.92,1.88c3,0,4.72-1.31,4.72-3.51,0-1.7-1.23-2.74-4.39-2.74H349l2.69-9h9.76l-.43,2.15Z" transform="translate(88.37 -29.35)"/><path class="cls-6" d="M362.34,272.55c0-6,3.39-11.34,8.75-11.34,3.63,0,5.83,2.35,5.83,6.35,0,6-3.41,11.34-8.72,11.34C364.54,278.9,362.34,276.55,362.34,272.55Zm12.11-4.93c0-2.75-1.34-4.17-3.56-4.17-3.9,0-6.07,5.06-6.07,9.09,0,2.74,1.33,4.17,3.58,4.17C372.27,276.7,374.45,271.64,374.45,267.62Z" transform="translate(88.37 -29.35)"/><polygon class="cls-7" points="586.53 419.41 590.96 426.56 602.24 413.52 596.3 407.22 586.53 419.41"/><path class="cls-6" d="M512.87,441.54a9.88,9.88,0,0,1-1.51,2c-1,1.19-2.43,2.79-4,4.52l-4.17,4.4a12,12,0,0,1-1.82,1.74,11.85,11.85,0,0,1,1.52-2c1-1.19,2.44-2.79,4-4.52l4.17-4.4A12.41,12.41,0,0,1,512.87,441.54Z" transform="translate(88.37 -29.35)"/><path class="cls-6" d="M502.49,442.22a11.56,11.56,0,0,1,2.77,2.35,12.54,12.54,0,0,1,2.39,2.75,12.29,12.29,0,0,1-2.77-2.36A12.49,12.49,0,0,1,502.49,442.22Z" transform="translate(88.37 -29.35)"/><g class="cls-15"><polyline class="cls-16" points="590.96 426.56 602.24 413.52 601.13 412.33 589.6 424.98 590.81 426.43"/></g><path class="cls-7" d="M409.17,465.84v-1.76l17.81.14V470l-1,.07c-4.9.23-24.92.82-28.15-.12C394.06,468.91,409.17,465.84,409.17,465.84Z" transform="translate(88.37 -29.35)"/><g class="cls-15"><path class="cls-16" d="M420.55,469.85a5.68,5.68,0,0,1,2.3-3.51,6.3,6.3,0,0,1,4.17-1.16v4.6Z" transform="translate(88.37 -29.35)"/></g><g class="cls-15"><path class="cls-16" d="M401.79,467.58s-5.3,1.39-4.65,2.2,20.9.92,29.83.23v-.36l-23.62.06S402.82,467.63,401.79,467.58Z" transform="translate(88.37 -29.35)"/></g><path class="cls-6" d="M427.24,469.64h-1.19l-3.23.11c-2.72.08-6.48.14-10.64.12s-7.92-.11-10.64-.21l-3.23-.15-.87-.05h.87l3.23.07c2.73.08,6.48.14,10.64.16s7.91,0,10.64,0l3.23-.05Z" transform="translate(88.37 -29.35)"/><path class="cls-6" d="M403.35,470a6.39,6.39,0,0,0-.58-1.44,7.1,7.1,0,0,0-1-1.14,2.22,2.22,0,0,1,1.27,1A2.07,2.07,0,0,1,403.35,470Z" transform="translate(88.37 -29.35)"/><path class="cls-6" d="M408.56,467.53a4.12,4.12,0,0,1-.55-.63c-.26-.38-.42-.72-.37-.74s.3.25.56.63S408.64,467.5,408.56,467.53Z" transform="translate(88.37 -29.35)"/><path class="cls-6" d="M410,466.83a2.5,2.5,0,0,1-.62-.39c-.31-.26-.51-.5-.47-.54a1.52,1.52,0,0,1,.61.39C409.86,466.55,410.07,466.79,410,466.83Z" transform="translate(88.37 -29.35)"/><path class="cls-6" d="M411,465.28a2.09,2.09,0,0,1-.93.1,2.21,2.21,0,0,1-.92-.09,2.06,2.06,0,0,1,.92-.1A2.1,2.1,0,0,1,411,465.28Z" transform="translate(88.37 -29.35)"/><path class="cls-6" d="M411.27,464.19a2.07,2.07,0,0,1-1,.27,2,2,0,0,1-1-.14,6,6,0,0,1,1-.06A4.51,4.51,0,0,1,411.27,464.19Z" transform="translate(88.37 -29.35)"/><path class="cls-6" d="M408,466.08a3.12,3.12,0,0,1-1.14,0,6.35,6.35,0,0,1-1.21-.25,2.91,2.91,0,0,1-.69-.27.59.59,0,0,1-.29-.33.41.41,0,0,1,.18-.42,2.21,2.21,0,0,1,2.59.57,2.17,2.17,0,0,1,.36.71v.3a2.55,2.55,0,0,0-.51-.91,2.15,2.15,0,0,0-1-.6A1.88,1.88,0,0,0,405,465c-.18.11-.12.31.08.43a4.64,4.64,0,0,0,.65.26,9.37,9.37,0,0,0,1.16.29C407.52,466.05,408,466.05,408,466.08Z" transform="translate(88.37 -29.35)"/><path class="cls-6" d="M407.71,466.14a.94.94,0,0,1-.13-.73,1.73,1.73,0,0,1,.32-.78,1.14,1.14,0,0,1,1-.54.42.42,0,0,1,.35.48h0a1.2,1.2,0,0,1-.2.48,3.33,3.33,0,0,1-.54.64,1.8,1.8,0,0,1-.66.43,5.94,5.94,0,0,0,.54-.53,3.33,3.33,0,0,0,.49-.63c.16-.23.26-.63,0-.68s-.57.24-.75.45a1.58,1.58,0,0,0-.33.69A2.41,2.41,0,0,0,407.71,466.14Z" transform="translate(88.37 -29.35)"/><path class="cls-6" d="M426.91,465.12H425.6a6.06,6.06,0,0,0-2.87,1.05,5.2,5.2,0,0,0-1.8,2.34c-.28.7-.32,1.18-.36,1.17a.92.92,0,0,1,0-.33,4.44,4.44,0,0,1,.21-.89A5.22,5.22,0,0,1,422.6,466a5.73,5.73,0,0,1,3-1,5.35,5.35,0,0,1,1,0A1.3,1.3,0,0,1,426.91,465.12Z" transform="translate(88.37 -29.35)"/><path class="cls-6" d="M418.33,468.23a15.19,15.19,0,0,1-5.21,0c0-.06,1.16,0,2.58,0S418.32,468.18,418.33,468.23Z" transform="translate(88.37 -29.35)"/><path class="cls-6" d="M421.8,468.24s-.09.23-.22.48-.17.46-.24.46-.09-.26,0-.54S421.77,468.21,421.8,468.24Z" transform="translate(88.37 -29.35)"/><path class="cls-6" d="M423.16,466.74a1,1,0,0,1-.26.38c-.19.16-.37.28-.41.24s.07-.21.26-.38S423.09,466.7,423.16,466.74Z" transform="translate(88.37 -29.35)"/><path class="cls-6" d="M425,466.05c0,.05-.25.05-.51.14s-.44.22-.5.17.11-.26.43-.36S425,466,425,466.05Z" transform="translate(88.37 -29.35)"/><path class="cls-6" d="M426.35,465.73s-.08.13-.23.19-.28.06-.3,0,.08-.14.23-.19A.34.34,0,0,1,426.35,465.73Z" transform="translate(88.37 -29.35)"/><path class="cls-17" d="M401.84,234.27,374.32,206.4l3.5-36.32.62-.72c.35-.39.73-.83,1.19-1.31a7.13,7.13,0,0,1,1.83-1.34,10.77,10.77,0,0,1,2.62-1c.87-.11,1.15-1.21.46-1.57s-3.06-.09-5.44,1.42-.93-2.62-.44-4.17,1.83-6.26,1.47-6.77c-.5-.74-1.42-.32-1.89,1.19s-2.16,6-3,5.71,1.87-7.94,1.87-7.94.83-1.55-.07-1.9c-1.63-.65-3.83,7.69-4,8.49-.12.55-1,.28-.82-.31s2.81-7.59,1.16-8.25c-1.27-.51-1.88,6.84-3.24,8s1.05-5.53-.18-6c-.46-.17-.84-.23-1.65,3.8a82.84,82.84,0,0,0-1.57,8.43h0l-8.65,43.38,27.11,35.86Z" transform="translate(88.37 -29.35)"/><path class="cls-17" d="M415.86,154.45c-1.14.65,2.42,6.82.88,5.93s-3.47-8-4.61-7.3c-1.51,1,2.33,7.35,2.61,7.91s-.53,1-.76.45c-.33-.75-4-8.55-5.47-7.63-.82.51.27,1.88.27,1.88s4,7.07,3.25,7.48-3.2-3.65-3.94-5.09-1.7-1.66-2.08-.83c-.25.56,1.9,5,2.66,6.39s2.91,5.21.3,4.17-5-.9-5.6-.42-.14,1.5.73,1.46a10.83,10.83,0,0,1,2.77.57,6.6,6.6,0,0,1,2.09,1c.53.38,1,.75,1.4,1l.75.59L426,208.75l-13.5,31.44L433.41,248l9.38-41.57L421.22,166h0a79.65,79.65,0,0,0-3.06-8C416.64,154.09,416.29,154.2,415.86,154.45Z" transform="translate(88.37 -29.35)"/><path class="cls-14" d="M462.57,377.18l-13.56-70-19.2,1.66v-.16l-35.07,3.18s-1.65,80.34-2.23,80.34l9.61,73.24h0l27.69-1.26-10.7-72.91,3.94-58.5.8-1,16,59.79L494.4,453.3l17.72-17.18Z" transform="translate(88.37 -29.35)"/><path class="cls-6" d="M419.81,380.27a3.11,3.11,0,0,1,0-.61c0-.44,0-1,.06-1.71.08-1.55.19-3.68.33-6.25.33-5.37.79-12.66,1.29-20.72.51-7.3,1-14,1.33-19.1v-.06h0l4.81-5.71,1.34-1.54c.31-.35.48-.53.5-.51a4.78,4.78,0,0,1-.41.59l-1.25,1.6L423.16,332v-.12c-.32,5.11-.74,11.79-1.2,19.1-.56,8.06-1,15.34-1.45,20.71-.21,2.59-.37,4.71-.5,6.25-.07.69-.13,1.25-.17,1.7A2.14,2.14,0,0,1,419.81,380.27Z" transform="translate(88.37 -29.35)"/><path class="cls-6" d="M429.77,308.72a41.52,41.52,0,0,1,.27,6.69,41.56,41.56,0,0,1-.27,6.69,83,83,0,0,1,0-13.38Z" transform="translate(88.37 -29.35)"/><path class="cls-6" d="M406.12,314.76a3.59,3.59,0,0,1,.87-.14l2.55-.31c2.22-.26,5.42-.61,9.26-1h.26v11.54l-.14.08-.2.09-6.67,3.34-.13.06-.12-.07L406,324.88l-.11-.08v-.11c0-3,.09-5.44.11-7.3l.06-2a2.43,2.43,0,0,1,0-.66,6.27,6.27,0,0,1,.05.74v2c0,1.79.07,4.22.12,7.14l-.12-.2,5.84,3.37h-.24l6.68-3.32.2-.1-.15.25V313.55l.27.24c-3.76.34-6.9.59-9.15.75l-2.61.19Z" transform="translate(88.37 -29.35)"/><path class="cls-6" d="M433.13,312.13A5,5,0,0,1,434,312l2.56-.31,9.25-1.05h.26v11.55l-.15.07-.2.1-6.69,3.3-.13,0-.12-.06-5.8-3.44-.1-.07v-.08c0-3,.08-5.44.11-7.3v-2a3.64,3.64,0,0,1,0-.66,6.3,6.3,0,0,1,0,.75v2c0,1.79.06,4.22.12,7.14l-.12-.19,5.84,3.37h-.07l6.68-3.32.2-.09-.16.24v-11.1l.26.24c-3.75.33-6.9.58-9.14.75l-2.62.18A5.32,5.32,0,0,1,433.13,312.13Z" transform="translate(88.37 -29.35)"/><path class="cls-6" d="M419.07,316.33a77.83,77.83,0,0,1-12.95.6,38,38,0,0,1,6.47-.57A38.94,38.94,0,0,1,419.07,316.33Z" transform="translate(88.37 -29.35)"/><path class="cls-6" d="M445.83,313.87a77.19,77.19,0,0,1-12.7,1,36.38,36.38,0,0,1,6.32-.77A38.89,38.89,0,0,1,445.83,313.87Z" transform="translate(88.37 -29.35)"/><path class="cls-6" d="M416.9,390.69a74.06,74.06,0,0,1-12.59,1.55A74.06,74.06,0,0,1,416.9,390.69Z" transform="translate(88.37 -29.35)"/><path class="cls-6" d="M460.82,378.69c0,.16-3,1.22-6.46,3.13s-6,3.95-6.08,3.83a7.16,7.16,0,0,1,1.56-1.45,29.89,29.89,0,0,1,8.92-4.94A6.72,6.72,0,0,1,460.82,378.69Z" transform="translate(88.37 -29.35)"/><path class="cls-6" d="M401.84,136.48a2.38,2.38,0,0,1-.2-.39l-.56-1.14c-.24-.5-.52-1.15-.9-1.87l-1.36-2.49c-.52-.92-1.17-1.91-1.85-3s-1.54-2.22-2.44-3.43a65.27,65.27,0,0,0-6.89-7.59,60.26,60.26,0,0,0-22.87-13.34,54.61,54.61,0,0,0-15.49-2.51A60,60,0,0,0,317,109.29a55.58,55.58,0,0,0-12.2,9.89,60.61,60.61,0,0,0-13.22,22.94,66.83,66.83,0,0,0-2.21,10c-.17,1.49-.31,2.9-.4,4.17s-.13,2.47-.12,3.53,0,2,.07,2.83.11,1.51.14,2.08.07,1,.1,1.28v.43a3.1,3.1,0,0,1-.08-.42c0-.32-.08-.74-.13-1.28s-.16-1.25-.21-2.08-.06-1.77-.11-2.84,0-2.25.07-3.55.19-2.7.36-4.17A65.24,65.24,0,0,1,291.17,142a60.41,60.41,0,0,1,13.22-23.16,55.07,55.07,0,0,1,12.29-10,60.2,60.2,0,0,1,32.54-8.66,55.4,55.4,0,0,1,15.64,2.56,60.48,60.48,0,0,1,23,13.56,66,66,0,0,1,6.87,7.68c.89,1.23,1.7,2.39,2.42,3.48s1.31,2.09,1.82,3.05l1.31,2.52c.37.73.63,1.38.86,1.9s.38.88.51,1.16C401.71,136.22,401.78,136.35,401.84,136.48Z" transform="translate(88.37 -29.35)"/><path class="cls-6" d="M390.05,133.6a3.2,3.2,0,0,1-.49-.61c-.32-.42-.72-1.05-1.34-1.84a52,52,0,0,0-15.32-13.68A50,50,0,0,0,344,110.64,52,52,0,0,0,324.16,116c-.88.41-1.54.81-2,1a4.74,4.74,0,0,1-.72.34,4.3,4.3,0,0,1,.67-.44,18.63,18.63,0,0,1,2-1.12,47.51,47.51,0,0,1,7.7-3.28,50.45,50.45,0,0,1,51.2,12.1,47.05,47.05,0,0,1,5.42,6.36c.59.79,1,1.46,1.26,1.89C389.79,133.14,389.93,133.37,390.05,133.6Z" transform="translate(88.37 -29.35)"/><path class="cls-7" d="M442.8,255.9,438,281.1c10.11,14,11,26.06,11,26.06l-54.27,4.67c1-8.52,6.25-26.94,6.25-26.94L393.07,258l-15.79-20.53,15.64-14.11c-.3.79,14.69,9.46,14.69,9.46l21.54.19a17.52,17.52,0,0,1,3.13.62l10.52-27.29s8.13,12,5.41,26.66c-1.95,10.43-1.57,12.9-5.41,22.94" transform="translate(88.37 -29.35)"/><path class="cls-6" d="M403.43,236.76a4.43,4.43,0,0,1,.8.93,15.82,15.82,0,0,1,1.62,3,14.18,14.18,0,0,1,1,4.9,12.26,12.26,0,0,1-1.28,6,10.61,10.61,0,0,1-4.17,4.53,10,10,0,0,1-4.86,1.3,8.56,8.56,0,0,1-3.31-.64,5.39,5.39,0,0,1-.83-.42c-.17-.11-.27-.18-.26-.19a10.73,10.73,0,0,0,4.4.86,9.82,9.82,0,0,0,4.61-1.34,10.48,10.48,0,0,0,3.93-4.34,12.06,12.06,0,0,0,1.27-5.75,14.71,14.71,0,0,0-.93-4.78A29.92,29.92,0,0,0,403.43,236.76Z" transform="translate(88.37 -29.35)"/><path class="cls-6" d="M440.93,255.11c-.09,0,.38-1.05.84-2.7a19.57,19.57,0,0,0-1-13.21c-.72-1.59-1.34-2.49-1.27-2.54s.21.19.52.59a13.14,13.14,0,0,1,1,1.78,17.75,17.75,0,0,1,1.87,6.64,17.49,17.49,0,0,1-.8,6.85,11.28,11.28,0,0,1-.79,1.94C441.11,254.9,441,255.13,440.93,255.11Z" transform="translate(88.37 -29.35)"/><g class="cls-12"><path d="M433.66,279.59a2.16,2.16,0,0,0-2.16-.28,16.22,16.22,0,0,1-3.65.75c-2.32.06-4.42-1.26-6.57-2.15s-4.87-1.3-6.57.29a3.74,3.74,0,0,0-.55,4.65,3.62,3.62,0,0,0,2.27,1.48h0c5.43,1.53,10.09.41,15.39-1.72a4,4,0,0,0,1.74-1.1A1.51,1.51,0,0,0,433.66,279.59Z" transform="translate(88.37 -29.35)"/></g><g class="cls-12"><path d="M393.83,223.14a14.66,14.66,0,0,0-3.35,10.14c.36,3.63,2.82,7.16,6.34,8.09,2.42.64,5.06.07,7.43.87,4.36,1.47,6.68,7.19,11.28,7.6,4.17.38,7.18-3.83,11.06-5.37a29.72,29.72,0,0,1,6.35-1.23c4.41-.72,8.75-2.85,11.32-6.49s3-9,.31-12.52c-2.86-3.81-8.18-4.75-12.95-4.75a54.52,54.52,0,0,0-21.08,4.25,13.55,13.55,0,0,0-4,2.35,5.47,5.47,0,0,0-1.91,4.11" transform="translate(88.37 -29.35)"/></g><path class="cls-6" d="M455.9,220.25a5.41,5.41,0,0,0-3.38-4.3c-2.09-.81-4.55-.23-6.59-1.14-2.56-1.14-3.63-4.17-4.28-6.85s-1.26-5.72-3.46-7.44c-1.52-1.19-3.53-1.55-5.21-2.57-2.43-1.49-3.75-4.22-5.41-6.55a13.35,13.35,0,0,0-2.22-2.41l-.1-.13c-3.53-4.25-12.94-4.81-17-1l.16-.15c-7.59.57-12.41,12.84-12.52,20.6,0,4.84,1.52,9.9-.31,14.37-1,2.61-3.19,4.7-4,7.39a8.22,8.22,0,0,0,14.44,7.3c-.12,2,1.51,3.71,3.37,4.38a13.92,13.92,0,0,0,5.85.35c4.18-.34,9.08-1,11.23-4.7,1.45,2.18,4.3,3.07,6.91,2.88a21.23,21.23,0,0,0,7.42-1.52,3.87,3.87,0,0,1-.27-.43,7.23,7.23,0,0,0,1.12-.54c2-1.22,3.25-3.87,2.31-6l2.27,2.64a9.08,9.08,0,0,0,3.8-11.47,10.88,10.88,0,0,1,3.57,2.39A5.45,5.45,0,0,0,455.9,220.25Z" transform="translate(88.37 -29.35)"/><path class="cls-14" d="M454.94,223.48a3.78,3.78,0,0,0-.49-2.46,5.13,5.13,0,0,0-2.2-2,12.26,12.26,0,0,0-3.87-.89,15.77,15.77,0,0,1-4.84-1.05,5.7,5.7,0,0,1-2.21-1.74,8.44,8.44,0,0,1-1.34-2.64c-.65-1.92-.8-4-1.43-6.05a9,9,0,0,0-1.42-2.85,4.61,4.61,0,0,0-2.62-1.69c-1-.26-2.21-.24-3.34-.47a5.41,5.41,0,0,1-3-1.61c-1.58-1.64-2.21-3.75-2.9-5.57a12.4,12.4,0,0,0-2.81-4.7,11.08,11.08,0,0,0-10.87-3,22.74,22.74,0,0,0-2.44.86,2.63,2.63,0,0,1,.58-.35,9.94,9.94,0,0,1,1.8-.72,11.18,11.18,0,0,1,7.07.21,11.4,11.4,0,0,1,4.17,2.66,12.47,12.47,0,0,1,3,4.85c.71,1.85,1.35,3.87,2.83,5.37a4.91,4.91,0,0,0,2.7,1.47c1,.21,2.2.18,3.37.47a5.26,5.26,0,0,1,2.92,1.92,9.26,9.26,0,0,1,1.49,3c.65,2.09.78,4.17,1.41,6a6.28,6.28,0,0,0,3.26,4.17,15.41,15.41,0,0,0,4.69,1,12.1,12.1,0,0,1,4,1,5,5,0,0,1,2.24,2.08,3.52,3.52,0,0,1,.46,1.9A2.09,2.09,0,0,1,454.94,223.48Z" transform="translate(88.37 -29.35)"/><path class="cls-14" d="M441.61,238.51a4.18,4.18,0,0,0,.58-.35,2.85,2.85,0,0,0,1-1.52,4,4,0,0,0-.18-2.9,7.07,7.07,0,0,0-2.76-2.77c-1.25-.79-2.8-1.39-4.32-2.36a8,8,0,0,1-2.08-1.85,7.88,7.88,0,0,1-1.35-2.7,45.6,45.6,0,0,1-.8-6.26c-.26-2.08-.91-4.37-2.76-5.65s-4.17-1.65-5.83-3.34a10.81,10.81,0,0,1-2.54-5.76c-.32-2-.45-3.87-.9-5.56a12.92,12.92,0,0,0-2.09-4.34,13.85,13.85,0,0,0-5.47-4.32c-1.54-.64-2.47-.76-2.46-.83a3.08,3.08,0,0,1,.67.09,11.13,11.13,0,0,1,1.87.55,13.34,13.34,0,0,1,5.69,4.29,12.77,12.77,0,0,1,2.23,4.45c.48,1.73.62,3.64,1,5.58a10.28,10.28,0,0,0,2.41,5.49c1.45,1.53,3.8,1.91,5.77,3.26a6.38,6.38,0,0,1,2.16,2.76,12.17,12.17,0,0,1,.81,3.26,43.91,43.91,0,0,0,.75,6.16,7.15,7.15,0,0,0,1.2,2.52,7.43,7.43,0,0,0,2,1.78c1.46.94,3,1.57,4.29,2.4a7.17,7.17,0,0,1,2.82,3,4.16,4.16,0,0,1,.11,3.12,3,3,0,0,1-1.19,1.55A2,2,0,0,1,441.61,238.51Z" transform="translate(88.37 -29.35)"/><path class="cls-14" d="M416.43,240.79a3.62,3.62,0,0,0,.69-2.08,5.94,5.94,0,0,0-.54-2.49c-.4-.92-1-1.89-1.58-3.12a6.14,6.14,0,0,1-.44-4.17,22.65,22.65,0,0,1,1.92-4.47,10.4,10.4,0,0,0,1.36-5,8.71,8.71,0,0,0-1.82-5.14c-1.15-1.54-2.57-2.85-3.68-4.37a9.83,9.83,0,0,1-1.36-2.43,9.69,9.69,0,0,1-.53-2.61,21.27,21.27,0,0,1,.37-4.85,39.13,39.13,0,0,0,.6-4.17,9.64,9.64,0,0,0-1.11-5.79,8.39,8.39,0,0,0-1.4-1.69,2,2,0,0,1,.48.34,5.21,5.21,0,0,1,1.1,1.24A9.52,9.52,0,0,1,411.8,196a39,39,0,0,1-.53,4.17,20.29,20.29,0,0,0-.32,4.73,9.06,9.06,0,0,0,.52,2.48,9.63,9.63,0,0,0,1.29,2.3c1.05,1.46,2.51,2.75,3.69,4.36a9.12,9.12,0,0,1,1.92,5.45,10.86,10.86,0,0,1-1.45,5.21A22.92,22.92,0,0,0,415,229a5.73,5.73,0,0,0,.35,4c.51,1.16,1.13,2.16,1.51,3.13a6,6,0,0,1,.47,2.62,3.24,3.24,0,0,1-.5,1.59A1.57,1.57,0,0,1,416.43,240.79Z" transform="translate(88.37 -29.35)"/><path class="cls-14" d="M398.14,239.94a1.31,1.31,0,0,1-.31-.5,2.58,2.58,0,0,1,0-1.69,4.61,4.61,0,0,1,1.59-2.15,23.46,23.46,0,0,0,2.67-2.2,7.28,7.28,0,0,0,1.71-3.68,8.54,8.54,0,0,0-.74-4.62,10.78,10.78,0,0,1-1.05-5.33,18.42,18.42,0,0,1,2-5.47,11.45,11.45,0,0,0,1.39-5.4,23.25,23.25,0,0,0-1.12-5.22,15.81,15.81,0,0,1-.25-9.09,10.18,10.18,0,0,1,3.4-5.09,8,8,0,0,1,1.41-.9,1.9,1.9,0,0,1,.56-.21,14.92,14.92,0,0,0-1.87,1.26,10.34,10.34,0,0,0-3.13,5,15.66,15.66,0,0,0,.37,8.84,22.78,22.78,0,0,1,1.17,5.28,11.82,11.82,0,0,1-1.43,5.67,18.66,18.66,0,0,0-1.94,5.3,10.18,10.18,0,0,0,1,5.09,13.12,13.12,0,0,1,.72,2.44,7.51,7.51,0,0,1-1.88,6.29,20.83,20.83,0,0,1-2.76,2.18,4.43,4.43,0,0,0-1.57,2,2.52,2.52,0,0,0-.12,1.58C398.06,239.76,398.19,239.93,398.14,239.94Z" transform="translate(88.37 -29.35)"/></g><g id="freepik--Plants--inject-5"><path class="cls-6" d="M-32.45,441.83a2,2,0,0,1,.19-.46l.61-1.32a32.64,32.64,0,0,0,1.83-5.28c1.19-4.69,1.61-11.85-.16-20.37a108.76,108.76,0,0,0-3.79-13.68c-1.59-4.85-3.45-10-5-15.57a60.32,60.32,0,0,1-2.45-17.91c.23-6.34,2.09-12.67,4.17-19s4.17-12.51,4.82-18.67a28.44,28.44,0,0,0-3.38-17.24c-2.73-5-6.16-9.33-8.74-13.79a48.2,48.2,0,0,1-5.21-13.25,49.21,49.21,0,0,1-.32-20.54,38.72,38.72,0,0,1,2.08-7.3,3.37,3.37,0,0,1-.12.48l-.44,1.4a50.36,50.36,0,0,0-1.32,5.42,49.88,49.88,0,0,0,.52,20.43,47.21,47.21,0,0,0,5.21,13.09c2.56,4.4,6,8.68,8.8,13.77a29.07,29.07,0,0,1,3.53,17.59c-.64,6.31-2.79,12.51-4.84,18.77S-40.34,361-40.61,367.2a60.07,60.07,0,0,0,2.4,17.73c1.49,5.53,3.33,10.7,4.91,15.56a104,104,0,0,1,3.71,13.77c1.74,8.58,1.25,15.81,0,20.51a30.89,30.89,0,0,1-1.93,5.28c-.3.54-.52,1-.68,1.29A3.75,3.75,0,0,1-32.45,441.83Z" transform="translate(88.37 -29.35)"/><path class="cls-7" d="M-40.87,303s-5.21-16.68,4.17-26.47a.58.58,0,0,1,.8-.14.56.56,0,0,1,.25.43C-35.23,279.55-34.6,288-40.87,303Z" transform="translate(88.37 -29.35)"/><path class="cls-6" d="M-37.74,282.08a14.84,14.84,0,0,1-.35,3.12c-.35,2.09-.74,4.61-1.19,7.37s-.84,5.21-1.17,7.36A16.68,16.68,0,0,1-41,303a13.67,13.67,0,0,1,.09-3.13c.17-1.9.51-4.53,1-7.41s1-5.47,1.39-7.3A14.07,14.07,0,0,1-37.74,282.08Z" transform="translate(88.37 -29.35)"/><path class="cls-7" d="M-34.74,342.35s3.19-17.19,16.05-21.46a.56.56,0,0,1,.73.35.52.52,0,0,1,0,.37C-18.79,324.28-22.17,332-34.74,342.35Z" transform="translate(88.37 -29.35)"/><path class="cls-6" d="M-22.19,325.33a16.08,16.08,0,0,1-1.75,2.56l-4.5,5.95-4.47,5.94a15.55,15.55,0,0,1-1.92,2.43,13.52,13.52,0,0,1,1.53-2.69c1-1.6,2.58-3.77,4.34-6.1s3.42-4.37,4.65-5.83A14.17,14.17,0,0,1-22.19,325.33Z" transform="translate(88.37 -29.35)"/><path class="cls-7" d="M-38.21,385.49s-1.94-17.38,9.13-25.19a.57.57,0,0,1,.8.12.54.54,0,0,1,.11.35C-28.2,363.58-29.19,371.94-38.21,385.49Z" transform="translate(88.37 -29.35)"/><path class="cls-6" d="M-31.15,365.57a15.31,15.31,0,0,1-.93,2.95l-2.57,7-2.56,7a15.76,15.76,0,0,1-1.12,2.88,13.18,13.18,0,0,1,.69-3c.53-1.83,1.36-4.34,2.37-7.09s2-5.21,2.76-6.94A14.32,14.32,0,0,1-31.15,365.57Z" transform="translate(88.37 -29.35)"/><path class="cls-7" d="M-28.53,428.88s-1.32-17.44,10-24.84a.56.56,0,0,1,.79.15.53.53,0,0,1,.1.35C-17.75,407.33-19,415.66-28.53,428.88Z" transform="translate(88.37 -29.35)"/><path class="cls-6" d="M-20.76,409.22a15.28,15.28,0,0,1-1,2.93c-.81,2-1.77,4.32-2.82,6.9l-2.8,6.9a16.34,16.34,0,0,1-1.23,2.85,12.9,12.9,0,0,1,.8-3c.59-1.82,1.52-4.3,2.62-7s2.19-5.11,3-6.84A14.46,14.46,0,0,1-20.76,409.22Z" transform="translate(88.37 -29.35)"/><path class="cls-7" d="M-48.37,288.31s-15.51-8.1-15.81-21.63a.59.59,0,0,1,.57-.6.59.59,0,0,1,.34.1C-61,267.77-54.59,273.27-48.37,288.31Z" transform="translate(88.37 -29.35)"/><path class="cls-6" d="M-61,271.33A14.62,14.62,0,0,1-59,273.76l4.38,6,4.38,6a16.49,16.49,0,0,1,1.77,2.54,12.41,12.41,0,0,1-2.08-2.26c-1.23-1.47-2.85-3.56-4.55-5.93s-3.19-4.56-4.17-6.16A14.32,14.32,0,0,1-61,271.33Z" transform="translate(88.37 -29.35)"/><path class="cls-7" d="M-31.72,324.15s-16-7.15-17.09-20.64a.58.58,0,0,1,.51-.63.6.6,0,0,1,.35.08C-45.55,304.43-38.83,309.55-31.72,324.15Z" transform="translate(88.37 -29.35)"/><path class="cls-6" d="M-45.32,308a15.81,15.81,0,0,1,2.09,2.31c1.36,1.66,3,3.62,4.73,5.76l4.74,5.76a18,18,0,0,1,1.92,2.43,12.12,12.12,0,0,1-2.26-2.09c-1.31-1.38-3.06-3.37-4.91-5.64s-3.45-4.35-4.59-5.9A14.34,14.34,0,0,1-45.32,308Z" transform="translate(88.37 -29.35)"/><path class="cls-7" d="M-40.91,364.15s-11-13.63-5.82-26.15a.57.57,0,0,1,.73-.35.52.52,0,0,1,.32.26C-44.22,340.28-40.57,347.87-40.91,364.15Z" transform="translate(88.37 -29.35)"/><path class="cls-6" d="M-45.64,343.55a16.29,16.29,0,0,1,.8,3c.45,2.09,1,4.57,1.59,7.3s1.13,5.21,1.6,7.3a17.29,17.29,0,0,1,.6,3,12.57,12.57,0,0,1-1.05-2.92c-.54-1.83-1.18-4.4-1.8-7.3s-1-5.45-1.4-7.29A14.89,14.89,0,0,1-45.64,343.55Z" transform="translate(88.37 -29.35)"/><path class="cls-7" d="M-30,411.21s-15.85-7.41-16.75-20.91a.57.57,0,0,1,.52-.63.59.59,0,0,1,.36.09C-43.54,391.25-36.91,396.45-30,411.21Z" transform="translate(88.37 -29.35)"/><path class="cls-6" d="M-43.37,394.8a16,16,0,0,1,2.09,2.34l4.63,5.85,4.65,5.82a17.15,17.15,0,0,1,1.87,2.46,12.79,12.79,0,0,1-2.32-2.15c-1.28-1.42-3-3.44-4.81-5.73s-3.38-4.42-4.48-6A14.17,14.17,0,0,1-43.37,394.8Z" transform="translate(88.37 -29.35)"/><path class="cls-6" d="M1.52,342.44a2.54,2.54,0,0,1,0,.39v1.11c0,1.05-.12,2.48-.19,4.25-.21,3.73-.49,8.92-.84,15.15h0c-1.13,6.32-4.35,13.34-8.68,20.15-3.13,5-6.51,9.58-9.38,13.82a96.83,96.83,0,0,0-7,11.62,50.11,50.11,0,0,0-3.29,8.53c-.28,1-.49,1.86-.6,2.42a4,4,0,0,1-.24.84,6.12,6.12,0,0,1,.1-.86c.09-.58.25-1.4.49-2.47A46.19,46.19,0,0,1-25,408.73a93.79,93.79,0,0,1,7-11.75c2.84-4.27,6.16-8.84,9.32-13.83,4.3-6.78,7.51-13.69,8.68-19.92h0c.44-6.25.8-11.4,1-15.13.14-1.76.25-3.18.34-4.23a9.66,9.66,0,0,1,.11-1.11C1.46,342.44,1.49,342.44,1.52,342.44Z" transform="translate(88.37 -29.35)"/><path class="cls-7" d="M-7.92,382.22s6.7-16.15-1.73-26.73a.56.56,0,0,0-.79-.17.55.55,0,0,0-.25.36C-11.41,358.38-12.8,366.69-7.92,382.22Z" transform="translate(88.37 -29.35)"/><path class="cls-6" d="M-9.14,361.12a14.33,14.33,0,0,1,.53,3.05c.23,1.9.5,4.54.71,7.44s.3,5.56.3,7.47a12.62,12.62,0,0,1-.18,3.13,17.35,17.35,0,0,1-.28-3.13c-.14-2.15-.31-4.66-.5-7.44s-.36-5.3-.52-7.44A15.11,15.11,0,0,1-9.14,361.12Z" transform="translate(88.37 -29.35)"/><g class="cls-12"><path d="M-7.92,382.22s6.7-16.15-1.73-26.73a.56.56,0,0,0-.79-.17.55.55,0,0,0-.25.36C-11.41,358.38-12.8,366.69-7.92,382.22Z" transform="translate(88.37 -29.35)"/></g><path class="cls-7" d="M-28.71,421.11s5.38-16.69-3.89-26.52a.6.6,0,0,0-.82-.11.62.62,0,0,0-.22.39C-34.12,397.67-34.83,406.06-28.71,421.11Z" transform="translate(88.37 -29.35)"/><path class="cls-6" d="M-31.64,400.25a13.07,13.07,0,0,1,.78,3c.39,1.86.87,4.47,1.32,7.35s.75,5.51.9,7.42a12.15,12.15,0,0,1,.07,3.13,17.49,17.49,0,0,1-.53-3.06c-.31-2.08-.68-4.62-1-7.37s-.8-5.21-1.12-7.37A16.22,16.22,0,0,1-31.64,400.25Z" transform="translate(88.37 -29.35)"/><g class="cls-12"><path d="M-28.71,421.11s5.38-16.69-3.89-26.52a.6.6,0,0,0-.82-.11.62.62,0,0,0-.22.39C-34.12,397.67-34.83,406.06-28.71,421.11Z" transform="translate(88.37 -29.35)"/></g><path class="cls-7" d="M.62,362.48S15,352.45,13.5,339a.56.56,0,0,0-.61-.52.53.53,0,0,0-.34.15C10.46,340.49,4.84,346.76.62,362.48Z" transform="translate(88.37 -29.35)"/><g class="cls-12"><path d="M.62,362.48S15,352.45,13.5,339a.56.56,0,0,0-.61-.52.53.53,0,0,0-.34.15C10.46,340.49,4.84,346.76.62,362.48Z" transform="translate(88.37 -29.35)"/></g><path class="cls-6" d="M10.91,344a12.8,12.8,0,0,1-1.19,2.86c-.81,1.74-2,4.09-3.39,6.66S3.61,358.39,2.59,360a12.91,12.91,0,0,1-1.83,2.51,17.44,17.44,0,0,1,1.42-2.75l3.58-6.54,3.55-6.55A15.91,15.91,0,0,1,10.91,344Z" transform="translate(88.37 -29.35)"/><path class="cls-7" d="M-22.93,404.64S-5.65,402-1,389.23a.58.58,0,0,0-.34-.75.63.63,0,0,0-.36,0C-4.41,389.23-12.22,392.38-22.93,404.64Z" transform="translate(88.37 -29.35)"/><g class="cls-12"><path d="M-22.93,404.64S-5.65,402-1,389.23a.58.58,0,0,0-.34-.75.63.63,0,0,0-.36,0C-4.41,389.23-12.22,392.38-22.93,404.64Z" transform="translate(88.37 -29.35)"/></g><path class="cls-6" d="M-5.55,392.6a14.1,14.1,0,0,1-2.34,2.09c-1.49,1.2-3.6,2.79-6,4.48s-4.58,3.13-6.26,4.17a12.43,12.43,0,0,1-2.74,1.46A15.46,15.46,0,0,1-20.37,403l6.08-4.3,6.08-4.32A15.77,15.77,0,0,1-5.55,392.6Z" transform="translate(88.37 -29.35)"/><polygon class="cls-14" points="48.95 407.1 43.91 441.03 75.33 441.03 71.25 407.1 48.95 407.1"/><path class="cls-6" d="M-15.85,447c0,.18-5.68.33-12.67.33s-12.67-.15-12.67-.33,5.66-.32,12.67-.32S-15.85,446.79-15.85,447Z" transform="translate(88.37 -29.35)"/><path class="cls-6" d="M-15.24,449.66c0,.18-5.85.33-13.07.33s-13.09-.15-13.09-.33,5.85-.32,13.09-.32S-15.24,449.49-15.24,449.66Z" transform="translate(88.37 -29.35)"/><path class="cls-7" d="M544.1,425a8.59,8.59,0,0,0-5.21,4.23,15,15,0,0,0-1.73,6.63c-.27,4.46,1.47,9.3,3.54,13.25,4.23-2.59,6-8,6.79-10.88,1.16-4.46.57-13.25-3.36-13.23" transform="translate(88.37 -29.35)"/><path class="cls-7" d="M535.2,455.51a7.32,7.32,0,0,0-1.16-7.3,9.77,9.77,0,0,0-6.71-3.42,4.08,4.08,0,0,0-3.34.87,3.13,3.13,0,0,0-.59,3.13,6.53,6.53,0,0,0,1.93,2.68c2.85,2.55,6.07,4.49,9.87,4" transform="translate(88.37 -29.35)"/><path class="cls-6" d="M537.62,469.76a4.61,4.61,0,0,0,0-.91v-2.52a25.79,25.79,0,0,0-1.17-8.18,15.79,15.79,0,0,0-4.55-6.86,10.68,10.68,0,0,0-2.08-1.4l-.63-.28-.22-.06a16.6,16.6,0,0,1,2.79,1.91,16.15,16.15,0,0,1,4.4,6.8,27.71,27.71,0,0,1,1.26,8.08c.05,1.05.09,1.91.13,2.51A5.58,5.58,0,0,0,537.62,469.76Z" transform="translate(88.37 -29.35)"/><path class="cls-6" d="M544,431.7a2.36,2.36,0,0,0-.1.38l-.26,1.12c-.22,1-.52,2.38-.88,4.12-.72,3.48-1.63,8.34-2.52,13.66s-1.59,10.21-2.08,13.74c-.23,1.76-.4,3.19-.52,4.17a9,9,0,0,1-.11,1.13,1.41,1.41,0,0,0,0,.41,2.57,2.57,0,0,0,.08-.4c0-.29.11-.66.17-1.12.16-1,.37-2.44.62-4.17.51-3.51,1.25-8.34,2.13-13.72s1.78-10.18,2.43-13.67c.33-1.72.59-3.13.78-4.17.09-.46.15-.83.2-1.13S544,431.7,544,431.7Z" transform="translate(88.37 -29.35)"/><path class="cls-7" d="M541.11,459.31a17.19,17.19,0,0,1,11.33-10.82c1.33-.37,3-.47,3.86.61s.35,2.69-.37,3.88a14.6,14.6,0,0,1-14.79,6.7" transform="translate(88.37 -29.35)"/><path class="cls-6" d="M551.16,452.54a4.22,4.22,0,0,0-.85.21,7.2,7.2,0,0,0-1,.32c-.42.15-.83.32-1.24.51a13.26,13.26,0,0,0-1.45.75,15.46,15.46,0,0,0-1.58,1.05,19.07,19.07,0,0,0-3.13,2.89,18.57,18.57,0,0,0-2.38,3.58c-.27.56-.52,1.14-.74,1.73a14.7,14.7,0,0,0-.5,1.55c-.14.48-.19.93-.28,1.32a7.22,7.22,0,0,0-.14,1,4.22,4.22,0,0,0,0,.87c.07,0,.15-1.22.69-3.13a13,13,0,0,1,.54-1.52,13.38,13.38,0,0,1,.75-1.69,18,18,0,0,1,5.46-6.37,16.07,16.07,0,0,1,1.54-1c.46-.28.93-.54,1.41-.77C550,452.93,551.18,452.61,551.16,452.54Z" transform="translate(88.37 -29.35)"/></g></svg>