<svg id="Layer_1" data-name="Layer 1" xmlns="http://www.w3.org/2000/svg" xmlns:xlink="http://www.w3.org/1999/xlink" viewBox="0 0 750 500"><defs><style>.cls-1{fill:none;}.cls-2{fill:#ebebeb;}.cls-3{fill:#e0e0e0;}.cls-4{fill:#f5f5f5;}.cls-5{fill:#fafafa;}.cls-6{fill:#263238;}.cls-7{fill:#6831e4;}.cls-8{clip-path:url(#clip-path);}.cls-9{opacity:0.8;}.cls-10{opacity:0.7;}.cls-11{opacity:0.5;}.cls-12{opacity:0.3;}.cls-13{opacity:0.1;}.cls-14{fill:#455a64;}.cls-15{opacity:0.6;}.cls-16{fill:#fff;}.cls-17{fill:#ffbe9d;}</style><clipPath id="clip-path"><path class="cls-1" d="M418.1,228.6a70.5,70.5,0,1,1,101.11,1.53l35.48,34.64a119.17,119.17,0,1,0-169-1.1Z"/></clipPath></defs><g id="freepik--background-complete--inject-5"><path class="cls-2" d="M692.17,336.9s-6.51-2.82-11.14,12.4-5.89,23.7-5.89,23.7-1.35,3.26-3.7,1.71-6.06-6.48-9.3-4.9-3.82,5.8-2.11,11.48,5,18.27,5.28,19.41-.06,2.91-1.83,2.11-12.64-9.29-16.35-3.89,3.64,20.45,4.42,22.11.56,2.46-.19,3-4.14-2.61-7.32-4.9-7.29-4.38-9.18-1.08-.53,15.33,14.24,32.64l7.37,7.57,10.33-2.44c21.79-6.56,29.44-15.95,29.64-19.73s-4.38-4.25-8.3-4.06-8.49,1-8.81.16-.06-1.68,1.49-2.66,15.89-9.65,15.68-16.2-13.93-5.3-15.85-5.58-1.25-2-.4-2.76,10.44-9.61,15-13.46,6.38-7.6,4.44-10.8-7.66-1-10.47-.92-2.19-3.43-2.19-3.43,3.55-7.85,7.9-23.15S692,336.85,692,336.85"/><path class="cls-3" d="M688,350.52a1,1,0,0,1-.08.32l-.25,1c-.23.84-.56,2.06-1,3.62-.87,3.15-2.17,7.7-3.78,13.31-3.24,11.22-7.84,26.68-13,43.74s-9.77,32.52-13.07,43.73c-1.64,5.59-3,10.12-3.89,13.27l-1.07,3.6-.28.94c-.07.21-.11.31-.11.31a1.14,1.14,0,0,1,.07-.32c.07-.21.15-.54.25-1,.24-.84.57-2.06,1-3.62.87-3.15,2.16-7.7,3.78-13.31,3.24-11.22,7.84-26.68,13-43.75s9.77-32.51,13.07-43.71l3.89-13.28c.46-1.55.82-2.76,1.06-3.6.13-.4.22-.71.29-.94S688,350.52,688,350.52Z"/><path class="cls-3" d="M667.06,376.94a4.4,4.4,0,0,1,.39.66c.23.43.55,1.07.94,1.86.77,1.57,1.78,3.78,2.84,6.24s2,4.61,2.7,6.3c.32.75.6,1.38.82,1.9a2.32,2.32,0,0,1,.27.72,2.73,2.73,0,0,1-.39-.66c-.24-.43-.56-1.06-.94-1.86-.75-1.58-1.73-3.8-2.79-6.26s-2-4.59-2.74-6.28l-.84-1.9A2.7,2.7,0,0,1,667.06,376.94Z"/><path class="cls-3" d="M676,394.63c0-.09,4.42-2.37,10-5.08s10.07-4.86,10.11-4.77-4.41,2.37-10,5.09S676.06,394.72,676,394.63Z"/><path class="cls-3" d="M666.94,420.48a3.36,3.36,0,0,1,.76-.18l2.09-.37c1.76-.31,4.19-.75,6.86-1.33s5.06-1.18,6.8-1.63l2-.53a4.05,4.05,0,0,1,.77-.16,3.27,3.27,0,0,1-.73.29c-.47.17-1.17.39-2,.64-1.71.52-4.11,1.16-6.78,1.74s-5.13,1-6.9,1.24c-.89.12-1.61.21-2.11.25A2.77,2.77,0,0,1,666.94,420.48Z"/><path class="cls-3" d="M655.32,406.27a5.07,5.07,0,0,1,.51.5l1.31,1.46c1.09,1.25,2.57,3,4.2,4.92s3.07,3.7,4.11,5c.52.65.94,1.17,1.22,1.54a3,3,0,0,1,.41.6,3.14,3.14,0,0,1-.52-.51c-.31-.34-.76-.84-1.3-1.46-1.09-1.25-2.58-3-4.2-4.92s-3.08-3.7-4.12-5c-.52-.64-.93-1.17-1.21-1.54A3,3,0,0,1,655.32,406.27Z"/><path class="cls-3" d="M644.41,428.07a4,4,0,0,1,.65.65l1.68,1.87c1.4,1.59,3.32,3.81,5.43,6.27s4,4.7,5.35,6.33c.63.78,1.16,1.43,1.59,1.94a5.11,5.11,0,0,1,.54.75,4,4,0,0,1-.65-.65l-1.68-1.88c-1.4-1.59-3.32-3.8-5.43-6.26s-4-4.7-5.35-6.33L645,428.81A4.67,4.67,0,0,1,644.41,428.07Z"/><path class="cls-3" d="M659.41,445.35a5.63,5.63,0,0,1,1-.25l2.63-.56c2.22-.48,5.29-1.14,8.65-2s6.39-1.65,8.58-2.26l2.59-.72a5.79,5.79,0,0,1,1-.23,5.26,5.26,0,0,1-.93.36c-.6.21-1.47.5-2.56.83-2.17.68-5.19,1.54-8.56,2.37s-6.45,1.46-8.69,1.87c-1.11.2-2,.36-2.65.45A4.23,4.23,0,0,1,659.41,445.35Z"/><rect class="cls-4" x="258.41" y="376.78" width="130.1" height="60"/><path class="cls-3" d="M385.42,434h-124V380h124Zm-123.22-.81H384.61v-52.4H262.2Z"/><rect class="cls-3" x="388.51" y="376.78" width="31.78" height="60"/><path class="cls-3" d="M261.79,396.65H385a.17.17,0,0,0,0-.33H261.79a.17.17,0,0,0,0,.33Z"/><path class="cls-3" d="M323.8,396.49a136.38,136.38,0,0,0,.05-16.3.17.17,0,0,0-.34,0,136.38,136.38,0,0,0,.05,16.3.12.12,0,0,0,.24,0Z"/><path class="cls-3" d="M357,388.34a1.68,1.68,0,1,1-1.68-1.68h0A1.68,1.68,0,0,1,357,388.34Z"/><path class="cls-3" d="M292.3,388.34a1.68,1.68,0,1,1-1.68-1.68h0A1.69,1.69,0,0,1,292.3,388.34Z"/><path class="cls-3" d="M325.08,406.94a1.68,1.68,0,1,1-1.68-1.68h0A1.68,1.68,0,0,1,325.08,406.94Z"/><polygon class="cls-3" points="273.96 436.78 267.26 474.45 271.03 474.45 283.38 436.78 273.96 436.78"/><polygon class="cls-3" points="379.31 436.78 384.91 474.51 381.14 474.51 369.89 436.78 379.31 436.78"/><polygon class="cls-3" points="404.46 436.78 410.81 474.51 407.04 474.51 395.04 436.78 404.46 436.78"/><path class="cls-3" d="M325,423.92a1.68,1.68,0,1,1-1.68-1.68h0A1.68,1.68,0,0,1,325,423.92Z"/><path class="cls-3" d="M261.79,415.23H385a.17.17,0,0,0,0-.33H261.79a.17.17,0,0,0,0,.33Z"/><rect class="cls-2" x="580.39" y="84.81" width="82.26" height="110.32"/><rect class="cls-5" x="584.67" y="89.15" width="73.69" height="101.65"/><rect class="cls-2" x="608.55" y="124.31" width="28.13" height="32.15"/><rect class="cls-2" x="626.82" y="221.28" width="71.65" height="53.42"/><rect class="cls-5" x="629.64" y="224.07" width="66.01" height="47.86"/><rect class="cls-2" x="652.48" y="238.15" width="20.88" height="18.27"/><rect class="cls-2" x="53.4" y="127.42" width="52.19" height="70"/><rect class="cls-5" x="56.12" y="130.17" width="46.76" height="64.5"/><rect class="cls-2" x="71.27" y="152.48" width="17.85" height="20.4"/><polygon class="cls-2" points="343.9 342.68 340.34 375.69 385.92 375.69 389.7 342.68 343.9 342.68"/><polygon class="cls-5" points="345.77 345.05 342.31 373.94 383.44 373.94 386.77 345.05 345.77 345.05"/><polygon class="cls-3" points="352.69 349.91 350.56 369.08 376.52 369.08 377.85 349.91 352.69 349.91"/><polyline class="cls-4" points="388.07 356.9 397.48 375.82 385.92 375.69 388.21 355.66"/></g><g id="freepik--Floor--inject-5"><path class="cls-6" d="M680.63,474.26c0,.14-140.88.26-314.61.26s-314.65-.12-314.65-.26S192.22,474,366,474,680.63,474.12,680.63,474.26Z"/></g><g id="freepik--Loading--inject-5"><rect class="cls-2" x="133.67" y="77.41" width="376.27" height="247.67"/><path class="cls-6" d="M509.94,325.09c0-1.7-.08-96.6-.21-247.68l.21.21H133.7l.26-.26V325l-.24-.24L510,325l-376.27.23h-.24V77.1h.29L510,77.16h.2v.2C510,228.49,509.94,323.4,509.94,325.09Z"/><path class="cls-6" d="M509.94,99.45c0,.14-84.24.26-188.13.26s-188.14-.12-188.14-.26,84.22-.26,188.14-.26S509.94,99.31,509.94,99.45Z"/><rect class="cls-3" x="168.73" y="136.09" width="315.44" height="43.17"/><rect class="cls-3" x="163.33" y="254.76" width="70.03" height="70.03"/><rect class="cls-3" x="246.11" y="254.76" width="70.03" height="70.03"/><rect class="cls-3" x="326.42" y="254.76" width="70.03" height="70.03"/><path class="cls-7" d="M288.55,225.08H212.64a11.57,11.57,0,0,1-11.57-11.56h0A11.57,11.57,0,0,1,212.64,202h75.91a11.57,11.57,0,0,1,11.57,11.57h0A11.56,11.56,0,0,1,288.55,225.08Z"/><path class="cls-6" d="M377.29,225.08l1-.07a9.7,9.7,0,0,0,1.26-.2,11.49,11.49,0,0,0-.32-22.58,41.42,41.42,0,0,0-5.57-.17h-19l-142.11.08a11.3,11.3,0,0,0-.75,22.58c1.61.08,3.28,0,4.91,0h37.73l63.89.06,43.07.08,11.71,0h0L361.4,225l-43.07.08H211.77a11.82,11.82,0,0,1,.78-23.61l142.11.07h19a39.07,39.07,0,0,1,5.62.2,11.69,11.69,0,0,1,9.48,13.55c0,.11-.05.23-.07.35a11.91,11.91,0,0,1-3.23,5.89,11.62,11.62,0,0,1-4.19,2.63,12.63,12.63,0,0,1-1.7.48c-.51.07-.93.15-1.27.17Z"/><path class="cls-6" d="M276,233.17h.87l-1.06,5.29h3.28l-.15.75H274.8Z"/><path class="cls-6" d="M279.75,237.29a2.61,2.61,0,0,1,2.52-2.7h.17a1.93,1.93,0,0,1,2.13,1.71,2.71,2.71,0,0,1,0,.29,2.61,2.61,0,0,1-2.51,2.71h-.17a2,2,0,0,1-2.14-1.84A1,1,0,0,1,279.75,237.29Zm4-.68a1.2,1.2,0,0,0-1.09-1.3h-.27a1.79,1.79,0,0,0-1.79,1.81v.12a1.21,1.21,0,0,0,1.12,1.3H282a1.79,1.79,0,0,0,1.79-1.79c0-.05,0-.09,0-.14Z"/><path class="cls-6" d="M290.45,234.64l-.9,4.57h-.8l.11-.56a2.23,2.23,0,0,1-1.61.62,1.89,1.89,0,0,1-2-1.77v-.23a2.56,2.56,0,0,1,2.42-2.7h.17a1.74,1.74,0,0,1,1.65.82l.15-.77Zm-1.23,2a1.21,1.21,0,0,0-1.12-1.3h-.25a1.8,1.8,0,0,0-1.78,1.82v.11a1.21,1.21,0,0,0,1.12,1.3h.24a1.79,1.79,0,0,0,1.8-1.78,1.09,1.09,0,0,0,0-.18Z"/><path class="cls-6" d="M296.71,232.81l-1.28,6.4h-.79l.11-.56a2.32,2.32,0,0,1-1.62.62,1.89,1.89,0,0,1-2-1.77v-.23a2.58,2.58,0,0,1,2.44-2.7h.15a1.76,1.76,0,0,1,1.66.83l.52-2.61Zm-1.61,3.8a1.2,1.2,0,0,0-1.09-1.3h-.27a1.79,1.79,0,0,0-1.79,1.81v.12a1.21,1.21,0,0,0,1.12,1.3h.25a1.79,1.79,0,0,0,1.79-1.79C295.11,236.7,295.1,236.66,295.1,236.61Z"/><path class="cls-6" d="M297.91,234.64h.83l-.9,4.57H297Zm.14-1.38a.57.57,0,0,1,.56-.58h0a.5.5,0,0,1,.52.48h0a.58.58,0,0,1-.56.6h0a.51.51,0,0,1-.52-.5Z"/><path class="cls-6" d="M304.32,236.11a3.29,3.29,0,0,1-.05.54l-.51,2.56h-.83l.51-2.56a2.41,2.41,0,0,0,0-.38c0-.6-.34-.93-1.06-.93a1.61,1.61,0,0,0-1.69,1.46l-.49,2.41h-.83l.91-4.57h.8l-.12.58a2.27,2.27,0,0,1,1.66-.63,1.45,1.45,0,0,1,1.68,1.2A1.13,1.13,0,0,1,304.32,236.11Z"/><path class="cls-6" d="M310.6,234.64l-.78,4a2.51,2.51,0,0,1-2.65,2.36h-.09a3.16,3.16,0,0,1-2.09-.65l.46-.63a2.58,2.58,0,0,0,1.69.55,1.62,1.62,0,0,0,1.81-1.42.2.2,0,0,0,0-.07l.07-.33a2.32,2.32,0,0,1-1.66.63,1.83,1.83,0,0,1-2-1.65,1.48,1.48,0,0,1,0-.21,2.52,2.52,0,0,1,2.47-2.57H308a1.81,1.81,0,0,1,1.71.89l.17-.84Zm-1.27,1.86c0-.73-.5-1.18-1.36-1.18a1.73,1.73,0,0,0-1.8,1.66v.13c0,.74.51,1.19,1.37,1.19a1.73,1.73,0,0,0,1.79-1.67v-.13Z"/><path class="cls-6" d="M313.31,238.71a.6.6,0,0,1,.57-.63h0a.54.54,0,0,1,.54.54v0a.6.6,0,0,1-.57.63h0a.55.55,0,0,1-.55-.55Z"/><path class="cls-6" d="M315.27,238.71a.6.6,0,0,1,.57-.63h0a.54.54,0,0,1,.54.54v0a.6.6,0,0,1-.57.63h0a.55.55,0,0,1-.55-.55Z"/><path class="cls-6" d="M317.22,238.71a.61.61,0,0,1,.59-.63h0a.54.54,0,0,1,.54.54v0a.6.6,0,0,1-.57.63h0A.56.56,0,0,1,317.22,238.71Z"/><path class="cls-6" d="M148,89.5a2.76,2.76,0,1,1-2.76-2.76h0A2.77,2.77,0,0,1,148,89.5Z"/><path class="cls-6" d="M159.76,89.5A2.76,2.76,0,1,1,157,86.74h0A2.77,2.77,0,0,1,159.76,89.5Z"/><path class="cls-6" d="M171.48,89.5a2.76,2.76,0,1,1-2.76-2.76h0A2.76,2.76,0,0,1,171.48,89.5Z"/></g><g id="freepik--Character--inject-5"><circle class="cls-4" cx="470.72" cy="182.76" r="131.32"/><path class="cls-6" d="M602,182.76s0-.72-.08-2.13c0-.71,0-1.58-.08-2.62a32.57,32.57,0,0,0-.18-3.62c-.18-1.36-.23-2.91-.37-4.59s-.44-3.53-.69-5.52a136.65,136.65,0,0,0-2.66-13.6,132.29,132.29,0,0,0-5.38-16.49,125.93,125.93,0,0,0-9.14-18.48A132.69,132.69,0,0,0,550.1,78.42a130.86,130.86,0,0,0-55.22-24.5,133.19,133.19,0,0,0-51.38.59A129.11,129.11,0,0,0,409,67.13a137.81,137.81,0,0,0-16.15,10.23,131.37,131.37,0,0,0-38.43,45.05c-.75,1.53-1.61,3-2.28,4.59L350,131.68c-1.27,3.19-2.57,6.39-3.62,9.69a128.49,128.49,0,0,0-5,20.27,142,142,0,0,0-1.72,21.1,143.3,143.3,0,0,0,1.71,21.1,129.84,129.84,0,0,0,5,20.29l.84,2.45.41,1.23.47,1.2c.67,1.61,1.3,3.22,1.9,4.81l2.12,4.68c.67,1.57,1.53,3.06,2.28,4.59a129.27,129.27,0,0,0,10.69,17.21A141.9,141.9,0,0,0,378,275.41a143.59,143.59,0,0,0,14.79,12.75A139.87,139.87,0,0,0,409,298.39,128.93,128.93,0,0,0,443.53,311a133,133,0,0,0,51.38.59,130.89,130.89,0,0,0,55.21-24.51,132.44,132.44,0,0,0,33.33-37.29,126.88,126.88,0,0,0,9.13-18.48A130.7,130.7,0,0,0,598,214.83c1.24-5.07,2.11-9.62,2.67-13.6.24-2,.51-3.82.69-5.51s.25-3.22.36-4.59.16-2.58.18-3.62.06-1.92.08-2.62c0-1.41.08-2.13.08-2.13v2.13c0,.7,0,1.58-.06,2.62s0,2.26-.16,3.63-.21,2.9-.34,4.59-.42,3.53-.66,5.52a134.31,134.31,0,0,1-2.63,13.63,129.44,129.44,0,0,1-5.34,16.53A124.72,124.72,0,0,1,583.72,250a132.9,132.9,0,0,1-33.35,37.43A130.9,130.9,0,0,1,495,312a133.72,133.72,0,0,1-51.56-.55,129.13,129.13,0,0,1-34.72-12.65,138.06,138.06,0,0,1-16.22-10.26,130.68,130.68,0,0,1-27.86-28A129.34,129.34,0,0,1,353.9,243.3c-.75-1.53-1.61-3-2.29-4.6l-2.13-4.7c-.63-1.61-1.26-3.21-1.9-4.82L347.1,228l-.41-1.23-.84-2.47a128.32,128.32,0,0,1-5-20.37,130.89,130.89,0,0,1,0-42.36,128.47,128.47,0,0,1,5-20.36c1-3.31,2.36-6.51,3.63-9.72l2.13-4.7c.68-1.58,1.54-3.07,2.29-4.6a129.23,129.23,0,0,1,10.74-17.27,140.2,140.2,0,0,1,13-15.17A144.2,144.2,0,0,1,392.51,77a137.07,137.07,0,0,1,16.22-10.3,129.13,129.13,0,0,1,34.72-12.65A133.28,133.28,0,0,1,495,53.49a131.22,131.22,0,0,1,55.36,24.64,132.9,132.9,0,0,1,33.35,37.43,126.48,126.48,0,0,1,9.12,18.54,129.44,129.44,0,0,1,5.34,16.53c1.23,5.08,2.08,9.65,2.63,13.63.24,2,.5,3.83.66,5.52s.24,3.23.34,4.6.2,2.62.2,3.62,0,1.92.06,2.63C602,182,602,182.76,602,182.76Z"/><g class="cls-8"><path class="cls-7" d="M418.1,228.6a70.5,70.5,0,1,1,101.11,1.53l35.48,34.64a119.17,119.17,0,1,0-169-1.1Z"/><g class="cls-9"><path d="M533.08,179.62h64.09s-6.48,52.17-7.78,53.14-39.21,44.72-39.21,44.72l-43.1-51.2Z"/></g><g class="cls-10"><polygon points="515.79 136.47 561.14 91.95 593.07 139.59 597.33 179.62 533.85 179.62 522.29 154.17 515.79 136.47"/></g><g class="cls-11"><path d="M473.51,120.32c-.77-1.3,0-64.16,0-64.16l39.08,4.91,48.12,31.06-46.23,45.36-29.11-4.21Z"/></g><g class="cls-12"><path d="M380.42,94.4c1,.32,43.1,45.36,43.1,45.36l37.59-14.9,12.06-15,.34-53.66-44.8,4.91Z"/></g><g class="cls-13"><path d="M347.33,179.62c1,.65,71.29,0,71.29,0l-1.24-46.28-33.94-36-23.15,27.52Z"/></g></g><circle class="cls-3" cx="472.05" cy="182.76" r="27.36"/><path class="cls-14" d="M464,184.59h0a7.76,7.76,0,0,0,9.57,5.29l95.16-27L470.52,174.7a7.76,7.76,0,0,0-6.77,8.65A7.57,7.57,0,0,0,464,184.59Z"/><path class="cls-6" d="M457.44,241.94l-5.23,26.55h-6.94l2.73-14-8.84,11.38h-3.3L431,254.5l-2.8,14h-6.91L426.6,242h6.11L439,257.3l12-15.36Z"/><path class="cls-6" d="M483,247.93l-4.1,20.56h-6.83l.42-1.93a8.42,8.42,0,0,1-5.95,2.27c-4.44,0-8.69-3.37-8.69-9.37,0-6.82,5-11.87,11.15-11.87,2.77,0,5,.84,6.3,2.81l.49-2.47Zm-9.07,9.37a3.63,3.63,0,0,0-3.29-3.94,4.14,4.14,0,0,0-.61,0c-2.85,0-4.9,2.31-4.9,5.76a3.61,3.61,0,0,0,3.28,3.91,3.31,3.31,0,0,0,.63,0c2.89,0,4.9-2.31,4.9-5.73Z"/><path class="cls-6" d="M499,258.29l5.57,10.2h-7.66l-2.81-5.38-5,5.38H481L491.28,258l-5.43-10h7.55l2.73,5.24L501,248h8Z"/><path class="cls-6" d="M506.49,264.89a4.47,4.47,0,0,1,4.35-4.59h.28a3.79,3.79,0,0,1,4,3.57c0,.12,0,.25,0,.37a4.48,4.48,0,0,1-4.37,4.59h-.22a3.89,3.89,0,0,1-4-3.72Z"/><path class="cls-6" d="M458.82,288.35h8.29l-.4,2.06H454.8l.33-1.61,8.07-6.46c2.23-1.8,2.89-2.89,2.89-4.24s-1-2.39-3.24-2.39a6,6,0,0,0-4.29,1.84L457,276.18a8.31,8.31,0,0,1,6.2-2.54c3.36,0,5.28,1.71,5.28,4.15,0,1.92-.83,3.58-3.67,5.82Z"/><path class="cls-6" d="M475,275.89l-1.37,4.55h1.61c4.24,0,6.16,1.75,6.16,4.43,0,3.43-2.82,5.73-7.06,5.73a7.79,7.79,0,0,1-5.8-2.08l1.25-1.83a6.24,6.24,0,0,0,4.72,1.8c2.86,0,4.52-1.25,4.52-3.36,0-1.63-1.18-2.63-4.21-2.63h-4l2.58-8.67h9.36l-.41,2.06Z"/><path class="cls-6" d="M483.67,284.51c0-5.75,3.25-10.87,8.39-10.87,3.48,0,5.59,2.25,5.59,6.09,0,5.76-3.27,10.87-8.36,10.87C485.78,290.6,483.67,288.35,483.67,284.51Zm11.61-4.73c0-2.63-1.28-4-3.41-4-3.74,0-5.83,4.86-5.83,8.72,0,2.63,1.28,4,3.44,4C493.19,288.49,495.28,283.64,495.28,279.78Z"/><polygon class="cls-7" points="613.94 453.52 618.19 460.38 629.01 447.88 623.31 441.83 613.94 453.52"/><path class="cls-6" d="M628.05,446.6a9.75,9.75,0,0,1-1.45,1.93c-1,1.14-2.33,2.67-3.88,4.33l-4,4.22a11,11,0,0,1-1.74,1.67,10.93,10.93,0,0,1,1.46-1.92c1-1.14,2.34-2.67,3.88-4.33l4-4.22A11.94,11.94,0,0,1,628.05,446.6Z"/><path class="cls-6" d="M618.09,447.25a11.08,11.08,0,0,1,2.66,2.26,11.74,11.74,0,0,1,2.29,2.63,23.26,23.26,0,0,1-4.95-4.89Z"/><g class="cls-15"><polyline class="cls-16" points="618.19 460.38 629.01 447.88 627.94 446.73 616.89 458.87 618.05 460.26"/></g><path class="cls-7" d="M528.58,469.91v-1.69l17.09.13v5.56l-1,.06c-4.7.22-23.9.79-27-.11C514.09,472.85,528.58,469.91,528.58,469.91Z"/><g class="cls-15"><path class="cls-16" d="M539.5,473.75a5.43,5.43,0,0,1,2.2-3.36,6.08,6.08,0,0,1,4-1.12v4.42Z"/></g><g class="cls-15"><path class="cls-16" d="M521.5,471.58s-5.08,1.33-4.46,2.11,20.05.88,28.62.22v-.35l-22.66.06S522.49,471.62,521.5,471.58Z"/></g><path class="cls-6" d="M545.91,473.55h-1.14l-3.09.11c-2.61.07-6.22.13-10.21.11s-7.6-.1-10.21-.2l-3.09-.14-.84-.05h.84l3.09.07c2.62.07,6.22.13,10.21.15s7.59,0,10.21,0l3.09-.05Z"/><path class="cls-6" d="M523,473.87a6.15,6.15,0,0,0-.56-1.38,7,7,0,0,0-1-1.1,2.2,2.2,0,0,1,1.22,1A2,2,0,0,1,523,473.87Z"/><path class="cls-6" d="M528,471.53a3.85,3.85,0,0,1-.53-.61c-.25-.36-.4-.69-.35-.71s.28.24.53.61S528.07,471.5,528,471.53Z"/><path class="cls-6" d="M529.41,470.86a2.53,2.53,0,0,1-.6-.38c-.29-.25-.49-.48-.45-.52a1.54,1.54,0,0,1,.59.38C529.24,470.59,529.45,470.82,529.41,470.86Z"/><path class="cls-6" d="M530.29,469.37a2.08,2.08,0,0,1-.89.1,2.17,2.17,0,0,1-.88-.09,1.88,1.88,0,0,1,.88-.1A2.24,2.24,0,0,1,530.29,469.37Z"/><path class="cls-6" d="M530.6,468.32a1.85,1.85,0,0,1-1,.26,1.8,1.8,0,0,1-1-.13,5.6,5.6,0,0,1,1-.06A4.81,4.81,0,0,1,530.6,468.32Z"/><path class="cls-6" d="M527.46,470.14a2.86,2.86,0,0,1-1.09,0,5.83,5.83,0,0,1-1.16-.24,3.21,3.21,0,0,1-.67-.26.53.53,0,0,1-.27-.32.39.39,0,0,1,.17-.4,2.1,2.1,0,0,1,2.48.55,1.91,1.91,0,0,1,.35.68v.28a2.42,2.42,0,0,0-.49-.87,2,2,0,0,0-.92-.57,1.8,1.8,0,0,0-1.31.08c-.17.11-.11.3.08.41a3.66,3.66,0,0,0,.62.25,8.73,8.73,0,0,0,1.12.28C527,470.11,527.46,470.11,527.46,470.14Z"/><path class="cls-6" d="M527.18,470.19a.87.87,0,0,1-.12-.7,1.66,1.66,0,0,1,.3-.74,1.12,1.12,0,0,1,.92-.52.39.39,0,0,1,.33.46h0a1.1,1.1,0,0,1-.19.46,3.36,3.36,0,0,1-.52.61,1.76,1.76,0,0,1-.63.41,6.05,6.05,0,0,0,.52-.5,4,4,0,0,0,.47-.61c.15-.22.25-.6,0-.65s-.55.23-.72.43a1.51,1.51,0,0,0-.32.66A2.57,2.57,0,0,0,527.18,470.19Z"/><path class="cls-6" d="M545.6,469.22h-1.26a5.8,5.8,0,0,0-2.75,1,5.06,5.06,0,0,0-1.73,2.25c-.27.67-.3,1.13-.34,1.12a.86.86,0,0,1,0-.32,4.2,4.2,0,0,1,.2-.85,5,5,0,0,1,1.74-2.35,5.61,5.61,0,0,1,2.87-1,4.92,4.92,0,0,1,.94,0A1,1,0,0,1,545.6,469.22Z"/><path class="cls-6" d="M537.37,472.2a15,15,0,0,1-5,0c0-.06,1.11,0,2.48,0S537.36,472.15,537.37,472.2Z"/><path class="cls-6" d="M540.7,472.21s-.09.22-.21.46-.17.44-.23.44-.09-.25,0-.52S540.67,472.18,540.7,472.21Z"/><path class="cls-6" d="M542,470.77a1,1,0,0,1-.25.36c-.18.16-.35.27-.39.23s.07-.2.25-.36S541.93,470.73,542,470.77Z"/><path class="cls-6" d="M543.78,470.11c0,.05-.24.05-.49.13s-.43.21-.48.17.1-.25.41-.35S543.8,470.06,543.78,470.11Z"/><path class="cls-6" d="M545.06,469.8c0,.05-.08.13-.22.18s-.27.06-.29,0,.08-.13.22-.18A.32.32,0,0,1,545.06,469.8Z"/><path class="cls-17" d="M521.55,247.8l-26.39-26.74,3.35-34.83.6-.69c.33-.38.7-.8,1.14-1.26A6.68,6.68,0,0,1,502,183a10.35,10.35,0,0,1,2.52-1c.83-.11,1.1-1.16.44-1.51s-2.94-.08-5.22,1.36-.89-2.51-.42-4,1.75-6,1.41-6.49c-.48-.71-1.36-.31-1.81,1.14s-2.08,5.75-2.84,5.48,1.79-7.62,1.79-7.62.8-1.48-.07-1.82c-1.56-.62-3.67,7.38-3.86,8.14-.12.53-1,.27-.79-.29s2.7-7.28,1.11-7.92c-1.21-.49-1.8,6.56-3.1,7.68s1-5.31-.18-5.73c-.44-.16-.8-.22-1.58,3.65a79.2,79.2,0,0,0-1.5,8.08h0l-8.3,41.61,26,34.39Z"/><path class="cls-17" d="M535,171.24c-1.09.62,2.32,6.54.84,5.68s-3.32-7.71-4.42-7c-1.45.92,2.24,7.05,2.51,7.59s-.51.94-.73.43c-.32-.72-3.83-8.2-5.25-7.32-.79.49.26,1.81.26,1.81s3.8,6.78,3.12,7.17-3.07-3.5-3.78-4.88-1.63-1.59-2-.8c-.24.54,1.82,4.79,2.55,6.13s2.79,5,.29,4-4.79-.86-5.37-.4-.13,1.44.7,1.4a10.06,10.06,0,0,1,2.66.54,6.26,6.26,0,0,1,2,1c.51.37,1,.72,1.34,1l.72.57,14.26,35.16-13,30.15L551.83,261l9-39.88-20.69-38.8h0a77.15,77.15,0,0,0-2.93-7.67C535.75,170.89,535.41,171,535,171.24Z"/><path class="cls-14" d="M579.8,384.87l-13-67.1-18.42,1.59v-.16l-33.64,3.05s-1.58,77.06-2.14,77.06l9.22,70.25h0l26.56-1.21-10.26-69.93,3.78-56.11.76-1L558,398.66l52.33,59.22,17-16.48Z"/><path class="cls-6" d="M538.79,387.83a2.81,2.81,0,0,1,0-.58c0-.43,0-1,.06-1.64.07-1.49.18-3.53.31-6,.32-5.15.76-12.14,1.24-19.87.49-7,.94-13.42,1.28-18.32v-.06h0l4.61-5.48,1.28-1.47c.3-.34.46-.51.48-.49a3.52,3.52,0,0,1-.39.56l-1.2,1.54L542,341.54v-.11c-.31,4.9-.71,11.31-1.15,18.32-.54,7.73-1,14.71-1.39,19.86-.2,2.49-.36,4.52-.48,6-.07.66-.12,1.2-.16,1.63A1.94,1.94,0,0,1,538.79,387.83Z"/><path class="cls-6" d="M548.34,319.2a79.39,79.39,0,0,1,0,12.84,78.64,78.64,0,0,1,0-12.84Z"/><path class="cls-6" d="M525.66,325a3.35,3.35,0,0,1,.83-.14l2.45-.29c2.13-.25,5.2-.59,8.88-1h.25v11.07l-.14.07-.19.09-6.39,3.2-.13.06-.11-.07-5.56-3.29-.1-.07v-.11c0-2.85.08-5.22.1-7l.06-1.88a3.31,3.31,0,0,1,0-.63,5.65,5.65,0,0,1,0,.71v1.93c0,1.72.06,4.05.11,6.85l-.11-.19,5.6,3.23H531l6.41-3.18.19-.1-.15.24V323.84l.26.23c-3.6.32-6.62.56-8.77.72l-2.51.18C526.19,325,525.93,325,525.66,325Z"/><path class="cls-6" d="M551.56,322.48a4.63,4.63,0,0,1,.83-.13l2.45-.3c2.13-.25,5.2-.59,8.88-1H564v11.07l-.15.07-.19.1-6.42,3.16-.12.05-.12-.06-5.56-3.3-.1-.06V332c0-2.85.08-5.22.11-7v-1.89a3.32,3.32,0,0,1,0-.63,5.65,5.65,0,0,1,.05.71v1.93c0,1.72.06,4.05.11,6.85l-.11-.18,5.6,3.23H557l6.41-3.18.19-.09-.15.23V321.33l.25.23c-3.6.32-6.62.56-8.77.72l-2.51.18A8.23,8.23,0,0,1,551.56,322.48Z"/><path class="cls-6" d="M538.08,326.5a74.74,74.74,0,0,1-12.42.58,36.83,36.83,0,0,1,6.2-.55A38,38,0,0,1,538.08,326.5Z"/><path class="cls-6" d="M563.75,324.14a73.2,73.2,0,0,1-12.19.93,35.43,35.43,0,0,1,6.07-.73A36.81,36.81,0,0,1,563.75,324.14Z"/><path class="cls-6" d="M536,397.83a71.21,71.21,0,0,1-12.08,1.48A71.21,71.21,0,0,1,536,397.83Z"/><path class="cls-6" d="M578.12,386.32c0,.15-2.88,1.17-6.19,3s-5.72,3.79-5.83,3.67a6.78,6.78,0,0,1,1.49-1.39,30.39,30.39,0,0,1,4.09-2.74,31.41,31.41,0,0,1,4.47-2A6.41,6.41,0,0,1,578.12,386.32Z"/><path class="cls-6" d="M521.55,154c-.07-.12-.13-.24-.19-.37l-.54-1.1c-.23-.48-.5-1.1-.86-1.79l-1.3-2.39c-.5-.88-1.13-1.83-1.78-2.89s-1.48-2.13-2.34-3.29a62.48,62.48,0,0,0-6.61-7.28A57.9,57.9,0,0,0,486,122.1a52.78,52.78,0,0,0-14.86-2.41,57.59,57.59,0,0,0-30.94,8.23,53.21,53.21,0,0,0-11.7,9.49,58,58,0,0,0-12.68,22A64.12,64.12,0,0,0,413.7,169c-.17,1.43-.3,2.78-.39,4s-.12,2.37-.11,3.39,0,1.92.06,2.71.11,1.45.14,2,.07.92.09,1.22a2.94,2.94,0,0,1,0,.42,2.7,2.7,0,0,1-.07-.41c0-.3-.08-.71-.13-1.22s-.15-1.2-.2-2-.06-1.7-.1-2.72,0-2.16.06-3.41.19-2.59.35-4a62.77,62.77,0,0,1,2-9.68,58.12,58.12,0,0,1,12.68-22.21,53.11,53.11,0,0,1,11.79-9.59,57.81,57.81,0,0,1,31.21-8.31,53.09,53.09,0,0,1,15,2.46,58,58,0,0,1,22.05,13,62.27,62.27,0,0,1,6.59,7.37c.86,1.18,1.63,2.29,2.32,3.34s1.26,2,1.75,2.92l1.26,2.42c.35.7.6,1.32.82,1.82l.49,1.12A3.13,3.13,0,0,1,521.55,154Z"/><path class="cls-6" d="M510.24,151.24a3.29,3.29,0,0,1-.47-.59c-.3-.4-.69-1-1.28-1.76a51.22,51.22,0,0,0-5.3-6,49.7,49.7,0,0,0-9.4-7.12,47.82,47.82,0,0,0-27.74-6.55,49.44,49.44,0,0,0-19,5.16c-.85.39-1.48.77-1.93,1a4.37,4.37,0,0,1-.69.33,3.92,3.92,0,0,1,.64-.42,19.06,19.06,0,0,1,1.89-1.08,45.7,45.7,0,0,1,7.38-3.14,48.39,48.39,0,0,1,49.11,11.6,45.79,45.79,0,0,1,5.2,6.1c.57.76.93,1.4,1.21,1.82A6.11,6.11,0,0,1,510.24,151.24Z"/><path class="cls-7" d="M560.84,268.54l-4.65,24.17c9.69,13.48,10.57,25,10.57,25l-52.06,4.48c1-8.17,6-25.84,6-25.84l-7.56-25.8L498,250.86l15-13.54c-.29.76,14.09,9.08,14.09,9.08l20.66.18a16.09,16.09,0,0,1,3,.59L560.84,221s7.8,11.48,5.19,25.57c-1.87,10-1.51,12.37-5.19,22"/><path class="cls-6" d="M523.08,250.18a4.37,4.37,0,0,1,.76.9,15.38,15.38,0,0,1,1.56,2.84,13.83,13.83,0,0,1,1,4.7,11.88,11.88,0,0,1-1.23,5.77,10.22,10.22,0,0,1-4,4.34,9.51,9.51,0,0,1-4.66,1.25,8.25,8.25,0,0,1-3.18-.61,4.94,4.94,0,0,1-.79-.41c-.17-.1-.26-.17-.25-.18a10.35,10.35,0,0,0,4.22.83,9.41,9.41,0,0,0,4.42-1.29,10,10,0,0,0,3.77-4.16,11.73,11.73,0,0,0,1.22-5.52,14.34,14.34,0,0,0-.9-4.58A29.26,29.26,0,0,0,523.08,250.18Z"/><path class="cls-6" d="M559.05,267.78c-.09,0,.36-1,.8-2.59a18.75,18.75,0,0,0-1-12.67c-.69-1.52-1.28-2.38-1.21-2.43s.2.18.49.56a11.24,11.24,0,0,1,1,1.71,17,17,0,0,1,1,12.94,11.53,11.53,0,0,1-.76,1.86C559.22,267.58,559.08,267.8,559.05,267.78Z"/><g class="cls-12"><path d="M552.07,291.26A2.08,2.08,0,0,0,550,291a16.13,16.13,0,0,1-3.5.72c-2.23,0-4.24-1.21-6.3-2.07s-4.67-1.24-6.3.28a3.59,3.59,0,0,0-.53,4.46,3.51,3.51,0,0,0,2.18,1.42h0c5.2,1.47,9.67.39,14.76-1.65a3.86,3.86,0,0,0,1.67-1.05A1.45,1.45,0,0,0,552.07,291.26Z"/></g><g class="cls-12"><path d="M513.87,237.12a14,14,0,0,0-3.21,9.73c.34,3.48,2.7,6.86,6.08,7.76,2.32.61,4.85.06,7.12.83,4.19,1.41,6.41,6.9,10.82,7.29,4,.36,6.89-3.67,10.61-5.15a28.65,28.65,0,0,1,6.09-1.18c4.23-.69,8.39-2.73,10.86-6.23s2.87-8.6.3-12c-2.75-3.66-7.85-4.56-12.42-4.56a52.21,52.21,0,0,0-20.22,4.08,12.8,12.8,0,0,0-3.84,2.25,5.24,5.24,0,0,0-1.83,3.94"/></g><path class="cls-6" d="M573.4,234.35a5.18,5.18,0,0,0-3.24-4.13c-2-.77-4.36-.22-6.32-1.09-2.45-1.09-3.48-4-4.1-6.57s-1.21-5.49-3.32-7.14c-1.46-1.14-3.39-1.48-5-2.46-2.33-1.43-3.6-4.05-5.19-6.28a12.62,12.62,0,0,0-2.13-2.31l-.09-.13c-3.39-4.08-12.42-4.61-16.32-1l.15-.14c-7.28.55-11.9,12.31-12,19.76,0,4.64,1.45,9.49-.3,13.78-1,2.5-3.06,4.51-3.84,7.09a7.88,7.88,0,0,0,13.85,7c-.11,1.89,1.45,3.56,3.23,4.2a13.33,13.33,0,0,0,5.62.34c4-.33,8.7-1,10.77-4.51,1.39,2.09,4.12,2.94,6.62,2.76a20.25,20.25,0,0,0,7.12-1.46,3.54,3.54,0,0,1-.26-.41,6.31,6.31,0,0,0,1.08-.52c1.92-1.17,3.11-3.71,2.21-5.78l2.18,2.53a8.7,8.7,0,0,0,3.64-11,10.58,10.58,0,0,1,3.43,2.29A5.2,5.2,0,0,0,573.4,234.35Z"/><path class="cls-14" d="M572.48,237.45a3.61,3.61,0,0,0-.47-2.36,4.84,4.84,0,0,0-2.11-1.87,11.54,11.54,0,0,0-3.71-.86,15,15,0,0,1-4.64-1,5.67,5.67,0,0,1-2.12-1.67,8.35,8.35,0,0,1-1.29-2.54c-.62-1.84-.76-3.87-1.37-5.8a8.73,8.73,0,0,0-1.36-2.73A4.42,4.42,0,0,0,552.9,217c-1-.25-2.12-.23-3.21-.45a5.18,5.18,0,0,1-2.86-1.55c-1.52-1.57-2.12-3.59-2.79-5.34a11.85,11.85,0,0,0-2.69-4.51,10.66,10.66,0,0,0-10.43-2.87,20.94,20.94,0,0,0-2.34.83,2.88,2.88,0,0,1,.56-.34,9.6,9.6,0,0,1,1.73-.69,10.7,10.7,0,0,1,6.78.2,11.06,11.06,0,0,1,4,2.56,12,12,0,0,1,2.84,4.65c.68,1.77,1.29,3.71,2.71,5.15a4.68,4.68,0,0,0,2.59,1.41c1,.2,2.11.17,3.23.45a5,5,0,0,1,2.8,1.84,8.73,8.73,0,0,1,1.43,2.9c.63,2,.75,4,1.35,5.8a6.06,6.06,0,0,0,3.13,4,14.83,14.83,0,0,0,4.5,1,11.68,11.68,0,0,1,3.8,1,4.89,4.89,0,0,1,2.15,2,3.3,3.3,0,0,1,.44,1.82A2,2,0,0,1,572.48,237.45Z"/><path class="cls-14" d="M559.7,251.86a3.41,3.41,0,0,0,.55-.33,2.71,2.71,0,0,0,1-1.46,3.87,3.87,0,0,0-.17-2.78,6.71,6.71,0,0,0-2.65-2.66c-1.2-.76-2.68-1.33-4.14-2.26A7.35,7.35,0,0,1,551,238a41.72,41.72,0,0,1-.77-6c-.25-2-.87-4.19-2.65-5.42s-4-1.58-5.59-3.2a10.36,10.36,0,0,1-2.43-5.53c-.31-1.9-.44-3.71-.87-5.33a12.42,12.42,0,0,0-2-4.16,13.17,13.17,0,0,0-5.25-4.15c-1.48-.61-2.37-.73-2.36-.79a2.74,2.74,0,0,1,.64.08,10.32,10.32,0,0,1,1.8.53,12.83,12.83,0,0,1,5.46,4.11,12.41,12.41,0,0,1,2.13,4.27c.46,1.66.6,3.49.93,5.35a9.86,9.86,0,0,0,2.32,5.27c1.39,1.47,3.64,1.83,5.53,3.13A6.11,6.11,0,0,1,550,228.8a12.07,12.07,0,0,1,.78,3.13,42,42,0,0,0,.72,5.91,6.84,6.84,0,0,0,1.15,2.42,7.3,7.3,0,0,0,1.89,1.7c1.4.91,2.88,1.51,4.11,2.31a7,7,0,0,1,2.71,2.85,4,4,0,0,1,.1,3,2.8,2.8,0,0,1-1.14,1.48A1.69,1.69,0,0,1,559.7,251.86Z"/><path class="cls-14" d="M535.55,254.05a3.49,3.49,0,0,0,.66-2,5.76,5.76,0,0,0-.52-2.38c-.38-.89-1-1.82-1.52-3a5.94,5.94,0,0,1-.42-4,22.19,22.19,0,0,1,1.84-4.28,10,10,0,0,0,1.31-4.76,8.31,8.31,0,0,0-1.75-4.93c-1.1-1.48-2.46-2.73-3.53-4.19a9.52,9.52,0,0,1-1.3-2.33,9.34,9.34,0,0,1-.51-2.51,20.14,20.14,0,0,1,.36-4.65,38.5,38.5,0,0,0,.57-4,9.29,9.29,0,0,0-1.06-5.55,8.07,8.07,0,0,0-1.35-1.62,1.81,1.81,0,0,1,.46.32,5.23,5.23,0,0,1,1.06,1.19,9.2,9.2,0,0,1,1.26,5.68,38.36,38.36,0,0,1-.51,4,19.76,19.76,0,0,0-.31,4.54,8.49,8.49,0,0,0,.5,2.38,9.16,9.16,0,0,0,1.24,2.2c1,1.4,2.4,2.64,3.54,4.18a8.84,8.84,0,0,1,1.84,5.23,10.55,10.55,0,0,1-1.39,5,22.26,22.26,0,0,0-1.85,4.18,5.51,5.51,0,0,0,.34,3.79c.49,1.11,1.08,2.07,1.45,3a5.83,5.83,0,0,1,.45,2.51,3.1,3.1,0,0,1-.48,1.53A1.57,1.57,0,0,1,535.55,254.05Z"/><path class="cls-14" d="M518,253.23a1.24,1.24,0,0,1-.29-.48,2.5,2.5,0,0,1,0-1.62,4.4,4.4,0,0,1,1.52-2.06,21.58,21.58,0,0,0,2.56-2.11,6.94,6.94,0,0,0,1.64-3.53,8.05,8.05,0,0,0-.71-4.43,10.36,10.36,0,0,1-1-5.11,17.59,17.59,0,0,1,1.9-5.25,10.92,10.92,0,0,0,1.34-5.18,22.53,22.53,0,0,0-1.08-5,15.23,15.23,0,0,1-.24-8.72,9.83,9.83,0,0,1,3.26-4.89,8,8,0,0,1,1.36-.86,2,2,0,0,1,.53-.2A14.41,14.41,0,0,0,527,205a9.87,9.87,0,0,0-3,4.84,15,15,0,0,0,.35,8.48,22,22,0,0,1,1.13,5.07,11.32,11.32,0,0,1-1.38,5.43,18.09,18.09,0,0,0-1.86,5.09,9.79,9.79,0,0,0,1,4.88,12.07,12.07,0,0,1,.69,2.34,7,7,0,0,1,0,2.32,7.19,7.19,0,0,1-1.8,3.71,19.8,19.8,0,0,1-2.65,2.09,4.26,4.26,0,0,0-1.51,1.9,2.4,2.4,0,0,0-.11,1.52C517.93,253.06,518.05,253.22,518,253.23Z"/></g><g id="freepik--Plants--inject-5"><path class="cls-6" d="M105,446.88a1.85,1.85,0,0,1,.18-.44l.59-1.27a31.21,31.21,0,0,0,1.75-5.06c1.15-4.5,1.55-11.37-.15-19.54a104.45,104.45,0,0,0-3.63-13.12c-1.53-4.66-3.31-9.6-4.77-14.94a57.76,57.76,0,0,1-2.35-17.18c.22-6.08,2-12.15,4-18.18s4-12,4.62-17.91A27.27,27.27,0,0,0,102,322.71c-2.62-4.83-5.91-8.95-8.38-13.23a46.25,46.25,0,0,1-5-12.71,47.23,47.23,0,0,1-.31-19.7,36.32,36.32,0,0,1,2-7,3.45,3.45,0,0,1-.12.46l-.42,1.34a49.25,49.25,0,0,0-1.27,5.2,48.08,48.08,0,0,0,.5,19.59,45.5,45.5,0,0,0,5,12.56c2.46,4.22,5.77,8.33,8.44,13.21a27.87,27.87,0,0,1,3.39,16.87c-.62,6.05-2.68,12-4.65,18s-3.75,12-4,18a57.5,57.5,0,0,0,2.3,17c1.43,5.31,3.19,10.26,4.71,14.93a102.47,102.47,0,0,1,3.56,13.2c1.66,8.23,1.19,15.17,0,19.68a29.52,29.52,0,0,1-1.86,5.06c-.28.52-.49.93-.65,1.24A4.16,4.16,0,0,1,105,446.88Z"/><path class="cls-7" d="M96.93,313.7s-5-16,4-25.39a.56.56,0,0,1,.77-.14.58.58,0,0,1,.23.42C102.34,291.23,102.94,299.28,96.93,313.7Z"/><path class="cls-6" d="M99.93,293.65a14.45,14.45,0,0,1-.34,3c-.33,2-.71,4.42-1.14,7.06s-.8,5-1.12,7.06a16.23,16.23,0,0,1-.53,2.93,12.55,12.55,0,0,1,.09-3c.16-1.83.49-4.35.94-7.11s.94-5.25,1.33-7A14.14,14.14,0,0,1,99.93,293.65Z"/><path class="cls-7" d="M102.81,351.46s3.06-16.49,15.39-20.58a.54.54,0,0,1,.7.33.5.5,0,0,1,0,.36C118.1,334.13,114.86,341.53,102.81,351.46Z"/><path class="cls-6" d="M114.84,335.14a15.19,15.19,0,0,1-1.68,2.45l-4.31,5.71-4.29,5.7a15.84,15.84,0,0,1-1.84,2.33,12.2,12.2,0,0,1,1.47-2.58c1-1.54,2.47-3.62,4.16-5.85s3.28-4.2,4.46-5.6A14.31,14.31,0,0,1,114.84,335.14Z"/><path class="cls-7" d="M99.48,392.84s-1.86-16.67,8.75-24.16a.55.55,0,0,1,.77.11.6.6,0,0,1,.11.34C109.08,371.82,108.13,379.84,99.48,392.84Z"/><path class="cls-6" d="M106.25,373.73a14.76,14.76,0,0,1-.89,2.83l-2.47,6.72c-.92,2.51-1.74,4.78-2.45,6.72a15.2,15.2,0,0,1-1.08,2.76,12.08,12.08,0,0,1,.66-2.9c.51-1.76,1.31-4.17,2.28-6.8s1.92-5,2.64-6.66A14.06,14.06,0,0,1,106.25,373.73Z"/><path class="cls-7" d="M108.76,434.46s-1.26-16.73,9.61-23.83a.55.55,0,0,1,.76.14.52.52,0,0,1,.1.34C119.1,413.79,117.87,421.78,108.76,434.46Z"/><path class="cls-6" d="M116.21,415.6a14,14,0,0,1-1,2.81c-.78,1.9-1.7,4.14-2.71,6.62l-2.68,6.62a16.07,16.07,0,0,1-1.18,2.73,12.49,12.49,0,0,1,.76-2.88c.57-1.74,1.46-4.12,2.52-6.71s2.1-4.9,2.88-6.56A14.79,14.79,0,0,1,116.21,415.6Z"/><path class="cls-7" d="M89.73,299.63s-14.87-7.77-15.16-20.75a.55.55,0,0,1,.55-.57.54.54,0,0,1,.32.09C77.65,279.93,83.77,285.2,89.73,299.63Z"/><path class="cls-6" d="M77.66,283.34a14.92,14.92,0,0,1,1.85,2.33l4.2,5.79,4.2,5.79a16.39,16.39,0,0,1,1.7,2.44,12.1,12.1,0,0,1-2-2.17c-1.18-1.41-2.73-3.42-4.36-5.69s-3.06-4.37-4-5.91A13.67,13.67,0,0,1,77.66,283.34Z"/><path class="cls-7" d="M105.7,334s-15.31-6.85-16.39-19.79a.56.56,0,0,1,.49-.61.57.57,0,0,1,.34.08C92.44,315.09,98.88,320,105.7,334Z"/><path class="cls-6" d="M92.66,318.49a15,15,0,0,1,2,2.21c1.31,1.59,2.84,3.47,4.54,5.53l4.55,5.52a17.3,17.3,0,0,1,1.84,2.33,12.1,12.1,0,0,1-2.17-2c-1.26-1.33-2.94-3.24-4.71-5.41s-3.31-4.18-4.4-5.66A14,14,0,0,1,92.66,318.49Z"/><path class="cls-7" d="M96.89,372.37s-10.51-13.07-5.58-25.08A.55.55,0,0,1,92,347a.53.53,0,0,1,.3.25C93.71,349.48,97.21,356.76,96.89,372.37Z"/><path class="cls-6" d="M92.35,352.61a15,15,0,0,1,.77,2.87c.43,2,.95,4.38,1.52,7s1.09,5,1.54,7a15.94,15.94,0,0,1,.57,2.91,11.7,11.7,0,0,1-1-2.8c-.52-1.76-1.14-4.22-1.73-7s-1-5.23-1.34-7A13.61,13.61,0,0,1,92.35,352.61Z"/><path class="cls-7" d="M107.31,417.51s-15.2-7.11-16.06-20.06a.55.55,0,0,1,.49-.6.6.6,0,0,1,.35.08C94.37,398.36,100.72,403.35,107.31,417.51Z"/><path class="cls-6" d="M94.53,401.77a15.18,15.18,0,0,1,2,2.24l4.44,5.61,4.46,5.59a16.53,16.53,0,0,1,1.8,2.36A12.86,12.86,0,0,1,105,415.5c-1.23-1.36-2.88-3.3-4.61-5.49s-3.24-4.24-4.3-5.73A13.84,13.84,0,0,1,94.53,401.77Z"/><path class="cls-6" d="M137.58,351.55a2.29,2.29,0,0,1,0,.37V353c0,1-.11,2.37-.18,4.07-.2,3.58-.47,8.56-.8,14.53h0c-1.09,6.07-4.18,12.8-8.33,19.33-3,4.81-6.24,9.19-9,13.26a92.74,92.74,0,0,0-6.75,11.14,47.66,47.66,0,0,0-3.15,8.18c-.27,1-.47,1.79-.58,2.32a3.75,3.75,0,0,1-.23.81,4.59,4.59,0,0,1,.1-.83c.08-.55.24-1.34.47-2.36a43.87,43.87,0,0,1,3-8.31,91.19,91.19,0,0,1,6.67-11.27c2.73-4.1,5.91-8.48,8.94-13.27,4.13-6.5,7.21-13.13,8.33-19.1h0c.42-6,.77-10.94,1-14.51.13-1.69.24-3.05.32-4.06a9.11,9.11,0,0,1,.11-1.07C137.53,351.55,137.56,351.55,137.58,351.55Z"/><path class="cls-7" d="M128.53,389.7s6.43-15.49-1.66-25.64a.55.55,0,0,0-.76-.16.58.58,0,0,0-.24.35C125.18,366.84,123.85,374.81,128.53,389.7Z"/><path class="cls-6" d="M127.36,369.46a14.62,14.62,0,0,1,.51,2.93c.22,1.82.48,4.35.68,7.14s.29,5.33.29,7.16a12.58,12.58,0,0,1-.18,3,16.73,16.73,0,0,1-.26-3c-.14-2.06-.3-4.47-.48-7.14s-.35-5.08-.5-7.13A14.63,14.63,0,0,1,127.36,369.46Z"/><g class="cls-12"><path d="M128.53,389.7s6.43-15.49-1.66-25.64a.55.55,0,0,0-.76-.16.58.58,0,0,0-.24.35C125.18,366.84,123.85,374.81,128.53,389.7Z"/></g><path class="cls-7" d="M108.59,427s5.16-16-3.73-25.43a.56.56,0,0,0-.79-.1.58.58,0,0,0-.21.37C103.4,404.52,102.72,412.57,108.59,427Z"/><path class="cls-6" d="M105.78,407a12.46,12.46,0,0,1,.75,2.88c.37,1.79.83,4.29,1.26,7.05s.72,5.29.87,7.12a11.59,11.59,0,0,1,.06,3,17.09,17.09,0,0,1-.5-2.93c-.3-2-.66-4.43-1-7.07s-.77-5-1.08-7.07A15,15,0,0,1,105.78,407Z"/><g class="cls-12"><path d="M108.59,427s5.16-16-3.73-25.43a.56.56,0,0,0-.79-.1.58.58,0,0,0-.21.37C103.4,404.52,102.72,412.57,108.59,427Z"/></g><path class="cls-7" d="M136.72,370.77s13.75-9.62,12.36-22.53a.54.54,0,0,0-.59-.5.55.55,0,0,0-.33.14C146.16,349.68,140.77,355.69,136.72,370.77Z"/><g class="cls-12"><path d="M136.72,370.77s13.75-9.62,12.36-22.53a.54.54,0,0,0-.59-.5.55.55,0,0,0-.33.14C146.16,349.68,140.77,355.69,136.72,370.77Z"/></g><path class="cls-6" d="M146.59,353.06a12.47,12.47,0,0,1-1.14,2.75c-.78,1.66-1.92,3.92-3.25,6.38s-2.61,4.66-3.59,6.21a12.16,12.16,0,0,1-1.75,2.41,16.47,16.47,0,0,1,1.36-2.64l3.43-6.27,3.41-6.29A15,15,0,0,1,146.59,353.06Z"/><path class="cls-7" d="M114.13,411.21s16.58-2.58,21-14.78a.55.55,0,0,0-.32-.72.53.53,0,0,0-.35,0C131.9,396.43,124.41,399.45,114.13,411.21Z"/><g class="cls-12"><path d="M114.13,411.21s16.58-2.58,21-14.78a.55.55,0,0,0-.32-.72.53.53,0,0,0-.35,0C131.9,396.43,124.41,399.45,114.13,411.21Z"/></g><path class="cls-6" d="M130.8,399.66a13.3,13.3,0,0,1-2.24,2c-1.43,1.15-3.45,2.68-5.73,4.3s-4.39,3-6,4a12.53,12.53,0,0,1-2.63,1.4,15.23,15.23,0,0,1,2.39-1.77l5.83-4.13,5.83-4.14A14.31,14.31,0,0,1,130.8,399.66Z"/><polygon class="cls-14" points="98.32 441.72 93.49 474.26 123.62 474.26 119.71 441.72 98.32 441.72"/><path class="cls-6" d="M120.92,451.8c0,.17-5.44.31-12.15.31s-12.15-.14-12.15-.31,5.43-.31,12.15-.31S120.92,451.63,120.92,451.8Z"/><path class="cls-6" d="M121.51,454.39c0,.17-5.61.31-12.54.31s-12.55-.14-12.55-.31,5.61-.31,12.55-.31S121.51,454.22,121.51,454.39Z"/><path class="cls-7" d="M658,430.7a8.25,8.25,0,0,0-5,4.05,14.53,14.53,0,0,0-1.66,6.36c-.25,4.28,1.41,8.92,3.4,12.71,4.06-2.48,5.79-7.71,6.51-10.43,1.12-4.28.55-12.71-3.22-12.69"/><path class="cls-7" d="M649.46,460a7,7,0,0,0-1.11-7,9.35,9.35,0,0,0-6.43-3.28,3.91,3.91,0,0,0-3.21.83,3,3,0,0,0-.56,3,6.16,6.16,0,0,0,1.85,2.57c2.73,2.45,5.82,4.31,9.46,3.87"/><path class="cls-6" d="M651.79,473.67a6.46,6.46,0,0,0,0-.88v-2.41a24.59,24.59,0,0,0-1.13-7.85A15.18,15.18,0,0,0,646.3,456a9.58,9.58,0,0,0-2-1.34c-.25-.13-.46-.21-.6-.27l-.21-.06a16.27,16.27,0,0,1,2.68,1.83,15.48,15.48,0,0,1,4.22,6.53,26.45,26.45,0,0,1,1.2,7.75c0,1,.09,1.83.13,2.4A4.35,4.35,0,0,0,651.79,473.67Z"/><path class="cls-6" d="M657.9,437.16a2.24,2.24,0,0,0-.1.37l-.25,1.07c-.21.93-.5,2.28-.84,3.95-.69,3.34-1.57,8-2.42,13.1s-1.53,9.8-2,13.18c-.22,1.69-.38,3.06-.49,4a8.43,8.43,0,0,1-.11,1.09,1.28,1.28,0,0,0,0,.39c0-.12.06-.25.08-.38,0-.28.1-.64.16-1.08.15-1,.35-2.34.59-4,.49-3.37,1.2-8,2.05-13.16s1.7-9.76,2.33-13.11c.31-1.65.56-3,.75-4,.08-.44.14-.8.19-1.08S657.92,437.16,657.9,437.16Z"/><path class="cls-7" d="M655.13,463.64A16.5,16.5,0,0,1,666,453.27c1.28-.36,2.88-.46,3.7.58s.34,2.58-.35,3.72A14,14,0,0,1,655.16,464"/><path class="cls-6" d="M664.77,457.15a4.36,4.36,0,0,0-.81.2,7.65,7.65,0,0,0-.92.31,10.26,10.26,0,0,0-1.19.49,12.19,12.19,0,0,0-1.39.72,15.32,15.32,0,0,0-1.52,1,18.39,18.39,0,0,0-3,2.78,17.49,17.49,0,0,0-2.28,3.43,16.24,16.24,0,0,0-.71,1.66,12.93,12.93,0,0,0-.48,1.49c-.14.46-.19.89-.27,1.26a6.69,6.69,0,0,0-.14,1,5.75,5.75,0,0,0,0,.83c.07,0,.15-1.17.67-3a12.62,12.62,0,0,1,.51-1.46,16.65,16.65,0,0,1,.72-1.62,17.44,17.44,0,0,1,5.24-6.11,16.67,16.67,0,0,1,1.48-1,14.79,14.79,0,0,1,1.35-.74C663.64,457.52,664.79,457.22,664.77,457.15Z"/></g></svg>