<svg id="_ÎÓÈ_1" data-name="—ÎÓÈ_1" xmlns="http://www.w3.org/2000/svg" viewBox="0 0 841.89 595.28"><defs><style>.cls-1{opacity:0.8;}.cls-2{fill:#dadada;}</style></defs><g class="cls-1"><path class="cls-2" d="M-489.84,729.17a28.24,28.24,0,0,1,5.08-14.92L9.54,7.25A28.39,28.39,0,0,1,49,.23L758,493.39a28.22,28.22,0,0,1,7,39.37l-494.3,707a28.4,28.4,0,0,1-39.48,7l-709-493.16A28.16,28.16,0,0,1-489.84,729.17ZM767.87,517.75a25.92,25.92,0,0,0-11.15-22.51L47.72,2.09A26.12,26.12,0,0,0,11.4,8.54l-494.3,707a25.94,25.94,0,0,0-4.67,13.72,25.92,25.92,0,0,0,11.15,22.51l709,493.16a26.14,26.14,0,0,0,36.32-6.46l494.3-707A25.94,25.94,0,0,0,767.87,517.75Z"/><path class="cls-2" d="M-493.61,701.81A27.39,27.39,0,0,1-488.46,687L2.12,4A27.72,27.72,0,0,1,40.73-2.39L725.66,487.05a27.54,27.54,0,0,1,6.39,38.51l-490.59,683a27.74,27.74,0,0,1-38.6,6.36L-482.08,725.48A27.49,27.49,0,0,1-493.61,701.81ZM734.93,510.61a25.23,25.23,0,0,0-10.59-21.72L39.4-.55A25.43,25.43,0,0,0,4,5.28l-490.58,683a25.23,25.23,0,0,0-4.73,13.62,25.26,25.26,0,0,0,10.59,21.73l684.94,489.44a25.48,25.48,0,0,0,35.44-5.83l490.58-683A25.15,25.15,0,0,0,734.93,510.61Z"/><path class="cls-2" d="M-497.4,674.46a26.63,26.63,0,0,1,5.24-14.76L-5.3.68A27.06,27.06,0,0,1,32.43-5L693.31,480.71A26.88,26.88,0,0,1,699,518.35l-486.86,659a27.05,27.05,0,0,1-37.74,5.7L-486.45,697.33A26.89,26.89,0,0,1-497.4,674.46ZM702,503.48a24.63,24.63,0,0,0-10-21L31.09-3.19A24.79,24.79,0,0,0-3.48,2L-490.34,661a24.54,24.54,0,0,0-4.8,13.53,24.62,24.62,0,0,0,10,20.94l660.87,485.73a24.77,24.77,0,0,0,34.57-5.22L697.2,517A24.44,24.44,0,0,0,702,503.48Z"/><path class="cls-2" d="M-501.19,647.12a26,26,0,0,1,5.32-14.7L-12.73-2.6A26.17,26.17,0,0,1,4.66-12.73,26.24,26.24,0,0,1,24.14-7.64L661,474.38a26.19,26.19,0,0,1,5,36.77l-483.14,635a26.39,26.39,0,0,1-36.86,5l-636.82-482A26.24,26.24,0,0,1-501.19,647.12ZM669.08,496.35a24,24,0,0,0-9.49-20.17L22.77-5.83A23.91,23.91,0,0,0,5-10.49,23.91,23.91,0,0,0-10.92-1.23l-483.14,635a23.8,23.8,0,0,0-4.87,13.43,24,24,0,0,0,9.49,20.17l636.82,482a24.11,24.11,0,0,0,33.68-4.6l483.15-635A23.88,23.88,0,0,0,669.08,496.35Z"/><path class="cls-2" d="M-505,619.76a25.37,25.37,0,0,1,5.42-14.62l479.42-611A25.45,25.45,0,0,1-3.06-15.5a25.48,25.48,0,0,1,18.91,5.25L628.6,468a25.53,25.53,0,0,1,4.4,35.9L153.58,1115a25.7,25.7,0,0,1-36,4.38L-495.18,641A25.64,25.64,0,0,1-505,619.76ZM636.15,489.22a23.33,23.33,0,0,0-8.95-19.4L14.45-8.47A23.28,23.28,0,0,0-2.78-13.26,23.27,23.27,0,0,0-18.36-4.49l-479.42,611a23.15,23.15,0,0,0-5,13.32,23.39,23.39,0,0,0,9,19.4L119,1117.55a23.42,23.42,0,0,0,32.81-4l479.42-611A23.09,23.09,0,0,0,636.15,489.22Z"/><path class="cls-2" d="M-508.79,592.41a24.68,24.68,0,0,1,5.52-14.55l475.7-587A25,25,0,0,1,7.55-12.87l588.7,474.58a25,25,0,0,1,9.25,20.47A24.68,24.68,0,0,1,600,496.74l-475.7,587a25,25,0,0,1-35.12,3.71l-588.7-474.58A25,25,0,0,1-508.79,592.41Zm1112-110.33a22.71,22.71,0,0,0-8.41-18.61L6.13-11.11A22.77,22.77,0,0,0-25.8-7.74l-475.71,587a22.4,22.4,0,0,0-5,13.22,22.74,22.74,0,0,0,8.41,18.62l588.7,474.58a22.74,22.74,0,0,0,31.93-3.37l475.7-587A22.38,22.38,0,0,0,603.24,482.08Z"/><path class="cls-2" d="M-512.6,565.06A24,24,0,0,1-507,550.58l472-563A24.16,24.16,0,0,1-18.49-21,24.15,24.15,0,0,1-.74-15.49L563.9,455.37A24.2,24.2,0,0,1,567,489.53l-472,563a24.39,24.39,0,0,1-34.25,3L-503.91,584.74A24,24,0,0,1-512.6,565.06ZM570.33,475a21.82,21.82,0,0,0-7.88-17.84L-2.19-13.76a22,22,0,0,0-16.1-5,21.87,21.87,0,0,0-15,7.8l-472,563a21.72,21.72,0,0,0-5.11,13.12A21.83,21.83,0,0,0-502.45,583L62.19,1053.87a22.1,22.1,0,0,0,31.05-2.76l472-563A21.77,21.77,0,0,0,570.33,475Z"/><path class="cls-2" d="M-516.42,537.71a23.27,23.27,0,0,1,5.76-14.4l468.26-539a23.42,23.42,0,0,1,16.19-8.08A23.52,23.52,0,0,1-9-18.11L531.55,449a23.54,23.54,0,0,1,2.39,33.29l-468.26,539a23.69,23.69,0,0,1-33.38,2.38L-508.27,556.59A23.47,23.47,0,0,1-516.42,537.71ZM537.43,467.82a21.22,21.22,0,0,0-7.37-17.07L-10.51-16.4A21.3,21.3,0,0,0-26-21.56a21.27,21.27,0,0,0-14.64,7.31l-468.26,539a21.09,21.09,0,0,0-5.2,13,21.21,21.21,0,0,0,7.36,17.07L33.79,1022A21.42,21.42,0,0,0,64,1019.88l468.26-539A21,21,0,0,0,537.43,467.82Z"/><path class="cls-2" d="M-520.24,510.36A22.85,22.85,0,0,1-514.36,496L-49.82-19a23,23,0,0,1,15.9-7.57,22.9,22.9,0,0,1,16.6,5.86L499.2,442.71a22.91,22.91,0,0,1,1.72,32.41l-464.54,515a23.05,23.05,0,0,1-32.5,1.71L-512.64,528.43A22.85,22.85,0,0,1-520.24,510.36ZM504.53,460.69a20.57,20.57,0,0,0-6.85-16.3L-18.84-19a20.6,20.6,0,0,0-15-5.27A20.59,20.59,0,0,0-48.13-17.5l-464.55,515a20.68,20.68,0,0,0-5.3,12.92,20.62,20.62,0,0,0,6.86,16.3L5.39,990.19a20.79,20.79,0,0,0,29.3-1.54l464.54-515A20.65,20.65,0,0,0,504.53,460.69Z"/><path class="cls-2" d="M-524.08,483a22.39,22.39,0,0,1,6-14.27l460.82-491a22.24,22.24,0,0,1,15.6-7,22.22,22.22,0,0,1,16,6L466.85,436.38a22.26,22.26,0,0,1,1,31.54L7.07,959a22.44,22.44,0,0,1-31.62,1L-517,500.29A22.33,22.33,0,0,1-524.08,483Zm995.73-29.46A20,20,0,0,0,465.3,438L-27.16-21.69a20,20,0,0,0-14.4-5.4,19.94,19.94,0,0,0-14,6.34l-460.82,491a20,20,0,0,0-5.41,12.82,20.06,20.06,0,0,0,6.35,15.53L-23,958.35a20.17,20.17,0,0,0,28.42-.93l460.82-491A20,20,0,0,0,471.65,453.55Z"/><path class="cls-2" d="M-527.92,455.65a21.67,21.67,0,0,1,6.17-14.19l457.1-467A21.81,21.81,0,0,1-33.9-26L434.5,430a21.65,21.65,0,0,1,.37,30.68l-457.1,467a21.81,21.81,0,0,1-30.76.37l-468.39-456A21.74,21.74,0,0,1-527.92,455.65Zm966.69-9.23a19.45,19.45,0,0,0-5.85-14.76l-468.4-456A19.55,19.55,0,0,0-63-24L-520.13,443a19.37,19.37,0,0,0-5.52,12.71,19.4,19.4,0,0,0,5.86,14.76l468.39,456a19.55,19.55,0,0,0,27.55-.34l457.1-467A19.39,19.39,0,0,0,438.77,446.42Z"/><path class="cls-2" d="M-531.77,428.3a21,21,0,0,1,6.32-14.12L-72.07-28.88a21.2,21.2,0,0,1,29.88.31L402.15,423.72a21,21,0,0,1-.3,29.8L-51.53,896.57a21.2,21.2,0,0,1-29.88-.31L-525.75,444A21.15,21.15,0,0,1-531.77,428.3Zm937.67,11a18.84,18.84,0,0,0-5.37-14L-43.8-27a18.93,18.93,0,0,0-26.68-.27L-523.86,415.79a18.72,18.72,0,0,0-5.64,12.62,18.82,18.82,0,0,0,5.37,14L-79.8,894.68a18.93,18.93,0,0,0,26.68.27L400.26,451.9A18.71,18.71,0,0,0,405.9,439.29Z"/><path class="cls-2" d="M-535.63,401a20.31,20.31,0,0,1,6.49-14.05L-79.48-32.16a20.38,20.38,0,0,1,14.71-5.5,20.42,20.42,0,0,1,14.3,6.48L369.8,417.39a20.43,20.43,0,0,1-1,28.93L-80.84,865.37a20.58,20.58,0,0,1-29-1L-530.12,415.82A20.32,20.32,0,0,1-535.63,401Zm908.68,31.21a18.06,18.06,0,0,0-4.91-13.23L-52.13-29.63A18.12,18.12,0,0,0-64.85-35.4a18.14,18.14,0,0,0-13.08,4.89L-527.59,388.55a18.07,18.07,0,0,0-5.77,12.5,18,18,0,0,0,4.9,13.23l420.27,448.56a18.31,18.31,0,0,0,25.8.88L367.27,444.66A18.08,18.08,0,0,0,373.05,432.16Z"/><path class="cls-2" d="M-539.5,373.6a19.72,19.72,0,0,1,6.67-14L-86.89-35.45a20,20,0,0,1,28.13,1.66L337.46,411.07a19.83,19.83,0,0,1-1.66,28.05L-110.15,834.19a20,20,0,0,1-28.13-1.68L-534.49,387.67A19.74,19.74,0,0,1-539.5,373.6ZM340.2,425a17.5,17.5,0,0,0-4.44-12.46L-60.46-32.28a17.7,17.7,0,0,0-24.92-1.48L-531.32,361.3a17.37,17.37,0,0,0-5.91,12.4,17.48,17.48,0,0,0,4.44,12.46L-136.58,831a17.71,17.71,0,0,0,24.93,1.48L334.29,437.42A17.44,17.44,0,0,0,340.2,425Z"/><path class="cls-2" d="M-543.39,346.25a19.31,19.31,0,0,1,6.87-13.92L-94.3-38.74A19.27,19.27,0,0,1-80.18-43.2,19.25,19.25,0,0,1-67-36.4L305.11,404.74a19.26,19.26,0,0,1-2.35,27.18L-139.46,803a19.39,19.39,0,0,1-27.25-2.34L-538.86,359.5A19.2,19.2,0,0,1-543.39,346.25ZM307.37,417.9a17,17,0,0,0-4-11.7L-68.78-34.94a17,17,0,0,0-11.6-6A17,17,0,0,0-92.84-37L-535.06,334.06a17.09,17.09,0,0,0-6.06,12.29,17,17,0,0,0,4,11.7L-165,799.18a17.12,17.12,0,0,0,24.05,2.07L301.3,430.19A17.06,17.06,0,0,0,307.37,417.9Z"/><path class="cls-2" d="M-547.29,318.89A18.71,18.71,0,0,1-540.2,305L-101.7-42A18.67,18.67,0,0,1-87.89-46a18.66,18.66,0,0,1,12.56,7L272.76,398.42a18.69,18.69,0,0,1-3,26.3l-438.5,347.07a18.82,18.82,0,0,1-26.37-3l-348.1-437.42A18.77,18.77,0,0,1-547.29,318.89Zm821.84,91.87A16.4,16.4,0,0,0,271,399.83L-77.11-37.59a16.37,16.37,0,0,0-11-6.12,16.38,16.38,0,0,0-12.14,3.45l-438.5,347.08A16.42,16.42,0,0,0-545,319a16.47,16.47,0,0,0,3.56,10.93l348.09,437.42A16.56,16.56,0,0,0-170.18,770L268.32,423A16.46,16.46,0,0,0,274.55,410.76Z"/><path class="cls-2" d="M-551.2,291.54a18.1,18.1,0,0,1,7.32-13.79L-109.11-45.32A18.28,18.28,0,0,1-83.62-41.6l324,433.7a18.14,18.14,0,0,1-3.72,25.42L-198.08,740.6a18.28,18.28,0,0,1-25.49-3.72l-324-433.7A18.25,18.25,0,0,1-551.2,291.54Zm792.94,112.1a15.9,15.9,0,0,0-3.14-10.19l-324-433.7a16,16,0,0,0-22.31-3.26L-542.53,279.57a15.81,15.81,0,0,0-6.4,12.07,16,16,0,0,0,3.14,10.19l324,433.7a16,16,0,0,0,22.31,3.25L235.34,415.71A15.84,15.84,0,0,0,241.74,403.64Z"/><path class="cls-2" d="M-555.13,264.18a17.49,17.49,0,0,1,7.57-13.71L-116.51-48.61A17.74,17.74,0,0,1-91.9-44.2l300,430a17.6,17.6,0,0,1-4.41,24.54L-227.4,709.41A17.74,17.74,0,0,1-252,705L-552,275A17.45,17.45,0,0,1-555.13,264.18ZM209,396.51a15.22,15.22,0,0,0-2.75-9.43l-300-430a15.45,15.45,0,0,0-21.45-3.84L-546.27,252.33a15.28,15.28,0,0,0-6.6,11.95,15.24,15.24,0,0,0,2.75,9.43l300,430a15.46,15.46,0,0,0,21.46,3.84L202.37,408.47A15.24,15.24,0,0,0,209,396.51Z"/><path class="cls-2" d="M-559.08,236.83a17.15,17.15,0,0,1,7.84-13.65L-123.91-51.9a17.2,17.2,0,0,1,23.72,5.1L175.73,379.47a17.07,17.07,0,0,1-5.11,23.65L-256.72,678.21a17.21,17.21,0,0,1-23.72-5.1L-556.36,246.84A17,17,0,0,1-559.08,236.83ZM176.19,389.39a14.63,14.63,0,0,0-2.37-8.69L-102.09-45.58A14.94,14.94,0,0,0-122.68-50L-550,225.08a14.9,14.9,0,0,0-6.81,11.85,14.7,14.7,0,0,0,2.38,8.68l275.91,426.28a14.93,14.93,0,0,0,20.58,4.42L169.39,401.22A14.85,14.85,0,0,0,176.19,389.39Z"/><path class="cls-2" d="M-563,209.47a16.53,16.53,0,0,1,8.13-13.57L-131.3-55.19a16.71,16.71,0,0,1,22.83,5.79L143.38,373.16a16.57,16.57,0,0,1-5.8,22.77L-286,647a16.7,16.7,0,0,1-22.83-5.79L-560.73,218.67A16.56,16.56,0,0,1-563,209.47ZM143.44,382.26a14.3,14.3,0,0,0-2-7.94L-110.42-48.24a14.43,14.43,0,0,0-19.72-5L-553.76,197.84a14.31,14.31,0,0,0-7,11.73,14.33,14.33,0,0,0,2,7.94l251.86,422.56a14.42,14.42,0,0,0,19.72,5L136.42,394A14.29,14.29,0,0,0,143.44,382.26Z"/><path class="cls-2" d="M-567,182.11a16.24,16.24,0,0,1,8.46-13.5l419.9-227.09A16.23,16.23,0,0,1-116.75-52L111,366.85a16.09,16.09,0,0,1-6.51,21.88l-419.9,227.1a16.22,16.22,0,0,1-21.94-6.5L-565.1,190.49A16.16,16.16,0,0,1-567,182.11Zm677.77,193a13.77,13.77,0,0,0-1.68-7.21L-118.75-50.91a14,14,0,0,0-18.86-5.58L-557.51,170.6a13.77,13.77,0,0,0-7.27,11.61,13.82,13.82,0,0,0,1.67,7.2l227.8,418.84a13.94,13.94,0,0,0,18.86,5.59l419.9-227.1A13.76,13.76,0,0,0,110.72,375.14Z"/><path class="cls-2" d="M-571.06,154.74a15.66,15.66,0,0,1,8.79-13.41l416.19-203.1a15.76,15.76,0,0,1,21,7.19L78.7,360.55a15.66,15.66,0,0,1-7.22,21L-344.7,584.63a15.75,15.75,0,0,1-21-7.19L-569.48,162.31A15.64,15.64,0,0,1-571.06,154.74ZM78,368a13.31,13.31,0,0,0-1.36-6.47L-127.08-53.58a13.48,13.48,0,0,0-18-6.16l-416.18,203.1a13.42,13.42,0,0,0-7.54,11.48,13.49,13.49,0,0,0,1.36,6.48L-363.7,576.44a13.49,13.49,0,0,0,18,6.16L70.49,379.51A13.43,13.43,0,0,0,78,368Z"/></g></svg>