<svg id="Layer_1" data-name="Layer 1" xmlns="http://www.w3.org/2000/svg" viewBox="0 0 1600.42 749"><defs><style>.cls-1,.cls-2{fill:none;stroke:#c5c9e0;opacity:0.5;isolation:isolate;}.cls-2{stroke-dasharray:10;}</style></defs><path class="cls-1" d="M1600,2q-1.39-1-137.49-1c-136.09,0-136.09,248.54-272.19,248.54H918.14c-136.09,0-136.09,248.54-272.19,248.54H373.77C237.68,498.08,268.14,687,132.05,687H0" transform="translate(0 -0.5)"/><path class="cls-1" d="M1600,49.73q-1.39-.73-137.49-.73c-136.09,0-136.09,233.68-272.19,233.68H918.14c-136.09,0-136.09,233.68-272.19,233.68H373.77C237.68,516.36,268.14,693,132.05,693H0" transform="translate(0 -0.5)"/><path class="cls-1" d="M1600,99.44q-1.39-.43-137.49-.44c-136.09,0-136.09,218.1-272.19,218.1H918.14C782.05,317.1,782.05,535.19,646,535.19H373.77C237.68,535.19,268.14,699,132.05,699H0" transform="translate(0 -0.5)"/><path class="cls-2" d="M1600,149.15q-1.39-.15-137.49-.15c-136.09,0-136.09,202.51-272.19,202.51H918.14C782.05,351.51,782.05,554,646,554H373.77c-136.09,0-105.63,151-241.72,151H0" transform="translate(0 -0.5)"/><path class="cls-1" d="M1600,197q-1.39.13-137.49.14c-136.09,0-136.09,187.6-272.19,187.6H918.14c-136.09,0-136.09,187.6-272.19,187.6H373.77C237.68,572.34,268.14,711,132.05,711H0" transform="translate(0 -0.5)"/><path class="cls-1" d="M1600,247q-1.39.44-137.49.43c-136.09,0-136.09,171.91-272.19,171.91H918.14c-136.09,0-136.09,171.91-272.19,171.91H373.77C237.68,591.25,268.14,717,132.05,717H0" transform="translate(0 -0.5)"/><path class="cls-1" d="M1600,296q-1.39.72-137.49.72c-136.09,0-136.09,156.22-272.19,156.22H918.14c-136.09,0-136.09,156.21-272.19,156.21H373.77C237.68,609.15,268.14,722,132.05,722H0" transform="translate(0 -0.5)"/><path class="cls-1" d="M1600,343q-1.39,1-137.49,1c-136.09,0-136.09,141.25-272.19,141.25H918.14c-136.09,0-136.09,141.26-272.19,141.26H373.77C237.68,626.52,268.14,727,132.05,727H0" transform="translate(0 -0.5)"/><path class="cls-1" d="M1600,393H1462c-136.09,0-135.58,125.86-271.68,125.86H918.14c-136.09,0-136.09,125.56-272.19,125.56H373.77C237.68,644.42,268.14,732,132.05,732H0" transform="translate(0 -0.5)"/><path class="cls-1" d="M1600,442q-1.39,1.59-137.49,1.59c-136.09,0-136.09,109.86-272.19,109.86H918.14c-136.09,0-136.09,109.86-272.19,109.86H373.77C237.68,663.31,268.14,738,132.05,738H0" transform="translate(0 -0.5)"/><path class="cls-2" d="M1600,490q-1.39,1.88-137.49,1.87c-136.09,0-136.09,94.91-272.19,94.91H918.14c-136.09,0-136.09,94.92-272.19,94.92H373.77c-136.09,0-105.63,62.3-241.72,62.3H0" transform="translate(0 -0.5)"/><path class="cls-1" d="M1600,538q-1.39,2.18-137.49,2.17c-136.09,0-136.09,79.59-272.19,79.59H918.14c-136.09,0-136.09,79.58-272.19,79.58H373.77C237.68,699.34,268.14,749,132.05,749H0" transform="translate(0 -0.5)"/></svg>