<svg id="Layer_1" data-name="Layer 1" xmlns="http://www.w3.org/2000/svg" viewBox="0 0 795 480"><defs><style>.cls-1{fill:#f4f8fc;}.cls-2{fill:#6b4ffe;}</style></defs><rect class="cls-1" width="795" height="480"/><path class="cls-2" d="M205.12,176.92a5.81,5.81,0,0,0,2.46-7.61,6.34,6.34,0,0,0-8.49-2.91,4.16,4.16,0,0,0-.51.28,91.24,91.24,0,0,0-26,23.33h0a67.05,67.05,0,0,0-9.11,15.75h0A92.32,92.32,0,0,0,156.2,240a6.35,6.35,0,0,0,6.18,6.52H163a5.75,5.75,0,0,0,5.36-5.92A71.69,71.69,0,0,1,205.12,176.92Z"/><path class="cls-2" d="M317.64,243c-3.85-25.95-18.12-46.47-43.39-57.5-32.47-14.17-73.67,1.74-86.18,33.26-9.95,25.16-2,54.33,21.56,66.27a39.21,39.21,0,0,0,48.26-9.56,30,30,0,0,0,7.16-14.2,28.46,28.46,0,0,0-3.38-21.56,28.78,28.78,0,0,0-2.54-3.66c-.22.33-.43.65-.67,1-5,6.75-12.7,9.47-17.22,6.12s-4.18-10.87.2-17.42c-.69,0-1.37-.18-2.07-.23-1.05-.13-2.13-.22-3.21-.27h0a19.26,19.26,0,0,0-10,2.57,26,26,0,0,1,16.45-9.59c12.88-1.93,25.75,4.66,33.08,17a42.56,42.56,0,0,1-4.2,48.31,50.93,50.93,0,0,1-38.73,19,4.69,4.69,0,0,0-3.78,2,6,6,0,0,0,4.5,9.7,60.65,60.65,0,0,0,55.63-38.46c10-25.13,0-53.26-23.52-65.26-20.25-10.32-44.49-2.47-53.4,17.83-.45,1-1.69,5.29-2,6.57a36,36,0,0,0,1.17,19.69,28,28,0,0,0,24.75,16.49h.16a27.57,27.57,0,0,0,13-3.55,25.93,25.93,0,0,1-16.6,9.83c-12.88,1.94-25.75-4.68-33.08-17-8.85-14.87-5.07-35.62,6.28-49.35,17.73-21.49,52.74-25.31,75.06-8.66a62.73,62.73,0,0,1,25.48,41.43,5.83,5.83,0,0,0,9.76,3.33A5,5,0,0,0,317.64,243Z"/><path class="cls-2" d="M382.69,274.71A19.16,19.16,0,0,0,401,256.31h0a27.84,27.84,0,1,1,9.32-20.93v21.06a28.92,28.92,0,0,1-27.72,27.86q-16.29,0-24.37-12.65a4.47,4.47,0,0,1-.52-4,4.37,4.37,0,0,1,2.83-2.9h.16a4.29,4.29,0,0,1,5.42,1.85A18.46,18.46,0,0,0,382.69,274.71ZM401,235a18.44,18.44,0,1,0-18.34,18.81,17.61,17.61,0,0,0,13-5.35A17.84,17.84,0,0,0,401,235.45Z"/><path class="cls-2" d="M430,239a13.33,13.33,0,0,0,4,9.67,13.1,13.1,0,0,0,9.72,4,13,13,0,0,0,9.61-4,13.14,13.14,0,0,0,4-9.67V212.2a4.68,4.68,0,0,1,4.66-4.7h0a4.32,4.32,0,0,1,3.26,1.37,4.49,4.49,0,0,1,1.37,3.33V261a23.75,23.75,0,0,1-22.93,23.15,24.76,24.76,0,0,1-13.12-3.57,22.53,22.53,0,0,1-8.61-9.23,4.68,4.68,0,0,1,2.1-6.27l.48-.21h.21a4.5,4.5,0,0,1,3.19,0,4.72,4.72,0,0,1,2.39,2.25,13.73,13.73,0,0,0,5.44,5.56,15.3,15.3,0,0,0,7.92,2.25,13.92,13.92,0,0,0,13.62-13.71v-3.64A23.08,23.08,0,0,1,420.59,239V212.18a4.49,4.49,0,0,1,1.39-3.31,4.37,4.37,0,0,1,3.24-1.37h.16a4.68,4.68,0,0,1,4.61,4.68V239Z"/><path class="cls-2" d="M503,274.71a19.16,19.16,0,0,0,18.34-18.4h0a27.76,27.76,0,1,1,1.08-40.65l.14.14a27,27,0,0,1,8.17,19.62v21.07A28.92,28.92,0,0,1,503,284.34q-16.31,0-24.37-12.64a4.51,4.51,0,0,1-.51-4,4.35,4.35,0,0,1,2.83-2.9h.16a4.29,4.29,0,0,1,5.42,1.84A18.42,18.42,0,0,0,503,274.71ZM521.33,235A18.44,18.44,0,1,0,503,253.85a17.47,17.47,0,0,0,12.94-5.35,17.76,17.76,0,0,0,5.4-13.05Z"/><path class="cls-2" d="M572.14,217.56c.39-.41.27-.63-.29-.66h-26.1a4.28,4.28,0,0,1-3.24-1.39,4.48,4.48,0,0,1-1.37-3.26v-.16a4.49,4.49,0,0,1,1.37-3.27,4.26,4.26,0,0,1,3.24-1.37h30.51A7.86,7.86,0,0,1,582,221l-30.29,31.69a1.16,1.16,0,0,1-.25.29c-.41.41-.34.63.25.68H580a4.59,4.59,0,0,1,4.63,4.63v.11A4.61,4.61,0,0,1,580,263H547.28a7.16,7.16,0,0,1-7.36-4.75,7.29,7.29,0,0,1,1.67-8.66c3.3-3.47,8.37-8.78,15.12-15.93l15.21-15.91S571.92,217.56,572.14,217.56Z"/><path class="cls-2" d="M602.21,239a13.33,13.33,0,0,0,4,9.67A13.66,13.66,0,0,0,629.48,239V212.2a4.68,4.68,0,0,1,4.68-4.7h0a4.24,4.24,0,0,1,3.26,1.37,4.5,4.5,0,0,1,1.38,3.33V261a23.77,23.77,0,0,1-23,23.15,24.74,24.74,0,0,1-13.12-3.57,22.62,22.62,0,0,1-8.62-9.23,4.68,4.68,0,0,1,2-6.3,4.23,4.23,0,0,1,.58-.25h.2a4.52,4.52,0,0,1,3.2,0,4.72,4.72,0,0,1,2.39,2.25,13.73,13.73,0,0,0,5.44,5.56,15.28,15.28,0,0,0,7.92,2.25,13.9,13.9,0,0,0,13.5-13.7v-3.58A23.07,23.07,0,0,1,592.67,239V212.18a4.47,4.47,0,0,1,1.37-3.31,4.37,4.37,0,0,1,3.24-1.37h.16a4.37,4.37,0,0,1,3.24,1.37,4.49,4.49,0,0,1,1.39,3.31V239Z"/></svg>