<svg id="Layer_1" data-name="Layer 1" xmlns="http://www.w3.org/2000/svg" viewBox="0 0 104 32"><defs><style>.cls-1{fill:#6b4ffe;}</style></defs><path class="cls-1" d="M10.55,2.4A1.25,1.25,0,0,0,11.08.76,1.37,1.37,0,0,0,9.15.19a19.72,19.72,0,0,0-5.6,5h0a14.81,14.81,0,0,0-2,3.41v0A19.77,19.77,0,0,0,0,16a1.38,1.38,0,0,0,1.45,1.4A1.24,1.24,0,0,0,2.6,16.16a14.63,14.63,0,0,1,2.07-8A14.7,14.7,0,0,1,10.55,2.4Z" transform="translate(0 0)"/><path class="cls-1" d="M34.79,16.64A15.32,15.32,0,0,0,25.44,4.25c-7-3-15.87.38-18.56,7.17-2.15,5.42-.45,11.71,4.61,14.29a8.45,8.45,0,0,0,10.4-2.06,6.47,6.47,0,0,0,1.55-3.06,6.16,6.16,0,0,0-.73-4.65,8.62,8.62,0,0,0-.54-.8l-.15.22c-1.07,1.45-2.73,2-3.71,1.32s-.9-2.34,0-3.76l-.44,0a4,4,0,0,0-.69-.06h0a4.27,4.27,0,0,0-2.16.56,5.6,5.6,0,0,1,3.55-2.07A7.15,7.15,0,0,1,25.73,15a9.17,9.17,0,0,1-.9,10.41,11,11,0,0,1-8.35,4.09,1,1,0,0,0-.81.44,1.29,1.29,0,0,0,1,2.09,13.07,13.07,0,0,0,12-8.29A11.07,11.07,0,0,0,23.58,9.65a8.3,8.3,0,0,0-11.51,3.84c-.1.23-.36,1.14-.43,1.42a7.7,7.7,0,0,0,.25,4.24,6,6,0,0,0,5.32,3.55h0a6,6,0,0,0,2.81-.77,5.62,5.62,0,0,1-3.58,2.12,7.14,7.14,0,0,1-7.13-3.66c-1.91-3.2-1.09-7.67,1.35-10.63A12.23,12.23,0,0,1,26.87,7.89a13.54,13.54,0,0,1,5.47,8.92,1.26,1.26,0,0,0,2.1.72A1,1,0,0,0,34.79,16.64Z" transform="translate(0 0)"/><path class="cls-1" d="M48.8,23.47a4.12,4.12,0,0,0,4-4v0a5.93,5.93,0,0,1-8.17-.25A5.78,5.78,0,0,1,42.83,15a5.77,5.77,0,0,1,1.75-4.24,6,6,0,0,1,8.43,0A5.78,5.78,0,0,1,54.77,15V19.5a5.71,5.71,0,0,1-1.88,4.25A5.73,5.73,0,0,1,48.8,25.5a5.8,5.8,0,0,1-5.25-2.72,1,1,0,0,1-.11-.87.94.94,0,0,1,.61-.63h0a.93.93,0,0,1,1.17.4A4,4,0,0,0,48.8,23.47Zm4-8.55a4,4,0,0,0-7.9.07,4,4,0,1,0,7.9,0Z" transform="translate(0 0)"/><path class="cls-1" d="M59,15.77a2.88,2.88,0,0,0,.85,2.09,2.83,2.83,0,0,0,2.09.86A2.79,2.79,0,0,0,64,17.86a2.87,2.87,0,0,0,.86-2.09V10a1,1,0,0,1,1-1h0a1,1,0,0,1,.7.29,1,1,0,0,1,.3.72V20.52A4.75,4.75,0,0,1,65.36,24a4.73,4.73,0,0,1-3.43,1.46,5.37,5.37,0,0,1-2.82-.76,4.81,4.81,0,0,1-1.86-2,1,1,0,0,1,.56-1.4l0,0a1,1,0,0,1,.69,0,1,1,0,0,1,.52.47A2.93,2.93,0,0,0,60.23,23a3.26,3.26,0,0,0,1.7.46,3,3,0,0,0,2.94-3v-.73a4.84,4.84,0,0,1-2.94,1,5,5,0,0,1-5-5V10a1,1,0,0,1,.29-.72A1,1,0,0,1,58,9h0a1,1,0,0,1,.7.3A1,1,0,0,1,59,10v5.77Z" transform="translate(0 0)"/><path class="cls-1" d="M74.72,23.47a4.12,4.12,0,0,0,4-4v0a5.93,5.93,0,0,1-8.17-.25A5.78,5.78,0,0,1,68.75,15a5.77,5.77,0,0,1,1.75-4.24A5.69,5.69,0,0,1,74.72,9a6,6,0,0,1,6,6V19.5a5.71,5.71,0,0,1-1.88,4.25,5.73,5.73,0,0,1-4.09,1.75,5.8,5.8,0,0,1-5.25-2.72,1,1,0,0,1-.11-.87.94.94,0,0,1,.61-.63h0a.93.93,0,0,1,1.17.4A4,4,0,0,0,74.72,23.47Zm4-8.55a4,4,0,0,0-7.9.07,4,4,0,1,0,7.9,0Z" transform="translate(0 0)"/><path class="cls-1" d="M89.62,11.13c.08-.09.06-.14-.06-.14H83.93a.94.94,0,0,1-.7-.3,1,1,0,0,1-.29-.7v0a1,1,0,0,1,.29-.7.94.94,0,0,1,.7-.3h6.58a1.56,1.56,0,0,1,1.58,1,1.57,1.57,0,0,1-.36,1.87q-3.7,3.91-6.52,6.87l0,.07c-.09.08-.07.13,0,.14h6.11a1,1,0,0,1,1,1v0a1,1,0,0,1-.29.72,1,1,0,0,1-.7.28H84.26a1.55,1.55,0,0,1-1.59-1A1.59,1.59,0,0,1,83,18.06l3.26-3.43,3.26-3.44Z" transform="translate(0 0)"/><path class="cls-1" d="M96.1,15.77A2.88,2.88,0,0,0,97,17.86a2.83,2.83,0,0,0,2.09.86,2.79,2.79,0,0,0,2.07-.86,2.87,2.87,0,0,0,.86-2.09V10a1,1,0,0,1,1-1h0a1,1,0,0,1,.7.29,1,1,0,0,1,.3.72V20.52A4.75,4.75,0,0,1,102.47,24,4.73,4.73,0,0,1,99,25.5a5.37,5.37,0,0,1-2.82-.76,4.81,4.81,0,0,1-1.86-2,1,1,0,0,1,.56-1.4l0,0a1,1,0,0,1,.69,0,1,1,0,0,1,.52.47A2.93,2.93,0,0,0,97.34,23a3.26,3.26,0,0,0,1.7.46,3,3,0,0,0,2.94-3v-.73a4.83,4.83,0,0,1-2.93,1,5,5,0,0,1-5-5V10a1,1,0,0,1,.29-.72,1,1,0,0,1,.7-.3h0a1,1,0,0,1,.7.3,1,1,0,0,1,.29.72v5.77Z" transform="translate(0 0)"/></svg>