<svg id="Capa_1" data-name="Capa 1" xmlns="http://www.w3.org/2000/svg" viewBox="0 0 512 452.33"><defs><style>.cls-1{fill:#6831e4;}</style></defs><path class="cls-1" d="M474.64,74.27A129.73,129.73,0,0,0,376,29.84c-53.95,0-88.1,32.22-107.26,59.25A197.25,197.25,0,0,0,256,109.75a195.58,195.58,0,0,0-12.74-20.66C224.1,62.06,190,29.84,136,29.84A129.73,129.73,0,0,0,37.36,74.27C13.27,101.61,0,138.21,0,177.35c0,42.6,16.63,82.23,52.35,124.7,31.91,38,77.83,77.09,131,122.4,19.81,16.88,40.3,34.34,62.12,53.43l.65.57a15,15,0,0,0,19.76,0l.66-.57c21.81-19.09,42.3-36.55,62.11-53.43,53.17-45.31,99.09-84.44,131-122.4C495.37,259.58,512,220,512,177.35,512,138.21,498.73,101.61,474.64,74.27ZM309.19,401.61c-17.08,14.56-34.65,29.54-53.19,45.65-18.53-16.11-36.11-31.09-53.2-45.65C98.75,312.94,30,254.36,30,177.35,30,145.52,40.6,116,59.86,94.11A100.14,100.14,0,0,1,136,59.84c41.13,0,67.72,25.33,82.78,46.59a177.87,177.87,0,0,1,23,45.66,15,15,0,0,0,28.52,0,177.87,177.87,0,0,1,23-45.66C308.28,85.17,334.87,59.84,376,59.84a100.14,100.14,0,0,1,76.14,34.27C471.39,116,482,145.52,482,177.35,482,254.36,413.26,312.94,309.19,401.61Z" transform="translate(0 -29.84)"/></svg>