<?xml version="1.0" encoding="utf-8"?>
<!-- Generator: Adobe Illustrator 24.3.0, SVG Export Plug-In . SVG Version: 6.00 Build 0)  -->
<svg version="1.1" id="Layer_1" xmlns="http://www.w3.org/2000/svg" xmlns:xlink="http://www.w3.org/1999/xlink" x="0px" y="0px"
	 viewBox="0 0 1194 834" style="enable-background:new 0 0 1194 834;" xml:space="preserve">
<style type="text/css">
	.st0{fill:#6831E4;}
	.st1{fill-rule:evenodd;clip-rule:evenodd;fill:#FFFFFF;}
	.st2{fill:none;stroke:#FFFFFF;stroke-width:1.1;stroke-linecap:round;stroke-linejoin:round;}
	.st3{opacity:0.5;}
	.st4{fill-rule:evenodd;clip-rule:evenodd;fill:#4D595D;}
	.st5{fill:none;stroke:#DBE7F0;stroke-width:1.1;stroke-linecap:round;stroke-linejoin:round;}
	.st6{opacity:0.42;}
	.st7{fill:#DBE7F0;}
</style>
<path class="st0" d="M0,0h1194v834H0V0z"/>
<path class="st1" d="M482.4,38.6l1.9,1.1c0.1,0.1,0.2,0.2,0.1,0.4c0,0-0.1,0.1-0.1,0.1l-1.9,1c0,0-0.1,0.1-0.1,0.1l-1,1.9
	c-0.1,0.1-0.2,0.2-0.4,0.1c0,0-0.1-0.1-0.1-0.1l-1-1.9c0,0-0.1-0.1-0.1-0.1l-1.9-1c-0.1-0.1-0.2-0.2-0.1-0.4c0,0,0.1-0.1,0.1-0.1
	l1.9-1.1c0,0,0.1-0.1,0.1-0.1l1-1.9c0.1-0.1,0.2-0.2,0.4-0.1c0,0,0.1,0.1,0.1,0.1l1,1.9C482.3,38.5,482.3,38.6,482.4,38.6"/>
<path class="st1" d="M147.1,90.8l0.9,0.5c0.1,0.1,0.2,0.2,0.1,0.4c0,0-0.1,0.1-0.1,0.1l-0.9,0.5c-0.1,0-0.1,0.1-0.1,0.1l-0.5,1
	c-0.1,0.1-0.2,0.2-0.4,0.1c0,0-0.1-0.1-0.1-0.1l-0.5-1c0-0.1-0.1-0.1-0.1-0.1l-1-0.5c-0.1-0.1-0.2-0.2-0.1-0.4c0,0,0.1-0.1,0.1-0.1
	l1-0.5c0.1,0,0.1-0.1,0.1-0.1l0.5-1c0.1-0.1,0.2-0.2,0.4-0.1l0.1,0.1l0.5,1C147,90.7,147.1,90.8,147.1,90.8"/>
<path class="st2" d="M266.4,49.7l-1,1 M269.2,46.9l-1,1 M266.5,49.8c0.5,0.5,1.3,0.5,1.8,0c0.5-0.5,0.5-1.3,0-1.8
	c-0.5-0.5-1.3-0.5-1.8,0C266,48.4,266,49.2,266.5,49.8C266.5,49.7,266.5,49.7,266.5,49.8z"/>
<path class="st1" d="M653.2,70.8l1.9,1.1c0.1,0.1,0.2,0.2,0.1,0.4c0,0-0.1,0.1-0.1,0.1l-1.9,1.1c0,0-0.1,0.1-0.1,0.1l-1,1.9
	c-0.1,0.1-0.2,0.2-0.4,0.1c0,0,0,0,0,0c0,0-0.1-0.1-0.1-0.1l-1-1.9l-0.1-0.1l-1.9-1.1c-0.1-0.1-0.2-0.2-0.1-0.4c0,0,0.1-0.1,0.1-0.1
	l1.9-1.1c0,0,0.1-0.1,0.1-0.1l1-1.9c0.1-0.1,0.2-0.2,0.4-0.1c0,0,0.1,0.1,0.1,0.1l1,1.9C653.1,70.7,653.1,70.8,653.2,70.8"/>
<path class="st1" d="M781.2,98.1l1.9,1.1c0.1,0.1,0.2,0.2,0.1,0.4c0,0-0.1,0.1-0.1,0.1l-1.9,1c0,0-0.1,0.1-0.1,0.1l-1,1.9
	c-0.1,0.1-0.2,0.2-0.4,0.1c0,0,0,0,0,0c0,0-0.1-0.1-0.1-0.1l-1-1.9c0,0-0.1-0.1-0.1-0.1l-1.9-1c-0.1-0.1-0.2-0.2-0.1-0.4
	c0-0.1,0.1-0.1,0.1-0.1l1.9-1.1c0,0,0.1-0.1,0.1-0.1l1-2c0.1-0.1,0.2-0.2,0.4-0.1l0.1,0.1l1,1.9C781.1,98,781.2,98,781.2,98.1"/>
<path class="st1" d="M737.9,44.6l1,0.5c0.1,0.1,0.2,0.2,0.1,0.4c0,0-0.1,0.1-0.1,0.1l-1,0.5c0,0-0.1,0.1-0.1,0.1l-0.5,1
	c-0.1,0.1-0.2,0.2-0.4,0.1c0,0-0.1-0.1-0.1-0.1l-0.5-1c0-0.1-0.1-0.1-0.1-0.1l-1-0.5c-0.1-0.1-0.2-0.2-0.1-0.4c0,0,0.1-0.1,0.1-0.1
	l1-0.5c0,0,0.1-0.1,0.1-0.1l0.5-1c0.1-0.1,0.2-0.2,0.4-0.1c0,0,0.1,0.1,0.1,0.1l0.5,1C737.8,44.5,737.9,44.6,737.9,44.6"/>
<path class="st1" d="M824.5,151.8c0,1.1-0.9,2-2,2s-2-0.9-2-2s0.9-2,2-2S824.5,150.7,824.5,151.8 M60.2,197.5l1.9,1.1
	c0.1,0.1,0.2,0.2,0.1,0.4c0,0-0.1,0.1-0.1,0.1l-1.9,1c0,0-0.1,0.1-0.1,0.1l-1,1.9c-0.1,0.1-0.2,0.2-0.4,0.1c0,0-0.1-0.1-0.1-0.1
	l-1-1.9c0,0-0.1-0.1-0.1-0.1l-1.9-1c-0.1-0.1-0.2-0.2-0.1-0.4c0,0,0.1-0.1,0.1-0.1l1.9-1.1c0,0,0.1-0.1,0.1-0.1l1-1.9
	c0.1-0.1,0.2-0.2,0.4-0.1l0.1,0.1l1,1.9C60.2,197.4,60.2,197.5,60.2,197.5"/>
<path class="st1" d="M124,291l0.9,0.5c0.1,0.1,0.2,0.2,0.1,0.4c0,0-0.1,0.1-0.1,0.1l-0.9,0.5c-0.1,0-0.1,0.1-0.1,0.1l-0.5,1
	c-0.1,0.1-0.2,0.2-0.4,0.1c0,0-0.1-0.1-0.1-0.1l-0.5-1c0-0.1-0.1-0.1-0.1-0.1l-1-0.5c-0.1-0.1-0.2-0.2-0.1-0.4c0,0,0.1-0.1,0.1-0.1
	l1-0.5c0.1,0,0.1-0.1,0.1-0.1l0.5-1c0.1-0.1,0.2-0.2,0.4-0.1l0.1,0.1l0.5,1C123.9,290.9,123.9,291,124,291"/>
<path class="st1" d="M1143.2,343.1l1.9,1.1c0.1,0.1,0.2,0.2,0.1,0.4c0,0-0.1,0.1-0.1,0.1l-1.9,1c0,0-0.1,0.1-0.1,0.1l-1,1.9
	c-0.1,0.1-0.2,0.2-0.4,0.1c0,0,0,0,0,0c0,0-0.1-0.1-0.1-0.1l-1-1.9c0,0-0.1-0.1-0.1-0.1l-1.9-1c-0.1-0.1-0.2-0.2-0.1-0.4
	c0,0,0.1-0.1,0.1-0.1l1.9-1c0,0,0.1-0.1,0.1-0.1l1-1.9c0.1-0.1,0.2-0.2,0.4-0.1c0,0,0.1,0.1,0.1,0.1l1,1.9
	C1143.1,343,1143.1,343.1,1143.2,343.1 M943.6,44.5l0.9,0.5c0.1,0.1,0.2,0.2,0.1,0.4c0,0-0.1,0.1-0.1,0.1l-0.9,0.5
	c0,0-0.1,0.1-0.1,0.1L943,47c-0.1,0.1-0.2,0.2-0.3,0.1c-0.1,0-0.1-0.1-0.1-0.1l-0.5-0.9c0,0-0.1-0.1-0.1-0.1l-0.9-0.5
	c-0.1-0.1-0.2-0.2-0.1-0.4c0,0,0,0,0,0c0,0,0.1-0.1,0.1-0.1l0.9-0.5c0,0,0.1-0.1,0.1-0.1l0.5-0.9c0.1-0.1,0.2-0.2,0.4-0.1
	c0,0,0.1,0.1,0.1,0.1l0.5,0.9C943.5,44.5,943.6,44.5,943.6,44.5"/>
<path class="st1" d="M1123.6,242l1,0.5c0.1,0.1,0.2,0.2,0.1,0.4c0,0-0.1,0.1-0.1,0.1l-1,0.5c-0.1,0-0.1,0.1-0.1,0.1l-0.5,1
	c-0.1,0.1-0.2,0.2-0.4,0.1c0,0-0.1-0.1-0.1-0.1l-0.5-1c0-0.1-0.1-0.1-0.1-0.1l-0.9-0.5c-0.1-0.1-0.2-0.2-0.1-0.4
	c0,0,0.1-0.1,0.1-0.1l0.9-0.5c0.1,0,0.1-0.1,0.1-0.1l0.5-0.9c0.1-0.1,0.2-0.2,0.4-0.1c0,0,0.1,0.1,0.1,0.1l0.5,0.9
	C1123.5,241.9,1123.6,242,1123.6,242"/>
<path class="st2" d="M267.5,244.2l2.5-0.6l-0.6,2.5L267.5,244.2z"/>
<path class="st1" d="M345.3,326.2l1.4,0.8l-1.4,0.8l-0.8,1.4l-0.8-1.4l-1.4-0.8l1.4-0.8l0.8-1.4L345.3,326.2z"/>
<path class="st1" d="M351.5,2.2l1.9,1.1c0.1,0.1,0.2,0.2,0.1,0.4c0,0-0.1,0.1-0.1,0.1l-1.9,1c0,0-0.1,0.1-0.1,0.1l-1,1.9
	c-0.1,0.1-0.2,0.2-0.4,0.1c0,0,0,0,0,0c0,0-0.1-0.1-0.1-0.1l-1-1.9c0,0-0.1-0.1-0.1-0.1l-1.9-1c-0.1-0.1-0.2-0.2-0.1-0.4
	c0-0.1,0.1-0.1,0.1-0.1l1.9-1.1c0,0,0.1-0.1,0.1-0.1l1-1.9C349.9,0,350,0,350.2,0c0,0,0.1,0.1,0.1,0.1l1,1.9
	C351.3,2.1,351.4,2.2,351.5,2.2"/>
<path class="st2" d="M437.5,115.7l-0.6-1.1c0-0.1-0.1-0.1-0.1-0.1l-1.1-0.6c-0.1-0.1-0.2-0.3-0.1-0.4c0,0,0,0,0,0
	c0-0.1,0.1-0.1,0.1-0.1l1.1-0.6c0.1,0,0.1-0.1,0.1-0.1l0.6-1.1c0.1-0.1,0.3-0.2,0.4-0.1c0.1,0,0.1,0.1,0.1,0.1l0.6,1.1
	c0,0.1,0.1,0.1,0.1,0.1l1.1,0.6c0.1,0.1,0.2,0.3,0.1,0.4c0,0.1-0.1,0.1-0.1,0.1l-1.1,0.6c-0.1,0-0.1,0.1-0.1,0.1l-0.6,1.1
	c-0.1,0.1-0.3,0.2-0.4,0.1C437.5,115.8,437.5,115.7,437.5,115.7z"/>
<path class="st1" d="M395.5,86.9l1.9,1.1c0.1,0.1,0.2,0.2,0.1,0.4c0,0-0.1,0.1-0.1,0.1l-1.9,1c0,0-0.1,0.1-0.1,0.1l-1,1.9
	c-0.1,0.1-0.2,0.2-0.4,0.1c0,0,0,0,0,0c0,0-0.1-0.1-0.1-0.1l-1-1.9l-0.1-0.1l-1.9-1c-0.1-0.1-0.2-0.2-0.1-0.4c0,0,0.1-0.1,0.1-0.1
	l1.9-1.1c0,0,0.1-0.1,0.1-0.1l1-1.9c0.1-0.1,0.2-0.2,0.4-0.1c0,0,0.1,0.1,0.1,0.1l1,1.9C395.5,86.8,395.5,86.9,395.5,86.9"/>
<path class="st1" d="M104.3,63.1l1.9,1.1c0.1,0.1,0.2,0.2,0.1,0.4c0,0-0.1,0.1-0.1,0.1l-1.9,1c0,0-0.1,0.1-0.1,0.1l-1,1.9
	c-0.1,0.1-0.2,0.2-0.4,0.1c0,0-0.1-0.1-0.1-0.1l-1-1.9c0,0-0.1-0.1-0.1-0.1l-1.9-1c-0.1-0.1-0.2-0.2-0.1-0.4c0,0,0.1-0.1,0.1-0.1
	l1.9-1.1c0,0,0.1-0.1,0.1-0.1l1-1.9c0.1-0.1,0.2-0.2,0.4-0.1c0,0,0.1,0.1,0.1,0.1l1,1.9C104.3,63,104.3,63.1,104.3,63.1"/>
<path class="st1" d="M189.6,13.9c0,1.1-0.9,2-2,2s-2-0.9-2-2s0.9-2,2-2S189.6,12.8,189.6,13.9"/>
<path class="st2" d="M15.4,117.8l-0.6-1.1c0-0.1-0.1-0.1-0.1-0.1l-1.1-0.6c-0.1-0.1-0.2-0.3-0.1-0.4c0,0,0,0,0,0
	c0-0.1,0.1-0.1,0.1-0.1l1.1-0.6c0.1,0,0.1-0.1,0.1-0.1l0.6-1.1c0.1-0.1,0.3-0.2,0.4-0.1c0.1,0,0.1,0.1,0.1,0.1l0.6,1.1
	c0,0.1,0.1,0.1,0.1,0.1l1.1,0.6c0.1,0.1,0.2,0.3,0.1,0.4c0,0.1-0.1,0.1-0.1,0.1l-1.1,0.6c-0.1,0-0.1,0.1-0.1,0.1l-0.6,1.1
	c-0.1,0.1-0.3,0.2-0.4,0.1C15.4,117.9,15.4,117.8,15.4,117.8z"/>
<path class="st1" d="M1163.4,156.9l1.9,1.1c0.1,0.1,0.2,0.2,0.1,0.4c0,0-0.1,0.1-0.1,0.1l-1.9,1.1c0,0-0.1,0.1-0.1,0.1l-1,1.9
	c-0.1,0.1-0.2,0.2-0.4,0.1c0,0,0,0,0,0c0,0-0.1-0.1-0.1-0.1l-1-1.9c0,0-0.1-0.1-0.1-0.1l-1.9-1.1c-0.1-0.1-0.2-0.2-0.1-0.4
	c0,0,0.1-0.1,0.1-0.1l1.9-1.1c0,0,0.1-0.1,0.1-0.1l1-1.9c0.1-0.1,0.2-0.2,0.4-0.1l0.1,0.1l1,1.9
	C1163.4,156.8,1163.4,156.9,1163.4,156.9"/>
<path class="st1" d="M1125.7,130.7l1,0.5c0.1,0.1,0.2,0.2,0.1,0.4c0,0-0.1,0.1-0.1,0.1l-1,0.5c-0.1,0-0.1,0.1-0.1,0.1l-0.5,0.9
	c-0.1,0.1-0.2,0.2-0.4,0.1c0,0-0.1-0.1-0.1-0.1l-0.5-0.9c0-0.1-0.1-0.1-0.1-0.1l-1-0.5c-0.1-0.1-0.2-0.2-0.1-0.4
	c0,0,0.1-0.1,0.1-0.1l1-0.5c0,0,0.1-0.1,0.1-0.1l0.5-1c0.1-0.1,0.2-0.2,0.4-0.1l0.1,0.1l0.5,1
	C1125.6,130.6,1125.7,130.7,1125.7,130.7"/>
<path class="st1" d="M1108.1,8.1l0.9,0.5c0.1,0.1,0.2,0.2,0.1,0.4c0,0-0.1,0.1-0.1,0.1l-0.9,0.5c0,0-0.1,0.1-0.1,0.1l-0.5,0.9
	c-0.1,0.1-0.2,0.2-0.3,0.1c-0.1,0-0.1-0.1-0.1-0.1l-0.5-0.9c0,0-0.1-0.1-0.1-0.1l-0.9-0.5c-0.1-0.1-0.2-0.2-0.1-0.4c0,0,0,0,0,0
	c0,0,0.1-0.1,0.1-0.1l0.9-0.5c0,0,0.1-0.1,0.1-0.1l0.5-0.9c0.1-0.1,0.2-0.2,0.4-0.1c0,0,0.1,0.1,0.1,0.1L1108,8
	C1108,8.1,1108,8.1,1108.1,8.1"/>
<path class="st1" d="M1143.9,55.8l0.9,0.5c0.1,0.1,0.2,0.2,0.1,0.4c0,0-0.1,0.1-0.1,0.1l-0.9,0.5c-0.1,0-0.1,0.1-0.1,0.1l-0.5,1
	c-0.1,0.1-0.2,0.2-0.4,0.1c0,0-0.1-0.1-0.1-0.1l-0.5-1c0-0.1-0.1-0.1-0.1-0.1l-1-0.5c-0.1-0.1-0.2-0.2-0.1-0.4c0,0,0.1-0.1,0.1-0.1
	l1-0.5c0.1,0,0.1-0.1,0.1-0.1l0.5-1c0.1-0.1,0.2-0.2,0.4-0.1c0,0,0.1,0.1,0.1,0.1l0.5,1C1143.8,55.7,1143.9,55.8,1143.9,55.8"/>
<g>
	<path class="st1" d="M1089,279.1l1,0.5c0.1,0.1,0.2,0.2,0.1,0.4c0,0,0,0,0,0c0,0-0.1,0.1-0.1,0.1l-1,0.5c0,0-0.1,0.1-0.1,0.1
		l-0.5,1c-0.1,0.1-0.2,0.2-0.4,0.1c0,0-0.1-0.1-0.1-0.1l-0.5-1c0,0-0.1-0.1-0.1-0.1l-1-0.5c-0.1-0.1-0.2-0.2-0.1-0.4c0,0,0,0,0,0
		c0,0,0.1-0.1,0.1-0.1l1-0.5c0,0,0.1-0.1,0.1-0.1l0.5-1c0.1-0.1,0.2-0.2,0.4-0.1c0.1,0,0.1,0.1,0.1,0.1l0.5,1
		C1088.9,279.1,1089,279.1,1089,279.1"/>
</g>
<path class="st1" d="M949.2,312.3l1.9,1.1c0.1,0.1,0.2,0.2,0.1,0.4c0,0-0.1,0.1-0.1,0.1l-1.9,1c0,0-0.1,0.1-0.1,0.1l-1,1.9
	c-0.1,0.1-0.2,0.2-0.4,0.1c0,0,0,0,0,0c0,0-0.1-0.1-0.1-0.1l-1.1-1.9c0,0-0.1-0.1-0.1-0.1l-1.9-1c-0.1-0.1-0.2-0.2-0.1-0.4
	c0,0,0.1-0.1,0.1-0.1l1.9-1.1c0,0,0.1-0.1,0.1-0.1l1-1.9c0.1-0.1,0.2-0.2,0.4-0.1c0,0,0.1,0.1,0.1,0.1l1.1,1.9
	C949.2,312.2,949.2,312.3,949.2,312.3"/>
<path class="st1" d="M871.5,211.1l0.9,0.5c0.1,0.1,0.2,0.2,0.1,0.4c0,0-0.1,0.1-0.1,0.1l-0.9,0.5c0,0-0.1,0.1-0.1,0.1l-0.5,0.9
	c-0.1,0.1-0.2,0.2-0.3,0.1c-0.1,0-0.1-0.1-0.1-0.1l-0.5-0.9c0,0-0.1-0.1-0.1-0.1l-0.9-0.5c-0.1-0.1-0.2-0.2-0.1-0.4c0,0,0,0,0,0
	c0,0,0.1-0.1,0.1-0.1l0.9-0.5c0,0,0.1-0.1,0.1-0.1l0.5-0.9c0.1-0.1,0.2-0.2,0.4-0.1c0,0,0.1,0.1,0.1,0.1l0.5,0.9
	C871.4,211.1,871.4,211.1,871.5,211.1"/>
<path class="st1" d="M1025.6,258.8l1,0.5c0.1,0.1,0.2,0.2,0.1,0.4c0,0-0.1,0.1-0.1,0.1l-1,0.5c-0.1,0-0.1,0.1-0.1,0.1l-0.5,1
	c-0.1,0.1-0.2,0.2-0.4,0.1c0,0-0.1-0.1-0.1-0.1l-0.5-1c0,0-0.1-0.1-0.1-0.1l-1-0.5c-0.1-0.1-0.2-0.2-0.1-0.4c0,0,0.1-0.1,0.1-0.1
	l1-0.5c0,0,0.1-0.1,0.1-0.1l0.5-1c0.1-0.1,0.2-0.2,0.4-0.1c0,0,0.1,0.1,0.1,0.1l0.5,1C1025.5,258.7,1025.6,258.8,1025.6,258.8"/>
<path class="st2" d="M1178.2,289.5l1.2-0.4l1.2,0.4l-0.4-1.2l0.4-1.2l-1.2,0.4l-1.2-0.4l0.4,1.2L1178.2,289.5z"/>
<g>
	<path class="st1" d="M1103.7,412.2l1.9,1c0.1,0.1,0.2,0.2,0.1,0.4l-0.1,0.1l-1.9,1c0,0-0.1,0.1-0.1,0.1l-1,1.9
		c-0.1,0.1-0.2,0.2-0.4,0.1c0,0-0.1-0.1-0.1-0.1l-1-1.9c0,0-0.1-0.1-0.1-0.1l-1.9-1c-0.1-0.1-0.2-0.2-0.1-0.4c0,0,0.1-0.1,0.1-0.1
		l1.9-1l0.1-0.1l1-1.9c0.1-0.1,0.2-0.2,0.4-0.1c0,0,0.1,0.1,0.1,0.1l1.1,1.9C1103.7,412.1,1103.7,412.1,1103.7,412.2"/>
</g>
<path class="st2" d="M29.1,333.2l-1,1 M31.9,330.4l-1,1 M29.2,333.3c0.5,0.5,1.3,0.5,1.8,0c0.5-0.5,0.5-1.3,0-1.8
	c-0.5-0.5-1.3-0.5-1.8,0c-0.5,0.5-0.6,1.3-0.1,1.8C29.1,333.3,29.1,333.3,29.2,333.3L29.2,333.3z"/>
<path class="st1" d="M147.1,814.7l0.9-0.5c0.1-0.1,0.2-0.2,0.1-0.4c0,0-0.1-0.1-0.1-0.1l-0.9-0.5c-0.1,0-0.1-0.1-0.1-0.1l-0.5-1
	c-0.1-0.1-0.2-0.2-0.4-0.1l-0.1,0.1l-0.5,1c0,0-0.1,0.1-0.1,0.1l-1,0.5c-0.1,0.1-0.2,0.2-0.1,0.4c0,0,0.1,0.1,0.1,0.1l1,0.5
	c0,0,0.1,0.1,0.1,0.1l0.5,1c0.1,0.1,0.2,0.2,0.4,0.1c0,0,0.1-0.1,0.1-0.1l0.5-1C147,814.8,147.1,814.8,147.1,814.7"/>
<path class="st1" d="M824.5,767.1c0-1.1-0.9-2-2-2c-1.1,0-2,0.9-2,2l0,0c0,1.1,0.9,2,2,2S824.5,768.2,824.5,767.1 M60.2,699.1l1.9-1
	c0.1-0.1,0.2-0.2,0.1-0.4c0,0-0.1-0.1-0.1-0.1l-1.9-1.1c0,0-0.1-0.1-0.1-0.1l-1-1.9c-0.1-0.1-0.2-0.2-0.4-0.1l-0.1,0.1l-1,1.9
	c0,0-0.1,0.1-0.1,0.1l-1.9,1.1c-0.1,0.1-0.2,0.2-0.1,0.4c0,0,0.1,0.1,0.1,0.1l1.9,1l0.1,0.1l1,1.9c0.1,0.1,0.2,0.2,0.4,0.1
	c0,0,0.1-0.1,0.1-0.1l1-1.9C60.1,699.2,60.1,699.2,60.2,699.1"/>
<path class="st1" d="M124,529.8l0.9-0.5c0.1-0.1,0.2-0.2,0.1-0.4l-0.1-0.1l-0.9-0.5c-0.1,0-0.1-0.1-0.1-0.1l-0.5-1
	c-0.1-0.1-0.2-0.2-0.4-0.1l-0.1,0.1l-0.5,1c0,0-0.1,0.1-0.1,0.1l-1,0.5c-0.1,0.1-0.2,0.2-0.1,0.4c0,0,0.1,0.1,0.1,0.1l1,0.5
	c0,0,0.1,0.1,0.1,0.1l0.5,1c0.1,0.1,0.2,0.2,0.4,0.1c0,0,0.1-0.1,0.1-0.1l0.5-1C123.9,529.9,124,529.9,124,529.8"/>
<path class="st1" d="M999,717.4l1.9-1c0.1-0.1,0.2-0.2,0.1-0.4c0,0-0.1-0.1-0.1-0.1l-1.9-1.1c0,0-0.1-0.1-0.1-0.1l-1-1.9
	c-0.1-0.1-0.2-0.2-0.4-0.1c0,0-0.1,0.1-0.1,0.1l-1,1.9c0,0-0.1,0.1-0.1,0.1l-1.9,1c-0.1,0.1-0.2,0.2-0.1,0.4c0,0,0.1,0.1,0.1,0.1
	l1.9,1l0.1,0.1l1,1.9c0.1,0.1,0.2,0.2,0.4,0.1c0,0,0.1-0.1,0.1-0.1l1-1.9C998.9,717.4,999,717.3,999,717.4"/>
<path class="st1" d="M961.2,734.2l1-0.5c0.1-0.1,0.2-0.2,0.1-0.4c0,0-0.1-0.1-0.1-0.1l-1-0.5c0,0-0.1-0.1-0.1-0.1l-0.5-1
	c-0.1-0.1-0.2-0.2-0.4-0.1c0,0-0.1,0.1-0.1,0.1l-0.5,1c0,0-0.1,0.1-0.1,0.1l-1,0.5c-0.1,0.1-0.2,0.2-0.1,0.4c0,0,0.1,0.1,0.1,0.1
	l1,0.5c0,0,0.1,0.1,0.1,0.1l0.5,1c0.1,0.1,0.2,0.2,0.4,0.1c0,0,0.1-0.1,0.1-0.1l0.5-1C961.1,734.3,961.2,734.3,961.2,734.2"/>
<path class="st2" d="M267.5,600.4l2.5,0.6l-0.6-2.5L267.5,600.4z"/>
<path class="st1" d="M345.3,495.8l1.4-0.8l-1.4-0.8l-0.8-1.4l-0.8,1.4l-1.4,0.8l1.4,0.8l0.8,1.4L345.3,495.8z"/>
<path class="st1" d="M104.3,832.2l1.9-1c0.1-0.1,0.2-0.2,0.1-0.4c0,0-0.1-0.1-0.1-0.1l-1.9-1.1c0,0-0.1-0.1-0.1-0.1l-1-1.9
	c-0.1-0.1-0.2-0.2-0.4-0.1l-0.1,0.1l-1,1.9c0,0-0.1,0.1-0.1,0.1l-1.9,1.1c-0.1,0.1-0.2,0.2-0.1,0.4c0,0,0.1,0.1,0.1,0.1l1.9,1.1
	c0,0,0.1,0.1,0.1,0.1l1,1.9c0.1,0.1,0.2,0.2,0.4,0.1c0,0,0.1-0.1,0.1-0.1l1-1.9C104.3,832.3,104.3,832.2,104.3,832.2"/>
<path class="st2" d="M15.4,796.1l-0.6,1.1c0,0.1-0.1,0.1-0.1,0.1l-1.1,0.6c-0.1,0.1-0.2,0.3-0.1,0.4c0,0,0,0,0,0
	c0,0.1,0.1,0.1,0.1,0.1l1.1,0.6c0.1,0,0.1,0.1,0.1,0.1l0.6,1.1c0.1,0.1,0.3,0.2,0.4,0.1c0,0,0.1-0.1,0.1-0.1l0.6-1.1
	c0-0.1,0.1-0.1,0.1-0.1l1.1-0.6c0.1-0.1,0.2-0.3,0.1-0.4c0,0,0,0,0,0c0-0.1-0.1-0.1-0.1-0.1l-1.1-0.6c-0.1,0-0.1-0.1-0.1-0.1
	l-0.6-1.1c-0.1-0.1-0.3-0.2-0.4-0.1C15.4,796,15.4,796,15.4,796.1z"/>
<path class="st1" d="M1163.4,751.7l1.9-1c0.1-0.1,0.2-0.2,0.1-0.4c0,0-0.1-0.1-0.1-0.1l-1.9-1c0,0-0.1-0.1-0.1-0.1l-1-1.9
	c-0.1-0.1-0.2-0.2-0.4-0.1c0,0-0.1,0.1-0.1,0.1l-1,1.9c0,0-0.1,0.1-0.1,0.1l-1.9,1c-0.1,0.1-0.2,0.2-0.1,0.4c0,0,0.1,0.1,0.1,0.1
	l1.9,1l0.1,0.1l1,1.9c0.1,0.1,0.2,0.2,0.4,0.1c0,0,0.1-0.1,0.1-0.1l1-1.9C1163.4,751.7,1163.4,751.7,1163.4,751.7"/>
<path class="st1" d="M1125.7,783.2l1-0.5c0.1-0.1,0.2-0.2,0.1-0.4c0,0-0.1-0.1-0.1-0.1l-1-0.5c-0.1,0-0.1-0.1-0.1-0.1l-0.5-1
	c-0.1-0.1-0.2-0.2-0.4-0.1l-0.1,0.1l-0.5,1c0,0-0.1,0.1-0.1,0.1l-1,0.5c-0.1,0.1-0.2,0.2-0.1,0.4c0,0,0.1,0.1,0.1,0.1l1,0.5
	c0,0,0.1,0.1,0.1,0.1l0.5,1c0.1,0.1,0.2,0.2,0.4,0.1c0,0,0.1-0.1,0.1-0.1l0.5-1C1125.6,783.3,1125.7,783.3,1125.7,783.2"/>
<g>
	<path class="st1" d="M1093.9,663l1-0.5c0.1-0.1,0.2-0.2,0.1-0.4c0,0-0.1-0.1-0.1-0.1l-1-0.5c0,0-0.1-0.1-0.1-0.1l-0.5-1
		c-0.1-0.1-0.2-0.2-0.4-0.1c-0.1,0-0.1,0.1-0.1,0.1l-0.5,1c0,0-0.1,0.1-0.1,0.1l-1,0.5c-0.1,0.1-0.2,0.2-0.1,0.4c0,0,0,0,0,0
		c0,0,0.1,0.1,0.1,0.1l1,0.5c0,0,0.1,0.1,0.1,0.1l0.5,1c0.1,0.1,0.2,0.2,0.4,0.1c0,0,0.1-0.1,0.1-0.1l0.5-1
		C1093.8,663.1,1093.9,663.1,1093.9,663"/>
</g>
<path class="st2" d="M794.6,614.6l1.9-2 M789,620.2l1.9-2 M792.9,613.1c0-0.7-3.8,3.1-3.1,3.1c-0.7,0,3.1,3.8,3.1,3.1
	c0,0.7,3.8-3.1,3.1-3.1C796.8,616.2,792.9,612.4,792.9,613.1z"/>
<path class="st1" d="M949.2,513.7l1.9-1c0.1-0.1,0.2-0.2,0.1-0.4c0,0-0.1-0.1-0.1-0.1l-1.9-1c0,0-0.1-0.1-0.1-0.1l-1-1.9
	c-0.1-0.1-0.2-0.2-0.4-0.1c0,0-0.1,0.1-0.1,0.1l-1.1,1.9c0,0-0.1,0.1-0.1,0.1l-1.9,1.1c-0.1,0.1-0.2,0.2-0.1,0.4
	c0,0,0.1,0.1,0.1,0.1l1.9,1l0.1,0.1l1,1.9c0.1,0.1,0.2,0.2,0.4,0.1c0,0,0.1-0.1,0.1-0.1l1.1-1.9L949.2,513.7"/>
<path class="st1" d="M871.5,648l0.9-0.5c0.1-0.1,0.2-0.2,0.1-0.4c0,0,0,0,0,0c0,0-0.1-0.1-0.1-0.1l-0.9-0.5c0,0-0.1-0.1-0.1-0.1
	l-0.5-0.9c-0.1-0.1-0.2-0.2-0.4-0.1c0,0-0.1,0.1-0.1,0.1l-0.5,0.9c0,0-0.1,0.1-0.1,0.1l-0.9,0.5c-0.1,0.1-0.2,0.2-0.1,0.4
	c0,0,0,0,0,0c0,0,0.1,0.1,0.1,0.1l0.9,0.5c0,0,0.1,0.1,0.1,0.1l0.5,0.9c0.1,0.1,0.2,0.2,0.4,0.1c0,0,0.1-0.1,0.1-0.1l0.5-0.9
	C871.4,648.1,871.4,648,871.5,648"/>
<path class="st1" d="M1025.6,585.8l1-0.5c0.1-0.1,0.2-0.2,0.1-0.4c0,0-0.1-0.1-0.1-0.1l-1-0.5c-0.1,0-0.1-0.1-0.1-0.1l-0.5-1
	c-0.1-0.1-0.2-0.2-0.4-0.1l-0.1,0.1l-0.5,1c0,0-0.1,0.1-0.1,0.1l-1,0.5c-0.1,0.1-0.2,0.2-0.1,0.4c0,0,0.1,0.1,0.1,0.1l1,0.5
	c0,0,0.1,0.1,0.1,0.1l0.5,1c0.1,0.1,0.2,0.2,0.4,0.1c0,0,0.1-0.1,0.1-0.1l0.5-1C1025.5,585.9,1025.6,585.9,1025.6,585.8"/>
<path class="st2" d="M1178.2,542.5l1.2,0.4l1.2-0.4l-0.4,1.2l0.4,1.2l-1.2-0.4l-1.2,0.4l0.4-1.2L1178.2,542.5z"/>
<path class="st2" d="M29.1,478.8l-1-1 M31.9,481.6l-1-1 M29.2,478.7c0.5-0.5,1.3-0.5,1.8,0c0.5,0.5,0.5,1.3,0,1.8
	c-0.5,0.5-1.3,0.5-1.8,0C28.7,480.1,28.7,479.2,29.2,478.7C29.2,478.7,29.2,478.7,29.2,478.7z"/>
<g class="st3">
	<path class="st4" d="M260.2,312.6c0-3-1-6-2.9-8.4c-1.5-1.5-3.1-0.6-3.6,6.7c-0.5,8.7-5.1,2.9-8.8,7s-12.1-3.4-9.9,1
		c3.5,6.5,11.6,9,18.1,5.5C257.4,322.1,260.2,317.6,260.2,312.6"/>
	<path class="st5" d="M246.8,299.2c7.4,0,13.4,6,13.4,13.4s-6,13.4-13.4,13.4c-7.4,0-13.4-6-13.4-13.4S239.4,299.2,246.8,299.2
		C246.8,299.2,246.8,299.2,246.8,299.2z"/>
	<path class="st5" d="M246.8,299.2c7.4,0,13.4,6,13.4,13.4s-6,13.4-13.4,13.4c-7.4,0-13.4-6-13.4-13.4S239.4,299.2,246.8,299.2
		C246.8,299.2,246.8,299.2,246.8,299.2z"/>
	<path class="st5" d="M234.4,307.4c2.6,1.2,5.4,2,8.2,2.2c5.3,0,6.5-3.3,12.8-3.4h3 M241.6,325c1.2-3.4,3.6-6.2,6.8-7.9
		c4.6-2.3,7.8-0.4,11.2-0.6"/>
	<path class="st5" d="M235.5,319.8c3.1-0.4,6-1.8,8.2-4c4.3-4.3,5.5-4.5,8.2-4.5c2.2,0,5.4,2.3,8.2,2.4 M241.4,300.3
		c2.8,0.4,6.1,1.3,8.3,3.1c1.7,1.4,4.6,1.3,7.5,0.7 M238.6,302c1,0.2,2,0.5,2.6,0.7c2,0.7,3.8,0.9,3.3,2.3c-0.7,1.8-3.7,0.8-5.7,0.1
		c-0.8-0.3-1.6-0.6-2.3-1.1 M233.5,311.1c2.7,0.4,6.4,1.3,6.8,3.4c0.3,1.4-2.7,2.2-6.1,2.7 M243.3,325.6c2.3-2.5,8-7.5,14.8-5.8l0,0
		"/>
</g>
<g class="st6">
	<path class="st7" d="M302.7,574.3c-0.2,0.2-0.2,0.5,0.1,0.7c0.1,0.1,0.2,0.1,0.3,0.1c-2.7,3.9-4.8,8.1-6.3,12.5
		c-0.2-0.1-0.5,0-0.6,0.3c0,0,0,0,0,0c0,0.1,0,0.1,0,0.2l0.1,1.2c-3.6,11.9-2.4,24.8,3.4,35.8c9.5,17.5,30.4,27.9,50.1,24.6
		c6.4-1.1,12.5-3.5,18-7c0.1,0,0.2-0.1,0.3-0.2c1.9-1.2,3.8-2.6,5.5-4.1l0.1-0.1c8.4-7.1,14.2-16.8,16.4-27.6
		c3.9-20.5-6-43.2-24.6-53.3c-0.6-0.3-1.2-0.6-1.8-0.9c-0.1-0.2-0.3-0.4-0.6-0.3c0,0,0,0,0,0l0,0c-4.7-2.1-9.7-3.3-14.9-3.5
		c-0.2-0.2-0.5-0.2-0.7-0.1l-0.1,0.1c-2,0-4.1,0.1-6.1,0.3c-0.1-0.2-0.4-0.3-0.6-0.1c0,0,0,0,0,0l-0.1,0.1l-0.1,0.2
		c-2.8,0.4-5.5,1-8.1,1.8c-0.2-0.1-0.5,0-0.6,0.2c-2.7,0.9-5.4,2-7.9,3.2c-0.2-0.2-0.5-0.1-0.6,0.1c0,0,0,0,0,0
		c0,0.1-0.1,0.1-0.1,0.2v0.1C315.3,562.7,308.4,567.9,302.7,574.3z M304.4,630.7c-8.4-10.9-10.9-25.2-7.9-38.3
		c1.3,10.7,4.7,21.1,10.1,30.5c5.4,9.3,12.8,19.3,22.5,24.5C319.3,644.5,310.7,638.7,304.4,630.7L304.4,630.7z M389.8,600.4
		c-7.8-9.5-12.6-21.2-13.7-33.4C384.5,576.1,389.4,588,389.8,600.4L389.8,600.4z M339,577.6c0.1,0.6,1.1,0.4,1-0.3
		c-0.7-3.8-1-7.7-0.9-11.6c0-2,0.2-4,0.5-6c0.2-1.6,0.3-4.3,1.4-5.8c2-0.3,4.1-0.4,6.1-0.3c-2.3,11.9-1.4,24.2,2.6,35.6
		c0.2,0.6,1.2,0.3,1-0.3c-4-11.3-4.9-23.4-2.6-35.2c1.9,0.1,3.9,0.3,5.8,0.7c-1.4,9.4-0.8,19,1.6,28.2c0.1,0.3,0.3,0.4,0.6,0.4
		c0,0,0,0,0,0c0.3-0.1,0.4-0.4,0.4-0.6c0,0,0,0,0,0c-2.4-9-3-18.4-1.6-27.7c0.7,0.2,1.3,0.3,2,0.5c2,0.5,3.9,1.2,5.7,2.1
		c-0.8,8.2-0.1,16.5,1.9,24.5c0.1,0.3,0.3,0.4,0.6,0.4c0,0,0,0,0,0c0.3-0.1,0.4-0.4,0.4-0.6c0,0,0,0,0,0c-2-7.8-2.6-15.8-1.9-23.7
		c1.7,0.8,3.3,1.7,4.8,2.8c0,0,0,0,0,0.1c-0.7,8.6,0.1,17.2,2.4,25.5c0.1,0.3,0.3,0.4,0.6,0.4c0,0,0,0,0,0c0.3-0.1,0.4-0.4,0.4-0.6
		c0,0,0,0,0,0c-2.3-8-3.1-16.3-2.4-24.6c2,1.4,3.9,3,5.7,4.8c0.9,13.3,6.1,26,14.7,36.1h0.1v0.7c0,2.4-0.3,4.7-0.7,7.1
		c-4.9-4.4-9.1-9.5-12.6-15.1c-0.1-0.2-0.4-0.3-0.7-0.2c0,0,0,0,0,0c-0.2,0.1-0.3,0.4-0.2,0.7c3.6,5.8,7.9,11,13,15.5
		c0.1,0.1,0.1,0.1,0.2,0.1c-0.9,4.2-2.3,8.3-4.3,12.1c0-0.1-0.1-0.1-0.2-0.2c-3.2-2-6.2-4.3-8.9-6.9c-0.5-0.4-1.2,0.3-0.7,0.7
		c2.8,2.7,5.9,5,9.1,7.1c0.1,0,0.2,0.1,0.2,0.1c-2.8,5.2-6.6,9.9-11.1,13.8c-6.1-3.1-11.6-7.1-16.6-11.8c-0.2-0.2-0.5-0.1-0.7,0.1
		c0,0,0,0,0,0c-0.2,0.2-0.2,0.5,0,0.7c4.9,4.7,10.4,8.6,16.4,11.8c-1.5,1.3-3.1,2.4-4.8,3.5c-5.6-2.8-10.8-6.3-15.6-10.3
		c-0.5-0.4-1.2,0.3-0.7,0.7c4.7,4,9.8,7.4,15.3,10.2c-1.5,0.9-3,1.7-4.5,2.5c-4.8-1.7-9.3-4.3-13-7.8c-0.5-0.4-1.2,0.3-0.7,0.7
		c3.6,3.3,7.8,5.9,12.4,7.7c-1.2,0.5-2.4,1-3.6,1.4c-0.8,0.3-1.6,0.5-2.5,0.8l0,0c-9.3-5.6-17.9-12.4-25.5-20.1
		c-0.5-0.5-1.1,0.3-0.7,0.7c7.5,7.6,15.9,14.2,24.9,19.7c-2.1,0.5-4.3,0.9-6.5,1.1c0-0.1-0.1-0.1-0.2-0.2
		c-12.6-6.7-23.3-16.5-31.2-28.3c-0.4-0.5-1.2,0-0.9,0.5c7.8,11.7,18.2,21.3,30.5,28.1c-4.2,0.2-8.4-0.1-12.5-1
		c0-0.2-0.1-0.4-0.3-0.4c-11-4.6-19.1-15.4-24.9-25.5c-5.8-10.1-9.3-21.3-10.2-32.9c1.1-3.6,2.6-7.1,4.5-10.4c-0.7,10,1.2,20,5.5,29
		c0.3,0.6,1.1,0.1,0.9-0.5c-4.5-9.4-6.3-19.9-5.2-30.2c0,0,0-0.1,0-0.2c1.3-1.9,2.7-3.8,4.2-5.5c-0.4,4.8,0,9.5,0.9,14.2
		c0.1,0.6,1.1,0.4,1-0.3c-1-4.8-1.3-9.7-0.8-14.5c0-0.2,0-0.3-0.2-0.4c0.2-0.2,0.4-0.4,0.6-0.6c0.1-0.1,0.2-0.3,0.1-0.4
		c1.6-1.5,3.3-2.9,5.1-4.2c-2.5,10.2,0,20.7,2.8,30.6c0.1,0.3,0.3,0.4,0.6,0.4c0,0,0,0,0,0c0.3-0.1,0.4-0.4,0.4-0.6c0,0,0,0,0,0
		c-2.8-10.1-5.5-20.8-2.5-31.2c2.4-1.7,5-3.3,7.6-4.7c-1.6,10-1.6,20.1,0.2,30.1c0.1,0.6,1.1,0.4,1-0.3c-1.8-10-1.8-20.3-0.1-30.4
		c2.4-1.2,4.9-2.3,7.5-3.1c-4.2,17.8-1.3,36.6,8.3,52.3c0.1,0.2,0.5,0.3,0.7,0.2c0,0,0,0,0,0c0.2-0.1,0.3-0.4,0.2-0.7
		c-9.5-15.6-12.4-34.4-8-52.2c2.4-0.7,4.8-1.3,7.3-1.7c-0.5,1.1-0.8,2.3-0.9,3.6c-0.3,2-0.6,4.1-0.7,6.2
		C337.9,568.5,338.2,573.1,339,577.6z"/>
	<path class="st7" d="M372.9,589.6c0.3,0,0.5-0.2,0.5-0.5s-0.2-0.5-0.5-0.5s-0.5,0.2-0.5,0.5S372.6,589.6,372.9,589.6z"/>
	<path class="st7" d="M374.5,592.3c0.3,0,0.5-0.2,0.5-0.5s-0.2-0.5-0.5-0.5s-0.5,0.2-0.5,0.5S374.3,592.3,374.5,592.3z"/>
	<path class="st7" d="M365.9,585.3c0.3,0,0.5-0.2,0.5-0.5s-0.2-0.5-0.5-0.5s-0.5,0.2-0.5,0.5S365.6,585.3,365.9,585.3z"/>
	<path class="st7" d="M377.9,607.1c0.4,0.5,1.1-0.3,0.7-0.7c-4.8-5.1-8.4-11.3-10.5-18.1c-0.1-0.3-0.4-0.4-0.7-0.3
		c-0.2,0.1-0.4,0.3-0.3,0.6C369.3,595.5,373,601.8,377.9,607.1z"/>
	<path class="st7" d="M380.7,609.2c0.3,0.1,0.5-0.1,0.6-0.4c0,0,0,0,0,0c0-0.1,0-0.2,0-0.2c0.1-0.3-0.1-0.7-0.5-0.6
		C380.2,608,380,609.1,380.7,609.2z"/>
	<path class="st7" d="M385.7,613.1v-0.3c0-0.3-0.2-0.5-0.5-0.5s-0.5,0.2-0.5,0.5v0.3c0,0.3,0.2,0.5,0.5,0.5S385.7,613.4,385.7,613.1
		z"/>
	<path class="st7" d="M365.6,606.5c0.3,0.6,1.2,0.1,0.9-0.5c-3.6-6.6-6.5-13.5-8.8-20.6c-0.1-0.3-0.4-0.4-0.7-0.3
		c-0.2,0.1-0.4,0.3-0.3,0.6C359,592.8,362,599.8,365.6,606.5z"/>
	<path class="st7" d="M369.2,608.6c-0.3,0-0.5,0.2-0.5,0.5s0.2,0.5,0.5,0.5s0.5-0.2,0.5-0.5S369.5,608.6,369.2,608.6z"/>
	<path class="st7" d="M371.5,611.3c-0.3,0-0.5,0.2-0.5,0.5s0.2,0.5,0.5,0.5s0.5-0.2,0.5-0.5S371.8,611.3,371.5,611.3z"/>
	<path class="st7" d="M352.2,593.6c0.3,0,0.5-0.2,0.5-0.5s-0.2-0.5-0.5-0.5s-0.5,0.2-0.5,0.5S351.9,593.6,352.2,593.6z"/>
	<path class="st7" d="M353.5,596.6c0.3,0,0.5-0.2,0.5-0.5s-0.2-0.5-0.5-0.5s-0.5,0.2-0.5,0.5S353.3,596.6,353.5,596.6z"/>
	<path class="st7" d="M368.3,619.7c0.5,0.4,1.2-0.3,0.7-0.7c-5.8-5.5-10.4-12-13.6-19.3c-0.2-0.6-1.1-0.1-0.9,0.5
		C357.8,607.6,362.4,614.2,368.3,619.7z"/>
	<path class="st7" d="M372.2,623c0.3,0,0.5-0.2,0.5-0.5s-0.2-0.5-0.5-0.5s-0.5,0.2-0.5,0.5S371.9,623,372.2,623z"/>
	<path class="st7" d="M377.2,627.6c0.3,0,0.5-0.2,0.5-0.5s-0.2-0.5-0.5-0.5s-0.5,0.2-0.5,0.5S376.9,627.6,377.2,627.6z"/>
	<path class="st7" d="M340.5,581.3h0.3c0.3,0,0.5-0.2,0.5-0.5s-0.2-0.5-0.5-0.5h-0.3c-0.3,0-0.5,0.2-0.5,0.5
		S340.3,581.3,340.5,581.3z"/>
	<path class="st7" d="M341.2,585c0.3,0,0.5-0.2,0.5-0.5s-0.2-0.5-0.5-0.5s-0.5,0.2-0.5,0.5S340.9,585,341.2,585z"/>
	<path class="st7" d="M352.9,611c0.4,0.5,1.2,0,0.9-0.5c-4.1-5.7-7.1-12.1-9-18.8c-0.1-0.3-0.4-0.4-0.6-0.4
		c-0.3,0.1-0.4,0.4-0.4,0.6C345.7,598.8,348.8,605.2,352.9,611z"/>
	<path class="st7" d="M355.9,613c-0.3,0-0.5,0.2-0.5,0.5s0.2,0.5,0.5,0.5s0.5-0.2,0.5-0.5S356.1,613,355.9,613z"/>
	<path class="st7" d="M359.7,617.2c-0.4-0.5-1.2,0-0.9,0.5c4.7,6.1,10.5,11.3,17.1,15.3c0.5,0.3,1-0.5,0.5-0.9
		C369.9,628.2,364.3,623.2,359.7,617.2z"/>
	<path class="st7" d="M349.9,621.1c0.5,0.5,1.1-0.3,0.7-0.7c-2.9-2.9-5.5-6-7.9-9.2c-0.4-0.5-1.2,0-0.9,0.5
		C344.3,615,347,618.1,349.9,621.1z"/>
	<path class="st7" d="M353.2,622.6h-0.3c-0.3,0-0.5,0.2-0.5,0.5s0.2,0.5,0.5,0.5h0.3c0.3,0,0.5-0.2,0.5-0.5S353.5,622.6,353.2,622.6
		z"/>
	<path class="st7" d="M325,594.1v-0.3c0-0.3-0.2-0.5-0.5-0.5s-0.5,0.2-0.5,0.5v0.3c0,0.3,0.2,0.5,0.5,0.5S325,594.4,325,594.1z"/>
	<path class="st7" d="M325.9,598.6h0.3c0.3,0,0.5-0.2,0.5-0.5s-0.2-0.5-0.5-0.5h-0.4c-0.3,0-0.5,0.2-0.5,0.5
		C325.4,598.4,325.6,598.6,325.9,598.6C325.9,598.6,325.9,598.6,325.9,598.6z"/>
	<path class="st7" d="M328.4,602.3c-0.3-0.6-1.1-0.1-0.9,0.5c3.9,9,9.7,17.1,16.9,23.7c0.5,0.4,1.2-0.3,0.7-0.7
		C338,619.2,332.3,611.2,328.4,602.3z"/>
	<path class="st7" d="M348.5,628.6c-0.3,0-0.5,0.2-0.5,0.5s0.2,0.5,0.5,0.5s0.5-0.2,0.5-0.5S348.8,628.6,348.5,628.6z"/>
	<path class="st7" d="M318.5,600.6c0.3,0,0.5-0.2,0.5-0.5s-0.2-0.5-0.5-0.5s-0.5,0.2-0.5,0.5S318.3,600.6,318.5,600.6z"/>
	<path class="st7" d="M320.7,604.5v-0.3c0-0.3-0.2-0.5-0.5-0.5s-0.5,0.2-0.5,0.5v0.3c0,0.3,0.2,0.5,0.5,0.5
		C320.5,604.9,320.7,604.7,320.7,604.5C320.7,604.5,320.7,604.5,320.7,604.5z"/>
	<path class="st7" d="M323.4,608.7c-0.1-0.2-0.4-0.3-0.7-0.2c0,0,0,0,0,0c-0.2,0.1-0.3,0.4-0.2,0.7c4.5,7.7,10.3,14.7,17.1,20.5
		c0.5,0.4,1.2-0.3,0.7-0.7C333.6,623.2,327.8,616.4,323.4,608.7z"/>
	<path class="st7" d="M343.2,631.6c-0.3,0-0.5,0.2-0.5,0.5s0.2,0.5,0.5,0.5s0.5-0.2,0.5-0.5S343.5,631.6,343.2,631.6z"/>
	<path class="st7" d="M310.2,593.4c-0.1-0.3-0.4-0.4-0.6-0.4c-0.3,0.1-0.4,0.4-0.4,0.6c2.9,10.1,7.5,19.5,13.6,28.1
		c0.4,0.5,1.2,0,0.9-0.5C317.6,612.7,313.1,603.3,310.2,593.4z"/>
	<path class="st7" d="M325.5,624c-0.3,0-0.5,0.2-0.5,0.5s0.2,0.5,0.5,0.5s0.5-0.2,0.5-0.5S325.8,624,325.5,624z"/>
</g>
<g class="st6">
	<path class="st7" d="M1042.4,237.8c22.8-33.6,14.1-79.3-19.5-102.2c-14.5-9.9-32.1-14.2-49.6-12.3c-28.5-38-53.2-60.1-63-54.2
		c-9.6,5.8-2.2,36.4,17,77.6c-2.2,2.4-4.2,4.9-6.1,7.6c-0.3,0.1-0.5,0.4-0.5,0.7c-22.9,33.6-14.2,79.4,19.4,102.2
		c17.6,12,39.5,15.8,60.1,10.4c27.5,36.1,51.2,56.9,60.8,51.1C1070.8,312.9,1062.7,280.7,1042.4,237.8z M1038.4,223.9l-1.6,2.4
		c-1-1.9-2-3.8-3-5.8c0.1,0,0.3-0.1,0.3-0.3c0.9-1.9,2.2-3.6,3.8-4.9c0.1-0.1,0.2-0.3,0.2-0.5c1.1,1.6,2.3,3.2,3.6,4.7l-0.3,0.4
		c-0.5,0.6,0.4,1.4,0.9,0.8l0.3-0.4c1.3,1.4,2.7,2.7,4.2,3.8l-7.7,6.8c-0.6-1.2-1.2-2.4-1.8-3.6c0.1,0,0.1-0.1,0.2-0.2
		c0.6-1,1.2-1.9,1.8-2.9C1039.8,223.8,1038.7,223.2,1038.4,223.9L1038.4,223.9z M1023,198.7l-1-0.8c-0.1-0.1-0.3-0.1-0.4-0.1
		c-1.6-2.8-3.2-5.7-4.9-8.6c4-0.7,7.8-2.2,11.1-4.6c0.8,0.1,1.7,0.1,2.5,0c-0.2,1.2-0.3,2.5-0.3,3.7c-0.1,0-0.2,0-0.4,0.1
		c-1.5,0.8-3.1,1.3-4.8,1.6c-0.8,0.1-0.4,1.3,0.3,1.2l0.6-0.1c-0.2,0.2-0.1,0.5,0.1,0.7c0,0,0,0,0,0c1.1,0.9,2.5,1.3,3.9,1.2
		c0.8-0.1,0.8-1.3,0-1.2c-1.1,0.1-2.2-0.2-3-0.9l0,0c1.1-0.3,2.3-0.7,3.3-1.2c0,0.4,0,0.8,0.1,1.2c0.1,0.8,1.3,0.8,1.2,0
		c-0.3-3.3,0.1-6.6,1.2-9.8c0.1-0.1,0.2-0.3,0.2-0.5c1.1-3,2.5-5.9,4.2-8.6c0.5,0.7,1,1.4,1.5,2.1l0.8,0.9c-0.2-0.2-0.6-0.2-0.8,0
		c0,0,0,0,0,0c0,0-0.1,0.1-0.1,0.1c-4.5,8.6-3.4,18.2-0.4,27.2c0.2,0.7,1.4,0.4,1.2-0.3c-2.8-8.6-4-17.9,0.3-26.3
		c0.1-0.2,0.1-0.4,0-0.5c0.9,1.1,1.9,2.1,3,3.1c-1.1,2.5-1.6,5.2-1.3,7.9c0,0.3,0.3,0.6,0.6,0.6c0.3,0,0.6-0.3,0.6-0.6c0,0,0,0,0,0
		c-0.2-2.4,0.1-4.8,1-7.1c1.1,0.9,2.2,1.7,3.4,2.3c-0.1,0-0.2,0.1-0.3,0.2c-3.1,3.3-1.9,9.5-1.2,13.5c0.1,0.8,1.3,0.4,1.2-0.3
		c-0.6-3.5-1.8-9.5,0.9-12.4c0.2-0.2,0.2-0.4,0.1-0.6c0.4,0.2,0.8,0.4,1.2,0.5c-0.1,0.1-0.1,0.2-0.1,0.3c-0.2,5.7,1.6,11.3,5.2,15.8
		c0.1,0.1,0.2,0.2,0.4,0.2c-0.1,2.3-0.3,4.6-0.6,6.9c-1.6-0.8-3-1.9-4-3.4c-0.4-0.6-1.5,0-1,0.6c1.2,1.7,2.9,3.1,4.8,4
		c-0.3,2.4-0.8,4.8-1.4,7.1c-6.7-4.6-8.2-12.9-9.4-20.5c-0.1-0.8-1.3-0.4-1.2,0.3c1.2,8,3,16.6,10.2,21.4c-0.4,1.6-0.9,3.2-1.5,4.8
		c-3.8-3.1-6.7-7.2-8.4-11.8c-0.3-0.7-1.4-0.4-1.2,0.3c1.8,4.9,4.9,9.2,8.9,12.5h0.1c-0.3,0.9-0.7,1.9-1.1,2.8c0,0,0-0.1-0.1-0.1
		c-7.7-5.8-13.1-14.2-15.2-23.6c-0.2-0.8-1.3-0.4-1.2,0.3c0.1,0.5,0.2,0.9,0.3,1.4c-1.3,0.1-2.5-0.1-3.7-0.6
		c-0.3-0.1-0.6,0.1-0.7,0.4c-0.1,0.2,0,0.4,0.2,0.6c1.3,0.7,2.8,0.9,4.3,0.8c0.1,0,0.2,0,0.2-0.1l0.2,0.6c-0.1,0-0.1,0-0.2,0.1
		c-2,1.4-3.6,3.1-5,5.1c-1.6-3-3.3-6.1-5.1-9.2C1023,199.6,1023.4,199,1023,198.7L1023,198.7z M1016.8,180.7c-1.2,0.9-2.5,1.6-4,1.9
		l0,0c-0.7-1.1-1.3-2.2-2-3.4c0.9-0.8,1.7-1.7,2.4-2.6c1.1,1.1,2.4,2.1,3.7,2.9c0.6,0.4,1.2-0.6,0.6-1s-1.4-1-2.1-1.5
		c-0.5-0.4-1-0.8-1.4-1.2c0-0.1,0-0.2,0-0.3c0.6-0.8,1.1-1.6,1.6-2.4c4.3,4.1,9.7,6.9,15.6,7.9c-0.2,0.8-0.5,1.6-0.6,2.4h-0.1
		c-0.8,0.1-1.6,0.1-2.3,0c-0.2-0.2-0.4-0.2-0.6-0.1c-1.6-0.2-3.2-0.8-4.6-1.7c-0.7-0.4-1.2,0.7-0.6,1.1c1.2,0.7,2.5,1.3,3.8,1.6
		c-3,1.9-6.4,3.2-10,3.8c-0.9-1.5-1.7-2.9-2.6-4.4c1.6-0.4,3-1.1,4.3-2.1c0.5-0.4-0.3-1.2-0.9-0.8L1016.8,180.7z M1008.9,172.7
		l-1.3,1.5c-0.9-1.5-1.9-3.1-2.8-4.6c-0.3-1.6-0.4-3.3-0.4-5c0,0.1,0.1,0.1,0.2,0.1c3.7,1.9,7.7,3.1,11.8,3.7
		c-0.8,2.4-2,4.6-3.5,6.6l0,0c-0.1,0.1-0.2,0.2-0.3,0.4c-0.7,1-1.5,1.9-2.4,2.8l-1.8-3l1.5-1.7
		C1010.3,172.9,1009.4,172.1,1008.9,172.7L1008.9,172.7z M1003.5,152.5c0.5-0.6-0.3-1.4-0.9-0.8c-2.2,2.4-3.5,5.4-3.6,8.6
		c-1.2-1.9-2.5-3.8-3.7-5.6c2.8-8.1,10.5-12.4,18.1-15.4c1.1,2,2.3,3.9,3.7,5.7c-9,3.6-14.6,12.6-13.8,22.2
		c-1.1-1.7-2.2-3.4-3.2-5.1c0.1-0.1,0.1-0.2,0.1-0.3C1000,158.5,1001.2,155.1,1003.5,152.5L1003.5,152.5z M993.4,151.8
		c-0.6-2.5-0.8-5-0.5-7.5c1.9,1.2,4,1.9,6.3,2h0.1c-2.1,2-3.7,4.4-4.8,7.1L993.4,151.8z M1009,138.8c-3-0.5-5.8-1.7-8.1-3.6
		l-0.2-0.1c1.3-0.3,2.6-0.7,3.8-1.2c2.2,1.8,4.8,3.1,7.5,3.7c0.1,0.1,0.3,0.1,0.4,0l0.4,0.8c-1.2,0.5-2.5,1-3.7,1.6
		c0.3-0.2,0.4-0.5,0.2-0.8c0,0,0,0,0,0C1009.3,139,1009.1,138.9,1009,138.8L1009,138.8z M1009.7,131.2c0.6,1.7,1.2,3.4,2,5.1
		c-2.2-0.5-4.2-1.5-6-2.9C1007.1,132.8,1008.4,132.1,1009.7,131.2L1009.7,131.2z M1022.3,152.8c0.1-0.4,0.3-0.9,0.6-1.2l0.4,0.4
		c0.7,0.7,1.4,1.3,2.2,2c-0.1,0.1-0.1,0.1-0.1,0.2c-0.8,1.9-1.3,3.8-1.6,5.9c-1,0-2.1-0.1-3.1-0.2c-0.1-0.7-0.1-1.5,0.2-2.2
		c0.3-0.7-0.8-1.3-1-0.6c-0.3,0.8-0.5,1.7-0.4,2.6h-0.3c-1.2-0.1-2.3-0.2-3.4-0.4v-0.1c0.5-3.5,1.8-6.8,4-9.6
		c0.5-0.6-0.4-1.4-0.9-0.8c-2.3,2.9-3.8,6.5-4.3,10.2c0,0.1,0,0.1,0,0.2c-1.2-0.2-2.3-0.5-3.4-0.9l0.7-3.2c0.1-0.3-0.1-0.7-0.5-0.7
		c-0.3-0.1-0.7,0.1-0.7,0.4c0,0,0,0,0,0l-0.7,3.1c-0.9-0.4-1.7-0.8-2.5-1.3c-0.7-0.4-1.2,0.6-0.6,1.1c3.7,2.3,7.9,3.1,12.2,3.4
		l0.8,0.1c0.1,0,0.3,0,0.4,0c3.8,0.3,7.8,0.5,11.1-1.7l0,0c0,0.1,0,0.1,0,0.2c0.2,1,0.5,2,0.8,3c-4.3,1.9-9,1.9-13.6,1.2
		c-4.2-0.6-9-1.4-12.5-4c-0.2-0.2-0.6-0.2-0.8,0c1.8-6.1,6.3-11.1,12.2-13.5c0.1-0.1,0.2-0.2,0.3-0.3c1.3,1.7,2.7,3.3,4.2,4.8
		c-0.4,0.5-0.7,1.1-0.9,1.7c-0.1,0.3,0.1,0.7,0.4,0.8c0.3,0.1,0.7-0.1,0.8-0.4C1022.3,152.9,1022.3,152.9,1022.3,152.8L1022.3,152.8
		z M1031.6,159c0-0.2-0.1-0.4-0.2-0.6l0.7,0.4C1031.9,158.8,1031.7,158.9,1031.6,159L1031.6,159z M1026.4,154.7
		c1.6,1.3,3.2,2.5,4.9,3.6c-0.2-0.1-0.4-0.1-0.6,0c-1.7,1.1-3.8,1.7-5.8,1.7C1025.2,158.2,1025.7,156.4,1026.4,154.7L1026.4,154.7z
		 M1035,172.8c-0.1-0.1-0.2-0.1-0.4-0.2c-0.7-0.1-1.4-0.4-1.9-1c-0.5-0.6-1.3,0.3-0.8,0.9c0.7,0.7,1.5,1.2,2.5,1.3
		c-0.4,0.7-0.8,1.4-1.1,2.2c-4.5-1.1-8.5-3.6-11.6-7.1c4,0,8.1-0.6,11.9-1.9c0.1,0,0.2-0.1,0.2-0.1c0.6,1.4,1.4,2.8,2.2,4.1
		l-0.1,0.1C1035.6,171.7,1035.3,172.3,1035,172.8L1035,172.8z M1031.5,180c-5.8-1-11.1-3.7-15.4-7.8l0,0c0.6-1.1,1.1-2.3,1.5-3.5
		c1,0.1,2,0.2,3.1,0.2c-0.2,0.2-0.2,0.5,0,0.7c3.2,3.6,7.3,6.2,12,7.5C1032.3,178.1,1031.9,179.1,1031.5,180L1031.5,180z
		 M1033.3,165.8c-9.2,3-19.3,2.3-28-2.1c-0.2-0.1-0.5-0.1-0.7,0.1c0.1-1.2,0.3-2.4,0.6-3.6c0,0.1,0.1,0.2,0.2,0.2
		c3.9,3,9.2,3.8,14,4.5c4.4,0.8,9,0.3,13.2-1.3C1032.8,164.4,1033.1,165.1,1033.3,165.8L1033.3,165.8z M1028.5,209.9
		c1.3-2,2.9-3.6,4.8-5c0.4,1.1,0.8,2.2,1.2,3.3c-0.2-0.2-0.5-0.2-0.8,0c-1.5,1.4-2.8,3-3.8,4.7l-1.6-2.9L1028.5,209.9L1028.5,209.9z
		 M1030.6,214.2c1-1.9,2.3-3.5,3.9-4.9c0.1-0.1,0.1-0.2,0.2-0.3c0.9,2,1.9,3.8,3.1,5.6c-0.2-0.2-0.6-0.2-0.8,0
		c-1.6,1.4-2.9,3-3.8,4.9c-0.9-1.7-1.8-3.4-2.7-5.2C1030.6,214.3,1030.6,214.3,1030.6,214.2L1030.6,214.2z M1047.9,225h0.2
		c-1.7,4.1-3.8,8-6.3,11.7c-0.7-1.4-1.4-2.9-2.1-4.4L1047.9,225z M1053.9,197c-3-4.1-4.6-9.1-4.4-14.2c0.7,0.2,1.3,0.4,2,0.5
		c0.8,0.1,1.1-1.1,0.3-1.2c-3-0.6-5.9-2-8.2-4.1c-0.1-0.2-0.3-0.4-0.5-0.4c-5.4-4.8-9.1-11.3-10.7-18.4c0-0.1,0-0.1-0.1-0.2
		c2,1.2,4.2,2.2,6.5,3c0.2,2,0.8,4,1.8,5.9c0.4,0.7,1.4,0.1,1-0.6c-0.8-1.5-1.3-3.1-1.6-4.8c1.8,0.5,3.8,0.8,5.7,0.9l0,0
		c2.3,4.4,4.2,9,5.6,13.8c-2-0.8-3.7-2-5.2-3.5c-0.5-0.6-1.4,0.3-0.8,0.9c1.7,1.8,3.8,3.2,6.2,4c0.1,0,0.2,0,0.2,0
		C1053.2,184.6,1053.9,190.8,1053.9,197L1053.9,197z M1022.7,137.4c2.1,2.9,4.4,5.6,6.9,8.1c2.1,2.2,4.3,4.4,7.3,5.2
		c0.2,0.1,0.4,0,0.6-0.2c1.8,2.1,3.4,4.4,4.9,6.7c-10.7-4.6-19.4-12.9-24.5-23.3c1.6,0.9,3.2,1.9,4.7,3
		C1022.6,137.1,1022.6,137.3,1022.7,137.4L1022.7,137.4z M1036.4,149.3c-2.7-1-4.7-3.3-6.7-5.4c-1.5-1.6-2.9-3.2-4.2-4.9
		C1029.5,142.1,1033.2,145.5,1036.4,149.3L1036.4,149.3z M998.7,126.3c-5.3,1.2-10.9,0.5-15.7-2
		C988.3,124.4,993.5,125.1,998.7,126.3L998.7,126.3z M981,124.2c0,0.2,0.1,0.4,0.3,0.5c5.8,3.4,12.7,4.3,19.2,2.4
		c0.1,0,0.3-0.1,0.3-0.3c1.5,0.4,3,0.9,4.5,1.4c-3.7,1.6-7.6,2.5-11.6,2.6c-0.3,0-0.6,0.3-0.6,0.6c0,0.3,0.3,0.6,0.6,0.6
		c4.3-0.2,8.4-1.1,12.3-2.9c0.2-0.1,0.4-0.3,0.3-0.6c3.4,1.3,6.8,2.8,10,4.5c-0.1,0.2-0.1,0.4,0,0.5c5.2,11.2,14.4,20,25.7,24.8
		c0.3,0.1,0.7,0,0.8-0.3l0.6,1c0.6,1,1.2,1.9,1.7,2.9c-8.3-0.5-16-5.9-21.8-11.5c-5.6-5.5-9.9-12.3-12.6-19.7
		c-0.1-0.3-0.4-0.5-0.7-0.4c-0.1-0.3-0.4-0.5-0.7-0.4c0,0,0,0,0,0c-0.1,0-0.1,0-0.2,0.1c-4.7,3.1-10.2,4.7-15.8,4.7
		c-0.3,0-0.6,0.3-0.6,0.6c0,0,0,0,0,0c0,0.1,0.1,0.3,0.2,0.4c-0.5,0-0.9,0.4-0.6,0.9c0.7,0.9,1.6,1.6,2.6,2c0.7,0.3,1.3-0.8,0.6-1.1
		c-0.8-0.3-1.6-0.9-2.1-1.6c0,0-0.1-0.1-0.1-0.1l0,0c2.2,0,4.4-0.3,6.6-0.8c-0.2,0.2-0.3,0.5-0.1,0.7c0,0,0.1,0.1,0.1,0.1
		c2.5,2,5.5,3.4,8.7,3.9c0.1,0,0.2,0,0.2,0c-1.3,0.6-2.5,1.2-3.7,1.9c-1.9-0.3-3.9-0.9-5.7-1.6c-0.7-0.3-1,0.9-0.3,1.2
		c1.5,0.6,3,1,4.5,1.3c-1.4,0.9-2.7,2-3.9,3.1c0.1-0.3-0.1-0.7-0.4-0.8c0,0,0,0,0,0h-0.2c-2.1-0.1-4.1-0.8-5.8-2
		c-0.1-0.1-0.2-0.1-0.3-0.1V143c0.1-0.8-1-1.1-1.2-0.3c-0.4,2.2-0.4,4.5-0.1,6.8c-1.9-2.9-3.9-5.7-5.8-8.4c0.1-0.1,0.1-0.2,0.2-0.3
		c0.2-1.5,0.3-3,0.5-4.5c0.7,0,1-1.1,0.2-1.2c-2.1-0.2-4.2-0.8-6.2-1.8c-0.1,0-0.2,0-0.2,0c-1.3-1.8-2.6-3.6-3.8-5.3
		c2.5,1.5,5.3,2.6,8.1,3.2c0.3,0,0.7-0.2,0.7-0.5c0-0.3-0.1-0.6-0.4-0.7l0,0c-3.1-0.7-6-2-8.7-3.7c-0.2-0.2-0.5-0.1-0.7,0.1
		c0,0,0,0.1,0,0.1l-1.4-1.9C976.4,124.3,978.7,124.2,981,124.2L981,124.2z M981.8,135c1.2,0.4,2.5,0.8,3.7,1l-0.4,3.7L981.8,135
		L981.8,135z M957.8,135.1c2.4,0.4,4.9,0.1,7.2-0.8c0.1,0,0.1-0.1,0.2-0.1c2.7,3,5.4,6.3,8.2,9.7c-4.5-1.1-8.9-3-12.8-5.6
		c2-0.2,3.9-0.6,5.9-1.1c0.3-0.1,0.5-0.4,0.4-0.8c-0.1-0.3-0.4-0.5-0.8-0.4l0,0c-7.3,2.1-15.2,1.6-22.2-1.5l0.1-0.1
		c1.2-0.7,2.5-1.4,3.7-2.1c-0.1,0.3,0,0.6,0.2,0.7c1.1,0.6,2.3,0.9,3.6,0.9c0.3,0,0.6-0.3,0.6-0.6c0-0.3-0.3-0.6-0.6-0.6
		c0,0,0,0,0,0c-1,0-2.1-0.3-3-0.8h-0.1c1.4-0.7,2.8-1.3,4.1-1.9c2.8,0.8,5.7,1.2,8.6,1.4c0.3,0,0.6-0.3,0.6-0.6
		c0-0.3-0.3-0.6-0.6-0.6c-2.3-0.2-4.5-0.5-6.7-1c1.5-0.6,3-1.1,4.5-1.7c1.7,1.7,3.4,3.6,5.2,5.5c-2,0.7-4.1,0.9-6.2,0.6
		C957.2,133.9,956.9,135,957.8,135.1L957.8,135.1z M952.7,128.9l-0.5-0.1c-0.3-0.1-0.6,0.1-0.7,0.4c0,0.1,0,0.2,0,0.3
		c-2.7,1.2-5.3,2.6-7.9,4.1c-4.6,2.8-8.9,6-12.7,9.8c-5.3-16.8-6-28.8-0.7-32s15.6,3,28,15.5C956.3,127.4,954.4,128.1,952.7,128.9
		L952.7,128.9z M943.1,135.3c0,0.2,0.1,0.3,0.3,0.4c3.1,1.4,6.5,2.3,9.8,2.7l0,0c-3.3,4.2-7.5,7.6-12.3,9.9
		c-4.5,2.2-11,4.4-16.1,3.3c0.7-0.9,1.5-1.8,2.2-2.7l0,0c6.9,0.4,13-2.9,18.3-7c0.6-0.4,0-1.5-0.6-1c-4.9,3.8-10.4,6.9-16.7,6.9
		c4.4-4.9,9.4-9.1,14.9-12.6L943.1,135.3z M920.3,168c-1.5,0.2-2.9-0.2-4.1-1c-0.2-0.2-0.5-0.1-0.7,0.1l0,0c0.5-1.2,1.1-2.4,1.7-3.6
		c1,1.1,2.5,1.7,4,1.7C920.8,166.1,920.4,167,920.3,168L920.3,168z M919.6,233.9c-12.1-20.1-13.7-44.9-4.3-66.5
		c0,0.2,0.1,0.5,0.3,0.6c1.3,0.9,2.9,1.3,4.5,1.2c-0.5,3-0.4,6,0.2,8.9c0.2,0.8,1.3,0.4,1.2-0.3c-1.2-5.1-0.4-10.5,2.1-15.1
		c0.2-0.3,0-0.7-0.2-0.8c-0.3-0.2-0.7-0.1-0.8,0.2c0,0,0,0,0,0c-0.3,0.6-0.6,1.2-0.9,1.8c0,0-0.1,0-0.1,0c-1.3,0.2-2.7-0.3-3.6-1.3
		c-0.1-0.1-0.2-0.1-0.3-0.2c1.3-2.4,2.6-4.6,4.2-6.9c3.5,0.4,6.9,0.4,10.4,0c-0.1,0.2-0.1,0.5,0,0.6c1.5,2.6,3.7,4.8,6.2,6.5
		c0.6,0.4,1.2-0.6,0.6-1.1c-2.3-1.6-4.3-3.6-5.7-6c0-0.1-0.1-0.1-0.1-0.1c3.7-0.5,7.3-1.4,10.8-2.7c0.7-0.3,0.4-1.4-0.3-1.2
		c-6.7,2.6-13.9,3.6-21,2.9c0.5-0.7,0.9-1.3,1.4-1.9c4.9,1.3,11.3-0.6,15.8-2.6c5.5-2.4,10.3-6.1,14.1-10.8c0.2-0.2,0.2-0.5,0-0.8
		c1.8,0.2,3.5,0.2,5.3,0.1c0,0.2,0.1,0.5,0.3,0.6c4.1,2.8,8.7,4.9,13.6,6.1c0.3,0.1,0.6-0.1,0.7-0.4c0,0,0-0.1,0-0.1
		c1.4,1.8,2.9,3.7,4.3,5.6c-4.9,0-9.8-1.3-14.2-3.6c-0.3-0.2-0.7-0.1-0.8,0.2c-0.2,0.3-0.1,0.7,0.2,0.8c0,0,0,0,0,0
		c4.6,2.5,9.7,3.8,14.9,3.8c0.2,0,0.4-0.1,0.5-0.3c1.1,1.4,2.2,2.9,3.3,4.4c-6.9,0.8-13.9-0.6-20-4.1c-0.7-0.4-1.2,0.7-0.6,1.1
		c6.4,3.6,13.8,5.1,21.2,4.1l0.2-0.1l2.4,3.3c-0.1,0-0.2,0-0.2,0c-2.4,0.6-4.9,0.7-7.3,0.5c-0.8-0.1-0.8,1.1,0,1.2h1
		c0,0.1,0,0.2,0.1,0.2c3.1,4.5,7.8,7.7,13.1,9.1c0.2,0.1,0.5,0,0.6-0.2c1.9,2.9,3.7,5.8,5.6,8.8c-5.8,2-12.1,1.5-17.6-1.3
		c-0.7-0.4-1.3,0.7-0.6,1.1c5.8,3,12.6,3.5,18.8,1.3c0.6,1,1.2,1.9,1.8,2.9c-0.1,0-0.3,0-0.4,0c-5.9,2-12.4,1.9-18.3-0.1
		c-0.7-0.2-1,0.9-0.3,1.2c3,1,6,1.5,9.2,1.6c0,0.1-0.1,0.2-0.1,0.3c-0.2,2.5-0.1,5.1,0.4,7.6c-1.4-0.3-2.7-1.1-3.7-2.1
		c-0.5-0.6-1.4,0.3-0.8,0.9c1.2,1.3,2.8,2.2,4.6,2.5h0.2c0.3,1.3,0.6,2.6,1.1,3.9c-2.6,0-5.2-0.7-7.5-2.1c-0.7-0.4-1.2,0.7-0.6,1.1
		c2.6,1.5,5.5,2.3,8.5,2.2c0.5,1.2,1,2.4,1.7,3.6h-0.1c-2.6,1-5.4,1.4-8.2,1.2c-0.8-0.1-0.8,1.1,0,1.2c2.9,0.3,5.8-0.2,8.5-1.2
		c0.1,0,0.2-0.1,0.3-0.2c1.5,2.6,3.3,5,5.5,7.1c0.5,0.6,1.4-0.3,0.8-0.9c-6.6-6.5-10-15.5-9.3-24.7c0-0.1,0-0.2,0-0.2
		c1.8-0.1,3.7-0.3,5.5-0.6v0.1c-0.6,3.5-0.2,7.2,1.2,10.5c0.3,0.7,1.5,0.4,1.2-0.3c-1.3-3.1-1.7-6.5-1.2-9.9c0.1-0.2,0-0.5-0.2-0.6
		c0.8-0.2,1.5-0.4,2.3-0.6c0.3-0.1,0.5-0.4,0.4-0.7l0,0l0.4,0.6c0.9,1.5,1.8,3,2.7,4.4c-0.3-0.2-0.6-0.1-0.8,0.1c0,0,0,0,0,0
		c-0.1,0.1-0.1,0.2-0.1,0.4c0.2,6,3.3,11.6,8.3,14.9c0.7,0.4,1.2-0.6,0.6-1c-4.7-3.1-7.6-8.3-7.7-13.9v-0.1
		c4.3,7.3,8.2,14.4,11.7,21.4c-4-0.2-7.9-1.8-10.8-4.6c-0.6-0.5-1.4,0.3-0.8,0.9c3.3,3.1,7.6,4.9,12.1,4.9h0.1
		c0.8,1.6,1.5,3.1,2.3,4.6h-0.2c-3,0.5-6,0.3-8.9-0.7c-0.7-0.2-1,0.9-0.3,1.2c0.5,0.2,1.1,0.3,1.6,0.4c-0.6,3.1-0.4,6.3,0.6,9.3
		c0.2,0.7,1.4,0.4,1.2-0.3c-0.9-2.8-1.2-5.8-0.6-8.8c1.7,0.3,3.5,0.3,5.2,0.2c-0.8,6,0,12.2,2.4,17.8c0.3,0.7,1.5,0.4,1.2-0.3
		c-2.4-5.5-3.2-11.6-2.4-17.5h0.3c0.1,0,0.3-0.1,0.3-0.2c1.5,3.1,2.9,6.2,4.2,9.1c-0.3-0.1-0.6,0-0.7,0.3c0,0.1,0,0.2,0,0.2
		c0.6,6.9,3.2,13.5,7.5,18.9c0.2,0.3,0.7,0.3,0.9,0.1c0,0,0,0,0,0l0.1-0.1l0.8,2.2c-1,1-2,1.9-3.1,2.8c-2.6-2-4.4-4.9-5.2-8.1
		c-0.2-0.8-1.3-0.4-1.2,0.3c0.8,3.4,2.7,6.4,5.4,8.5c-1,0.8-2,1.7-3.1,2.4c0-0.1-0.1-0.2-0.2-0.3c-6.3-5.6-8.8-13.6-11-21.4
		c-0.1-0.3-0.4-0.5-0.8-0.4c-0.3,0.1-0.5,0.4-0.4,0.8c2.3,8,4.9,16.3,11.3,22l0.1,0.1c-0.8,0.6-1.6,1.2-2.5,1.7
		c0-0.2-0.1-0.4-0.3-0.5c-2.8-1.9-5.1-4.6-6.6-7.7c-0.3-0.7-1.4-0.1-1,0.6c1.6,3.3,4,6.1,7,8.2l0,0c-0.6,0.4-1.1,0.8-1.7,1.1
		c-34.2,20.5-78.6,9.5-99.3-24.6L919.6,233.9z M985.8,160.7c2.1,2.9,4.2,6,6.2,9.1c-4.7-1.3-8.9-4.1-11.8-8.1c1.7,0,3.4-0.3,5.1-0.7
		C985.5,161.1,985.7,160.9,985.8,160.7L985.8,160.7z M1024,228c2.6,6,4.9,11.8,6.8,17.1c-3.8-5-6.1-10.9-6.8-17.2V228z
		 M1032.3,249.8c5.3,16.8,6,28.8,0.7,32s-15.6-2.9-28-15.5C1015.2,262.9,1024.5,257.3,1032.3,249.8L1032.3,249.8z M1060.3,317.9
		c-6.2,3.7-20.2-5.7-38.5-25.9c-6.5-7.2-13.3-15.5-20.3-24.6c0.7-0.2,1.5-0.4,2.2-0.7c13.1,13.2,24,19.6,29.8,16.1
		c11.7-7-2-50.4-31.2-98.8s-61.2-80.7-72.9-73.7c-5.8,3.5-5.3,16.1,0.3,33.9c-0.5,0.5-1.1,1.1-1.6,1.6c-4.8-10.4-9-20.3-12.3-29.4
		c-9.3-25.6-11.1-42.4-5-46.1s20.3,5.7,38.6,25.8c13.5,14.8,28.2,34.3,42.9,56.3c0,0.1,0.1,0.1,0.1,0.2l1.5,2.3
		c-0.1,0.3,0.1,0.6,0.3,0.6c0,0,0,0,0,0h0.1c3.1,4.7,6.2,9.6,9.3,14.5l0,0c0,0.1,0.1,0.3,0.2,0.3c1.9,3,3.8,6.1,5.6,9.1
		c20,33.2,36.3,65.9,45.8,92.1C1064.6,297.3,1066.4,314.1,1060.3,317.9L1060.3,317.9z"/>
	<path class="st7" d="M956.5,203.3c0.8-0.2,0.4-1.3-0.3-1.2c-6.8,1.4-13.8-0.1-19.4-4.2c-0.6-0.5-1.2,0.6-0.6,1
		C942,203.2,949.4,204.8,956.5,203.3z"/>
	<path class="st7" d="M960.5,201l-0.4-0.2c-0.6-0.4-1.4,0.4-0.8,0.9l0.3,0.2C960.3,202.3,961.1,201.4,960.5,201z"/>
	<path class="st7" d="M964.1,199.7v-0.3c-0.1-0.8-1.3-0.7-1.2,0v0.3C963,200.5,964.2,200.5,964.1,199.7z"/>
	<path class="st7" d="M968.5,197.2l0.5-1c0.3-0.7-0.7-1.3-1.1-0.6l-0.5,1C967.1,197.4,968.1,198,968.5,197.2z"/>
	<path class="st7" d="M966.6,191.1c-3.8,3-8.4,4.9-13.2,5.5c-0.8,0.1-0.7,1.3,0,1.2c5-0.6,9.8-2.6,13.8-5.6
		C967.8,191.7,967.2,190.7,966.6,191.1z"/>
	<path class="st7" d="M948.4,196.3v0.3c0.1,0.8,1.3,0.7,1.2,0v-0.3C949.5,195.5,948.3,195.6,948.4,196.3z"/>
	<path class="st7" d="M952.4,146.7l0.2-0.3l0.1,0.1l1.7,1.3c0.6,0.5,1.5-0.4,0.8-0.9l-1.7-1.3c-0.1-0.1-0.2-0.1-0.2-0.1l2-2.8
		c0.9,0.9,2,1.5,3.2,1.9c0.7,0.2,1-1,0.3-1.2c-1-0.3-2-0.9-2.7-1.7l0.4-0.6c0.5-0.6-0.4-1.4-0.9-0.8l-4,5.5
		C951,146.4,951.9,147.3,952.4,146.7z"/>
	<path class="st7" d="M958.5,149.5c-0.8,0.1-0.7,1.3,0,1.2h0.3c0.8-0.1,0.8-1.3,0-1.2H958.5z"/>
	<path class="st7" d="M960.5,145.9h0.3c0.8-0.1,0.7-1.3,0-1.2h-0.3C959.8,144.8,959.8,146,960.5,145.9z"/>
	<path class="st7" d="M976.4,182.7h0.3c0.8-0.1,0.7-1.3,0-1.2h-0.3C975.7,181.6,975.7,182.8,976.4,182.7z"/>
	<path class="st7" d="M977,176.9c0.6,0.4,1.4-0.4,0.8-0.9l-0.3-0.2c-0.6-0.5-1.5,0.4-0.8,0.9L977,176.9z"/>
	<path class="st7" d="M995.2,176.5c0.3,0,0.6-0.3,0.6-0.6c0-0.3-0.3-0.6-0.6-0.6c-5.3,0.3-10.6-1.2-14.8-4.5
		c-0.6-0.5-1.5,0.4-0.8,0.9C984.1,175.2,989.6,176.9,995.2,176.5z"/>
	<path class="st7" d="M977.5,169.2h0.3c0.8-0.1,0.8-1.3,0-1.2h-0.3C976.8,168.1,976.8,169.3,977.5,169.2z"/>
	<path class="st7" d="M975.1,165.1c0.3,0.7,1.5,0.4,1.2-0.3l-1.2-2.9c-0.3-0.7-1.5-0.4-1.2,0.3L975.1,165.1z"/>
	<path class="st7" d="M945.8,165.8c5.9,2.3,12.4,2.8,18.6,1.5c0.1,0,0.2-0.1,0.3-0.1c1.7,5.2,4.7,9.8,8.8,13.4
		c0.6,0.5,1.4-0.4,0.8-0.9c-5.9-5.1-9.5-12.5-9.8-20.3c1,0.4,2,0.7,3,1c-0.3,0.1-0.5,0.4-0.4,0.7c0,0,0,0,0,0l0,0
		c1.4,5,3.9,9.7,7.2,13.7c0.5,0.6,1.3-0.3,0.8-0.9c-3.2-3.9-5.5-8.4-6.8-13.2c0-0.1,0-0.1-0.1-0.2c0.3,0,0.6-0.2,0.7-0.5
		c0-0.3-0.1-0.6-0.4-0.7c-6.7-1.6-13-5-18.1-9.6c-0.6-0.5-1.4,0.4-0.8,0.9c4,3.7,8.7,6.5,13.7,8.4c0,0,0,0,0,0.1
		c0.1,2.4,0.4,4.8,1.1,7.1c-0.1,0-0.2,0-0.3,0c-5.9,1.3-12.1,0.8-17.8-1.4C945.7,164.5,945.1,165.5,945.8,165.8z"/>
	<path class="st7" d="M963,162.1c0.3-0.1,0.5-0.4,0.4-0.8c-0.1-0.3-0.4-0.5-0.8-0.4l0,0c-2.7,0.7-5.6,0.6-8.2-0.2
		c-0.7-0.2-1,0.9-0.3,1.2C957,162.8,960.1,162.9,963,162.1z"/>
	<path class="st7" d="M945,157.6c0.7,0.4,1.2-0.6,0.6-1c-1.1-0.7-2.1-1.5-3-2.5c-0.5-0.6-1.4,0.3-0.8,0.9
		C942.7,156,943.8,156.9,945,157.6z"/>
	<path class="st7" d="M1002.1,204c0.6,0.5,1.5-0.4,0.8-0.9l-0.3-0.3c-0.6-0.4-1.5,0.4-0.8,0.9L1002.1,204z"/>
	<path class="st7" d="M980.3,194.4v-0.3c-0.1-0.8-1.3-0.7-1.2,0v0.3C979.2,195.1,980.4,195.1,980.3,194.4z"/>
	<path class="st7" d="M977.2,189.7c-0.8-0.4-1.5-1.1-1.9-1.9c-0.4-0.7-1.4-0.1-1,0.6c0.5,1,1.3,1.9,2.3,2.4c0.3,0.2,0.7,0,0.8-0.3
		S977.6,189.8,977.2,189.7L977.2,189.7L977.2,189.7z"/>
	<path class="st7" d="M1008.6,216.8c0.1-0.3-0.1-0.7-0.4-0.8s-0.7,0.1-0.8,0.4c0,0,0,0.1,0,0.1l0,0c-0.5,2-0.9,4-1.1,6.1
		c-0.1-0.2-0.3-0.3-0.5-0.2c-4.4,0.6-8.9,0.2-13.1-1.3c-0.7-0.3-1,0.9-0.3,1.2c4.3,1.5,8.9,2,13.4,1.3c0.2,0,0.3-0.1,0.4-0.2
		c0,0.8-0.1,1.7-0.1,2.5l0,0c-8.3,1.5-16.8,0.4-24.4-3.4c-0.7-0.3-1.3,0.7-0.6,1.1c7.7,3.8,16.5,5.1,25,3.5
		c0.1,3.7,0.8,7.3,2.1,10.8c0.3,0.7,1.4,0.4,1.2-0.3C1007.1,230.9,1006.8,223.7,1008.6,216.8z"/>
	<path class="st7" d="M1012.6,229.1h-0.3c-0.8,0.1-0.8,1.3,0,1.2h0.3C1013.4,230.1,1013.3,229,1012.6,229.1z"/>
	<path class="st7" d="M978.2,221.3l0.3,0.2c0.6,0.5,1.5-0.4,0.8-0.9l-0.3-0.2C978.4,220,977.6,220.9,978.2,221.3z"/>
	<path class="st7" d="M975,218.6v0.3c0.1,0.8,1.3,0.7,1.2,0v-0.3C976,217.8,974.8,217.8,975,218.6z"/>
	<path class="st7" d="M968.2,211.2l3.2,4.1c0.5,0.6,1.3-0.3,0.8-0.9l-3.3-4.1C968.6,209.8,967.8,210.6,968.2,211.2z"/>
	<path class="st7" d="M988.8,220.2v0.3c0.1,0.8,1.3,0.7,1.2,0v-0.3C989.9,219.5,988.7,219.5,988.8,220.2z"/>
	<path class="st7" d="M976.4,210.6c2.5,3.5,5.7,6.4,9.3,8.7c0.7,0.4,1.2-0.7,0.6-1.1c-3.5-2.1-6.5-4.9-8.9-8.2
		C977,209.3,976,210,976.4,210.6z"/>
	<path class="st7" d="M987.3,210.5c3.3,0.2,6.6-0.1,9.7-1.1c0.3-0.1,0.5-0.4,0.4-0.8c-0.1-0.3-0.4-0.5-0.8-0.4c-3,0.9-6.2,1.2-9.4,1
		C986.6,209.3,986.6,210.5,987.3,210.5z"/>
	<path class="st7" d="M927.7,180.4c-2.4-3.6-2.8-8.1-1.2-12.1c0.3-0.7-0.8-1.3-1.1-0.6c-1.8,4.3-1.3,9.3,1.3,13.2
		C927.1,181.7,928.2,181.1,927.7,180.4z"/>
	<path class="st7" d="M930,162.4v-0.3c-0.1-0.8-1.3-0.7-1.2,0v0.3C928.9,163.2,930.1,163.2,930,162.4z"/>
	<path class="st7" d="M933.2,159.4c0.6-0.5-0.3-1.3-0.9-0.8l-1.4,1.1c-0.6,0.5,0.3,1.3,0.9,0.8L933.2,159.4z"/>
	<path class="st7" d="M957.7,184.2c0.3,0.1,0.7-0.1,0.7-0.5c0.1-0.3-0.1-0.7-0.4-0.7c0,0,0,0,0,0c-3-0.8-5.7-2.5-7.7-4.9
		c-0.5-0.6-1.3,0.3-0.8,0.9C951.6,181.6,954.5,183.4,957.7,184.2z"/>
	<path class="st7" d="M954.3,222.9c0.9,3.7,2.8,7,5.7,9.5c0.6,0.5,1.4-0.4,0.8-0.9c-2.7-2.4-4.6-5.5-5.4-9
		C955.3,221.8,954.2,222.1,954.3,222.9z"/>
	<path class="st7" d="M963.7,233.4c-0.1,0.1-0.2,0.2-0.3,0.3c-0.5,0.6,0.4,1.4,0.9,0.8l0.3-0.3C965,233.7,964.1,232.8,963.7,233.4z"
		/>
	<path class="st7" d="M946.9,227.8c-5.1-0.2-10-2.1-14-5.2c-0.6-0.5-1.4,0.4-0.8,0.9c4.2,3.4,9.4,5.3,14.8,5.6
		C947.7,229,947.7,227.8,946.9,227.8z"/>
	<path class="st7" d="M929.8,220.3h-0.3c-0.8,0.1-0.7,1.3,0,1.2h0.3C930.6,221.4,930.6,220.2,929.8,220.3z"/>
	<path class="st7" d="M927.7,218.1h-0.3c-0.8,0.1-0.7,1.3,0,1.2h0.3C928.5,219.2,928.5,218,927.7,218.1z"/>
	<path class="st7" d="M923.3,210.8c-0.2-0.7-1.4-0.4-1.2,0.3c0.6,1.8,1.6,3.4,2.8,4.8c0.5,0.6,1.3-0.3,0.8-0.9
		C924.6,213.8,923.8,212.4,923.3,210.8z"/>
	<path class="st7" d="M960.9,259.6c-4.6-2.9-9.6-6.4-9.8-12.4c0-0.3-0.3-0.6-0.6-0.6c-0.3,0-0.6,0.3-0.6,0.6l0,0
		c0.1,6.4,5.4,10.3,10.4,13.5C960.9,261.1,961.5,260,960.9,259.6z"/>
	<path class="st7" d="M984.1,261c-4.8,0-9.3-2.2-12.3-5.9c-0.5-0.6-1.3,0.3-0.8,0.9c1.2,1.5,2.6,2.7,4.2,3.7
		c-1.4,0.7-2.9,1.1-4.4,1.1c-0.3,0-0.6,0.3-0.6,0.6s0.3,0.6,0.6,0.6l0,0c2,0,4-0.6,5.7-1.6c2.4,1.2,5,1.9,7.7,1.9
		c0.3,0,0.6-0.3,0.6-0.6C984.7,261.3,984.4,261,984.1,261z"/>
	<path class="st7" d="M989.7,260.9l-0.3,0.3c-0.5,0.6,0.4,1.5,0.9,0.8l0.2-0.3C991,261.1,990.2,260.3,989.7,260.9z"/>
	<path class="st7" d="M985.3,258.2c-5.6-0.9-10.6-4-13.9-8.6c-0.4-0.6-1.5,0-1,0.6c3.5,4.9,8.7,8.2,14.7,9.2
		C985.8,259.5,986.1,258.3,985.3,258.2z"/>
	<path class="st7" d="M969.4,246.2l-0.6-0.2c-0.7-0.3-1,0.9-0.3,1.2l0.6,0.2C969.8,247.6,970.1,246.4,969.4,246.2z"/>
	<path class="st7" d="M992.1,140.5c0.6,0.5,1.4-0.4,0.8-0.9l-0.3-0.3c-0.6-0.4-1.5,0.4-0.8,0.9L992.1,140.5z"/>
	<path class="st7" d="M1010.8,145.6l3.4-1.7c0.7-0.3,0.1-1.4-0.6-1l-3.4,1.7C1009.5,145,1010.1,146,1010.8,145.6z"/>
</g>
<g class="st6">
	<path class="st7" d="M1024.4,437.9c0-0.1-0.1-0.1-0.2-0.1c-14.5-12.5-36.4-10.9-48.9,3.6c-12.5,14.5-10.9,36.4,3.6,48.9
		c14.5,12.5,36.4,10.9,48.9-3.6C1040.4,472.2,1038.8,450.5,1024.4,437.9z M986.1,486.4c-1.9,1.3-3.3,3.3-3.8,5.6
		c0,0.2,0,0.4,0.2,0.5c-0.1,0.1-0.2,0.2-0.3,0.4c-0.8-0.5-1.5-1.1-2.3-1.7c0.6-3.3,3-6,6.3-6.8C986.1,485,986,485.7,986.1,486.4
		L986.1,486.4z M986.2,487.5c0.1,0.4,0.2,0.9,0.3,1.3c-1.1,0.8-2.1,1.6-3,2.5C984,489.9,984.9,488.5,986.2,487.5L986.2,487.5z
		 M992.1,497.3c5.4-1.8,11.3-1.8,16.7,0.1c0.6,0.2,0.8-0.8,0.2-1c-5.8-2-12-1.9-17.8,0.1c-0.2,0.1-0.3,0.2-0.3,0.5
		c-0.8-0.2-1.6-0.5-2.4-0.9c1-0.9,2.3-1.6,3.7-1.8c0.6-0.1,0.3-1.1-0.3-1c-1.7,0.3-3.3,1.1-4.5,2.3c-0.8-0.4-1.6-0.7-2.4-1.1
		c4.4-4,9.7-5,15.5-5.1c0.3,0,0.5-0.2,0.5-0.5c0-0.3-0.2-0.5-0.5-0.5c-6.2,0.2-11.7,1.3-16.4,5.6c-0.4-0.2-0.8-0.4-1.2-0.7
		c1.6-1.8,3.4-3.4,5.5-4.7c0.2-0.1,0.3-0.5,0.2-0.7c0,0,0,0,0,0c-0.1-0.2-0.4-0.3-0.7-0.2l-0.7,0.4c-0.1-0.4-0.2-0.9-0.2-1.3l0,0
		c0.2-0.1,0.3-0.4,0.2-0.7c-0.1-0.1-0.2-0.2-0.3-0.2c0-1,0.2-2,0.5-3c0.2-0.6-0.8-0.8-1-0.2c-0.1,0.2-0.2,0.5-0.2,0.7
		c-0.1-0.1-0.3-0.1-0.4-0.1c-3.5,0.9-6.2,3.6-6.9,7.1c-0.5-0.4-1-0.8-1.4-1.3c0.1-0.1,0.2-0.2,0.2-0.4c0.2-1.7,0.8-3.3,1.9-4.6
		c0.4-0.5-0.3-1.2-0.7-0.7c-1.2,1.4-1.9,3.2-2.1,5c-0.5-0.5-1.1-1.1-1.6-1.7c1-5.6,6.3-9.3,11.9-8.4c0.6,0.1,0.9-0.9,0.2-1
		c-5.9-1.1-11.5,2.6-13,8.4c-0.3-0.4-0.7-0.8-1-1.3c0.2,0,0.3-0.2,0.3-0.4c0.3-1.5,0.8-2.9,1.6-4.2c0.3-0.5-0.5-1-0.9-0.5
		c-0.8,1.3-1.4,2.7-1.7,4.2c-10.8-15.5-6.9-36.9,8.6-47.6c9.6-6.6,21.9-8,32.7-3.5c-2.6,0.4-5.3,0.5-7.9,0.4c-0.3,0-0.5,0.2-0.5,0.5
		s0.2,0.5,0.5,0.5c3.1,0.2,6.3,0,9.4-0.6h0.1c0.9,0.4,1.8,0.9,2.7,1.4l-2.8,1.1c-0.6,0.2-0.3,1.2,0.3,1l3.4-1.4l0.1-0.1
		c1.2,0.8,2.4,1.6,3.5,2.6c-3.3,1-6.7,1.5-10.1,1.5c-3.1,0-8.5-0.1-10.8-2.5c-0.4-0.5-1.1,0.2-0.7,0.7c0.7,0.7,1.5,1.2,2.4,1.5
		c-1.5,2.2-2.5,4.8-2.9,7.4c-0.1,0.6,0.9,0.9,1,0.2c0.4-2.6,1.4-5.1,2.9-7.3c0.9,0.3,1.8,0.4,2.7,0.6c-0.1,0.1-0.2,0.1-0.2,0.2
		c-1,2.9-1.5,5.9-1.6,8.9c0,0.3,0.2,0.5,0.5,0.5s0.5-0.2,0.5-0.5c0-3,0.5-5.9,1.5-8.7c0.1-0.1,0.1-0.3,0-0.4c1.1,0.1,2.1,0.2,3,0.2
		c4.3,0.2,8.7-0.3,12.8-1.7c2.9,2.6,5.4,5.7,7.2,9.2l-1.4,0.9c-0.5,0.4,0,1.2,0.5,0.9l1.3-0.9l1,2c-5.3,3.6-8.9,9.2-10,15.6
		c0,0.1,0,0.3,0.1,0.4c-0.6,0-1.1,0.1-1.7,0.2c-0.1-3.8,1-7.5,3.2-10.5c0.4-0.5-0.5-1-0.9-0.5c-0.3,0.4-0.6,0.9-0.8,1.3
		c-2.1-4.6-4.1-9.2-4.5-14.3c0-0.3-0.2-0.5-0.5-0.5s-0.5,0.2-0.5,0.5c0.4,5.5,2.6,10.4,4.9,15.4l0,0c-0.4,0.8-0.7,1.7-1,2.5
		c-1.8-2.6-3.3-5.3-4.5-8.3c-0.2-0.6-1.2-0.3-1,0.3c1.3,3.2,3,6.3,5.1,9.1l0.1,0.1c-0.1,0.5-0.2,0.9-0.3,1.4c-0.1,0-0.3,0-0.4,0.1
		c-0.4,0.2-3.4-4.3-3.8-5c-1-1.7-1.9-3.5-2.6-5.3c-1.4-3.6-2.1-7.4-2.1-11.3c0-0.3-0.2-0.5-0.5-0.5s-0.5,0.2-0.5,0.5
		c0,4.3,0.9,8.6,2.5,12.6c-0.1-0.1-0.2-0.1-0.3-0.1h-0.2c-0.3,0-0.5,0.2-0.5,0.5s0.2,0.5,0.5,0.5h0.2c0.2,0,0.4-0.2,0.5-0.4
		c0.2,0.4,0.3,0.8,0.5,1.2s0.5,0.9,0.9,1.7c-0.8,0-1.5,0.2-2.2,0.6c-0.6,0.3,0,1.2,0.5,0.9c0.6-0.3,1.3-0.5,2-0.5c0.1,0,0.1,0,0.2,0
		c0.5,0.9,1.1,1.8,1.7,2.7c-0.1-0.2-0.3-0.2-0.5-0.2c-1.2,0.3-2.3,0.9-3.2,1.7c-0.5,0.4,0.2,1.1,0.7,0.7c0.8-0.7,1.7-1.2,2.8-1.4
		c0.3-0.1,0.4-0.3,0.4-0.6c0,0,0,0,0,0c0-0.1,0-0.1-0.1-0.2c1.2,1.7,2.4,3,3.3,2.8c-0.1,0.8-0.1,1.7-0.1,2.5v0.1
		c-0.7,0.1-1.4,0.2-2,0.4s-0.3,1.1,0.3,1c3.3-0.8,6.7-1,10-0.6h0.1c-0.1,0.6-0.2,1.3-0.2,2c-5.4-0.4-10.9,0.8-15.2,4.1
		c-3.3,2.5-6.8,7.2-6.4,11.6c0.1,0.6,1.1,0.6,1,0c-0.5-4.5,3.4-9.1,6.8-11.4c4.1-2.6,8.9-3.8,13.7-3.3v1.5c-2.1-0.1-4.2,0.4-6.2,1.3
		c-0.6,0.3-0.1,1.1,0.5,0.9c1.8-0.8,3.7-1.2,5.7-1.2c0,0.8,0.1,1.7,0.2,2.5c-7.9,0-14.8,5.2-16.9,12.8v0.1c-0.2-0.2-0.4-0.4-0.6-0.5
		c0.1-0.1,0.2-0.2,0.2-0.4c-0.1-4.1,1.7-8,4.9-10.6c0.5-0.4-0.2-1.1-0.7-0.7c-3.3,2.8-5.2,6.8-5.2,11.1c-1.6-1.1-3.4-1.8-5.3-2.2
		c0.1-0.1,0.1-0.2,0.1-0.3c0.5-5.1,2.8-12.7,7.9-15c0.6-0.3,0.1-1.1-0.5-0.9c-1.2,0.6-2.4,1.4-3.3,2.4c-0.5-0.2-1-0.4-1.5-0.6
		c0.5-1.7,1.4-3.2,2.7-4.4c0.5-0.4-0.2-1.1-0.7-0.7c-1.4,1.3-2.5,2.9-3,4.8c-0.5-0.2-1.1-0.3-1.6-0.4c0.1-0.1,0.1-0.2,0.2-0.2
		c0.6-2.6,1.8-5,3.6-7c0.4-0.5-0.3-1.2-0.7-0.7c-1.9,2-3.2,4.5-3.8,7.2v0.3c0,0.1,0,0.2,0.1,0.4c-0.6-0.1-1.2-0.2-1.8-0.2
		c-0.4-1.4-0.2-2.8,0.3-4.1l0.1-0.1c0.2-0.1,0.3-0.4,0.2-0.6c0,0,0,0,0,0l0,0c1.2-2.7,3.1-5.1,5.3-7.1c0.5-0.4,0-1.3-0.5-0.9
		c-2,1.7-3.7,3.7-4.8,6.1c-0.3,0.6-0.6,1.2-0.9,1.8c-2.3,1.3-4.3,3.1-5.6,5.4c-1.2,0.3-2.3,0.8-3.4,1.4c0.4-2,1.2-3.8,2.4-5.5
		c0.4-0.5-0.5-1-0.9-0.5c-1.4,1.9-2.3,4.1-2.6,6.3c0,0.1,0,0.2,0,0.3c-0.8,0.6-1.6,1.2-2.2,2c-0.5-3.9,0.5-7.9,2.7-11.2
		c0.3-0.5-0.5-1-0.9-0.5c-2.3,3.5-3.3,7.6-2.8,11.8c0,0.1,0.1,0.2,0.2,0.3c-2.8-1-5.8-1.1-8.6-0.2c-0.3,0.1-0.4,0.4-0.4,0.6
		c0.1,0.3,0.4,0.4,0.6,0.4c2.7-0.8,5.5-0.7,8.1,0.2c-0.1,0.2-0.2,0.3-0.3,0.5c-0.3,0.5,0.5,1,0.9,0.5c3.7-6,10.8-6.9,17-5
		c0.1,0.3,0.4,0.4,0.7,0.2c0,0,0,0,0,0l0,0c0.4,0.1,0.9,0.3,1.3,0.5c-0.6,0.8-1.2,1.7-1.7,2.6c-0.1-0.1-0.1-0.1-0.2-0.1
		c-2.3-0.8-4.9-0.9-7.3-0.4c-0.6,0.1-0.4,1.1,0.3,1c2.3-0.5,4.6-0.4,6.8,0.4l0,0c-0.5,1.2-1,2.4-1.3,3.6c0,0-0.1-0.1-0.1-0.1
		c-0.9-0.5-1.9-0.8-3-0.8c-0.3,0-0.5,0.2-0.5,0.5s0.2,0.5,0.5,0.5c0.9,0,1.7,0.3,2.5,0.7c0.1,0.1,0.3,0.1,0.4,0
		c-0.2,0.6-0.3,1.2-0.4,1.8c-2.5-0.9-5.4,0.2-6.6,2.7c-0.1,0.1-0.1,0.3,0,0.4c-0.7,0.1-1.4,0.2-2,0.3c0.1-0.1,0.2-0.2,0.2-0.4
		c-0.2-1.3,0.1-2.6,0.6-3.8c0.3-0.6-0.6-1.1-0.9-0.5c-0.6,1.3-0.9,2.8-0.7,4.3c0,0.2,0.2,0.4,0.4,0.4c-0.8,0.1-1.5,0.3-2.3,0.5
		s-0.3,1.1,0.3,1c6.1-1.4,14.1-1.8,18.5,3.5c0.1,0.2,0.4,0.2,0.5,0.1c-0.3,1.3-0.4,2.7-0.4,4l0,0c-4.5-2.3-9.7-3.1-14.7-2.2
		c-0.6,0.1-0.4,1.1,0.3,1c4.7-0.9,9.6-0.1,13.9,2.1c0.2,0.1,0.4,0.1,0.5-0.1c0,0.5,0.1,1,0.2,1.4c-6.4,2.1-13.3,2.3-19.8,0.6
		L992.1,497.3z M1033.7,453.9c-0.1,0-0.1,0.1-0.1,0.1c-2.6,3.9-4.4,8.3-5.1,12.9c-0.8-0.1-1.6-0.2-2.3-0.2c0.4-1.4,1-2.8,1.9-4
		c0.4-0.5-0.5-1-0.9-0.5c-1,1.3-1.6,2.8-2,4.4v0h-1.6v-0.1c1-6,4.4-11.4,9.4-14.8C1033.2,452.5,1033.5,453.2,1033.7,453.9z
		 M1034.5,457L1034.5,457c-3.3,6.7-4.3,14.3-3,21.7c0,0.2,0.2,0.4,0.4,0.4c0,0,0,0,0,0l0,0c-1.2,2.5-2.7,4.9-4.6,7.1
		c-0.1-0.2-0.4-0.3-0.6-0.1c0,0,0,0,0,0c-2.5,1.5-4.7,3.5-6.4,5.8c-0.1,0.2-0.1,0.4,0.1,0.5c0,0,0,0,0,0h0.1c-1,0.7-2,1.3-3,1.9
		c1.2-3.8,3.7-7.1,7-9.3c0.5-0.4,0-1.2-0.5-0.9c-3.8,2.5-6.5,6.2-7.7,10.6c0,0.1,0,0.1,0,0.2c-0.5,0.3-1.1,0.5-1.6,0.8
		c-0.2-2.7,0.6-5.3,2.2-7.5c0.4-0.5-0.3-1.2-0.7-0.7c-1.8,2.4-2.7,5.4-2.5,8.4c0,0.1,0,0.1,0.1,0.2l-1,0.4
		c-0.8-4.7,0.7-9.4,4.1-12.8c1.4-1.4,3-2.6,4.8-3.5c0.5-0.2,5.8-1.9,5.9-2.2c-0.1,0.6,0.9,0.9,1,0.2l0,0c0.1,0.6,0.2,1.1,0.4,1.7
		c-2.8,0.2-5.4,1.3-7.4,3.1c-0.5,0.4,0.2,1.1,0.7,0.7c1.9-1.7,4.4-2.8,7-2.9c0.1,0.3,0.2,0.6,0.3,1c0.1,0.3,0.4,0.4,0.6,0.4
		c0,0,0,0,0,0c0.3-0.1,0.4-0.4,0.4-0.6c-0.5-1.6-0.9-3.3-1.1-5c0.1-0.1,0.1-0.3,0-0.4c-0.9-7.4,0.8-14.8,4.8-21
		C1034.2,455.8,1034.3,456.4,1034.5,457L1034.5,457z M1035.3,464.6c0,2.8-0.3,5.5-1,8.2C1034.2,470,1034.5,467.2,1035.3,464.6
		L1035.3,464.6z M1035.3,462.3c-0.2,0-0.3,0.2-0.4,0.3c-1.5,4-2,8.4-1.4,12.7l0,0c-0.3,1-0.7,1.9-1.1,2.8
		c-1.1-6.6-0.2-13.3,2.5-19.4C1035.1,459.9,1035.2,461.1,1035.3,462.3L1035.3,462.3z M1012.2,489.7c-0.1-0.2-0.3-0.3-0.4-0.5
		c0.2,0,0.4-0.1,0.5-0.4c2-7.2,8.6-12.1,16.1-12.1c0,0.2,0,0.5,0.1,0.7l-0.1-0.1c-1.4-0.9-4.4,0.6-5.8,1.2c-2.3,1-4.3,2.3-6.1,4.1
		C1014.5,484.6,1013,487.1,1012.2,489.7L1012.2,489.7L1012.2,489.7z M1003.7,485.3c-1.7-0.2-3.4-0.3-5.2-0.2c1-1.9,3.3-2.8,5.3-2
		h0.1c-0.1,0.7-0.2,1.4-0.3,2.1C1003.7,485.2,1003.7,485.3,1003.7,485.3L1003.7,485.3z M1001.1,469.9c-1.1-0.1-2.3,0-3.4,0.2
		c1-1.4,2.2-2.6,3.6-3.5C1000.9,467.7,1000.8,468.8,1001.1,469.9L1001.1,469.9z M1022.2,491.2c1.1-1.3,2.4-2.5,3.8-3.4
		C1024.8,489,1023.5,490.2,1022.2,491.2L1022.2,491.2z"/>
	<path class="st7" d="M1017.6,485.9v0.2c0,0.3,0.2,0.5,0.5,0.5c0.3,0,0.5-0.2,0.5-0.5v-0.2c0-0.3-0.2-0.5-0.5-0.5
		S1017.6,485.6,1017.6,485.9z"/>
	<path class="st7" d="M1019.7,484l-0.2,0.2c-0.5,0.5,0.3,1.1,0.7,0.7l0.2-0.2C1020.9,484.2,1020.2,483.5,1019.7,484z"/>
	<path class="st7" d="M1003.1,490c0.2,0.1,0.5,0,0.7-0.2c0.2-0.1,0.3-0.4,0.2-0.6l0,0C1003.4,488.2,1002.2,489.5,1003.1,490z"/>
	<path class="st7" d="M1005.5,491c2-0.3,4,0.2,5.6,1.4c0.5,0.4,1-0.5,0.5-0.9c-1.8-1.3-4.1-1.8-6.3-1.4
		C1004.6,490.1,1004.8,491.1,1005.5,491z"/>
	<path class="st7" d="M1014.1,469.3h0.2c0.3,0,0.5-0.2,0.5-0.5c0-0.3-0.2-0.5-0.5-0.5h-0.2c-0.3,0-0.5,0.2-0.5,0.5
		S1013.8,469.3,1014.1,469.3z"/>
	<path class="st7" d="M1016.6,468.3v-0.2c0-0.3-0.2-0.5-0.5-0.5s-0.5,0.2-0.5,0.5v0.2c0,0.3,0.2,0.5,0.5,0.5
		C1016.4,468.8,1016.6,468.6,1016.6,468.3z"/>
	<path class="st7" d="M987.5,478.7l-0.2,0.2c-0.5,0.5,0.3,1.1,0.7,0.7l0.2-0.2C988.7,479,987.9,478.3,987.5,478.7z"/>
	<path class="st7" d="M993.3,477.8c0.4-0.5-0.3-1.2-0.7-0.7c-2.2,2.7-3.1,6.3-2.4,9.7c0,0.1-0.1,0.2-0.1,0.2v0.2
		c0,0.3,0.2,0.5,0.5,0.5c0.3,0,0.5-0.2,0.5-0.5V487c0-0.1,0-0.2,0-0.3C990.5,483.5,991.3,480.3,993.3,477.8z"/>
	<path class="st7" d="M994.8,476.8h0.2c0.3,0,0.5-0.2,0.5-0.5c0-0.3-0.2-0.5-0.5-0.5h-0.2c-0.3,0-0.5,0.2-0.5,0.5
		S994.6,476.8,994.8,476.8z"/>
	<path class="st7" d="M981.3,481.8h-0.3c-0.3,0-0.5,0.2-0.5,0.5s0.2,0.5,0.5,0.5h0.2c0.3,0,0.5-0.2,0.5-0.5
		C981.8,482.1,981.6,481.8,981.3,481.8C981.3,481.8,981.3,481.8,981.3,481.8z"/>
	<path class="st7" d="M983.9,480.5c-0.5-0.5-1.2,0.3-0.7,0.7c0.1,0.1,0.2,0.2,0.2,0.2c0.5,0.5,1.2-0.3,0.7-0.7L983.9,480.5z"/>
	<path class="st7" d="M1010.5,456.7l0.2-0.2c0.5-0.5-0.3-1.1-0.7-0.7l-0.2,0.2C1009.3,456.5,1010,457.1,1010.5,456.7z"/>
	<path class="st7" d="M1012.1,464.6v-0.2c0-0.3-0.2-0.5-0.5-0.5s-0.5,0.2-0.5,0.5v0.2c0,0.3,0.2,0.5,0.5,0.5
		C1011.9,465.1,1012.1,464.9,1012.1,464.6z"/>
	<path class="st7" d="M1014.8,450.6h0.2c0.3,0,0.5-0.2,0.5-0.5c0-0.3-0.2-0.5-0.5-0.5h-0.2c-0.3,0-0.5,0.2-0.5,0.5
		S1014.6,450.6,1014.8,450.6L1014.8,450.6z"/>
	<path class="st7" d="M1014.6,444.7c-0.3-1.1-0.4-2.2-0.1-3.3c0.1-0.3-0.1-0.6-0.4-0.6c-0.3-0.1-0.5,0.1-0.6,0.4c0,0,0,0,0,0
		c-0.3,1.2-0.3,2.5,0.1,3.8c0.1,0.3,0.4,0.4,0.6,0.4c0,0,0,0,0,0C1014.5,445.3,1014.7,445,1014.6,444.7z"/>
	<path class="st7" d="M1024.4,454.6c0.1,0.2,0.4,0.3,0.6,0.2h0.1c0.2,0.1,0.5,0.1,0.7-0.2c0-0.1,0.1-0.2,0.1-0.2v-0.5
		c0-0.3-0.3-0.5-0.5-0.5c-0.2,0-0.3,0.1-0.4,0.2c-0.8-1.4-1.4-2.8-1.8-4.4c-0.1-0.3-0.4-0.4-0.6-0.4c-0.3,0.1-0.4,0.4-0.4,0.6
		C1022.6,451.3,1023.4,453,1024.4,454.6z"/>
	<path class="st7" d="M1021,446.7c0.1,0.1,0.2,0.2,0.2,0.2c0.5,0.5,1.2-0.3,0.7-0.7l-0.2-0.2C1021.2,445.5,1020.5,446.2,1021,446.7z
		"/>
	<path class="st7" d="M1021.6,444c-0.3-0.8-0.5-1.5-0.5-2.4c0-0.3-0.2-0.5-0.5-0.5s-0.5,0.2-0.5,0.5c0,0.9,0.2,1.8,0.5,2.6
		C1020.8,444.8,1021.8,444.6,1021.6,444z"/>
	<path class="st7" d="M1027.2,451.1c0.1,0.2,0.5,0.3,0.7,0.2c0.2-0.1,0.3-0.4,0.2-0.7c-0.9-1.5-1.6-3.2-2-4.9
		c-0.2-0.6-1.1-0.4-1,0.3C1025.5,447.8,1026.2,449.5,1027.2,451.1z"/>
	<path class="st7" d="M1029.1,448.5c0.3,0.1,0.5,0,0.7-0.2c0.1-0.2,0-0.5-0.2-0.6c0-0.3-0.1-0.5-0.4-0.6c-0.3,0-0.5,0.1-0.6,0.4
		C1028.5,447.9,1028.7,448.4,1029.1,448.5z"/>
	<path class="st7" d="M1004.5,436.3l5.7,0.8c0.6,0.1,0.9-0.9,0.2-1l-5.7-0.8C1004.1,435.2,1003.8,436.2,1004.5,436.3z"/>
	<path class="st7" d="M1002.1,452.1v-0.2c0-0.3-0.2-0.5-0.5-0.5s-0.5,0.2-0.5,0.5v0.2c0,0.3,0.2,0.5,0.5,0.5
		C1001.9,452.6,1002.1,452.4,1002.1,452.1z"/>
	<path class="st7" d="M1008.3,456.2c-0.4-1.1-0.7-2.2-0.8-3.4c0-0.3-0.2-0.5-0.5-0.5s-0.5,0.2-0.5,0.5c0.1,1.2,0.3,2.5,0.8,3.6
		C1007.6,457.1,1008.6,456.8,1008.3,456.2z"/>
	<path class="st7" d="M991.2,456.7c2.4-2.3,5.5-3.9,8.8-4.4c0.6-0.1,0.4-1.1-0.3-1c-3.5,0.6-6.7,2.2-9.2,4.7
		c-0.2,0.2-0.1,0.6,0.1,0.7C990.7,456.8,991,456.8,991.2,456.7z"/>
	<path class="st7" d="M988.6,459.3h-0.2c-0.3,0-0.5,0.2-0.5,0.5s0.2,0.5,0.5,0.5h0.2c0.3,0,0.5-0.2,0.5-0.5
		C989.1,459.6,988.9,459.3,988.6,459.3z"/>
	<path class="st7" d="M986.1,468.2c0.3-2.1,0.9-4.1,1.8-5.9c0.3-0.6-0.6-1-0.9-0.5c-1,1.9-1.6,4-1.9,6.2
		C985.1,468.6,986,468.9,986.1,468.2z"/>
	<path class="st7" d="M985.8,473.5c-0.3-0.8-0.3-1.6,0-2.4c0.2-0.6-0.7-1.1-0.9-0.5c-0.4,1-0.5,2.1-0.1,3.1
		C985.1,474.3,986,474.1,985.8,473.5z"/>
	<path class="st7" d="M993.8,460.8h-0.2c-0.3,0-0.5,0.2-0.5,0.5s0.2,0.5,0.5,0.5h0.2c0.3,0,0.5-0.2,0.5-0.5
		C994.3,461.1,994.1,460.8,993.8,460.8z"/>
	<path class="st7" d="M996.3,459.7c1.8-1.1,3.7-2,5.7-2.7l0.2-0.1c0.3,1,0.8,2,1.4,2.8h-0.1c-1.3,0.3-2.5,0.9-3.6,1.7
		c-0.5,0.4,0,1.2,0.5,0.9c1-0.8,2.1-1.3,3.3-1.6c0.2,0,0.3-0.2,0.3-0.4c0.4,0.2,1-0.2,0.6-0.7c-1.1-1.4-1.8-3-2.1-4.7
		c-0.1-0.6-1.1-0.4-1,0.3c0,0.3,0.1,0.5,0.2,0.8h-0.2c-2,0.7-4,1.7-5.9,2.8c-0.2,0.1-0.3,0.5-0.2,0.7c0,0,0,0,0,0
		C995.8,459.8,996.1,459.9,996.3,459.7L996.3,459.7z"/>
	<path class="st7" d="M997,463l-0.2,0.2c-0.5,0.5,0.3,1.1,0.7,0.7l0.2-0.2C998.2,463.2,997.4,462.5,997,463z"/>
	<path class="st7" d="M979.9,463.5c-2.7,1.2-4.9,3.3-6.3,5.9c-0.1,0.3,0,0.5,0.3,0.7c0.2,0.1,0.5,0,0.6-0.2c1.3-2.4,3.4-4.3,5.9-5.5
		C981,464,980.4,463.2,979.9,463.5z"/>
	<path class="st7" d="M983.1,463.3h0.2c0.3,0,0.5-0.2,0.5-0.5c0-0.3-0.2-0.5-0.5-0.5h-0.2c-0.3,0-0.5,0.2-0.5,0.5
		S982.8,463.3,983.1,463.3z"/>
	<path class="st7" d="M977,464.3c0.3-0.1,0.4-0.4,0.4-0.6c-0.1-0.3-0.4-0.4-0.6-0.4c0,0,0,0,0,0l0,0c-1.7,0.5-3.3,1.6-4.2,3.1
		c-0.4,0.5,0.5,1,0.9,0.5C974.2,465.6,975.5,464.7,977,464.3z"/>
	<path class="st7" d="M986.5,450.3c0-2.4,0.9-4.8,2.4-6.6c0.4-0.5-0.3-1.2-0.7-0.7c-1.7,2.1-2.6,4.7-2.7,7.4
		C985.5,451,986.5,451,986.5,450.3z"/>
	<path class="st7" d="M990.6,441.3v-0.2c0-0.3-0.2-0.5-0.5-0.5s-0.5,0.2-0.5,0.5v0.2c0,0.3,0.2,0.5,0.5,0.5
		C990.4,441.8,990.6,441.6,990.6,441.3z"/>
	<path class="st7" d="M990.5,446.3c0.3-0.5-0.5-1-0.9-0.5c-1.6,2.6-2.5,5.5-2.5,8.5c0,0.3,0.2,0.5,0.5,0.5s0.5-0.2,0.5-0.5
		C988.1,451.5,989,448.7,990.5,446.3z"/>
	<path class="st7" d="M992.1,443.8h0.2c0.3,0,0.5-0.2,0.5-0.5c0-0.3-0.2-0.5-0.5-0.5h-0.2c-0.3,0-0.5,0.2-0.5,0.5
		S991.8,443.8,992.1,443.8z"/>
</g>
<g class="st6">
	<path class="st7" d="M156.6,169.2c12.5,1.1,24.3-5.7,29.7-17c5-10.7,2.4-24.3-7.1-31.7c-5.6-4.1-12.4-6.2-19.4-5.7
		c-0.2-0.1-0.4-0.1-0.6,0c-5,0.3-9.9,1.6-14.4,3.7c-0.6,0.3-0.1,1.1,0.5,0.9l0.1-0.1c0,0,0,0.1,0,0.1c0.4,5.7,4.6,5.9,9.4,5.8
		c2,0,4.4,0.2,5.6,2.1c0.5,1.1,0.9,2.3,1,3.5c0.4,1.8,0.8,3.7,2.6,4.5s3.8,0,5.7-0.3c4.1-0.6,4.4,2.9,5.4,5.9
		c0.3,1.5,1.3,2.8,2.7,3.4c1.3,0.5,2.7,0,4,0.4c2.3,0.7,2.8,2.9,3.1,5.1c0.1,0.6,1.1,0.4,1-0.3c-0.3-2-0.8-4.4-2.7-5.5
		c-2.5-1.5-5.6,0.5-7-2.9c-1.3-3.3-1.4-7.6-6.1-7.2c-3.3,0.3-6.5,1.9-7.5-2.6c-0.4-1.9-0.5-4-1.9-5.5c-4.2-4.4-13.6,1.9-14.2-6.6
		c0-0.2-0.1-0.3-0.3-0.4c4.1-1.8,8.4-2.9,12.9-3.2c0.3,1.5,0.5,2.8,1.6,3.9c1.1,1,2.4,1.7,3.9,2.1c2.1,0.6,4.5,0.9,6.1,2.5
		c1.5,1.4,1.6,3.7,2.9,5.2c0.8,1,2,1.5,3.3,1.4c1.1,0,2.1-0.7,3.2-0.1c0.7,0.5,1.3,1.2,1.6,2c0.5,1.2,1.2,2.2,2,3.2
		c0.7,0.7,3.7,1.7,3.6,2.8c0,0.3,0.2,0.6,0.5,0.6c0.2,2.8-0.1,5.6-0.9,8.2c-1.5,5.5-4.7,10.4-9.2,14c0-0.2-0.2-0.3-0.4-0.4
		c-3-0.4-2-5-4.1-6.5c-1.5-1.1-3.4-0.6-5.1-1c-4.7-1.1-2.1-8.2-7.3-9.3c-2.2-0.5-5,0.5-6.9-0.7c-2.3-1.5-1.8-5.2-3.3-7.3
		c-2.5-3.5-14.9-5.9-10.6-12c0.1-0.2,0.1-0.4-0.1-0.6c0,0,0,0,0,0h-0.1c1.5-1.4,3.1-2.6,4.8-3.6c0.2-0.1,0.3-0.4,0.2-0.7
		c0,0,0,0,0,0c-0.1-0.2-0.4-0.3-0.7-0.2c-10.1,5.8-15.2,17.6-12.4,29C134.8,159.8,144.7,168.2,156.6,169.2z M185.1,135.9
		c-0.7-0.5-1.3-1.2-1.7-2c-1.1-1.8-2-4.4-4.5-4.5c-1.4,0-2.9,0.6-4.3-0.2c-1.1-0.7-1.4-2.6-2-3.6c-0.5-1.2-1.4-2.3-2.6-3
		c-1.6-0.8-3.3-1.4-5.1-1.7c-1.2-0.3-2.3-0.8-3.3-1.5c-1-1-1.6-2.2-1.7-3.6c5.2-0.2,10.4,0.9,15,3.3c6.8,3.7,11.4,10.5,12.4,18.1
		C186.7,136.7,185.9,136.3,185.1,135.9L185.1,135.9z M146.3,134.2c1.8,0.9,3.6,2.1,4.3,4.1c0.5,1.3,0.6,2.7,1.1,4
		c0.7,1.7,2.2,2.8,4.1,2.9c3.5,0.4,6.9-0.7,8,3.8c0.5,1.8,0.7,3.9,2.3,5c2.5,1.7,6.6-0.3,7.7,3.4c0.6,2,0.7,4.4,3.2,4.9
		c-3.7,2.8-7.9,4.8-12.5,5.6c-0.4-1.1-1.3-1.9-2.3-2.3c-2.3-1.1-3.7-1.9-4.8-4.4c-1.3-3-2.3-5.4-6-5.4c-1.6,0-3.2,0-4.3-1.4
		c-0.6-1-1.1-2-1.4-3.1c-0.4-1.6-1.1-3.1-2.2-4.5c-2.8-3.1-12.8-5.1-10-11c0.1-0.3,0-0.6-0.2-0.7h-0.2c1-3.6,2.8-6.9,5.3-9.7
		C136.8,129.8,143.1,132.6,146.3,134.2L146.3,134.2z M132.3,138.7c0.6,2.2,2.7,4.1,4.8,5.2c2.3,1.2,5,2.2,6.4,4.6
		c1.1,1.9,1.3,4.2,2.4,6c0.7,1.2,1.8,2.1,3.2,2.4c1.5,0.3,3.3-0.3,4.6,0.5c1,0.8,1.8,1.9,2.1,3.1c0.6,1.5,1.2,3.2,2.5,4.3
		s4.3,1.5,5,3.3c-0.7,0.1-1.4,0.2-2.1,0.2c-11.3,0.9-22-5.3-26.9-15.5C132.4,148.4,131.6,143.5,132.3,138.7L132.3,138.7z"/>
	<path class="st7" d="M183,183.8c-0.3,0-0.5,0.2-0.5,0.5c0,0.2,0.1,0.3,0.3,0.4c1.7,0.9,3.4,2,5,3.1c-0.9,1.8-1.9,3.6-3,5.3
		c-0.1,0.1-0.1,0.3,0,0.4l-0.2,0.1c-0.2,0.1-0.3,0.5-0.2,0.7c0.1,0.2,0.4,0.3,0.7,0.2l6.6-3.9c1.7,1.4,3.2,2.8,4.8,4.3
		c0.2,0.2,0.5,0.2,0.7,0c0.1-0.1,0.1-0.3,0.1-0.4c-0.7-2-1.3-4-1.8-6l1.6-1c0.2-0.1,0.3-0.4,0.2-0.7c0-0.1-0.1-0.1-0.2-0.2
		c-0.8-0.4-1.6-0.7-2.4-1c-0.7-2.8-1.4-5.6-2-8.5c0-0.3-0.2-0.5-0.5-0.5c-0.3,0-0.5,0.2-0.5,0.5c-0.6,2.4-1.3,4.8-2.3,7.1
		C187.3,183.9,185.1,183.7,183,183.8z M186.2,192.7c0.9-1.4,1.7-2.9,2.4-4.3c0.7,0.5,1.5,1.1,2.2,1.6L186.2,192.7L186.2,192.7z
		 M195.6,192.9c-1-1-2-1.9-3.1-2.8l1.9-1.1C194.8,190.3,195.2,191.6,195.6,192.9L195.6,192.9z M192,179.4c0.4,2,0.9,3.9,1.4,5.8
		c-1-0.3-2.1-0.6-3.1-0.8C191,182.8,191.5,181.1,192,179.4z M189.9,185.4c1.3,0.3,2.5,0.6,3.8,1c0.1,0.5,0.3,1.1,0.4,1.6l-2.5,1.5
		c-0.9-0.7-1.8-1.4-2.6-2C189.4,186.8,189.7,186,189.9,185.4L189.9,185.4z M188.9,185.2c-0.2,0.6-0.5,1.1-0.8,1.7
		c-1.1-0.7-2.2-1.4-3.3-2.1C186.3,184.8,187.6,184.9,188.9,185.2L188.9,185.2z"/>
</g>
</svg>
