<svg id="Layer_1" data-name="Layer 1" xmlns="http://www.w3.org/2000/svg" xmlns:xlink="http://www.w3.org/1999/xlink" viewBox="0 0 1194 834"><defs><style>.cls-1{fill:#fff;}.cls-1,.cls-10,.cls-8,.cls-9{fill-rule:evenodd;}.cls-2{fill:url(#radial-gradient);}.cls-11,.cls-3{fill:none;stroke-linecap:round;stroke-linejoin:round;stroke-width:1.1px;}.cls-3{stroke:#fff;}.cls-4{mask:url(#mask);}.cls-5{mask:url(#mask-2);}.cls-6{mask:url(#mask-3);}.cls-7{opacity:0.5;}.cls-8{fill:#dbe7f0;}.cls-9{fill:#27363a;}.cls-10{fill:#4d595d;}.cls-11{stroke:#dbe7f0;}</style><radialGradient id="radial-gradient" cx="-361.55" cy="792.43" r="1.14" gradientTransform="matrix(0, 834, 834.01, 0, -660300.11, 301532)" gradientUnits="userSpaceOnUse"><stop offset="0" stop-color="#6831e4"/><stop offset="1" stop-color="#0a0717"/></radialGradient><mask id="mask" x="1086.19" y="277.94" width="3.94" height="3.94" maskUnits="userSpaceOnUse"><g id="b"><path id="a" class="cls-1" d="M1090.13,278v3.93h-3.94v-3.94h3.94Z"/></g></mask><mask id="mask-2" x="1098.83" y="409.99" width="6.96" height="6.96" maskUnits="userSpaceOnUse"><g id="d"><path id="c" class="cls-1" d="M1098.83,410h7v6.95h-7Z"/></g></mask><mask id="mask-3" x="1091.09" y="660.32" width="3.94" height="3.94" maskUnits="userSpaceOnUse"><g id="f"><path id="e" class="cls-1" d="M1095,664.25v-3.93h-3.94v3.93Z"/></g></mask></defs><path class="cls-2" d="M0,0H1194V834H0Z"/><path class="cls-1" d="M482.35,38.58l1.93,1.06a.28.28,0,0,1,.11.37.29.29,0,0,1-.11.11l-1.93,1.05a.38.38,0,0,0-.11.11l-1.05,1.93a.28.28,0,0,1-.38.11.29.29,0,0,1-.11-.11l-1.05-1.93a.57.57,0,0,0-.11-.11l-1.93-1.05a.29.29,0,0,1-.11-.38.27.27,0,0,1,.11-.1l1.93-1.06a.38.38,0,0,0,.11-.11l1.05-1.93a.29.29,0,0,1,.38-.11.57.57,0,0,1,.11.11l1.05,1.93a.29.29,0,0,0,.11.11"/><path class="cls-1" d="M147.11,90.8l.95.52a.29.29,0,0,1,.11.38.38.38,0,0,1-.11.11l-.95.52a.2.2,0,0,0-.11.11l-.52,1a.28.28,0,0,1-.49,0l-.52-1a.2.2,0,0,0-.11-.11l-1-.52a.29.29,0,0,1-.11-.38.38.38,0,0,1,.11-.11l1-.52a.2.2,0,0,0,.11-.11l.52-1a.29.29,0,0,1,.38-.11l.11.11.52,1a.2.2,0,0,0,.11.11"/><path class="cls-3" d="M266.4,49.7l-1,1m3.82-3.83-1,1m-1.72,1.88a1.29,1.29,0,1,0,0-1.83,1.29,1.29,0,0,0,0,1.83Z"/><path class="cls-1" d="M653.15,70.78l1.93,1.06a.28.28,0,0,1,.11.37.29.29,0,0,1-.11.11l-1.93,1.05a.32.32,0,0,0-.11.12l-1,1.92a.27.27,0,0,1-.38.11.29.29,0,0,1-.11-.11l-1-1.93-.11-.11-1.93-1.05a.28.28,0,0,1-.11-.37.23.23,0,0,1,.11-.11l1.93-1.06a.29.29,0,0,0,.11-.11l1-1.93a.29.29,0,0,1,.38-.11.57.57,0,0,1,.11.11l1,1.93a.23.23,0,0,0,.11.11"/><path class="cls-1" d="M781.25,98.08l1.93,1.06a.28.28,0,0,1,.11.37.38.38,0,0,1-.11.11l-1.93,1a.38.38,0,0,0-.11.11l-1,1.93a.27.27,0,0,1-.38.11.29.29,0,0,1-.11-.11l-1.05-1.93a.57.57,0,0,0-.11-.11l-1.93-1a.28.28,0,0,1-.11-.37.2.2,0,0,1,.11-.11l1.93-1.06a.29.29,0,0,0,.11-.11L779.6,96a.29.29,0,0,1,.38-.11l.11.11,1,1.93a.23.23,0,0,0,.11.11"/><path class="cls-1" d="M737.91,44.6l1,.52a.29.29,0,0,1,.11.38.38.38,0,0,1-.11.11l-1,.52a.2.2,0,0,0-.11.11l-.52.95a.28.28,0,0,1-.49,0l-.52-.95a.2.2,0,0,0-.11-.11l-.95-.52a.29.29,0,0,1-.11-.38.38.38,0,0,1,.11-.11l.95-.52a.2.2,0,0,0,.11-.11l.52-1a.29.29,0,0,1,.38-.11.57.57,0,0,1,.11.11l.52,1a.2.2,0,0,0,.11.11"/><path class="cls-1" d="M824.53,151.83a2,2,0,1,1-2-2,2,2,0,0,1,2,2M60.25,197.48l1.93,1.05a.28.28,0,0,1,0,.49l-1.93,1a.38.38,0,0,0-.11.11l-1,1.93a.28.28,0,0,1-.49,0l-1.05-1.93a.57.57,0,0,0-.11-.11l-1.93-1a.29.29,0,0,1-.11-.38.29.29,0,0,1,.11-.11l1.93-1.05a.38.38,0,0,0,.11-.11l1.05-1.93a.29.29,0,0,1,.38-.11l.11.11,1,1.93a.23.23,0,0,0,.11.11"/><path class="cls-1" d="M124,291l.95.52a.29.29,0,0,1,.11.38.38.38,0,0,1-.11.11l-.95.52a.2.2,0,0,0-.11.11l-.52.95a.28.28,0,0,1-.49,0l-.52-.95a.2.2,0,0,0-.11-.11l-1-.52a.29.29,0,0,1-.11-.38.38.38,0,0,1,.11-.11l1-.52a.2.2,0,0,0,.11-.11l.52-.95a.29.29,0,0,1,.38-.11l.11.11.52.95a.2.2,0,0,0,.11.11"/><path class="cls-1" d="M1143.15,343.08l1.93,1.06a.28.28,0,0,1,.11.37.38.38,0,0,1-.11.11l-1.93,1.05a.38.38,0,0,0-.11.11l-1,1.93a.27.27,0,0,1-.38.11.29.29,0,0,1-.11-.11l-1-1.93a.57.57,0,0,0-.11-.11l-1.93-1.05a.29.29,0,0,1-.11-.38.29.29,0,0,1,.11-.11l1.93-1.05a.38.38,0,0,0,.11-.11l1-1.93a.29.29,0,0,1,.38-.11.38.38,0,0,1,.11.11l1,1.93a.29.29,0,0,0,.11.11M943.58,44.55l.91.5a.26.26,0,0,1,0,.46l-.91.5a.35.35,0,0,0-.11.1L943,47a.25.25,0,0,1-.46,0l-.5-.91a.27.27,0,0,0-.11-.1l-.91-.5a.26.26,0,0,1-.1-.36.24.24,0,0,1,.1-.1l.91-.5a.27.27,0,0,0,.11-.1l.49-.91a.27.27,0,0,1,.36-.11.23.23,0,0,1,.11.11l.49.91a.35.35,0,0,0,.11.1"/><path class="cls-1" d="M1123.61,242l1,.52a.29.29,0,0,1,.11.38.38.38,0,0,1-.11.11l-1,.52a.2.2,0,0,0-.11.11l-.52,1a.28.28,0,0,1-.49,0l-.52-1a.2.2,0,0,0-.11-.11l-.95-.52a.29.29,0,0,1-.11-.38.38.38,0,0,1,.11-.11l.95-.52a.2.2,0,0,0,.11-.11l.52-.95a.29.29,0,0,1,.38-.11.57.57,0,0,1,.11.11l.52.95a.2.2,0,0,0,.11.11"/><path class="cls-3" d="M267.47,244.22l2.48-.62-.62,2.49Z"/><path class="cls-1" d="M345.32,326.21l1.42.77-1.42.78-.77,1.41-.77-1.41-1.41-.78,1.41-.77.77-1.41Z"/><path class="cls-1" d="M351.45,2.18l1.93,1.06a.28.28,0,0,1,.11.37.29.29,0,0,1-.11.11l-1.93,1a.38.38,0,0,0-.11.11l-1,1.93a.27.27,0,0,1-.38.11.29.29,0,0,1-.11-.11l-1.05-1.93a.57.57,0,0,0-.11-.11l-1.93-1a.28.28,0,0,1-.11-.37.2.2,0,0,1,.11-.11l1.93-1.06a.38.38,0,0,0,.11-.11L349.8.14a.29.29,0,0,1,.38-.11.57.57,0,0,1,.11.11l1,1.93a.23.23,0,0,0,.11.11"/><path class="cls-3" d="M437.47,115.68l-.6-1.12a.25.25,0,0,0-.12-.13l-1.12-.59a.3.3,0,0,1-.13-.41.27.27,0,0,1,.13-.13l1.12-.59a.3.3,0,0,0,.12-.13l.6-1.12a.31.31,0,0,1,.41-.13.4.4,0,0,1,.13.13l.59,1.12a.3.3,0,0,0,.12.13l1.12.59a.3.3,0,0,1,0,.54l-1.12.59a.3.3,0,0,0-.12.13l-.59,1.12a.31.31,0,0,1-.42.12.28.28,0,0,1-.12-.12Z"/><path class="cls-1" d="M395.55,86.88l1.93,1.06a.28.28,0,0,1,.11.37.29.29,0,0,1-.11.11l-1.93,1a.32.32,0,0,0-.11.12l-1.05,1.92a.27.27,0,0,1-.38.11.29.29,0,0,1-.11-.11l-1-1.93-.11-.11-1.93-1a.28.28,0,0,1-.11-.37.23.23,0,0,1,.11-.11l1.93-1.06a.29.29,0,0,0,.11-.11l1-1.93a.29.29,0,0,1,.38-.11.57.57,0,0,1,.11.11l1.05,1.93a.23.23,0,0,0,.11.11"/><path class="cls-1" d="M104.35,63.08l1.93,1.06a.28.28,0,0,1,.11.37.29.29,0,0,1-.11.11l-1.93,1a.38.38,0,0,0-.11.11l-1,1.93a.28.28,0,0,1-.38.11.29.29,0,0,1-.11-.11l-1-1.93a.57.57,0,0,0-.11-.11l-1.93-1a.28.28,0,0,1-.11-.37.23.23,0,0,1,.11-.11l1.93-1.06a.38.38,0,0,0,.11-.11l1-1.93a.29.29,0,0,1,.38-.11.57.57,0,0,1,.11.11l1,1.93a.23.23,0,0,0,.11.11"/><path class="cls-1" d="M189.63,13.93a2,2,0,1,1-2-2,2,2,0,0,1,2,2"/><path class="cls-3" d="M15.37,117.78l-.6-1.12a.25.25,0,0,0-.12-.13l-1.12-.59a.3.3,0,0,1-.13-.41.27.27,0,0,1,.13-.13l1.12-.59a.3.3,0,0,0,.12-.13l.6-1.12a.31.31,0,0,1,.41-.13.4.4,0,0,1,.13.13l.59,1.12a.3.3,0,0,0,.12.13l1.12.59a.3.3,0,0,1,0,.54l-1.12.59a.3.3,0,0,0-.12.13l-.59,1.12a.31.31,0,0,1-.42.12.28.28,0,0,1-.12-.12Z"/><path class="cls-1" d="M1163.45,156.88l1.93,1.05a.29.29,0,0,1,.11.38.38.38,0,0,1-.11.11l-1.93,1.05a.38.38,0,0,0-.11.11l-1,1.93a.27.27,0,0,1-.38.11.29.29,0,0,1-.11-.11l-1-1.93a.57.57,0,0,0-.11-.11l-1.93-1.05a.29.29,0,0,1-.11-.38.29.29,0,0,1,.11-.11l1.93-1.05a.38.38,0,0,0,.11-.11l1-1.93a.29.29,0,0,1,.38-.11l.11.11,1,1.93a.23.23,0,0,0,.11.11"/><path class="cls-1" d="M1125.71,130.7l1,.52a.29.29,0,0,1,.11.38.38.38,0,0,1-.11.11l-1,.52a.2.2,0,0,0-.11.11l-.52.95a.29.29,0,0,1-.38.11.38.38,0,0,1-.11-.11l-.52-.95a.2.2,0,0,0-.11-.11l-1-.52a.29.29,0,0,1-.11-.38.27.27,0,0,1,.11-.1l1-.52a.29.29,0,0,0,.11-.11l.52-1a.29.29,0,0,1,.38-.11l.11.11.52,1a.29.29,0,0,0,.11.11"/><path class="cls-1" d="M1108.08,8.15l.91.5a.26.26,0,0,1,0,.46l-.91.5a.35.35,0,0,0-.11.1l-.49.91a.25.25,0,0,1-.46,0l-.5-.91a.27.27,0,0,0-.11-.1l-.91-.5a.26.26,0,0,1-.1-.36.24.24,0,0,1,.1-.1l.91-.5a.23.23,0,0,0,.11-.11l.49-.9a.27.27,0,0,1,.36-.11.23.23,0,0,1,.11.11l.49.9a.29.29,0,0,0,.11.11"/><path class="cls-1" d="M1143.91,55.8l.95.52a.29.29,0,0,1,.11.38.38.38,0,0,1-.11.11l-.95.52a.2.2,0,0,0-.11.11l-.52,1a.28.28,0,0,1-.49,0l-.52-1a.2.2,0,0,0-.11-.11l-1-.52a.29.29,0,0,1-.11-.38.38.38,0,0,1,.11-.11l1-.52a.2.2,0,0,0,.11-.11l.52-.95a.29.29,0,0,1,.38-.11.57.57,0,0,1,.11.11l.52.95a.2.2,0,0,0,.11.11"/><g class="cls-4"><path class="cls-1" d="M1089,279.15l1,.52a.28.28,0,0,1,.12.38.43.43,0,0,1-.12.11l-1,.52a.29.29,0,0,0-.11.11l-.52.95a.28.28,0,0,1-.37.11.29.29,0,0,1-.11-.11l-.52-.95a.29.29,0,0,0-.11-.11l-1-.52a.27.27,0,0,1-.11-.38.23.23,0,0,1,.11-.11l1-.52a.23.23,0,0,0,.11-.11l.52-1a.28.28,0,0,1,.37-.11.2.2,0,0,1,.11.11l.52,1a.38.38,0,0,0,.11.11"/></g><path class="cls-1" d="M949.25,312.28l1.93,1.06a.28.28,0,0,1,.11.37.38.38,0,0,1-.11.11l-1.93,1.05a.38.38,0,0,0-.11.11l-1,1.93a.27.27,0,0,1-.38.11.29.29,0,0,1-.11-.11L946.55,315a.57.57,0,0,0-.11-.11l-1.93-1.05a.28.28,0,0,1-.11-.37.23.23,0,0,1,.11-.11l1.93-1.06a.29.29,0,0,0,.11-.11l1.05-1.93a.29.29,0,0,1,.38-.11.35.35,0,0,1,.1.11l1.06,1.93a.29.29,0,0,0,.11.11"/><path class="cls-1" d="M871.48,211.15l.91.5a.26.26,0,0,1,0,.46l-.91.5a.35.35,0,0,0-.11.1l-.49.91a.25.25,0,0,1-.46,0l-.5-.91a.27.27,0,0,0-.11-.1l-.91-.5a.26.26,0,0,1-.1-.36.24.24,0,0,1,.1-.1l.91-.5a.27.27,0,0,0,.11-.1l.49-.91a.27.27,0,0,1,.36-.11.23.23,0,0,1,.11.11l.49.91a.35.35,0,0,0,.11.1"/><path class="cls-1" d="M1025.61,258.8l1,.52a.29.29,0,0,1,.11.38.38.38,0,0,1-.11.11l-1,.52a.2.2,0,0,0-.11.11l-.52.95a.28.28,0,0,1-.49,0l-.52-.95a.2.2,0,0,0-.11-.11l-1-.52a.29.29,0,0,1-.11-.38.38.38,0,0,1,.11-.11l1-.52a.2.2,0,0,0,.11-.11l.52-.95a.29.29,0,0,1,.38-.11.57.57,0,0,1,.11.11l.52.95a.2.2,0,0,0,.11.11"/><path class="cls-3" d="M1178.17,289.47l1.23-.38,1.23.38-.38-1.24.38-1.23-1.23.38-1.23-.38.38,1.23Z"/><g class="cls-5"><path class="cls-1" d="M1103.72,412.17l1.93,1.05a.29.29,0,0,1,.11.38l-.11.11-1.93,1.05a.29.29,0,0,0-.11.11l-1,1.93a.29.29,0,0,1-.38.11.38.38,0,0,1-.11-.11l-1-1.93a.38.38,0,0,0-.11-.11l-1.93-1.05a.28.28,0,0,1-.11-.38.29.29,0,0,1,.11-.11l1.93-1.05.11-.11,1-1.93a.29.29,0,0,1,.38-.11.27.27,0,0,1,.1.11l1.06,1.93a.29.29,0,0,0,.11.11"/></g><path class="cls-3" d="M29.1,333.2l-1,1m3.82-3.83-1,1m-1.72,1.88a1.29,1.29,0,1,0,0-1.83A1.29,1.29,0,0,0,29.15,333.31Z"/><path class="cls-1" d="M147.11,814.73l.95-.52a.29.29,0,0,0,.11-.38.57.57,0,0,0-.11-.11l-.95-.52a.2.2,0,0,1-.11-.11l-.52-1a.29.29,0,0,0-.38-.11l-.11.11-.52,1a.2.2,0,0,1-.11.11l-1,.52a.28.28,0,0,0,0,.49l1,.52a.23.23,0,0,1,.11.11l.52.95a.28.28,0,0,0,.49,0l.52-.95a.23.23,0,0,1,.11-.11"/><path class="cls-1" d="M824.53,767.13a2,2,0,0,0-4.07,0h0a2,2,0,0,0,2,2,2,2,0,0,0,2-2m-764.28-68,1.93-1a.28.28,0,0,0,.11-.37.23.23,0,0,0-.11-.11l-1.93-1.06a.29.29,0,0,1-.11-.11l-1-1.93a.29.29,0,0,0-.38-.11l-.11.11-1.05,1.93a.29.29,0,0,1-.11.11l-1.93,1.06a.28.28,0,0,0-.11.37.29.29,0,0,0,.11.11l1.93,1,.11.11,1.05,1.93a.28.28,0,0,0,.49,0l1-1.93a.38.38,0,0,1,.11-.11"/><path class="cls-1" d="M124,529.83l.95-.52a.29.29,0,0,0,.11-.38l-.11-.11-.95-.52a.2.2,0,0,1-.11-.11l-.52-1a.29.29,0,0,0-.38-.11l-.11.11-.52,1a.2.2,0,0,1-.11.11l-1,.52a.28.28,0,0,0,0,.49l1,.52a.23.23,0,0,1,.11.11l.52.95a.28.28,0,0,0,.49,0l.52-.95a.23.23,0,0,1,.11-.11"/><path class="cls-1" d="M999,717.37l1.93-1a.29.29,0,0,0,.11-.38.38.38,0,0,0-.11-.11L999,714.78a.29.29,0,0,1-.11-.11l-1.05-1.93a.29.29,0,0,0-.38-.11.38.38,0,0,0-.11.11l-1,1.93a.29.29,0,0,1-.11.11l-1.93,1.05a.29.29,0,0,0-.11.38.23.23,0,0,0,.11.11l1.93,1,.11.11,1,1.93a.28.28,0,0,0,.49,0l1.05-1.93a.38.38,0,0,1,.11-.11"/><path class="cls-1" d="M961.21,734.23l.95-.52a.29.29,0,0,0,.11-.38.57.57,0,0,0-.11-.11l-.95-.52a.2.2,0,0,1-.11-.11l-.52-1a.29.29,0,0,0-.38-.11.57.57,0,0,0-.11.11l-.52,1a.2.2,0,0,1-.11.11l-1,.53a.28.28,0,0,0-.11.37.29.29,0,0,0,.11.11l1,.52a.23.23,0,0,1,.11.11l.52.95a.28.28,0,0,0,.49,0l.52-.95a.23.23,0,0,1,.11-.11"/><path class="cls-3" d="M267.47,600.36,270,601l-.62-2.49Z"/><path class="cls-1" d="M345.32,495.76l1.42-.78-1.42-.77-.77-1.41-.77,1.41-1.41.77,1.41.78.77,1.41Z"/><path class="cls-1" d="M104.35,832.17l1.93-1a.28.28,0,0,0,.11-.37.23.23,0,0,0-.11-.11l-1.93-1.06a.23.23,0,0,1-.11-.11l-1-1.93a.29.29,0,0,0-.38-.11l-.11.11-1,1.93a.29.29,0,0,1-.11.11l-1.93,1.06a.28.28,0,0,0-.11.37.29.29,0,0,0,.11.11l1.93,1.06a.29.29,0,0,1,.11.11l1,1.92a.28.28,0,0,0,.49,0l1-1.93a.38.38,0,0,1,.11-.11"/><path class="cls-3" d="M15.37,796.06l-.6,1.12a.3.3,0,0,1-.12.13l-1.12.59a.3.3,0,0,0-.13.41.27.27,0,0,0,.13.13l1.12.59a.25.25,0,0,1,.12.13l.6,1.12a.31.31,0,0,0,.54,0l.59-1.12a.3.3,0,0,1,.12-.13l1.12-.59a.3.3,0,0,0,.13-.41.27.27,0,0,0-.13-.13l-1.12-.59a.3.3,0,0,1-.12-.13l-.59-1.12a.32.32,0,0,0-.42-.13.37.37,0,0,0-.12.13Z"/><path class="cls-1" d="M1163.45,751.67l1.93-1a.29.29,0,0,0,.11-.38.38.38,0,0,0-.11-.11l-1.93-1a.29.29,0,0,1-.11-.11l-1-1.93a.29.29,0,0,0-.38-.11.38.38,0,0,0-.11.11l-1,1.93a.29.29,0,0,1-.11.11l-1.93,1a.29.29,0,0,0-.11.38.23.23,0,0,0,.11.11l1.93,1,.11.11,1,1.93a.28.28,0,0,0,.49,0l1-1.93a.38.38,0,0,1,.11-.11"/><path class="cls-1" d="M1125.71,783.23l1-.52a.29.29,0,0,0,.11-.38.57.57,0,0,0-.11-.11l-1-.52a.2.2,0,0,1-.11-.11l-.52-1a.29.29,0,0,0-.38-.11l-.11.11-.52,1a.2.2,0,0,1-.11.11l-1,.53a.28.28,0,0,0-.11.37.29.29,0,0,0,.11.11l1,.52a.23.23,0,0,1,.11.11l.52.95a.28.28,0,0,0,.49,0l.52-.95a.23.23,0,0,1,.11-.11"/><g class="cls-6"><path class="cls-1" d="M1093.93,663.05l1-.52a.29.29,0,0,0,.12-.38.32.32,0,0,0-.12-.11l-1-.52a.29.29,0,0,1-.11-.11l-.52-.95a.28.28,0,0,0-.37-.11.2.2,0,0,0-.11.11l-.52.95a.29.29,0,0,1-.11.11l-1,.52a.27.27,0,0,0-.11.38.29.29,0,0,0,.11.11l1,.52a.23.23,0,0,1,.11.11l.52,1a.28.28,0,0,0,.37.11.29.29,0,0,0,.11-.11l.52-1a.29.29,0,0,1,.11-.11"/></g><path class="cls-3" d="M794.57,614.6l1.94-2M789,620.2l1.94-2m2-5.12c0-.7-3.84,3.14-3.14,3.14-.7,0,3.14,3.84,3.14,3.14,0,.7,3.84-3.14,3.14-3.14.7,0-3.14-3.84-3.14-3.14Z"/><path class="cls-1" d="M949.25,513.67l1.93-1a.29.29,0,0,0,.11-.38.38.38,0,0,0-.11-.11l-1.93-1.05a.23.23,0,0,1-.11-.11l-1-1.93a.29.29,0,0,0-.38-.11.57.57,0,0,0-.11.11L946.55,511a.29.29,0,0,1-.11.11l-1.93,1.06a.28.28,0,0,0-.11.37.29.29,0,0,0,.11.11l1.93,1,.11.11,1.05,1.93a.27.27,0,0,0,.48,0l1.06-1.93.11-.11"/><path class="cls-1" d="M871.48,648l.91-.5a.26.26,0,0,0,.1-.36.24.24,0,0,0-.1-.1l-.91-.5a.29.29,0,0,1-.11-.11l-.49-.91a.27.27,0,0,0-.36-.1.32.32,0,0,0-.1.1l-.5.91a.23.23,0,0,1-.11.11l-.91.5a.26.26,0,0,0-.1.36.24.24,0,0,0,.1.1l.91.5a.27.27,0,0,1,.11.1l.49.91a.27.27,0,0,0,.36.11.29.29,0,0,0,.11-.11l.49-.91a.35.35,0,0,1,.11-.1"/><path class="cls-1" d="M1025.61,585.83l1-.52a.29.29,0,0,0,.11-.38.57.57,0,0,0-.11-.11l-1-.52a.2.2,0,0,1-.11-.11l-.52-1a.29.29,0,0,0-.38-.11l-.11.11-.52,1a.2.2,0,0,1-.11.11l-1,.52a.28.28,0,0,0,0,.49l1,.52a.23.23,0,0,1,.11.11l.52.95a.28.28,0,0,0,.49,0l.52-.95a.23.23,0,0,1,.11-.11"/><path class="cls-3" d="M1178.17,542.5l1.23.38,1.23-.38-.38,1.23.38,1.24-1.23-.38-1.23.38.38-1.24Z"/><path class="cls-3" d="M29.1,478.8l-1-1m3.82,3.83-1-1m-1.72-1.89a1.3,1.3,0,1,1,0,1.84,1.3,1.3,0,0,1,0-1.84Z"/><g class="cls-7"><path class="cls-8" d="M241,284.05a7.12,7.12,0,0,1-6.18,12.38,4.61,4.61,0,0,0-1.05,3.44c.11.56-.26.51-.46.26a9.05,9.05,0,0,1-2-5.7A7.12,7.12,0,0,1,241,284.05"/><path class="cls-9" d="M239,288.66h-.85v-.41c0-.55-.49-2.11-1.26-2.11a.91.91,0,0,0-.66.32.72.72,0,0,0-.17.6,1.39,1.39,0,0,1-.27,1.38c-.42.45-.62.65-1,.65h-.85a.86.86,0,0,0-.84.84v1.68a.87.87,0,0,0,.84.84h.73l.6.36a.46.46,0,0,0,.22.06h2.66c.48,0,1.2-.21,1.27-.79l.41-2.5a.31.31,0,0,0,0-.09.82.82,0,0,0-.84-.83Zm0,3.37c0,.29-.53.42-.84.42h-2.66l-.7-.42V289.5c.57,0,.88-.31,1.31-.79a1.77,1.77,0,0,0,.37-1.73c0-.21.21-.42.42-.42s.84,1.14.84,1.68v.43c0,.29.14.41.42.41H239a.39.39,0,0,1,.42.42L239,292Z"/><path class="cls-10" d="M260.16,312.61a13.33,13.33,0,0,0-2.93-8.35c-1.48-1.55-3.1-.58-3.55,6.67-.54,8.71-5.12,2.89-8.77,7s-12.12-3.35-9.93,1a13.38,13.38,0,0,0,25.18-6.31"/><path class="cls-11" d="M246.78,299.23a13.38,13.38,0,1,1-13.38,13.38,13.38,13.38,0,0,1,13.38-13.38Z"/><path class="cls-11" d="M246.78,299.23a13.38,13.38,0,1,1-13.38,13.38,13.38,13.38,0,0,1,13.38-13.38Z"/><path class="cls-11" d="M234.45,307.4a22.7,22.7,0,0,0,8.23,2.2c5.3,0,6.51-3.26,12.78-3.38l3,0M241.59,325a14.63,14.63,0,0,1,6.76-7.88c4.57-2.32,7.84-.4,11.23-.57"/><path class="cls-11" d="M235.52,319.84a14.48,14.48,0,0,0,8.25-4c4.34-4.34,5.54-4.46,8.19-4.46,2.17,0,5.4,2.26,8.15,2.35m-18.74-13.39c2.79.43,6.15,1.3,8.3,3.08,1.68,1.39,4.57,1.29,7.45.68M238.6,302c1,.22,2,.47,2.59.66,2,.66,3.82.9,3.3,2.34-.66,1.82-3.69.79-5.72.14a14.66,14.66,0,0,1-2.31-1.06m-3,7c2.67.39,6.4,1.29,6.78,3.35.26,1.43-2.7,2.23-6.1,2.68m9.15,8.44c2.33-2.46,8-7.45,14.77-5.78h0"/></g><g class="cls-7"><path class="cls-10" d="M1052.24,185.8c-28.37-37-30.79,27.41-85.76,16.59A84.13,84.13,0,1,0,1083,83l-3.53,1.41c15.43,19-13.58,119.17-27.23,101.39"/><path class="cls-11" d="M948.45,149a83.21,83.21,0,0,1,1.89-16.53M980,215.84q-3.11-2.49-6-5.26m86.44,18.81A83.77,83.77,0,0,1,1039,234m72.87-111a82.27,82.27,0,0,1,2.68,9.63M1087.77,87a83.45,83.45,0,0,1,7.14,7.06m-76.52-26.65a83.68,83.68,0,0,1,16.12-1.17"/><path class="cls-9" d="M980.22,217.28a48.62,48.62,0,0,0,11.64,7.59,1.16,1.16,0,0,1,.47.41,39.84,39.84,0,0,0,3,3.43,1.13,1.13,0,0,0,.43.29l6.19,2.25a1.16,1.16,0,0,1,.47.32l4,4.52a1.14,1.14,0,0,0,1.05.36l4.24-.74a1,1,0,0,1,.45,0l3,.68a1.07,1.07,0,0,0,.47,0l3.47-.66a1.36,1.36,0,0,1,.45,0l6.66,1.39a1.13,1.13,0,0,0,.72-.09l3.51-1.62a1.16,1.16,0,0,1,.48-.11h5.56a1.09,1.09,0,0,0,.61-.18l3.5-2.18a.85.85,0,0,0-.48-1.57l-2.71.1a1.14,1.14,0,0,1-.54-.11l-6.62-3.15a1.18,1.18,0,0,0-.76-.08l-3.76.92a1.11,1.11,0,0,1-.78-.08l-10.72-5.31a1.35,1.35,0,0,0-.34-.11l-8.59-1.29a1.15,1.15,0,0,1-.51-.21l-7-5.2a1.08,1.08,0,0,0-.71-.23l-8.17.19-.26,0-7.45-1.53a1.14,1.14,0,0,0-1,2"/><path class="cls-11" d="M980.22,217.28a48.62,48.62,0,0,0,11.64,7.59,1.16,1.16,0,0,1,.47.41,39.84,39.84,0,0,0,3,3.43,1.13,1.13,0,0,0,.43.29l6.19,2.25a1.16,1.16,0,0,1,.47.32l4,4.52a1.14,1.14,0,0,0,1.05.36l4.24-.74a1,1,0,0,1,.45,0l3,.68a1.07,1.07,0,0,0,.47,0l3.47-.66a1.36,1.36,0,0,1,.45,0l6.66,1.39a1.13,1.13,0,0,0,.72-.09l3.51-1.62a1.16,1.16,0,0,1,.48-.11h5.56a1.09,1.09,0,0,0,.61-.18l3.5-2.18a.85.85,0,0,0-.48-1.57l-2.71.1a1.14,1.14,0,0,1-.54-.11l-6.62-3.15a1.18,1.18,0,0,0-.76-.08l-3.76.92a1.11,1.11,0,0,1-.78-.08l-10.72-5.31a1.35,1.35,0,0,0-.34-.11l-8.59-1.29a1.15,1.15,0,0,1-.51-.21l-7-5.2a1.08,1.08,0,0,0-.71-.23l-8.17.19-.26,0-7.45-1.53a1.14,1.14,0,0,0-1,2Z"/><path class="cls-9" d="M1096.79,94.26c5.94,6.72,13.81,18.32,16,27.44a1.15,1.15,0,0,1-.29,1.06c-2.6,2.73-15,14.18-16.32,15.4a.93.93,0,0,1-.26.18l-7.38,3.6a.84.84,0,0,1-.28.09l-3.86.78a1.08,1.08,0,0,0-.71.47l-4.58,6.53a1.13,1.13,0,0,1-1.49.34l-17.11-9.5a1.16,1.16,0,0,1-.58-.83l-2.17-14a1.17,1.17,0,0,1,.58-1.18l11.11-6.2a1.09,1.09,0,0,0,.55-.72l4.72-18.93a1.11,1.11,0,0,1,.89-.84l20.07-4a1.12,1.12,0,0,1,1.08.35"/><path class="cls-11" d="M1096.79,94.26c5.94,6.72,13.81,18.32,16,27.44a1.15,1.15,0,0,1-.29,1.06c-2.6,2.73-15,14.18-16.32,15.4a.93.93,0,0,1-.26.18l-7.38,3.6a.84.84,0,0,1-.28.09l-3.86.78a1.08,1.08,0,0,0-.71.47l-4.58,6.53a1.13,1.13,0,0,1-1.49.34l-17.11-9.5a1.16,1.16,0,0,1-.58-.83l-2.17-14a1.17,1.17,0,0,1,.58-1.18l11.11-6.2a1.09,1.09,0,0,0,.55-.72l4.72-18.93a1.11,1.11,0,0,1,.89-.84l20.07-4a1.12,1.12,0,0,1,1.08.35Z"/><path class="cls-9" d="M948.45,168.31a80.86,80.86,0,0,1-1.8-18.35,1.15,1.15,0,0,1,1.89-.85l5.53,4.64a1.11,1.11,0,0,0,.87.26l9-1a1.12,1.12,0,0,1,.73.17l11.12,7a1,1,0,0,0,.38.16l11.32,2.26a1.13,1.13,0,0,0,.77-.11l9.78-5.28a1.14,1.14,0,0,1,1.4.25l7.11,8a1.16,1.16,0,0,1,.29.69l1.31,19.47a1.14,1.14,0,0,1-.38.93l-9.39,8.5a1.29,1.29,0,0,0-.33.55l-2.71,9.7a1.15,1.15,0,0,1-.94.83l-11.83,1.72a1.82,1.82,0,0,1-.33,0l-5-.74a1.14,1.14,0,0,0-1.15.55L974.64,210a1.15,1.15,0,0,1-1.58.39,1,1,0,0,1-.18-.13,80.24,80.24,0,0,1-13.28-15.41h15.14c4.91,0-2.45-2.57-7.69-2.23l-2.13.13c-.18-1.71-2-4.58-6-4.63a11.55,11.55,0,0,0,.79-1.3c7.92-13.17-2.46-20-11.23-18.53Z"/><path class="cls-11" d="M959.6,194.87a80.24,80.24,0,0,0,13.28,15.41,1.15,1.15,0,0,0,1.63-.09,1.09,1.09,0,0,0,.13-.17l1.46-2.45a1.13,1.13,0,0,1,1.15-.55l5,.73a.91.91,0,0,0,.33,0L994.43,206a1.14,1.14,0,0,0,.94-.82l2.71-9.71a1.22,1.22,0,0,1,.33-.54l9.39-8.51a1.14,1.14,0,0,0,.38-.92l-1.31-19.47a1.16,1.16,0,0,0-.29-.69l-7.11-8a1.15,1.15,0,0,0-1.4-.25l-9.78,5.28a1.13,1.13,0,0,1-.77.11l-11.32-2.26a1.11,1.11,0,0,1-.39-.16l-11.11-7A1.25,1.25,0,0,0,964,153l-9,1a1.15,1.15,0,0,1-.87-.27l-5.53-4.64a1.15,1.15,0,0,0-1.89.85,80.89,80.89,0,0,0,1.8,18.36M1017.06,66.4c-28.21,4.87-59.15,26.48-67.62,64.88a1.15,1.15,0,0,0,1.37,1.37c.85-.18,1.82-.41,2.44-.57a1.15,1.15,0,0,1,1.12.35l6.31,7a1.15,1.15,0,0,0,1.09.35l16.42-3.49a1.22,1.22,0,0,0,.69-.46l10.27-14.3a1.15,1.15,0,0,0-.08-1.43l-5.27-5.88a1.14,1.14,0,0,1-.27-1l1.7-9.25a1.15,1.15,0,0,1,.65-.84l10-4.53a1.15,1.15,0,0,1,1.52.57,1.12,1.12,0,0,1,.1.4l.52,7.78a1.16,1.16,0,0,0,.36.76L1012,121a1.15,1.15,0,0,0,1.08.27l11.58-3a1,1,0,0,1,.35,0c1.5.07,12.19.56,12.35.18s1.19-11.17,1.37-13.08a1.11,1.11,0,0,1,.2-.53l6.66-9.58a1.16,1.16,0,0,0-.06-1.39l-11.29-13.5a1.21,1.21,0,0,0-.47-.34l-13.89-5.41a1.13,1.13,0,0,1-.72-.92c-.18-1.34-.57-4.39-.72-6.2a1.14,1.14,0,0,0-1.23-1.06Z"/><path class="cls-9" d="M1114,133.2l-3.4,7.76a1.16,1.16,0,0,1-.73.64l-8.52,2.53a1.17,1.17,0,0,0-.52.32l-7.65,8.29a1.14,1.14,0,0,0-.3.92l1.46,11.58a1.13,1.13,0,0,1-.28.9l-6.46,7.4a1.12,1.12,0,0,1-.89.39l-11.44-.3a1.17,1.17,0,0,0-1.18,1.09l-.75,13.46a1.07,1.07,0,0,1-.1.4l-5.32,12a1.14,1.14,0,0,0,0,.89l4.19,10.37a1.17,1.17,0,0,1-.06,1l-5.81,10.28a1,1,0,0,1-.21.26c-.59.56-3.3,3.16-5.24,5.16a1.15,1.15,0,0,0,1.11,1.91c18.31-4.39,63.83-35.89,54.31-96.93a1.15,1.15,0,0,0-2.19-.3"/><path class="cls-11" d="M1114,133.2l-3.4,7.76a1.16,1.16,0,0,1-.73.64l-8.52,2.53a1.17,1.17,0,0,0-.52.32l-7.65,8.29a1.14,1.14,0,0,0-.3.92l1.46,11.58a1.13,1.13,0,0,1-.28.9l-6.46,7.4a1.12,1.12,0,0,1-.89.39l-11.44-.3a1.17,1.17,0,0,0-1.18,1.09l-.75,13.46a1.07,1.07,0,0,1-.1.4l-5.32,12a1.14,1.14,0,0,0,0,.89l4.19,10.37a1.17,1.17,0,0,1-.06,1l-5.81,10.28a1,1,0,0,1-.21.26c-.59.56-3.3,3.16-5.24,5.16a1.15,1.15,0,0,0,1.11,1.91c18.31-4.39,63.83-35.89,54.31-96.93a1.15,1.15,0,0,0-2.19-.3ZM1035.56,65l10-.56a1.12,1.12,0,0,1,.77.23l1.53,1.19a1.13,1.13,0,0,0,1,.21l6.11-1.46a1.11,1.11,0,0,1,.87.15l2.55,1.61a1.19,1.19,0,0,0,.82.16l3.88-.68a1.13,1.13,0,0,1,.63.06l1.37.57a1.09,1.09,0,0,1,.58.54l1.29,2.55a1.12,1.12,0,0,0,.82.61l2.63.47a1.14,1.14,0,0,1,.69.42l2,2.48a.85.85,0,0,0,.26.24l4.48,3a1.07,1.07,0,0,1,.35.38,20.51,20.51,0,0,0,1.26,2c.2.18,6.93,5.68,8.79,7.21a.3.3,0,0,1-.12.53c-.62.15-1.55.36-2,.43a.89.89,0,0,1-.48-.08l-6.07-2.89a1,1,0,0,0-.24-.09l-6.67-1.54a1.13,1.13,0,0,0-.41,0l-6.69.89a1.13,1.13,0,0,1-.8-.19l-10.21-7a1.19,1.19,0,0,0-.36-.17l-11.86-3.07a1.19,1.19,0,0,1-.62-.41l-3.09-4a1.41,1.41,0,0,0-.43-.34l-2.94-1.33a1.14,1.14,0,0,1,.41-2.18Z"/><path class="cls-8" d="M925,81.06a14.59,14.59,0,0,1,15,24.06c1.16,2.65,2.76,4.73,4.91,5.52,1.09.4.6,1,0,1.07a18.32,18.32,0,0,1-12.12-2.57A14.59,14.59,0,0,1,925,81.06"/><path class="cls-9" d="M934.45,91.18a2.67,2.67,0,0,0-2-.92,2.62,2.62,0,0,0-2,.92l-.39.45a.46.46,0,0,1-.64.06l-.06-.06-.38-.45a2.56,2.56,0,0,0-2-.92,2.66,2.66,0,0,0-2,.93,2.89,2.89,0,0,0-.74,1.84,5.45,5.45,0,0,0,.62,2.45c.51,1,2,2.59,4.61,4.67a.45.45,0,0,0,.58,0c2.57-2.08,4.12-3.64,4.62-4.67a5.57,5.57,0,0,0,.61-2.45,3,3,0,0,0-.73-1.86Z"/><path class="cls-11" d="M1111.49,117.53h48.69c7.81,0,4.46-2.9-5.35-2l-1.46.1a6.8,6.8,0,0,0-6.49-1.82c-.45-3.2-5.75-7-10.75-3.71-.36-5-5.36-9.73-10.63-5.49,1.57-8-.55-16.91-12.84-15.85-7.56.65-11,4.56-12,9.27M967.05,192.64l-2.13.13c-.18-1.71-2-4.58-6-4.63a11.55,11.55,0,0,0,.79-1.3c11.6-19.3-16.09-25-20.42-10.86a28.92,28.92,0,0,0-1.29,8.51,10.65,10.65,0,0,0-5.84-1.45c-7,0-9.29,6.14-8.58,9.07a8.13,8.13,0,0,0-5.81-1.26c-6,.56-12,4-2.9,4h59.9c4.91,0-2.45-2.57-7.69-2.23Z"/></g></svg>