<?xml version="1.0" encoding="utf-8"?>
<!-- Generator: Adobe Illustrator 23.0.1, SVG Export Plug-In . SVG Version: 6.00 Build 0)  -->
<svg version="1.1" id="Layer_1" xmlns="http://www.w3.org/2000/svg" xmlns:xlink="http://www.w3.org/1999/xlink" x="0px" y="0px"
	 viewBox="0 0 16 19" width="16" height="19" style="enable-background:new 0 0 16 19;" xml:space="preserve">
<style type="text/css">
	.st0{fill:#888888;}
</style>
<g>
	<path class="st0" d="M16,18.6H0v-0.7c0-0.1,0-0.2,0.1-0.3c0.1-0.1,0.2-0.1,0.3-0.1h0.7V1.2c0-0.2,0.1-0.4,0.2-0.6S1.8,0.4,2,0.4h12
		c0.2,0,0.4,0.1,0.6,0.2s0.2,0.4,0.2,0.6v16.3h0.7c0.1,0,0.2,0,0.3,0.1c0.1,0.1,0.1,0.2,0.1,0.3V18.6z M13.7,1.5H2.3v16h4.6v-3
		c0-0.1,0-0.2,0.1-0.3C7.1,14.1,7.2,14,7.3,14h1.4c0.1,0,0.2,0,0.3,0.1c0.1,0.1,0.1,0.2,0.1,0.3v3h4.6V1.5z M6.9,5.6
		c0,0.1,0,0.2-0.1,0.3C6.6,6,6.5,6,6.4,6H5C4.9,6,4.8,6,4.7,5.9C4.6,5.8,4.6,5.7,4.6,5.6V4.2c0-0.1,0-0.2,0.1-0.3S4.9,3.7,5,3.7h1.4
		c0.1,0,0.2,0,0.3,0.1C6.8,4,6.9,4.1,6.9,4.2V5.6z M5,7.2c-0.1,0-0.2,0-0.3,0.1S4.6,7.5,4.6,7.6V9c0,0.1,0,0.2,0.1,0.3
		C4.8,9.4,4.9,9.5,5,9.5h1.4c0.1,0,0.2,0,0.3-0.1C6.8,9.3,6.9,9.2,6.9,9V7.6c0-0.1,0-0.2-0.1-0.3C6.6,7.2,6.5,7.2,6.4,7.2H5z
		 M5,10.6c-0.1,0-0.2,0-0.3,0.1c-0.1,0.1-0.1,0.2-0.1,0.3v1.4c0,0.1,0,0.2,0.1,0.3c0.1,0.1,0.2,0.1,0.3,0.1h1.4c0.1,0,0.2,0,0.3-0.1
		c0.1-0.1,0.1-0.2,0.1-0.3V11c0-0.1,0-0.2-0.1-0.3c-0.1-0.1-0.2-0.1-0.3-0.1H5z M9.6,3.7c-0.1,0-0.2,0-0.3,0.1
		C9.2,4,9.1,4.1,9.1,4.2v1.4c0,0.1,0,0.2,0.1,0.3C9.4,6,9.5,6,9.6,6H11c0.1,0,0.2,0,0.3-0.1c0.1-0.1,0.1-0.2,0.1-0.3V4.2
		c0-0.1,0-0.2-0.1-0.3c-0.1-0.1-0.2-0.1-0.3-0.1H9.6z M9.6,7.2c-0.1,0-0.2,0-0.3,0.1C9.2,7.4,9.1,7.5,9.1,7.6V9c0,0.1,0,0.2,0.1,0.3
		c0.1,0.1,0.2,0.1,0.3,0.1H11c0.1,0,0.2,0,0.3-0.1c0.1-0.1,0.1-0.2,0.1-0.3V7.6c0-0.1,0-0.2-0.1-0.3c-0.1-0.1-0.2-0.1-0.3-0.1H9.6z
		 M9.6,10.6c-0.1,0-0.2,0-0.3,0.1c-0.1,0.1-0.1,0.2-0.1,0.3v1.4c0,0.1,0,0.2,0.1,0.3c0.1,0.1,0.2,0.1,0.3,0.1H11
		c0.1,0,0.2,0,0.3-0.1c0.1-0.1,0.1-0.2,0.1-0.3V11c0-0.1,0-0.2-0.1-0.3c-0.1-0.1-0.2-0.1-0.3-0.1H9.6z"/>
</g>
</svg>
