<?xml version="1.0" encoding="utf-8"?>
<!-- Generator: Adobe Illustrator 23.0.1, SVG Export Plug-In . SVG Version: 6.00 Build 0)  -->
<svg version="1.1" id="Layer_1" xmlns="http://www.w3.org/2000/svg" xmlns:xlink="http://www.w3.org/1999/xlink" x="0px" y="0px"
	 viewBox="0 0 13 18" width="13" height="18" style="enable-background:new 0 0 13 18;" xml:space="preserve">
<style type="text/css">
	.st0{fill:#888888;}
</style>
<g>
	<path class="st0" d="M6.5,0.3c1.2,0,2.3,0.3,3.2,0.9s1.8,1.4,2.4,2.4c0.6,1,0.9,2.1,0.9,3.3c0,0.7-0.1,1.4-0.3,1.9
		c-0.2,0.6-0.5,1.2-1,2c-0.4,0.6-1.1,1.7-2.2,3.3l-2.3,3.2c-0.2,0.2-0.4,0.3-0.7,0.3S6,17.6,5.8,17.3l-2.3-3.2
		c-1.1-1.6-1.9-2.7-2.2-3.3c-0.5-0.8-0.9-1.5-1-2S0,7.6,0,6.8c0-1.2,0.3-2.3,0.9-3.3s1.4-1.8,2.4-2.4S5.3,0.3,6.5,0.3z M6.5,16.4
		l2.1-3c1.1-1.6,1.8-2.6,2.1-3.1c0.5-0.8,0.8-1.4,0.9-1.8c0.2-0.5,0.2-1,0.2-1.6c0-0.7-0.1-1.4-0.4-2.1c-0.3-0.7-0.7-1.2-1.2-1.8
		S9.2,2.1,8.6,1.8C7.9,1.6,7.2,1.4,6.5,1.4S5.1,1.6,4.4,1.8S3.2,2.5,2.7,3S1.8,4.1,1.5,4.8S1.1,6.1,1.1,6.8c0,0.6,0.1,1.1,0.2,1.6
		c0.2,0.5,0.5,1.1,0.9,1.8c0.3,0.5,1,1.5,2.1,3.1C5.3,14.6,6,15.6,6.5,16.4z M6.5,3.6c0.9,0,1.7,0.3,2.3,0.9
		c0.6,0.6,0.9,1.4,0.9,2.3S9.4,8.5,8.8,9.1c-0.6,0.6-1.4,0.9-2.3,0.9S4.8,9.8,4.2,9.1C3.6,8.5,3.2,7.7,3.2,6.8s0.3-1.7,0.9-2.3
		S5.6,3.6,6.5,3.6z M6.5,9C7.1,9,7.6,8.8,8,8.4c0.4-0.4,0.6-0.9,0.6-1.5S8.5,5.7,8,5.3C7.6,4.9,7.1,4.7,6.5,4.7S5.4,4.9,5,5.3
		C4.5,5.7,4.3,6.2,4.3,6.8S4.5,7.9,5,8.4C5.4,8.8,5.9,9,6.5,9z"/>
</g>
</svg>
