<?xml version="1.0" encoding="utf-8"?>
<!-- Generator: Adobe Illustrator 23.0.1, SVG Export Plug-In . SVG Version: 6.00 Build 0)  -->
<svg version="1.1" id="Layer_1" xmlns="http://www.w3.org/2000/svg" xmlns:xlink="http://www.w3.org/1999/xlink" x="0px" y="0px"
	 viewBox="0 0 22 16" width="22" height="16" style="enable-background:new 0 0 22 16;" xml:space="preserve">
<style type="text/css">
	.st0{fill:#888888;}
</style>
<g>
	<path class="st0" d="M5.4,8.4C5.1,8.7,4.8,8.9,4.5,9.2C4.4,9.1,4.2,9.1,4,9.1H2.6c-0.4,0-0.8,0.2-1.1,0.5s-0.4,0.7-0.4,1.2
		c0,0.2-0.1,0.3-0.2,0.4c-0.1,0.1-0.2,0.2-0.4,0.2s-0.3-0.1-0.4-0.2C0.1,11,0,10.9,0,10.8C0,10,0.3,9.3,0.8,8.8S1.9,8,2.6,8H4
		C4.5,8,5,8.1,5.4,8.4z M3.3,6.9c-0.8,0-1.4-0.3-1.9-0.8S0.6,4.9,0.6,4.2s0.3-1.4,0.8-1.9s1.2-0.8,1.9-0.8s1.4,0.3,1.9,0.8
		s0.8,1.2,0.8,1.9S5.8,5.6,5.2,6.1S4.1,6.9,3.3,6.9z M3.3,2.5C2.8,2.5,2.5,2.7,2.1,3S1.6,3.7,1.6,4.2c0,0.5,0.2,0.8,0.5,1.2
		s0.7,0.5,1.2,0.5s0.8-0.2,1.2-0.5s0.5-0.7,0.5-1.2c0-0.5-0.2-0.8-0.5-1.2S3.8,2.5,3.3,2.5z M13.8,8.7c0.6,0,1.2,0.1,1.8,0.4
		c0.6,0.3,1,0.7,1.4,1.2c0.5,0.7,0.7,1.4,0.7,2.2v1.5c0,0.5-0.2,0.8-0.5,1.2s-0.7,0.5-1.2,0.5H6.1c-0.5,0-0.8-0.2-1.2-0.5
		s-0.5-0.7-0.5-1.2v-1.5c0-0.8,0.2-1.5,0.7-2.2c0.3-0.5,0.8-0.9,1.4-1.2C7,8.8,7.6,8.7,8.2,8.7c0.4,0,0.8,0.1,1.3,0.2
		C10,9,10.5,9.1,11,9.1s1-0.1,1.5-0.2C13,8.8,13.4,8.7,13.8,8.7z M16.5,14.1v-1.5c0-0.6-0.2-1.1-0.5-1.6c-0.3-0.4-0.6-0.6-1-0.8
		c-0.4-0.2-0.8-0.3-1.3-0.3c-0.3,0-0.6,0.1-1,0.2c-0.6,0.2-1.2,0.2-1.7,0.2S9.9,10.1,9.3,10c-0.4-0.1-0.8-0.2-1-0.2
		c-0.5,0-0.9,0.1-1.3,0.3c-0.4,0.2-0.7,0.5-0.9,0.8c-0.3,0.5-0.5,1-0.5,1.6v1.5c0,0.2,0.1,0.3,0.2,0.4s0.2,0.2,0.4,0.2h9.9
		c0.2,0,0.3-0.1,0.4-0.2S16.5,14.2,16.5,14.1z M11,8c-0.7,0-1.3-0.2-1.9-0.5C8.5,7.1,8,6.7,7.7,6.1C7.3,5.5,7.2,4.8,7.2,4.2
		s0.2-1.3,0.5-1.9C8,1.6,8.5,1.2,9.1,0.8c0.6-0.3,1.2-0.5,1.9-0.5s1.3,0.2,1.9,0.5c0.6,0.3,1.1,0.8,1.4,1.4s0.5,1.2,0.5,1.9
		s-0.2,1.3-0.5,1.9s-0.8,1.1-1.4,1.4C12.3,7.8,11.7,8,11,8z M11,1.4c-0.8,0-1.4,0.3-1.9,0.8S8.2,3.4,8.2,4.2s0.3,1.4,0.8,1.9
		s1.2,0.8,1.9,0.8s1.4-0.3,1.9-0.8s0.8-1.2,0.8-1.9s-0.3-1.4-0.8-1.9S11.8,1.4,11,1.4z M18.7,6.9c-0.8,0-1.4-0.3-1.9-0.8
		s-0.8-1.2-0.8-1.9s0.3-1.4,0.8-1.9s1.2-0.8,1.9-0.8c0.8,0,1.4,0.3,1.9,0.8s0.8,1.2,0.8,1.9s-0.3,1.4-0.8,1.9S19.5,6.9,18.7,6.9z
		 M19.4,8c0.7,0,1.3,0.3,1.8,0.8S22,10,22,10.8c0,0.2-0.1,0.3-0.2,0.4c-0.1,0.1-0.2,0.2-0.4,0.2c-0.2,0-0.3-0.1-0.4-0.2
		c-0.1-0.1-0.2-0.2-0.2-0.4c0-0.5-0.1-0.8-0.4-1.2s-0.7-0.5-1.1-0.5H18c-0.2,0-0.4,0-0.6,0.1c-0.3-0.3-0.5-0.5-0.9-0.8
		C17,8.1,17.5,8,18,8H19.4z M18.7,2.5c-0.5,0-0.8,0.2-1.2,0.5S17,3.7,17,4.2c0,0.5,0.2,0.8,0.5,1.2s0.7,0.5,1.2,0.5
		c0.5,0,0.8-0.2,1.2-0.5s0.5-0.7,0.5-1.2c0-0.5-0.2-0.8-0.5-1.2S19.2,2.5,18.7,2.5z"/>
</g>
</svg>
