<svg id="Layer_1" data-name="Layer 1" xmlns="http://www.w3.org/2000/svg" viewBox="0 0 416.32 115.06"><defs><style>.cls-1{fill:#38f44e;}.cls-2{fill:#fff;}</style></defs><title>posvice1</title><path class="cls-1" d="M108,103.21a34.46,34.46,0,0,1,14-2.86,30.14,30.14,0,0,1,22.25,9.35,30.87,30.87,0,0,1,9.23,22.53A31.44,31.44,0,0,1,144.29,155a29.75,29.75,0,0,1-22.09,9.4,30.17,30.17,0,0,1-13.41-3,32.94,32.94,0,0,1-11.07-9v47.07H89.93V130.91a25.21,25.21,0,0,1,.58-5.55.94.94,0,0,1,0-.16c2.06-9,7.6-17,15.82-21.21C106.91,103.7,107.45,103.44,108,103.21ZM104.19,115a24.3,24.3,0,0,0-7,17.75,25.19,25.19,0,0,0,3.12,12.49,22.68,22.68,0,0,0,8.9,8.85,24.6,24.6,0,0,0,12.24,3.25,23.29,23.29,0,0,0,11.93-3.25,23.82,23.82,0,0,0,8.9-9.18,25,25,0,0,0,3.31-12.38,24.61,24.61,0,0,0-3.28-12.35,24,24,0,0,0-8.82-9,23.54,23.54,0,0,0-12.16-3.25A23.05,23.05,0,0,0,104.19,115Z" transform="translate(-89.93 -84.43)"/><path class="cls-1" d="M194.87,100.12a30.27,30.27,0,0,1,23.36,10.18,32,32,0,0,1,8.4,22.09,31.63,31.63,0,0,1-8.9,22.28q-8.89,9.54-22.86,9.54T172,154.67a32.75,32.75,0,0,1-.47-44.31A30.19,30.19,0,0,1,194.87,100.12Zm0,7.68A22.5,22.5,0,0,0,178.13,115a24.19,24.19,0,0,0-7,17.47,25.13,25.13,0,0,0,3.2,12.38,22.46,22.46,0,0,0,8.65,8.85,24.63,24.63,0,0,0,23.89,0,22.26,22.26,0,0,0,8.59-8.85,25.29,25.29,0,0,0,3.17-12.38,24.21,24.21,0,0,0-7-17.47A22.5,22.5,0,0,0,194.87,107.8Z" transform="translate(-89.93 -84.43)"/><path class="cls-2" d="M271.75,108.35l-5,5.23q-6.35-6.12-12.29-6.12a9.33,9.33,0,0,0-6.56,2.5,7.81,7.81,0,0,0-2.73,6,8.48,8.48,0,0,0,2.28,5.56q2.22,2.84,9.4,6.51,8.79,4.5,11.9,8.73a16.16,16.16,0,0,1,3.06,9.62A17.13,17.13,0,0,1,266.54,159a17.93,17.93,0,0,1-13.16,5.2,23.59,23.59,0,0,1-10.1-2.25,21.15,21.15,0,0,1-7.93-6.31l5-5.62q6,6.78,12.74,6.79a11.38,11.38,0,0,0,8-3,9.33,9.33,0,0,0,3.31-7.09,9.12,9.12,0,0,0-2.17-6q-2.18-2.61-9.85-6.56-8.3-4.17-11.24-8.4a15.64,15.64,0,0,1-3-9.46,15.36,15.36,0,0,1,4.76-11.54,16.5,16.5,0,0,1,11.93-4.59Q263.19,100.12,271.75,108.35Z" transform="translate(-89.93 -84.43)"/><path class="cls-2" d="M279.82,103.23h8.34l20.42,44.39,20.25-44.39h8.4l-27.93,61h-1.39Z" transform="translate(-89.93 -84.43)"/><path class="cls-2" d="M348,103.12h7.84v61H348Z" transform="translate(-89.93 -84.43)"/><path class="cls-2" d="M431.3,114.36l-6.23,3.89q-8.07-10.78-22-10.79-11.18,0-18.55,7.18a23.49,23.49,0,0,0-7.37,17.47,25,25,0,0,0,3.39,12.6,23.55,23.55,0,0,0,9.29,9.15,28.29,28.29,0,0,0,35.27-7.45l6.23,4.06a29.21,29.21,0,0,1-11.77,10.15,38,38,0,0,1-16.83,3.59q-14.42,0-23.95-9.18a29.81,29.81,0,0,1-9.54-22.31,32.2,32.2,0,0,1,16.72-28.34,35.63,35.63,0,0,1,17.44-4.26A37.21,37.21,0,0,1,415,102a32.69,32.69,0,0,1,9.6,4.81A25.63,25.63,0,0,1,431.3,114.36Z" transform="translate(-89.93 -84.43)"/><path class="cls-2" d="M497.67,142.45l6.56,3.5a34.15,34.15,0,0,1-7.45,10.29,30,30,0,0,1-9.62,5.92,33.83,33.83,0,0,1-12.07,2q-14.91,0-23.31-9.76a32.92,32.92,0,0,1-8.4-22.06,32.56,32.56,0,0,1,7.12-20.69q9-11.57,24.2-11.57,15.53,0,24.87,11.85,6.62,8.34,6.68,20.81h-54.8q.23,10.68,6.79,17.5a21.56,21.56,0,0,0,16.19,6.81,25.8,25.8,0,0,0,9.07-1.64,24.23,24.23,0,0,0,7.48-4.31A37,37,0,0,0,497.67,142.45Zm0-16.41a25.91,25.91,0,0,0-4.56-10,21.69,21.69,0,0,0-8-6.06,24.35,24.35,0,0,0-10.4-2.31,22.29,22.29,0,0,0-15.41,5.79q-4.68,4.23-7.07,12.63h45.4Z" transform="translate(-89.93 -84.43)"/><path class="cls-1" d="M122.2,114.54a2.91,2.91,0,0,0-2.39-.62,19.61,19.61,0,0,0-15.76,16.79,2.87,2.87,0,0,0,.71,2.29,3,3,0,0,0,2.24,1,3,3,0,0,0,2.91-2.57,13.73,13.73,0,0,1,11-11.73,2.94,2.94,0,0,0,2.37-2.88A3,3,0,0,0,122.2,114.54Z" transform="translate(-89.93 -84.43)"/><circle class="cls-2" cx="262.01" cy="5.54" r="5.54"/></svg>