<svg width="104" height="32" viewBox="0 0 104 32" fill="none" xmlns="http://www.w3.org/2000/svg">
<path d="M10.5482 2.39915C11.1094 2.09705 11.3761 1.39943 11.0784 0.76098C10.7405 0.0353263 9.83665 -0.209153 9.14677 0.192604C7.07867 1.39787 5.20747 3.07809 3.54555 5.21923C3.5409 5.2239 3.5378 5.23013 3.53315 5.23481C2.72854 6.27346 2.06657 7.42111 1.56892 8.63883C1.56582 8.64506 1.56427 8.65129 1.56117 8.65752C0.536427 11.1708 0.0139771 13.6343 2.44155e-05 16.0371C-0.00462647 16.8375 0.655799 17.504 1.4511 17.4386C2.15183 17.3809 2.62157 16.8017 2.60297 16.1632C2.5177 13.1796 3.282 10.5604 4.66641 8.19036C6.02602 5.80629 7.92668 3.8053 10.5482 2.39915Z" fill="white"/>
<path d="M34.7917 16.6443C33.9654 11.0509 30.8896 6.63001 25.445 4.25372C18.4485 1.20006 9.56999 4.62745 6.87557 11.4215C4.72687 16.839 6.43064 23.1254 11.4939 25.7088C15.165 27.5821 19.4748 26.6104 21.8948 23.6502C22.6529 22.8155 23.1986 21.7628 23.4389 20.5887C23.8218 18.9552 23.549 17.3108 22.7103 15.9436C22.5491 15.6617 22.3646 15.3955 22.1661 15.1432C22.1196 15.2148 22.0731 15.2865 22.0204 15.3581C20.9476 16.811 19.2872 17.4011 18.3121 16.6755C17.3804 15.981 17.4129 14.3366 18.354 12.9242C18.2082 12.904 18.0594 12.8868 17.9106 12.8775C17.6827 12.8448 17.4517 12.8245 17.216 12.8167V12.8245C16.4362 12.8557 15.6859 12.974 15.0627 13.3805C15.8998 12.3138 17.1618 11.5305 18.6067 11.3125C21.3817 10.8952 24.1536 12.3184 25.7349 14.9719C27.6418 18.1751 27.2713 22.42 24.828 25.3802C22.639 28.0337 19.5911 29.4352 16.4843 29.471C16.1603 29.4741 15.8549 29.6407 15.6719 29.9101C14.996 30.9067 15.7014 32.0123 16.6595 31.9999C21.8576 31.9407 26.6465 28.7562 28.6464 23.7124C30.7951 18.295 28.6433 12.2344 23.58 9.65097C19.2159 7.42418 13.993 9.11529 12.0737 13.491C11.9745 13.7168 11.7094 14.6293 11.6381 14.9065C11.2102 16.5758 11.6133 18.5363 11.8861 19.1467C12.7419 21.0621 14.6767 22.5991 17.2083 22.7018C17.2191 22.7018 17.2284 22.7034 17.2393 22.7034V22.7003C18.2702 22.6613 19.2361 22.4091 20.0453 21.9326C19.2082 23.0242 17.9338 23.8277 16.4657 24.0488C13.6907 24.4661 10.9187 23.0429 9.33744 20.3894C7.43058 17.1862 8.24914 12.7171 10.6924 9.7553C14.5108 5.12887 22.0545 4.302 26.8666 7.89289C29.9812 10.2178 31.8307 13.3649 32.3407 16.8125C32.4725 17.7017 33.5251 18.2545 34.4445 17.5288C34.6786 17.3435 34.8351 16.9402 34.7917 16.6443Z" fill="white"/>
<path d="M48.8002 23.4712C49.7986 23.4712 50.7009 23.0834 51.5024 22.3064C52.3333 21.5075 52.7503 20.5732 52.7503 19.5034V19.4816C51.6202 20.486 50.3024 20.9874 48.8002 20.9874C47.1522 20.9874 45.7446 20.4019 44.5772 19.2294C43.4098 18.0568 42.8269 16.6429 42.8269 14.9876C42.8269 13.3323 43.4098 11.9183 44.5772 10.7457C45.7446 9.57318 47.1522 8.98767 48.8002 8.98767C50.442 8.98767 51.845 9.57006 53.0123 10.7348C54.1797 11.8996 54.7657 13.3105 54.7735 14.9657V19.505C54.7735 21.1245 54.1456 22.5384 52.8914 23.7468C51.6806 24.9193 50.3164 25.5049 48.8002 25.5049C46.4592 25.5049 44.709 24.5954 43.5478 22.7798C43.3726 22.5088 43.337 22.2192 43.4377 21.9108C43.54 21.6025 43.7447 21.3939 44.0501 21.2849L44.0826 21.274C44.571 21.1058 44.9617 21.2366 45.2531 21.6695C46.0438 22.8701 47.2251 23.4712 48.8002 23.4712ZM52.7503 14.9221C52.7364 13.8383 52.3411 12.918 51.569 12.1644C50.8032 11.4029 49.8807 11.0214 48.8002 11.0214C47.7057 11.0214 46.7724 11.4091 45.9988 12.1862C45.233 12.9632 44.85 13.8975 44.85 14.9891C44.85 16.0885 45.233 17.0259 45.9988 17.803C46.7724 18.5722 47.7057 18.9568 48.8002 18.9568C49.8947 18.9568 50.8249 18.5722 51.5907 17.803C52.3643 17.0259 52.7503 16.0885 52.7503 14.9891V14.9221Z" fill="white"/>
<path d="M58.9872 15.7676C58.9872 16.5805 59.2709 17.2766 59.8399 17.8558C60.4166 18.4351 61.1127 18.7248 61.9297 18.7248C62.7389 18.7248 63.4288 18.4351 63.9977 17.8558C64.5745 17.2844 64.8628 16.5883 64.8628 15.7676V9.99823C64.8628 9.7195 64.962 9.48124 65.1589 9.28348C65.3558 9.08572 65.593 8.98606 65.8705 8.98606H65.8922C66.1697 8.98606 66.4023 9.08572 66.5929 9.28348C66.7898 9.48124 66.889 9.7195 66.889 9.99823V20.5155C66.889 21.8703 66.379 23.046 65.3574 24.0426C64.3652 25.0174 63.2241 25.5048 61.9328 25.5048C60.8972 25.5048 59.9561 25.2479 59.1097 24.7355C58.2927 24.245 57.6725 23.5817 57.2493 22.747C57.1113 22.476 57.0989 22.2004 57.2168 21.9232C57.3268 21.6383 57.5237 21.4467 57.8074 21.3518L57.8508 21.3299C58.0834 21.249 58.3144 21.2536 58.5407 21.3408C58.7671 21.4358 58.9376 21.5931 59.0554 21.8127C59.3174 22.311 59.7081 22.7096 60.2259 23.0102C60.7514 23.3185 61.3204 23.4711 61.9328 23.4711C62.7126 23.4711 63.3947 23.1815 63.9791 22.6022C64.5698 22.0167 64.8659 21.3206 64.8659 20.514V19.7774C63.9978 20.4221 63.0211 20.7444 61.9343 20.7444C60.5623 20.7444 59.3918 20.257 58.4229 19.2822C57.4524 18.3152 56.9672 17.1427 56.9672 15.7661V9.99667C56.9672 9.71794 57.0664 9.47969 57.2633 9.28192C57.4602 9.08416 57.6927 8.9845 57.964 8.9845H57.9966C58.2663 8.9845 58.5004 9.08416 58.6973 9.28192C58.8942 9.47969 58.9934 9.71794 58.9934 9.99667V15.7676H58.9872Z" fill="white"/>
<path d="M74.7196 23.4712C75.718 23.4712 76.6202 23.0834 77.4217 22.3064C78.2527 21.5075 78.6697 20.5732 78.6697 19.5034V19.4816C77.5395 20.486 76.2218 20.9874 74.7196 20.9874C73.0716 20.9874 71.6639 20.4019 70.4966 19.2294C69.3292 18.0568 68.7463 16.6429 68.7463 14.9876C68.7463 13.3323 69.3292 11.9183 70.4966 10.7457C71.6639 9.57318 73.0716 8.98767 74.7196 8.98767C76.3613 8.98767 77.7643 9.57006 78.9317 10.7348C80.0991 11.8996 80.6851 13.3105 80.6928 14.9657V19.505C80.6928 21.1245 80.065 22.5384 78.8108 23.7468C77.6 24.9193 76.2358 25.5049 74.7196 25.5049C72.3786 25.5049 70.6283 24.5954 69.4672 22.7798C69.292 22.5088 69.2563 22.2192 69.3571 21.9108C69.4594 21.6025 69.6641 21.3939 69.9695 21.2849L70.002 21.274C70.4904 21.1058 70.881 21.2366 71.1725 21.6695C71.9631 22.8701 73.1445 23.4712 74.7196 23.4712ZM78.6697 14.9221C78.6558 13.8383 78.2604 12.918 77.4884 12.1644C76.7225 11.4029 75.8001 11.0214 74.7196 11.0214C73.6251 11.0214 72.6918 11.4091 71.9182 12.1862C71.1523 12.9632 70.7694 13.8975 70.7694 14.9891C70.7694 16.0885 71.1523 17.0259 71.9182 17.803C72.6918 18.5722 73.6251 18.9568 74.7196 18.9568C75.8141 18.9568 76.7443 18.5722 77.5101 17.803C78.2837 17.0259 78.6697 16.0885 78.6697 14.9891V14.9221Z" fill="white"/>
<path d="M89.621 11.1303C89.7017 11.0431 89.68 10.9949 89.5559 10.9871H83.933C83.6555 10.9871 83.423 10.8874 83.2323 10.6897C83.0354 10.4919 82.9362 10.2583 82.9362 9.98581V9.95311C82.9362 9.68216 83.0354 9.44702 83.2323 9.24926C83.4214 9.05149 83.6555 8.95183 83.933 8.95183H90.5078C91.2659 8.93782 91.7946 9.27729 92.0938 9.97335C92.393 10.6834 92.272 11.3063 91.7325 11.842C89.2598 14.4503 87.0863 16.7394 85.212 18.7108C85.212 18.7186 85.1934 18.7404 85.1577 18.7762C85.0709 18.8634 85.088 18.9117 85.212 18.9194H85.288L91.3171 18.9303C91.5946 18.9303 91.8271 19.0253 92.0178 19.2153C92.2147 19.4131 92.3139 19.6513 92.3139 19.9301V19.9519C92.3139 20.2306 92.2147 20.4689 92.0178 20.6666C91.8287 20.8566 91.5946 20.9516 91.3171 20.9516H84.2601C83.502 20.9734 82.9718 20.6324 82.6742 19.9301C82.375 19.2262 82.4959 18.6033 83.0354 18.0614C83.7501 17.314 84.8368 16.171 86.2957 14.6325C87.7328 13.1158 88.8195 11.9697 89.5559 11.1926C89.5559 11.1895 89.5776 11.1662 89.621 11.1303Z" fill="white"/>
<path d="M96.0982 15.7676C96.0982 16.5805 96.3819 17.2766 96.9508 17.8558C97.5275 18.4351 98.2236 18.7248 99.0406 18.7248C99.8499 18.7248 100.54 18.4351 101.109 17.8558C101.685 17.2844 101.974 16.5883 101.974 15.7676V9.99823C101.974 9.7195 102.073 9.48124 102.27 9.28348C102.467 9.08572 102.704 8.98606 102.981 8.98606H103.003C103.281 8.98606 103.513 9.08572 103.704 9.28348C103.901 9.48124 104 9.7195 104 9.99823V20.5155C104 21.8703 103.49 23.046 102.468 24.0426C101.476 25.0174 100.335 25.5048 99.0437 25.5048C98.0081 25.5048 97.0671 25.2479 96.2206 24.7355C95.4036 24.245 94.7835 23.5817 94.3603 22.747C94.2223 22.476 94.2099 22.2004 94.3277 21.9232C94.4378 21.6383 94.6347 21.4467 94.9184 21.3518L94.9618 21.3299C95.1943 21.249 95.4253 21.2536 95.6517 21.3408C95.878 21.4358 96.0485 21.5931 96.1664 21.8127C96.4284 22.311 96.819 22.7096 97.3368 23.0102C97.8624 23.3185 98.4313 23.4711 99.0437 23.4711C99.8235 23.4711 100.506 23.1815 101.09 22.6022C101.681 22.0167 101.977 21.3206 101.977 20.514V19.7774C101.109 20.4221 100.132 20.7444 99.0453 20.7444C97.6733 20.7444 96.5028 20.257 95.5339 19.2822C94.5634 18.3152 94.0781 17.1427 94.0781 15.7661V9.99667C94.0781 9.71794 94.1773 9.47969 94.3742 9.28192C94.5711 9.08416 94.8037 8.9845 95.075 8.9845H95.1075C95.3773 8.9845 95.6114 9.08416 95.8082 9.28192C96.0051 9.47969 96.1044 9.71794 96.1044 9.99667V15.7676H96.0982Z" fill="white"/>
</svg>
