<svg fill="none" height="689" viewBox="0 0 695 689" width="695" xmlns="http://www.w3.org/2000/svg"><g clip-rule="evenodd" fill="#fff" fill-opacity=".3" fill-rule="evenodd"><path d="m426 176v240h-178v186c-136.967 0-247.99999856-111.033-247.99999679-248h185.99999679v-178zm-240 178h62v62h-62zm-112.0914 62s11.0962 38.581 40.1644 67.762c29.067 29.181 71.927 44.767 71.927 44.767v-112.528z"/><path d="m505.818 519.636c-4.519 0-8.182 3.663-8.182 8.182 0 4.515 3.657 8.176 8.171 8.182h.022c3.258-.004 6.07-1.913 7.382-4.672v-7.02c-1.314-2.762-4.13-4.672-7.393-4.672zm-65.466 16.364h.023c4.513-.006 8.17-3.667 8.17-8.182 0-4.519-3.663-8.182-8.181-8.182-4.519 0-8.182 3.663-8.182 8.182 0 4.515 3.657 8.176 8.17 8.182zm-65.454 0h.022c4.514-.006 8.171-3.667 8.171-8.182 0-4.519-3.663-8.182-8.182-8.182s-8.182 3.663-8.182 8.182c0 4.515 3.657 8.176 8.171 8.182zm138.313-135.581v-7.02c-1.314-2.762-4.13-4.672-7.393-4.672-4.519 0-8.182 3.663-8.182 8.182s3.663 8.182 8.182 8.182c3.263 0 6.079-1.909 7.393-4.672zm0 65.455v-7.02c-1.314-2.763-4.13-4.672-7.393-4.672-4.519 0-8.182 3.663-8.182 8.182 0 4.518 3.663 8.181 8.182 8.181 3.263 0 6.079-1.909 7.393-4.671zm-40.12-109.874c-4.519 0-8.182 3.663-8.182 8.182 0 4.518 3.663 8.182 8.182 8.182s8.182-3.663 8.182-8.182-3.663-8.182-8.182-8.182zm-65.455 0c-4.518 0-8.181 3.663-8.181 8.182 0 4.518 3.663 8.182 8.181 8.182 4.519 0 8.182-3.664 8.182-8.182 0-4.519-3.663-8.182-8.182-8.182zm-65.454 0c-4.519 0-8.182 3.663-8.182 8.182 0 4.518 3.663 8.182 8.182 8.182s8.182-3.664 8.182-8.182c0-4.519-3.663-8.182-8.182-8.182zm122.727 139.091c0-4.519 3.663-8.182 8.182-8.182s8.182 3.663 8.182 8.182-3.663 8.182-8.182 8.182-8.182-3.663-8.182-8.182zm8.182-73.636c-4.519 0-8.182 3.663-8.182 8.181 0 4.519 3.663 8.182 8.182 8.182s8.182-3.663 8.182-8.182c0-4.518-3.663-8.181-8.182-8.181zm-40.909 40.909c0-4.519 3.663-8.182 8.182-8.182 4.518 0 8.181 3.663 8.181 8.182 0 4.518-3.663 8.181-8.181 8.181-4.519 0-8.182-3.663-8.182-8.181zm8.182-73.637c-4.519 0-8.182 3.663-8.182 8.182s3.663 8.182 8.182 8.182c4.518 0 8.181-3.663 8.181-8.182s-3.663-8.182-8.181-8.182zm-32.728 98.182c-4.518 0-8.181 3.663-8.181 8.182s3.663 8.182 8.181 8.182c4.519 0 8.182-3.663 8.182-8.182s-3.663-8.182-8.182-8.182zm-8.181-57.273c0-4.518 3.663-8.181 8.181-8.181 4.519 0 8.182 3.663 8.182 8.181 0 4.519-3.663 8.182-8.182 8.182-4.518 0-8.181-3.663-8.181-8.182zm-24.546 24.546c-4.519 0-8.182 3.663-8.182 8.182 0 4.518 3.663 8.181 8.182 8.181s8.182-3.663 8.182-8.181c0-4.519-3.663-8.182-8.182-8.182zm-8.182-57.273c0-4.519 3.663-8.182 8.182-8.182s8.182 3.663 8.182 8.182-3.663 8.182-8.182 8.182-8.182-3.663-8.182-8.182zm-32.727 98.182c0-4.519 3.663-8.182 8.182-8.182s8.182 3.663 8.182 8.182-3.663 8.182-8.182 8.182-8.182-3.663-8.182-8.182zm8.182-73.636c-4.519 0-8.182 3.663-8.182 8.181 0 4.519 3.663 8.182 8.182 8.182s8.182-3.663 8.182-8.182c0-4.518-3.663-8.181-8.182-8.181z"/><path d="m276 86-180 180v-180z"/><path d="m.0000011 85c.00000061-46.9442 38.0557989-85.00000145 84.9999989-85.00000093 46.944.00000051 85 38.05580093 85 85.00000093 0 46.944-38.056 85-85 85-46.9442 0-84.99999951-38.056-84.9999989-85z"/><path d="m565.857 652c0 29.744-24.113 53.857-53.857 53.857s-53.857-24.113-53.857-53.857 24.113-53.857 53.857-53.857 53.857 24.113 53.857 53.857zm62.143 0c0 64.065-51.935 116-116 116s-116-51.935-116-116 51.935-116 116-116 116 51.935 116 116z"/><path d="m618.007 176c-.005.333-.007.666-.007 1 0 41.421 33.579 75 75 75 .334 0 .667-.002 1-.007v-75.993zm0 0c.535-40.96 33.905-74 74.993-74 41.421 0 75 33.579 75 75 0 41.087-33.04 74.458-74 74.993v284.007h-180v-360z"/><path d="m338.42-.00000178c-.14.00000698-.28.00018057-.42.00052059v88.00488119c.325-.0036.651-.0054.978-.0054 48.061 0 87.022 38.961 87.022 87.022 0 .327-.002.652-.005.978h88.004c.001-.143.001-.286.001-.429 0-97.2079-78.355-175.56621827-175.562-175.57100178z"/><path d="m693.819 536.232v73.949c41.073 0 74.181-33.108 74.181-74.181-17.351.232-44.204 0-74.181.232z"/></g></svg>