<?xml version="1.0" encoding="utf-8"?>
<!-- Generator: Adobe Illustrator 24.3.0, SVG Export Plug-In . SVG Version: 6.00 Build 0)  -->
<svg version="1.1" id="Layer_1" xmlns="http://www.w3.org/2000/svg" xmlns:xlink="http://www.w3.org/1999/xlink" x="0px" y="0px"
	 viewBox="0 0 163 255" style="enable-background:new 0 0 163 255;" xml:space="preserve">
<style type="text/css">
	.st0{fill:#FF0000;filter:url(#Adobe_OpacityMaskFilter);stroke:#FF0000;}
	.st1{mask:url(#mask0_1_);}
	.st2{opacity:0.75;fill-rule:evenodd;clip-rule:evenodd;fill:#E0E0E0;enable-background:new    ;}
	.st3{opacity:0.5;fill-rule:evenodd;clip-rule:evenodd;fill:#E0E0E0;enable-background:new    ;}
	.st4{fill:#6831E4;}
	.st5{opacity:0.2;fill:#6831E4;enable-background:new    ;}
	.st6{opacity:0.6;fill:#6831E4;enable-background:new    ;}
	.st7{opacity:0.8;fill:#6831E4;enable-background:new    ;}
	.st8{opacity:0.4;fill:#6831E4;enable-background:new    ;}
</style>
<defs>
	<filter id="Adobe_OpacityMaskFilter" filterUnits="userSpaceOnUse" x="-43" y="0" width="247" height="255">
		<feColorMatrix  type="matrix" values="1 0 0 0 0  0 1 0 0 0  0 0 1 0 0  0 0 0 1 0"/>
	</filter>
</defs>
<mask maskUnits="userSpaceOnUse" x="-43" y="0" width="247" height="255" id="mask0_1_">
	<rect x="0.5" y="-0.5" class="st0" width="162" height="256"/>
</mask>
<g class="st1">
	<path class="st2" d="M121.6,9.5h81.4l-40.4,61.9L121.6,9.5z M123.4,10.5l39.1,59.1l38.6-59.1H123.4z"/>
	<path class="st2" d="M39,9.5h83.9L81.3,70.9L39,9.5z M41,10.5l40.3,58.6l39.8-58.6H41z"/>
	<path class="st2" d="M80,69.5h83.9l-41.7,61.4L80,69.5z M82,70.5l40.3,58.6l39.8-58.6H82z"/>
	<path class="st3" d="M120,129h84l-41.7,62L120,129z M121.9,130l40.4,59.2l39.9-59.2H121.9z"/>
	<path class="st2" d="M-43,9.5h83.9L-0.7,70.9L-43,9.5z M-41,10.5l40.3,58.6l39.8-58.6H-41z"/>
	<path class="st2" d="M-2,69.5h83.9l-41.7,61.4L-2,69.5z M0,70.5l40.3,58.6l39.8-58.6H0z"/>
	<path class="st3" d="M39,129.5h83.9l-41.7,61.4L39,129.5z M41,130.5l40.3,58.6l39.8-58.6H41z"/>
	<path class="st3" d="M80,189h84l-41.7,62L80,189z M81.9,190l40.4,59.2l39.9-59.2H81.9z"/>
	<path class="st3" d="M-42,129h41.1H42L0.3,191l-1.2-1.8L-42,129z M-40.1,130l40.4,59.2L40.1,130H-0.9H-40.1z"/>
	<path class="st3" d="M-1,189.5h83.9l-41.7,61.4L-1,189.5z M1,190.5l40.3,58.6l39.8-58.6H1z"/>
	<circle class="st4" cx="122" cy="10" r="10"/>
	<circle class="st4" cx="41" cy="10" r="10"/>
	<circle class="st5" cx="122" cy="249" r="6"/>
	<circle class="st5" cx="41" cy="249" r="6"/>
	<circle class="st6" cx="122" cy="129" r="8"/>
	<circle class="st6" cx="41" cy="130" r="8"/>
	<circle class="st7" cx="0" cy="70" r="9"/>
	<circle class="st7" cx="162" cy="70" r="9"/>
	<circle class="st7" cx="81" cy="70" r="9"/>
	<circle class="st8" cx="0" cy="190" r="7"/>
	<circle class="st8" cx="162" cy="190" r="7"/>
	<circle class="st8" cx="81" cy="190" r="7"/>
</g>
</svg>
