<?xml version="1.0" encoding="utf-8"?>
<!-- Generator: Adobe Illustrator 24.2.3, SVG Export Plug-In . SVG Version: 6.00 Build 0)  -->
<svg version="1.1" id="Capa_1" xmlns="http://www.w3.org/2000/svg" xmlns:xlink="http://www.w3.org/1999/xlink" x="0px" y="0px"
	 viewBox="0 0 3896.7 330.5" style="enable-background:new 0 0 3896.7 330.5;" xml:space="preserve">
<style type="text/css">
	.st0{fill:#605F71;}
</style>
<g>
	<g>
		<polygon class="st0" points="174.3,170.5 152.2,300.3 187.6,300.3 209.7,170.5 		"/>
		<path class="st0" d="M122.5,170.6l-34.7,88.6l-3.7-13.4c-6.8-16.1-26.2-39.2-49-53.8l31.7,108.3l37.4-0.1L160,170.6H122.5z"/>
		<path class="st0" d="M70.7,179.9c-2.1-7.9-8-10.3-15.4-10.6H0.5L0,172c42.6,10.4,70.9,35.3,82.6,65.3L70.7,179.9z"/>
		<path class="st0" d="M281.4,195.4c9.1-0.2,18.1,1.5,26.5,5l3.2,1.5l4.8-28.1c-10.2-3.7-20.9-5.5-31.7-5.4
			c-35,0-59.6,17.6-59.8,42.8c-0.2,18.6,17.5,29.1,31,35.3c13.8,6.4,18.4,10.4,18.4,16.1c-0.1,8.7-11,12.7-21.2,12.7
			c-14.2,0-21.7-2-33.3-6.8l-4.6-2.1l-5,29c8.3,3.6,23.6,6.8,39.4,6.9c37.2,0,61.4-17.4,61.6-44.4c0.1-14.8-9.3-26-29.7-35.2
			c-12.4-6-20-10-19.9-16.1C261.1,201.1,267.6,195.4,281.4,195.4z"/>
		<path class="st0" d="M406.6,170.6h-27.3c-8.5,0-14.8,2.3-18.5,10.8l-52.5,119h37.2c0,0,6.1-16,7.4-19.5l45.3,0.1
			c1.1,4.5,4.3,19.4,4.3,19.4h32.8L406.6,170.6z M363,254.3c2.9-7.5,14.1-36.3,14.1-36.3c-0.2,0.4,2.9-7.5,4.7-12.4l2.4,11.2
			l8.2,37.5H363z"/>
		<path class="st0" d="M732.8,182.1c-2-3.8-5-7.1-8.7-9.4c-4.3-2.5-8.9-4.2-13.8-5c-6.2-1-12.5-1.5-18.7-1.5h-33.1
			c-3.6,0.2-6.6,2.6-7.6,6.1l-22.3,97c-0.7,2.5,0.7,5.1,3.2,5.8c0.5,0.2,1.1,0.2,1.6,0.2h15.9c3.6-0.1,6.7-2.5,7.6-6l5.4-23.6
			c0.9-3.5,4-5.9,7.6-6h4.5c19.4,0,34.4-4,45.2-11.9s16.2-18.4,16.2-31.4C735.8,190.7,734.9,185.9,732.8,182.1z M698.5,213.8
			c-4.8,3.5-11.5,5.3-20,5.3h-3.9c-2.6,0.2-4.8-1.8-5-4.4c0-0.5,0-1.1,0.2-1.6l4.8-20.6c0.9-3.5,4-5.9,7.5-6h5.2
			c6.1,0,10.7,1.1,13.8,3.1s4.6,5.2,4.6,9.4C705.8,205.4,703.3,210.3,698.5,213.8L698.5,213.8z"/>
		<polygon class="st0" points="1184.8,173.8 1183.8,174.1 1182.5,174.3 1180.9,174.1 1180,173.3 1179.7,172 1179.6,170.1 
			1179.6,163 1184.9,163 1184.9,160.8 1179.6,160.8 1179.6,156.4 1177,156.4 1177,160.8 1175.2,160.8 1175.2,163 1177,163 
			1177,171.2 1178.2,175.3 1181.8,176.6 1183.3,176.5 1184.9,176.2 1184.9,173.8 		"/>
		<polygon class="st0" points="1209.4,162 1205.6,160.4 1202.8,161 1200,162.9 1198.3,161.1 1195.7,160.4 1193.1,161 1190.6,162.6 
			1190.6,160.8 1188.1,160.8 1188.1,176.3 1190.6,176.3 1190.6,164.7 1192.8,163.4 1194.9,162.9 1196.7,163.2 1197.6,164.1 
			1197.9,165.6 1198.1,167.5 1198.1,176.3 1200.6,176.3 1200.6,166.4 1200.6,165.6 1200.6,164.8 1202.7,163.4 1204.9,162.9 
			1206.6,163.2 1207.5,164.1 1207.9,165.6 1208,167.5 1208,176.3 1210.6,176.3 1210.6,166.3 		"/>
		<path class="st0" d="M809.2,196c-6-3.4-15.4-5.1-28.3-5.1c-6.4,0-12.9,0.5-19.2,1.5c-4.7,0.7-5.2,0.9-8.1,1.5c-6,1.3-7,7.3-7,7.3
			l-1.9,8c-1.1,5.1,1.8,4.9,3.1,4.5c3.1-1.1,6.3-2.1,9.5-2.8c4.9-1.2,9.8-1.9,14.8-2c6.3,0,11.2,0.7,14.4,2c3,1.1,4.9,4,4.8,7.2
			l-0.3,2.2l-2.2,1.4c-9,0.6-15.5,1.4-23.4,2.5c-6.9,0.9-13.7,2.7-20.1,5.5c-5.5,2.2-10.2,6-13.7,10.8c-3,4.6-4.5,10.1-4.5,16.6
			c-0.2,5.7,2.2,11.2,6.5,15.1c4.3,3.8,10,5.7,16.7,5.7c3.4,0.1,6.7-0.3,10-0.9l7.7-2.6l6.5-3.6l6-4l0.1,0.1l-0.6,2.5v0.1l0,0
			c-0.7,2.5,0.8,5.1,3.3,5.8c0.3,0.1,0.6,0.1,0.9,0.1l0.1,0.1h14.7l0.2-0.1c3.3-0.4,5.9-2.8,6.8-5.9l11.6-50l0.6-4.1l0.3-3.8
			C818.3,204.6,815.2,199.4,809.2,196z M783.7,252.3l-2.5,3.3l-6.2,3.2c-2.6,1.1-5.4,1.7-8.3,1.8c-3.9,0-7-0.6-9-1.7l-3.1-6
			c-0.2-2.8,0.7-5.5,2.3-7.7l6.7-4.5c3.4-1.1,6.9-1.9,10.5-2.4c3.6-0.4,10.8-1.3,11.7-1.3l1.1,1.9
			C786.7,239.9,784.7,248.4,783.7,252.3z"/>
		<path class="st0" d="M1097.3,196.1c-6-3.4-15.4-5.1-28.3-5.1c-6.4,0-12.8,0.5-19.2,1.5c-4.8,0.7-5.2,0.9-8.2,1.5
			c-6,1.3-7,7.4-7,7.4l-1.9,8c-1.1,5.1,1.8,4.9,3.1,4.5c3.1-1.1,6.2-2,9.4-2.8c4.9-1.2,9.9-1.9,14.9-2c6.3,0,11.2,0.7,14.4,2
			c3,1.1,4.9,4,4.8,7.2l-0.2,2.2l-2.3,1.4c-9.1,0.5-15.6,1.4-23.4,2.5c-6.9,0.9-13.7,2.7-20.1,5.5c-6,2.7-10.6,6.2-13.7,10.8
			c-3.1,4.6-4.6,10.1-4.6,16.5c-0.2,5.7,2.2,11.3,6.5,15.1c4.3,3.8,9.9,5.7,16.7,5.7c3.4,0.1,6.7-0.2,10-0.9l7.7-2.6l6.6-3.6l5.9-4
			l0.1,0.1l-0.5,2.6l-0.1,0l0,0c-0.7,2.5,0.7,5,3.1,5.8c0.3,0.1,0.7,0.2,1.1,0.2v0.1h14.7l0.2-0.1c3.3-0.5,5.9-2.8,6.8-6l11.6-50
			l0.6-4.1l0.3-3.8C1106.3,204.6,1103.3,199.4,1097.3,196.1z M1071.7,252.3l-2.6,3.3l-6.2,3.2c-2.6,1.1-5.4,1.7-8.3,1.8
			c-4,0-7-0.6-9-1.7l-3.1-5.9c-0.1-2.8,0.7-5.5,2.3-7.8c1.8-2.1,4.1-3.7,6.8-4.6c3.4-1.1,6.9-1.9,10.4-2.3
			c3.6-0.4,10.7-1.3,11.7-1.3l1.1,1.9C1074.7,240,1072.7,248.5,1071.7,252.3z"/>
		<path class="st0" d="M1020.7,182.5c-2-3.8-5-7.1-8.7-9.4c-4.2-2.5-8.9-4.3-13.8-5.1c-6.2-1-12.4-1.5-18.7-1.5h-33.2
			c-3.6,0.2-6.6,2.6-7.6,6l-22.3,97.1c-0.7,2.5,0.7,5.1,3.2,5.8c0.5,0.1,1,0.2,1.6,0.2h15.9c3.6-0.1,6.7-2.6,7.6-6l5.4-23.6
			c1-3.4,4-5.9,7.6-6h4.5c19.4,0,34.5-4,45.3-11.9s16.1-18.5,16.1-31.5C1023.7,191.1,1022.8,186.3,1020.7,182.5z M986.5,214.2
			c-4.8,3.4-11.5,5.2-20,5.2h-4c-2.6,0.1-4.9-1.9-5-4.5c0-0.5,0-1.1,0.2-1.6l4.8-20.6c0.9-3.5,4-5.9,7.6-6h5.1
			c6.1,0,10.7,1,13.8,3.1s4.6,5.2,4.6,9.4C993.7,205.7,991.3,210.7,986.5,214.2z"/>
		<path class="st0" d="M1156.7,173.4c0.8-2.4-0.6-5-3.1-5.8c-0.5-0.2-1.1-0.2-1.7-0.2h-14.2c-2.9,0-5.5,2.2-6.8,4.8l-0.8,1.2
			l-0.7,3.1l-19.8,90.2l-0.7,2.8v0.1c-0.6,2.4,0.8,4.9,3.2,5.5c0.3,0.1,0.5,0.1,0.8,0.1l0.2,0.3h14.8c2.9,0,5.6-2.2,6.8-4.9l0.8-1.2
			L1156.7,173.4L1156.7,173.4z"/>
		<path class="st0" d="M917,192.1c-3.8,0.1-19,0-19,0c-3.4,0-7.8,2.8-10,6.1c0,0-22.7,39-24.9,42.9h-2.6l-7.1-42.6
			c-0.8-3.4-4.3-6.2-8.6-6.2h-14.2c-2.6-0.1-4.8,1.8-4.9,4.4c0,0.6,0,1.1,0.2,1.6c0,0,10.8,61.4,13,75.8c1,8-0.1,9.4-0.1,9.4
			l-14,24.5c-2.1,3.3-1,6,2.5,6h16.4c3.4,0,7.9-2.7,10-6l63.2-106.9C916.7,201.2,922.7,192,917,192.1z"/>
		<path class="st0" d="M1577.7,156.4c-17.2,0-33.9,5.6-47.6,16c-34.7-26.3-84.1-19.5-110.4,15.2s-19.5,84.1,15.2,110.4
			c28.1,21.3,67.1,21.3,95.2,0c34.7,26.3,84.1,19.5,110.4-15.2c26.3-34.7,19.5-84.1-15.2-110.4
			C1611.6,162.1,1594.9,156.4,1577.7,156.4L1577.7,156.4z M1530.1,192.5c2.4,2.7,4.6,5.6,6.6,8.7h-13.2
			C1525.5,198.2,1527.7,195.2,1530.1,192.5z M1516.7,216.1h26.9c1.2,3.8,2.1,7.8,2.5,11.8h-31.9
			C1514.6,223.8,1515.4,219.9,1516.7,216.1z M1514.1,242.7h31.9c-0.5,4-1.3,7.9-2.5,11.8h-26.9
			C1515.4,250.6,1514.6,246.7,1514.1,242.7L1514.1,242.7z M1530.1,278c-2.4-2.7-4.6-5.6-6.6-8.7h13.2
			C1534.8,272.4,1532.6,275.3,1530.1,278L1530.1,278z M1577.7,299.2c-13,0-25.8-4-36.5-11.4c6.1-6.8,11-14.7,14.4-23.2
			c7.5-18.9,7.5-39.9,0-58.7c-3.4-8.5-8.3-16.4-14.4-23.2c29-20.2,68.9-13,89.1,16c20.2,29,13,68.9-16,89.1
			C1603.5,295.2,1590.8,299.2,1577.7,299.2L1577.7,299.2z"/>
		<path class="st0" d="M2896.6,176.8c-4.5,5.3-11.7,9.5-18.9,8.9c-0.9-7.2,2.6-14.9,6.8-19.6c4.5-5.5,12.4-9.4,18.8-9.7
			C2904,163.9,2901.1,171.3,2896.6,176.8 M2903.2,187.1c-10.4-0.6-19.3,5.9-24.3,5.9s-12.6-5.6-20.9-5.5
			c-10.9,0.3-20.9,6.3-26.2,15.9c-11.2,19.3-2.9,48,8,63.7c5.3,7.8,11.7,16.4,20.1,16c7.9-0.3,11.1-5.2,20.7-5.2s12.4,5.2,20.9,5
			c8.7-0.1,14.2-7.8,19.5-15.6c3.7-5.5,6.7-11.5,8.7-17.9c-0.1-0.1-16.8-6.5-16.9-25.7c-0.1-16,13.1-23.7,13.7-24.1
			C2918.9,188.6,2907.2,187.4,2903.2,187.1 M2963.4,165.4v116.9h18.1v-40h25.1c22.9,0,39.1-15.8,39.1-38.5s-15.8-38.4-38.5-38.4
			L2963.4,165.4z M2981.5,180.7h20.9c15.7,0,24.7,8.4,24.7,23.2s-9,23.2-24.8,23.2h-20.8L2981.5,180.7z M3078.9,283.2
			c11.4,0,22-5.8,26.8-14.9h0.4v14h16.8v-58.2c0-16.9-13.5-27.8-34.3-27.8c-19.3,0-33.5,11-34,26.2h16.4c1.4-7.2,8-11.9,17.2-11.9
			c11.1,0,17.3,5.2,17.3,14.7v6.4l-22.6,1.4c-21.1,1.3-32.5,9.9-32.5,24.9S3062,283.2,3078.9,283.2L3078.9,283.2z M3083.7,269.3
			c-9.7,0-15.8-4.6-15.8-11.8c0-7.4,5.9-11.6,17.2-12.3l20.2-1.3v6.6C3105.3,261.5,3096,269.3,3083.7,269.3L3083.7,269.3z
			 M3145.2,314.1c17.7,0,26-6.7,33.3-27.2l31.9-89.4h-18.4l-21.4,69.1h-0.4l-21.4-69.1h-19l30.8,85.1l-1.6,5.2
			c-2.8,8.8-7.3,12.1-15.3,12.1c-1.4,0-4.2-0.1-5.3-0.3v14C3140.7,313.9,3142.9,314.1,3145.2,314.1L3145.2,314.1z"/>
		<polygon class="st0" points="3608.9,165.3 3608.9,152.8 3562.4,152.8 3562.4,211.7 3608.9,211.7 3608.9,199.3 3576.5,199.3 
			3576.5,187.7 3608,187.7 3608,176.1 3576.5,176.1 3576.5,165.3 		"/>
		<rect x="3681.9" y="152.8" class="st0" width="14.1" height="58.1"/>
		<path class="st0" d="M3837.8,279.7c-3.3-3.3-8.3-5-15.8-5h-7.5c-1.7,0.1-3.4-0.2-5-0.8c-1.7-0.8-3.3-1.6-3.3-4.1
			c0-1.7,0-3.3,1.6-4.1s3.3-0.8,5.8-0.8h25.7v-14.1h-27.4c-14.9,0-19.9,9.1-19.9,17.4c0,18.2,15.8,17.4,29,18.2
			c1.8-0.1,3.6,0.5,5,1.7c2.2,2.3,2.2,6,0,8.3c-1.6,1.7-3.3,1.7-5.8,1.7h-26.5v12.4h26.6c14.1,0,21.6-5.8,21.6-18.2
			C3842,286.4,3840.3,282.2,3837.8,279.7z"/>
		<path class="st0" d="M3896.5,289.2c-1.7-8.9-9.3-12.3-11.6-13.1c-2.9-1-5.9-1.4-8.9-1.3h-7.5c-1.7,0.1-3.4-0.2-5-0.8
			c-2.5-0.8-3.3-1.6-3.3-4.1c0-1.5,0.6-3,1.7-4.1c1.6-0.8,3.3-0.8,5.8-0.8h25.7v-14.1H3866c-1.4,0-2.9,0.1-4.3,0.3
			c-11.1,2.1-15.6,9.2-15.6,17.1c0,18.2,15.8,17.4,29,18.2c1.8-0.1,3.6,0.5,5,1.7c2.2,2.3,2.2,6,0,8.3c-1.6,1.7-3.3,1.7-5.8,1.7
			h-26.5v12.4h26.5c8.3,0,14.1-2.5,17.4-5.8c3.3-3.3,5.1-7.8,5-12.4C3896.7,291.2,3896.6,290.2,3896.5,289.2z"/>
		<polygon class="st0" points="3785.6,264 3785.6,251.5 3739.1,251.5 3739.1,310.4 3785.6,310.4 3785.6,298 3753.2,298 
			3753.2,286.4 3784.7,286.4 3784.7,274.8 3753.2,274.8 3753.2,264 		"/>
		<path class="st0" d="M3529.2,152.8l-16.6,39.8l-0.3,0.9l-7.5-17.1l-10.5-22.8l0,0l-0.4-0.8h-22v55.6l-23.2-55.6h-20.7l-24.5,58.1
			h14.6l3.1-6.6l2.8-5.9h28.2l5.8,12.4h28.2v-45.6l19.9,45.6h12.2l19.3-43.8l0,0l0.8-1.9v45.7h13.3v-58.1H3529.2z M3428.9,186
			l9.1-23.2l9.1,23.2H3428.9z"/>
		<path class="st0" d="M3843.6,153.7v40.6l-24.1-40.6h-20.7v55.6l-6.1-14.6l-17.1-40.9h-20.7l-17.1,41l-2,4.7h-5.8
			c-4.1,0-7.5-0.8-10-3.3c-3.3-3.3-4.1-7.5-4.1-14.1c0-5.8,1.6-10.8,4.1-13.3c3.3-2.5,5.8-3.3,10.8-3.3h13.3v-12.5h-13.3
			c-9.1,0-16.6,1.6-20.7,6.6c-5.8,6.6-7.5,14.9-7.5,23.2c0,10.8,2.5,17.4,7.5,22.4s13.3,6.6,19.9,6.6h15.8l5-13.3h29l2.4,6l2.6,6.4
			h14.1l0,0h14v-7.6l0.1,0.1v-36.4l26.5,44h18.2v-57.3H3843.6z M3755.7,186l9.9-23.2l9.1,23.2H3755.7z"/>
		<path class="st0" d="M3671.9,197.8v-0.1c0-0.1,0-0.2,0-0.2c0-0.6,0-1.2-0.1-1.8c0-0.2,0-0.3-0.1-0.4c0-0.4-0.1-0.9-0.2-1.2
			c0-0.1-0.1-0.3-0.1-0.4c-0.1-0.4-0.2-0.8-0.3-1.2c0-0.1-0.1-0.2-0.1-0.2c-0.1-0.5-0.3-0.9-0.4-1.3c-0.4-1.1-1-2.1-1.7-3.1
			c-0.2-0.4-0.5-0.7-0.8-1l-0.1-0.1c-1.4-1.5-3.2-2.6-5.2-3.1c6.1-2.6,10-8.7,9.9-15.3c-0.1-6.4-2.6-10.5-6.6-12.9
			s-9.1-2.5-16.6-2.5H3618v58.1h14.1v-12.4l0,0v-8.3h14.9c3.9,0,6.3,0,7.5,0.8c0.9,0.4,1.7,0.9,2.4,1.7c1,1.4,1.7,3.1,2,4.8l0,0
			c0.3,1.7,0.5,3.5,0.5,5.2l0,0c0,0.5,0,1.1,0,1.5v6.6h12.4v-11.6C3671.9,198.8,3671.9,198.3,3671.9,197.8L3671.9,197.8z
			 M3656.9,176.1c-0.2,0.3-0.4,0.6-0.6,0.9l-0.2,0.2l0,0c-0.2,0.2-0.4,0.4-0.7,0.5c-1.7,0.8-4.1,0.8-6.6,0.8h-16.6v-13.3h16.5
			c2.5,0,5,0,6.6,0.8c1.2,0.5,2.1,1.6,2.5,2.8l0,0c0,0.1,0,0.1,0,0.2c0.1,0.2,0.1,0.5,0.1,0.8C3658.3,172,3658,174.2,3656.9,176.1
			L3656.9,176.1z"/>
		<path class="st0" d="M3668.7,263.2c-3.6-8.7-13.2-10.8-21.7-10.8h-44l-17.4,19.1l-0.4,0.4l-3.1-3.4l-14.7-16.1h-53.9v58.1h53.1
			l18.2-19.1l0.8,0.9v-0.1l15.9,18.2h27.3v-9.1l0,0v-12.4h16.6c12.4,0,24.1-3.3,24.1-19.9C3669.4,267,3669.2,265.1,3668.7,263.2z
			 M3559.9,298.8h-34v-12.4h30.7v-11.6H3526V264h34.8l14.8,17.4L3559.9,298.8z M3614.7,305.5l-21.6-24l21.5-23.2L3614.7,305.5z
			 M3647,278.9h-18.2V264h17.4c5,0,8.3,2.5,9.1,7.5C3655.3,276.4,3652,278.9,3647,278.9L3647,278.9z"/>
		<path class="st0" d="M3730.7,296.7c0-0.3,0-0.6-0.1-0.9s0-0.5-0.1-0.7s-0.1-0.5-0.1-0.7s-0.1-0.5-0.1-0.7s-0.1-0.2-0.1-0.3
			c-0.2-0.9-0.4-1.8-0.7-2.7c0,0,0-0.1,0-0.1c-0.1-0.3-0.2-0.6-0.4-0.8c-0.3-0.6-0.6-1.1-0.9-1.7c-0.8-1.7-3.3-3.3-7.5-5
			c4.1-1.7,10-6.6,10-15.8c0.2-5.5-2.7-10.6-7.5-13.3c-4.2-2.5-10-2.5-16.6-2.5h-31.5v58.9h14.1v-21.5h14.9c5,0,8.3,0,10,2.5
			c2.5,2.5,2.5,8.3,2.5,11.6v7.5h14.1v-11.6c0-0.6,0-1.1,0-1.6L3730.7,296.7z M3715.9,271.5c0,2.5-0.8,5-2.5,5.8s-4.1,0.8-6.6,0.8
			h-16.6v-13.3h16.6c2.5,0,5,0,6.6,0.8S3716.7,268.1,3715.9,271.5L3715.9,271.5z"/>
		<path class="st0" d="M2331.3,227.5c0.4-35.7-28.3-65-64.1-65.4c-0.5,0-0.9,0-1.4,0h-0.2c-36.3,0-65.7,29.4-65.7,65.8
			s29.4,65.7,65.8,65.7c36.3,0,65.7-29.4,65.7-65.7C2331.3,227.7,2331.3,227.6,2331.3,227.5z"/>
		<path class="st0" d="M2187.6,255.7c-9.8,9.8-18.9,13.7-28.7,13.9c-23.8-0.2-41.3-17.8-41.3-43c0-12.6,4.8-23,12.4-31.9l0,0
			c7.1-6.8,16.3-11.1,26.8-11.1c11.4,0,20.2,3.8,30.3,13.9v-29c-10.1-5.1-19-7.6-30.3-7.6c-15.8,1.1-30.9,7.4-42.8,17.8l0,0
			c-3.5,3-6.6,6.4-9.3,10.1c-8.7,11.1-13.5,24.8-13.6,39c0,36.7,29.1,64.5,65.7,64.5h0.5h0.7c10.1,0,19-2.5,30.4-7.6L2187.6,255.7
			c-0.4,0.4,0.4,0.8,0,1.2L2187.6,255.7z"/>
		<polygon class="st0" points="2414.3,178.9 2414.3,178.9 2385.6,249.3 2352.8,165.9 2326.2,165.9 2378.1,293.6 2392,293.6 
			2446.3,165.9 2419.8,165.9 		"/>
		<polygon class="st0" points="2456.4,221.5 2456.4,289.8 2524.7,289.8 2526,289.8 2526,269.6 2504.5,269.6 2481.7,269.6 
			2481.7,246.8 2481.7,235.4 2524.7,235.4 2524.7,213.9 2481.7,213.9 2481.7,187.4 2526,187.4 2526,165.9 2456.4,165.9 		"/>
		<path class="st0" d="M1885,165.9h-35.4v123.9h35.4c19,0,32.9-5.1,44.2-13.9c14.3-11.8,22.7-29.4,22.8-48
			C1952,191.2,1925.5,165.9,1885,165.9z M1914.1,259.5c-7.6,6.3-17.7,10.1-32.9,10.1h-7.6v-82.2h6.3c15.2,0,25.3,2.5,32.9,10.1
			c8.8,7.6,13.9,18.7,13.9,30.3C1928,239.2,1923,251.9,1914.1,259.5L1914.1,259.5z"/>
		<rect x="1963.4" y="165.9" class="st0" width="24" height="123.9"/>
		<path class="st0" d="M2048.1,213.9c-15.2-5.1-19-8.9-19-15.2c0-7.6,7.6-13.9,17.7-13.9c7.6,0,13.9,2.5,20.2,10.1l12.6-16.4
			c-10.1-9-23.1-13.9-36.7-13.9c-21.5,0-39.2,15.2-39.2,35.4c0,17.7,7.6,25.3,30.4,34.1c10.1,3.8,13.9,5.1,16.4,7.6
			c4.7,2.4,7.7,7.3,7.6,12.6c0,10.1-7.6,17.7-19,17.7c-11.3,0-21.6-6.3-26.6-16.4l-15.2,15.2c11.4,16.4,25.3,24,43,24
			c25.3,0,43-16.4,43-40.5C2083.5,232.9,2075.9,224.1,2048.1,213.9z"/>
		<path class="st0" d="M2594.2,238c19-3.8,29.1-16.4,29.1-35.4c0-22.8-16.4-36.7-44.2-36.7h-36.7v123.9h24v-49.3h3.8l34.1,49.3h29.1
			L2594.2,238z M2574,222.8h-7.6v-37.9h7.6c15.2,0,24,6.3,24,19S2589.2,222.8,2574,222.8L2574,222.8z"/>
	</g>
	<g>
		<path class="st0" d="M686.3,95.6c-3.4,0-6.8-0.3-10.2-0.9c-3.4-0.6-6.6-1.3-9.5-2.3c-2.9-1-5.3-2.1-7.1-3.4l1.8-16.2
			c3.2,2,7,3.6,11.4,4.9c4.4,1.2,8.7,1.9,12.8,1.9c3.7,0,6.6-0.6,8.6-1.9c2-1.2,2.9-3,2.9-5.4c0-1.4-0.4-2.6-1.1-3.5
			c-0.8-1-2.1-1.9-4-2.7c-1.9-0.8-4.5-1.8-7.9-2.8c-8.2-2.3-14.1-5.2-17.7-8.9c-3.6-3.7-5.4-8.6-5.4-14.7c0-7.3,2.6-13,7.8-17.1
			c5.2-4.2,12.2-6.2,21.2-6.2c4.3,0,8.6,0.5,12.9,1.6c4.3,1.1,7.9,2.5,10.8,4.3L710.9,38c-2.7-1.7-5.9-3.1-9.6-4.1
			c-3.8-1-7.3-1.5-10.6-1.5c-6.9,0-10.4,2.2-10.4,6.7c0,1.9,0.8,3.5,2.4,4.6c1.6,1.1,4.6,2.3,8.9,3.6c9.1,2.6,15.6,5.8,19.5,9.5
			c3.9,3.7,5.9,8.6,5.9,14.6c0,7.7-2.7,13.6-8,17.9C703.4,93.5,695.9,95.6,686.3,95.6z"/>
		<path class="st0" d="M721.4,94l29.8-76h20.9l29.8,76h-21.2l-5.9-17.7h-27.6L741.3,94H721.4z M752.2,61.2h17.6L761,34.5L752.2,61.2
			z"/>
		<path class="st0" d="M811.9,94V18h51.8v15.9h-32.2v16.6h27.9v15.9h-27.9V94H811.9z"/>
		<path class="st0" d="M875.7,94V18h52.9v15.3h-34.4v14.6h30.3v15.3h-30.3v15.5H930V94H875.7z"/>
		<path class="st0" d="M959.2,94L989,18h20.9l29.8,76h-21.2l-5.9-17.7H985L979.1,94H959.2z M990,61.2h17.6l-8.8-26.7L990,61.2z"/>
		<path class="st0" d="M1049.6,94V18h17.3l34.6,46.4V18h18.4v76h-17.3L1068,47.5V94H1049.6z"/>
		<path class="st0" d="M1135.8,94V18h30.4c13.9,0,24.6,3.3,32,9.9c7.4,6.6,11.1,15.9,11.1,28.1c0,8-1.7,14.8-5.2,20.5
			c-3.4,5.7-8.4,10-14.9,13s-14.3,4.5-23.5,4.5H1135.8z M1164.9,33.9h-9.2v44.2h9.2c15.7,0,23.5-7.4,23.5-22.1
			C1188.4,41.3,1180.6,33.9,1164.9,33.9z"/>
		<path class="st0" d="M1266.3,95.6c-3.4,0-6.8-0.3-10.2-0.9c-3.4-0.6-6.6-1.3-9.5-2.3c-2.9-1-5.3-2.1-7.1-3.4l1.8-16.2
			c3.2,2,7,3.6,11.4,4.9c4.4,1.2,8.7,1.9,12.8,1.9c3.7,0,6.6-0.6,8.5-1.9c2-1.2,3-3,3-5.4c0-1.4-0.4-2.6-1.2-3.5
			c-0.8-1-2.1-1.9-4-2.7c-1.9-0.8-4.5-1.8-7.9-2.8c-8.2-2.3-14.1-5.2-17.7-8.9c-3.6-3.7-5.4-8.6-5.4-14.7c0-7.3,2.6-13,7.8-17.1
			c5.2-4.2,12.2-6.2,21.2-6.2c4.3,0,8.6,0.5,13,1.6c4.3,1.1,7.9,2.5,10.8,4.3l-2.5,15.7c-2.7-1.7-5.9-3.1-9.7-4.1
			c-3.8-1-7.3-1.5-10.7-1.5c-6.9,0-10.4,2.2-10.4,6.7c0,1.9,0.8,3.5,2.4,4.6c1.6,1.1,4.6,2.3,8.9,3.6c9.1,2.6,15.6,5.8,19.5,9.5
			c3.9,3.7,5.9,8.6,5.9,14.6c0,7.7-2.7,13.6-8.1,17.9C1283.5,93.5,1276,95.6,1266.3,95.6z"/>
		<path class="st0" d="M1309.6,94V18h52.9v15.3h-34.4v14.6h30.3v15.3h-30.3v15.5h35.8V94H1309.6z"/>
		<path class="st0" d="M1413.8,95.1c-8.5,0-15.8-1.6-21.9-4.8c-6.2-3.2-10.9-7.6-14.2-13.5c-3.3-5.8-5-12.7-5-20.7
			c0-5.8,1-11.1,3-15.9c2-4.8,4.9-8.9,8.6-12.4s8.1-6.2,13.2-8.1s10.7-2.9,16.8-2.9c4.3,0,8.7,0.5,13.1,1.6c4.4,1.1,8,2.5,11,4.3
			l-3.2,16.7c-3.1-1.5-6.4-2.7-9.8-3.6c-3.4-0.9-6.7-1.3-9.8-1.3c-6.8,0-12.2,1.9-16.2,5.9c-4,3.9-6,9.1-6,15.6c0,6.5,2,11.7,6,15.5
			c4,3.8,9.4,5.8,16.2,5.8c3.2,0,6.7-0.5,10.6-1.6c3.9-1.1,7.4-2.5,10.6-4.4l2.1,17.5c-3.1,1.9-6.9,3.4-11.5,4.5
			C1422.9,94.5,1418.4,95.1,1413.8,95.1z"/>
		<path class="st0" d="M1487.4,95.6c-11.2,0-19.8-3-25.9-9c-6.1-6-9.1-14.5-9.1-25.5V18h20.3v41.7c0,12.1,4.9,18.2,14.7,18.2
			c9.8,0,14.7-6.1,14.7-18.2V18h20.3v43.1c0,11.1-3,19.6-9.1,25.5C1507.4,92.6,1498.7,95.6,1487.4,95.6z"/>
		<path class="st0" d="M1537.8,94V18h27.7c9.3,0,16.6,2.3,21.9,6.9c5.2,4.6,7.8,10.9,7.8,19c0,4.3-1,8.2-3.1,11.8
			c-2.1,3.5-4.8,6.4-8.1,8.6l18.6,29.7h-22.1l-13.3-24.4H1557V94H1537.8z M1562.8,32.7h-5.8v22.2h5.6c8.7,0,13.1-3.7,13.1-11.2
			C1575.7,36.4,1571.4,32.7,1562.8,32.7z"/>
		<path class="st0" d="M1612.7,94V18h52.9v15.3h-34.4v14.6h30.3v15.3h-30.3v15.5h35.8V94H1612.7z"/>
		<path class="st0" d="M1725.4,95.6c-3.4,0-6.8-0.3-10.2-0.9c-3.4-0.6-6.6-1.3-9.5-2.3c-2.9-1-5.3-2.1-7.1-3.4l1.8-16.2
			c3.2,2,7,3.6,11.4,4.9c4.4,1.2,8.7,1.9,12.8,1.9c3.7,0,6.6-0.6,8.5-1.9c2-1.2,3-3,3-5.4c0-1.4-0.4-2.6-1.2-3.5
			c-0.8-1-2.1-1.9-4-2.7c-1.9-0.8-4.5-1.8-7.9-2.8c-8.2-2.3-14.1-5.2-17.7-8.9c-3.6-3.7-5.4-8.6-5.4-14.7c0-7.3,2.6-13,7.8-17.1
			c5.2-4.2,12.2-6.2,21.2-6.2c4.3,0,8.6,0.5,13,1.6c4.3,1.1,7.9,2.5,10.8,4.3L1750,38c-2.7-1.7-5.9-3.1-9.7-4.1
			c-3.8-1-7.3-1.5-10.7-1.5c-6.9,0-10.4,2.2-10.4,6.7c0,1.9,0.8,3.5,2.4,4.6c1.6,1.1,4.6,2.3,8.9,3.6c9.1,2.6,15.6,5.8,19.5,9.5
			c3.9,3.7,5.9,8.6,5.9,14.6c0,7.7-2.7,13.6-8.1,17.9C1742.6,93.5,1735.1,95.6,1725.4,95.6z"/>
		<path class="st0" d="M1791.8,95.6c-3.4,0-6.8-0.3-10.2-0.9c-3.4-0.6-6.6-1.3-9.5-2.3c-2.9-1-5.3-2.1-7.1-3.4l1.8-16.2
			c3.2,2,7,3.6,11.4,4.9c4.4,1.2,8.7,1.9,12.8,1.9c3.7,0,6.6-0.6,8.5-1.9c2-1.2,3-3,3-5.4c0-1.4-0.4-2.6-1.2-3.5
			c-0.8-1-2.1-1.9-4-2.7c-1.9-0.8-4.5-1.8-7.9-2.8c-8.2-2.3-14.1-5.2-17.7-8.9c-3.6-3.7-5.4-8.6-5.4-14.7c0-7.3,2.6-13,7.8-17.1
			c5.2-4.2,12.2-6.2,21.2-6.2c4.3,0,8.6,0.5,13,1.6c4.3,1.1,7.9,2.5,10.8,4.3l-2.5,15.7c-2.7-1.7-5.9-3.1-9.7-4.1
			c-3.8-1-7.3-1.5-10.7-1.5c-6.9,0-10.4,2.2-10.4,6.7c0,1.9,0.8,3.5,2.4,4.6c1.6,1.1,4.6,2.3,8.9,3.6c9.1,2.6,15.6,5.8,19.5,9.5
			c3.9,3.7,5.9,8.6,5.9,14.6c0,7.7-2.7,13.6-8.1,17.9C1809,93.5,1801.5,95.6,1791.8,95.6z"/>
		<path class="st0" d="M1835.1,94V18h20.3v59.7h32.2V94H1835.1z"/>
		<path class="st0" d="M1920.4,94V18h52.9v15.3h-34.4v14.6h30.3v15.3h-30.3v15.5h35.8V94H1920.4z"/>
		<path class="st0" d="M1988.3,94V18h17.3l34.6,46.4V18h18.4v76h-17.3l-34.6-46.5V94H1988.3z"/>
		<path class="st0" d="M2112.1,95.1c-8.5,0-15.8-1.6-21.9-4.8c-6.2-3.2-10.9-7.6-14.2-13.5c-3.3-5.8-5-12.7-5-20.7
			c0-5.8,1-11.1,3-15.9c2-4.8,4.9-8.9,8.6-12.4s8.1-6.2,13.2-8.1s10.7-2.9,16.8-2.9c4.3,0,8.7,0.5,13.1,1.6c4.4,1.1,8,2.5,11,4.3
			l-3.2,16.7c-3.1-1.5-6.4-2.7-9.8-3.6c-3.4-0.9-6.7-1.3-9.8-1.3c-6.8,0-12.2,1.9-16.2,5.9c-4,3.9-6,9.1-6,15.6c0,6.5,2,11.7,6,15.5
			c4,3.8,9.4,5.8,16.2,5.8c3.2,0,6.7-0.5,10.6-1.6c3.9-1.1,7.4-2.5,10.6-4.4l2.1,17.5c-3.1,1.9-6.9,3.4-11.5,4.5
			C2121.2,94.5,2116.7,95.1,2112.1,95.1z"/>
		<path class="st0" d="M2150.3,94V18h27.7c9.3,0,16.6,2.3,21.9,6.9c5.2,4.6,7.8,10.9,7.8,19c0,4.3-1,8.2-3.1,11.8
			c-2.1,3.5-4.8,6.4-8.1,8.6l18.6,29.7H2193l-13.3-24.4h-10.2V94H2150.3z M2175.3,32.7h-5.8v22.2h5.6c8.7,0,13.1-3.7,13.1-11.2
			C2188.2,36.4,2183.9,32.7,2175.3,32.7z"/>
		<path class="st0" d="M2237.8,94V63.1L2210.4,18h22.3l15.4,30.2l15.4-30.2h21.7l-27.5,45.1V94H2237.8z"/>
		<path class="st0" d="M2293.9,94V18h27.7c6.1,0,11.4,1,15.9,3.1c4.4,2.1,7.8,5.1,10.2,9c2.4,3.9,3.6,8.5,3.6,13.8
			c0,8.1-2.6,14.5-7.9,19.1c-5.3,4.6-12.5,7-21.8,7h-8.5v24H2293.9z M2318.6,32.7h-5.5v22.5h5.5c8.8,0,13.2-3.8,13.2-11.3
			C2331.8,36.4,2327.4,32.7,2318.6,32.7z"/>
		<path class="st0" d="M2381,94V34.3h-23.3V18h66.9v16.3h-23.3V94H2381z"/>
		<path class="st0" d="M2436,94V18h52.9v15.3h-34.4v14.6h30.3v15.3h-30.3v15.5h35.8V94H2436z"/>
		<path class="st0" d="M2503.9,94V18h30.4c13.9,0,24.6,3.3,32,9.9c7.4,6.6,11.1,15.9,11.1,28.1c0,8-1.7,14.8-5.2,20.5
			c-3.4,5.7-8.4,10-14.9,13S2543,94,2533.8,94H2503.9z M2533.1,33.9h-9.2v44.2h9.2c15.7,0,23.5-7.4,23.5-22.1
			C2556.6,41.3,2548.8,33.9,2533.1,33.9z"/>
		<path class="st0" d="M2642.9,94V18h27.7c6.1,0,11.4,1,15.9,3.1c4.4,2.1,7.8,5.1,10.2,9c2.4,3.9,3.6,8.5,3.6,13.8
			c0,8.1-2.6,14.5-7.9,19.1c-5.3,4.6-12.5,7-21.8,7h-8.5v24H2642.9z M2667.6,32.7h-5.5v22.5h5.5c8.8,0,13.2-3.8,13.2-11.3
			C2680.8,36.4,2676.4,32.7,2667.6,32.7z"/>
		<path class="st0" d="M2698.9,94l29.8-76h20.9l29.8,76h-21.2l-5.9-17.7h-27.6l-5.9,17.7H2698.9z M2729.7,61.2h17.6l-8.8-26.7
			L2729.7,61.2z"/>
		<path class="st0" d="M2798.8,94V63.1L2771.4,18h22.3l15.4,30.2l15.4-30.2h21.7l-27.5,45.1V94H2798.8z"/>
		<path class="st0" d="M2854.9,94V18h21.4l20.4,42.4l20.4-42.4h20.9v76h-18.6V46.5l-15.1,31.2h-15.6l-15.2-31.4V94H2854.9z"/>
		<path class="st0" d="M2953.8,94V18h52.9v15.3h-34.4v14.6h30.3v15.3h-30.3v15.5h35.8V94H2953.8z"/>
		<path class="st0" d="M3021.7,94V18h17.3l34.6,46.4V18h18.4v76h-17.3l-34.6-46.5V94H3021.7z"/>
		<path class="st0" d="M3126.7,94V34.3h-23.3V18h66.9v16.3H3147V94H3126.7z"/>
		<path class="st0" d="M3206.4,95.6c-3.4,0-6.8-0.3-10.2-0.9c-3.4-0.6-6.6-1.3-9.5-2.3c-2.9-1-5.3-2.1-7.1-3.4l1.8-16.2
			c3.2,2,7,3.6,11.4,4.9c4.4,1.2,8.7,1.9,12.8,1.9c3.7,0,6.6-0.6,8.5-1.9c2-1.2,3-3,3-5.4c0-1.4-0.4-2.6-1.2-3.5
			c-0.8-1-2.1-1.9-4-2.7c-1.9-0.8-4.5-1.8-7.9-2.8c-8.2-2.3-14.1-5.2-17.7-8.9c-3.6-3.7-5.4-8.6-5.4-14.7c0-7.3,2.6-13,7.8-17.1
			c5.2-4.2,12.2-6.2,21.2-6.2c4.3,0,8.6,0.5,13,1.6c4.3,1.1,7.9,2.5,10.8,4.3L3231,38c-2.7-1.7-5.9-3.1-9.7-4.1
			c-3.8-1-7.3-1.5-10.7-1.5c-6.9,0-10.4,2.2-10.4,6.7c0,1.9,0.8,3.5,2.4,4.6c1.6,1.1,4.6,2.3,8.9,3.6c9.1,2.6,15.6,5.8,19.5,9.5
			c3.9,3.7,5.9,8.6,5.9,14.6c0,7.7-2.7,13.6-8.1,17.9C3223.5,93.5,3216,95.6,3206.4,95.6z"/>
	</g>
</g>
</svg>
