<svg id="Capa_1" data-name="Capa 1" xmlns="http://www.w3.org/2000/svg" viewBox="0 0 439.63 303.19"><defs><style>.cls-1{fill:#92dbef;}.cls-2{fill:#202121;opacity:0.15;isolation:isolate;}.cls-3{fill:#263b80;}.cls-4{fill:#232c65;}.cls-5{fill:#139ad6;}</style></defs><path class="cls-1" d="M475.81,381.6a26,26,0,0,1-26,26H62.17a26,26,0,0,1-26-26V130.39a26,26,0,0,1,26-26H449.83a26,26,0,0,1,26,26V381.6Z" transform="translate(-36.19 -104.41)"/><path class="cls-2" d="M54.66,381.6V130.39a26,26,0,0,1,26-26H62.17a26,26,0,0,0-26,26V381.6a26,26,0,0,0,26,26H80.65A26,26,0,0,1,54.66,381.6Z" transform="translate(-36.19 -104.41)"/><path class="cls-3" d="M321.63,163.67c-9.63-11-27.53-16.51-52.3-16.51H200.52c-4.13,0-8.26,4.13-9.63,8.25L163.36,335.7c0,4.13,2.75,6.88,5.5,6.88h42.67l11-67.43v2.75c1.37-4.13,5.5-8.26,9.63-8.26h20.65c39.91,0,70.18-16.51,79.81-61.93v-4.13h0c1.38-17.89-1.37-28.9-11-39.91" transform="translate(-36.19 -104.41)"/><path class="cls-4" d="M332.63,207.71v-4.13l0-.4a39.32,39.32,0,0,0-6.49-3.66,61.08,61.08,0,0,0-20.85-4.2l0,0H285.23l0,0H243.16c-7.16.26-9.14,6-9.65,8.54l-11,71.29v2.75c1.38-4.13,5.5-8.26,9.63-8.26h20.65C292.73,269.64,323,253.13,332.63,207.71Z" transform="translate(-36.19 -104.41)"/><path class="cls-5" d="M346.15,220.64a36,36,0,0,0-13.49-17.46l0,.4v4.13c-9.63,45.42-39.9,61.93-79.81,61.93H232.17c-4.13,0-8.25,4.12-9.63,8.26v-1.06a10.61,10.61,0,0,0-.42,1.06l-7.78,47.43-2.81,17.25h0l-3.16,19.27c0,2.75,1.38,5.5,5.5,5.5h34.3c6.91,0,9.07-5.37,9.74-8.27l.29-1.79h0l6.59-40.86s.86-9.64,10.26-9.64h3.51c34.4,0,61.93-13.75,68.81-55C349.27,240.24,349.18,229.41,346.15,220.64Z" transform="translate(-36.19 -104.41)"/></svg>