<?xml version="1.0"?>
<svg xmlns="http://www.w3.org/2000/svg" xmlns:xlink="http://www.w3.org/1999/xlink" version="1.1" id="Capa_1" x="0px" y="0px" viewBox="0 0 512 512" style="enable-background:new 0 0 512 512;" xml:space="preserve" width="512px" height="512px"><g><g>
	<g>
		<g>
			<path d="M464,96.003h-67.52L384,44.163c-1.805-7.315-8.469-12.379-16-12.16H144c-7.531-0.219-14.195,4.845-16,12.16l-12.48,51.84     H48c-26.51,0-48,21.49-48,48v288c0,26.51,21.49,48,48,48h208v-32H48c-8.837,0-16-7.163-16-16v-288c0-8.837,7.163-16,16-16h80     c7.531,0.219,14.195-4.845,16-12.16l12.48-51.84h199.04l12.48,51.84c1.805,7.315,8.469,12.379,16,12.16h80     c8.837,0,16,7.163,16,16v144h32v-144C512,117.494,490.51,96.003,464,96.003z" data-original="#000000" class="active-path" data-old_color="#000000" fill="#0B0618"/>
			<path d="M384,288.003c0-70.692-57.308-128-128-128s-128,57.308-128,128s57.308,128,128,128v-32c-53.019,0-96-42.981-96-96     s42.981-96,96-96s96,42.981,96,96H384z" data-original="#000000" class="active-path" data-old_color="#000000" fill="#0B0618"/>
			<path d="M256,224.003c-35.346,0-64,28.654-64,64c0,35.346,28.654,64,64,64c35.346,0,64-28.654,64-64     C320,252.657,291.346,224.003,256,224.003z M256,320.003c-17.673,0-32-14.327-32-32c0-17.673,14.327-32,32-32     c17.673,0,32,14.327,32,32C288,305.677,273.673,320.003,256,320.003z" data-original="#000000" class="active-path" data-old_color="#000000" fill="#0B0618"/>
			<rect x="192" y="96.003" width="128" height="32" data-original="#000000" class="active-path" data-old_color="#000000" fill="#0B0618"/>
			<polygon points="448,320.003 416,320.003 416,384.003 352,384.003 352,416.003 416,416.003 416,480.003 448,480.003 448,416.003      512,416.003 512,384.003 448,384.003    " data-original="#000000" class="active-path" data-old_color="#000000" fill="#0B0618"/>
		</g>
	</g>
</g></g> </svg>
