<svg id="Layer_1" data-name="Layer 1" xmlns="http://www.w3.org/2000/svg" viewBox="0 0 27.86 27.86"><defs><style>.cls-1{opacity:0.5;}.cls-2{fill:#4d595d;fill-rule:evenodd;}.cls-3{fill:none;stroke:#dbe7f0;stroke-linecap:round;stroke-linejoin:round;stroke-width:1.1px;}</style></defs><g class="cls-1"><path class="cls-2" d="M610.38,417a13.35,13.35,0,0,0-2.93-8.35c-1.48-1.55-3.1-.58-3.55,6.67-.54,8.71-5.12,2.89-8.77,7s-12.12-3.35-9.93,1A13.38,13.38,0,0,0,610.38,417" transform="translate(-583.07 -403.06)"/><path class="cls-3" d="M597,403.61A13.38,13.38,0,1,1,583.62,417,13.38,13.38,0,0,1,597,403.61Z" transform="translate(-583.07 -403.06)"/><path class="cls-3" d="M597,403.61A13.38,13.38,0,1,1,583.62,417,13.38,13.38,0,0,1,597,403.61Z" transform="translate(-583.07 -403.06)"/><path class="cls-3" d="M584.67,411.78a22.46,22.46,0,0,0,8.23,2.2c5.3,0,6.51-3.26,12.78-3.38h3m-16.87,18.78a14.63,14.63,0,0,1,6.76-7.88c4.57-2.32,7.84-.4,11.23-.57" transform="translate(-583.07 -403.06)"/><path class="cls-3" d="M585.74,424.22a14.45,14.45,0,0,0,8.25-4c4.34-4.34,5.54-4.46,8.19-4.46,2.17,0,5.4,2.26,8.15,2.35m-18.74-13.39c2.79.43,6.15,1.3,8.3,3.08,1.68,1.39,4.57,1.29,7.45.68m-18.52-2.1c1,.22,2,.47,2.59.66,2,.66,3.82.9,3.3,2.34-.66,1.82-3.69.79-5.72.14a14.17,14.17,0,0,1-2.31-1.06m-3,7c2.67.39,6.4,1.29,6.78,3.35.26,1.43-2.7,2.23-6.1,2.68m9.15,8.44c2.33-2.46,8-7.45,14.77-5.78h0" transform="translate(-583.07 -403.06)"/></g></svg>