<svg id="Layer_1" data-name="Layer 1" xmlns="http://www.w3.org/2000/svg" viewBox="0 0 795 480"><defs><style>.cls-1{fill:#20c65a;}.cls-2{fill:#fff;}</style></defs><rect class="cls-1" width="795" height="480"/><path class="cls-2" d="M152.14,190a44.75,44.75,0,0,1,18-3.69,38.89,38.89,0,0,1,28.73,12.06,39.86,39.86,0,0,1,11.92,29.09,40.46,40.46,0,0,1-11.88,29.38,39.93,39.93,0,0,1-45.8,8.25,42.33,42.33,0,0,1-14.22-11.58v60.74h-10v-88.5a31.32,31.32,0,0,1,.74-7.16v-.2A40.51,40.51,0,0,1,150,191C150.75,190.63,151.45,190.29,152.14,190Zm-4.9,15.21a31.46,31.46,0,0,0-9,22.92,32.42,32.42,0,0,0,3.89,16.11,29.26,29.26,0,0,0,11.59,11.52,31.61,31.61,0,0,0,15.75,4.18,29.86,29.86,0,0,0,15.41-4.18,30.74,30.74,0,0,0,11.49-11.86,32.29,32.29,0,0,0,4.28-16A31.68,31.68,0,0,0,196.42,212,31.16,31.16,0,0,0,185,200.37a30.33,30.33,0,0,0-15.74-4.18A29.62,29.62,0,0,0,147.24,205.21Z"/><path class="cls-2" d="M264.27,186a39,39,0,0,1,30.14,13.14,41.14,41.14,0,0,1,10.84,28.5,40.71,40.71,0,0,1-11.47,28.75,41.51,41.51,0,0,1-58.7.33l-.33-.33a42.26,42.26,0,0,1-.61-57.19A38.94,38.94,0,0,1,264.27,186Zm0,9.9a29,29,0,0,0-21.6,9.29,31.25,31.25,0,0,0-9,22.5,32.37,32.37,0,0,0,4.14,16,29,29,0,0,0,11.25,11.43,31.84,31.84,0,0,0,30.84,0A28.9,28.9,0,0,0,291,243.68a32.59,32.59,0,0,0,4.09-16,31.34,31.34,0,0,0-9-22.5A29.09,29.09,0,0,0,264.27,195.92Z"/><path class="cls-2" d="M363.5,196.64,357,203.39q-8.21-7.9-15.86-7.9a12.06,12.06,0,0,0-8.46,3.22,10.08,10.08,0,0,0-3.53,7.74,10.89,10.89,0,0,0,2.95,7.17c1.91,2.45,5.94,5.27,12.12,8.42q11.25,5.81,15.37,11.24a20.83,20.83,0,0,1,3.94,12.42A22.14,22.14,0,0,1,356.82,262a23.2,23.2,0,0,1-17,6.75,30.83,30.83,0,0,1-13.05-2.9,27.4,27.4,0,0,1-10.21-8.15l6.43-7.26q7.77,8.77,16.45,8.77a14.72,14.72,0,0,0,10.33-3.87,12,12,0,0,0,1.48-16.89q-2.83-3.37-12.71-8.46-10.73-5.4-14.51-10.85a20.19,20.19,0,0,1-3.87-12.21A19.75,19.75,0,0,1,326.31,192a21.24,21.24,0,0,1,15.34-6Q352.45,186,363.5,196.64Z"/><path class="cls-2" d="M373.85,190H384.6L411,247.32,437.11,190h11l-36,78.74h-1.8Z"/><path class="cls-2" d="M461.9,189.89H472v78.74H461.9Z"/><path class="cls-2" d="M569.41,204.4l-8,5A33.54,33.54,0,0,0,533,195.49a32.86,32.86,0,0,0-23.94,9.27,30.26,30.26,0,0,0-9.51,22.5,32.25,32.25,0,0,0,4.36,16.26,30.59,30.59,0,0,0,12,11.81,36.54,36.54,0,0,0,45.53-9.63l8.15,5.29a37.89,37.89,0,0,1-15.19,13.12,49.38,49.38,0,0,1-21.73,4.63,42.71,42.71,0,0,1-31-11.86,38.56,38.56,0,0,1-12.31-28.79,41.56,41.56,0,0,1,21.58-36.58A45.93,45.93,0,0,1,533.39,186a47.49,47.49,0,0,1,15,2.43,42.39,42.39,0,0,1,12.4,6.19A32.9,32.9,0,0,1,569.41,204.4Z"/><path class="cls-2" d="M655.05,240.64l8.49,4.5a44.18,44.18,0,0,1-9.63,13.27,38.6,38.6,0,0,1-12.42,7.65,43.72,43.72,0,0,1-15.57,2.59q-19.26,0-30.1-12.6A42.6,42.6,0,0,1,585,227.57a42.15,42.15,0,0,1,9.33-26.68A37.56,37.56,0,0,1,625.43,186a38.82,38.82,0,0,1,32.1,15.3,42.21,42.21,0,0,1,8.62,26.86H595.42a32.26,32.26,0,0,0,8.77,22.49,27.89,27.89,0,0,0,20.9,8.8,33.62,33.62,0,0,0,11.7-2.11,30.86,30.86,0,0,0,9.65-5.58A46.6,46.6,0,0,0,655.05,240.64Zm0-21.17a33.23,33.23,0,0,0-5.87-12.91,28.37,28.37,0,0,0-10.32-7.83,31.52,31.52,0,0,0-13.5-3,28.84,28.84,0,0,0-19.8,7.47,34,34,0,0,0-9.13,16.31h58.62Z"/><path class="cls-2" d="M170.48,204.62a3.78,3.78,0,0,0-3.08-.81,25.34,25.34,0,0,0-20.25,21.69,3.65,3.65,0,0,0,.9,2.95,3.83,3.83,0,0,0,6.75-2A17.72,17.72,0,0,1,169,211.28a3.81,3.81,0,0,0,1.67-6.75Z"/><circle class="cls-2" cx="466.98" cy="172.9" r="7.15"/></svg>