<svg id="Layer_1" data-name="Layer 1" xmlns="http://www.w3.org/2000/svg" viewBox="0 0 416.32 115.04"><defs><style>.cls-1{fill:#28a745;}</style></defs><path class="cls-1" d="M18.07,18.78a34.4,34.4,0,0,1,14-2.86,30.12,30.12,0,0,1,22.25,9.35A30.88,30.88,0,0,1,63.55,47.8a31.45,31.45,0,0,1-9.19,22.77A29.73,29.73,0,0,1,32.27,80a30.22,30.22,0,0,1-13.41-3A33.08,33.08,0,0,1,7.79,68V115H0V46.48a25.21,25.21,0,0,1,.58-5.55v-.16c2.06-9,7.6-17,15.82-21.21C17,19.27,17.52,19,18.07,18.78ZM14.26,30.57a24.3,24.3,0,0,0-7,17.75,25.23,25.23,0,0,0,3.12,12.49,22.68,22.68,0,0,0,8.9,8.85,24.69,24.69,0,0,0,12.24,3.25,23.28,23.28,0,0,0,11.93-3.25,23.79,23.79,0,0,0,8.9-9.18A25,25,0,0,0,55.66,48.1a24.68,24.68,0,0,0-3.28-12.35,24,24,0,0,0-8.82-9A23.52,23.52,0,0,0,31.4,23.5,23,23,0,0,0,14.26,30.57Z" transform="translate(0)"/><path class="cls-1" d="M104.94,15.69A30.24,30.24,0,0,1,128.3,25.87,32,32,0,0,1,136.7,48a31.63,31.63,0,0,1-8.9,22.28q-8.89,9.54-22.86,9.54T82.07,70.24a32.75,32.75,0,0,1-.47-44.31A30.19,30.19,0,0,1,104.94,15.69Zm0,7.68a22.49,22.49,0,0,0-16.74,7.2A24.18,24.18,0,0,0,81.2,48a25.08,25.08,0,0,0,3.2,12.38,22.44,22.44,0,0,0,8.65,8.85,24.63,24.63,0,0,0,23.89,0,22.23,22.23,0,0,0,8.59-8.85A25.29,25.29,0,0,0,128.7,48a24.22,24.22,0,0,0-7-17.47A22.51,22.51,0,0,0,104.94,23.37Z" transform="translate(0)"/><path class="cls-1" d="M181.82,23.92l-5,5.23Q170.48,23,164.53,23a9.32,9.32,0,0,0-6.56,2.5,7.82,7.82,0,0,0-2.73,6,8.51,8.51,0,0,0,2.28,5.56q2.22,2.83,9.4,6.51,8.79,4.5,11.9,8.73A16.2,16.2,0,0,1,181.88,62a17.14,17.14,0,0,1-5.27,12.62,18,18,0,0,1-13.16,5.2,23.53,23.53,0,0,1-10.1-2.25,21.14,21.14,0,0,1-7.93-6.31l5-5.62q6,6.78,12.74,6.79a11.37,11.37,0,0,0,8-3,9.32,9.32,0,0,0,3.31-7.09,9.13,9.13,0,0,0-2.17-6q-2.18-2.61-9.85-6.56-8.3-4.17-11.24-8.4a15.65,15.65,0,0,1-3-9.46A15.35,15.35,0,0,1,153,20.33a16.49,16.49,0,0,1,11.93-4.59Q173.26,15.7,181.82,23.92Z" transform="translate(0)"/><path class="cls-1" d="M189.89,18.8h8.34l20.42,44.39L238.9,18.8h8.4l-27.93,61H218Z" transform="translate(0)"/><path class="cls-1" d="M258.07,18.69h7.84v61h-7.84Z" transform="translate(0)"/><path class="cls-1" d="M341.37,29.93l-6.23,3.89Q327.07,23,313.14,23,302,23,294.59,30.21a23.49,23.49,0,0,0-7.37,17.47,24.91,24.91,0,0,0,3.39,12.6,23.49,23.49,0,0,0,9.29,9.15A28.29,28.29,0,0,0,335.17,62L341.4,66a29.21,29.21,0,0,1-11.77,10.15,37.91,37.91,0,0,1-16.83,3.59q-14.42,0-23.95-9.18a29.81,29.81,0,0,1-9.54-22.31A32.2,32.2,0,0,1,296,20a35.59,35.59,0,0,1,17.44-4.26,37.17,37.17,0,0,1,11.6,1.88,32.65,32.65,0,0,1,9.6,4.81A25.62,25.62,0,0,1,341.37,29.93Z" transform="translate(0)"/><path class="cls-1" d="M407.74,58l6.56,3.5a34,34,0,0,1-7.45,10.29,30.14,30.14,0,0,1-9.62,5.92,34,34,0,0,1-12.07,2q-14.91,0-23.31-9.76a32.93,32.93,0,0,1-8.4-22.06,32.59,32.59,0,0,1,7.12-20.69q9-11.56,24.2-11.57,15.53,0,24.87,11.85,6.62,8.34,6.68,20.81h-54.8q.23,10.68,6.79,17.5a21.59,21.59,0,0,0,16.19,6.81A25.76,25.76,0,0,0,393.57,71a24.41,24.41,0,0,0,7.48-4.31A37,37,0,0,0,407.74,58Zm0-16.41a25.93,25.93,0,0,0-4.56-10,21.76,21.76,0,0,0-8-6.06,24.28,24.28,0,0,0-10.4-2.31A22.25,22.25,0,0,0,369.37,29q-4.68,4.23-7.07,12.63h45.4Z" transform="translate(0)"/><path class="cls-1" d="M32.27,30.11a2.91,2.91,0,0,0-2.39-.62A19.61,19.61,0,0,0,14.12,46.28a2.86,2.86,0,0,0,.71,2.29A3,3,0,0,0,20,47,13.73,13.73,0,0,1,31,35.27a2.93,2.93,0,0,0,2.37-2.88A3,3,0,0,0,32.27,30.11Z" transform="translate(0)"/><circle class="cls-1" cx="262.01" cy="5.54" r="5.54"/></svg>