<svg id="Layer_1" data-name="Layer 1" xmlns="http://www.w3.org/2000/svg" viewBox="0 0 795 480"><defs><style>.cls-1{fill:#201b7e;}.cls-2{fill:#fff;}</style></defs><rect class="cls-1" width="795" height="480"/><path class="cls-2" d="M185.16,228.78h6.41c10.4,0,16.88-5.38,16.88-14s-6.48-14.1-16.88-14.1h-17.3V238.5h11Zm0-19.28h5.69c4.14,0,6.35,1.8,6.35,5.28S195,220,190.85,220h-5.69Z"/><path class="cls-2" d="M217.86,238.55l3-7.27h15.55l2.94,7.27h11.5L234,200.65H223.28l-16.74,37.9ZM224.07,223l4.5-11.25,4.5,11.25Z"/><polygon class="cls-2" points="260.32 238.55 271.39 238.55 271.39 224.93 285.88 200.65 275.08 200.65 266.31 215.28 257.6 200.65 245.87 200.65 260.32 224.75 260.32 238.55"/><polygon class="cls-2" points="297.99 219.78 307.24 234.84 312.24 234.84 321.48 219.24 321.62 238.55 331.79 238.55 331.65 200.65 322.63 200.65 309.89 222.03 296.84 200.65 287.77 200.65 287.77 238.55 297.99 238.55 297.99 219.78"/><polygon class="cls-2" points="369.33 229.91 349.77 229.91 349.77 223.47 366.38 223.47 366.38 215.15 349.77 215.15 349.77 209.25 368.63 209.25 368.63 200.65 338.83 200.65 338.83 238.55 369.33 238.55 369.33 229.91"/><polygon class="cls-2" points="401.8 238.55 410.87 238.55 410.87 200.65 400.04 200.65 400.04 220.21 383.91 200.7 383.82 200.65 374.79 200.65 374.79 238.55 385.62 238.55 385.62 218.95 401.75 238.46 401.8 238.55"/><polygon class="cls-2" points="414.4 200.65 414.4 209.47 425.9 209.47 425.9 238.55 436.9 238.55 436.9 209.47 448.36 209.47 448.36 200.65 414.4 200.65"/><path class="cls-2" d="M186.17,251h-13v28.37h8.35v-7.31h4.62c7.8,0,12.6-4,12.6-10.53S194,251,186.17,251Zm4.19,10.57c0,2.5-1.62,3.83-4.66,3.83h-4.19v-7.74h4.19C188.78,257.68,190.36,259,190.36,261.59Z"/><path class="cls-2" d="M227.8,261.59c0-6.52-4.84-10.57-12.6-10.57h-13v28.37h8.32V272h4l5.07,7.4h9l-6.15-9A9.55,9.55,0,0,0,227.8,261.59Zm-8.41,0c0,2.5-1.62,3.83-4.66,3.83h-4.19v-7.74h4.19C217.77,257.68,219.39,259,219.39,261.59Z"/><path class="cls-2" d="M246,250.48c-9.12,0-15.76,6.23-15.76,14.76S236.87,280,246,280s15.75-6.21,15.75-14.76S255.12,250.48,246,250.48Zm7.31,14.71a7.21,7.21,0,0,1-6.61,7.75l-.7,0a7.77,7.77,0,1,1,7.3-8.2C253.32,264.9,253.32,265.05,253.32,265.19Z"/><path class="cls-2" d="M280,257.45a8,8,0,0,1,6.4,3.17l.13.18,5.33-4.86-.13-.18a15,15,0,0,0-12.15-5.31c-9,0-15.55,6.21-15.55,14.74S270.54,280,279.54,280a14.89,14.89,0,0,0,12.15-5.33l.13-.16-5.33-4.86-.13.18A7.91,7.91,0,0,1,280,273a7.77,7.77,0,0,1,0-15.51Z"/><polygon class="cls-2" points="303.14 268.21 315.52 268.21 315.52 261.86 303.14 261.86 303.14 257.59 317.21 257.59 317.21 251.01 294.86 251.01 294.86 279.39 317.73 279.39 317.73 272.82 303.14 272.82 303.14 268.21"/><path class="cls-2" d="M333.68,262c-2.77-.63-5.2-1.15-5.2-2.66s1.55-2.25,4.28-2.25a16.35,16.35,0,0,1,7.63,2.12l.2.13,2.61-6.25H343a21.45,21.45,0,0,0-10.26-2.48c-7.63,0-12.6,3.67-12.6,9.27,0,6.42,5.85,7.74,10.57,8.8,2.86.63,5.29,1.19,5.29,2.79s-1.46,2.07-4.32,2.07a17.11,17.11,0,0,1-9-2.74l-.23-.14-2.79,6.21h.14a22.52,22.52,0,0,0,11.9,3.13c9.3,0,12.6-5,12.6-9.25C344.3,264.27,338.18,263,333.68,262Z"/><path class="cls-2" d="M359.49,262c-2.77-.63-5.2-1.15-5.2-2.66s1.56-2.25,4.28-2.25a16.35,16.35,0,0,1,7.63,2.12l.22.13,2.59-6.25h-.18a21.22,21.22,0,0,0-10.26-2.48c-7.61,0-12.6,3.67-12.6,9.27,0,6.42,5.87,7.74,10.57,8.8,2.86.63,5.29,1.19,5.29,2.79s-1.46,2.07-4.32,2.07a17.22,17.22,0,0,1-9-2.74l-.23-.14-2.76,6.21h.13A22.47,22.47,0,0,0,357.53,280c9.3,0,12.61-5,12.61-9.25C370.11,264.27,364,263,359.49,262Z"/><rect class="cls-2" x="373.29" y="251.02" width="8.33" height="28.38"/><polygon class="cls-2" points="405.62 265.51 393.7 251.1 393.65 251.01 386.81 251.01 386.81 279.39 395 279.39 395 264.9 406.91 279.3 407 279.39 413.81 279.39 413.81 251.01 405.62 251.01 405.62 265.51"/><path class="cls-2" d="M433.69,257.45a8.37,8.37,0,0,1,6.61,3l.14.18,5.42-4.88-.14-.16a15.4,15.4,0,0,0-12.37-5.2c-9.16,0-15.75,6.21-15.75,14.74s6.57,14.76,15.59,14.76a20.71,20.71,0,0,0,11.86-3.6h0v-11.9h-7.4v7.76a9.76,9.76,0,0,1-4,.83,7.76,7.76,0,0,1,0-15.5Z"/><path class="cls-2" d="M616.1,238.68c-5.2-14.06-3.22-30.67,5-41.43l.72-.92-.81-.83c-9.25-9.86-18.95-19.56-28.81-28.8l-.92-.91-.92.86a32.13,32.13,0,0,1-20.77,7.65h0a35.35,35.35,0,0,1-21.18-7.69l-1-.77-.83,1c-3.9,4.5-11.55,7.2-20.51,7.2s-17-2.79-21-7.2l-1-1.06-1,1c-2.52,2.45-5,4.92-7.54,7.42-7,6.89-14.22,14-21,21.38l-.78.88.74.92c7.9,9.61,10.1,27.81,5,41.38-.5,1.31-1,2.59-1.55,3.83a41.27,41.27,0,0,0-3.78,13.5A40.49,40.49,0,0,0,490,292.53a40,40,0,0,0,15,7.27A53.06,53.06,0,0,0,517,301c2.59,0,5.29.14,8.24.41,8.33.69,15.1,4.5,21.33,11.76l1,1.13,1.06-1c5.89-5.81,12-11.1,22.1-11.84,2.74-.22,5.24-.27,7.67-.36a57,57,0,0,0,12.29-1.19,39.89,39.89,0,0,0,30.76-36c.7-9.65-1.51-15.21-4-21.65C616.89,241,616.55,239.88,616.1,238.68ZM615.49,264a32.9,32.9,0,0,1-25.43,29.55,48.13,48.13,0,0,1-10.84,1c-2.59,0-5.34.13-8.38.36a39.17,39.17,0,0,0-23,9.88,37.88,37.88,0,0,0-22.64-9.84c-3.35-.31-6.25-.36-9-.45a48,48,0,0,1-10.49-.92,34.05,34.05,0,0,1-12.4-5.94,33.23,33.23,0,0,1-13-30.31,35,35,0,0,1,3.35-11.41c.56-1.38,1.15-2.75,1.66-4.19a53.26,53.26,0,0,0,2.95-12.2v-15a51.23,51.23,0,0,0-5.94-18.81c5.74-6,11.77-12,17.58-17.67,1.1-1.1,2.25-2.25,3.35-3.26a43.92,43.92,0,0,0,22.25,5.56,41.61,41.61,0,0,0,22.82-6.14,43.17,43.17,0,0,0,22.26,6.48h.13a42.07,42.07,0,0,0,21.85-6.12c7.23,6.88,14.36,14,21.23,21.28a53.3,53.3,0,0,0-6.4,22.24h0v6.75a57.33,57.33,0,0,0,3.4,16.88c.5,1.28,1,2.45,1.42,3.64C614.34,251.51,616.1,256,615.49,264Z"/><path class="cls-2" d="M561.28,221.81H562a10.25,10.25,0,0,0,7.59-4.28,28.15,28.15,0,1,0-19.74,48.25,31.94,31.94,0,0,0,13.71-3.49l8.41,4V239.88h-10.8v-18Z"/><path class="cls-2" d="M567.06,224V236.3H578.2v29.91h16.88V210.4H578.16C577.73,217.67,573.41,223,567.06,224Z"/><path class="cls-2" d="M515.87,237.78a31.77,31.77,0,0,1,12-24.93V210.4H511c-.45,7.27-4.77,12.55-11.11,13.5v12.29h11.25v29.9H528v-3.55A31.68,31.68,0,0,1,515.87,237.78Z"/></svg>