<svg id="Layer_1" data-name="Layer 1" xmlns="http://www.w3.org/2000/svg" viewBox="0 0 503.56 183.55"><defs><style>.cls-1{fill:#fff;stroke:#6831e4;stroke-miterlimit:10;}.cls-2{fill:#0044bd;}</style></defs><rect class="cls-1" x="0.5" y="0.5" width="502.56" height="182.55" rx="20.04"/><path class="cls-2" d="M157.15,87H160c4.62,0,7.5-2.39,7.5-6.22s-2.88-6.27-7.5-6.27h-7.69V91.32h4.89Zm0-8.57h2.53c1.84,0,2.82.8,2.82,2.35s-1,2.33-2.82,2.33h-2.53Z" transform="translate(0.04 -0.94)"/><path class="cls-2" d="M171.68,91.34,173,88.11h6.91l1.31,3.23h5.11L178.86,74.5h-4.77l-7.44,16.84Zm2.76-6.91,2-5,2,5Z" transform="translate(0.04 -0.94)"/><polygon class="cls-2" points="190.59 90.4 195.51 90.4 195.51 84.35 201.95 73.56 197.15 73.56 193.25 80.06 189.38 73.56 184.17 73.56 190.59 84.27 190.59 90.4"/><polygon class="cls-2" points="207.33 82.06 211.44 88.75 213.66 88.75 217.77 81.82 217.83 90.4 222.35 90.4 222.29 73.56 218.28 73.56 212.62 83.06 206.82 73.56 202.79 73.56 202.79 90.4 207.33 90.4 207.33 82.06"/><polygon class="cls-2" points="239.03 86.56 230.34 86.56 230.34 83.7 237.72 83.7 237.72 80 230.34 80 230.34 77.38 238.72 77.38 238.72 73.56 225.48 73.56 225.48 90.4 239.03 90.4 239.03 86.56"/><polygon class="cls-2" points="253.46 90.4 257.49 90.4 257.49 73.56 252.68 73.56 252.68 82.25 245.51 73.58 245.47 73.56 241.46 73.56 241.46 90.4 246.27 90.4 246.27 81.69 253.44 90.36 253.46 90.4"/><polygon class="cls-2" points="259.06 73.56 259.06 77.48 264.17 77.48 264.17 90.4 269.06 90.4 269.06 77.48 274.15 77.48 274.15 73.56 259.06 73.56"/><path class="cls-2" d="M157.6,96.88h-5.78v12.61h3.71v-3.25h2.05c3.47,0,5.6-1.78,5.6-4.68S161.07,96.88,157.6,96.88Zm1.86,4.7c0,1.11-.72,1.7-2.07,1.7h-1.86V99.84h1.86C158.76,99.84,159.46,100.44,159.46,101.58Z" transform="translate(0.04 -0.94)"/><path class="cls-2" d="M176.1,101.58c0-2.9-2.15-4.7-5.6-4.7h-5.77v12.61h3.7V106.2h1.76l2.25,3.29h4l-2.73-4A4.25,4.25,0,0,0,176.1,101.58Zm-3.74,0c0,1.11-.72,1.7-2.07,1.7h-1.86V99.84h1.86C171.64,99.84,172.36,100.44,172.36,101.58Z" transform="translate(0.04 -0.94)"/><path class="cls-2" d="M184.19,96.64c-4.05,0-7,2.77-7,6.56s2.94,6.56,7,6.56,7-2.76,7-6.56S188.24,96.64,184.19,96.64Zm3.25,6.54a3.2,3.2,0,0,1-3.25,3.45,3.45,3.45,0,1,1,3.25-3.45Z" transform="translate(0.04 -0.94)"/><path class="cls-2" d="M199.28,99.74a3.53,3.53,0,0,1,2.84,1.41l.06.08,2.37-2.16-.06-.08a6.64,6.64,0,0,0-5.4-2.36c-4,0-6.91,2.76-6.91,6.55s2.91,6.56,6.91,6.56a6.62,6.62,0,0,0,5.4-2.37l.06-.07-2.37-2.16-.06.08a3.5,3.5,0,0,1-2.84,1.41,3.45,3.45,0,0,1,0-6.89Z" transform="translate(0.04 -0.94)"/><polygon class="cls-2" points="209.62 103.58 215.12 103.58 215.12 100.76 209.62 100.76 209.62 98.86 215.87 98.86 215.87 95.94 205.94 95.94 205.94 108.55 216.1 108.55 216.1 105.63 209.62 105.63 209.62 103.58"/><path class="cls-2" d="M223.15,101.76c-1.23-.28-2.31-.51-2.31-1.18s.69-1,1.9-1a7.25,7.25,0,0,1,3.39.94l.09.06,1.16-2.78-.08,0a9.52,9.52,0,0,0-4.56-1.1c-3.39,0-5.6,1.63-5.6,4.12,0,2.85,2.6,3.44,4.7,3.91,1.27.28,2.35.53,2.35,1.24s-.65.92-1.92.92a7.6,7.6,0,0,1-4-1.22l-.1-.06-1.24,2.76.06,0a10,10,0,0,0,5.29,1.39c4.13,0,5.6-2.21,5.6-4.11C227.87,102.77,225.15,102.19,223.15,101.76Z" transform="translate(0.04 -0.94)"/><path class="cls-2" d="M234.62,101.76c-1.23-.28-2.31-.51-2.31-1.18s.69-1,1.9-1a7.25,7.25,0,0,1,3.39.94l.1.06,1.15-2.78-.08,0a9.49,9.49,0,0,0-4.56-1.1c-3.38,0-5.6,1.63-5.6,4.12,0,2.85,2.61,3.44,4.7,3.91,1.27.28,2.35.53,2.35,1.24s-.65.92-1.92.92a7.63,7.63,0,0,1-4-1.22l-.1-.06-1.23,2.76.06,0a10,10,0,0,0,5.28,1.39c4.13,0,5.6-2.21,5.6-4.11C239.34,102.77,236.6,102.19,234.62,101.76Z" transform="translate(0.04 -0.94)"/><rect class="cls-2" x="240.79" y="95.94" width="3.7" height="12.61"/><polygon class="cls-2" points="255.16 102.38 249.86 95.98 249.84 95.94 246.8 95.94 246.8 108.55 250.44 108.55 250.44 102.11 255.73 108.51 255.77 108.55 258.8 108.55 258.8 95.94 255.16 95.94 255.16 102.38"/><path class="cls-2" d="M267.59,99.74a3.72,3.72,0,0,1,2.94,1.35l.06.08L273,99l-.06-.07a6.85,6.85,0,0,0-5.5-2.31c-4.07,0-7,2.76-7,6.55s2.92,6.56,6.93,6.56a9.2,9.2,0,0,0,5.27-1.6l0,0v-5.29h-3.29v3.45a4.39,4.39,0,0,1-1.8.37,3.45,3.45,0,0,1,0-6.89Z" transform="translate(0.04 -0.94)"/><path class="cls-2" d="M348.65,91.4c-2.31-6.25-1.43-13.63,2.23-18.41l.32-.41-.36-.37c-4.11-4.38-8.42-8.69-12.8-12.8l-.41-.4-.41.38a14.27,14.27,0,0,1-9.23,3.4h0a15.69,15.69,0,0,1-9.41-3.42l-.45-.34-.37.43c-1.73,2-5.13,3.2-9.11,3.2s-7.54-1.24-9.32-3.2l-.43-.47-.45.46c-1.12,1.09-2.23,2.19-3.35,3.3-3.11,3.06-6.32,6.23-9.34,9.5l-.35.39.33.41c3.51,4.27,4.49,12.36,2.24,18.39-.22.58-.45,1.15-.69,1.7a18.5,18.5,0,0,0-1.68,6,18,18,0,0,0,7,16.19,17.79,17.79,0,0,0,6.67,3.23,23.58,23.58,0,0,0,5.33.51c1.15,0,2.35.06,3.66.18,3.7.31,6.71,2,9.48,5.23l.43.5.47-.45c2.62-2.58,5.34-4.93,9.82-5.26,1.22-.1,2.33-.12,3.41-.16a25.17,25.17,0,0,0,5.46-.53,17.72,17.72,0,0,0,13.67-16c.31-4.29-.67-6.76-1.78-9.62C349,92.44,348.85,91.93,348.65,91.4Zm-.27,11.26a14.62,14.62,0,0,1-11.3,13.13,21.39,21.39,0,0,1-4.82.43c-1.15,0-2.37.06-3.72.16a17.42,17.42,0,0,0-10.24,4.39,16.84,16.84,0,0,0-10.06-4.37c-1.49-.14-2.78-.16-4-.2a21.47,21.47,0,0,1-4.66-.41,15.08,15.08,0,0,1-5.51-2.64,14.77,14.77,0,0,1-5.79-13.47,15.71,15.71,0,0,1,1.49-5.07c.25-.61.51-1.22.74-1.86a23.58,23.58,0,0,0,1.31-5.42V80.65a22.73,22.73,0,0,0-2.64-8.36c2.55-2.68,5.23-5.31,7.81-7.85.49-.49,1-1,1.49-1.45a19.53,19.53,0,0,0,9.89,2.47,18.47,18.47,0,0,0,10.14-2.73,19.15,19.15,0,0,0,9.89,2.88h.06a18.71,18.71,0,0,0,9.71-2.72c3.21,3.06,6.38,6.23,9.43,9.46a23.63,23.63,0,0,0-2.84,9.88h0v3a25.33,25.33,0,0,0,1.51,7.5c.22.57.43,1.09.63,1.62C347.87,97.1,348.65,99.09,348.38,102.66Z" transform="translate(0.04 -0.94)"/><path class="cls-2" d="M324.29,83.9l.34,0A4.54,4.54,0,0,0,328,82a12.51,12.51,0,1,0-8.77,21.44,14.15,14.15,0,0,0,6.09-1.55l3.74,1.76V91.93h-4.8v-8Z" transform="translate(0.04 -0.94)"/><path class="cls-2" d="M326.86,84.88v5.46h4.95v13.29h7.5V78.83h-7.52C331.6,82.06,329.68,84.41,326.86,84.88Z" transform="translate(0.04 -0.94)"/><path class="cls-2" d="M304.11,91a14.12,14.12,0,0,1,5.34-11.08V78.83h-7.51c-.2,3.23-2.12,5.58-4.94,6v5.46H302v13.29h7.5V102A14.08,14.08,0,0,1,304.11,91Z" transform="translate(0.04 -0.94)"/></svg>