<?xml version="1.0"?>
<svg xmlns="http://www.w3.org/2000/svg" xmlns:xlink="http://www.w3.org/1999/xlink" version="1.1" id="Capa_1" x="0px" y="0px" viewBox="0 0 512 512" style="enable-background:new 0 0 512 512;" xml:space="preserve" width="512px" height="512px"><g><g>
	<g>
		<path d="M435.909,289.281l-74.757-21.851l-15.828-146.488c-2.187-20.248-19.193-35.515-39.558-35.515h-9.437v-3.793    C296.331,36.621,259.71,0,214.697,0s-81.634,36.621-81.634,81.634v3.793h-9.437c-20.364,0-37.37,15.268-39.558,35.514    L60.063,343.119c-2.336,21.624,4.656,43.309,19.187,59.494c14.53,16.185,35.338,25.468,57.088,25.468h106.787v1.995    c0,18.677,10.263,35.525,26.819,44.095l54.529,32.051l0.843,0.46c7.026,3.546,14.729,5.319,22.437,5.319    c7.704,0,15.413-1.773,22.437-5.319l0.43-0.216l54.944-32.295c16.555-8.571,26.817-25.418,26.817-44.094V310.911    C452.38,300.816,445.621,291.959,435.909,289.281z M163.104,81.634c0-28.449,23.144-51.593,51.593-51.593    s51.593,23.144,51.593,51.593v3.793H163.104V81.634z M259.602,289.279c-9.715,2.676-16.477,11.536-16.477,21.632v87.129H136.337    c-13.428,0-25.764-5.502-34.734-15.495c-8.971-9.993-13.117-22.848-11.675-36.198l24.007-222.179c0.536-4.96,4.702-8.7,9.691-8.7    h9.437v21.396c0,8.295,6.725,15.02,15.02,15.02s15.02-6.725,15.02-15.02v-21.396H266.29v21.396c0,8.295,6.725,15.02,15.02,15.02    s15.02-6.725,15.02-15.02v-21.396h9.437c4.989,0,9.155,3.74,9.691,8.7l15.584,144.233L259.602,289.279z M411.56,447.588    l-0.429,0.217l-54.849,32.238c-5.374,2.572-11.69,2.57-17.062,0.001l-54.434-31.996l-0.844-0.461    c-6.648-3.356-10.779-10.066-10.779-17.513V316.611l74.587-21.801l74.586,21.801v113.464h0.001    C422.339,437.524,418.209,444.234,411.56,447.588z" data-original="#000000" class="active-path" data-old_color="#000000" fill="#FF5E16"/>
	</g>
</g></g> </svg>
