<svg id="Layer_1" data-name="Layer 1" xmlns="http://www.w3.org/2000/svg" viewBox="0 0 110 15.66"><defs><style>.cls-1{fill:#ffca00;fill-rule:evenodd;}</style></defs><path class="cls-1" d="M8.2,0,5.78,5.16.37,6l3.92,4-.93,5.67L8.2,13,13,15.66,12.11,10,16,6l-5.41-.82ZM33.5,0,31.08,5.16,25.67,6l3.91,4-.92,5.67L33.5,13l4.84,2.68L37.41,10l3.92-4-5.41-.82ZM56.38,0,54,5.16,48.55,6l3.92,4-.92,5.67L56.38,13l4.84,2.68L60.3,10l3.91-4L58.8,5.16ZM79.27,0,76.85,5.16,71.44,6l3.92,4-.93,5.67L79.27,13l4.84,2.68L83.18,10,87.1,6l-5.41-.83ZM102.6,0l-2.4,5.15L94.82,6l3.89,4-.92,5.67L102.6,13l4.8,2.68L106.48,10l3.89-4L105,5.15Z" transform="translate(-0.37)"/></svg>