<?xml version="1.0" encoding="utf-8"?>
<!-- Generator: Adobe Illustrator 24.3.0, SVG Export Plug-In . SVG Version: 6.00 Build 0)  -->
<svg version="1.1" id="Layer_1" xmlns="http://www.w3.org/2000/svg" xmlns:xlink="http://www.w3.org/1999/xlink" x="0px" y="0px"
	 viewBox="0 0 111 16" style="enable-background:new 0 0 111 16;" xml:space="preserve">
<style type="text/css">
	.st0{fill-rule:evenodd;clip-rule:evenodd;fill:#FFCA00;}
</style>
<path class="st0" d="M8.2,0L5.8,5.2L0.4,6l3.9,4l-0.9,5.7L8.2,13l4.8,2.7L12.1,10L16,6l-5.4-0.8L8.2,0z M33.5,0l-2.4,5.2L25.7,6
	l3.9,4l-0.9,5.7l4.8-2.7l4.8,2.7L37.4,10l3.9-4l-5.4-0.8L33.5,0z M56.4,0L54,5.2L48.6,6l3.9,4l-0.9,5.7l4.8-2.7l4.8,2.7L60.3,10
	l3.9-4l-5.4-0.8L56.4,0z M79.3,0l-2.4,5.2L71.4,6l3.9,4l-0.9,5.7l4.8-2.7l4.8,2.7L83.2,10l3.9-4l-5.4-0.8L79.3,0z M102.6,0l-2.4,5.2
	L94.8,6l3.9,4l-0.9,5.7l4.8-2.7l4.8,2.7l-0.9-5.7l3.9-4L105,5.2L102.6,0z"/>
</svg>
