<svg id="Layer_1" data-name="Layer 1" xmlns="http://www.w3.org/2000/svg" viewBox="0 0 512 425.95"><defs><style>.cls-1{fill:#010529;}</style></defs><path class="cls-1" d="M503.82,236.11,318.92,51.2a28.13,28.13,0,0,0-39.64,0L262.5,68a27.8,27.8,0,0,0-8.18,19.82,28.32,28.32,0,0,0,8.18,20L370.36,216H27.66A27.35,27.35,0,0,0,0,243.51v23.74C0,282.71,12.21,296,27.66,296H371.59L262.5,404.73a27.75,27.75,0,0,0,0,39.35l16.79,16.74a28.11,28.11,0,0,0,39.63,0l184.9-184.9a28.26,28.26,0,0,0,0-39.77Z" transform="translate(0 -43.03)"/></svg>