<?xml version="1.0"?>
<svg xmlns="http://www.w3.org/2000/svg" id="Capa_1" enable-background="new 0 0 512.013 512.013" height="512px" viewBox="0 0 512.013 512.013" width="512px" class=""><g><g><path d="m63.64 512.013 143.745-143.745 48.177 143.522 142.242-397.582-397.582 142.243 143.522 48.178-143.744 143.745zm28.164-256.464 256.388-91.728-91.727 256.388-36.051-107.396-156.774 156.774-21.213-21.213 156.774-156.774z" data-original="#000000" class="active-path" data-old_color="#000000" fill="#6831E4"/><path d="m451.013 183.574h30v84.853h-30z" transform="matrix(.707 -.707 .707 .707 -23.314 395.716)" data-original="#000000" class="active-path" data-old_color="#000000" fill="#6831E4"/><path d="m271.013 3.574h30v84.853h-30z" transform="matrix(.707 -.707 .707 .707 51.244 215.715)" data-original="#000000" class="active-path" data-old_color="#000000" fill="#6831E4"/><path d="m423.587 31h84.853v30h-84.853z" transform="matrix(.707 -.707 .707 .707 103.964 342.992)" data-original="#000000" class="active-path" data-old_color="#000000" fill="#6831E4"/><path d="m361.013 0h30v60h-30z" data-original="#000000" class="active-path" data-old_color="#000000" fill="#6831E4"/><path d="m451.124 121h60.89v30h-60.89z" data-original="#000000" class="active-path" data-old_color="#000000" fill="#6831E4"/></g></g> </svg>
