<?xml version="1.0" encoding="utf-8"?>
<!-- Generator: Adobe Illustrator 24.2.3, SVG Export Plug-In . SVG Version: 6.00 Build 0)  -->
<svg version="1.1" id="Layer_1" xmlns="http://www.w3.org/2000/svg" xmlns:xlink="http://www.w3.org/1999/xlink" x="0px" y="0px"
	 viewBox="0 0 611 586" style="enable-background:new 0 0 611 586;" xml:space="preserve">
<style type="text/css">
	.st0{fill-rule:evenodd;clip-rule:evenodd;fill:#FFFFFF;filter:url(#Adobe_OpacityMaskFilter);}
	.st1{mask:url(#d_1_);fill-rule:evenodd;clip-rule:evenodd;fill:url(#SVGID_1_);}
	.st2{fill-rule:evenodd;clip-rule:evenodd;fill:#FFFFFF;filter:url(#Adobe_OpacityMaskFilter_1_);}
	.st3{mask:url(#e_1_);fill-rule:evenodd;clip-rule:evenodd;fill:url(#SVGID_2_);}
</style>
<g>
	<defs>
		<filter id="Adobe_OpacityMaskFilter" filterUnits="userSpaceOnUse" x="49.9" y="0.1" width="560.5" height="585.9">
			<feColorMatrix  type="matrix" values="1 0 0 0 0  0 1 0 0 0  0 0 1 0 0  0 0 0 1 0"/>
		</filter>
	</defs>
	<mask maskUnits="userSpaceOnUse" x="49.9" y="0.1" width="560.5" height="585.9" id="d_1_">
		<path class="st0" d="M164.6,28.6c-50.7,23.8-94.9,60.9-123,107.1C13.4,182,1.3,237.6,0.9,293.4c-0.3,55.8,11.3,111.7,38.9,159.3
			c27.6,47.6,71.2,86.8,122,109.5c50.9,22.7,108.9,29,163.9,19.8c55-9.3,106.8-34,145.9-71.2c39-37.2,65.2-86.5,79-138.7
			c7.1-26.9,10.8-54.6,10.9-81.9v-1.5c-0.1-25.2-3.3-50.2-10-74.2c-14.1-50.6-43.7-97.4-83.3-135.2S379.1,12.6,325.8,3.4
			c-12.9-2.2-26.1-3.3-39.3-3.3C245.1,0.1,203,10.5,164.6,28.6"/>
	</mask>
	
		<linearGradient id="SVGID_1_" gradientUnits="userSpaceOnUse" x1="-292.4755" y1="608.4642" x2="-293.4755" y2="608.4642" gradientTransform="matrix(560.5085 0 0 -585.8815 164545.4375 356780.9375)">
		<stop  offset="0" style="stop-color:#6831E4"/>
		<stop  offset="1" style="stop-color:#9F7CEE"/>
	</linearGradient>
	<path class="st1" d="M213.6,28.6c-50.7,23.8-94.9,60.9-123,107.1C62.4,182,50.3,237.6,49.9,293.4c-0.3,55.8,11.3,111.7,38.9,159.3
		c27.6,47.6,71.2,86.8,122,109.5c50.9,22.7,108.9,29,163.9,19.8c55-9.3,106.8-34,145.9-71.2c39-37.2,65.2-86.5,79-138.7
		c7.1-26.9,10.8-54.6,10.9-81.9v-1.5c-0.1-25.2-3.3-50.2-10-74.2c-14.1-50.6-43.7-97.4-83.3-135.2S428.1,12.6,374.8,3.4
		c-12.9-2.2-26.1-3.3-39.3-3.3C294.1,0.1,252,10.5,213.6,28.6"/>
	<defs>
		<filter id="Adobe_OpacityMaskFilter_1_" filterUnits="userSpaceOnUse" x="0" y="10" width="610.4" height="565.7">
			<feColorMatrix  type="matrix" values="1 0 0 0 0  0 1 0 0 0  0 0 1 0 0  0 0 0 1 0"/>
		</filter>
	</defs>
	<mask maskUnits="userSpaceOnUse" x="0" y="10" width="610.4" height="565.7" id="e_1_">
		<path class="st2" d="M0,250.3c0.1-25.9,3.2-52.2,9.4-77.9C29,90.8,79.6,14.4,142.7,2.6C206-9,281.9,44.1,350.3,77.1
			c68.6,33,129.7,46,179.3,90.3c49.6,44.4,87.8,120.1,79.6,196.3c-8.2,76.1-62.9,152.8-134.6,184.5c-71.7,31.9-160.5,18.7-240.4-9
			c-80-27.8-151-70.1-192.2-134.5C14.3,361.1,0.2,307.5,0,252.2L0,250.3"/>
	</mask>
	
		<linearGradient id="SVGID_2_" gradientUnits="userSpaceOnUse" x1="-293.4404" y1="608.263" x2="-292.6432" y2="608.6693" gradientTransform="matrix(610.4443 0 0 -565.7318 179176.6406 344519.6562)">
		<stop  offset="0" style="stop-color:#6831E4"/>
		<stop  offset="1" style="stop-color:#9F7CEE"/>
	</linearGradient>
	<path class="st3" d="M350.3,86.1c68.6,33,129.7,46,179.3,90.3c49.6,44.4,87.8,120.1,79.6,196.3c-8.2,76.1-62.9,152.8-134.6,184.5
		c-71.7,31.9-160.5,18.7-240.4-9c-80-27.8-151-70.1-192.2-134.5C0.9,349.2-10.2,262.8,9.4,181.3C29,99.8,79.6,23.4,142.7,11.6
		C206,0,281.9,53.1,350.3,86.1"/>
</g>
</svg>
