<svg id="svg7960" xmlns="http://www.w3.org/2000/svg" viewBox="0 0 471.54 303.99"><defs><style>.cls-1{fill:#6a3494;stroke:#000;stroke-linecap:round;stroke-linejoin:round;stroke-width:0.8px;}.cls-2{fill:#fff;}</style></defs><g id="layer1"><g id="g4373"><rect id="rect4375" class="cls-1" x="0.4" y="0.4" width="470.74" height="303.19" rx="26.8"/><path id="path4323-9" class="cls-2" d="M137.06,18.57A15,15,0,0,0,152.21,3.72a15.14,15.14,0,0,0-30.28,0,15,15,0,0,0,15.13,14.85Zm-116,8A104.43,104.43,0,0,1,3.59,56V-4.38l-31.7,6.15V111.23H3.59V77.4c9.17,13.5,13.71,33.83,13.71,33.83h38C51.5,95.92,35.08,67.69,35.08,67.69A135.2,135.2,0,0,0,57.32,26.58Zm83.32-1.14C76,26.33,61.6,38.83,61.6,63.66v47.57h31V72.44c0-14.87,2-21.25,20-21.85V25.87a43.66,43.66,0,0,0-8.15-.43ZM-81.26,38.63c-3.88-.25-12.87-.81-12.87-8.75,0-9.58,12.94-9.58,17.79-9.58,8.54,0,19.59,2.47,27.48,4.79,0,0,4.4,1.52,8.15,3.08l.35.1V2l-.48-.14C-50.15-1.3-61-4.38-81.06-4.38c-34.63,0-46.89,19.79-46.89,36.74,0,9.77,4.26,32.76,43.92,35.41,3.36.21,12.28.71,12.28,8.91,0,6.77-7.31,10.77-19.59,10.77a98.1,98.1,0,0,1-34.45-6.56v27c11.87,3,25.26,4.58,41,4.58,33.85,0,49-18.72,49-37.27,0-21-17-34.7-45.43-36.58Zm203,72.6h30.72V26.68H121.71v84.55ZM210.27,1V111.23H241V-4.38L210.27,1ZM165.44,1l30.69-5.4V111.23H165.44V1Z" transform="translate(183.75 101.49)"/></g></g></svg>