<svg id="Layer_1" data-name="Layer 1" xmlns="http://www.w3.org/2000/svg" xmlns:xlink="http://www.w3.org/1999/xlink" viewBox="0 0 795 480"><defs><style>.cls-1{fill:#0f1a26;}.cls-2{fill:#fff;}.cls-3{fill:#d7d7d7;}.cls-4{fill:url(#linear-gradient);}.cls-5{fill:url(#linear-gradient-2);}.cls-6{fill:#efefef;}.cls-7{fill:#606161;}</style><linearGradient id="linear-gradient" x1="357.77" y1="221.94" x2="367.83" y2="249.55" gradientTransform="matrix(1, 0, 0, -1, 0, 482)" gradientUnits="userSpaceOnUse"><stop offset="0.29" stop-color="#ee4343"/><stop offset="0.53" stop-color="#c43232"/><stop offset="1" stop-color="#660d0d"/></linearGradient><linearGradient id="linear-gradient-2" x1="351.19" y1="241.37" x2="437.67" y2="327.86" gradientTransform="matrix(1, 0, 0, -1, 0, 482)" gradientUnits="userSpaceOnUse"><stop offset="0" stop-color="#e6e7e8"/><stop offset="0.24" stop-color="#e1e2e4"/><stop offset="0.5" stop-color="#d4d5d7"/><stop offset="0.78" stop-color="#bdbfc1"/><stop offset="1" stop-color="#a6a8ab"/></linearGradient></defs><rect class="cls-1" width="795" height="480"/><path class="cls-2" d="M245,283.82c-3.43-8.06-10.82-8.94-14.55-6.76-9.36,4.7,1.12,10,5.73,11.85,6.3,2,10.82,4.64,11,10.88a6.75,6.75,0,0,1-.7,3.24c-5.82,10.7-18,5-18,5-3.39-1.82-3-2.48-4.72,1.46V298.94h.3a17.31,17.31,0,0,0,.51,2.48c3.43,8.07,11.28,9.1,15,6.76,9.73-4.66-.94-9.94-5.66-11.91-6.06-1.63-11.12-4.75-11-10.81a6,6,0,0,1,.69-3.25c5.79-10.69,18-5,18-5,3,1.82,2.64,2.49,4.28-1.45v10.57h-.31A15.3,15.3,0,0,0,245,283.82Z"/><path class="cls-2" d="M263.26,309.58c-8.88.91-7.39-6.67-7.39-6.67V286.49h-4.82v-.61h4.72v-2.42a9.08,9.08,0,0,0,5.52-6.07V286h7.18v.61h-7.12v19c0,3.63,2.09,3.51,2.09,3.51a4.51,4.51,0,0,0,3.85-2.76,8.24,8.24,0,0,0,.91-2.72h.51S268.05,309.33,263.26,309.58Z"/><path class="cls-2" d="M298.2,309v.61h-7.85v-5.76a9.31,9.31,0,0,1-8.42,5.63,8.15,8.15,0,0,1-8.43-7.57V285.64h-3V285h11v.61H278.9v19.6s.51,3.55,3,3.79a9.1,9.1,0,0,0,8.27-6.64V285.64h-2.73V285H298.2v.61h-2.3V309Z"/><path class="cls-2" d="M321.74,309.58v-2.43a11.84,11.84,0,0,1-7.54,2.7,12.1,12.1,0,0,1-8.61-3.64,13.26,13.26,0,0,1-3.54-9.09,12.86,12.86,0,0,1,3.54-8.73,11.68,11.68,0,0,1,8.61-3.75,11.89,11.89,0,0,1,7.54,2.69V276.15h-2.33v-.6h11.12v.6H328.2v32.7h2.33v.6Zm-7.54-24.25a7.36,7.36,0,0,0-1.15,0c-2.31,1.31-4,6.25-4,11.91s1.69,10.73,4,12.12a7.36,7.36,0,0,0,1.15,0,11.52,11.52,0,0,0,7.54-2.81V288.12a11.51,11.51,0,0,0-7.54-2.85Z"/><path class="cls-2" d="M346.68,309.67a12.31,12.31,0,0,1,0-24.61,12.12,12.12,0,0,1,11.91,10.67H341.47c0,7.45,1.49,11.94,3.91,13.36h1.3a11.51,11.51,0,0,0,10.21-6.24h.58A12.14,12.14,0,0,1,346.68,309.67Zm1.34-24h-1.34a7.06,7.06,0,0,0-1.3,0c-2,1.15-3.52,4.88-3.85,9.6h10.3c-.45-4.75-2-8.45-4-9.6Z"/><path class="cls-2" d="M378.41,309.58V309h3V289.36s0-3.57-2.61-3.78a8.8,8.8,0,0,0-7.9,6.6v16.76h2.42v.61H362.5v-.61h3V285.61h-3V285h8.43v5.76a9.08,9.08,0,0,1,8.24-5.64,7.76,7.76,0,0,1,8,7.54v16.28h2.42v.61Z"/><path class="cls-2" d="M406,309.58c-8.87.91-7.39-6.67-7.39-6.67V286.49h-4.82v-.61h4.82v-2.42a8.87,8.87,0,0,0,5.49-6.07V286h7.18v.61h-7v19c0,3.63,2.09,3.51,2.09,3.51a4.54,4.54,0,0,0,3.85-2.76,9.28,9.28,0,0,0,.91-2.72h.51S410.71,309.33,406,309.58Z"/><path class="cls-2" d="M435.32,309.58V309H438v-32.7h-2.63v-.6h11v.6h-2.64V309H459.8c3.64-1.61,4.31-7.58,4.31-7.58h.21v8.19Z"/><path class="cls-2" d="M480.2,309.67a12.34,12.34,0,1,1,12.12-12.55v.24a12.13,12.13,0,0,1-11.94,12.31Zm5.15-12.31c0-4.81-1.73-12.12-5.15-12.12s-5.15,7.22-5.15,12.12,1.69,12.13,5.15,12.13S485.35,302,485.35,297.36Z"/><path class="cls-2" d="M515.68,309.94c-5.15,0-5.33-2.18-5.33-6.33-.91,6.24-9.09,8-13.49,4.57a7.35,7.35,0,0,1-.63-8.57c3.51-3.73,14.12-3.46,14.12-3.46v-5.06c0-3.82-.73-6.06-5.88-6.06-2,0-5.15.91-5.15,2.15,0,.49.48,1.09,1.54,1.82a2.78,2.78,0,0,1,1.18,2.15,3,3,0,0,1-2.69,2.67,3.33,3.33,0,0,1-2.88-3.64c0-5.36,6.39-5.57,8.64-5.57,8.84,0,11.33,4.24,11.33,8.66v9.31c0,1.33-.43,6.06,1.12,6.06,3,0,2.45-3.49,2.48-3.49h.49a4.25,4.25,0,0,1-3.61,4.8A4.29,4.29,0,0,1,515.68,309.94Zm-5.36-13.3s-8.15.51-8.15,3.82c0,.24-1.22,7.39,1.45,8.39,0,0,4.33,1.15,6.36-5.61A50.23,50.23,0,0,0,510.32,296.64Z"/><path class="cls-2" d="M539.17,309.58V309h3V289.36s0-3.57-2.61-3.78a8.82,8.82,0,0,0-8.06,6.6v16.76H534v.61H523.07v-.61h3V285.61h-3V285h8.46v5.76a9.1,9.1,0,0,1,8.24-5.64,7.76,7.76,0,0,1,8,7.54v16.28h2.43v.61Z"/><path class="cls-2" d="M555.77,303.79a8.23,8.23,0,0,0,10.45,5.07l.7-.28c6.64-3.46-1.12-7.19-4.72-8.58-4.34-1.15-7.58-3.64-7.7-7.88a4.41,4.41,0,0,1,.51-2.39c4.16-7.79,12.88-3.61,12.88-3.61,2.61,1.21,2.4,1.73,3.55-1.18v7.85h-.21a19.65,19.65,0,0,0-.4-2,8.19,8.19,0,0,0-10.4-5.08c-.24.09-.48.18-.72.29-6.54,3.36.94,7.12,4.67,8.61s7.82,3.75,7.75,7.84a4.15,4.15,0,0,1-.51,2.37c-4.15,7.82-12.94,3.6-12.94,3.6-2.61-1.21-2.39-1.72-3.58,1.19v-7.85h.25S555.53,302.73,555.77,303.79Z"/><path class="cls-2" d="M353.11,339.55h0c-1.61.63-4.85.3-4.88-5.61,0-1.33.21-2.82-1.49-3.91h-5v9.42h1.49v.37h-6.06v-.37h1.6v-18.6h-1.6v-.36h9.51a4.84,4.84,0,0,1,5.45,4.16c0,.16,0,.31,0,.47a4.27,4.27,0,0,1-3.66,4.81,3.82,3.82,0,0,1-.68,0,5.46,5.46,0,0,1,4.22,5.61s-.4,3,.6,3.78a2.71,2.71,0,0,0,1.79-1.51,5.24,5.24,0,0,0,.52-1.58h.3A4.39,4.39,0,0,1,353.11,339.55Zm-4.91-14.4a5.37,5.37,0,0,0-1.79-4.27h-4.79v8.85h5.06A6.7,6.7,0,0,0,348.2,325.15Z"/><path class="cls-2" d="M364.35,339.88a7,7,0,0,1,0-14,6.85,6.85,0,0,1,6.76,6.06h-9.73c0,4.24.85,6.82,2.21,7.64h.76a6.59,6.59,0,0,0,5.82-3.55h.3A6.92,6.92,0,0,1,364.35,339.88Zm.76-13.67h-1.52a7.21,7.21,0,0,0-2.18,5.46h5.85A7.07,7.07,0,0,0,365.11,326.21Z"/><path class="cls-2" d="M374,336.55a4.7,4.7,0,0,0,6,2.86l.34-.14c3.79-2-.64-4.09-2.7-4.88s-4.3-2.09-4.36-4.48a2.66,2.66,0,0,1,.27-1.36,5.6,5.6,0,0,1,7.39-2.07c1.46.7,1.34,1,2-.66v4.48h0a7.73,7.73,0,0,0-.21-1.15,4.66,4.66,0,0,0-5.93-2.88c-.14,0-.27.1-.4.15-3.73,1.91.54,4.06,2.67,4.91s4.42,2.15,4.39,4.46a2.66,2.66,0,0,1-.27,1.36,5.61,5.61,0,0,1-7.4,2c-1.48-.66-1.33-1-2,.67v-4.46h0A9.12,9.12,0,0,0,374,336.55Z"/><path class="cls-2" d="M392.53,339.88a7,7,0,1,1,6.88-7.18v.18a6.94,6.94,0,0,1-6.88,7Zm3-7c0-2.73-1-6.88-3-6.88s-3,4.09-3,6.88,1,6.85,3,6.85,2.91-4.21,2.91-6.85Z"/><path class="cls-2" d="M407.83,339.48v.37h-6.21v-.37h1.61v-18.6h-1.61v-.36h6.21v.36h-1.45v18.6Z"/><path class="cls-2" d="M419.41,339.85h-3.36l-5.4-13.64h-1.54v-.36h6.24v.36H414l5.15,13.24,4-13.24h-3v-.36h6.27v.36h-3Z"/><path class="cls-2" d="M433.62,339.88a7,7,0,0,1,0-14,6.88,6.88,0,0,1,6.79,6.06h-9.76c0,4.24.85,6.82,2.24,7.64h.73a6.59,6.59,0,0,0,5.82-3.55h.33A6.93,6.93,0,0,1,433.62,339.88Zm.76-13.67h-1.49a7.23,7.23,0,0,0-2.21,5.46h5.88A7,7,0,0,0,434.38,326.21Z"/><path class="cls-2" d="M453.59,339.85v-1.4a6.67,6.67,0,0,1-4.27,1.55,6.85,6.85,0,0,1-4.91-2.09,7.37,7.37,0,0,1-2-5.09,7.19,7.19,0,0,1,2-5,6.66,6.66,0,0,1,9.09-.61v-6.36h-1.36v-.36h6.36v.36h-1.33v18.6h1.33v.37ZM449.32,326h-.67a8.38,8.38,0,0,0-2.27,6.79,8.57,8.57,0,0,0,2.27,6.85h.67a6.58,6.58,0,0,0,4.27-1.61V327.55A6.54,6.54,0,0,0,449.32,326Z"/><path class="cls-3" d="M355.77,160.4a.9.9,0,0,0-.51,1.72,127.22,127.22,0,0,0,84.85,0,.87.87,0,0,0,.6-.85v-9.45a.88.88,0,0,0-.84-.91.9.9,0,0,0-.43.09A129.43,129.43,0,0,1,355.77,160.4Z"/><path class="cls-4" d="M349.05,256.91l14.09-9.36,14.09,9.36V241.76a125.34,125.34,0,0,1-28.18-8Z"/><path class="cls-5" d="M440.26,166a127.24,127.24,0,0,1-99-5.91.89.89,0,0,0-1.18.39.93.93,0,0,0-.09.4v68.21a.87.87,0,0,0,.48.79c2.82,1.42,5.7,2.73,8.58,3.91a125.34,125.34,0,0,0,28.18,8,127.27,127.27,0,0,0,72.48-9.36,10,10,0,0,0,6.06-9.1v-46.6A11.39,11.39,0,0,0,440.26,166Z"/><path class="cls-6" d="M350.47,155.58a127.29,127.29,0,0,0,74.24-2.12.89.89,0,0,0,.61-.85V140.88a.88.88,0,0,0-.88-.88.86.86,0,0,0-.39.09,134.49,134.49,0,0,1-73.22,13.73.91.91,0,0,0-.36,1.76Z"/><path class="cls-7" d="M407.62,194.21a9.86,9.86,0,0,0-9.76,8.52h.85a16.11,16.11,0,0,1,9.09,3.82c-1.24-1.46-2.27-2.64-3-3.52h0v-1.12c0-.18,0,0,.19,0h.81a3.54,3.54,0,0,0,1.52-.64,1.49,1.49,0,0,0,.76-.94h-3.37c-.18,0,0,0,0-.18v-.85a.19.19,0,0,1,.18,0h3c-.27-.54-.94-.84-2-.84h-1.24v-1.19a.28.28,0,0,1,.18,0h6.22a.31.31,0,0,1,0,.19v.75a.31.31,0,0,1,0,.19h-1.76a2.56,2.56,0,0,1,.48,1.06h1.28a.15.15,0,0,1,.18,0,.38.38,0,0,1,0,.15v.76a.28.28,0,0,1,0,.18H409.8a2.93,2.93,0,0,1-1,1.75,3.54,3.54,0,0,1-2.06.82c.82.88,2,2.21,3.43,4a.28.28,0,0,1,0,.28.26.26,0,0,1-.21,0h-1.43a15,15,0,0,1,3.33,5.57,9.88,9.88,0,0,0-4.24-18.79Z"/><path class="cls-7" d="M397.74,205.18a12.37,12.37,0,1,0,12.37,12.37,12.36,12.36,0,0,0-12.37-12.37Zm4.79,19.15h0a4.11,4.11,0,0,1-2,.52,6.21,6.21,0,0,1-1.36-.21,5.76,5.76,0,0,0-2.09-.37,5.94,5.94,0,0,0-3.22.52.19.19,0,0,1-.18,0h-.21l-1-1.43a.19.19,0,0,1,0-.18.37.37,0,0,1,0-.21c1.36-.94,2.76-2,2.76-3.24a6.91,6.91,0,0,0,0-.91s-.18-.21-.3-.21h-1.88a.56.56,0,0,1-.58-.52v-1.21a.52.52,0,0,1,.45-.58h1.34a.3.3,0,0,0,.28-.32v0a.93.93,0,0,0-.18-.64,7,7,0,0,1-.15-1.3,4,4,0,0,1,8-.7h0a.56.56,0,0,1-.52.58h-1.21a.71.71,0,0,1-.58-.39,1.72,1.72,0,0,0-3.39.45,2.29,2.29,0,0,0,0,.64,9,9,0,0,0,.42,1.42c.13.52.16.24.28.24h3.85a.52.52,0,0,1,.57.45.29.29,0,0,1,0,.13v1.12a.52.52,0,0,1-.44.58h-3.35a.32.32,0,0,0-.3.36h0a3.48,3.48,0,0,1,0,.79,4.1,4.1,0,0,1-.45,1.91c0,.24,0,.39.24.39a10.5,10.5,0,0,1,2.36.4,3,3,0,0,0,.73.18,1.91,1.91,0,0,0,.82-.06h0a.31.31,0,0,1,.42,0l.79,1.54h0a.37.37,0,0,1,.09.3Z"/><path class="cls-7" d="M387.86,189.15a9.88,9.88,0,0,0-2.06,19.55,14.75,14.75,0,0,1,9.55-5.85,12.35,12.35,0,0,1,2.15-6.06A9.89,9.89,0,0,0,387.86,189.15Zm2.28,12.58a2.92,2.92,0,0,1-1.4.88c-.24,0-.33.18-.33.45v.73a.29.29,0,0,1-.27.33h-.85c-.24,0-.33,0-.33-.36v-.55c0-.39,0-.39-.43-.45a4.58,4.58,0,0,1-1.39-.43c-.37,0-.4-.24-.31-.6s0-.55.25-.82.18-.36.48-.21a4.66,4.66,0,0,0,1.55.48,1.81,1.81,0,0,0,1,0,.79.79,0,0,0,.51-1,.85.85,0,0,0-.3-.4,2.4,2.4,0,0,0-.61-.33,17.24,17.24,0,0,1-1.57-.73,2.32,2.32,0,0,1-1.31-2.15,2.41,2.41,0,0,1,1.76-2.21c.43-.19.43,0,.43-.61v-.46c0-.33,0-.39.39-.39h.33c.7,0,.7,0,.7.7s0,.51.52.57a5,5,0,0,1,1.12.34.34.34,0,0,1,.19.43v0a1.2,1.2,0,0,1-.27.91c-.28.3-.19.33-.46.21a3.55,3.55,0,0,0-1.76-.36,1.14,1.14,0,0,0-.45,0,.67.67,0,0,0-.44.84.68.68,0,0,0,.26.34,2.81,2.81,0,0,0,.75.43,13.58,13.58,0,0,1,1.4.63,2.52,2.52,0,0,1,1.13,3.38,3.46,3.46,0,0,1-.31.47Z"/></svg>