<svg id="Layer_1" data-name="Layer 1" xmlns="http://www.w3.org/2000/svg" xmlns:xlink="http://www.w3.org/1999/xlink" viewBox="0 0 123.52 29.23"><defs><style>.cls-1{fill:#606161;}.cls-2{fill:#d7d7d7;}.cls-3{fill:url(#linear-gradient);}.cls-4{fill:url(#linear-gradient-2);}.cls-5{fill:#efefef;}</style><linearGradient id="linear-gradient" x1="194.47" y1="78.82" x2="196.98" y2="85.73" gradientTransform="matrix(1, 0, 0, -1, 0, 186)" gradientUnits="userSpaceOnUse"><stop offset="0.29" stop-color="#ee4343"/><stop offset="0.53" stop-color="#c43232"/><stop offset="1" stop-color="#660d0d"/></linearGradient><linearGradient id="linear-gradient-2" x1="192.82" y1="83.68" x2="214.44" y2="105.3" gradientTransform="matrix(1, 0, 0, -1, 0, 186)" gradientUnits="userSpaceOnUse"><stop offset="0" stop-color="#e6e7e8"/><stop offset="0.24" stop-color="#e1e2e4"/><stop offset="0.5" stop-color="#d4d5d7"/><stop offset="0.78" stop-color="#bdbfc1"/><stop offset="1" stop-color="#a6a8ab"/></linearGradient></defs><path class="cls-1" d="M231.75,85.79c-.86-2-2.7-2.24-3.64-1.69-2.34,1.17.28,2.5,1.44,3,1.57.5,2.7,1.16,2.75,2.72a1.63,1.63,0,0,1-.18.81c-1.45,2.67-4.49,1.25-4.49,1.25-.85-.46-.76-.62-1.18.36V89.57h.07a4.56,4.56,0,0,0,.13.62,2.75,2.75,0,0,0,3.74,1.69c2.44-1.17-.23-2.49-1.41-3-1.52-.41-2.78-1.19-2.76-2.7a1.54,1.54,0,0,1,.17-.82c1.45-2.67,4.5-1.25,4.5-1.25.75.46.66.63,1.06-.36v2.65h-.07A4.13,4.13,0,0,0,231.75,85.79Z" transform="translate(-190.02 -77.16)"/><path class="cls-1" d="M236.32,92.23c-2.22.22-1.85-1.67-1.85-1.67V86.45h-1.21V86.3h1.19v-.6a2.3,2.3,0,0,0,1.38-1.52v2.14h1.79v.16h-1.78v4.74c0,.91.52.88.52.88a1.15,1.15,0,0,0,1-.69,2.08,2.08,0,0,0,.22-.68h.13S237.51,92.17,236.32,92.23Z" transform="translate(-190.02 -77.16)"/><path class="cls-1" d="M245.05,92.07v.16h-2V90.79A2.35,2.35,0,0,1,241,92.2a2,2,0,0,1-2.1-1.9V86.24h-.76v-.15h2.75v.15h-.64v4.9s.13.89.75,1a2.26,2.26,0,0,0,2.07-1.66V86.24h-.68v-.15h2.68v.15h-.57v5.83Z" transform="translate(-190.02 -77.16)"/><path class="cls-1" d="M250.94,92.23v-.61a3,3,0,0,1-1.89.67,3,3,0,0,1-2.15-.91,3.34,3.34,0,0,1-.89-2.27,3.23,3.23,0,0,1,.89-2.18,2.95,2.95,0,0,1,4-.26v-2.8h-.58v-.15h2.78v.15h-.59V92h.59v.16Zm-1.89-6.06a1.4,1.4,0,0,0-.29,0c-.57.32-1,1.56-1,3s.43,2.68,1,3a1.4,1.4,0,0,0,.29,0,2.89,2.89,0,0,0,1.89-.7V86.86a2.89,2.89,0,0,0-1.89-.71Z" transform="translate(-190.02 -77.16)"/><path class="cls-1" d="M257.17,92.25a3.08,3.08,0,0,1,0-6.15,3,3,0,0,1,3,2.66h-4.28c0,1.87.37,3,1,3.34h.32a2.88,2.88,0,0,0,2.56-1.56h.14A3,3,0,0,1,257.17,92.25Zm.34-6h-.66a3.12,3.12,0,0,0-1,2.4h2.57a3.21,3.21,0,0,0-1-2.4Z" transform="translate(-190.02 -77.16)"/><path class="cls-1" d="M265.11,92.23v-.16h.75v-4.9s0-.89-.65-.94a2.2,2.2,0,0,0-2,1.65v4.19h.61v.15h-2.71v-.15h.76V86.23h-.76v-.15h2.1v1.44a2.29,2.29,0,0,1,2.06-1.41,1.94,1.94,0,0,1,2,1.89h0v4.06h.6v.15Z" transform="translate(-190.02 -77.16)"/><path class="cls-1" d="M272,92.23c-2.22.22-1.85-1.67-1.85-1.67V86.45h-1.2V86.3h1.2v-.6a2.22,2.22,0,0,0,1.37-1.52v2.14h1.8v.16h-1.74v4.74c0,.91.52.88.52.88a1.13,1.13,0,0,0,1-.69,2.48,2.48,0,0,0,.23-.68h.13S273.18,92.17,272,92.23Z" transform="translate(-190.02 -77.16)"/><path class="cls-1" d="M279.33,92.23v-.16H280V83.9h-.66v-.15h2.74v.15h-.65v8.17h4c.91-.4,1.08-1.89,1.08-1.89h.05v2Z" transform="translate(-190.02 -77.16)"/><path class="cls-1" d="M290.55,92.25a3.09,3.09,0,1,1,3-3.14v.06a3,3,0,0,1-3,3.08Zm1.29-3.08c0-1.2-.43-3-1.29-3s-1.29,1.81-1.29,3,.43,3,1.29,3S291.84,90.33,291.84,89.17Z" transform="translate(-190.02 -77.16)"/><path class="cls-1" d="M299.42,92.32c-1.28,0-1.33-.55-1.33-1.59-.23,1.56-2.27,2-3.37,1.15a1.85,1.85,0,0,1-.16-2.15c.88-.93,3.53-.86,3.53-.86V87.6c0-.95-.18-1.51-1.47-1.51-.51,0-1.29.23-1.29.54,0,.12.12.27.39.45a.69.69,0,0,1,.29.54.76.76,0,0,1-.67.67.84.84,0,0,1-.72-.91c0-1.34,1.6-1.4,2.16-1.4,2.21,0,2.83,1.06,2.83,2.17v2.33c0,.33-.1,1.51.28,1.51.76,0,.62-.87.62-.87h.13a1.07,1.07,0,0,1-.91,1.2A1.6,1.6,0,0,1,299.42,92.32ZM298.08,89s-2,.13-2,1c0,.06-.3,1.84.37,2.09,0,0,1.08.29,1.59-1.4A13,13,0,0,0,298.08,89Z" transform="translate(-190.02 -77.16)"/><path class="cls-1" d="M305.29,92.23v-.16h.76v-4.9s0-.89-.65-.94a2.2,2.2,0,0,0-2,1.65v4.19h.6v.15h-2.72v-.15H302V86.23h-.76v-.15h2.12v1.44a2.27,2.27,0,0,1,2.06-1.41,1.94,1.94,0,0,1,2,1.89h0v4.06h.6v.15Z" transform="translate(-190.02 -77.16)"/><path class="cls-1" d="M309.45,90.78a2.05,2.05,0,0,0,2.61,1.27l.17-.07c1.66-.87-.28-1.8-1.18-2.15-1.08-.29-1.89-.91-1.92-2a1.06,1.06,0,0,1,.13-.6c1-1.94,3.22-.9,3.22-.9.65.31.59.43.88-.29v2h-.05a4,4,0,0,0-.1-.5,2,2,0,0,0-2.6-1.27l-.18.07c-1.64.84.24,1.78,1.17,2.15s1.95.94,1.94,2a1.11,1.11,0,0,1-.13.59c-1,1.95-3.24.9-3.24.9-.65-.31-.6-.43-.89.29v-2h.06Z" transform="translate(-190.02 -77.16)"/><path class="cls-1" d="M258.78,99.72h0c-.4.16-1.21.07-1.22-1.4,0-.34.05-.71-.37-1h-1.25V99.7h.37v.09h-1.52V99.7h.41V95h-.41V95h2.38a1.22,1.22,0,0,1,1.37,1v.12a1.05,1.05,0,0,1-.91,1.2.49.49,0,0,1-.17,0,1.35,1.35,0,0,1,1.05,1.41s-.09.75.16.94a.67.67,0,0,0,.44-.38,1.06,1.06,0,0,0,.13-.39h.08A1.09,1.09,0,0,1,258.78,99.72Zm-1.23-3.6a1.34,1.34,0,0,0-.44-1.07h-1.2v2.21h1.26A1.64,1.64,0,0,0,257.55,96.12Z" transform="translate(-190.02 -77.16)"/><path class="cls-1" d="M261.59,99.8a1.75,1.75,0,0,1,0-3.5,1.72,1.72,0,0,1,1.69,1.52h-2.43c0,1.06.21,1.7.55,1.91h.19a1.66,1.66,0,0,0,1.45-.89h.08A1.74,1.74,0,0,1,261.59,99.8Zm.19-3.42h-.38a1.77,1.77,0,0,0-.54,1.37h1.46A1.77,1.77,0,0,0,261.78,96.38Z" transform="translate(-190.02 -77.16)"/><path class="cls-1" d="M264,99a1.17,1.17,0,0,0,1.5.71l.09,0c.94-.49-.16-1-.68-1.22s-1.07-.52-1.09-1.12a.65.65,0,0,1,.07-.34,1.41,1.41,0,0,1,1.85-.52c.36.18.33.25.5-.16v1.12h0a2.47,2.47,0,0,0-.06-.29,1.16,1.16,0,0,0-1.48-.72l-.1,0c-.93.48.14,1,.67,1.23s1.1.53,1.1,1.11a.8.8,0,0,1-.07.34,1.41,1.41,0,0,1-1.85.51c-.37-.17-.33-.25-.5.16V98.68h0A2.93,2.93,0,0,0,264,99Z" transform="translate(-190.02 -77.16)"/><path class="cls-1" d="M268.64,99.8A1.76,1.76,0,1,1,270.36,98v0a1.75,1.75,0,0,1-1.72,1.75Zm.75-1.75c0-.68-.24-1.72-.75-1.72s-.76,1-.76,1.72.24,1.71.76,1.71.72-1.05.72-1.71Z" transform="translate(-190.02 -77.16)"/><path class="cls-1" d="M272.46,99.7v.09h-1.55V99.7h.4V95.05h-.4V95h1.55v.09h-.36V99.7Z" transform="translate(-190.02 -77.16)"/><path class="cls-1" d="M275.36,99.79h-.85l-1.34-3.41h-.39v-.09h1.56v.09H274l1.28,3.32,1-3.32h-.76v-.09h1.57v.09h-.76Z" transform="translate(-190.02 -77.16)"/><path class="cls-1" d="M278.91,99.8a1.75,1.75,0,1,1,1.7-2h-2.44c0,1.06.21,1.7.56,1.91h.18a1.66,1.66,0,0,0,1.45-.89h.09A1.74,1.74,0,0,1,278.91,99.8Zm.19-3.42h-.37a1.83,1.83,0,0,0-.56,1.37h1.47A1.77,1.77,0,0,0,279.1,96.38Z" transform="translate(-190.02 -77.16)"/><path class="cls-1" d="M283.9,99.79v-.34a1.67,1.67,0,0,1-1.07.38,1.7,1.7,0,0,1-1.22-.52A1.83,1.83,0,0,1,281.1,98a1.78,1.78,0,0,1,.51-1.25,1.67,1.67,0,0,1,2.27-.15V95.05h-.34V95h1.59v.09h-.34V99.7h.34v.09Zm-1.07-3.46h-.16a2.06,2.06,0,0,0-.57,1.7,2.12,2.12,0,0,0,.57,1.71h.16a1.61,1.61,0,0,0,1.07-.4V96.72A1.68,1.68,0,0,0,282.83,96.33Z" transform="translate(-190.02 -77.16)"/><path class="cls-2" d="M194,82.26a.22.22,0,0,0-.26.19.21.21,0,0,0,.13.24,31.77,31.77,0,0,0,21.21,0,.22.22,0,0,0,.15-.21V80.12a.22.22,0,0,0-.21-.23l-.11,0A32.35,32.35,0,0,1,194,82.26Z" transform="translate(-190.02 -77.16)"/><path class="cls-3" d="M192.29,106.39l3.52-2.34,3.52,2.34V102.6a30.79,30.79,0,0,1-7-2Z" transform="translate(-190.02 -77.16)"/><path class="cls-4" d="M215.09,83.65a31.79,31.79,0,0,1-24.75-1.47.23.23,0,0,0-.3.09.44.44,0,0,0,0,.1V99.43a.21.21,0,0,0,.12.19c.71.36,1.43.69,2.15,1a31.3,31.3,0,0,0,7,2,31.84,31.84,0,0,0,18.12-2.34A2.51,2.51,0,0,0,219,98V86.34a2.85,2.85,0,0,0-2.82-2.88A3,3,0,0,0,215.09,83.65Z" transform="translate(-190.02 -77.16)"/><path class="cls-5" d="M192.64,81.06a31.9,31.9,0,0,0,18.56-.53.23.23,0,0,0,.15-.22V77.38a.22.22,0,0,0-.22-.22l-.09,0a33.63,33.63,0,0,1-18.31,3.44.22.22,0,0,0-.23.21A.23.23,0,0,0,192.64,81.06Z" transform="translate(-190.02 -77.16)"/><path class="cls-1" d="M206.93,90.71a2.47,2.47,0,0,0-2.44,2.13h.21a4.06,4.06,0,0,1,2.27,1l-.75-.88h0v-.28s0,0,0,0h.21a1,1,0,0,0,.38-.16.39.39,0,0,0,.19-.24h-.85s0,0,0,0V92H207c-.07-.14-.24-.21-.5-.21h-.31v-.3a0,0,0,0,1,0,0h1.56v.28h-.44a.66.66,0,0,1,.12.27h.32a0,0,0,0,1,0,0v.22a0,0,0,0,1,0,0h-.36a.72.72,0,0,1-.24.44.85.85,0,0,1-.51.2c.2.22.49.55.85,1a0,0,0,0,1,0,.07h-.41A3.81,3.81,0,0,1,208,95.4a2.47,2.47,0,0,0-1.06-4.69Z" transform="translate(-190.02 -77.16)"/><path class="cls-1" d="M204.46,93.46a3.09,3.09,0,1,0,3.09,3.09,3.09,3.09,0,0,0-3.09-3.09Zm1.2,4.78h0a1,1,0,0,1-.5.13,1.27,1.27,0,0,1-.34-.05,1.6,1.6,0,0,0-.53-.09,1.48,1.48,0,0,0-.8.13,0,0,0,0,1-.05,0h-.05l-.24-.36a0,0,0,0,1,0,0,.06.06,0,0,1,0-.06c.34-.23.69-.5.69-.81v-.22s-.05-.06-.08-.06h-.47a.13.13,0,0,1-.14-.13h0v-.29a.12.12,0,0,1,.11-.14h.34a.08.08,0,0,0,.07-.08h0a.24.24,0,0,0,0-.16,1.86,1.86,0,0,1,0-.33,1,1,0,1,1,2-.17h0a.13.13,0,0,1-.13.14h-.3a.15.15,0,0,1-.14-.1.44.44,0,0,0-.53-.3.55.55,0,0,0-.32.58,1.7,1.7,0,0,0,.11.35c0,.13,0,.06.06.06h1a.12.12,0,0,1,.14.11v.32a.12.12,0,0,1-.11.14h-.84a.07.07,0,0,0-.07.09h0v.2a1,1,0,0,1-.12.48c0,.06,0,.09.06.09a2.91,2.91,0,0,1,.59.1.59.59,0,0,0,.19,0,.47.47,0,0,0,.2,0h0a.11.11,0,0,1,.11,0l.19.39h0a.11.11,0,0,1,0,.07Z" transform="translate(-190.02 -77.16)"/><path class="cls-1" d="M202,89.45a2.47,2.47,0,0,0-.52,4.89,3.71,3.71,0,0,1,2.39-1.47,3.07,3.07,0,0,1,.54-1.51A2.47,2.47,0,0,0,202,89.45Zm.57,3.14a.62.62,0,0,1-.35.22c-.06,0-.08,0-.08.12v.18a.08.08,0,0,1-.07.08h-.21c-.06,0-.09,0-.09-.09V93c0-.09,0-.09-.1-.11a1.1,1.1,0,0,1-.35-.11c-.09,0-.1-.06-.08-.15s0-.13.06-.2.05-.09.12,0a1.36,1.36,0,0,0,.39.12.57.57,0,0,0,.26,0,.21.21,0,0,0,.13-.25.2.2,0,0,0-.08-.1A.55.55,0,0,0,202,92a3.54,3.54,0,0,1-.39-.19.57.57,0,0,1-.33-.53.61.61,0,0,1,.44-.56c.11,0,.11,0,.11-.15v-.11c0-.09,0-.1.09-.1H202c.17,0,.17,0,.17.17s0,.13.13.15a.9.9,0,0,1,.28.08.1.1,0,0,1,0,.11h0a.29.29,0,0,1-.07.23c-.07.08-.05.08-.12.05a1,1,0,0,0-.44-.09h-.11a.16.16,0,0,0-.11.21.16.16,0,0,0,.07.09.86.86,0,0,0,.19.11l.34.15a.65.65,0,0,1,.29.85l-.08.12Z" transform="translate(-190.02 -77.16)"/></svg>