<svg id="Layer_1" data-name="Layer 1" xmlns="http://www.w3.org/2000/svg" viewBox="0 0 1065 1065"><defs><style>.cls-1{fill:#f5f6f9;}.cls-2{fill:#0b0618;}.cls-3{fill:#6831e4;}</style></defs><circle class="cls-1" cx="532.5" cy="532.5" r="532.5"/><path class="cls-2" d="M757.93,322.06a172.54,172.54,0,0,0-244.38,0c-50.39,50.39-64.79,125.13-36.68,190.4a4.8,4.8,0,0,0,8.82-3.79C459.14,447,472.75,376.44,520.34,328.85a163.2,163.2,0,1,1,230.8,230.79c-47.55,47.55-118.08,61.18-179.71,34.71a4.79,4.79,0,1,0-3.78,8.81,172.82,172.82,0,0,0,190.28-281.1Z" transform="translate(-7.5 -7.5)"/><path class="cls-2" d="M557.68,610.62l-88.25-88.24a4.78,4.78,0,0,0-6.78,0L388,597.05a4.76,4.76,0,0,0-1.41,3.39v27.15A4.76,4.76,0,0,0,388,631l61.09,61.1a4.81,4.81,0,0,0,3.4,1.41h0l27.14,0a4.8,4.8,0,0,0,3.39-1.41l74.68-74.66a4.79,4.79,0,0,0,0-6.79Zm-80.06,73.26-23.17,0-58.28-58.29h0V602.43L466,532.56,547.5,614Z" transform="translate(-7.5 -7.5)"/><path class="cls-2" d="M516.68,651.12l-95-81.47a4.79,4.79,0,0,0-6.24,7.28l95,81.47a4.78,4.78,0,0,0,6.76-.52A4.78,4.78,0,0,0,516.68,651.12Z" transform="translate(-7.5 -7.5)"/><path class="cls-2" d="M537.05,630.76l-95-81.48a4.8,4.8,0,1,0-6.25,7.28l95,81.48a4.79,4.79,0,0,0,3.13,1.16,4.71,4.71,0,0,0,3.63-1.68A4.79,4.79,0,0,0,537.05,630.76Z" transform="translate(-7.5 -7.5)"/><path class="cls-2" d="M496.32,671.49l-95-81.47a4.79,4.79,0,1,0-6.25,7.27l95,81.47a4.8,4.8,0,0,0,6.77-.51A4.79,4.79,0,0,0,496.32,671.49Z" transform="translate(-7.5 -7.5)"/><path class="cls-2" d="M449.1,678.61a4.83,4.83,0,0,0-6.75-.15c-.44.39-10.85,9.64-30.62-10.14s-10.63-30.05-10.13-30.6a4.8,4.8,0,0,0-6.84-6.73c-.7.69-16.65,17.25,10.18,44.11,10.27,10.28,20.23,15.47,29.62,15.47.57,0,1.12,0,1.68-.05a20.59,20.59,0,0,0,12.83-5.22A4.76,4.76,0,0,0,449.1,678.61Z" transform="translate(-7.5 -7.5)"/><path class="cls-2" d="M551.34,617.94a4.8,4.8,0,1,0-7.74,5.69c.34.46,31.89,45.11-23.84,106-4.16-18.06-14.56-52.39-33.35-52.6a4.68,4.68,0,0,0-4.85,4.75,4.79,4.79,0,0,0,4.75,4.85c11.15.12,21.85,31.52,25.88,53.78a4.8,4.8,0,0,0,8.12,2.53C590.31,673,551.74,618.49,551.34,617.94Z" transform="translate(-7.5 -7.5)"/><path class="cls-2" d="M462.05,528.64c-.54-.4-55.05-38.95-125,31a4.81,4.81,0,0,0,2.54,8.12c22.25,4,53.65,14.73,53.76,25.87a4.8,4.8,0,0,0,4.8,4.75h.06a4.8,4.8,0,0,0,4.74-4.86c-.19-18.78-34.53-29.17-52.6-33.34C410.88,504.74,454.5,535,456.38,536.39a4.8,4.8,0,0,0,5.67-7.75Z" transform="translate(-7.5 -7.5)"/><path class="cls-2" d="M484.68,507.18a4.79,4.79,0,0,0-6.79,0l-15.24,15.2a4.8,4.8,0,0,0,6.78,6.8L484.67,514A4.79,4.79,0,0,0,484.68,507.18Z" transform="translate(-7.5 -7.5)"/><path class="cls-2" d="M572.94,595.38a4.78,4.78,0,0,0-6.78,0L550.9,610.62a4.8,4.8,0,1,0,6.78,6.79l15.26-15.24A4.79,4.79,0,0,0,572.94,595.38Z" transform="translate(-7.5 -7.5)"/><path class="cls-2" d="M544.1,502a4.81,4.81,0,0,0-6.79,0l-33.94,34a4.8,4.8,0,1,0,6.79,6.79l33.94-33.95A4.81,4.81,0,0,0,544.1,502Z" transform="translate(-7.5 -7.5)"/><path class="cls-2" d="M578,536a4.8,4.8,0,0,0-6.78,0l-34,33.95a4.8,4.8,0,0,0,6.79,6.79l33.94-34A4.79,4.79,0,0,0,578,536Z" transform="translate(-7.5 -7.5)"/><path class="cls-2" d="M571.74,504l-30.51-3.36a4.8,4.8,0,1,0-1.05,9.54l30.52,3.37.52,0a4.8,4.8,0,0,0,.52-9.57Z" transform="translate(-7.5 -7.5)"/><path class="cls-2" d="M579.42,538.81,576,508.23a4.8,4.8,0,1,0-9.54,1.07l3.43,30.58a4.8,4.8,0,0,0,4.77,4.27,4.71,4.71,0,0,0,.53,0A4.81,4.81,0,0,0,579.42,538.81Z" transform="translate(-7.5 -7.5)"/><path class="cls-2" d="M605.19,440.92a4.78,4.78,0,0,0-6.78,0l-47.24,47.23a4.8,4.8,0,0,0,6.78,6.79l47.24-47.24A4.78,4.78,0,0,0,605.19,440.92Z" transform="translate(-7.5 -7.5)"/><path class="cls-2" d="M605.2,413.77a24,24,0,0,0-33.94,0,4.79,4.79,0,1,0,6.78,6.78,14.74,14.74,0,0,1,20.37,0,14.39,14.39,0,0,1,0,20.36,4.8,4.8,0,1,0,6.79,6.78,24,24,0,0,0,0-33.93Z" transform="translate(-7.5 -7.5)"/><path class="cls-2" d="M573.82,430.74A14.3,14.3,0,0,1,578,420.56a4.8,4.8,0,0,0-6.78-6.8,24,24,0,0,0,0,33.95,4.8,4.8,0,1,0,6.78-6.8A14.29,14.29,0,0,1,573.82,430.74Z" transform="translate(-7.5 -7.5)"/><path class="cls-2" d="M639.13,474.86a4.78,4.78,0,0,0-6.78,0L585.11,522.1a4.8,4.8,0,1,0,6.79,6.78l47.23-47.24A4.78,4.78,0,0,0,639.13,474.86Z" transform="translate(-7.5 -7.5)"/><path class="cls-2" d="M666.29,474.85a24,24,0,0,0-33.94,0,4.8,4.8,0,1,0,6.78,6.79,14.74,14.74,0,0,1,20.36,0,14.39,14.39,0,0,1,0,20.36,4.8,4.8,0,1,0,6.79,6.79A24,24,0,0,0,666.29,474.85Z" transform="translate(-7.5 -7.5)"/><path class="cls-2" d="M666.29,502a4.79,4.79,0,0,0-6.79,0,14.43,14.43,0,0,1-20.37,0,4.79,4.79,0,1,0-6.78,6.78,24,24,0,0,0,33.94,0A4.78,4.78,0,0,0,666.29,502Z" transform="translate(-7.5 -7.5)"/><path class="cls-2" d="M612,474.85l-6.79-6.78a4.79,4.79,0,1,0-6.78,6.78l6.78,6.79a4.8,4.8,0,0,0,6.79-6.79Z" transform="translate(-7.5 -7.5)"/><path class="cls-2" d="M717.2,349.21a115.12,115.12,0,0,0-162.91,0,4.79,4.79,0,0,0,0,6.79,4.8,4.8,0,0,0,6.78,0,105.53,105.53,0,0,1,149.34,0,4.8,4.8,0,1,0,6.79-6.79Z" transform="translate(-7.5 -7.5)"/><path class="cls-2" d="M377.82,702.24a19.64,19.64,0,0,0-27.15,0c-.61.61-58.37,63.81-47.52,74.66a6.57,6.57,0,0,0,4.79,1.87c14.15,0,69.39-48.9,69.88-49.39A19.22,19.22,0,0,0,377.82,702.24ZM371,722.6c-6.93,6.94-43.46,36.6-58.16,44.59,8-14.7,37.65-51.23,44.59-58.17A9.6,9.6,0,1,1,371,722.6Z" transform="translate(-7.5 -7.5)"/><path class="cls-2" d="M398.18,681.87a48,48,0,0,0-67.87,0c-8.81,8.82-26.85,33.79-40.62,58.79-18.43,33.44-22.92,54.17-13.69,63.39,3.06,3.06,7.48,4.61,13.14,4.61,29.9,0,94.36-44.23,109-58.91A48,48,0,0,0,398.18,681.87ZM391.4,743c-15.37,15.38-77.06,56.1-102.26,56.1-3,0-5.15-.6-6.35-1.8-4-4-2.34-20,15.31-52,12.94-23.5,30.61-48.25,39-56.63A38.4,38.4,0,1,1,391.4,743Z" transform="translate(-7.5 -7.5)"/><path class="cls-3" d="M772.49,816.48h-.11a5.72,5.72,0,0,0-5.72,5.76,5.82,5.82,0,0,0,5.83,5.76,5.76,5.76,0,0,0,0-11.52Z" transform="translate(-7.5 -7.5)"/><path class="cls-3" d="M300.17,171.36h-.12a5.71,5.71,0,0,0-5.7,5.76,5.79,5.79,0,1,0,5.82-5.76Z" transform="translate(-7.5 -7.5)"/><path class="cls-3" d="M519.05,194.4h-.12a5.71,5.71,0,0,0-5.7,5.76,5.79,5.79,0,1,0,5.82-5.76Z" transform="translate(-7.5 -7.5)"/><path class="cls-3" d="M196.49,309.6h-.12a5.71,5.71,0,0,0-5.7,5.76,5.79,5.79,0,1,0,5.82-5.76Z" transform="translate(-7.5 -7.5)"/><path class="cls-3" d="M277.13,643.68H277a5.71,5.71,0,0,0-5.7,5.76,5.79,5.79,0,1,0,5.82-5.76Z" transform="translate(-7.5 -7.5)"/><path class="cls-3" d="M564.52,885.6h-.11a5.71,5.71,0,0,0-5.71,5.76,5.79,5.79,0,1,0,5.82-5.76Z" transform="translate(-7.5 -7.5)"/><path class="cls-3" d="M841.61,897.12h-.11a5.71,5.71,0,0,0-5.71,5.76,5.79,5.79,0,1,0,5.82-5.76Z" transform="translate(-7.5 -7.5)"/><path class="cls-3" d="M668.81,678.24h-.11A5.71,5.71,0,0,0,663,684a5.8,5.8,0,1,0,5.83-5.76Z" transform="translate(-7.5 -7.5)"/><path class="cls-3" d="M864.65,643.68h-.11a5.71,5.71,0,0,0-5.71,5.76,5.79,5.79,0,1,0,5.82-5.76Z" transform="translate(-7.5 -7.5)"/><path class="cls-3" d="M749.45,781.92h-.11a5.71,5.71,0,0,0-5.72,5.76,5.8,5.8,0,1,0,5.83-5.76Z" transform="translate(-7.5 -7.5)"/><path class="cls-3" d="M777.9,735.84a57.6,57.6,0,1,0,57.6,57.6A57.67,57.67,0,0,0,777.9,735.84Zm0,103.68A46.08,46.08,0,1,1,824,793.44,46.14,46.14,0,0,1,777.9,839.52Z" transform="translate(-7.5 -7.5)"/><path class="cls-3" d="M795.18,758.88a17.28,17.28,0,1,0,17.28,17.28A17.3,17.3,0,0,0,795.18,758.88Zm0,23a5.76,5.76,0,1,1,5.76-5.76A5.77,5.77,0,0,1,795.18,781.92Z" transform="translate(-7.5 -7.5)"/><path class="cls-3" d="M633.9,781.92a5.76,5.76,0,0,0-5.76,5.76v46.08a5.76,5.76,0,0,0,11.52,0V787.68A5.76,5.76,0,0,0,633.9,781.92Z" transform="translate(-7.5 -7.5)"/><path class="cls-3" d="M645.42,805h-23a5.76,5.76,0,1,0,0,11.52h23a5.76,5.76,0,0,0,0-11.52Z" transform="translate(-7.5 -7.5)"/><path class="cls-3" d="M438.06,828a5.76,5.76,0,0,0-5.76,5.76v46.08a5.76,5.76,0,0,0,11.52,0V833.76A5.76,5.76,0,0,0,438.06,828Z" transform="translate(-7.5 -7.5)"/><path class="cls-3" d="M449.58,851h-23a5.76,5.76,0,0,0,0,11.52h23a5.76,5.76,0,0,0,0-11.52Z" transform="translate(-7.5 -7.5)"/><path class="cls-3" d="M438.06,217.44a5.76,5.76,0,0,0-5.76,5.76v46.08a5.76,5.76,0,0,0,11.52,0V223.2A5.75,5.75,0,0,0,438.06,217.44Z" transform="translate(-7.5 -7.5)"/><path class="cls-3" d="M449.58,240.48h-23a5.76,5.76,0,0,0,0,11.52h23a5.76,5.76,0,0,0,0-11.52Z" transform="translate(-7.5 -7.5)"/><path class="cls-3" d="M230.7,482.4a5.76,5.76,0,0,0-5.76,5.76v46.08a5.76,5.76,0,0,0,11.52,0V488.16A5.76,5.76,0,0,0,230.7,482.4Z" transform="translate(-7.5 -7.5)"/><path class="cls-3" d="M242.22,505.44h-23a5.76,5.76,0,0,0,0,11.52h23a5.76,5.76,0,0,0,0-11.52Z" transform="translate(-7.5 -7.5)"/><path class="cls-3" d="M362.89,344.45c-15.22-15.23-41.79-15.23-57,0a40.32,40.32,0,1,0,57,0Zm-8.15,48.87c-10.87,10.88-29.84,10.88-40.72,0a28.8,28.8,0,1,1,40.72,0Z" transform="translate(-7.5 -7.5)"/><path class="cls-3" d="M371,336.3a5.76,5.76,0,0,0-8.82,7.34c-.21,3.69-7.16,16.79-23.76,33.39s-29.7,23.55-33.39,23.76a5.76,5.76,0,0,0-7.34,8.82,9.37,9.37,0,0,0,6.9,2.66c14.05,0,36.84-21.95,42-27.09C352.72,379.06,382.66,347.92,371,336.3Z" transform="translate(-7.5 -7.5)"/></svg>