<?xml version="1.0"?>
<svg xmlns="http://www.w3.org/2000/svg" xmlns:xlink="http://www.w3.org/1999/xlink" version="1.1" id="Capa_1" x="0px" y="0px" viewBox="0 0 512.001 512.001" style="enable-background:new 0 0 512.001 512.001;" xml:space="preserve" width="512px" height="512px"><g><g>
	<g>
		<path d="M460.915,495.393c-7.895-73.251-45.489-140.751-92.983-183.859c2.059-17.312,3.069-35.733,3.069-55.534    c0-92.492-37.008-181.78-104.206-251.416C263.968,1.654,260.072,0,256.001,0c-4.071,0-7.967,1.654-10.794,4.584    C178.009,74.22,141.001,163.508,141.001,256c0,19.993,1.016,38.241,3.085,55.52c-47.317,42.935-85.078,110.37-93,183.873    c-0.538,4.996,1.461,9.931,5.326,13.143c3.91,3.251,9.142,4.26,13.895,2.833l140.694-42.166    c9.556,11.782,20.62,24.134,34.206,38.214c5.918,6.108,15.663,6.116,21.588,0c11.536-11.954,23.176-24.543,34.253-38.2    l140.647,42.152c4.741,1.422,9.974,0.426,13.895-2.833C459.454,505.323,461.453,500.389,460.915,495.393z M84.43,475.817    c9.576-47.567,33.037-92.519,65.845-128.118c7.647,33.595,20.761,64.903,41.674,95.896L84.43,475.817z M271.001,458.339V327    c0-8.284-6.716-15-15-15c-8.284,0-15,6.716-15,15v131.354c-51.135-59.95-70-117.253-70-202.354c0-79.609,30.07-156.756,85-218.899    c54.93,62.144,85,139.29,85,218.899C341.001,350.423,316.773,404.71,271.001,458.339z M320.086,443.604    c19.487-28.912,33.32-59.539,41.644-95.903c32.731,35.512,56.247,80.449,65.843,128.116L320.086,443.604z" data-original="#000000" class="active-path" data-old_color="#000000" fill="#6831E4"/>
	</g>
</g><g>
	<g>
		<path d="M311.811,175.567c-12.77-19.224-33.633-30.7-55.811-30.7c-22.178,0-43.041,11.477-55.811,30.7    c-4.581,6.902-2.704,16.211,4.197,20.795c6.898,4.581,16.21,2.706,20.795-4.195c7.303-10.994,18.536-17.3,30.82-17.3    c12.284,0,23.518,6.306,30.82,17.3c4.601,6.925,13.916,8.764,20.795,4.195C314.516,191.778,316.394,182.468,311.811,175.567z" data-original="#000000" class="active-path" data-old_color="#000000" fill="#6831E4"/>
	</g>
</g></g> </svg>
