<svg id="Layer_1" data-name="Layer 1" xmlns="http://www.w3.org/2000/svg" viewBox="0 0 375 236"><defs><style>.cls-1{fill:#6831e4;}.cls-1,.cls-2,.cls-3{fill-rule:evenodd;}.cls-2{fill:#393d60;}.cls-3{fill:#fff;}</style></defs><path class="cls-1" d="M105.29,177.59H104.1l-.66-6.06-1.15-7.75.12-5.81.29-12.77-.08-6.89.08-2.63,5-.33,9.61-.91,3.69-.33,0,.91.33,2.3,1.43,3.26,1.56,6.59.74,2.07.58,2.76.82,2.68,1.11,1.4.2,1.48.74.29.08.7-.69,2-.33,2.1.65,1.85.17,2.15L128,167.7l.37.45.61.33.21.91-2.3,0-2.75.25-10.55,1.19-4.31.62-.17,1.65.82.82,1,.74.12,3.14-2.13,1-1.11-.13,1.11-.78v-.41L107.63,175l-.95-.24-.61,1.81-.54,1.11ZM88.37,128l1.52-.41-.37,1.28L89,130.61l-.13.86-1.72,1,.57,1.65-.37,1.69-.86.58-.08,1.36-1,.45-1.19,2.39.21.7,0,.7-1,.46-1.64,2.3.33.91L81,146.6,80.57,149l-.29,1,.58.91-.62.57.7,1.28.12,1.57-.37.78-11,.33-10.35.08-.16-4.16L58,150.89l-1.23.49-.86-.66L55.77,135l-.57-4.5,0-3.5-.62-2.84,9.69-.13,9.57-.29,13.09-.49.74,1.19-.25,1-1.27,1.07-.37,1.28,2.63.29ZM-97.28,146l1.07-.91,1.52-.16.69-1,.37-1.24-1.6-.16-.2-.33.24-.66,0-2.39.78-.37,1.24-1.2.2-2,.66-1.48.65-.74,1.4-.66.7-.5.16-1-.45-.37-.29-.45-.45-2.27L-91.7,126l.17-1.36.61-1,.21-5.15.12-.62.12-2.8.86-.7.46,0,.49.45,1.07.17.49,1.07,1.15.08.86-1.57,1.07-6.8.08-.45L-59,111.85l10.1,1.49-1.81,12.77L-53.6,148l-2.46,16.32-10.43-1.11-5.05-1-6.9-4.12-6-3.55-5-3.13L-97.2,147l-.21-.41.13-.62Zm-5.09-1.57-8.09-1.11-4.11-.62-.2-.74v-3.87l-.12-1.32L-116,135l-.33-1-1.6-1.73-1.19-1.94-1.11-.08-1.32-.33-.12-.41.62-.25-.25-1.32-.61-.86-2-.33-1.61-.87-.45-1-1.07-2-1.19-1.27h-1.19l-1.6-.87-1.85-.74-1.72-.21-1-1.11.2-.78.74-2.93.33-.78v-1l-.66-.41-.2-1.2-.62-1.07-1.4-2.39-.53-1.28-.62-1.94-.65-2.18-1.32-1.81-.2-1.2.33-1.61h.45l.86-.66.45-1.48-.41-1.11-1.11-.21-.78-1.07-.86-1.53-.08-3.38.25-.78.24-1,.21-1-2.34-2.59v-.87l.12-.2.12-1.32-.53-1.65-1-2-1.1-1.85L-146.3,74l.41-1.53.24-2.39.74-1.27.13-2.68-.46-1.49-.65-1.73L-147,61.2l.33-1.32.61-1.73.74-.33.13-.45,1.27-1.07,2.13-4.87.09-3,.69-2,15.88,4.87L-114.62,54l-3.28,12.9-3.56,13.64,5.19,7.91L-99,114.08l7,10.76-.16,1.27,1.15,2.15.45,2.22.41.62.29.25-.08.58-.58.41-1.39.66-.78.86-.7,1.61-.21,1.94-1.06,1-1,.45,0,2.56-.25.78.41.7,1.24.12-.17.66-.57.83-1.6.24-5.83-.37Zm-30.34-20.15.53.62-.08.53-1.31,0-.25-.49-.25-.62Zm.78,0,.49-.25,1.48.87,1.27.49-.37.25-1.85-.08-.65-.66-.37-.62Zm8.5,8.16h0v-.49l.45-.09,1.11.83.41.74-.25.62-.62-.25-.32-.41-.74-1ZM-124,136l.74,1.31.49.79-.61.08-.54-.49a4,4,0,0,1-.28-.79V136ZM3.35,82.43,1,117.87l-5.88-.25-14.24-1.23-15.4-1.82-14-1.61.78-5.64,2.88-20.77.9-9.11L-11.44,81ZM197,64l-2,1.4-.7-.9.37-.87V60.25l-.61-3L193.8,56,202.75,54l1.77-.46.65,2.48.33,1.81.25,1.73L202.87,61l-2.13.46-1.11.61-.33-.24-.78.86L197,64Zm-7.22,23.21.94,3-2.46.45-2.05.12-1.52-6.63-.95-2.31-.57-1.69.08-.12.82-.7.7-.42.25,0-.05.46-.2.94-.21.83.87,1.48.94.41.78,1.49.74,1.93,1.48,1,.41-.2Zm-34.57,81.6,2.13.13,1,3,1.52,4,2.17,3.88,1.52,2.6,2,2.26,1.65,1.53.65,1.19-.45.54-.29.57,1.19,3,1.19,1.2,1.07,2.18,1.48,2.39,1.85,3.38.53,3.14.21,4.94.24.75-.12,1.4-1,.53.13.79-.25.78.12,1,.21.78-1.11,1.32-1.27.62-1.6.08-.62.66-1,.41-.54-.2-.45-.42-.12-1.19-.33-1.4-1.4-2.15-1.47-.94-1.6-.13-.33.54-1.28-1.82-.24-1.48-1.07-1.65-.74-.45-.66.86-.74-.12-.86-2.06-1.19-1.61-1.19-2.18-1.07-1.28-1.47-1.52.86-1,1.31-2.27-.08-.66-1.85-.41-.65.25.12.24,1.07.41-.62,1.86-.33.21-.74-1.65-.53-2-.12-1.11.61-1.94v-3.92l-1.23-1.52-.53-1.28-2.14-.54-.78-.24-.66-1.07-1.39-.66-.45-1.4-1.11-.42-1-1.52-1.72-.62-1.19-.62h-1.07l-1.64.33-.08.78.33.42-.21.45-1.27-.08L133,180.27l-1.48.78h-1.6l-1.31.54-.13-1.11-.65-.79-1.19-.45-.66-.62L122.65,177l-3.12-.74-1.8.25-2.47.21-2.46.86-1.36.25-.12-3.46-1.19-.83-.66-.66.13-1.15L124.13,170l2.71-.21h2.42l1,1.73.7.7,3.36.13,13.31-.79,2.17-.28h1.68l.09,1.15,1.68.41.16-2.14-.61-1.81.29-.33,2.13.28Zm7.27,54.7,1-.25.54-.08.61-.95.95-.66.53.21.7.12.16.45-1.44.5-1.72.61-.94.5-.37-.45Zm5.54-2.06,1-.62,1.4-.79,1.81-1.73,1.31-2.18.62-1.9.41-1.15.28-.21-.08,1.4-.41.7-1,2.73-1.51,1.6-2.18,1.73-1.11.87-.49-.45Zm-12.81-53.05-2.3-.29-.57.66.65,1.94-.12,1.61-.9-.25-.09-1.24h-2.13l-2.18.29-13.26.79-3.16-.13-.57-.49-1-1.78-.33-1.36-.66-.37-.2-.2.37-.91-.17-2.27-.65-1.85.33-2,.69-2-.08-1-.78-.29L128,156l-1.15-1.44L126,152l-.62-2.89-.7-2-1.56-6.59-1.43-3.3-.33-2.18,0-1,1.35-.13,5.59-.66,7.63-.82,2.59-.45.21.57-.91.37-.37.91.17.83.57.66,1.77,1.11,1.31,0,1.32,1.93.24.66,1,1.16.2.7,1.93.74,1.23.91,1,1.23.94.54.82.74.58,1.11.86.79,1.68.74,1.11,2.47.7,2.1,1.15.29.86.79.82,2.35,1.19.66.7-.33.16.49L158.37,159l.2,1.08-.61,1.73L157,166l.33,2.6-2.09-.13ZM75.85,61l.86.87.12.29L76,63.42l.13,1.65,1.07,1.69,1.27.66,1,.13.37.74.08,1,1,.41.37.45.21.66,1.56,1.36.24.79L83,74.18l-.69,1.53-.25,1-.86.66-.66.2-2.34.62-.66,2,.33.74.7.62L78.52,83l-.78.58-.29.74v1l-.57.16-.7.58-.21.7.17.7-.54.41-.94-1.11-.58-1.15-3.4.33-4.11.24-20.2.5-.65-1.77-.17-2.76L45,80.36l-.29-2.14-.9-1.52-.41-1.9-1.11-3.21-.45-2.31-.58-.79-.53-1.19.69-1.57.5-2.51-1.11-.91-.12-1,.28-1,.74-.12L66.78,60l8.7-.29L75.85,61ZM-80.78-3.25l5.34,1.06-1.81,8.87,1.32,3.12-.54,1.91.82,2,1.32.63,1.89,4.22L-71.38,20l.25.49,1.4.48.16.79-2.87,7.06.08,1.28,1.19,1.4.7.09,2.09-1.45.08-.16.13,0,0,1.94,1.11,5.4,1.35,1.07,1,1.19-.29,1.2.29,1.65.82.45,1-.82,1-.09,1.4.62,1-.29,1.56,0,1.6.66,1.32-.21.28-1.07.87-.41.32.45.17,1.08,1.11,1-1.56,9.93-2,12-14.29-2.51L-86.28,60l-8.5-1.85,3.62-14.55.49-1.73,1-2.39-.45-.95-1.07,0-.24-.41.16-.45.17-1.28,1.76-2.19.74-.33.49-.45.37-1.2,1.85-2.72,1.6-1.81.08-1.61L-85.66,25l-.5-1.83.17-4,1.39-6.69,1.85-8.59,2-7.18Zm182,76.94.08.37.37,4.82.58,6.31.45,6.51.29,3-.33,2.18.12,1.36.74,1.32.21,2.18-1,1.65-.74,1.57-1,1.24-.16,2v1.65L100.4,111l-.49.53.33.83.2.53-1.4.5-1,.66-.17,1.15.5,1.11v.46l-.21.08-2.5-1-1.15.41-1,.7-.41.91-.65.12-.7-.86-.62-1.57.37-1.15-.82-1.41-.9-2.1-2-.33-2.63-2.18-.82-1.53.33-1.23.9-2.56.29-1.44L84.8,101l-2.71-.25-.29-.49V98.42l-2.34-1.53-2.87-3.13-1-2.89-.12-1.6.37-1.16.66-.53-.17-.83.17-.49.57-.5.74-.24V84.36l.21-.53.86-.66L79,81.39l-.78-.74L78,80.2l.54-1.69L80.65,78l.78-.24,1-.79.33-1.11.69-1.53.29-1.36-.29-1-1.6-1.41L81.68,70l-.45-.58L80.32,69l-.08-.87h5.05l7.14-.41L99,67l.17,2.27.61,1.07.66.74.53,1.52.33,1.08Zm1.73.74.61.41.45-.12.87-.79,1-.74,5.87-.45,7.56-.74.65,6.39,2,17.55-.25,1.2.53.66.09.53-1,.66-1.48.7-1.31.17-.21,2-1.93,1.48L115.34,105l.09,1-.21.58h-1.44l-.57-.7-2.14,1.23.09,1.28-.37.08-.21-.37-1-.7-1.48.62-.58,1.19-.49-.24-.66-.75-1.8.21-2.34.41-1,.54v-1.07l.17-1.94.94-1.2.74-1.6,1.11-1.73L104,99.41l-.74-1.28-.12-1.32.33-2.18-.29-2.93-.37-5.19-1-12.41,1.24.33ZM46.74,92.32h2.14l1.43,1.4,1.07.08.33.29V95l-.7.58-.25,1.24,1,1.48,1,1.24,1,.82.49,4.58-.28,14.42-5.18.13-19-.25-18.35-.87-10-.41L3.18,91.2l8.91.37,16.67.5Zm49.8,29.8L92,122.2l.87-.7,1-.54,0-1.36.37-.74-.7-1,.33-.74.82-.58,1-.37,2.5,1,.66-.16v-.91l-.49-1,.16-.91.78-.57,1.73-.58-.62-1.53.41-.41.49-1.4,1.15-.54,2.3-.41,1.52-.16.57.66.91.41.74-1.44,1.11-.46.69.5.33.57,1-.24-.08-1.36,1.6-.91.53.54,1.85,0,.37-1-.08-.91,1.06-1.52,2-1.49.21-1.85,1.07-.17,1.56-.74,1.15-.82-.13-.87L122.2,97l.21-.87,1.72-.08.86-.33,1.19.62.74,1.85,2.3,0,.74.83h.94l1-.58,1,.21.78.69,1-1.11.82-.49.54-.08.2.94.78.46,1.07.82.08,2.51.37.79,1.07.58.2.9,1.24,1.57,1,1.11,1.36.83-.87,1-1.68,1.49-2.46,3.21,0,.79-1.6.86-2.3,1.49L116,118.82l-12.48,1.32h-1.77l0,1.69-5.17.28Zm-33,63.51-1.93.62-.08-1.53.54-1.23.32-3,.21-1.08-.49-1,1.15-1.89.28-3.42-.24-.33-.13-1.28L61.44,169l-.37-1.82L60,165.35l-.2-1.53-.29-3.91-.17-4,10.35,0,10.84-.33,0,.29.16,2.1.82,1.86,0,.78.9.82-.16.83-.57.16.37,1.07-3.53,6.1-.33,3.51.33,1L92,173.47l.53-.08.08.2-.41,3,1.4,1.4.9,2.68-.78.7-.74.79.41.74,1.27.24.25-1.07.78-.86.62-.08.12,1.11L97,183l-.74,1.28H94.94v.21l.74.41-.08.25-.95-.13-.45,1.11,1.31,1,2.39.33,1.39,1.12h.54v.61l-1,1.28-.45-.41H97.24l-.41-.62-1.64-.78-1.73-.25-.24-1.28-.25-.33-.45.54-.86.2.08.62-.33.66.86.13-.33.2-.94,1.4-1.4.54-.24-.25.94-.33L90,189.3l-.53-.42-.74.62-1.07.25-.41,1-1.48.54-3.45-1.49-.65-.66.53-.33.33-.66-.74-.74-1.85-.12-.12-.95-.62-1-1.31-.25-.74.42-.74-.62-1.27.41-.33.62,1.11.66,1.07-.21,1.31.45-.33.87-1.31-.41-1.31-.46-1.52.62L71.13,187l-4.23-1.48-3.33.12ZM211.62,56.46l-.86.37-1.19-1.94-1.4-1.77-.82-.66-4.6,1.16-9,2-.29-2,.25-4.36,5.66-1,7.52-1.94.74-1.2,1.52-.74,1.19,1.81-1,2.15-.12.62L210,50l.45-.33h.74l.94,1.07,1.6,2.47,1.48.21.95-.41.73-.75-.32-1.11-.87-.66-.61.33-.41-.53.2-.21.86-.08.74.33.78,1,.41,1.19.13,1-1.73.62-1.6.78-1.6,1.86-.78.62v-.42l1-.61.2-.75-.33-1.27-1.19.61-.33.62.21,1Zm5.13.58.9-.29.21-.7.41,0,.41.95-.53.2-1.6,0Zm-3.86.33,1-1.07h.65l.74.61-1,.42-.91.41-.45-.37ZM190,94.21l-3,1.2-.41-.17-1.32-1.73-.66.33-1.6-.2-1.06-1.41.12-1.4.66-.53-.66-.74-.45.78-.21.08-.12-1.48.86-.41-.2-2.27-.74-.13-.13-.45.54-1.52.61-.66-.2-.42-.78.66-.78.54a4.37,4.37,0,0,0-.21.87c0,.28-.61.94-.61.94l.53.54.08.86-.53,2.19.86,2.27,1,.86v.74l.61.87-.41.86-.86-.12-1.27-.41-1.77,0-1.4-.45-.82-.54-.12-.33v-.86l.74-1.08.29-1.36.86-1.36-1.52-1L175,88.85,172.62,88l.24-1.2-2-.66-.53-.57-.78-.74-1.11-.58-.61-.45L167,84l-.82.62-1.07.87L164,85.6l-.66-.29-.74,1.11-.57.62-1,.29-2,2-.82-4.29,15.44-3.13,9.11-1.77.62,1.89.94,2.27,1.56,6.93,2.38-.13,2.59-.45-.21,2-.7,1.56ZM184,94.3l.78-.17.29,1s.28,1.15.28,1.28-.36.49-.36.49l-.46-.78-.08-.74Zm18.68-71.06.62.16V22.33l.32-2.26,1.07-1.94.62-1.65-.78-1V13l.33-.41.32-1.12-.08-.61-.08-2,.74-2L207,3.25l.86-1.73h.54l.53.08v.45l.53,1,1.11.25.33-.33V2.51l1.64-1.2.74-.74.62.08,2.46,1,.78.41,3.74,12.33h2.46l.33.78.08,2,1.19.95h.33l.08-.21-.2-.45,1.15-.21.78.87.94,1.52v.79l-.86,1.93-.78.25L225,23.86l-2,2.26h-.53c-.25,0-.41-.86-.41-.86l-.74.08-.41.62-1,.62-.41.62.66.62-.21.24-.2,1.12-.78-.09v-.66l-.12-.53-.62.12-.74-1.32-.86.54.53.62.13.45-.33.54.12,1.27.08.66-.65,1.07-1.19.21-.13,1.2L213,34.53l-.54.21-.65-.62-1.28,1.48.41,1.32-.61.54-.08,1.81-.46,2.6-.9-.37-.2-1.28-1.65-.45-.08-1-4.8-15.43.53-.07Zm15,6.43.61-.62.58.45.24,1-.7.37Zm2.75-2.43.57-.91.82-.29.33.74-.37.33s-.08.71-.08.83-.53.08-.53.08l-.74-.78ZM111.86,72.33l-5.34.41,1.31-1.28.13-1.11,1-2.14.41-2.48.33-1.93-.62-2-1.19-2.68-1.47-2.47.12-1.12.12-.33.33-1-.21-.45-.24-1.94.66-1.64.45-2.52-.33-1v-.45l.94-.21.25-1.07-.25-.33.09-.41.73-.78,1.11-.46.41-1.73.78-.33.33.33-.24,1-.54,1V45l.25.08,1.48-.86-.13-2.27-.12-.66.12-.86.62-.75,1.07-.12,1.06-.33-.2-.33-.86-.21-.41-.12-.13-1.48,1.19-.95,1.19-.74,1.28,1,.41.2.24-.25h1.11l2.26,1.41,1.85.61h1.06l.54,1.08,1.07.9-.09.66-.65-.12-.33.33.33.86.53.33.66,1,.12,4.12-1,.66-.25,1.07-.33,1.4-1.4.54s-.12,1.81-.2,2.06,1,.87,1,.87l.62.24.45-.24,1.11-1.53.78-2.06,1.6-.74.66-.45,1.07.74,1,1.32.95,3.75,1.31,3.38.16,3.75-.78.41-.32-.08-.09-.25L132.3,62l-.61,1.24-.09,1.48-.45.13-.66.66.09,2.1-.82.7-.87,1.52-.08.62,0,.25-4.93.7-4.06.62-.08-.46-7.84.79ZM98.18,42.49,97.65,42l-.74-4.29-1.52-.54-.7-1-5.17-1.15-1.15-.45-3.32-.91-3.21-.41-1.6-2.19.29-.2,1.11-.33,1.48-.95v-.41l.24-.25,2.47-.41,1-.78L88.62,27l.08-.54.78-1.19.74-.33.53-.74,1-.95,1.8-1L95.43,22l.45.46-.12.41-1.52.41-.61,1.28-.95.33-.2,1-1,1.32-.12,1.07.33.21.41-.46,1.48-1.19.53.53h.94l1.32.41.61.46.62,1.28,1.11,1.11,1.6-.08.62-.42.65.54.66.21.53-.33h.45l.66-.42,1.64-1.48,1.4-.45,2.71-.13,1.85-.78,1.06-.54.62.09v2.35l.2.12,1.19.33.79-.21,2.5-.66.45-.45.62.21V31.4l1.31,1.28.53.25.54.41-.54.12-.32-.12-1.52-.21-.86.25-1-.08-1.31.61h-.74l-2.38-.53-2.14.08-.78,1.07-2.87.25-1,.33-.45,1.28-.53.45-.21-.08-.61-.66-1.85,1H102l-.45-.66-.33.08-.78,1.81L100,40l-1.31,2.85-.54-.33ZM86,19.2l.74-.86.9-.33,2.22-1.61.94-.25.21.21-2.1,2.1-1.35.78-.86.37Zm35.39,13.23-.41-.21.12-.45.66-.08.9-.08a8.63,8.63,0,0,0,.66.78c.12,0,.16.66.16.66l-.53.49-1.31-.08-.25-1ZM38,12.89l-.74-2.28,12.35,0,.13-3.38L50,7.16l1,.21.78.33L52,10l.61,2.51.66.66h2l.12.62,2.59.12v.87h2l.12-.54.46-.45.94-.25.53.41H63.2L64.81,15,67,16l1,.2.2-.41.62-.21.2,1.2,1.07.53.21-.2.53.08v.87l1.07.41h1.27l.66-.33,1.31-1.32,1.07-.21.33.74.2.54h.41l.41-.33,3.66-.12.74,1.28h.24l.29-.46,1.81-.16L84,19l-1.6.75-3.78,1.69-2,.82L75.4,23.36l-1,1.49-.94,1.6-.74.33-1.85,2.06-.53.09-1.56,1.19-1.07,1.24-.08,1.23.08,3.3-.49.58L65,38.12l-.9,2.51,1.15,1.28L65.54,43l-.61,1.24,0,1.61.2,2.88,1.44,1.57h1.31l.82,1.15,1.4.37L71.54,54l2.95,1.89.74.87.21,2.47-8.71.29L42,59.8V45l-.29-1.32L40,42.24l-.37-.7v-.62l.74-.54.65-.74V37.46l-.16-2.64-.74-3-.74-5.54-.2-4.09-.78-1.37-.66-2.08V14.5L38,12.89ZM90.75,125l-.7,2.18-1.68.46-2.13-.21.2-.74,1.27-1,.33-1.28-.9-1.52-13.34.53-9.57.29-9.73.08-.2-2.35.32-16.48-.53-4.78L53,99.24,52,98l-.87-1.31.21-1,.74-.66v-1.2l-.58-.45-1.06-.08L49.2,92.11,48,90.5,47,89l0-.91L46.53,87l20-.49,4.11-.25L73.84,86l.49,1,1.07,1.28-.29,1L75.32,91l.94,3,3,3.21,2.17,1.44v1.69l.45.79,2.84.24.78.42L85.21,103l-.9,2.47L84,106.82l.9,1.74,2.79,2.3,1.89.29.74,1.9.82,1.32-.37,1.07.7,1.85.86,1,1-.12.45.66-.29.66v1.19l-.78.42L91,122.53,90.75,125Zm4.6,55.14-.45.33L94,177.8l-1.35-1.36.41-2.93-.25-.58-.78.13-3.36.29-9.94.28-.2-.61.33-3.38,3.53-6.19-.25-.78.37-.12.29-1.28-1-.82,0-.71-.82-1.85-.16-2.06.08-.37.49-1-.12-1.73-.62-1.16.62-.57-.66-1,.25-.79.41-2.35,1.23-1-.33-1,1.44-2.1,1.19-.45,0-1-.2-.66,1.06-2.1,1.15-.54.08-1.32,5.34-.16,8-.66,2-.12-.08,2.59.08,6.89-.41,18.58,1.15,7.83.69,6.1-.16.66h-2.13l-.62-.33-.86-.12-2.79.78-.74-.33-1.07,1.73ZM-4.5,14.53-6.67,38.08l-.54,6.26-24.26-2.72-20.12-2.93-.57,4.62-.78-.7-.17-1-.53-.78-1.36.62-.28,1-.95.13-1.56-.66-1.68,0-1,.29-1.31-.62L-63,41.7l-.86.79-.37-.25-.29-1.4.29-1.32-1.11-1.32-1.36-1-1-5.19,0-2.19-.66-.33-.25.42-1.84,1.31-.5,0L-71.95,30-72,28.85l2.87-7.07-.25-1.1-1.43-.47-.17-.37-1.11-1.44L-74,14.11l-1.32-.65-.74-1.76.54-1.91-1.32-3.12L-75-2.1-61.61.74-54,2.14l13.26,2.18,12,1.65,12,1.44L-4.13,8.68l-.37,5.85ZM170.24,132.79,165,129.62l-1.27-.33-6.82.86-.65-1.23-1.15-.91-6.86.21-3,.37-3.77,1.85-2.8,1.11-2.66.5-5.51.58,0-1.69.7-.54,1.11-.29.29-1.56,1.6-1,1.6-.62,1.85-1.53,1.81-1,.28-1.32,1.69-1.56.28.41,1,.08,1-1.48.7-.17,1.07.13.74-1.65,1-1,.2-.74,0-1.44,1.81,0,15.8-2.31,23.61-5.07.82,2,1.48,2.68,1,1,.24.94-1,.09.32.24L191.5,117l-1.07.53-.24.87-.54,1.19-1.51.66-1-.12-.62-.09-.65-.53.12.53v.42h.78l.33.53-.78,2.6h1.72l.25.66.94-1,.54-.21-.78,1.49-1.27,2h-.54l-.45-.21-1.11.25-2.13,1-2.67,2.18-1.4,1.94-.78,2.68-.2,1-1.93.2-2.1.62-4.18-3.42ZM190.48,122l1.06-1,1.32-1.07.61-.25.08-.82-.24-2.52-.62-.94-.24-.79.28-.08,1.11,2.27.17,1.81-.09,1.4-1.39.62-1.15,1-.45.49ZM40.62,37.46V38l-23.36-.7L-6.06,35.64l1.93-21,.37-5.94L6.59,9.6l10.88.53,7.63.25,11.75.24.74,2.29-.25,1.58v4.29L38,21l.78,1.31.2,4,.74,5.61.74,3Zm-.28,32.11,1.1-.09.41,2.19L43,74.92l.41,1.94,1,1.53.2,2.06.58,1.69.16,2.76L46.08,87l.58,1.11,0,.95,1.07,1.61.9,1.24H46.74l-18-.25-16.67-.5-8.91-.41.58-8.7L-9.83,80.73l1.76-18,14.62.91,17,1L28,64.37l.9.83,2.47,1.69,1.72-.5,1.52-.16,1.07,0,.9.49,2,.62,1.19.66.21.66.41.94Zm168.9-26-.29.33-1.64.78-.7,1.2-5.67,1.44-2.09.5-.41-.46.21-.62.08-1.93-.41-.58.08-1.94.33-3.79V35l-.45-.79v-.29l1-.37,1.6-2V29.79l-.78-1.15-.2-3.47.08-.94.61-.78.42.41.24.2.25-.66.29,0,4.8,15.45.12,1.24,1.69.45.2,1.28,1.11.49-.45,1.32ZM185.43,79.46l0-.62,1.11-.54.69-1.15.7-1,1.36-1.32v-.49l-2.51-1.69-.41-1.12-1.11-.12,0-.37-.29-.91.91-.45.08-1.2-.53-.53.08-.5.78-1.27V64.91l1-1.28,2.3,1,2.63.78,1,.5,0,.74-.21,1.11.17,1.86-.86.78-.46.41.21.21,1.11-.12.45-.33.66,1.4.08,3.87.24.45-.45,2.27L193,81.27l-1.11,1.65-.33,2-.86,1h-.33l-.12-1.12.33-.41-.08-.62-1.65-.24-2-1-1.31-1.2-.41-.82.29-1.07ZM-41.82,162.34l-6.85-1.07-.49,4-6.49-.83L-53.19,148l2.88-21.93,1.8-12.73,14,1.61,15.36,1.81L-6.06,118l-.12,4.45-.57,0-3,40.27-11.66-.74-15.64-1.53.28,2.6-5-.62ZM-102.21,56.91l15.89,3.51,10.67,2.14L-80,84.44l-2.21,12.29-1.36,6.39-.86,4.57-1.07,6.76-.7,1.28-.65,0-.5-1.08-1.15-.2L-89,114l-.74,0-.37.33-.74.53-.12,3-.12.62-.21,5.11-.45.74-6.86-10.51-17.28-25.59-5.1-7.83L-117.51,67l3.29-12.9,12,2.84ZM193.51,67.79l.21-1.11-.08-1-1.24-.62-2.66-.82-2.47-1.07L187,63l-1.11-.12-.82-.62-.87-2.43-1.35-.21-1-1L166.13,62l-13,2.48L153,61.78l.66-.5.53-.45.41-.66.74-.45.78-.75.21-.66.86-1.11.45-.41-.08-.41L157,55.1l-.74-.08-.78-2.52,1.19-.74,1.81-.62,1.64-.53,1.32-.21,2.58-.08.78.53.66.09.86-.54,1.07-.45,2.14-.21.86-.74.74-1.32.65-.78h.87l.78-.46.08-.94-.62-.87-.12-.62.45-.86v-.62h-.74l-.74-.33-.33-.45-.08-1.08,2.38-2.26.25-.33.62-1.2L175.74,35l1.11-1.53.86-1,1-.74,1.27-.49,2.26-.54,1.32.08,1.84-.61,3-.91.29,2,1,2.68.33,2.06-.41,1.73,1.07,1.85.33.83-.37,1.32,1.52.7,1.11,4.2v2.39L193,53.57l.33,2.23.29,1.48.61,3v3.34l-.45.95.86,1.11.21.37-.78.74.12.54.53-.12.62-.54.94-1.07.46-.25.65.25,1,.08,3.24-1.61L202.79,63l.54-.62,1.72.66-1.4,1.49-1.6,1.19-2.91,2.19-1.07.41-2.38.78-1.64.45-.41-.16Zm-73.73,4.62,9.48-1.4.9.53,1.07.62,2.14-.24,1.39,1.27.86-.08L137.88,72l1.19-.21,1.32-.33L142,69.89l1.4-1.52,1.6-1,2.54-1.52,1.77,10.55.24,1.15-.53.5-.49.74.49,1.32v1.89l-.21,2.06-.08,2.23-.9,1.52-1.23,1.36-.86.62-.91-.2-.53.62-1,1.48-.45.58v.9l.37,1.12-.16.16-.29-.08-.41-.45-.41-.29-.78.53-.45,1.73,0,2-.7.62v.87l-.5.24-.82,0-.33-.08-1.06-.82-.66-.41-.25-1.12-1,.17-.95.57-.74.83-.61-.54-1.27-.2-1,.57h-.7l-.74-.82-2.21,0-.7-1.73L125,95.33l-.94.33-1.6.08-2-16.94-.7-6.39Zm-103.42,51-22.17-1,.16-4.41,17,.75,18.35.86,19,.21,5.17-.13,0,1.78.25,2.8.62,2.72,0,3.54.57,4.5.13,15.49-.78-.49-1.4-.37-1.23-.7-.7-.91-.94-.25-.82.74H48.14l-.25-.57h-.57l-1.11.78-.78-.37H43.58l-.29,1.11-.65.29-1.24-.33L40,148.91l-1.73-.33-.45-.87H37.3l-.78,1.73-.7.13L34,148.82l-.28-.94-1.11,0-.74-.24-1,.86-.86-.29v-.94l-.49-.05-.91-1.27-1.43-.29-1,.7-.94-.66-1.73-.25-1-.41-1.56-.21.16-1.44-1.15-.58-.08.46-.12.08-.66,0-.62-.78-.37.86h-.37L17,143l-1.65-1.48-.08-.66.37-7.42ZM-125.06,50.85-140.88,46-142,44.51l.53-2.48.33-3.54.78-1.2L-137,32.1l2.67-5.61,2-5.81L-131,18l1.31-4.12,1-2.68,2.38-.86,1,.2.28,1,1.69.25.84,1.44-.09,3.83,2.18,1.59,2.57.1.73-.63,1.82.52.45,0,2,.73.81.59,1.92.12.53-.22,1,.65,1.84.2,2.1-.76.45.54,6.08-.16,6.28,1.43,5.38,1.58.49,1.88,1.39,1-.08,1.34-1.52,1.65-1.6,2.35-.33.45-.28,1.11-.37.33-.78.37-1.93,2.35-.17,1.36-.24.62.53.74,1,0,.28.54-1,2.26-.49,1.82L-95.19,58l-7-1.52-11.3-2.68-11.59-3ZM149.67,64.58l.53-.21,2.34-2.27.29,2.85,13.75-2.68,15.15-3.21,1,.94,1.27.17.82,2.31,1,.78,1.15.16,0,0-1.06,1.31v1.28l-.78,1.28-.09.78.54.54-.08.78-1,.45.41,1.41.08.45,1.15.12.37,1,2.42,1.61v.17l-1.27,1.23-.61.91-.7,1.15-1.11.5-.58.12-.86.54-.65.58-9.2,1.77L158,84.69l-4.64.58-1.6.29-2.09-9.23-1.77-10.68,1.73-1.07Zm56.24-6.8L205.58,56l-.65-2.47,2.34-.62.61.54,1.4,1.77L210.43,57l-1.15.58-.53-.08-.46.74-1,.78-1.15.46Zm-47,98.05-.86-.41-.78-2.31-1-1-1-.2-.62-1.9-1.23-2.68-1.72-.74-.78-.74-.5-1.07-1-.83-1-.53-.9-1.2-1.31-1-1.81-.7-.16-.58-1-1.15-.2-.62L141.5,136l-1.4,0-1.6-1-.49-.5-.09-.58.25-.66,1.11-.53-.33-.82,2.63-1.12,3.78-1.85,2.91-.37,6.73-.21.95.78.74,1.45,1.89-.33,5.17-.62,1.11.33,5.13,3,4.15,3.42L172,138.68l-1.07,2.52-.2,2.59-.66.33-.45,1.12-1,.24-.86,1.49-1.11,1.11-.94,1.4-.66.33-1.48,1.4-1.19.09.41,1.31-2,2.19-.94.66-.91.37ZM40.62,60l-.37,1.32.17,1.24,1.07.82L41,65.61l-.74,1.69.62,1.36.29.45-.54,0-.28-.66-.25-.82-1.35-.74-2-.62-1-.54-1.19,0L33,66l-1.56.49-2.18-1.56-1.11-1-4.47.33-17-1L-8,62.35l.62-10.22,1.15-14,.16-2.06,23.36,1.61,23.36.7v1.11l-.53.62-.82.62,0,.9.45.91,1.68,1.4L41.57,45v14.8l-1,.16Zm82,73.57-5.37.5-9.57.9-15.44,1.12-4.84.16.37-.25.37-1.85-.5-1.48,1.6-.95.17-1,.49-1.77L91.16,125l.21-2.31.12-.08,5.05-.08,5.58-.33,0-1.61,1.43,0,12.48-1.36,22.17-2.14,4.23-.62,3.12-.08,1-.79.53.13,0,1.36-.16.66-1,.9-.66,1.49-.82-.17-1,.37-.91,1.36-.57-.08-.33-.49-.45.16-1.77,1.65-.32,1.28-1.73.9-1.76,1.49-1.56.62-1.81,1.15-.25,1.48-1,.21-.82.7-.09,2-7.43.86Zm-159.29,27.2,15.19,1.49,12,.78,3-40.27,22.33,1-.7,9.61-.41,7.42.08.82,1.81,1.69.82.45h.74l.2-.49.29.37,1,.08.45-.25v-.08l.41.21-.16,1.52,1.84.29,1,.37,1.72.29,1.07.74,1.15-.78,1.11.25.9,1.27.33.05v.86l1.35.45,1-.86.62.21.86,0,.25.86,2.13.83.94-.21.78-1.65h.05l.45.78,1.89.38,1.39.53,1.32.41,1-.49.29-.95h1.48l.86.41,1.23-.82h.16l.21.58h1.93l.78-.75.53.17.7.86,1.36.79,1.39.41,1,.58,1.11.82,1.27-.49.86.33.29,8.24.29,3.91.24,1.69,1.07,1.82.37,1.85,1.72,2.43.13,1.28.24.33-.28,3.18-1.19,2,.53,1.08-.21,1-.32,3-.54,1.24.13,1.73L59,187l-4.07,1.85-.41.79-1.07.78-.86.62-.53.33-2.34,2.18-1.11.87-2.18,1.32-2.34,1-2.58,1.4-.74.62-2.38,1.48-1.4.25-1.6,2.26-1.64.13-.41.78.94.78-.61,2.27-.54,1.85-.45,1.61-.33,1.86.33,1,.74,2.88.41,2.52.74,1.11-.41.62-1.27.78-2.34-1.61-2.26-.45-.54.2-1.31-.24-1.72-1.28-2.14-.45-3.12-1.4-.86-1.61L18,211.43l-1.31-.78-.25-1,.25-.25.12-1.4-.53-.25-.25-.41.54-1.81-.66-1-1.31-.54-1.4-1.81-1.48-2.72L10,198.49l.08-.79-2.18-5.07-.32-1.73-.74-.78-.08-.62-2.47-2.18L3.26,186v-.45l-1.06-.87-2.79-.45-3-.25-1.28-1-1.84.75-1.48.61-.95,1.32-.41,1.53-1.8,2.51-1,1-1.07-.41-.73-.46-.78-.24-1.61-.95v-.25l-.73-.78-2.14-.87-3-3.21-.94-1.94v-3.34l-1.32-2.68-.2-1.11-.66-.41-.45-.87-2.05-.86-.54-.66-2.91-3.26-.53-1.32-1.93-.94-.62-1.82-1.07-1.19-.7-.21-.24-2.23ZM35,219.18l-.25-2.93-1.11-3-.24-2.88L34,207l1.36-2.84L36.76,202l1.32-1.48.24.08-2,2.72L34.55,206l-.82,2.72-.13,2.14.37,2.52,1.07,3,.21,2.15.08.61-.37.13ZM-59,111.44-83.86,107l.7-3.79,1.36-6.35,2.21-12.37,4.36-21.8,5.13,1,14.24,2.52-.74,4.37L-57.5,76l13.22,1.45-.94,9.06-2.88,20.82-.78,5.64L-59,111.44ZM189.94,94.67l-.08,1.15-1.19,1.57-.16,1.89.2,1.4-.74,2.06-.9.79-.62-1.9.17-2.22.65-1.74.29-1.36,0-.7,2.42-.94Zm-24.75,18.38-15.85,2.31-2,0-.91-.13-1,.78-3,0-4.23.67-2.75.24,1.69-1.07,1.68-.95V114l2.34-3,1.68-1.53.91-1,1.47,1.78,1.56.37,1.11-.42.82-.61,1,.49,1.89-.53.69-1.82,1,.29,1.31-1,.66.17,1.15-1.32.08-1.11-.33-.5,2-4.33.74-2.14.21-1.94.29-.08.45.7.61.5,1.6-.09.7-3.34,1.23-.24.33-1.07,1.15-.91.45-.87.74-1.77,0-1.89,1.48.57,2.71,1.28.12-2.14,1.4.49-.25,1.2,3.53,1.27.58.75-.33,1.36-.53.53-.21.7.21,1,.82.54,1.6.57,1.19.42,2,.37.91.86,1.31.17.37.49-.17,1.94.58.45-.21.79.5.33-.09.57-1.1,0,0,.66.94.62,0,.58.74.74.21,1-1.07.58.66.61,2.38-.7,1.52,2.56-23.36,5.07Zm23.93-81.81-.29-2,10.72-2.8.12,2.38.78,1.12V31.4L199,33.21l-1.15.46v.66l.45.74v3.5L198,42.4l-.08,1.94.41.58-.08,1.77-.25.78.41.46-4.72.86V46.61l-1.19-4.45-1.36-.62.29-1.07-.37-.95-1-1.81.41-1.61-.33-2.19-1-2.68Zm-311.28-18-1-1.78-1.68-.29-.16-1-1-.25-1.19-.21-.74.41L-128.85,9l.12-1.2,1.11-.12L-127,6-128,5.56l.08-1.53,1.81-.24-1.11-1.12-.62-2.92.25-1.2V-4.7L-128.36-6l.94-3.88.87.21,1,1.19,1.11,1.07,1.31.79,1.85.86,1.27.25,1.2.62,1.39.41,1-.08v-1L-116-6l.86-.54.12.45.13.75-1,.2-.12.87.74.62.45,1,.25.79.61-.09.09-.53-.41-.54-.21-1.32.33-.74-.25-.62V-6.81l.74-1.48L-114-9.36l-1-2,.13-.33.57-.33,1.81.62,4,1.11,3.53.78,8.21,2.35,9.44,2.35,6.16,1.44-2,7.24L-85,12.47l-1.39,6.7L-86.57,23l-5.29-1.53L-98.14,20l-6,.13-.45-.63-2.34.86-1.6-.17-1.07-.74-.69.27-1.71-.1-.7-.55-2.12-.75-.49-.06-2-.58-.79.68-2.32-.1-1.89-1.38Zm3.94-22.84.82-.08.21.58.61-.66h1l.33.62-.62.7.25.33-.29.82-.58.17s-.37,0-.37-.09a8.45,8.45,0,0,1,.62-1.07l-.7-.25-.12.62-.29.25-.61-1-.21-1ZM69.53,30.66l1.19.2,1.19-.24,3-1.32,1.19-.78.86-.33.78.61-.45.46-.78,1.27-.25.79.41.25.74-.42.45-.08L79,31.4l.25.45.45.09.25-.46,1.64,2.19,3.36.49,3.37.91,1.07.45,5,1.07.66.95,1.47.5.7,4.2.66.58.61.37-.45,1-.74.65-.86,1.94-.53,1,.08.74.62.13.45-.79.61-.33.33-.94.78-.75L100,44.14l1.72-2.6.33-.21.13.41-.09.95-1.19,2.81-1.11,2.34-.2,1.32-.25,1.07.33.54-.08,1.11-.78,1-.21.74.25,1.49.25,1.4-.62,1.07-.33,1.2L97.69,60l.45,1,.25,2.52.66,1.85L99,66.64l-6.52.74-7.19.41H80l-.29-.61L78.56,67l-1.07-.54L76.55,65l-.13-1.48.83-1.2L77,61.69l-.86-.9-.33-1.36-.25-2.81-.86-1-2.87-1.85-1.56-2.23-1.4-.41L68,50H66.69L65.5,48.59l-.2-2.68,0-1.57L66,43.06l-.32-1.32-1-1.15.74-2.23,2.13-1.56.66-.78-.08-3.34.08-1.16,1-1.15.41.29Zm89.29,59.51,2.38-2.47,1.07-.33.66-.62.61-.9L164,86l1.27-.08,1.89-1.49.61-.2.54.41,1.06.49,1.24,1.24-.17,1.77L168.22,87l-2-.74,0,2.43-1.06,2.35-1.19,1-.33,1-1.24.2-.69,3.34-1.15.08-.45-.41-.5-.82-.9.2-.21,2.11-.73,2.1-2.06,4.53.37.58,0,.82-.9,1-.66-.16-1.27.95-1.15-.33-.74,2-1.56.41-1-.54-1,.78-.95.29-1.31-.33L143.88,108l-1.44-.91-1-1-1.19-1.52-.21-1-1.15-.7-.25-.54-.08-2.3.12,0,1-.09.74-.41v-.9l.7-.62,0-2.15.37-1.48.45-.29.16.13.41.45.7.2.45-.53-.41-1.28v-.66l1.28-1.9.49-.53.82.21,1.07-.75,1.27-1.4,1-1.69.08-2.31.2-2v-2L149,78.88l.37-.54.33-.28,1.76,8,1.77-.33,4.6-.54,1,5ZM-7.82,52.09l-.62,10.47-1.8,18.13-1.11-.12-34.2-3.75L-57,75.58l.82-4.94,2.84-16.9,1.56-10,.53-4.61L-31.47,42l24.26,2.68ZM176.43,90l-.45-.66-.41-.33.45-.66.91.62Z" transform="translate(147 12)"/><path class="cls-2" d="M30.62,3h8.71v7.62L35,22.34,30.62,10.62Z" transform="translate(147 12)"/><path class="cls-3" d="M67.21,62.41h8.71V70L71.57,81.75,67.21,70ZM-36.46,41.14h8.71v7.62l-4.36,11.72-4.35-11.72ZM16,159h8.71v7.62l-4.35,11.72L16,166.66Z" transform="translate(147 12)"/><path class="cls-2" d="M145.25,150.39H154V158l-4.36,11.72L145.25,158Z" transform="translate(147 12)"/><path class="cls-3" d="M164.17,80.35h8.71V88l-4.35,11.72L164.17,88Z" transform="translate(147 12)"/><path class="cls-2" d="M9.38,94.33h8.71V102l-4.35,11.72L9.38,102Z" transform="translate(147 12)"/><path class="cls-2" d="M-68.42,75.21h8.71v7.62l-4.36,11.72-4.35-11.72Z" transform="translate(147 12)"/><path class="cls-2" d="M-133.21,67.77h8.71v7.62l-4.35,11.72-4.36-11.72Z" transform="translate(147 12)"/><path class="cls-3" d="M129.27,139.77H138v7.62l-4.36,11.72-4.35-11.72Z" transform="translate(147 12)"/><path class="cls-3" d="M-77.52,118.71h8.71v7.62l-4.35,11.72-4.36-11.72Z" transform="translate(147 12)"/><path class="cls-2" d="M149.45,114.31h8.71v7.62l-4.35,11.72-4.36-11.72ZM104.63,90.06h8.71v7.62L109,109.41l-4.36-11.73Z" transform="translate(147 12)"/></svg>