<svg id="Layer_1" data-name="Layer 1" xmlns="http://www.w3.org/2000/svg" viewBox="0 0 1065 1065"><defs><style>.cls-1{fill:#f5f6f9;}.cls-2{fill:#6831e4;}.cls-3{fill:#0b0618;}</style></defs><circle class="cls-1" cx="532.5" cy="532.5" r="532.5"/><path class="cls-2" d="M830.49,423.48h-.11a5.72,5.72,0,0,0-5.72,5.76,5.82,5.82,0,0,0,5.83,5.76,5.76,5.76,0,0,0,0-11.52Z" transform="translate(-7.5 -7.5)"/><path class="cls-2" d="M300.17,171.36h-.12a5.71,5.71,0,0,0-5.7,5.76,5.79,5.79,0,1,0,5.82-5.76Z" transform="translate(-7.5 -7.5)"/><path class="cls-2" d="M519.05,194.4h-.12a5.71,5.71,0,0,0-5.7,5.76,5.79,5.79,0,1,0,5.82-5.76Z" transform="translate(-7.5 -7.5)"/><path class="cls-2" d="M196.49,309.6h-.12a5.71,5.71,0,0,0-5.7,5.76,5.79,5.79,0,1,0,5.82-5.76Z" transform="translate(-7.5 -7.5)"/><path class="cls-2" d="M213.13,716H213a5.71,5.71,0,0,0-5.7,5.76,5.79,5.79,0,1,0,5.82-5.76Z" transform="translate(-7.5 -7.5)"/><path class="cls-2" d="M564.52,885.6h-.11a5.71,5.71,0,0,0-5.71,5.76,5.79,5.79,0,1,0,5.82-5.76Z" transform="translate(-7.5 -7.5)"/><path class="cls-2" d="M841.61,897.12h-.11a5.71,5.71,0,0,0-5.71,5.76,5.79,5.79,0,1,0,5.82-5.76Z" transform="translate(-7.5 -7.5)"/><path class="cls-2" d="M971.81,484h-.11a5.71,5.71,0,0,0-5.72,5.76,5.8,5.8,0,1,0,5.83-5.76Z" transform="translate(-7.5 -7.5)"/><path class="cls-2" d="M864.65,643.68h-.11a5.71,5.71,0,0,0-5.71,5.76,5.79,5.79,0,1,0,5.82-5.76Z" transform="translate(-7.5 -7.5)"/><path class="cls-2" d="M807.45,388.92h-.11a5.71,5.71,0,0,0-5.72,5.76,5.8,5.8,0,1,0,5.83-5.76Z" transform="translate(-7.5 -7.5)"/><path class="cls-2" d="M835.9,342.84a57.6,57.6,0,1,0,57.6,57.6A57.67,57.67,0,0,0,835.9,342.84Zm0,103.68A46.08,46.08,0,1,1,882,400.44,46.14,46.14,0,0,1,835.9,446.52Z" transform="translate(-7.5 -7.5)"/><path class="cls-2" d="M853.18,365.88a17.28,17.28,0,1,0,17.28,17.28A17.3,17.3,0,0,0,853.18,365.88Zm0,23a5.76,5.76,0,1,1,5.76-5.76A5.77,5.77,0,0,1,853.18,388.92Z" transform="translate(-7.5 -7.5)"/><path class="cls-2" d="M643.9,856.92a5.76,5.76,0,0,0-5.76,5.76v46.08a5.76,5.76,0,0,0,11.52,0V862.68A5.76,5.76,0,0,0,643.9,856.92Z" transform="translate(-7.5 -7.5)"/><path class="cls-2" d="M655.42,880h-23a5.76,5.76,0,1,0,0,11.52h23a5.76,5.76,0,0,0,0-11.52Z" transform="translate(-7.5 -7.5)"/><path class="cls-2" d="M438.06,828a5.76,5.76,0,0,0-5.76,5.76v46.08a5.76,5.76,0,0,0,11.52,0V833.76A5.76,5.76,0,0,0,438.06,828Z" transform="translate(-7.5 -7.5)"/><path class="cls-2" d="M449.58,851h-23a5.76,5.76,0,0,0,0,11.52h23a5.76,5.76,0,0,0,0-11.52Z" transform="translate(-7.5 -7.5)"/><path class="cls-2" d="M438.06,217.44a5.76,5.76,0,0,0-5.76,5.76v46.08a5.76,5.76,0,0,0,11.52,0V223.2A5.75,5.75,0,0,0,438.06,217.44Z" transform="translate(-7.5 -7.5)"/><path class="cls-2" d="M449.58,240.48h-23a5.76,5.76,0,0,0,0,11.52h23a5.76,5.76,0,0,0,0-11.52Z" transform="translate(-7.5 -7.5)"/><path class="cls-2" d="M230.7,482.4a5.76,5.76,0,0,0-5.76,5.76v46.08a5.76,5.76,0,0,0,11.52,0V488.16A5.76,5.76,0,0,0,230.7,482.4Z" transform="translate(-7.5 -7.5)"/><path class="cls-2" d="M242.22,505.44h-23a5.76,5.76,0,0,0,0,11.52h23a5.76,5.76,0,0,0,0-11.52Z" transform="translate(-7.5 -7.5)"/><path class="cls-2" d="M388.89,693.45c-15.22-15.23-41.79-15.23-57,0a40.32,40.32,0,1,0,57,0Zm-8.15,48.87c-10.87,10.88-29.84,10.88-40.72,0a28.8,28.8,0,1,1,40.72,0Z" transform="translate(-7.5 -7.5)"/><path class="cls-2" d="M397,685.3a5.76,5.76,0,0,0-8.82,7.34c-.21,3.69-7.16,16.79-23.76,33.39s-29.7,23.55-33.39,23.76a5.76,5.76,0,0,0-7.34,8.82,9.37,9.37,0,0,0,6.9,2.66c14.05,0,36.84-21.95,42-27.09C378.72,728.06,408.66,696.92,397,685.3Z" transform="translate(-7.5 -7.5)"/><path class="cls-3" d="M480.64,525.87l-14.46-14.46a4,4,0,0,0-5.66,5.65L475,531.52a4,4,0,0,0,5.65-5.65Z" transform="translate(-7.5 -7.5)"/><path class="cls-3" d="M548.5,458l-14.45-14.45a4,4,0,1,0-5.65,5.65l14.45,14.45A4,4,0,0,0,548.5,458Z" transform="translate(-7.5 -7.5)"/><path class="cls-3" d="M568.6,613.83l-14.46-14.46a4,4,0,0,0-5.65,5.65l14.45,14.46a4,4,0,0,0,5.66-5.65Z" transform="translate(-7.5 -7.5)"/><path class="cls-3" d="M636.46,546,622,531.5a4,4,0,1,0-5.65,5.66l14.45,14.45a4,4,0,1,0,5.65-5.65Z" transform="translate(-7.5 -7.5)"/><path class="cls-3" d="M565.45,441.05a4,4,0,0,0-5.65,0L435.4,565.45a4,4,0,0,0,5.66,5.65L565.45,446.71A4,4,0,0,0,565.45,441.05Z" transform="translate(-7.5 -7.5)"/><path class="cls-3" d="M441.06,571.1a4,4,0,0,0-5.66-5.65,12,12,0,0,0,0,17,4,4,0,1,0,5.66-5.65A4,4,0,0,1,441.06,571.1Z" transform="translate(-7.5 -7.5)"/><path class="cls-3" d="M514.56,639a4,4,0,0,0-5.65,0,4,4,0,0,1-5.66,0,4,4,0,0,0-5.65,5.65,12,12,0,0,0,17,0A4,4,0,0,0,514.56,639Z" transform="translate(-7.5 -7.5)"/><path class="cls-3" d="M503.24,639l-62.18-62.18a4,4,0,0,0-5.66,5.65l62.19,62.18a4,4,0,1,0,5.65-5.65Z" transform="translate(-7.5 -7.5)"/><path class="cls-3" d="M639,514.56a4,4,0,0,0-5.65,0L508.91,639a4,4,0,1,0,5.65,5.65L639,520.21A4,4,0,0,0,639,514.56Z" transform="translate(-7.5 -7.5)"/><path class="cls-3" d="M639,503.25l-62.19-62.19a4,4,0,0,0-5.66,5.65l62.2,62.19a4,4,0,1,0,5.65-5.65Z" transform="translate(-7.5 -7.5)"/><path class="cls-3" d="M599.38,441.06a11.92,11.92,0,0,0-8.49-3.52h0a12,12,0,0,0-8.48,3.52,4,4,0,0,0,5.67,5.66,3.93,3.93,0,0,1,2.82-1.18,4,4,0,0,1,2.84,1.18,4,4,0,1,0,5.65-5.66Z" transform="translate(-7.5 -7.5)"/><path class="cls-3" d="M639,480.63a4,4,0,0,0-5.66,5.65,4,4,0,0,1,0,5.67,4,4,0,1,0,5.64,5.65,12,12,0,0,0,0-17Z" transform="translate(-7.5 -7.5)"/><path class="cls-3" d="M639,480.63l-39.57-39.57a4,4,0,0,0-5.65,5.66l39.56,39.56a4,4,0,0,0,5.66-5.65Z" transform="translate(-7.5 -7.5)"/><path class="cls-3" d="M571.1,480.65a4,4,0,0,0-5.66,0L475,571.1a4,4,0,1,0,5.65,5.66L571.1,486.3A4,4,0,0,0,571.1,480.65Z" transform="translate(-7.5 -7.5)"/><path class="cls-3" d="M599.36,508.91a4,4,0,0,0-5.65,0l-90.46,90.46a4,4,0,0,0,5.66,5.65l90.45-90.45A4,4,0,0,0,599.36,508.91Z" transform="translate(-7.5 -7.5)"/><path class="cls-3" d="M582.06,392.84a19.86,19.86,0,0,1,5.86-14.13,4,4,0,0,0-5.66-5.65,28,28,0,0,0,0,39.57,4,4,0,0,0,5.66-5.65A19.86,19.86,0,0,1,582.06,392.84Z" transform="translate(-7.5 -7.5)"/><path class="cls-3" d="M706.8,492a4,4,0,0,0-5.66,0,20,20,0,0,1-28.27,0,4,4,0,0,0-5.65,5.65,28,28,0,0,0,39.58,0A4,4,0,0,0,706.8,492Z" transform="translate(-7.5 -7.5)"/><path class="cls-3" d="M706.8,491.94,587.92,373.06a4,4,0,1,0-5.66,5.65L701.15,497.6a4,4,0,0,0,5.65-5.66Z" transform="translate(-7.5 -7.5)"/><path class="cls-3" d="M672.87,491.94l-85-84.95a4,4,0,1,0-5.66,5.65l85,85a4,4,0,1,0,5.65-5.66Z" transform="translate(-7.5 -7.5)"/><path class="cls-3" d="M670.05,410a4,4,0,0,0-5.66,0l-22.61,22.62a4,4,0,1,0,5.65,5.66l22.62-22.63A4,4,0,0,0,670.05,410Z" transform="translate(-7.5 -7.5)"/><path class="cls-3" d="M616.34,435.41a4,4,0,0,0-5.66,0L605,441.06a4,4,0,0,0,5.66,5.65l5.65-5.65A4,4,0,0,0,616.34,435.41Z" transform="translate(-7.5 -7.5)"/><path class="cls-3" d="M644.6,463.68a4,4,0,0,0-5.66,0l-5.64,5.65a4,4,0,0,0,0,5.65,4,4,0,0,0,5.65,0l5.66-5.65A4,4,0,0,0,644.6,463.68Z" transform="translate(-7.5 -7.5)"/><path class="cls-3" d="M576.76,441.06a12,12,0,0,0-17,0,4,4,0,0,0,5.65,5.65,4,4,0,0,1,5.65,0,4,4,0,1,0,5.66-5.65Z" transform="translate(-7.5 -7.5)"/><path class="cls-3" d="M639,503.25a4,4,0,0,0-5.65,5.65,4,4,0,0,1,0,5.66,4,4,0,0,0,5.65,5.65A12,12,0,0,0,639,503.25Z" transform="translate(-7.5 -7.5)"/><path class="cls-3" d="M622,508.9l-51-51a4,4,0,0,0-5.66,5.65l51.05,51A4,4,0,0,0,622,508.9Z" transform="translate(-7.5 -7.5)"/><path class="cls-3" d="M508.9,622,458,571.11a4,4,0,1,0-5.66,5.65l50.88,50.88a4,4,0,0,0,2.83,1.18A4,4,0,0,0,508.9,622Z" transform="translate(-7.5 -7.5)"/><path class="cls-3" d="M568.52,502.08h-.08a4,4,0,0,0-4,4,4,4,0,1,0,4-4Z" transform="translate(-7.5 -7.5)"/><path class="cls-3" d="M545.92,524.68h-.08a4,4,0,0,0-4,4,4,4,0,1,0,4-4Z" transform="translate(-7.5 -7.5)"/><path class="cls-3" d="M523.31,547.28h-.08a4,4,0,0,0-4,4,4,4,0,1,0,4-4Z" transform="translate(-7.5 -7.5)"/><path class="cls-3" d="M500.72,569.88h-.08a4,4,0,0,0-4,4,4,4,0,1,0,4-4Z" transform="translate(-7.5 -7.5)"/><path class="cls-3" d="M562.86,519h-.07a4,4,0,0,0-4,4,4,4,0,1,0,4-4Z" transform="translate(-7.5 -7.5)"/><path class="cls-3" d="M540.26,541.64h-.08a4,4,0,0,0-3.95,4,4,4,0,1,0,4-4Z" transform="translate(-7.5 -7.5)"/><path class="cls-3" d="M517.66,564.25h-.07a4,4,0,0,0-4,4,4,4,0,0,0,8,0A4,4,0,0,0,517.66,564.25Z" transform="translate(-7.5 -7.5)"/><path class="cls-3" d="M449.22,324.82l-39.59-39.57a4,4,0,0,0-5.65,0L285.24,404a4,4,0,0,0,0,5.65l39.58,39.59a4,4,0,0,0,5.66,0L449.22,330.48a4,4,0,0,0,0-5.66ZM327.65,440.73l-33.93-33.92L406.81,293.73l33.93,33.92Z" transform="translate(-7.5 -7.5)"/><path class="cls-3" d="M423.77,310.7a4,4,0,0,0-5.66,0L310.7,418.12a4,4,0,1,0,5.65,5.65L423.77,316.35A4,4,0,0,0,423.77,310.7Z" transform="translate(-7.5 -7.5)"/><path class="cls-3" d="M426.61,336.12l-28.27-28.27a4,4,0,0,0-5.65,5.66L421,341.77a4,4,0,0,0,5.65-5.65Z" transform="translate(-7.5 -7.5)"/><path class="cls-3" d="M409.65,353.08l-28.27-28.27a4,4,0,1,0-5.65,5.66L404,358.73a4,4,0,0,0,5.65,0A4,4,0,0,0,409.65,353.08Z" transform="translate(-7.5 -7.5)"/><path class="cls-3" d="M392.69,370l-28.27-28.27a4,4,0,0,0-5.65,5.66L387,375.7a4,4,0,1,0,5.66-5.66Z" transform="translate(-7.5 -7.5)"/><path class="cls-3" d="M375.72,387l-28.26-28.27a4,4,0,0,0-5.65,5.65l28.26,28.27a4,4,0,0,0,5.65-5.65Z" transform="translate(-7.5 -7.5)"/><path class="cls-3" d="M358.76,404,330.5,375.7a4,4,0,1,0-5.65,5.65l28.26,28.27a4,4,0,0,0,5.65,0A4,4,0,0,0,358.76,404Z" transform="translate(-7.5 -7.5)"/><path class="cls-3" d="M341.81,420.93l-28.27-28.27a4,4,0,0,0-5.65,5.66l28.26,28.27a4,4,0,0,0,5.66-5.66Z" transform="translate(-7.5 -7.5)"/><path class="cls-3" d="M500.1,375.71l-39.57-39.58a4,4,0,0,0-5.65,0L336.13,454.87a4,4,0,0,0,0,5.65L375.7,500.1a4,4,0,0,0,5.66,0L500.1,381.36A4,4,0,0,0,500.1,375.71ZM378.53,491.62,344.61,457.7,457.7,344.61l33.92,33.93Z" transform="translate(-7.5 -7.5)"/><path class="cls-3" d="M474.66,361.58a4,4,0,0,0-5.66,0L361.58,469a4,4,0,1,0,5.65,5.66L474.66,367.23A4,4,0,0,0,474.66,361.58Z" transform="translate(-7.5 -7.5)"/><path class="cls-3" d="M477.51,387l-28.28-28.27a4,4,0,1,0-5.65,5.65l28.27,28.28a4,4,0,1,0,5.66-5.66Z" transform="translate(-7.5 -7.5)"/><path class="cls-3" d="M460.53,404,432.26,375.7a4,4,0,1,0-5.65,5.65l28.27,28.27a4,4,0,0,0,5.65,0A4,4,0,0,0,460.53,404Z" transform="translate(-7.5 -7.5)"/><path class="cls-3" d="M443.58,420.93,415.3,392.66a4,4,0,0,0-5.65,5.66l28.27,28.27a4,4,0,0,0,2.83,1.17,4,4,0,0,0,2.83-6.83Z" transform="translate(-7.5 -7.5)"/><path class="cls-3" d="M426.6,437.89l-28.27-28.27a4,4,0,0,0-5.65,5.66L421,443.55a4,4,0,0,0,5.65-5.66Z" transform="translate(-7.5 -7.5)"/><path class="cls-3" d="M409.65,454.86l-28.28-28.27a4,4,0,1,0-5.65,5.65L404,460.51a4,4,0,0,0,5.65,0A4,4,0,0,0,409.65,454.86Z" transform="translate(-7.5 -7.5)"/><path class="cls-3" d="M392.69,471.82l-28.27-28.27a4,4,0,0,0-5.65,5.65L387,477.47a4,4,0,0,0,5.66-5.65Z" transform="translate(-7.5 -7.5)"/><path class="cls-3" d="M551,426.6,511.41,387a4,4,0,0,0-5.65,0L387,505.76a4,4,0,0,0,0,5.65L426.61,551a4,4,0,0,0,5.65,0L551,432.25A4,4,0,0,0,551,426.6ZM429.44,542.51l-33.95-33.93L508.59,395.5l33.92,33.93Z" transform="translate(-7.5 -7.5)"/><path class="cls-3" d="M525.55,412.47a4,4,0,0,0-5.66,0L412.46,519.89a4,4,0,1,0,5.65,5.66L525.55,418.12A4,4,0,0,0,525.55,412.47Z" transform="translate(-7.5 -7.5)"/><path class="cls-3" d="M528.39,437.88l-28.27-28.26a4,4,0,0,0-5.65,5.65l28.27,28.27a4,4,0,1,0,5.65-5.66Z" transform="translate(-7.5 -7.5)"/><path class="cls-3" d="M511.42,454.86l-28.26-28.27a4,4,0,0,0-5.65,5.65l28.26,28.27a4,4,0,0,0,5.65,0A4,4,0,0,0,511.42,454.86Z" transform="translate(-7.5 -7.5)"/><path class="cls-3" d="M494.47,471.81l-28.28-28.26a4,4,0,0,0-5.65,5.65l28.27,28.27a4,4,0,0,0,5.66-5.66Z" transform="translate(-7.5 -7.5)"/><path class="cls-3" d="M477.51,488.78l-28.29-28.27a4,4,0,0,0-5.65,5.66l28.28,28.27a4,4,0,1,0,5.66-5.66Z" transform="translate(-7.5 -7.5)"/><path class="cls-3" d="M460.53,505.74l-28.27-28.26a4,4,0,0,0-5.65,5.65l28.27,28.27a4,4,0,0,0,5.65-5.66Z" transform="translate(-7.5 -7.5)"/><path class="cls-3" d="M443.57,522.7,415.3,494.43a4,4,0,0,0-5.65,5.66l28.27,28.27a4,4,0,0,0,5.65-5.66Z" transform="translate(-7.5 -7.5)"/><path class="cls-3" d="M426.59,370.06,415.3,358.75a4,4,0,0,0-5.66,5.65l11.3,11.31a4,4,0,0,0,5.65-5.65Z" transform="translate(-7.5 -7.5)"/><path class="cls-3" d="M477.48,420.94l-11.3-11.31a4,4,0,0,0-5.66,5.66l11.31,11.3a4,4,0,0,0,5.65-5.65Z" transform="translate(-7.5 -7.5)"/><path class="cls-3" d="M375.71,420.94l-11.3-11.3a4,4,0,0,0-5.66,5.65l11.31,11.3a4,4,0,0,0,5.65-5.65Z" transform="translate(-7.5 -7.5)"/><path class="cls-3" d="M426.59,471.83l-11.3-11.31a4,4,0,0,0-5.66,5.65l11.31,11.31a4,4,0,0,0,5.65-5.65Z" transform="translate(-7.5 -7.5)"/><path class="cls-3" d="M693,568.59,653.41,529a4,4,0,0,0-5.66,0L529,647.75a4,4,0,0,0,0,5.66L568.6,693a4,4,0,0,0,5.65,0L693,574.24a4,4,0,0,0,0-5.65ZM571.42,684.51,537.5,650.58,650.58,537.49l33.93,33.92Z" transform="translate(-7.5 -7.5)"/><path class="cls-3" d="M667.53,554.46a4,4,0,0,0-5.65,0L554.46,661.89a4,4,0,0,0,5.66,5.65L667.53,560.11A4,4,0,0,0,667.53,554.46Z" transform="translate(-7.5 -7.5)"/><path class="cls-3" d="M670.38,579.89l-28.27-28.27a4,4,0,0,0-5.65,5.65l28.27,28.28a4,4,0,1,0,5.65-5.66Z" transform="translate(-7.5 -7.5)"/><path class="cls-3" d="M653.41,596.86l-28.26-28.27a4,4,0,1,0-5.66,5.65l28.27,28.27a4,4,0,0,0,5.65-5.65Z" transform="translate(-7.5 -7.5)"/><path class="cls-3" d="M636.46,613.81l-28.27-28.27a4,4,0,1,0-5.66,5.65l28.28,28.27a4,4,0,0,0,5.65-5.65Z" transform="translate(-7.5 -7.5)"/><path class="cls-3" d="M619.49,630.78,591.23,602.5a4,4,0,0,0-5.66,5.65l28.27,28.28a4,4,0,0,0,5.65-5.65Z" transform="translate(-7.5 -7.5)"/><path class="cls-3" d="M602.53,647.74l-28.26-28.27a4,4,0,0,0-5.66,5.65l28.27,28.28a4,4,0,0,0,5.65-5.66Z" transform="translate(-7.5 -7.5)"/><path class="cls-3" d="M585.57,664.7,557.3,636.43a4,4,0,1,0-5.65,5.65l28.27,28.27a4,4,0,1,0,5.65-5.65Z" transform="translate(-7.5 -7.5)"/><path class="cls-3" d="M743.87,619.49l-39.57-39.6a4,4,0,0,0-5.66,0L579.9,698.64a4,4,0,0,0,0,5.66l39.58,39.58a4,4,0,0,0,5.65,0L743.87,625.14A4,4,0,0,0,743.87,619.49ZM622.31,735.4l-33.93-33.93,113.09-113.1,33.92,33.94Z" transform="translate(-7.5 -7.5)"/><path class="cls-3" d="M718.43,605.34a4,4,0,0,0-5.65,0L605.34,712.78a4,4,0,0,0,5.66,5.65L718.43,611A4,4,0,0,0,718.43,605.34Z" transform="translate(-7.5 -7.5)"/><path class="cls-3" d="M721.27,630.78,693,602.5a4,4,0,0,0-5.65,5.65l28.27,28.28a4,4,0,0,0,5.65-5.65Z" transform="translate(-7.5 -7.5)"/><path class="cls-3" d="M704.31,647.74,676,619.47a4,4,0,0,0-5.66,5.65l28.27,28.28a4,4,0,0,0,5.66-5.66Z" transform="translate(-7.5 -7.5)"/><path class="cls-3" d="M687.35,664.7l-28.28-28.27a4,4,0,1,0-5.66,5.65l28.29,28.27a4,4,0,1,0,5.65-5.65Z" transform="translate(-7.5 -7.5)"/><path class="cls-3" d="M670.38,681.66,642.11,653.4a4,4,0,1,0-5.66,5.65l28.27,28.26a4,4,0,0,0,5.66-5.65Z" transform="translate(-7.5 -7.5)"/><path class="cls-3" d="M653.41,698.63l-28.26-28.27a4,4,0,1,0-5.66,5.65l28.27,28.27a4,4,0,0,0,5.65-5.65Z" transform="translate(-7.5 -7.5)"/><path class="cls-3" d="M636.45,715.6l-28.26-28.29a4,4,0,0,0-5.66,5.66l28.27,28.28a4,4,0,0,0,5.65-5.65Z" transform="translate(-7.5 -7.5)"/><path class="cls-3" d="M794.76,670.37l-39.58-39.58a4,4,0,0,0-5.66,0L630.79,749.53a4,4,0,0,0,0,5.66l39.59,39.56a4,4,0,0,0,5.65,0L794.76,676a4,4,0,0,0,0-5.65ZM673.2,786.27l-33.93-33.91L752.35,639.27l33.93,33.92Z" transform="translate(-7.5 -7.5)"/><path class="cls-3" d="M769.32,656.23a4,4,0,0,0-5.65,0L656.23,763.67a4,4,0,0,0,5.66,5.65L769.32,661.89A4,4,0,0,0,769.32,656.23Z" transform="translate(-7.5 -7.5)"/><path class="cls-3" d="M772.16,681.66l-28.27-28.27a4,4,0,1,0-5.66,5.65l28.28,28.27a4,4,0,0,0,5.65-5.65Z" transform="translate(-7.5 -7.5)"/><path class="cls-3" d="M755.19,698.63l-28.26-28.28a4,4,0,1,0-5.66,5.65l28.27,28.28a4,4,0,0,0,5.65-5.65Z" transform="translate(-7.5 -7.5)"/><path class="cls-3" d="M738.23,715.59,710,687.31a4,4,0,0,0-5.66,5.66l28.27,28.27a4,4,0,0,0,5.65-5.65Z" transform="translate(-7.5 -7.5)"/><path class="cls-3" d="M721.27,732.55,693,704.28a4,4,0,0,0-5.66,5.65l28.28,28.27a4,4,0,0,0,5.65-5.65Z" transform="translate(-7.5 -7.5)"/><path class="cls-3" d="M704.31,749.52,676,721.25a4,4,0,0,0-5.66,5.65l28.27,28.27a4,4,0,1,0,5.66-5.65Z" transform="translate(-7.5 -7.5)"/><path class="cls-3" d="M687.34,766.48l-28.27-28.27a4,4,0,0,0-5.65,5.65l28.27,28.27a4,4,0,1,0,5.65-5.65Z" transform="translate(-7.5 -7.5)"/><path class="cls-3" d="M670.37,613.83l-11.31-11.31a4,4,0,0,0-5.65,5.65l11.3,11.31a4,4,0,0,0,2.83,1.18,4,4,0,0,0,2.83-6.83Z" transform="translate(-7.5 -7.5)"/><path class="cls-3" d="M721.25,664.71,710,653.41a4,4,0,1,0-5.65,5.65l11.3,11.31a4,4,0,0,0,5.65-5.66Z" transform="translate(-7.5 -7.5)"/><path class="cls-3" d="M619.48,664.71l-11.31-11.3a4,4,0,0,0-5.65,5.65l11.3,11.31a4,4,0,0,0,5.66-5.66Z" transform="translate(-7.5 -7.5)"/><path class="cls-3" d="M670.36,715.6l-11.3-11.3a4,4,0,1,0-5.65,5.65l11.3,11.3a4,4,0,0,0,5.65-5.65Z" transform="translate(-7.5 -7.5)"/></svg>