<svg id="Layer_1" data-name="Layer 1" xmlns="http://www.w3.org/2000/svg" viewBox="0 0 3000 1692"><defs><style>.cls-1{fill:#f5f6f9;}.cls-2{fill:#0b0618;}</style></defs><rect class="cls-1" x="3.83" y="1.28" width="2991.17" height="776.62"/><path class="cls-2" d="M0,171.09C106,234,241.55,222.43,358.38,182.88S582.07,78.63,698.24,37.22s250.45-57.35,359.4.35c101,53.51,170.39,164.76,282,189.73,88.92,19.89,179.73-21.58,256.66-70.27S1747.56,50,1836.54,30.37c104.23-23,212.38,10.89,310.26,53.36s193.76,94.52,299.31,110.52c98.15,14.87,198.34-2.52,297.44,3.25s206.65,42.9,252.6,130.59V777.9H8.1Z"/><path class="cls-2" d="M3000.41,1519.24c-106.3-62.66-242-50.89-358.86-11.12s-223.78,104.67-340,146.3-250.65,57.82-359.86.32c-101.26-53.32-170.91-164.44-282.74-189.2-89.07-19.72-179.92,21.91-256.85,70.75s-151.23,107.31-240.29,127.11c-104.32,23.18-212.67-10.5-310.76-52.78s-194.19-94.16-299.9-110c-98.3-14.69-198.59,2.89-297.83-2.69S46.3,1455.45.13,1367.85L-.72,918l2991.88-5.59Z"/><rect class="cls-2" y="572" width="2997" height="506"/></svg>