<svg id="Layer_1" data-name="Layer 1" xmlns="http://www.w3.org/2000/svg" viewBox="0 0 100 100"><defs><style>.cls-1{fill:#fff;}.cls-2{fill:#5333ed;}</style></defs><circle class="cls-1" cx="50" cy="50" r="50"/><path class="cls-1" d="M0,0"/><path class="cls-2" d="M17.29,53.29l-2.85,7.44L9.05,47.33h1.87L14.41,56l2.88-7.51L20.17,56l3.5-8.62h1.88l-5.41,13.4Z"/><path class="cls-2" d="M37.12,56.34l1.49.84a6.52,6.52,0,0,1-2.42,2.55A6.71,6.71,0,0,1,27,57.4,6.81,6.81,0,0,1,26,54a6.38,6.38,0,0,1,2-4.74,6.74,6.74,0,0,1,9.52.09,6.87,6.87,0,0,1,.82,1L29.72,58a5,5,0,0,0,5.59.28A4.86,4.86,0,0,0,37.12,56.34Zm-8.54.47L36,50.24A5,5,0,0,0,27.74,54a4.89,4.89,0,0,0,.84,2.79Z"/><path class="cls-2" d="M41.68,41H39.57l.93-1.71h2.88V49.56A6.69,6.69,0,1,1,43.92,59l-.39-.37-1.85,1.7Zm6.7,8a4.92,4.92,0,1,0,3.54,1.44A4.8,4.8,0,0,0,48.38,49Z"/><polygon class="cls-2" points="64.08 49.13 64.97 47.32 56.45 47.32 56.45 49.13 62.09 49.13 64.08 49.13"/><path class="cls-2" d="M59.24,58.92h5.89v1.81H56.36l4.22-8.58h2Zm15.64-2.78a3.39,3.39,0,1,1-3.39-3.39h0A3.39,3.39,0,0,1,74.88,56.14Zm-1.66,0a1.74,1.74,0,1,0-1.73,1.73h0A1.73,1.73,0,0,0,73.22,56.14Zm9.75,0a3.39,3.39,0,1,1-3.39-3.39A3.39,3.39,0,0,1,83,56.14Zm-1.65,0a1.74,1.74,0,1,0-1.74,1.73h0a1.74,1.74,0,0,0,1.73-1.73Zm7.74-8.81-3.25,13.4h1.91L91,47.33Z"/></svg>