<?xml version="1.0" encoding="utf-8"?>
<!-- Generator: Adobe Illustrator 24.2.3, SVG Export Plug-In . SVG Version: 6.00 Build 0)  -->
<svg version="1.1" id="Layer_1" xmlns="http://www.w3.org/2000/svg" xmlns:xlink="http://www.w3.org/1999/xlink" x="0px" y="0px"
	 viewBox="0 0 100 100" style="enable-background:new 0 0 100 100;" xml:space="preserve">
<style type="text/css">
	.st0{fill:#FFFFFF;}
	.st1{fill:#20C65A;}
</style>
<g>
	
		<image style="overflow:visible;opacity:0.75;" width="130" height="130" xlink:href="F8D20031DC657A60.png"  transform="matrix(1 0 0 1 -13 -13)">
	</image>
	<g>
		<circle class="st0" cx="50" cy="50" r="50"/>
	</g>
</g>
<path class="st1" d="M8.4,41.5c1-0.4,2-0.6,3.1-0.6c1.8,0,3.6,0.7,4.9,2c1.3,1.3,2,3.1,2,4.9c0,1.9-0.7,3.7-2,5
	c-2,2.1-5.1,2.6-7.8,1.4c-0.9-0.5-1.8-1.2-2.4-2v10.4H4.4v-15c0-0.4,0-0.8,0.1-1.2l0,0c0.4-2,1.7-3.7,3.5-4.7L8.4,41.5z M7.5,44.1
	c-1,1-1.6,2.4-1.5,3.9c0,1,0.2,1.9,0.7,2.7c0.5,0.8,1.2,1.5,2,2c0.8,0.5,1.7,0.7,2.7,0.7c0.9,0,1.8-0.2,2.6-0.7
	c0.8-0.5,1.5-1.2,1.9-2c0.5-0.8,0.7-1.8,0.7-2.7c0-0.9-0.2-1.9-0.7-2.7c-0.5-0.8-1.1-1.5-1.9-2c-0.8-0.5-1.7-0.7-2.7-0.7
	C9.9,42.6,8.5,43.1,7.5,44.1z"/>
<path class="st1" d="M27.4,40.8c2-0.1,3.8,0.8,5.1,2.2c2.5,2.8,2.4,7-0.1,9.7c-2.7,2.8-7.1,2.8-9.9,0.2c0,0-0.1-0.1-0.1-0.1
	l-0.1-0.1c-2.5-2.7-2.6-6.9-0.1-9.7C23.5,41.6,25.4,40.8,27.4,40.8z M27.4,42.5c-1.4,0-2.7,0.6-3.7,1.6c-1,1-1.6,2.4-1.5,3.8
	c0,1,0.2,1.9,0.7,2.7c0.4,0.8,1.1,1.5,1.9,1.9c1.6,0.9,3.6,0.9,5.2,0c0.8-0.5,1.5-1.2,1.9-2c0.5-0.8,0.7-1.8,0.7-2.7
	c0-1.4-0.5-2.8-1.5-3.8C30.1,43,28.8,42.4,27.4,42.5L27.4,42.5z"/>
<path class="st1" d="M44.2,42.6l-1.1,1.2c-0.7-0.8-1.7-1.3-2.7-1.3c-0.5,0-1,0.2-1.4,0.5c-0.4,0.3-0.6,0.8-0.6,1.3
	c0,0.5,0.2,0.9,0.5,1.2c0.6,0.6,1.3,1.1,2.1,1.5c1,0.4,1.9,1.1,2.6,1.9c0.4,0.6,0.6,1.3,0.6,2.1c0,1-0.4,2-1.1,2.8
	c-0.8,0.8-1.8,1.2-2.9,1.2c-0.8,0-1.5-0.2-2.2-0.5c-0.7-0.3-1.3-0.8-1.7-1.4l1.1-1.2c0.7,0.9,1.7,1.4,2.8,1.5c0.6,0,1.3-0.2,1.8-0.7
	c0.9-0.7,1-2,0.3-2.8c0,0,0,0,0,0c-0.6-0.6-1.4-1.1-2.1-1.4c-1-0.4-1.8-1-2.5-1.8c-0.4-0.6-0.7-1.3-0.7-2.1c0-0.9,0.3-1.9,1-2.5
	c0.7-0.7,1.6-1,2.6-1C41.9,40.9,43.3,41.6,44.2,42.6z"/>
<path class="st1" d="M46,41.5h1.8l4.5,9.7l4.4-9.7h1.9l-6.1,13.4h-0.3L46,41.5z"/>
<path class="st1" d="M60.9,41.5h1.7v13.4h-1.7V41.5z"/>
<path class="st1" d="M79.2,44l-1.4,0.8c-1.1-1.6-2.9-2.5-4.8-2.4c-1.5-0.1-3,0.5-4.1,1.5c-1.1,1-1.6,2.4-1.6,3.8
	c0,1,0.3,1.9,0.7,2.8c0.5,0.8,1.2,1.5,2,2c2.6,1.4,5.9,0.7,7.8-1.6l1.4,0.9c-0.6,1-1.5,1.7-2.6,2.2c-1.2,0.5-2.4,0.8-3.7,0.8
	c-2,0.1-3.8-0.7-5.3-2c-1.4-1.3-2.1-3.1-2.1-4.9c0-2.6,1.4-5,3.7-6.2c2-1,4.2-1.2,6.3-0.5c0.8,0.2,1.5,0.6,2.1,1
	C78.3,42.7,78.8,43.3,79.2,44z"/>
<path class="st1" d="M93.7,50.1l1.4,0.8c-0.4,0.8-0.9,1.6-1.6,2.2c-0.6,0.6-1.3,1-2.1,1.3c-0.8,0.3-1.7,0.5-2.6,0.4
	c-1.9,0.1-3.8-0.7-5.1-2.1c-2.3-2.6-2.4-6.6-0.2-9.4c1.2-1.6,3.2-2.6,5.3-2.5c2.1-0.1,4.2,0.9,5.4,2.6c1,1.3,1.5,2.9,1.5,4.6h-12
	c0,1.4,0.5,2.8,1.5,3.8c0.9,1,2.2,1.5,3.6,1.5c0.7,0,1.4-0.1,2-0.4c0.6-0.2,1.1-0.5,1.6-1C92.8,51.4,93.3,50.8,93.7,50.1z
	 M93.7,46.5c-0.2-0.8-0.5-1.5-1-2.2c-0.5-0.6-1-1-1.7-1.3c-0.7-0.3-1.5-0.5-2.3-0.5c-1.2,0-2.4,0.4-3.4,1.3
	c-0.8,0.8-1.3,1.7-1.6,2.8H93.7z"/>
<path class="st1" d="M11.5,44c-0.1-0.1-0.3-0.2-0.5-0.1c-1.8,0.4-3.2,1.8-3.4,3.7c0,0.2,0,0.4,0.2,0.5c0.2,0.3,0.7,0.3,0.9,0.1
	c0.1-0.1,0.2-0.2,0.2-0.4c0.2-1.3,1.1-2.3,2.4-2.6c0.4-0.1,0.6-0.4,0.5-0.8C11.7,44.2,11.6,44.1,11.5,44L11.5,44z"/>
<circle class="st1" cx="61.8" cy="38.6" r="1.2"/>
</svg>
