<svg id="Layer_1" data-name="Layer 1" xmlns="http://www.w3.org/2000/svg" viewBox="0 0 100 100"><defs><style>.cls-1{fill:#fff;}.cls-2{fill:#6b4ffe;}</style></defs><circle class="cls-1" cx="50" cy="50" r="50"/><path class="cls-1" d="M0,0"/><path class="cls-2" d="M17.36,39.29A1,1,0,0,0,17.77,38a1.08,1.08,0,0,0-1.52-.45,15.45,15.45,0,0,0-4.41,4h0a11.51,11.51,0,0,0-1.54,2.68v0A15.52,15.52,0,0,0,9.05,50a1.08,1.08,0,0,0,1.14,1.1,1,1,0,0,0,.91-1,11.51,11.51,0,0,1,1.62-6.28A11.58,11.58,0,0,1,17.36,39.29Z"/><path class="cls-2" d="M36.45,50.51a12.06,12.06,0,0,0-7.36-9.76c-5.51-2.4-12.5.29-14.63,5.64-1.69,4.27-.35,9.22,3.64,11.26A6.65,6.65,0,0,0,26.29,56a5,5,0,0,0,1.22-2.41A4.82,4.82,0,0,0,26.93,50a4.06,4.06,0,0,0-.42-.63l-.12.16c-.84,1.15-2.15,1.61-2.92,1s-.71-1.84,0-3l-.35,0-.54,0h0a3.24,3.24,0,0,0-1.7.44,4.39,4.39,0,0,1,2.79-1.63,5.63,5.63,0,0,1,5.62,2.88,7.22,7.22,0,0,1-.72,8.2A8.62,8.62,0,0,1,22,60.61a.8.8,0,0,0-.64.34,1,1,0,0,0,.78,1.65,10.3,10.3,0,0,0,9.44-6.53,8.71,8.71,0,0,0-4-11.07,6.53,6.53,0,0,0-9.06,3,11.33,11.33,0,0,0-.34,1.12,6.18,6.18,0,0,0,.19,3.34,4.76,4.76,0,0,0,4.19,2.8h0a4.65,4.65,0,0,0,2.21-.61A4.44,4.44,0,0,1,22,56.34a5.63,5.63,0,0,1-5.62-2.88c-1.5-2.53-.85-6.05,1.07-8.38a9.63,9.63,0,0,1,12.74-1.46,10.63,10.63,0,0,1,4.31,7,1,1,0,0,0,1.66.56A.84.84,0,0,0,36.45,50.51Z"/><path class="cls-2" d="M47.48,55.88a3.23,3.23,0,0,0,3.11-3.12v0a4.7,4.7,0,0,1-7.81-3.54,4.61,4.61,0,0,1,1.37-3.34,4.7,4.7,0,0,1,8,3.33v3.57A4.48,4.48,0,0,1,50.7,56.1a4.54,4.54,0,0,1-3.22,1.39,4.6,4.6,0,0,1-4.14-2.15.79.79,0,0,1-.08-.69.76.76,0,0,1,.48-.49h0a.73.73,0,0,1,.92.31A3.11,3.11,0,0,0,47.48,55.88Zm3.11-6.73A3.11,3.11,0,0,0,45.27,47a3.12,3.12,0,1,0,5.32,2.2Z"/><path class="cls-2" d="M55.5,49.82a2.32,2.32,0,0,0,2.32,2.33,2.19,2.19,0,0,0,1.63-.69,2.24,2.24,0,0,0,.68-1.64V45.27a.79.79,0,0,1,.79-.79h0a.75.75,0,0,1,.55.23.76.76,0,0,1,.24.56v8.29a4.05,4.05,0,0,1-3.91,3.93,4.26,4.26,0,0,1-2.22-.61,3.9,3.9,0,0,1-1.47-1.57.78.78,0,0,1,0-.65.73.73,0,0,1,.46-.45h0a.72.72,0,0,1,.54,0,.78.78,0,0,1,.41.37,2.31,2.31,0,0,0,.92.94,2.61,2.61,0,0,0,1.34.36,2.19,2.19,0,0,0,1.61-.68,2.22,2.22,0,0,0,.7-1.65V53a3.91,3.91,0,0,1-6.22-3.15V45.27a.79.79,0,0,1,.23-.56.75.75,0,0,1,.56-.23h0a.73.73,0,0,1,.55.23.76.76,0,0,1,.24.56v4.55Z"/><path class="cls-2" d="M67.89,55.88A3.23,3.23,0,0,0,71,52.76v0a4.55,4.55,0,0,1-3.11,1.19,4.49,4.49,0,0,1-3.32-1.39,4.71,4.71,0,1,1,6.64-6.69,4.59,4.59,0,0,1,1.39,3.34v3.57a4.93,4.93,0,0,1-4.71,4.73,4.57,4.57,0,0,1-4.13-2.15.76.76,0,0,1-.09-.69.76.76,0,0,1,.48-.49h0a.73.73,0,0,1,.92.31A3.11,3.11,0,0,0,67.89,55.88ZM71,49.15a3.11,3.11,0,0,0-6.22.05,3,3,0,0,0,.91,2.22,3.11,3.11,0,0,0,4.4,0A3,3,0,0,0,71,49.2Z"/><path class="cls-2" d="M79.63,46.17c.06-.07,0-.11,0-.12H75.15a.75.75,0,0,1-.55-.23.76.76,0,0,1-.24-.56v0a.76.76,0,0,1,.24-.56.73.73,0,0,1,.55-.23h5.17a1.23,1.23,0,0,1,1.25.8,1.25,1.25,0,0,1-.28,1.48l-5.14,5.4s0,0,0,.06,0,.1,0,.11H81a.74.74,0,0,1,.55.22.77.77,0,0,1,.24.56v0a.74.74,0,0,1-.24.56.73.73,0,0,1-.55.23H75.4a1.2,1.2,0,0,1-1.24-.81,1.24,1.24,0,0,1,.28-1.47L77,48.92l2.57-2.71A.11.11,0,0,1,79.63,46.17Z"/><path class="cls-2" d="M84.73,49.82A2.32,2.32,0,0,0,87,52.15a2.18,2.18,0,0,0,1.63-.69,2.2,2.2,0,0,0,.68-1.64V45.27a.76.76,0,0,1,.24-.56.77.77,0,0,1,.56-.23h0a.77.77,0,0,1,.56.23.79.79,0,0,1,.23.56v8.29a4.05,4.05,0,0,1-3.9,3.93,4.27,4.27,0,0,1-2.23-.61,3.81,3.81,0,0,1-1.46-1.57.74.74,0,0,1,0-.65.75.75,0,0,1,.47-.45h0a.75.75,0,0,1,.55,0,.76.76,0,0,1,.4.37,2.37,2.37,0,0,0,.92.94,2.65,2.65,0,0,0,1.35.36,2.2,2.2,0,0,0,1.61-.68,2.26,2.26,0,0,0,.7-1.65V53a3.87,3.87,0,0,1-5.08-.39,3.76,3.76,0,0,1-1.14-2.76V45.27a.75.75,0,0,1,.23-.56.73.73,0,0,1,.55-.23h0a.74.74,0,0,1,.55.23.79.79,0,0,1,.23.56v4.55Z"/></svg>