<?xml version="1.0" encoding="utf-8"?>
<!-- Generator: Adobe Illustrator 24.2.3, SVG Export Plug-In . SVG Version: 6.00 Build 0)  -->
<svg version="1.1" id="Layer_1" xmlns="http://www.w3.org/2000/svg" xmlns:xlink="http://www.w3.org/1999/xlink" x="0px" y="0px"
	 viewBox="0 0 1101 145" style="enable-background:new 0 0 1101 145;" xml:space="preserve">
<style type="text/css">
	.st0{fill:#0B0618;}
</style>
<path class="st0" d="M-1.4,64.4C38,87.9,88.4,83.6,131.9,68.8s83.2-38.9,126.5-54.4S351.6-7,392.1,14.6
	c37.6,20,63.4,61.5,104.9,70.8c33.1,7.4,66.9-8.1,95.5-26.2s56.3-40,89.4-47.3c38.8-8.6,79,4.1,115.5,19.9s72.1,35.3,111.4,41.3
	c36.5,5.6,73.8-0.9,110.7,1.2c36.9,2.2,76.9,16,94,48.8v168H1.6L-1.4,64.4z"/>
</svg>
