<svg id="Layer_1" data-name="Layer 1" xmlns="http://www.w3.org/2000/svg" viewBox="0 0 1101 145"><defs><style>.cls-1{fill:#fff;}.cls-2{fill:#0b0618;}</style></defs><rect class="cls-1" x="-1" y="-145.85" width="1113" height="290" transform="matrix(-1, 0, 0, -1, 1111, -2.56)"/><path class="cls-2" d="M1113.55,79.88c-39.49-23.41-89.91-19-133.36-4.2S897,114.74,853.81,130.27s-93.15,21.56-133.73.07c-37.62-19.92-63.49-61.42-105-70.68-33.1-7.38-66.87,8.15-95.46,26.38s-56.22,40.05-89.31,47.43c-38.78,8.65-79-3.94-115.48-19.74s-72.16-35.19-111.44-41.1c-36.53-5.5-73.8,1.05-110.68-1S15.76,55.68-1.39,23l-.26-168,1111.84-1.71Z"/></svg>