<svg id="Layer_1" data-name="Layer 1" xmlns="http://www.w3.org/2000/svg" viewBox="0 0 795 480"><defs><style>.cls-1{fill:#5333ed;}.cls-2{fill:#fff;}</style></defs><rect class="cls-1" width="795" height="480"/><path class="cls-2" d="M171,262.77l-19.76,51.48L114,221.53h12.94l24.14,59.69,20-52,20,52,24.23-59.69h13l-37.42,92.72Z"/><path class="cls-2" d="M308.36,283.92l10.28,5.78a45.5,45.5,0,0,1-16.72,17.69,46.52,46.52,0,0,1-70.33-39.56A44.21,44.21,0,0,1,245.31,235a46.61,46.61,0,0,1,65.9.61,47.55,47.55,0,0,1,5.72,7.1L257.1,295.48a35,35,0,0,0,38.7,1.94A34.15,34.15,0,0,0,308.36,283.92Zm-59.18,3.2,51.23-45.46a34.58,34.58,0,0,0-51.23,45.46Z"/><path class="cls-2" d="M339.88,177.56H325.3l6.43-11.81h19.94v71.19a46.35,46.35,0,1,1,3.74,65.44c-.93-.83-1.82-1.7-2.69-2.6l-12.84,11.79Zm46.37,55.69a34,34,0,1,0,24.55,10A33.27,33.27,0,0,0,386.25,233.25Z"/><polygon class="cls-2" points="494.97 233.95 501.13 221.46 442.19 221.46 442.19 233.95 481.18 233.95 494.97 233.95"/><path class="cls-2" d="M461.44,301.76h40.82v12.49H441.51l29.25-59.33h13.79Zm108.32-19.28A23.47,23.47,0,1,1,546.29,259h0A23.47,23.47,0,0,1,569.76,282.48Zm-11.47,0a12,12,0,1,0-12,12h0A12,12,0,0,0,558.29,282.48Zm67.5,0a23.51,23.51,0,1,0-.07,0Zm-11.48,0a12,12,0,1,0-12,12h.05a12,12,0,0,0,11.92-12Zm53.57-61-22.45,92.74h13.23L681,221.51Z"/></svg>