<svg id="Layer_1" data-name="Layer 1" xmlns="http://www.w3.org/2000/svg" viewBox="0 0 252 66"><defs><style>.cls-1{fill:#5333ed;}</style></defs><path class="cls-1" d="M150.9,101.17l-8.78,22.89L125.55,82.84h5.75L142,109.38l8.88-23.12,8.87,23.12,10.77-26.54h5.76l-16.64,41.22Z" transform="translate(-125.55 -58.06)"/><path class="cls-1" d="M211.93,110.58l4.57,2.57a20.33,20.33,0,0,1-7.46,7.91,20.68,20.68,0,0,1-31.26-17.59,19.7,19.7,0,0,1,6.1-14.58,20.72,20.72,0,0,1,29.29.28,20.25,20.25,0,0,1,2.54,3.15l-26.59,23.44a15.53,15.53,0,0,0,17.2.86A15,15,0,0,0,211.93,110.58ZM185.63,112,208.4,91.79A15.37,15.37,0,0,0,185.63,112Z" transform="translate(-125.55 -58.06)"/><path class="cls-1" d="M225.94,63.3h-6.48l2.86-5.24h8.86V89.7a20.6,20.6,0,1,1,1.67,29.09h0c-.41-.37-.81-.75-1.19-1.15l-5.71,5.23Zm20.61,24.76a15.13,15.13,0,1,0,10.91,4.43A14.84,14.84,0,0,0,246.55,88.06Z" transform="translate(-125.55 -58.06)"/><polygon class="cls-1" points="169.32 30.31 172.06 24.76 145.86 24.76 145.86 30.31 163.19 30.31 169.32 30.31"/><path class="cls-1" d="M280,118.51h18.14v5.55h-27l13-26.36h6.13Zm48.14-8.57a10.43,10.43,0,1,1-10.43-10.43h0a10.43,10.43,0,0,1,10.43,10.41Zm-5.1,0a5.34,5.34,0,1,0-5.35,5.33h0A5.36,5.36,0,0,0,323,110h0Zm30,0a8.09,8.09,0,1,1,0-.08v.08Zm-5.1,0a5.34,5.34,0,1,0-5.35,5.33h0a5.35,5.35,0,0,0,5.3-5.33Zm23.81-27.1-10,41.22h5.88l9.93-41.21Z" transform="translate(-125.55 -58.06)"/></svg>