<svg id="Layer_1" data-name="Layer 1" xmlns="http://www.w3.org/2000/svg" viewBox="0 0 503.56 183.55"><defs><style>.cls-1{fill:#fff;stroke:#6831e4;stroke-miterlimit:10;}.cls-2{fill:#5333ed;}</style></defs><rect class="cls-1" x="0.5" y="0.5" width="502.56" height="182.55" rx="20.04"/><path class="cls-2" d="M150.86,102.11,142.08,125,125.51,83.78h5.75L142,110.32l8.88-23.12,8.87,23.12,10.77-26.54h5.76L159.64,125Z" transform="translate(0.04 -0.94)"/><path class="cls-2" d="M211.89,111.52l4.57,2.57A20.34,20.34,0,0,1,209,122a20.68,20.68,0,0,1-31.26-17.59,19.72,19.72,0,0,1,6.1-14.58,20.72,20.72,0,0,1,29.29.28,20.25,20.25,0,0,1,2.54,3.15l-26.59,23.44a15.53,15.53,0,0,0,17.2.86A15,15,0,0,0,211.89,111.52Zm-26.3,1.42,22.77-20.21a15.37,15.37,0,0,0-22.77,20.21Z" transform="translate(0.04 -0.94)"/><path class="cls-2" d="M225.9,64.24h-6.48L222.28,59h8.86V90.64a20.6,20.6,0,1,1,1.66,29.08c-.41-.37-.81-.75-1.19-1.15l-5.71,5.23ZM246.51,89a15.13,15.13,0,1,0,10.91,4.43A14.84,14.84,0,0,0,246.51,89Z" transform="translate(0.04 -0.94)"/><polygon class="cls-2" points="294.87 88.37 297.61 82.82 271.41 82.82 271.41 88.37 288.74 88.37 294.87 88.37"/><path class="cls-2" d="M279.93,119.45h18.14V125h-27l13-26.36h6.13Zm48.14-8.57a10.43,10.43,0,1,1-10.43-10.43h0A10.42,10.42,0,0,1,328.07,110.88Zm-5.1,0a5.34,5.34,0,1,0-5.35,5.33h0A5.35,5.35,0,0,0,323,110.88Zm30,0a10.43,10.43,0,1,1-10.46-10.43A10.42,10.42,0,0,1,353,110.88Zm-5.1,0a5.34,5.34,0,1,0-5.35,5.33h0a5.35,5.35,0,0,0,5.3-5.33Zm23.81-27.1L361.7,125h5.88l9.93-41.21Z" transform="translate(0.04 -0.94)"/></svg>